<svg xmlns="http://www.w3.org/2000/svg" xmlns:xlink="http://www.w3.org/1999/xlink"><defs><path id="SVGID_1_" d="M.7.1h100.6v100.6H.7z"/><path id="SVGID_1_" d="M.7.1h100.6v100.6H.7z"/><path id="SVGID_1_" d="M.7.1h100.6v100.6H.7z"/></defs><symbol id="facebook" viewBox="0 0 101 101"><style>.st0{clip-path:url(#SVGID_2_)}.st1{fill:#241f21}.st2{enable-background:new}.st3{fill:#f2f4fa}</style><title>Social Media Wireframe boxes</title><clipPath id="SVGID_2_"><use xlink:href="#SVGID_1_" overflow="visible"/></clipPath><g class="st0"><path class="st1" d="M-11.9-12.5h125.7v125.7H-11.9z"/></g><g class="st2"><path class="st3" d="M38.7 61V36.3h17.4v5.6h-11v4.9h10.1v5.5H45.1V61h-6.4z"/></g></symbol><symbol id="instagram" viewBox="0 0 101 101"><style>.st0{clip-path:url(#SVGID_2_)}.st1{fill:#241f21}.st2{enable-background:new}.st3{fill:#f2f4fa}</style><title>Social Media Wireframe boxes</title><clipPath id="SVGID_2_"><use xlink:href="#SVGID_1_" overflow="visible"/></clipPath><g class="st0"><path class="st1" d="M-11.9-12.5h125.7v125.7H-11.9z"/></g><g class="st2"><path class="st3" d="M49.2 61h-6.5V36.3h6.5V61z"/></g></symbol><symbol id="twitter" viewBox="0 0 101 101"><style>.st0{clip-path:url(#SVGID_2_)}.st1{fill:#241f21}.st2{enable-background:new}.st3{fill:#f2f4fa}</style><title>Social Media Wireframe boxes</title><clipPath id="SVGID_2_"><use xlink:href="#SVGID_1_" overflow="visible"/></clipPath><g class="st0"><path class="st1" d="M-11.9-12.5h125.7v125.7H-11.9z"/></g><g class="st2"><path class="st3" d="M36.7 36.3h21.7v5.6h-7.6V61h-6.5V41.8h-7.6v-5.5z"/></g></symbol><symbol id="wire-image-dark" viewBox="0 0 2000 2000"><style>.st0,.st1{fill:#444;stroke:#222;stroke-miterlimit:10}.st1{fill:none}</style><path class="st0" d="M.5.5h1999v1999H.5z"/><path class="st1" d="M.5 1999.5L1999.5.5M1999.5 1999.5L.5.5"/></symbol><symbol id="wire-image" viewBox="0 0 1000 1000"><style>.st0,.st1{fill:#fff;stroke:#000;stroke-miterlimit:10}.st1{fill:none}</style><path class="st0" d="M.5.5h999v999H.5z"/><path class="st1" d="M.5 999.5l999-999M999.5 999.5L.5.5"/></symbol></svg>