<svg xmlns="http://www.w3.org/2000/svg" xmlns:xlink="http://www.w3.org/1999/xlink" viewBox="0 0 35.561 35.974"><defs><path id="a" d="M0 0h35.561v35.974H0z"/></defs><clipPath id="b"><use xlink:href="#a" overflow="visible"/></clipPath><path clip-path="url(#b)" fill="#03BED7" d="M2.28 2.176l-.214-.146-.057.092c.097.023.186.04.271.054M3.235 1.227l-.067-.046c-.01.03-.025.055-.038.083.035-.014.069-.027.105-.037M2.007 2.125c-.211.345-.35.739-.686.998A193.91 193.91 0 0 0 .848 2.8c-.242.101-.248.363-.373.546-.118-.081-.236-.161-.298-.071-.24.186-.221.432-.03.645 1.205-.673 2.75-.151 1.86-1.795M3.448 2.04l-.622-.425c-.207.165-.437.314-.517.566a1.92 1.92 0 0 0 1.139-.141M4.6 31.737c.038.056.047.093-.115.084l.115-.084c-.034-.053-.093-.124-.062-.194a9.37 9.37 0 0 1-1.203 1.16c.005.138.013.276.026.41 1.12-.844 2.276-1.634 2.891-2.767-.669.458-1.02.932-1.652 1.391M3.646 33.723l-.115.084c.162.01.153-.027.115-.084M21.136 18.761c.3-.32.167-.691-.075-.972-.169.494-.676 1.03-.882 1.68.311-.245.623-.48.957-.708M19.53 16.911c-.028.03-.028.057-.002.082-.187.099.087.198.371.366.051-.137.086-.259.111-.366l-.149-.055-.331-.027z"/><path clip-path="url(#b)" fill="#03BED7" d="M20.713 17.1c-.269.177.104.379.348.689.088-.274.039-.521-.348-.689M15.791 32.722c-.352.626-.596.962-.759 1.117.006.182.005.412-.007.706l.095-.064c.437-.539.892-1.068 1.361-1.591a4.08 4.08 0 0 0 .368-.822c-.359.21-.716.424-1.058.654M15.032 33.839c-.05-1.561-.637.604 0 0M14.568 25.776l.081-.056.194-.224-.275.28M23.221 23.644c-.288.223-.571.454-.853.693l-.418.362-.304.298.331-.28.44-.357c.29-.237.572-.473.839-.706.535-.467 1.01-.925 1.358-1.362-.148.101-.392.134-.537.233-.103.337-.391.801-.856 1.119"/><path clip-path="url(#b)" fill="#03BED7" d="M25.189 20.431c-.404.743-1.134 1.509-1.942 2.278l-1.267 1.172-.327.301-.261.26c-.169.172-.335.346-.496.522-.996 1.081-2.607 1.514-3.235 2.878l.186.273.056-.171c.452-.23.885-.313 1.285-.475l-.044.066.095-.087c.264-.111.514-.263.743-.524l.3-.391 1.029-.885 1.078-.969c.9-.801 1.697-1.607 2.226-2.387.748-.911.989-1.743 1.468-2.471-.258.176-.764.388-.894.61m-2.815 7.359c.199-.241.396-.475.614-.697.109-.111.223-.22.345-.324.168-.136.419-.319.644-.473l-.588.504-.338.33-.677.66zm11.982-10.958c-2.606-1.212-4.681-2.371-6.151-3.486-.636-.435-2.073-1.217-3.314-1.663-1.258-.459-2.253-.539-2.484.104 1.513-.42 4.075 1.315 6.205 2.737 1.078.72 2.076 1.38 3.029 1.822.946.438 1.893.69 2.715.486m-9.354-.603a10.842 10.842 0 0 1-1.861-.654c-.51-.232-.97-.48-1.473-.689-.237-.162-.904-.084-1.168-.264-.446-.173-.82-.16-1.143-.248.008.094.012.186.013.276-.162-.177-.424-.189-.648-.192l-.163-.006-.077-.009c-.013-.003-.022-.003-.038-.009l-.071-.034a1.898 1.898 0 0 1-.551-.407c-.062.091-.305.192-.423.112-.653-.313-1.12-.899-1.717-1.04-.654-.313-1.244-.716-1.841-.858-.119-.081-.542.031-.841-.039-.313-.161-.618-.335-.923-.507l-.015.097c.233.164.478.318.757.42.835.302 1.787.685 2.558 1.078.949.515 1.899.965 2.85 1.381.073.035.089.031.119.036l.085.014.177.029.377.067c.261.049.544.109.845.181.27.052.672.059.985.14.529.094.98.302 1.472.488a7.277 7.277 0 0 0 1.865.456c.249.037.418.152.85.181m-14.639-5.747l.001-.043-.026.043h.025zM8.412 6.378c-.705-.711-1.916-1.232-3.046-1.796a.36.36 0 0 0-.057.063c.809.676 2.027 1.181 3.103 1.733M5.706 4.401c.147.045.303.086.461.123a1.095 1.095 0 0 1-.012-.102c-.115-.078-.286-.07-.449-.021m5.754 24.741a56.837 56.837 0 0 0 3.19-3.422c1.229-.864 2.404-1.759 3.477-2.715.537-.477 1.048-.97 1.528-1.482.394-.453.646-.85.848-1.26.289-.722.887-1.333 1.276-1.921.372-.576.516-1.116-.609-1.349l-.216-.027-.005.027a1.079 1.079 0 0 0-.236.107 1.918 1.918 0 0 0-.357-.107l-.495-.055-1.691-.607a6.911 6.911 0 0 1-.546-.224 3.733 3.733 0 0 1-.228-.117l-1.165-.783c-.474-.323-1.015-.292-1.488-.615l-1.454-.918a.112.112 0 0 0-.024.072 80.318 80.318 0 0 0-6.286-3.423C5.971 9.768 5.086 9.03 4.141 8.385c-.354-.242-.106-.606-.28-.859-.635-1.101-1.095-1.949-2.035-2.858l.187-.273a1.232 1.232 0 0 1-.429-.294c1.206-.673 2.75-.152 1.86-1.795l.002-.003c.096.023.185.04.271.054l.023.015.006-.01c.426.066.742.024 1.138-.142l-.621-.424c.126-.101.239-.211.304-.353l.105-.035.169.115c.078-.049.148-.104.211-.164.809-.021 1.803.359 1.897-.131.006-.28-.505-.383-1.035-.573a.68.68 0 0 0-.028-.153c.653.313.435-.637.851-.485C7.21.34 7.745.57 8.218.893c1.925 1.315 3.609 2.333 5.686 3.352l.271.138a15.778 15.778 0 0 1 2.722 1.769c-.1.023-.2.04-.299.054.682.552 1.392 1.066 2.21 1.422 1.011.423 2.022.847 3.024 1.314.138.068.221.098.407.199l.5.269 1.016.565c.682.389 1.374.803 2.063 1.24 2.864 1.85 5.826 3.594 9.493 5.651-1.668-.842-3.193-1.613-4.497-2.412a36.663 36.663 0 0 0-1.604-1.09 18.05 18.05 0 0 0 1.604 1.09c1.233.874 2.388 1.736 3.902 2.539-.546.521-.886 1.026-.931 1.547-.331.115-.5.098-.678.22-1.272.868-2.624 1.658-3.191 2.579.133.043-.43.427.014.391-1.021.831-2.356 1.743-3.339 2.681-.447.392-.789.882-1.137 1.433l-1.52 1.307-.19.163-.103.104-.207.208-.413.416-1.666 1.672a261.896 261.896 0 0 1-3.48 3.419c-.619.551-1.401 1.09-2.088 1.56a47.825 47.825 0 0 1 2.579-2.908c1.073-.635 2.056-1.307 2.546-2.327.13-.216.261-.426.398-.631-1.004.98-1.994 1.961-2.944 2.958-.633.375-1.297.737-1.908 1.149l.023-.044c.398-.443.804-.883 1.219-1.318.954-.564 1.836-1.159 2.365-2.001a2.97 2.97 0 0 0 .182-.327c.128-.215.261-.425.397-.629l-1.834 1.818-1.11 1.139-.851.496c.013-.042.029-.085.037-.128.176-.253.108-1.774-.433-1.805-1.804 1.266-4.063 3.443-4.125 3.352-.367-.284 2.426-2.892 2.246-2.903-.203.079-.401.164-.596.253.115-.187.226-.374.316-.562.292-.333.828-.565.94-.909.454-1.111 1.525-1.575 2.222-2.584.405-.678.865-1.526 1.325-2.375-.124-.181.294-.333.051-.435.667-.455 1.439-.983 1.362-1.709l.039-.048c.047-.032.082-.1.117-.185a2.868 2.868 0 0 0 1.1-1.066c.235-.392.362-.792.527-1.162.203-.207.422-.401.688-.583-.177.121-.551.243-.61.417l-.078.166c-.522.534-.951 1.182-1.528 1.865-.018.091-.05.24-.099.363a2.51 2.51 0 0 1-.18.094c.011.048.019.094.024.139-.638.818-1.497 1.543-2.009 2.286-1.1 1.206-2.603 2.009-3.976 2.87a59.875 59.875 0 0 0 1.63-1.836 83.082 83.082 0 0 0-1.978 2.059l-.343.228-.71.484c.248-.11.488-.229.724-.351-.369.406-.73.813-1.077 1.227-2.08 2.045-4.375 3.937-6.871 5.435a4.436 4.436 0 0 1-.065-.44c1.12-.845 2.276-1.634 2.891-2.766-.668.456-1.021.931-1.652 1.389-.035-.052-.093-.123-.062-.193a9.246 9.246 0 0 1-1.204 1.159c-.011-.338-.002-.685.006-1.034.112-.344.467-.586.76-.919 1.427-1.205 2.904-2.146 4.265-3.399 1.369-.885 2.737-1.769 4.046-2.686-1.136 1.151-2.162 2.236-3.109 3.366"/><path clip-path="url(#b)" fill="#03BED7" d="M13.787 27.865c-.435.46-.877.917-1.333 1.365a34.2 34.2 0 0 0-.947 1.181c-1.565 1.783-3.894 3.133-5.783 4.745.123.309.302.586.568.818 2.416-1.216 4.297-3.215 6.613-4.574l.032-.065c.574-1.192 2.234-2.06 3.106-3.322.809-1.354 1.867-2.343 2.738-3.606-1.708 1.167-3.198 2.472-4.994 3.458M19.9 17.359a4.316 4.316 0 0 1-.149.348c-.083.373-.166.829-.398 1.47.361-.316.717-.603 1.117-.876.276-.33-.146-.715-.57-.942M19.126 19.736c.089-.203.163-.387.227-.558l-.403.362-.205.19-.104.098-.225.181-1.804 1.477c-1.845 1.804-3.725 3.561-5.496 5.474-.205.212-.414.413-.626.608 1.988-1.283 3.973-2.563 5.777-3.95a30.257 30.257 0 0 0 2.549-2.172c.193-.187.401-.389.569-.57a6.55 6.55 0 0 0 .318-.434c.192-.288.341-.571.435-.846l.042-.126c-.208.164-.413.334-.62.509l-.312.268c-.108.094-.181.164-.401.336l-2.202 1.797 1.432-1.422.707-.726c.026-.028.064-.065.081-.087l.04-.059.078-.118.143-.232zM14.208 27.419l-.348.223-.328.36.255-.138.421-.445zM19.188 27.469l.051-.021c.338-.307.688-.611 1.043-.915.416-.527.872-1.044 1.364-1.537-.952.803-1.891 1.601-2.458 2.473M24.029 27.362l.85-.581.253-.413-.605.387-.498.607zM33.785 18.54a833.089 833.089 0 0 1-8.331 7.304l-.322.523c2.349-1.523 4.631-3.252 5.904-4.859.267-.316.423-.823.798-1.078 1.607-1.22 2.741-2.391 3.728-3.438l-.251-.126.225.126-1.696 1.501-.055.047z"/></svg>