<svg id="Layer_1" xmlns="http://www.w3.org/2000/svg" viewBox="0 0 46.5 46.1"><style>.st0{fill:none}.st1{fill:#03bdd6}</style><path class="st0" d="M0 0h46.5v46.1H0z"/><path class="st0" d="M0 0h46.5v46.1H0z"/><path class="st1" d="M46.5 22.9c0-.2-.3-1.3-.8-3v-.1l-.1.1c-.2-.7-.5-1.5-.8-2.4-.2.2-.4.3-.5-.3l.3-.3c-.6-1.7-1.2-3.5-1.9-5.1-.1.1-.2.2-.2-.2h.1c-.5-1.2-1-2.4-1.5-3.3v.1c-.1 0-.2-.1-.1-.2 0 0 .1 0 .1.1-1-2-2-3.2-2.6-2.7-.4-.3-5.3-4-5.9-3.8v-.1.1s-.1 0-.1.1c-2-.7-3.3-1-3.7-1 2 0-5.6-1.5-2.6-.1 0 .4-1.9.4-1.9-.2 2.1-.8-.3-.4-.3-.6-.9 0-3.4.5-4.7.5-3.9 0-6.6 2-8.6 4 .1.2.1.6-.2.2v-.1c-1.8 1.9-3 3.8-3.8 4.3h.1c.4 1-.8.2-1 .2-.2-.6-1.1 1.1-2.2 3.7.1 0 .1 0 0 .1C1.1 18.6-2 28.7 1.5 28.7c.3.9 1 2.6 1.6 3.9 0 0 .1 0 .2.1h-.1c.4.8.8 1.5 1.1 1.6h-.5c.3.4.6.9 1 1.4 0 0 .1 0 .2-.1 0 0-.1.1-.2.1 0 .3.2.4.4.6.1-.1.2-.2.2.1.6.9 1.5 1.8 2.4 2.6.1-.1.3-.1.3.2H8c4.8 4.2 11.8 8.1 14.8 6.6-.2.1.4 0 0 0 .5 0 1.2 0 1.9-.1h.1c.2 0 .5 0 .7-.1 0 0 0-.1.1-.1 0 0 0 .1-.1.1 1.1-.1 2.1-.2 2.1-.1 0-.3 5.4-1.1 4-1.1h-.3c.9 0 2.9-1.1 4.5-2.1 3 1 8.1-9.2 9.9-15.6h0c.6-1.6.8-2.9.8-3.8zm-.3 2.1c.1.1-.4.6 0 0zm-.1.4c-.1.1-.3-.1 0 0zM24.7.2c.1.1.1.3 0 0zm20.4 22.9c-.6-.1.2-.4 0 0zm-.8-1.3c-.3 1 .2-.5 0 0zm-.5-4.3c0-.3.4.1 0 0zm.1 6.2c0-.2 0 0 0 0zm0-6.5c.1 0 .1.1.1.2 0 0-.1-.1-.1-.2zm.3 2.6c-.2-.2-.3-.2 0 0zm-.3-4.8c-.1-.6.3.4 0 0zm-.1 2.2c-.1-.6.8.3 0 0zm-.1-1.3c-.2-.4.3 0 0 0zm0 9c-.1-.1.1 0 0 0zm0-7.8s0 .2 0 0zm-.3-1.9c-.4-.5.7.1 0 0zm-.1 1.7c-.3.8.1-.6 0 0zm-.3-2.6c-.1-.1.6-.6 0 0zm-.6.4c.3-.3 0 .4 0 0zm-.6 12.1c.5.1-.3-.1 0 0zm-.1 2.3s-.2-.2-.1-.2.2.2.1.2zm.2-3.6c-.2.1-.2-.8 0 0zm.1-1.6c-1.3-.7.7-1.4 0 0zm-.6-2.5c-.4.3.4-.2 0 0zm0 5c.2.4-.1-.3 0 0zm-.2-2.6c-.1-.4.3.1 0 0zm.7-4.4c-.9.2-.8-.3 0 0zm-.2 3.3c.2.4-.1-.2 0 0zm-.1-2.7c-.1-.3.3.4 0 0zm.4 5c.2-.2.7.5 0 0zm0 .5c.4.1.1.2 0 0zm.1-6.1c.6.3-.4 1.3 0 0zm0-3.4c.1.2-.3.7 0 0zm-.2-1.2c.4.5 0 .1 0 0zm-.2-3.7c.3 0 0 .3 0 0zm0 .5c0-.4.4.1 0 0zm-.6-.6c1.1.2 0 .7 0 0zm.4 2.1c.2.5-.8-.3 0 0zm-.5 1.3c.7-.2.4 1.1 0 0zm-.1-4.4c0-.1.3-.2 0 0zm.2 7c1 0 .4.4.4.6-.3-.1-.9-.6-.4-.6zm-.3 8c-1-.7-.2-.7 0-.7v.1c.2-.1.3.2 0 .1.3.2.4.8 0 .5zm-.3.1c-.4 0 0-.4 0 0zm-.3 6.4c-.3.8.1-.7 0 0zm0 .5c-.3-.2.3-.3 0 0zm-.5-2.3c.6-.2-.1.3 0 0zm.2 2.5c-.5.2 0-.1 0 0zm-1.6 1.5c.1.1.1.1.1.2-.1 0-.2-.2-.1-.2zm0-1.4c-.4-.3-.9-1.3.2-.5-.2.1-.3.4-.2.5zm-.3 3.2c0-.1.3-.2 0 0zm.1 2.5c.1-.5-.1.7 0 0zm-1-9.6c.5-.1-.1.2 0 0zm0 2.4c.3-.2.1.4 0 0zm-.1-5c-1.1 0 .6-.5 0 0zm-.1.2c.2.3-.1-.2 0 0zm-.4 3.2c-.5-.6.9.1 0 0zm.1 1.6c.3.2 0 .1 0 0zm-.7 3.3c-2 0 1.3-1-.3-.3 0-.1.4.3.3.3zm-.5 3.1c.1.2-.3.8 0 0zm-2.4.7c0-.1.3-.1 0 0zm.1-8.9c0 .3-.2-.1 0 0zm-.5-3.1c.2 0-.1-.8-.8-.8.1 0 .5-.5-.2-.5.2-1 2.8 1.3 1 1.3zm.4 6.3c-.1 0-.2-.2 0 0zm-.1.5s-.4 0 0 0zm-.2-5.1c-.4 0 0-.3 0 0zm-.1.5c.2 0-.1.4 0 0zm-.2 8.7c.3-.3 0 .4 0 0zm.1-6.3c.1 0 0 .1 0 .2-.1-.1-.1-.2 0-.2zm-.6 2.6c0 .2-.2.4 0 0zm-.1-3c.1 0 .1.1.1.1-.1 0-.1 0-.1-.1zm.1-1.2c.6.6-.6 0 0 0zm.2-.2c-.5.1 0-.2 0 0zm-.2-2.6c.2 0 .2.4 0 0zm0-.2c-.4-.4.7.2 0 0zm0-.4c-.1-.1 0-.1 0 0zm-1.4 15.8c1.5-1.5.3 1.6 0 0zm.5.5c-.3.2-.7.2 0 0zm-.6.3c-.3.2-.1-.4 0 0zm0-4.8c-.3-.2 0-.1 0 0zm.1-8.6c-.7-.1.1-.7 0 0zm-.7 12.6s.5.1 0 0zm0 1.8c0-.1.2-.2 0 0zm.1-5.9c-.1-.7.2 0 0 0zm-.1-7.9c-.2.2-.1-.1 0 0zm-.1 6.1c.2 0-.1.4 0 0zm-.3-17.5c.2 0-.1.4 0 0zm.1 2.2c0 .1-.1.1 0 0zm.1 4.1c0 .1-.4 0 0 0zm.4 1c-1 .1 0-.3 0 0zm-.4 1.7c.1.4-.3-.1 0 0zM29.8 4c.8.6 0 0 0 0zm0-1.3c-.1-.1.3-.1 0 0zm.3 2.9c-.2.2 0-.3 0 0zm.1-.3c.5-.3-.4.2 0 0zm0-1c0-.3.4-.1 0 0zM30 7.5c.1-.8.3 0 0 0zm.7 4.1c-.5.7-.7-1 0 0zm-.4-.9c.3-.3 0 .5 0 0zm.9-1.6c-.7-.8.7-.1 0 0zm.1-1.3c0 .5-.2-.5 0 0zm.3 8.6c.1.1 0 .2 0 .4-.2-.1.1-.2 0-.4zm1.1-1.1c.5.2.1 1 0 0zm.2-.8c-.2-.2 0-.1 0 0zm-.1 3.1c0-.1.3-.2 0 0zm-.1 1.3s.3-.1 0 0zm0 .3s.4.1 0 0zm0 2.7c.2-1.1.4.6 0 0zm.2-2c-.1-.4.1 0 0 0zm.1-1.5c-.4.7-.1-.3 0 0zm-.1-10.2s.1.6.1.5c0 0-.7 2.3-.1-.5zm-.2 9.5c-.2 0-.1-.1 0 0zm-.1 6.2c-.7-.1.8-.4 0 0zm-.3-.2c-1.1.2 0-.1 0 0zm-.2.6c-.1-.3.1-.1 0 0zM32 11.6c0 .3-.4.2 0 0zm-.1-2c0 .2 0-.3 0 0zm.3 7.2c.3.5-.6.1 0 0zm-.2-1c.5.3 0 .1 0 0zm.3 8.2c.1-.2.2.4 0 0zm.1-4c0 .1-.8.4 0 0zm.1-2.9c-.2.4-.2-.2 0 0zm-.1.4c0-.3.1 0 0 0zm.1 2.2c-.2.2-.1 0 0 0zm0-3.8c.1 0 .1 0 .1.1-.1 0-.2 0-.1-.1zm0-9.6c0 .2-.3.2 0 0zm-.1 5.6c-.1.5-.6-.2 0 0zm-.2-2.7c-.1.2-.6.1 0 0zm-.4-2.1c.5.1-.5.4 0 0zm-.2 16c.3-.4.3 0 0 0zm0-6.9c.3-.3.2.2 0 0zm-.1 9.1c-1.5-.4 0-.3 0 0zm0 .4c-.4-.2 0-.1 0 0zm-.2 4.5v.1c-.9.7.1-.7 0-.1 0 0 .1 0 0 0 .1 0 0 0 0 0zm.1 3c.2 0 0 .2 0 0zm-.1-1.4c-.1-.1.1-.2 0-.3.2.1-.1.2 0 .3zm-.6 4.6c.2.1 0 .1 0 0zm.1-.1c-.1-.1-.1-.3 0 0zm0 2c0 .2-.3 0 0 0zm-.1-9.2c0-.6.9 0 0 0zm.5-9.9c.6-.9.3.9 0 0zm.2-7.3c-.1-.2-.1-.2 0 0zm.1 4.1c-.2-.3.1-.2 0 0zm-.2 7.1c-.5-.7.8 0 0 0zm-.2 1.1h.1c.1.1 0 .1-.1 0v0zm.1-.6c-.1.1-.3-.3 0 0zm-.2-.4c-.7-.1.6-.6 0 0zm-.1-2.8c.4.6-.2-.2 0 0zm.1-1c.1-.1-.1.3 0 0zm-.3-3.8s.5-.4 0 0zm.2 7.2c-.4-.5.3-.3 0 0zm-.2 1c.3.1 0 0 0 0zm.4 14.6c-.1 0-.1-.1 0 0zm-.2.1c.2-.2.4.3 0 0zm.1-2.3s0 .1.1.1c-.1 0-.1 0-.1-.1zm.6-12.3c-.2.5-.5-.5 0 0zm0-15c0 .3-.3-.1 0 0zm-.6.8c.8-.5.5.1 0 0zm.3-1.8c.3.5 0 .8 0 0zm-.4 1.4c.4-.2-.1 0 0 0zm.1 3.5c-.2.5-.4-.6 0 0zm-.3-.2c.1-.1.1 0 0 0zm.1 3.9c-.2.3-.2 0 0 0zm-.2 11.4s.1.4 0 0zm-.1.9c.1-.2.2 0 0 0zm-.1-6.5c.2 0 0 .3 0 0zm.1 2.1c-.1.1-.1-.3 0 0zm0 .3c-.2.3.1-.1 0 0zm.1-8.3c-.9.3 0 0 0 0zm-.2-.9c-.2.3-.2 0 0 0zm0 .3c.1-.1.4.6 0 0zm.1-2.2c.3-.4 0 .4 0 0zm0-.8c-.3 0 0-.3 0 0zm-.2 2.1c0 .1-.3 0 0 0zm.1 9.8c-.4 0-.2-.3 0 0zm-.4.7c0-.1.5 0 0 0zm.2-2.9c-.1 0-.1-.3 0 0zm-.2-2c.1-1 .3.3 0 0zm.1-6.2c-.1.7-.8 0 0 0zm-.2 10.1c.1.3 0 .1 0 0zm0-.4c-.3 0 0-.3 0 0zm-.1-2.1c.2-1-.1.9 0 0zm-.2-.3c0-.2.4.1 0 0zm.6 9.7c-.1.2-.9-.2 0 0zm-.2 6.5c-.1-.2.5-.9 0 0zm.1 1.1c.2.1-.1.1 0 0zm-.1 1.6c0-.6.5.4 0 0zm.6-14.6c-.5 1.3-1.2.2 0 0zm-.1 4.8c-.1-1.1.5.4 0 0zm0 5c.4-.2 0 .5 0 0zm0 1.4c-.1-.7.4 0 0 0zm.1 2.1c.3-.1-.2.8 0 0zm.6-2.3c.7.1-.6.3 0 0zm.2 0c.3-.1-.1.2 0 0zm.1-7c-.1 0-.3-1 0 0zm.2-5.5c-.5.5-.4-.1 0 0zm1.4 3.1c.2-.3.2.2 0 0zm.2 12.7c.1.4-.3-.1 0 0zm.3-1.7c-1 .1.1-.3 0 0zm0-15.8c-.3.1.1-.3 0 0zm.1.3c-.3.1 0-.2 0 0zm-.2 2.1c0 .1-.3 0 0 0zm.1.7c-.2.2-.2 0 0 0zm0 .2s.4.6 0 0zm.1-2.2c.3-.4 0 .4 0 0zm-.1-8c.1-.1.2.1 0 0zm.1.4c-.1-.1-.1-.1 0-.2v.2zm-.2.3c.5.2 0 .5 0 0zm0 4.4c.3-.2 0 .5 0 0zm-.1.8c.1-.1.6.2 0 0zm0 13.8c-.2-.2.2-.3 0 0zm.2-6.2c0 .1-.3 0 0 0zm.1-1.7c-.1.1-.5 0 0 0zm-.2 5.5c.1-.4.3 0 0 0zm.2 2.1c0 .4-.1-.5 0 0zm.1-8.5c-.9.2 0-.1 0 0zm.1 7.9c.1.6-.6 0 0 0zm.2-11.6c-.1.3-.2 0-.2-.1-.1 0-.3-.1.1-.1v.1s.1 0 .1.1zm0-13.9c-.2.4.1-.1 0 0zm.6 1.7c-.1-.2 0 .2 0 0zm0-.4zM34.3 28c.3-.2 1.1.2 0 0zm.6 2.3c-.1.7 0 .3 0 0zm-.1.7s-.1-.2 0 0zm-.7 1.7c.2.2 0 .1 0 0zm0 3c0-.1.1-.1 0 0zM34 26c-.2 0 0-.1 0 0zm-.1.9c0-.4.2 0 0 0zm.2-1.2c0 .7-.3-.3 0 0zm0 1.3c0-.1 0 .2 0 0zm-.1 7.8c.2-.1 0 .4 0 0zm.1-4.2c.4.6-.2-.2 0 0zm0-.9c0-.1.1-.1 0 0zm.2-6.1c0 .4-.2-.4 0 0zm.3-1.4c-.2-.1 0-.3 0 0zm-.1-8.7c.3.1 0 0 0 0zm0 8c-.2.5-.4-.1 0 0zm-.2 4.7c0 .2-.1.4 0 0zm0 4.1c0-.9 1.1 0 0 0zm.4-16.8c.4-.1.1.5 0 0zm0-1.2c-.2.5-.5-.6 0 0zm-.4 4.4c-.1-.4.4.3 0 0zm-.1 3.2c.9-.6 0 .2 0 0zm0-10.3c-.1.8-.2-.6 0 0zm0 1.4c0 .2-.1.3 0 0zm0 4.7c0 .3-.2.3 0 0zm-.3 20.1c-.1 0-.1-.2 0 0zM34 38c-.3 0-.2-.3 0 0zm0 0c.3.1 0 .1 0 0zm.2-.2c-.1 0-.1-.3 0 0zm.1-2.4c.1.4-.3-.1 0 0zm.3-1.7c-1 .1.1-.3 0 0zm-.3 1.9c.2-.1.3.4 0 0zm.3.5c-.7.5.6-.6 0 0zm.1-2.1c0-.1.4-.1 0 0zm.3-.8c-.3 0-.2-.3 0 0zm-.1-4.6c-.1-.4.3.3 0 0zm.2-1.8c-.7.5 0-.5 0 0zM35 13.3c.3-.6.4.2 0 0zm0-1.9c.1.5 0-.2 0 0zm.1-.4zm1.2 7.9h-.1c-.8 0 1 1.7-.6.2.5-.3.5-1.1.7-.2zm-.4-2.4c0 .3-.2 0 0 0zm.4-.5c1 .2-1 .5 0 0zm.2 11.5c-.3.2.3-.2 0 0zm-.3 3.7c.4.5 0 .2 0 0zm.2 1.2c.1.2-.3.7 0 0zm-.3-17.1c-.1 0-.1-.2-.1-.3.1.1.1.2.1.3zm0-5.3c0 .2-.3.2 0 0zm0 17.7s0 .4 0 0zm-.5-4.4c.2-.1.3.4 0 0zm.2 2.9c-.1 0-.1 0-.1-.1 0 0 .1 0 .1.1zm-.1 1.1c-.2.5-.2-.2 0 0zm-.2.4c.1-.2.2.1 0 0zm.2 2.2c-.2.2-.2 0 0 0zm-.2-7.2c-.5 0 0-.3 0 0zm-.3 3.3c.5.3 0 .2 0 0zm.1 3.6c0-.1.6-.1 0 0zm0 1.2c.2-.1.3.4 0 0zm.3.5c-.7.5.5-.6 0 0zm.1-3c-.2-.1.2.1 0 0zm0-1.4c.2 0 .1.4 0 0zm.2 1c-.2 0-.1-.1 0 0zm0-7.6c.1.1-.5 1 0 0zm-.3-7.7c0 .1-.3.2 0 0zm0-1.5c0 .2-.3-.4 0 0zm-.1-.5c0 .4-.4-.1 0 0zM35.3 22c.8.1-.2.7 0 0zm0-6.5s-.2 0 0 0zm-.1-1.9c-.4 0 0-.3 0 0zm0 8.2c0 .3-.4.2 0 0zm-.2-2.1c.3.1-.2 0 0 0zm0 3.4c-.2-.7.7.3 0 0zm.2 1.2s-.1 1 0 0zm-.1 1.8c-.2 0 .1-.5 0 0zm.1.6c-.7-.3.5-.1 0 0zm0 6.3c-.2 0-.1-.4 0 0zm-.1-2.1c.2-.1-.1.3 0 0zm.1-1c.5 0-.4.3 0 0zm.9-.4c-.5.1.1-.2 0 0zm.1-.9c-.4.7-.1-.3 0 0zm-.1 7.8c.6-.2 0 .3 0 0zm.1 2.6c0-.4.4 0 0 0zm.2-.6c-.2-.1.1-.9 0 0zm.2-14.9s.5-.2 0 0zm.2.4c0 .2-.1 0 0 0zm-.2.4c.1-.2.3 0 0 0zm.5-8.4c-.3 0-.1-.5 0 0zm-.2-4.2c.1-.4 0 .2 0 0zm.5-1.2c-.1.3-.5-.1 0 0zm0 12.2c0-.3.4.3 0 0zm-.1-1.8c.3.1-.2-.1 0 0zm-.1-9.4c0-.6.5-.7 0 0zm-.1-2c.5-.2 0 .9 0 0zm0 6.9c.1.2-.2.3 0 0zm0 5.4c-.1-.2 0-.1 0 0zm-.1-1.2c-.3.3 0-.3 0 0zm0 4.5s-.3-.1 0 0zm.4-2.2c-.2.2-.1-.1 0 0zm-.1 5.5c.6 0 .1.3 0 0zm.3 2.9c.3.1 0 .1 0 0zm0 0c-.3 0-.2-.3 0 0zm0-2.2c-.3-.3.3.1 0 0zm.1 1.5c-.1 0-.1-.1 0-.1.1-.1 0 0 0 .1zm-.3-1.5c-.1 0-.1-.2 0 0zm-.1 5.6c-.3-.9 1 .1 0 0zm.4-3.6c-.1 0 0-.3 0 0zm-.2-8.6s.8.3 0 0zm.6-11.8c-.5.3-.3-.5 0 0zm-.3-3c.1.3 0-.1 0 0zm.1.1c.3 0 0 0 0 0zm.4 18.1c-.2.2-.1 0 0 0zm-.1 2c.3-.2-.1.3 0 0zm.1-6.1c.1.3-.3 0 0 0zm-.1-.2s-.4-.1 0 0zm-.3 7.3c.1-.1.3.4 0 0zm-.1-1.8c.1-.2.5.2 0 0zm.3 2.3c-.3-.3 0 0 0 0zm-.4-12.8c.1 0 .1 0 .1.1 0 0-.1 0-.1-.1zm.1 3.4c0-.3.4.1 0 0zm.2 1.4c-.6.1.2-.7 0 0zm-.4-12.9c0-.1.4 0 0 0zm.1 7.7c0 .1-.1.1 0 0zm0 3.9c-.1 0-.2-.1-.2-.2.1.1.2.1.2.2zm0 1.8c.1.3-.2-.2 0 0zm.4 1.8c-.1.2-.8.3 0 0zm-.3 3.2c.1-.4.6.2 0 0zm.6-16.1c.6 0 0 .4 0 0zm.1-1.5c-.1.1 0-.3 0 0zm.2 1.2c0 .2-.3 0 0 0zm-.3 1.9c0-.4.6.3 0 0zm.1 12.3c.3.6 0 .1 0 0zm-.2-6.3c.3-.2.3 0 0 0zm0 1.8c.2 0 .1.1 0 0zm.1 4.6c0-.4.3.1 0 0zm.2-1c-.3 0-.1-.1 0 0zm.1 1.5c-.3.3-.2-.7 0 0zm.1-3.7c-.2-.2.3 0 0 0zm.1-7.4c.3.9-.1.5 0 0zm.6 7.5c-1.1 0 0-.1 0 0zm-.2-5.5c0 .4-.1 0 0 0zm.3 8.1c0 .1-.7.1 0 0zm0 1.3v0zm0 .1c0 .1 0 .1 0 0 0 .1 0 0 0 0zm-.3-2.1c-.4.2.6-.2 0 0zm.4-4.2c-.1 1-.5-1.4 0 0zm-.8-7.9c.1-.4.7.3 0 0zm0 10.7c0-.2.3.3 0 0zm.2-.1c-.3 0 .3 0 0 0zm.2 3c0 .5-.4-.4 0 0zm-.1.8c0-.4.5 0 0 0zm.3 1c-.2.3-.2-.3 0 0zm.1 7.5c.2.5-.3.3 0 0zm0-6.2c.1-.3 0 0 0 0zm0-1.7c-.2-.2.2.2 0 0zm.1-6.3c.2-.2.2.6 0 0zm0-3.9c.3.1 0 0 0 0zm.3 11.4c.4 0-.2.4 0 0zm-.1-2.4c0-.2.3 0 0 0zm.2-.4c.1.2-.3-.1 0 0zm-.1-8.3c.1.1-.3 0 0 0zm0 2.4c0 .4-.3-.1 0 0zm-.2 3.6c-.1-.3.3.3 0 0zm.1 2c-.1-.4.2.1 0 0zm.2 4c.1.1-.4.5 0 0zm.1-4.3c-.6-.1.4-.3 0 0zm-.1-8.3c.3.1 0 0 0 0zm.1.5c0 .2 0 .1 0 0zm.1 2.4s.1 0 0 0c.1 0 .1 0 0 0 .1.1-.1.1 0 0zm.1-1.4c0-.1.4 0 0 0zm.1-3c-.1 0-.2 0 0 0zm.3 7.8c-.3.3-.1 0 0 0zm0-.9c0-.7.1.6 0 0zm-.2.5c.1 0 .1.2 0 0zm0 1.5c0-.4.3 0 0 0zm0-6.7c.1.3-.1 0 0 0zm0 6.1c-.1-.2 0-.2 0 0zm.3 1.3c-.1-.1 0-.4 0 0zm.1-1.9c-.6-.5.6.3 0 0zm-.3-5.7c-.2-.5.6.3 0 0zm0-.4c-.2.3.1-.4 0 0zm-.4-7.9c-.2-.1.1-.9 0 0zm-.2.5c0-.3.4.1 0 0zm.7 2.1c-.1.7-1.9-.5 0 0zm-1 1.8c.3-.5.3 0 0 0zm.2 3.1c-.5-.2.1-.2 0 0zm-.2-.4c0 .3-.3 0 0 0zM39.5 8c-.5-.3.6 0 0 0zm-.3-.6c-.5-1.1.7 0 0 0zm0 2.8c-.6-.6.8.1 0 0zm-.6-2.8c1-.1.1 1.2 0 0zm-.4-2c.2-.1.3.4 0 0zm0 2.6c.9.2.6.6.6.7-.2-.1-.8-.8-.6-.7zM38 5.4c.2 0 0 .3 0 0zm-.4.1c0-.1.4 0 0 0zm.2.5c.6.4-.6.4 0 0zm-.3 1.2c.2-.2.1.5 0 0zm0 .3c.1.3-.1.1 0 0zm0-.4c-.4 0 0-.3 0 0zm-.3-1.7c.3-.3.2.6 0 0zm.3 3c-.7.8-.1-.1 0 0zM37 7.3c.2.1 0 0 0 0zm-.2 2.3c.3-.3.2.4 0 0zm-.1.7c-.1.5-.4-.2 0 0zm-.2 3.7c.3 0-.1.2 0 0zm-.3-.4c0-.1.3 0 0 0zm-.3-5c.8.2.2.2 0 0zm0 1.8c.1.4 0-.3 0 0zm-.2 1.4c.1-1.3.4.1 0 0zm0-1.2c.4.1-.2.3 0 0zm-.1-4.8c.5-.5 0 .3 0 0zM35 7.3c.9.3-1.2-.5 0 0zm-.2.5c.1-.3 0 .1 0 0zm-.3 1.3c.5.5.7.6.8.3 1 .4-.2.4-.5.5-.3 0-.5-.2-.5-.8 0-.1.2 0 .2 0zm-.3-.7c0-.1.3 0 0 0zM33.9 3c.1-.2.2.1 0 0zm.2 2.5c.4.2-.6.4 0 0zm-.3 4.7c.6.1-.2.7 0 0zm-.1 1.9c-.2-.2.4 0 0 0zm-.2-7c-.1-.3.3.2 0 0zm0 4.9c.1-.1.1-.1 0 0zm-.1 3.3s.5-.2 0 0zm0 7.9c0-.1.1-.2 0 0zm0 .4c-.1.1-.2.1 0 0zm-.2.2c.2-.2.2 0 0 0zm-.4-14.9c.1-.7.6.5 0 0zm-.1-5.1c.1 0 .2.1.3.2-.1-.1-.3-.1-.3-.2 0 .1 0 0 0 0zm0 1.4c-.1-.2.2.1 0 0zm-.2 1.4c0-.5.6.3 0 0zm0 1.6c.1-.1.9.6 0 0zm-.2-1.4c.2-.2-.2.3 0 0zm0-1.1c.2.3-.4.3 0 0zm-.3-.1c.1-.3.3.4 0 0zm0 1.1c-.2 1.5-.2 1.5 0 0zm-.4 1.6c.2-.1 1 .8 0 0zm-.1-2.2c.3-.1 0 .3 0 0zm-.1 1.3c.4.3 0 .3 0 0zm-.1 1.2c-.5.4-1.3.2 0 0zm-.4-4.7c.1-.6.5-.5 0 0zm0 4.3c-.2-.1.6 0 0 0zm-.3-4.9c0-.2.3.3 0 0zm-.5 7.2c0-.5 1.1.1 0 0zm0-6.9c0-.2.6.1 0 0zm0 .9c.2 0 0 .2 0 0zm-.1.9c.2.2-.2.3 0 0zm-.2-1.6c.5 0-.2.4 0 0zm-.1-.2c.1-.2.2 0 0 0zm0 4.5c.8-.1-.1.6 0 0zm-.2 3.4c.2-.1.4 0 0 0zm.1-2.9c-.3-.1-.1-.1 0 0zm-.4-4.4c.4-1.1.7.4 0 0zm.2 4.9c-.5.4.1-.5 0 0zm-.1-2.5c-.4 0 0-.2 0 0zm-.1-1.1c-.7 0 .5-.5 0 0zM29 8.2c-.1.4-.6.1 0 0zm-.5 0c-.1-.4.3 0 0 0zm-.2-.4c.4.4-.5 0 0 0zm-.1-5.7c0 .4-.4 0 0 0zM28.1 5c-.2.3.1-.1 0 0zm-.2 3.5c-.1 0 1.1-.4 0 0zm-.1-6.9c.2.1-.3.4 0 0zm-.2 2.7c0-.8.6 0 0 0zm0 1.3c.2 0 .3.1 0 0zm-.2-4.4c.3.3 0 .1 0 0zm-.2 2.7c.2-.3.5.6 0 0zm-.3-1.1c.3-1.1.3 0 0 0zm.2.8c-.1.6 0-.3 0 0zm-.3 3.9c-.2.2-.1 0 0 0zm-.1-1.8c-.5.5.1-.4 0 0zm-.1 1.9c-.1-.3.1 0 0 0zm-.2-5.4c.6.3.1.5 0 0zm-.2 5.2c0-.2.2 0 0 0zM26 2.1c0-.4.1.3 0 0zm-.2-.1c0-.1 0 .2 0 0zm-.2.1c.3 0-.1.1 0 0zm.2.5c.1-.1.3 0 .4 0-.5.2-1.1.5-.4 0zm.3 4.2c-.2.2-.3-.5 0 0zm-.5-2.9c.1.7-.5-.3 0 0zm-.2-1.5c.1 0-.3 0 0 0zm.2 3c.5-.3-.5.3 0 0zm.1-.2c-.1-.5.5.3 0 0zm.1-1.4c-.6-.3.4.3 0 0zm-.6-1.9c.3-.6.5-.5 0 0zm-.3 2.3c.2-.9.5.4 0 0zm.1-.4c-.2-.1.1.2 0 0zm-.1-1.6c.1-.4.4 0 0 0zm-.1.9c0-.1.3-.1 0 0zm-.1-1.5c-.1-.4.3.1 0 0zm.1 4.4c-.5-.7.9-.1 0 0zm.2 1.3c.1.4-.3-.3 0 0zm-.6-4.5c.7-.5-.8.6 0 0zm-.3-.6c.4-.4.1.9 0 0zm.1 3.8c-1.3-.3 1.1-.6 0 0zm.1.3c.3-.2-.2.1 0 0zM24 7.8s-.4.5 0 0zm0-.2c-1.3-.2 0-.3 0 0zM23.8 4c.2.2-.2-.1 0 0zm-.6-1.1c.5-.5 1 .7 0 0zM23 7.4c.2-.2.5.4 0 0zm0-1.2c.3-.4.4-.1 0 0zm.2 3.7c.3-.1 0 .3 0 0zm0-6.5c.2-.1-.1.3 0 0zm-.2-.5c.3 0 0 .3 0 0zm.2 2.9c-.6-.1.4-.5 0 0zm-.4-3.4c.2.1-.1-.1 0 0zM22.7.7c0-.4.1.5 0 0zm-.3 3c0-.2.3 0 0 0zm0 .1c.4.2 0 0 0 0zm.1 5.9c.2-.1-.1 0 0 0zm-.3-4.6c-.8 0 0-.4 0 0zm-.4-2.3c.5-1 .4.2 0 0zM22 .6c0-.1 0 .5 0 0zm-.2 2c-.1-.2.3-.1 0 0zm0 2.2c-.1.2.1-.3 0 0zm-.2-.3c0-.5.4.4 0 0zm-.2 1.7c.8.4-.1.4 0 0zm.2 4.7c-.2-.2 0-.2 0 0zm-.1-2.4c-.1-.4.1-.3 0 0zm-.3-4.8c.3-.4.1 0 0 0zm0 1.5c-.3-.6.5 0 0 0zM21 .7c-.5-.2.5-.3 0 0zm.1 6.2c0 .3-.2 0 0 0zm-.5-5.8c-.2-.3.3.1 0 0zm.1 7.8c.1.3-.1-.3 0 0zM19.8 7c.4 0-.2-.5.1-.5 1.3 0 .2.5-.1.5zm-.2 2.9s-.2-.2-.1-.2.2.2.1.2zm.1-3.7c-.5-.2.4-.4 0 0zm-.1 4.6c.2 0 .3.3 0 0zm0-3.2c.6.1-.3 0 0 0zm.7-1c.3 0 .1 0 0 0zm-.1-.8c-.5.3-.1-.1 0 0zm-.6-2.1c.4 0 .8 1.4 0 0zm-.1-.2c.6 0-.4.3 0 0zM19.4.9s.1-.1 0 0zM19.3 2c.7.2-1 0 0 0zm0 13.5s-.2 0 0 0zm.1 2.3c.1.2-.3-.1 0 0zm-.2-7.6c.1.3-.3-.1 0 0zm-.1-2.6c.7.3 0 .1 0 0zm.2-.3c.1.4-.1-.4 0 0zM19 1.2c.2-.1.2 0 0 0zm-.2.7c.3 0 .3.2 0 0zm-1.4 13.8c-.1 0 .4.8.7.9-.7.4-1.4-.1-.7-.9zm.5 2.9c-.3 0 0-.1 0 0zm-.3-.6c0 .1-.3.2 0 0zm0-.4c-.5-.1 0 0 0 0zm-.4-.1c0 .1-.4-.2 0 0zm0 .8c-.2-.1 0-.2 0 0zm.2-3.9c.1 0 .1.1 0 .1-.1.1-.1 0 0-.1zm.1.9c-.1-.1.4.1 0 0zm.3.9c-.1-1 .6.4 0 0zm-.1-.9c1.1.2 0 .2 0 0zm0-2.5c.1-.4.3.1 0 0zm0 1.2s-.1-.2 0 0zm.4 3.8c.3-.2 0 .3 0 0zm.1-4.9c0 .1-.2.1 0 0zm.1 1.9c-.2 0 .2 0 0 0zm0-1.6c-.1 0 .1-.3 0 0zm0 1.8c.1.1.1.3 0 0zm0 1.2c.5.1 0 .1 0 .1v-.1zm0-.2c.2-.6.5.6 0 0zm.1-2.6c-.1 0 .1-.3 0 0zm0-2.3c-.1 0-.5-.1-.5-.4.9.1.8.7.8.7-.2.2-.5.2-.3-.3zM18 8.5c0 .1-.1.1 0 0zm.4-2.2c0-.2.1-.3 0 0zm.2 4.2c.3-.1 0 .4 0 0zm.1-.3c-.1-.1-.1-.1 0 0zm.1 7.6c.5.5-.4 0 0 0zM18.6.7c.1.1 0 .2 0 0zm-.2 2.9c0-.2.1-.1 0 0zm.3 1.8c.4 1-.5 0-.6-.5.4-.1.4.5.6.5zm-.6.5c.2.3 0 0 0 0zm-.2-.9c.5-.3 0 .5 0 0zm0 1c.1.1-.2.4 0 0zm-.1-4.5c.2-1.4.1 0 0 0zm-.2 2c0-.4.4.2 0 0zm0 11.2c.4.9-.1 0 0 0zM17.4 4c.1-.3 0 0 0 0zm.1 2.4c.3 0-.5.6 0 0zm-.2 7.3c0 .3-.2-.2 0 0zM17.2 9c0 .1-.4.1 0 0zm-.2 7.7c-.3.9-.2-.2 0 0zm-.1-1.3v-.2.2zm0-7.9v0zm-.1-1.6c-.1-.3.2 0 0 0zm0 8.2c.3.1-.3-.1 0 0zm0 2c0 .1-.2.2 0 0zm.1 15.9c-.3-.3-.2-.2 0 0zm-.2-5.3c-.1-.3.2.2 0 0zm.7 5.5c.6.1.3.3 0 0zm.1 4.4c.5 0-.3.3 0 0zm-.4-2.9c0-.1.4.1 0 0zm0-1.6c.1.1.1.2 0 0zm.3-3.8c-.2.2-.1 0 0 0zm-.1.1c.4.3 0 .2 0 0zm0-1.1c-.1.1-.1-.1 0 0zm-.1 2.4c.4-.1.1.3 0 0zm.3.5c-.1.6-.4-.2 0 0zm.1 1.2s-.2 0 0 0zm.1-.6c-.2-.5.3 0 0 0zm-.1-4.4c.3-.3 0 .3 0 0zm.1-.6c.3.1-.3.6 0 0zm0 3.2c-.2 0-.2-.5 0 0zm-.5-3.8c0-.5.9-.1 0 0zm-.2-1.7c.4 0 0 .2 0 0zm-.1 9.4c0-.1.4 0 0 0zm0-7.3c-.2.3.1-.3 0 0zm-.1 12.1c0 .1-.2.2 0 0zm-.5 3c.2-.2 1 .6 0 0zm.2-7.9c0-.1.1-.3 0 0zm-.1-1c.3-.6.2 0 0 0zm.1 6.7c.4-.3 0 .7 0 0zm.2-12.7c-.3.1 0-.6 0 0zm-.3.5c.3-.4.3.1 0 0zm.1 14.1c-.4 0-.1-.5 0 0zm-.2-3.1c.1.8-.8-.2 0 0zm-1.2-.5s-.3-.2 0 0zm-.1.2c.2.2 0 .2 0 0zm.1-5.5c-1.4.5-.1-.3 0 0zm-.4 1.9c.1.1-.1.2 0 0zm-.8-1.6c-.1 0-.2-.1-.2-.2.1.1.2.1.2.2zm-.1 5.2c.2.1 0 .2 0 0zm0-3.6c0 .1-.2.1 0 0zm-.1 8c0-.5.5.2 0 0zm.3-11.9c-.9.5-.7.2 0 0zm-.5 4.7c.4-.3 0 .7 0 0zm0-.6c.2.1-.3-.2 0 0zm-.3-7.3c.5-.1-.2.2 0 0zm-.1 7.1c.4-.1.1.3 0 0zm-.3-4.1c0-.5.3.2 0 0zm.1.6c-.1-.7.1.3 0 0zm0 3c.1-.5.4.1 0 0zm0-7.9c.6 0-.1.5 0 0zm0-6.3c0 .3-.1-.4 0 0zm0 3.8c-.1.1-.1-.1 0 0zm0 2s-.1-.3 0 0zm.3-14.2c1.1.5-.5-.3 0 0zm.4-1.3s-.1.2 0 0zm.4 8.2c0-.1 0-.4.1-.5.2 0 .1.4-.1.5zm0 7.4c.2-.5 0 .4 0 0zm.3-11.9c-.7-.1.5-.5 0 0zm-.2.5c-.3.1.1-.2 0 0zm0-2.2c.1.3-.4-.1 0 0zm-.3-3.9c.3-.7.1 0 0 0zm-.1 8.8c.3-.5.4.3 0 0zm-.1-4.6c.1 0 .1.1.1.2-.1-.1-.1-.1-.1-.2zm-.5 8.7c.3-.3 0 .3 0 0zm.1-.3c-.3-.5.3-.1 0 0zm0 6.2c.2-.1.1.3 0 0zm.1-13.6c-.3 0 0-.1 0 0zm-.2.6c.4.2-.2.2 0 0zm-.1 9.5s.3-.1 0 0zm.3-7.8c.9.4-.2-.1 0 0zm.5 7.5c.1.9 0 .2 0 0zm.1 10.6c.1-.6.2 0 0 0zm0-16.3c-.2-.7.4 0 0 0zm.3 10c0 .4-.4-.2 0 0zm0-3c.1-.4-.2.7 0 0zm0-.7c0-.1 0-.1 0 0 .2-.1 0 .2 0 0zm0-6.1c-.4-1.5.9 0 0 0zm.1 8.9s.4-.2 0 0zm.2 10.9c-.3.7-.2-.2 0 0zm.7-26.2c-1 .1 0-.1 0 0zM15 26c.4-.3-.1.4 0 0zm0-4.4c.1-.3 0 .1 0 0zm.1 2.7c0-.1 0-.1 0 0zm-.3-6.1c0-.4.5.2 0 0zm.4-3.1c-.3.7-.4 0 0 0zm0 15.6c-.9-.6.2-1.9 0 0zm0-3.5c.1-.3.2 0 0 0zm.1-4.5c-.6-.3.4.1 0 0zm0-2.6zm-.1-9.9c.7 1-.9.4 0 0zm-.2 2.9c-.6 0 0-.5 0 0zm-.2 3.4c-.4-.3.4.1 0 0zm.3 17.6c.5.1 0 .1 0 0zm.3-8.6c-.2 0-.2-.3 0 0zm-.1-1.5c-.1-.6.3.4 0 0zm0-12.7c.2 0 .2.3 0 0zm.1 2.1c.2-.1.2.1 0 0zm.2-2.6c-.3 0 0-.1 0 0zm0-3.1c.1-.4.7.3 0 0zm.3 5.3c-.2.1 0-.5 0 0zm-.3.1c.1-.3.2.3 0 0zm.6 3.8c.1 0 0 .2 0 .2-.1 0 0-.1 0-.2zm0-4.3c0 .1-.3.1 0 0zm.1 8.2c-.5.4.2-.2 0 0zm-.1 4.6s-.1 0 0 0c-.3 0-.2 0 0 0zm-.1 5.9c.1-.2-.1-.3-.1-.4.2 0 .2.4.1.4zm-.2 1.7c.3-.2.5.1 0 0zm0 4.2c.1-.5.4.2 0 0zm-.3-8.2c0-.1.1-.1.1-.2.1 0 0 .2-.1.2zm0 2.1c-.3-.2.3 0 0 0zm.3-7.8c-.5.1.2-.2 0 0zm-.1 5.8c.1 0 0 .2 0 .2-.1-.1 0-.2 0-.2zm.2-6.7c-.2 0-.1 0 0 0zm-.3-3.4c-.3-.7.6 0 0 0zm0-3.7s-.5.1 0 0zm-.2 1.8s0 .4 0 0zm0 13c.2 0-.2.4 0 0zm0 6.4c.1.2-.1-.2 0 0zm.3 3.5c0-.3.4.1 0 0 .1 0 .1 0 0 0-.3.1-.5-1 0 0zm0 3.2c.2-.2.5.1 0 0zm.6-26.6c-.2.6-.3-.6 0 0zm.1-5.8c-.3.3 0 0 0 0zm.2 4.7c0 .3-.3 0 0 0zm-.1 3.4c0 .2-.3 0 0 0zm0-6.1c-.1 0 .1-.2 0 0zm.1-.4c0 .3-.3-.2 0 0zm-.2-3.2c.2-.3.3.4 0 0zm-.1-3.6c.1 0 .3.5 0 0zm.1 4.1c.1.4-.3-.4 0 0zm-.1.5c0 .4-.7-.2 0 0zm-.3-1.5c-.1.2-.1 0 0 0zm.1-2c-.2.3-.2 0 0 0zm-.1 1.7c0 .3-.1-.1 0 0zm0 4c-.3 0 .1-.3 0 0zm-.3 5.2c1.1.9-.7.6 0 0zm.1-1.1c0-.2 0-.1 0 0zm-.2-2.9c.2 0 .4.7 0 0zm.3-9.1c-.1.2-.8.4 0 0zm-.6-1.7c.3-.1 0 .2 0 0zm-.1.6c0-.1.9.3 0 0zm.2 4.9c0 .3-.4-.4 0 0zm-.3 1c.6-.1 0 .3 0 0zm-.1-7.6c.2.2 0 .2 0 0zm0 5.8c-.1-.2.1.4 0 0zm-.2-4.9c-.1-.1.1-.1 0 0zm0 3.3s-.4-.1 0 0zm-.2 1c-.1-.2.1.2 0 0zm0 24.1c.1 0-.3.5 0 0zm-.1-25.8c-.1-.2 0-.1 0 0zm-.1 8.4c-.2.1 0-.5 0 0zm-.1-5.3c-.4.1 0-.2 0 0zm-.2-4c.5.6-.4-.3 0 0zm-.1 2.2c-.2.1-.4-.5 0 0zm-.3-3c.2.1.5.5 0 0zm-.1 2.1c0-.4.3.1 0 0zm-.2-2.4c0-.3.1.2 0 0zm0 .9c.2-.1.3.5 0 0zm-.1 2.7c-.1.1-.1.2 0 0zm-.2-3.4c.3-.1.1.5 0 0zm0 4.7c-.3.2 0-.3 0 0zM12.8 4c-.1-.6.7.2 0 0zm-.1 13.4c-.4-.2.1-1 0 0zm0-5.4c-.3.1 0-.2 0 0zm-.1-5.8c.2.1-.2.4 0 0zm-.3-1.9c.7-1 0 1.1 0 0zm.1 3c0-.1.2-.4 0 0zm-.2 1.6c.2-.3 1.1.2 0 0zm-.6 17c1.5.5-.2.5 0 0zm.3-19.1c-.2 0 0 0 0 0zm.4 16c0 .3-.3 0 0 0zm0-2.5c.1.2-.3 0 0 0zm-.2 7.6c0 .6-.5-.5 0 0zm-.3-13.5c0 .5-.6-.3 0 0zm-.2 2.6c0 .3-.3 0 0 0zm-.1 11.5c.4-.6.7.2 0 0zm.3.3c-.1-.2.4.2 0 0zm.2-.7c.1.4-.3-.1 0 0zm.1.9c-.2-.2.2 0 0 0zm.2.1c-.1.3-.5-.1 0 0zm0-.2c-.2-.2.1-.1 0 0zm.1-1.9c-.1.1-.5.1 0 0zm0 1.8c.1-.3 0 0 0 0zm-.2-16.7c.2-.3-.2.2 0 0zm0-5.1c0 .3-.2.4 0 0zM12 4.5c-.5-.1.5-.3 0 0zm-.1 1.3c.8-.1-.6.2 0 0zm-.4-.3c.6-.6-.1 1.1 0 0zm.1 7.2c-.1.1-.4.2 0 0zm-.1 17s.2.7-.4.7c.1 0-.2-.1-.2-.3.4.5.4.3.4-.3 0-.9.7-.7.2-.1zm0 .9c.3.4-.2-.2 0 0zm-.5 7c.1-.3.3 0 0 0zm0-2.5c.1-.3.1-.1 0 0zm-.1 2c-.4.1 0-.6 0 0zm0 1.1c0 .5 0-.4 0 0zM9.8 36c-.3-.2.4 0 0 0zm0 .6c-.1-.4.3.1 0 0zm-1.5-4.2c0 .1.1.3-.1.3s-.6-.3.1-.3zM8 33.5c0 .1-.2.2 0 0zm.3-22c0-.1 0-.1 0 0zM9.2 30c.6.1.1.7 0 0zm.3 3.6c0 .3-.1.1 0 0zm-.4-4.3c.2-.4.2.1 0 0zm.1-1.1c.3.2-.1 0 0 0zm-.4-2.4c.3-.2.3 0 0 0zm.2-.4c-.3-.1 0 0 0 0zm0 1.4c.1 0 .1.1.2.1.1-.1-.3.2-.2-.1zm-.5-3.6c1.9-1-.2 1.2 0 0zm.1 1.1c.1 0-.2.4 0 0zm-.2.9c0-.6 1.4-1.2 0 0zm.2 10.1s-.1-.1 0 0c.1-.3 0 0 0 0zm0-.8c-.1.4.1-.2 0 0zm-.1-7c.3-.5.4.2 0 0zm.2-.9c0 .1-.2.2 0 0zM8.5 31c-.4.7-.5 0 0 0zm-.3-6.6c-.1 0 .3-.4 0 0zm0-3.6c.4-.1.1.5 0 0zm0-.8c-.3.4-.2-.1 0 0zm.1 1.1c.1.5-.9-.3 0 0zm-.2 7.8c.2 0-.1.3 0 0-.1 0-.1 0 0 0zm0-.2c-.2.2 0-.1 0 0zm-.1.4c-.1.4-.2 0 0 0zm.4 4.5c-.2.2-.3-.1 0 0zm0-2c.1.1-.2.2 0 0zm.4 4.8c-.6 1.3-.4-1.6 0 0zm-.1-5.9c-.3-.3.5.1 0 0zm.2-2.4c-.5.1 1-.3 0 0zm.1 5.7c.4-.7.2 0 0 0zm.4.9c0 .1-.5.1 0 0zM9.3 36c.3-.3.2.1 0 0zm.2-7.5c-.1 0-.2-.4 0 0zm-.4-8.8c1.8-.1 0 .2 0 0zm.5-2.8c-.8-.1.3-.4 0 0zm-.3-.4c0 .2-.1-.3 0 0zm.4.1c-.4-.1.3.1 0 0zm0 .5c0 .1.4.2.4.3-.9 1.3-.5.1-.8-.3.2.1.1.4.4 0zm.1 6.1c.3-.2.2 0 0 0zm0 3c0-.1.3-.2 0 0zm.4-3.6c-.8.1.1-1 0 0zm-.2-4.8c0 .1-.4.2 0 0zm-.3.6c.1.1-.5.1 0 0zm.1 7.4c-.1 0-.1 0 0 0zm.3 1.9c-.4.6-.8-.6 0 0zm-.5 1.9c.1 0 .1.5 0 0zm.4 5.5c-.5.5.5-.6 0 0zm.1-5.5s.3 0 0 0zm.5 3.4c.1.3-1 .1 0 0zm-.1-1.7c.3-.1 0 0 0 0zm.1-1.9c-.1-.1.2-.7 0 0zm-.3-1.9c.5.1.2 0 .7 0 .5 0-.5 1.8-.7 0zm.2-1.3c.1-.3.6-.5 0 0zm.2-7.2c.5 0-.1 0 0 0zm.4-2.3c0 .5-.5 0 0 0zm.1 11.2c.3 0 0 .3 0 0zm.1-11.1c0 .3-.1.1 0 0zm-.1 8.3c0 .1-.3.1 0 0zm.1-12.7c-.1.5-.3 0 0 0zm-.2-4.1c.1.2-.3-.1 0 0zm-.1 6.4c-.4.4-.1 0 0 0zm-.4-5.3c.1-.3.2 0 0 0zm.2 4.4s-.5-.1 0 0zm-.3 4.6c.4 0-.2.1 0 0zm0-2.3c0-.3.1.3 0 0zm0-10.6c.1-.3 0 .1 0 0zm-.1 2.8c.3 0 0 .3 0 0zm0 15.2c0-.1.9 0 0 0zm0 1.8c0 .2-.2 0 0 0zm-.2-13.9c.4 0-.1.3 0 0zm-.2 4c0-.1.5-.1 0 0zm-.2-2c.5 0-.4.4 0 0zM9.7 10c0-.6.2.1 0 0zm-.1 4.8c-.3.5 0-.1 0 0zM8.9 16c.6-2 1.9 1.7 0 0zm.1 1.5c-.7-.4 1.1-.3 0 0zm-.1.5c.1 0 .2.4 0 0zm0 1.5c.4-.1-.3.4 0 0zm-.2-1.1c.2 0-.1.5 0 0zm-.1.9c0-.3.4 0 0 0zm-.2.7c.5.3-.2 1 0 0zm-.1-9.4c-.4 0 .4-.1 0 0zM8.1 17c-.5.3-.1-.1 0 0zm-.2 7.1c-.1.5-.3-.2 0 0zm-.2 3.8c.2.1 0 .1 0 0zm0-1.3c0 .1-.2.2 0 0zm-.1-1.7c.1 0 .3.1.2.2-.1 0-.2-.1-.2-.2zm.1-3.6c.3 0-.3 0 0 0zm0-1c-.1.8-.5 0 0 0zm-.9 2.2c-.1-.5.2.3 0 0zm0-3.8c0 .2-.1.3 0 0zm.2-2c.2.5-.5-.1 0 0zm.1 4.6c-.1.6-.3-.3 0 0zm-.3.6c0-.4.2-.3 0 0zm.1 1.2c-.1-.6 0 .3 0 0zm0 3.7c0 .3-.2-.1 0 0zm.1-.7c-.3-.2 0-.3 0 0zm.1.1c.2 0-.4.6 0 0zm.1 1.8c-.2-.2.3-.5 0 0zm.1 1.5s-.1 0-.2-.1c.2 0 .2.1.2.1zm.2-6.4c-.7-.4-.2-1.3 0 0zm-.2-1.8c.2.2 0 .1 0 0zm-.2-.3c-.5.3.8-.4 0 0zM7 19.6c.7-.1.1.4 0 0zm.1-10.8c0-.1.4-.2 0 0zm-.2.8c.1-.3 0 .2 0 0zm0 .6c-.4-.5.7.2 0 0zm-.2.6c-.1-.5.5.2 0 0zM6.6 31c.1 0 .3.4 0 0zm-.1-6.9c.3-.1-.1.3 0 0zm.1 7.6v.2c-.1-.1-.1-.1-.1-.2-.1-.3.1-.6.1 0h-.1.1zm-.9 2.2c0-.1.3 0 0 0zm0-1c-.1-.1 0-.1 0 0zm.4-.9c.2 0 0 .2-.1.3 0 .1-1.2-.1.1-.3zm-.5 2.9c-.2 0 .1-.2 0 0zm-.1-.9c-.3-.8.1-.5 0 0zM5 28.4c-.5-.3.3.1 0 0zm0 .1c-.3 0 0-.3 0 0zm-.1-1.9c.1.3-.4-.1 0 0zm.5-3.7s.2.7.2.8c0 0-.4.2-.4-.6 0-1.1.7-.8.2-.2zm0-5.7c-.1-.4.4.3 0 0zm0 8.1c-.3.7-.2-.2 0 0zm-.1 3.2c0 .5 0-.2 0 0zm.1-4.7c.3.5-.2-.2 0 0zm0 2.9c.4-.5.1.1 0 0zm-.1-6.5c.3.1-.3-.2 0 0zm-.2.6c.3.3-.1.1 0 0zm0 6.4c0 .1-.1-.2 0 0zM5 32.5c.4-.6.1 0 0 0zm.2-3.7c.7-.2 0 .3 0 0zm.4-8.6c.8 1.9 0 1.1 0 0zm0-1.4c.1-.1.5-.1 0 0zm.3 8.2c-.1 0-.2-.3 0 0zm-.1 3.2c0 .1 0 .1-.1.1 0-.1 0-.1.1-.1zm.2 1.3h0zm.3 2.5c.6 0-.5 0 0 0zm.1-8.1c.3-.3-.1.1 0 0zm-.1-8.6c-.1 0-.3-.7 0 0zm-.3 11c-.5-.5.6.1 0 0zm.1-10.7c-.1-.3.1.5 0 0zM6 26.1c-.3 0 .3-.4 0 0zm0-14.8c.1 0 .3.9-.3.1.1-.1.2-.1.3-.1zm-.4 1.5c-.1-.6.6.5 0 0zm-.6 3c0-.4 1.4 0 0 0zm.1-4.8s0 .3 0 0zm-.1-.4c-.1-.3.3 0 0 0zm-.1 9c-.1-.3.3.1 0 0zm-.2-8.2c.1-.2.2.1 0 0zm0 14.1c0 .3 0-.2 0 0zm-.1-2.1c-1.3 0 .5-1 0-.1-.1 0-.1.1 0 .1zm-.2 1.1c.3 0 0 .1 0 0zM4 22.9c0-.1.4 0 0 0zm.1-2.5c0 .1-.1.2 0 0zm.4-2.6c-.1.2.1-.2 0 0zm0 4.9c-.1-.2.2-.8 0 0zm.2-4.5s-.3.2 0 0zm-.2-1.7c.3.1-.3-.2 0 0zM4 13.8c.6.1 0 0 0 0zM3.8 15c1 .3.1 0 0 0zm-.1-1.1c-.1.4.2-.3 0 0zm0 5.2c-.1-.2.8 0 0 0zm.3 3.3c.1.4-.6-.4 0 0zm-.6 9.4c.4-.2 0 .6 0 0zm0-5c0 .4 0 .1 0 0zm.1-7.9c-.2 0 0-.3 0 0zm-.2-1.1c.2-.5.3.2 0 0zm-1-1.4c0-.2.3 0 0 0zm-.8 4.9c0-.4.4.3 0 0zm-.7.8s.1 0 .2.1l-.2-.1zm.1 2.3s-.1-.3 0 0zm.4 2.6c-.1.1-.5-.2 0 0zm.2-4.8c-.3 0 .1 0 0 0zm0 3.2c.1.3-.1-.2 0 0zm.2 3.2c0 .5-.3-.3 0 0zm.5-11.8c-.1-.5.9 0 0 0zm.5 7c-.4-.3.4 0 0 0zm.1-1.3c-.1.1-.1.1 0 0zm-.3-2c-.3-.3-.1-.5 0 0zm-.2 1.6c.2 0 0 .4 0 0zm.2-.7c-.1 0-.1 0 0 0zm.1 9.5c.1.5-.4-.1 0 0zm0-3.9c.1 0-.1.3 0 0zm.2-.8c-.5 0 0-.7 0 0zM2.6 22c.2-.2.6.4 0 0zm.3 5.1c.4-.8.2-.1 0 0zm.1-4.6c.2-.4.2.2 0 0zm.4 7.8c-.5-.2 0-.2 0 0zm.3 2.2c.1 0 .1 0 .1.1-.1 0-.1 0-.1-.1zm-.4-.5c.3 0 .4.1.5.3-.2 0-.5-.1-.5-.3zm.4-3.8s.3-.3 0 0zm.6 1.4c0 .9-.9.2 0 0zm-.1 1.5c-.1-.4.4 0 0 0zm.2 2.8c-.4 0 0-.3 0 0zm.1-7.5c-.5.3-.7-.4 0 0zm0 1c.1-.5.6 0 0 0zm.1 7.3c-.1 0 .1-.4 0 0zm.2.3s0-.3 0 0zm.1-1.3c-.7.1-.2-1.3 0 0zm.1 1.9c0-.5.3.2 0 0zm.2-2.6c-.3-.4.7-.1 0 0zm.8 3.2c-1.5-.1-.2-.9 0 0zm0-1.7v.1c.1.1.3.2.3.2-1.1 1.1-.3-1.1-.3-.3zm.4.1c.2 0 .1 0 .1.2.1.4-.1-.2-.1-.2zm.2.6c0-.1.2-.2 0 0zm.3 1.5s-.5.3 0 0zm-.2-4.3c-.6-.3.9-.2 0 0zm.2-4.9c.3 0 .1.3 0 0zm.2 4s-.2.1 0 0zm0 3c0 .2.1-.2 0 0zm0-3.6c-.1.2.1-.2 0 0zm.1-1.4s.1 0 .1.1c0-.1-.1-.1-.1-.1zm.2 2.8c-.1-.1.2-.1 0 0zm.1-.6c-.4-.1.2-.6 0 0zm0 1.9c0-.8.5-.1 0 0zm.2-2.4c0-1.7.7.9 0 0zm.2 4.3c.1.2-.1.1 0 0zm0 .8c.1-.3.2 0 0 0zm1.4 1.1c0 .4.4.7-.7.3-1.7-.7.7.4.7-.3zm.8 2.1c0 .3.2.1.4.5-3.4-.4-.4 0-.4-.5zm.2-3.2c.1.1.3.2.4.3-.3 0-.4-.1-.4-.3zm.1-1.3c-.2-1.1.5.8 0 0zm.3-.4c0 .2-.3 0 0 0zm-.4-.2c-.1-.2-.1-.3-.2-.3V34c0 .5 1.2.2.2.4zm.6 5.1c.2.5-.4 0 0 0zm-.1-6c-.1-.4.5.1 0 0zm.4 5c-.7-.5.3.3 0 0zm.3-6.4c-.3.6-.3-.3 0 0zm-.1 6.8c.3-.2.3 0 0 0zm.2.7c.1-.2 0 0 0 0zm.3 1.4c-.1 0-.1 0-.1-.1-.5.7-.2-1.7.1-.2 0 .1-.1.1-.1.2l.1.1zm.1-7.9c-.8 1.1-.7.6 0 0zm0-.4c.2.1 0 .1 0 0zm.1-.2s-.3-.3 0 0zm.2 6.6c-.4 0 .3-.3 0 0zm0 1.3c.3-.4.3 0 0 0zm.2-8.2c.1.2-.1-.3 0 0zm.4-7.2c-.4-.2-.1-.4 0 0zm-.1 15.4c-.3-.3.4 0 0 0zm.3-1c-.6.1 0-.4 0 0zm.1-6.2c-.1.1-.3-.2 0 0zm-.1 4.8c-.1-.1.3.1 0 0zm.2 2.6c.1.1.3.2.4.3-.3.1-.4-.1-.4-.3zm.3-3.6c-.1-.1.3 0 0 0zm0-.5c-.5 0 .5-.5 0 0zm.4 5.4c0 .3-.6-.1 0 0zm0-2.4c.1-.3.1-.1 0 0zm.2 2.3c0 .4-.4-.1 0 0zm.2-13.3c-.2.5-.4.2 0 0zm0 9.9c-.3 0 0-.4 0 0zm.6-1c-.8 1.2-.7.6 0 0zm0 .7c-.1 0-.3-.3 0 0zm-.3 4c.1.5-.3-.1 0 0zm.5.4c-.1-.5-.5-1.1-.7-1.1.7 0 .9 0 .7 1.1zm-.1-3.1c-.4-.3.7.2 0 0zm.4 4.1c-.7 0 .8-.6 0 0zm.6.2c-.1.4-.9.1 0 0zm.2-.3c-.1.6-.3-.4 0 0zm.2-.3c-.4.2 0 0 0 0zm.1 0c.1-.3.8.3 0 0zm.3-1.8c.1.1-.1.2 0 0zm.1 3.4c-.1 0-.1-.1 0-.1v.1zm0-5.8c0 .1-.2.1 0 0zm-.1-1.9c.1-.6.2 0 0 0zm.2-1.9c-.4.1 0-.2 0 0zm0-.7c-.2 0 .1-.3 0 0zm.3 4.5c-.4.3 0-.4 0 0zm.1 3.7c0 .4-.3-.3 0 0zm-.2-2.5c0-.1.1-.1.2-.1 0 .1-.1.1-.2.1zm.3-.3c-.4 0 0-.2 0 0zm.2-2.6c0 .3-.4 0 0 0zm-.1.7c-.1 0 .1-.3 0 0zm.1 5.6c0 .1-.2.2 0 0zm0-2.6c.1.7-.5-.2 0 0zm.2 1.6c0 .1-.3.1 0 0zm0-7.2c-.1.2-.4 0 0 0zm.1-8.6c0 .2-.4-.2 0 0zm.7 2c-.3.1 0-.5 0 0zm.2-.5s-.5.1 0 0zm-.2 2s.5-1.8 0 0zm-.2-6.7c0-.1 0-.4.1-.5.1.1 0 .4-.1.5zm.2 10.7c-.1-.1-.3-.2-.2-.4.1.2.2.3.2.4zm-.4.5c.1-.2.1 0 0 0zm.2.5c-.1.5-.2 0 0 0zm-.1 1.1c-.3-.3.4 0 0 0zm.2 2c-.1 0-.1-.2-.2-.3.2 0 .2.1.2.3zm0-2.6c-.3.3-.2.1 0 0zm-.1-1.4c-.3 0 0-.2 0 0zm-.2-2.5c.2-.1 0 .3 0 0zm-.2-1.2c-.1-.4.6 0 0 0zm-.1-.6c-.1-.3.6 0 0 0zm0 1c.1-.6.1 0 0 0zm0 7.4c.5.2 0 .1 0 0zm.2 2.6c.1-.4.5.4 0 0zm.2 1.7c-.2 0 .6-.9 0 0zm.3-8.3c-.1.3-.3 0 0 0zm-.2-5.9c-.3 0 0-.3 0 0zm-.2-2.1c.2-.2.2.5 0 0zm0-.7c0 .1-.2.1 0 0zm-.2 2.6c.3-.8.4.1 0 0zm-.1-1.2c-.1-.3.4 0 0 0zm0-1c.1-.1.1.1 0 0zm0 15c-.2 0 0-.3 0 0zm.2 2c-.4.2.3-.1 0 0zm.6.2c-.6.8-.8-.6 0 0zM18.8 32c.2-.3.4-.2 0 0zm.2 3.9c.1-2.1.9 1.6 0 0zm.1-2.4c-.1-.4.2.1 0 0zm.6 11c0 .3-.1-.2 0 0zm.3-5.4c.8.3-.7-.2 0 0zm.4 4.2s-.4-.1 0 0zm.1-1.8c-.2 0 0-.4 0 0zm-.1-.8c-.3 0 .4-.7 0 0zm-.1-.5s.1 0 0 0zm.4-1.7c-.6-.4.2-.1 0 0zm.4 6.3c-.4.6-.3-.4 0 0zm-.2-6.1c.2 0 .1.3 0 0zm1.1 6.1c.1.2-.8.8 0 0zm-.4-1.1s.5-.6 0 0zm.4-3.9c-.2-.1.2-.4 0 0zm.3 4.3c.2.7-.4-1.3 0 0zm-.1-4.5c.4-.5.2.8 0 0zm.3 4.3c-.4-1 .6-.1 0 0zm0-3.4c.3-.1 0 .3 0 0zm.1.5c.1-.3 0 0 0 0zm.1-1.3c0 .3-.2 0 0 0zm.4 4.5c-.1.2-.4.2 0 0zm-.2-2.9c-.1-.8.7-.2 0 0zm.4-1.5c.1 1-.6-.1 0 0zm0 4.5c0 .1-.2 0 0 0zm.1-1.8c0 .9-.2 0 0 0zm.1-4.3c-.1-.3.6 0 0 0zm.3 3.7c-.2-.1 0-.2 0 0zm.3-3c-.3.1.1-.3 0 0zm.1-.4c-.2.2-.6-.6 0 0zm-.2-2.1c.1-.1.1.1 0 0zm.6 9.1c-.4 0-.1-.5 0 0zm0-2c0 .5-.3-.4 0 0zm.2 1.5c-.2 0 0-.3 0 0zm-.1-4.2c-.1-.1.5-.6 0 0zm.1-6.4V36h-2.6s0 .1-.1.1V36h-2.6v-.6h-.1c0-.1.1-.1.1-.1v-3.7s0 .1-.1.1c-1 0 .5-.5-.1-.5h.2v-.7h-.1c-.1-.3 0-.2.1-.1v-.3c-.1 0 0-.1 0-.2V24.7h-.1c0-.1 0-.1.1-.1V23h-.1c-.3-.3 0-.1.1 0v-.3H19c0 .5-.1.4-.1 0h-2.3v-3.1s-.1 0-.2-.1c.1-.2.2-.2.2-.1v-.6H19.5v-2.3c-.1 0-.1 0 0 0v-.3c0-.5 0-1.2.1-1.8-.2-.1-.2-.2 0-.2.1-.7.3-1.5.8-2 .9-1.2 2.2-2 4.5-2 3.6 0 5.1.5 5.1.5l-.5 2.9c.2 0 .4 0 0 .2l-.2.8c.6.7.7 1.2.2 1.2.2 0-.1-.8-.8-.8.2 0 .4-.2.5-.3-.2 0-.5-.1-.8-.2h-.1c-.4-.1-.8-.1-1.3-.1h-.2c0 .1 0 0 0 0-1 0-1.9.4-1.9 1.4v3h2.7c.1-.1.3-.1.4 0h1.5l-.3 3.9h-4.3v1.1c.7.2.1.2 0 0v.2s.1 0 0 0v6.3c.1 0 .1 0 0 0V33.9c.1-.1.2-.1 0 0v.3c.1-.1.2-.2.3-.1-.2.2-.3.2-.4.3zm-5.4-4.3c-.1.1-.4.1 0 0zm-.1-3.5c-.1-.7.2 0 0 0zm-.1 2.7c0 .1 0 .1 0 0zm.1-3.4c.1.5-.4.2 0 0zm7.2-18.1s0 .3 0 0zm2.4 10.6c0 .4-.4-.1 0 0zm-.2-2.6c.2.1.2.4 0 0zm.1-.1c-.5-.4.6.1 0 0zm-.1-.5c-.1-.1 0 0 0 0zm-1.2 3.3c.1.2-.4 0 0 0zm-.1-.8c.1 0 .1.3 0 0zm-.2-2.2c1.4 1.6-1.9.1 0 0zm-.3-.3c-.1-.1.4 0 0 0zm.2-.9c0 .3-.1 0 0 0zm-.8 1.9c.5-.2 0 .9 0 0zm-.2-.2c.3-.1.1.4 0 0zm0-.1c.1.5-.7-.1 0 0zm-.3.5c0 .5-.1-.5 0 0zm-.4.2c.4-.4-.1.3 0 0zm3.4 20c-.2.5-.2-.2 0 0zm0 1c-.3-.2.1-.1 0 0zm.1-10.9c0 .5-.6-.1 0 0zm.1 5.1c0-.1.4.1 0 0zm.1-.3c0 .7 0-.4 0 0zm0 3.5c-.1.6-.4-.3 0 0zm-.1 2.9s.3 0 0 0zm-.2-11.3c.4 0 0 .1 0 0zm0 9.7c0-.1.4.2 0 0zm.2.8c-.3-.3.1.2 0 0zm-.1 1.3c.2.1.2.6 0 0zm0 .8c.6-.2-.1.3 0 0zm0 2.6c.1-.4.4 0 0 0zm.3-.5c-.2-.2 0-1 0 0zm-.1-9c.6-.3-.1.8 0 0zm.1-1.5c0 .1 0 .2 0 0zm.2-4.4c-.1-.1-.1-.3 0 0zm-1 2.9c-.1 0 .2-.1 0 0zm.1-.3c.3 0-.4.4 0 0zm0 1.5c-.2-.1 0-.2 0 0zm.1 2.2c0 .2-.3-.1 0 0zm-2.3 7.6c.3-.2.1.4 0 0zm-.1 3.1c.2-.4.3.2 0 0zm.1-10.3c0 .2-.1.1 0 0-.1 0-.2 0-.2-.2-.7-1 .4-.1.4-.4.1-.4 0 .3.2.3-.1.1-.3.3-.4.3zm-.4 5c.3.1 0 0 0 0zm.2 4.9c0 .4-.3 0 0 0zm-.1-9.5c.1-.9.3.2 0 0zm0-2.5c-1-.5.9-.3 0 0zm-.4 3.2c-.3.1.6-1.4 0 0zm.1 7c0 .2-.1-.3-.1-.3s.1-.6.1.3zm-.7-8.6c.1 0 .1 0 0 0 .2.2.5 1 .3 1h-.1l-.1.1c-.2 0-.4-.4-.4-.4.2-.6.2-.7.3-.7zm0-6.9s0 .5 0 0zm.2 2.9c-.1-.7.2 0 0 0zm0 3.9c-.1-.5.4.1 0 0zm.1-.4c-.1.1-.4.1 0 0zm-.2-.8c0 .1 0 .1 0 0zm-.1-4.5c.2 0 0 .4 0 0zm.3 5.2c-.1-.1 0-.2 0-.2.2 0 .1.2 0 .2zm.6-3.5c-.1-.4.4 0 0 0zm.1-1.2c-.3-.1.1-.3 0 0zm.3 2.5c0-.3.4 0 0 0zm.1-2.1s0 .1.1.1c-.2 0-.2-.1-.1-.1zm-.2 2.3c.2-.3.4.2 0 0zm.2-.1c-.1 0-.1-.2 0 0zm-.2-4.8c.3.2-.1.6 0 0zm-.1-2.3c.3 0-.2 0 0 0zm-.1 7c0-.2.3.1 0 0zm-.3.4c.2-.5.8.7 0 0zm-.1-1.5s.4-.2 0 0zm0-3.7c.6.2-.3.3 0 0zm-.1 3.8c.5 1.1-.6-.2 0 0zm-.1 1.6c.2.1 0 0 0 0zm.2 4.3c0 .2-.4 0 0 0zm.6-3.1c-.3.9-.2-.2 0 0zm-.3-.6c.1.2 0 .1 0 0zm.8-6.3c.3-.1 0 .2 0 0zm0 3.6c.4 0 0 .2 0 0zm.2 1.6c-.8-.2.6.1 0 0zm0 .3c1.1.1 0 .1 0 0zm.1.9c-.1-1 .6.4 0 0zm.3-4.4c0 .1-.3.2 0 0zm-.2-1.9c-.6-.7.9 0 0 0zm-.5 5.4c0-.1.5.1 0 0zm.1-4.9c-.1.1-.4-.4 0 0zm-.1 4.2c-.1 0-.1-.1 0-.1.1-.1 0 0 0 .1zm.2 11.4c-.3-.1-.2-.3 0 0zm.1-5.1c-.1.3-.3-.1 0 0zm-.1 2.7c.3-.1 0 .3 0 0zm.1 2.1c-.1 0 0-.3 0 0zM27 33c.1.4-.3-.2 0 0zm0 .4c0-.1.3.2 0 0zm.1 5c.1 0 .3.4 0 0zm.2-4.8c0 .2-.1.2 0 0zm-.4-1.1v-1c0 .5.8-.4.8-.3 0 .2-.2.4-.4.4-.5-.1-.4 1-.4.9zm.6-1.6c.2-.6.5.6 0 0zm.1-3.2c0-.2.1 0 0 0zm.7 1.4c-.2 1-.7-.3 0 0zm0-5c0 .1-.5.1 0 0zm-.1 6.1c-.2.2.1-.5 0 0zm-.2-1.6s-.2 0 0 0zm-.1 4.1c.3-.3 0 .7 0 0zm-.2 3c.1-.2.8 0 0 0zm0-.2c0-.7 0 0 .1 0 0 .1-.1 0-.1 0zm.2-2.4c.1.2.1.2 0 0zm-.1-4.9c.3-.2-.1.5 0 0zm-.1-1.5c.4 0 0 .4 0 0zm-.2 3.3c.1-.1 0 .1 0 0zm.1 2.7c-.4 0 0-.5 0 0zm-.1.5c.1 0 .1.2 0 0zm-.2-.5c.3-.2 0 .3 0 0zm.1 1.3c-.2 0 0-.5 0 0zm0 2.1c.2-.3-.1.3 0 0zm.8.5c-1.7 0 0-.6 0 0zm-.1-2c-.5-.4.7.1 0 0zm.2.9c.1-.7 0 0 0 0zm-3.1 9c.3-.1.7.1 0 0zm.5.5c0 .6-.9.3 0 0zm.1-1.1c0-.4.4 0 0 0zm.5.6c0 .2-.8 0 0 0zm.2-.6c-.1.2-.3-.2 0 0zm.5 0c-.6 0 0 .7 0 .8-.5 0-.9-.8 0-.8zm.2 1.2c-.3-.2 0 0 0 0zm.2-6.2c-.7.5.5-.6 0 0zm0 3.5c-.2.1-.1-.3 0 0zm.1 2.8c-.2-.1 0-.2 0 0zm-.1-2.7c0-.2 1-.3 0 0zm.3.2v.2c-.2-.1-.2-.2 0-.2zm0 2.2c-.2-.1 0-.4 0 0zm.2-.9c-.3-.3 0-.2 0 0zm-.2-2.1c-.2 0-.1 0-.2-.2.4 0 .6.2.2.2zm.1-3c0-.3.3 0 0 0zm.4 5.4c-.3.3-.1-.5 0 0zm0-4.3c.1.3-.3.8 0 0zm0-2.5c0-.3.4 0 0 0zm.2 6.2c0 .1-.4 0 0 0zm0-1.6c-.1.3-.1-.2 0 0zm0-6.4c.3-.3 0 .6 0 0zm.1 5.8c.5 0 .1.3 0 0zm.3 2.4c.1 0 0 .4 0 0zm.1-.4c-.1 0-.1-.3 0-.4.1.1 0 .3 0 .4zm.5-.5c0 .1-.4.1 0 0zm-.3-.7c-.3-.9 1.1.1 0 0zm.2-7c-.2-.1.1-.4 0 0zm.2-.7c-.5.9-.5-1.7 0 0zm-.1-2.2c.3-.1 0 0 0 0zm.2-2.5c.3 0 0 .2 0 0zm.1 4.5c0-.4 0 0 0 0zm0 2.4c-.5-.1.8-.5 0 0zm.3 7.1c-.3.1.1-.4 0 0zm0-.6c-.4.2-.5-.2 0 0zm0-2c.1 0 .1.1.1.2 0 0-.1-.1-.1-.2zm.6 2.4c-1-.4-.1-.2 0 0zm.3-.4c-.3-.6.5 0 0 0zm.2 1.1c-.3.2 0-.2 0 0zm.2-.6c-.8 0 0-.1 0 0zm.2-.1c-.4.3 0-.6 0 0zm-.1-2.7c0-.6.4-1.5.4-1-.1.1-.3.4-.2.5.2.2 0 .5-.2.5zm.4-5.6c.2-.2.1 0 0 0zm.2.8c.7-.7.2.7 0 0zm.3 6.7c.1.5-.3-.1 0 0zm.2 1c-.2.1-.1-.1 0 0zm-.1-.7c0-.1.1-.1.2-.1 0 0-.1 0-.2.1zm.2-5.2c.1.1-1-.3 0 0zm0-.9c.2 0-.1.2 0 0zm.1-6.8c0 .1-.1.1 0 0zm1 12.3c-1.7.6-.9-.5 0 0zm-.1-5.1c.2-.3.1.4 0 0zm.1 1.3c0-.1.4-.1 0 0zm.3 1.6c-.1 1.2-.1-.1 0 0zm-.2-.1c-.2-2.4 1.1-.5 0 0zm.6.2c-.4.4 0-.4 0 0zm.4 0c-.2.7-.4-.3 0 0zm.2-.3c0 .3-.5-.1 0 0zm-.1-1.2c-.2 0-.3 0-.4-.1v-.2c-.1 0-.1.1 0 .1-.6-.4.7-1.6.6-.1-1.2 0 0 .3-.2.3zm.4-2c.1.7-1.2-.3 0 0zm.1 5.2c-.3.4-.1-.5 0 0zm.3-2.9c0 .1 0 .1-.1.1 0-.1 0-.1.1-.1zm.1 1c0 .2-.4-.3 0 0zm.3-.4c.3 1.3-.7-.9 0 0zm.6.3c-.6.2 0-.3 0 0zm.2-1.2c-1.5 1.1-.6-.5 0 0zm0-5.5c0 .4-.4-.1 0 0zm.1 4c0 .1-.3 0 0 0zm0-4.1c-.8-.2.2-.3 0 0zm.1 6.8c-.1.2 0 0 0 0zm0-6c.1-.4.4 0 0 0zm.3 4.9c-.3.2 0-.3 0 0zm-.1-.6c.1 0 .1.1.1.2-.1 0-.2-.2-.1-.2zm-.1-.9c.1-.5.6.4 0 0zm.4-.9c.1-.3 0 .3 0 0zm.1 1.2s-.1 0 0 0c-.1-.1-.1-.1 0-.1.1.1.1.1 0 .1zm.9.8c-.4.5-1.7-1.2 0 0zm.1-10.4c.1-.2.2.5 0 0zm.1 2.6c-.4-1.1.7 0 0 0zm.4 3.3c-.3.2-.7.1 0 0zm-.1-6.1c.4 0 0 .3 0 0zm.2 3.9c.5 0 .1.3 0 0zm.2 3.4c0-.8.4 0 0 0zm.4.6h.1c.1.3-.8.9-.1 0zm.1-3.4s-.1-.1 0 0c0-.3.1-.2 0 0 .2-.2.4-.3.4-.2-.7.5-.6.3-.4.2zm.4-.8c.3-.3-.1.4 0 0zm-.1-2.1c-.4-.5.7.1 0 0zm.4 3.8c-.2.2-.1 0 0 0zm-.1-8.2c.3 0-.3.4 0 0zm.2 2.8c0-.5.6 0 .6 0-.1-.1-.8 1.1-.6 0zm.4 1.9c-.6.5-.2-.2 0 0zm-.4-1.3c.1 0 .1.2-.1.2.1-.1.1-.2.1-.2zm0 2.2c0-.5.5.4 0 0zm.1 1.5c-.2.2.1-.3 0 0zm.1-.4c-.1 0-.2-.1-.1-.2h.1c.1-.1.4-.2.1-.1-.1 0-.1.1-.1.1-.1 0-.1.1 0 .2zm.2.6c-.3.2-.1-.4 0 0zm.5 1.4c-.1.5-.6-.5 0 0zm-.5-.7c.1 0 .5-.4.2-.4.4 0 .1.4.6.4-.1 0-.6.6-.8 0zm.3-1.2c-.2-.3-.3-.8.5-.3-.2.1-.4.2-.5.3zm.8-5.7c-.1-.4-.4.3-.4-.5.4 0 1 .5.4.5zm.4-.8c.1.6-.8-.2 0 0zm0-5.3c-.1-.3.4 0 0 0zm.3-2.7c-.4.3 0 0 0 0zm-.3 10.6c0-.1.2-.3 0 0zm.1 3.9c-.1 0-.1-.1-.1-.2.1 0 .2.1.1.2zm.2-3.9c0 .8-.1 0 0 0zm-.2-7.7c.6 0-.1.2 0 0zm.3-5.4c-.3.4-.4 0 0 0zm.2 11c-.1.3-.3 0 0 0zm0-1.8c-.3-.5.5.1 0 0zm.2-1.6c.1.1-.2.2 0 0zm0 7.3c-.1.3-.2-.3 0 0zm-.1-1.7c0-.2.3.1 0 0zm.1-1.2c.3-.2-.1.3 0 0zm0-5.4c.4-.3 0 .5 0 0zm.3 3.6c.1.2-.4 0 0 0zm.1 3c-.1.4-.1 0 0 0zm0-1.9c-.3.5-.2 0 0 0zm0-2.5c.2.2-.1-.1 0 0zm.2-2.3c0 .3-.4.1 0 0zm.3 2.2c.5-.1.1.4.9.5-.3.5-2.1-.5-.9-.5zm-.2 3.8c.1-.6.3.5 0 0zm.4.6c-.2.8-1 0 0 0zm.5-3.5c.1 1.4-.5-.5 0 0zm.2.8c.3.2-.6.3 0 0z"/></svg>