<svg xmlns="http://www.w3.org/2000/svg" xmlns:xlink="http://www.w3.org/1999/xlink" viewBox="0 0 210 9"><defs><path id="a" d="M-.074.466h210.147v8.067H-.074z"/></defs><clipPath id="b"><use xlink:href="#a" overflow="visible"/></clipPath><path clip-path="url(#b)" d="M15.445 6.871c.061.018.153.003.155.077-.06-.016-.152-.001-.155-.077M36.205 7.259c-.09-.307-.09.306 0 0M35.585 7.491c-.051.05.033-.032 0 0M35.431 7.181c-.095.034-.16.099-.156.232.166.037.148-.11.156-.232M33.339 7.413c-.051.051.033-.032 0 0M23.424 7.104c-.002-.076-.094-.06-.155-.078.003.075.095.06.155.078M21.875 7.336c.032-.033-.052.05 0 0M21.642 7.336c-.089-.306-.089.306 0 0M18.079 7.568c-.051.051.033-.032 0 0M17.15 7.259c-.26-.187.187.26 0 0M16.608 7.181c-.09-.306-.09.306 0 0M15.135 7.259c-.09-.307-.09.306 0 0M11.882 7.413c.032-.032-.051.051 0 0"/><path d="M8.473 7.181h.156v.156h-.156z"/><defs><path id="c" d="M-.074.466h210.147v8.067H-.074z"/></defs><clipPath id="d"><use xlink:href="#c" overflow="visible"/></clipPath><path clip-path="url(#d)" d="M5.763 7.259c.101-.028.122-.136.232-.155-.013-.091-.141-.066-.232-.078v.233zM2.897 7.026c.032-.032-.051.051 0 0M1.211 7.198c.051-.051-.032.032 0 0M.856 7.431c.09.306.09-.306 0 0M.004 7.431c.111-.018.028-.231.155-.232.014-.067-.03-.074-.077-.078h-.156c.061.069.084.175.078.31M84.227 7.198c.051-.051-.032.032 0 0M83.872 7.431c.09.306.09-.306 0 0M83.02 7.431c.111-.018.028-.231.155-.232.014-.067-.03-.074-.077-.078h-.156c.061.069.084.175.078.31M76.746 7.276c.089.306.089-.306 0 0M76.358 7.353c.193.302.113-.257 0 0M75.196 7.431c-.032.032.051-.051 0 0M74.731 7.431c.183.249-.012-.599 0 0M74.19 7.276c.089.306.089-.306 0 0M73.957 7.276c-.288-.27-.393.211 0 0M71.478 7.198c.113.257.193-.303 0 0M70.316 7.121c-.032.032.051-.051 0 0M69.387 7.431c.051-.051-.033.032 0 0M63.732 7.043c.113.257.192-.302 0 0M60.324 7.431c.225-.043-.119-.121-.077-.232-.257.075.087.153.077.232M56.451 6.888c-.033.033.051-.05 0 0M49.479 7.276c-.032.032.051-.051 0 0M46.381 7.121c-.032.032.051-.051 0 0M98.461 6.871c.061.018.153.003.155.077-.06-.016-.152-.001-.155-.077M119.221 7.259c-.09-.307-.09.306 0 0M118.601 7.491c-.051.05.033-.032 0 0M118.447 7.181c-.095.034-.16.099-.156.232.166.037.148-.11.156-.232M116.355 7.413c-.051.051.033-.032 0 0M106.44 7.104c-.002-.076-.094-.06-.155-.078.003.075.095.06.155.078M104.891 7.336c.032-.033-.052.05 0 0M104.658 7.336c-.089-.306-.089.306 0 0M101.095 7.568c-.051.051.033-.032 0 0M100.166 7.259c-.26-.187.187.26 0 0M99.623 7.181c-.09-.306-.09.306 0 0M98.151 7.259c-.09-.307-.09.306 0 0M94.898 7.413c.032-.032-.051.051 0 0"/><path d="M91.49 7.181h.155v.156h-.155z"/><g><defs><path id="e" d="M-.074.466h210.147v8.067H-.074z"/></defs><clipPath id="f"><use xlink:href="#e" overflow="visible"/></clipPath><path clip-path="url(#f)" d="M88.779 7.259c.101-.028.122-.136.232-.155-.013-.091-.141-.066-.232-.078v.233zM85.913 7.026c.032-.032-.051.051 0 0M168.049 7.198c.051-.051-.032.032 0 0M166.888 7.431c.09.306.09-.306 0 0M166.036 7.431c.111-.018.028-.231.155-.232.014-.067-.03-.074-.077-.078h-.156c.061.069.084.175.078.31M159.762 7.276c.089.306.089-.306 0 0M159.374 7.353c.193.302.113-.257 0 0M158.212 7.431c-.032.032.051-.051 0 0M157.747 7.431c.183.249-.012-.599 0 0M157.206 7.276c.089.306.089-.306 0 0M156.973 7.276c-.288-.27-.393.211 0 0M154.494 7.198c.113.257.193-.303 0 0M153.332 7.121c-.032.032.051-.051 0 0M152.403 7.431c.051-.051-.033.032 0 0M146.748 7.043c.113.257.192-.302 0 0M143.339 7.431c.225-.043-.119-.121-.077-.232-.257.075.087.153.077.232M139.466 6.888c-.033.033.051-.05 0 0M132.495 7.276c-.032.032.051-.051 0 0M129.396 7.121c-.032.032.051-.051 0 0M181.477 6.871c.061.018.153.003.155.077-.06-.016-.152-.001-.155-.077M202.237 7.259c-.09-.307-.09.306 0 0M201.617 7.491c-.051.05.033-.032 0 0M201.462 7.181c-.095.034-.16.099-.156.232.166.037.148-.11.156-.232M199.371 7.413c-.051.051.033-.032 0 0M189.455 7.104c-.002-.076-.094-.06-.155-.078.003.075.095.06.155.078M187.907 7.336c.032-.033-.052.05 0 0M187.674 7.336c-.089-.306-.089.306 0 0M184.111 7.568c-.051.051.033-.032 0 0M183.182 7.259c-.26-.187.187.26 0 0M182.639 7.181c-.09-.306-.09.306 0 0M7.312 8.42c-.051.051.032-.032 0 0"/><path clip-path="url(#f)" d="M37.832 8.11c-.212-.056-.156.154-.31.155.048.189.391.041.31-.155M6.227 7.181c-.26-.08-.121.241-.154.387.241-.1.039-.16.154-.387m16.189.232c.025-.18-.012-.297-.076-.387-.127-.014-.157.507.076.387m-1.393 0c.089-.065.207-.102.387-.077-.007-.231-.462-.208-.387.077m20.682.852c-.595.47-1.447.087-2.402.233-.012-.092.013-.22-.077-.233.078.424-.904.282-.853 0-.241.322-1.358.304-1.626.078-.659.509-1.562-.29-2.247.077a.541.541 0 0 0-.154-.232c-.011.144-.051.259-.155.31-.187-.552-1.234.104-1.627-.31.191.12.228-.263.078-.233-.32.125-.61.636-.93.31.115.003-.014-.389-.155-.387-.222.12.162.361-.078.465-.115-.256-.189.161-.386.077-.133-.074-.157-.257-.31-.31-.663.682-1.728-.086-2.479.388-.116-.091-.091-.322-.311-.31-.193-.013-.241.119-.309.232-.729-.482-1.798.118-2.556-.31a.364.364 0 0 1-.078.233c-.299-.012-.357-.262-.697-.233.064.219-.108.201-.077.388-.46-.306-1.384.214-1.395-.388-.28.256-.676.433-.929.155.03.314-.483.086-.697.155-.089-.244.122-.188.155-.31-.202.057-.455.062-.543.233-.231-.312-.717.208-1.007-.233-.123.206-.211.139-.464.31-.224-.342-.971-.142-1.394 0 .028-.26-.337-.129-.466-.232-.366.432-.712.003-1.161-.078-.214-.033-.073.289-.233.31-.505-.309-1.162-.045-1.549-.387-.283.486-1.513.546-2.091.077-1.08.471-2.515.183-3.642.31a.541.541 0 0 0-.154-.232c-.076.419-1.295.295-1.394 0-.992.368-2.353-.139-3.486.232-.19-.103.14-.234-.078-.31-.161.044-.164.121-.078.233-.24.008-.22-.244-.541-.155.021.176-.019.291-.155.31a.64.64 0 0 1-.31-.31c-.026.027-.161.047-.202.067-.06-.452-.036-.902-.109-1.351.489.04.922.086 1.24.122 1.247-.16 2.651-.072 4.028-.155.19.103-.085.288.078.31.451-.163 1.66-.475 2.014 0 .051-.419.721-.257.93-.31-.076.307.223.241.386.31.103-.368.912-.393 1.163-.155.696-.087 1.897-.337 2.556.155.433-.065.855-.277 1.394-.155.035.17-.206.382-.155.465.137-.16.24-.068.31-.155-.105-.129.104-.412.388-.388.136.07.128.285.309.31-.19-.314.501-.238.542-.31-.059.017-.089.065-.077.155.512-.045 1.211-.324 2.091-.232.031.133-.115.199 0 .232.146-.335.984-.295 1.395-.077.082-.482.604.172.619 0 .001-.078-.062-.092-.077-.155.851.084 2.618-.166 2.789.232.165-.021.633-.487.852 0 .214-.284.473-.136.775-.232.083.197-.334.271-.078.387.121-.111.269-.195.31-.387.592.104 1.633-.239 1.858.232-.041-.391 1.659-.295 1.24-.077.338-.164.444-.14.775 0 0-.078-.063-.092-.078-.155 1.616.067 3.037-.191 4.029.387.046-.247-.146-.239 0-.387.81.199 1.444-.161 2.014.387.149-.031.007-.354.309-.232.274.008-.164.256.077.232.249.068.243-.119.311-.232.256.105.61.113.697.387v-.31c.709.107 1.245.449 1.472-.155.247.053.052.352.154.388.334.074.215-.302.387-.388.591.237 1.365-.177 1.473.31-.076-.307.223-.24.387-.31-.139.163-.25.548.077.62.017-.283.106-.297 0-.542.477.21.523.016.929-.155.077.321.183.44.31.542.053-.279.203-.403-.076-.542.569.041.727.019 1.317 0-.09.159.12.369.154.155-.043 0-.088-.063 0-.078.222.376-.053 1.098.077 1.395-.483.221-2.195.312-2.323-.078"/><path clip-path="url(#f)" d="M33.339 7.956c-.003-.076-.095-.06-.155-.077.002.075.095.06.155.077M32.487 7.956c-.002-.076-.094-.06-.155-.077.002.075.095.06.155.077M32.022 8.265c-.051.051.033-.032 0 0M29.156 8.265c-.051.051.033-.032 0 0M27.685 7.568v-.155c-.166-.036-.148.11-.156.232.064-.014.078-.077.156-.077M26.213 7.568c-.09-.306-.09.306 0 0M23.269 8.188c-.26-.187.187.26 0 0M22.649 7.801c-.05.051.033-.032 0 0M21.798 8.188c-.09-.306-.09.306 0 0M21.488 7.956c-.051.05.033-.032 0 0M20.403 7.956c-.051.05.033-.032 0 0M20.403 7.801c-.051.051.033-.032 0 0M18.312 7.801c-.019-.098-.154-.078-.155 0 .035.113.068-.008.155 0M16.608 7.956c-.09-.306-.09.306 0 0M16.452 7.801c-.089-.306-.089.306 0 0M15.601 7.646c-.09-.306-.09.307 0 0M.902 8.128c-.003-.075-.095-.06-.155-.077.002.075.095.06.155.077M66.443 7.508v.155h.31c.077-.233-.173-.138-.31-.155m-8.676.31c.07.259.174.067.31 0-.051-.232-.165.073-.31 0m10.303-.31c-.01.139.095.163.077.31.225-.014.187-.368-.077-.31m-8.908-.465c.199-.491.743-.051 1.007.078.11-.266.616.16.542-.233.295.012.483.008.542.078-.088.115-.103.323.077.387.298-.359.642-.501 1.085-.232.71-.262 1.177-.39 1.859-.233-.169.012-.166.196-.155.388.116-.014.286.027.31-.077-.068-.138-.245-.227-.077-.388.394-.033.134.588.541.542 0-.183.134-.228.078-.465.674-.026.932.098 1.549 0 .101.193-.227.322 0 .388.246-.363 1.159-.237 1.162-.388.218.092.041.579.388.543.205-.468.745-.499 1.239-.31.317-.362.98-.246 1.24-.078.386-.389 1.226-.022 1.549.156.018-.214.228-.237.387-.311.096.162.225.291.388.388.367-.331 1.384-.228 1.704-.077v-.233c1.953.498 3.686-.487 5.499.31.004-.1.1-.108.078-.233.328.037.762.371 1.006.233-.133.004-.198-.06-.232-.155.301.041.319-.198.542-.233.063.196.319.198.466.311.537-.365 1.869-.325 2.401-.078.065-.115.195-.166.387-.155.012.091-.013.22.077.233.155-.102.695-.387.853 0 .12-.047.25-.072.377-.105-.111.465-.013.936-.087 1.41-.009.005-.204.005-.213.011-.087-.443-.522-.057-.774-.31-.788.5-1.754-.05-2.944.233.068-.249-.119-.243-.233-.31.007.135-.017.241-.077.31-.62-.188-1.684.169-2.246-.233-.23.416-1.16.366-1.627.078-.054.153-.207.207-.387.232-.027-.383-.204.064-.388 0-.083-.073-.024-.286-.232-.232.004.133-.06.198-.155.232-1.045-.267-2.305.244-3.331-.232a32.19 32.19 0 0 1-2.247.232c-.013-.116.029-.286-.076-.31-.115.015-.071.187-.078.31-.32-.253-.551-.007-1.007 0-.084-.198.333-.271.078-.387-.026.36-.397.145-.388.387-.292-.273-.323.132-.62-.077.091-.012.22.013.233-.078-.838.12-1.788-.301-2.634.155-.046-.138.227-.322 0-.387-.234.245-.571.435-.93.077-.099.133-.16.305-.387.31-1.628-.267-3.905.249-5.034-.232.088.159-.122.369-.156.155.157.023-.015-.224-.077-.233-.127.383-.553-.263-.775 0 .094.009.183.023.155.155-.691-.363-1.005-.052-1.627.155-.247-.313-.625-.022-.774-.387-.025.105-.111.148-.078.31-.362.026-.636-.035-.775-.233.029.261-.335.129-.464.233-.428-.271-1.072-.169-1.782-.078-.181-.443-.631.084-1.007-.31-.045.405-.581.188-.774.078-.62.348-1.138.381-1.705.077-.107.048-.011.298-.154.31-.129-.154.006-.098 0-.31-.308-.142-.321.213-.465-.155-.162.743-.953.403-1.317.233-.529.453-2.738.134-4.26.232-.135-.231-.131-.874.077-1.007-.287-.118.164-.341-.155-.465.019-.136.133-.176.309-.155.149.111.223.294.466.311-.012-.194.122-.241.154-.388.34-.055.528.04.621.232.297-.443.815.179 1.006-.077-.043.38.595.418.62.077.007.122-.01.269.155.233-.004-.1-.099-.108-.078-.233.417.09 1.116-.267 1.239.156.24-.405.618.053.853-.233.072.341.2.143.388.077.217-.033-.195.289.077.31.253-.896 1.045-.244 1.549-.542.159.021.019.343.232.31.027-.206.204-.262.388-.31.012.091-.014.22.076.232a.397.397 0 0 1 .234-.232c.115.09.189.223.387.232.553-.448 1.088-.006 1.781-.155.031.134-.115.199 0 .233.065-.276.353.113.31-.31.549-.067.43.331.62.465-.075-.381.376-.116.155-.465.736.04 1.559-.053 1.937.155.289-.347 1.261-.089 1.549.077"/><path clip-path="url(#f)" d="M84.725 8.128c-.003-.075-.095-.06-.155-.077.002.075.095.06.155.077M76.591 8.05c.085-.019.053-.154.155-.155-.033-.214-.244-.004-.155.155M75.662 8.128c.193.302.112-.257 0 0M75.584 7.74c.051-.05-.033.032 0 0M72.175 8.36c-.002-.075-.095-.06-.155-.077.002.075.095.06.155.077M71.633 7.663c-.032.032.051-.051 0 0"/></g><path d="M60.634 7.818h.154v.155h-.154z"/><g><defs><path id="g" d="M-.074.466h210.147v8.067H-.074z"/></defs><clipPath id="h"><use xlink:href="#g" overflow="visible"/></clipPath><path clip-path="url(#h)" d="M59.627 7.508h.155c-.022.126.073.134.077.233.063-.015.077-.078.155-.078v-.155h-.232c-.014-.065.03-.073.077-.077.031-.151-.353-.113-.232.077M54.591 8.128c-.002-.075-.095-.06-.155-.077.002.075.095.06.155.077M51.261 8.205c-.003-.075-.095-.06-.155-.077.002.075.095.06.155.077M49.169 7.895c-.032.032.051-.051 0 0M90.328 8.42c-.051.051.032-.032 0 0"/><path clip-path="url(#h)" d="M120.848 8.11c-.212-.056-.156.154-.31.155.048.189.391.041.31-.155m-31.605-.929c-.26-.08-.121.241-.154.387.241-.1.039-.16.154-.387m16.189.232c.025-.18-.012-.297-.076-.387-.127-.014-.157.507.076.387m-1.393 0c.089-.065.207-.102.387-.077-.007-.231-.462-.208-.387.077m20.682.852c-.595.47-1.447.087-2.402.233-.012-.092.013-.22-.077-.233.078.424-.904.282-.853 0-.241.322-1.358.304-1.626.078-.659.509-1.562-.29-2.247.077a.541.541 0 0 0-.154-.232c-.011.144-.051.259-.155.31-.187-.552-1.234.104-1.627-.31.191.12.228-.263.078-.233-.32.125-.61.636-.93.31.115.003-.014-.389-.155-.387-.222.12.162.361-.078.465-.115-.256-.189.161-.386.077-.133-.074-.157-.257-.31-.31-.663.682-1.728-.086-2.479.388-.116-.091-.091-.322-.311-.31-.193-.013-.241.119-.309.232-.729-.482-1.798.118-2.556-.31a.364.364 0 0 1-.078.233c-.299-.012-.357-.262-.697-.233.064.219-.108.201-.077.388-.46-.306-1.384.214-1.395-.388-.28.256-.676.433-.929.155.03.314-.483.086-.697.155-.089-.244.122-.188.155-.31-.202.057-.455.062-.543.233-.231-.312-.717.208-1.007-.233-.123.206-.211.139-.464.31-.224-.342-.971-.142-1.394 0 .028-.26-.337-.129-.466-.232-.366.432-.712.003-1.161-.078-.214-.033-.073.289-.233.31-.505-.309-1.162-.045-1.549-.387-.283.486-1.513.546-2.091.077-1.08.471-2.515.183-3.642.31a.541.541 0 0 0-.154-.232c-.076.419-1.295.295-1.394 0-.992.368-2.353-.139-3.486.232-.19-.103.14-.234-.078-.31-.161.044-.164.121-.078.233-.24.008-.22-.244-.541-.155.021.176-.019.291-.155.31a.64.64 0 0 1-.31-.31c-.026.027-.161.047-.202.067-.06-.452-.036-.902-.109-1.351.489.04.922.086 1.24.122 1.247-.16 2.651-.072 4.028-.155.19.103-.085.288.078.31.451-.163 1.66-.475 2.014 0 .051-.419.721-.257.93-.31-.076.307.223.241.386.31.103-.368.912-.393 1.163-.155.696-.087 1.897-.337 2.556.155.434-.065.855-.277 1.394-.155.035.17-.206.382-.155.465.137-.16.24-.068.31-.155-.105-.129.104-.412.388-.388.136.07.128.285.309.31-.19-.314.501-.238.542-.31-.059.017-.089.065-.077.155.512-.045 1.211-.324 2.091-.232.031.133-.115.199 0 .232.146-.335.984-.295 1.395-.077.082-.482.604.172.619 0 .001-.078-.062-.092-.077-.155.851.084 2.618-.166 2.789.232.165-.021.633-.487.852 0 .214-.284.473-.136.775-.232.083.197-.334.271-.078.387.121-.111.269-.195.31-.387.592.104 1.633-.239 1.858.232-.041-.391 1.659-.295 1.24-.077.338-.164.444-.14.775 0 0-.078-.063-.092-.078-.155 1.616.067 3.037-.191 4.029.387.046-.247-.146-.239 0-.387.81.199 1.444-.161 2.014.387.149-.031.007-.354.309-.232.274.008-.164.256.077.232.249.068.243-.119.311-.232.256.105.61.113.697.387v-.31c.709.107 1.245.449 1.472-.155.247.053.052.352.154.388.334.074.215-.302.387-.388.591.237 1.365-.177 1.473.31-.076-.307.223-.24.387-.31-.139.163-.25.548.077.62.017-.283.106-.297 0-.542.477.21.523.016.929-.155.077.321.183.44.31.542.053-.279.203-.403-.076-.542.569.041.727.019 1.317 0-.09.159.12.369.154.155-.043 0-.088-.063 0-.078.222.376-.053 1.098.077 1.395-.483.221-2.195.312-2.323-.078"/><path clip-path="url(#h)" d="M116.355 7.956c-.003-.076-.095-.06-.155-.077.002.075.095.06.155.077M115.503 7.956c-.002-.076-.094-.06-.155-.077.002.075.095.06.155.077M115.038 8.265c-.051.051.033-.032 0 0M112.172 8.265c-.051.051.033-.032 0 0M110.7 7.568v-.155c-.166-.036-.148.11-.156.232.064-.014.078-.077.156-.077M109.229 7.568c-.09-.306-.09.306 0 0M106.285 8.188c-.26-.187.187.26 0 0M105.665 7.801c-.05.051.033-.032 0 0M104.814 8.188c-.09-.306-.09.306 0 0M104.504 7.956c-.052.05.032-.032 0 0M103.419 7.956c-.051.05.033-.032 0 0M103.419 7.801c-.051.051.033-.032 0 0M101.327 7.801c-.019-.098-.154-.078-.155 0 .035.113.068-.008.155 0M99.623 7.956c-.09-.306-.09.306 0 0M99.468 7.801c-.089-.306-.089.306 0 0M98.617 7.646c-.09-.306-.09.307 0 0M149.459 7.508v.155h.31c.077-.233-.173-.138-.31-.155m-8.676.31c.07.259.174.067.31 0-.051-.232-.165.073-.31 0m10.303-.31c-.01.139.095.163.077.31.225-.014.187-.368-.077-.31m-8.908-.465c.199-.491.743-.051 1.007.078.11-.266.616.16.542-.233.295.012.483.008.542.078-.088.115-.103.323.077.387.298-.359.642-.501 1.085-.232.71-.262 1.177-.39 1.859-.233-.169.012-.166.196-.155.388.116-.014.286.027.31-.077-.068-.138-.245-.227-.077-.388.394-.033.134.588.541.542 0-.183.134-.228.078-.465.674-.026.932.098 1.549 0 .101.193-.227.322 0 .388.246-.363 1.159-.237 1.162-.388.218.092.041.579.388.543.205-.468.745-.499 1.239-.31.317-.362.98-.246 1.24-.078.386-.389 1.226-.022 1.549.156.018-.214.228-.237.387-.311.096.162.225.291.388.388.367-.331 1.384-.228 1.704-.077v-.233c1.953.498 3.686-.487 5.499.31.004-.1.1-.108.078-.233.328.037.762.371 1.006.233-.133.004-.198-.06-.232-.155.301.041.319-.198.542-.233.063.196.319.198.466.311.537-.365 1.869-.325 2.401-.078.065-.115.195-.166.387-.155.012.091-.013.22.077.233.155-.102.695-.387.853 0 .12-.047.25-.072.377-.105-.111.465-.013.936-.087 1.41-.009.005-.204.005-.213.011-.087-.443-.522-.057-.774-.31-.788.5-1.754-.05-2.944.233.068-.249-.119-.243-.233-.31.007.135-.017.241-.077.31-.62-.188-1.684.169-2.246-.233-.23.416-1.16.366-1.627.078-.054.153-.207.207-.387.232-.027-.383-.204.064-.388 0-.083-.073-.024-.286-.232-.232.004.133-.06.198-.155.232-1.045-.267-2.305.244-3.331-.232a32.19 32.19 0 0 1-2.247.232c-.013-.116.029-.286-.076-.31-.115.015-.071.187-.078.31-.32-.253-.551-.007-1.007 0-.084-.198.333-.271.078-.387-.026.36-.397.145-.388.387-.292-.273-.323.132-.62-.077.091-.012.22.013.233-.078-.838.12-1.788-.301-2.634.155-.046-.138.227-.322 0-.387-.234.245-.571.435-.93.077-.099.133-.16.305-.387.31-1.628-.267-3.905.249-5.034-.232.088.159-.122.369-.156.155.157.023-.015-.224-.077-.233-.127.383-.553-.263-.775 0 .094.009.183.023.155.155-.691-.363-1.005-.052-1.627.155-.247-.313-.625-.022-.774-.387-.025.105-.111.148-.078.31-.362.026-.636-.035-.775-.233.029.261-.335.129-.464.233-.428-.271-1.072-.169-1.782-.078-.181-.443-.631.084-1.007-.31-.045.405-.581.188-.774.078-.62.348-1.138.381-1.705.077-.107.048-.011.298-.154.31-.129-.154.006-.098 0-.31-.308-.142-.321.213-.465-.155-.162.743-.953.403-1.317.233-.528.453-2.738.134-4.26.232-.135-.231-.131-.874.077-1.007-.287-.118.164-.341-.155-.465.019-.136.133-.176.309-.155.149.111.223.294.466.311-.012-.194.122-.241.154-.388.34-.055.528.04.621.232.297-.443.815.179 1.006-.077-.043.38.595.418.62.077.007.122-.01.269.155.233-.004-.1-.099-.108-.078-.233.417.09 1.116-.267 1.239.156.24-.405.618.053.853-.233.072.341.2.143.388.077.217-.033-.195.289.077.31.253-.896 1.045-.244 1.549-.542.159.021.019.343.232.31.027-.206.204-.262.388-.31.012.091-.014.22.076.232a.397.397 0 0 1 .234-.232c.115.09.189.223.387.232.553-.448 1.088-.006 1.781-.155.031.134-.115.199 0 .233.065-.276.353.113.31-.31.549-.067.43.331.62.465-.075-.381.376-.116.155-.465.736.04 1.559-.053 1.937.155.289-.347 1.261-.089 1.549.077"/><path clip-path="url(#h)" d="M167.74 8.128c-.003-.075-.095-.06-.155-.077.002.075.095.06.155.077M159.606 8.05c.085-.019.053-.154.155-.155-.033-.214-.244-.004-.155.155M158.677 8.128c.193.302.112-.257 0 0M158.6 7.74c.051-.05-.033.032 0 0M155.191 8.36c-.002-.075-.095-.06-.155-.077.002.075.095.06.155.077M154.649 7.663c-.032.032.051-.051 0 0"/></g><path d="M143.65 7.818h.155v.155h-.155z"/><g><defs><path id="i" d="M-.074.466h210.147v8.067H-.074z"/></defs><clipPath id="j"><use xlink:href="#i" overflow="visible"/></clipPath><path clip-path="url(#j)" d="M142.643 7.508h.155c-.022.126.073.134.077.233.063-.015.077-.078.155-.078v-.155h-.232c-.014-.065.03-.073.077-.077.031-.151-.353-.113-.232.077M137.607 8.128c-.002-.075-.095-.06-.155-.077.002.075.095.06.155.077M134.277 8.205c-.003-.075-.095-.06-.155-.077.001.075.094.06.155.077M132.185 7.895c-.032.032.051-.051 0 0M173.344 8.42c-.051.051.032-.032 0 0"/><path clip-path="url(#j)" d="M203.864 8.11c-.212-.056-.156.154-.31.155.048.189.391.041.31-.155m-31.605-.929c-.26-.08-.121.241-.154.387.241-.1.039-.16.154-.387m16.189.232c.025-.18-.012-.297-.076-.387-.127-.014-.157.507.076.387m-1.393 0c.089-.065.207-.102.387-.077-.007-.231-.462-.208-.387.077m20.682.852c-.595.47-1.447.087-2.402.233-.012-.092.013-.22-.077-.233.078.424-.904.282-.853 0-.241.322-1.358.304-1.626.078-.659.509-1.562-.29-2.247.077a.541.541 0 0 0-.154-.232c-.011.144-.051.259-.155.31-.187-.552-1.234.104-1.627-.31.191.12.228-.263.078-.233-.32.125-.61.636-.93.31.115.003-.014-.389-.155-.387-.222.12.162.361-.078.465-.115-.256-.189.161-.386.077-.133-.074-.157-.257-.31-.31-.663.682-1.728-.086-2.479.388-.116-.091-.091-.322-.311-.31-.193-.013-.241.119-.309.232-.729-.482-1.798.118-2.556-.31a.364.364 0 0 1-.078.233c-.299-.012-.357-.262-.697-.233.064.219-.108.201-.077.388-.46-.306-1.384.214-1.395-.388-.28.256-.676.433-.929.155.03.314-.483.086-.697.155-.089-.244.122-.188.155-.31-.202.057-.455.062-.543.233-.231-.312-.717.208-1.007-.233-.123.206-.211.139-.464.31-.224-.342-.971-.142-1.394 0 .028-.26-.337-.129-.466-.232-.366.432-.712.003-1.161-.078-.214-.033-.073.289-.233.31-.505-.309-1.162-.045-1.549-.387-.283.486-1.513.546-2.091.077-1.08.471-2.515.183-3.642.31a.541.541 0 0 0-.154-.232c-.076.419-1.295.295-1.394 0-.992.368-2.353-.139-3.486.232-.19-.103.14-.234-.078-.31-.161.044-.164.121-.078.233-.24.008-.22-.244-.541-.155.021.176-.019.291-.155.31a.64.64 0 0 1-.31-.31c-.026.027-.161.047-.202.067-.06-.452-.036-.902-.109-1.351.489.04.922.086 1.24.122 1.247-.16 2.651-.072 4.028-.155.19.103-.085.288.078.31.451-.163 1.66-.475 2.014 0 .051-.419.721-.257.93-.31-.076.307.223.241.386.31.103-.368.912-.393 1.163-.155.696-.087 1.897-.337 2.556.155.434-.065.855-.277 1.394-.155.035.17-.206.382-.155.465.137-.16.24-.068.31-.155-.105-.129.104-.412.388-.388.136.07.128.285.309.31-.19-.314.501-.238.542-.31-.059.017-.089.065-.077.155.512-.045 1.211-.324 2.091-.232.031.133-.115.199 0 .232.146-.335.984-.295 1.395-.077.082-.482.604.172.619 0 .001-.078-.062-.092-.077-.155.851.084 2.618-.166 2.789.232.165-.021.633-.487.852 0 .214-.284.473-.136.775-.232.083.197-.334.271-.078.387.121-.111.269-.195.31-.387.592.104 1.633-.239 1.858.232-.041-.391 1.659-.295 1.24-.077.338-.164.444-.14.775 0 0-.078-.063-.092-.078-.155 1.616.067 3.037-.191 4.029.387.046-.247-.146-.239 0-.387.81.199 1.444-.161 2.014.387.149-.031.007-.354.309-.232.274.008-.164.256.077.232.249.068.243-.119.311-.232.256.105.61.113.697.387v-.31c.709.107 1.245.449 1.472-.155.247.053.052.352.154.388.334.074.215-.302.387-.388.591.237 1.365-.177 1.473.31-.076-.307.223-.24.387-.31-.139.163-.25.548.077.62.017-.283.106-.297 0-.542.477.21.523.016.929-.155.077.321.183.44.31.542.053-.279.203-.403-.076-.542.569.041.727.019 1.317 0-.09.159.12.369.154.155-.043 0-.088-.063 0-.078.222.376-.053 1.098.077 1.395-.483.221-2.195.312-2.323-.078"/><path clip-path="url(#j)" d="M199.371 7.956c-.003-.076-.095-.06-.155-.077.002.075.095.06.155.077M198.518 7.956c-.002-.076-.094-.06-.155-.077.002.075.095.06.155.077M198.054 8.265c-.051.051.033-.032 0 0M195.188 8.265c-.051.051.033-.032 0 0M193.716 7.568v-.155c-.166-.036-.148.11-.156.232.064-.014.078-.077.156-.077M192.245 7.568c-.09-.306-.09.306 0 0M189.301 8.188c-.26-.187.187.26 0 0M188.681 7.801c-.05.051.033-.032 0 0M187.829 8.188c-.09-.306-.09.306 0 0M187.519 7.956c-.051.05.033-.032 0 0M186.435 7.956c-.051.05.033-.032 0 0M186.435 7.801c-.051.051.033-.032 0 0M184.343 7.801c-.019-.098-.154-.078-.155 0 .035.113.068-.008.155 0M182.639 7.956c-.09-.306-.09.306 0 0M182.484 7.801c-.089-.306-.089.306 0 0M181.632 7.646c-.09-.306-.09.307 0 0M181.167 7.259c-.09-.307-.09.306 0 0M177.914 7.413c.032-.032-.051.051 0 0"/></g><path d="M174.505 7.181h.155v.156h-.155z"/><g><defs><path id="k" d="M-.074.466h210.147v8.067H-.074z"/></defs><clipPath id="l"><use xlink:href="#k" overflow="visible"/></clipPath><path clip-path="url(#l)" d="M171.795 7.259c.101-.028.122-.136.232-.155-.013-.091-.141-.066-.232-.078v.233zM169.735 7.026c.032-.032-.051.051 0 0M15.445.544c.061.018.153.003.155.077-.06-.016-.152-.001-.155-.077M36.205.932c-.09-.307-.09.306 0 0M35.585 1.164c-.051.05.033-.032 0 0M35.431.854c-.095.034-.16.099-.156.232.166.037.148-.11.156-.232M33.339 1.086c-.051.051.033-.032 0 0M23.424.777c-.002-.076-.094-.06-.155-.078.003.075.095.06.155.078M21.875 1.009c.032-.033-.052.05 0 0M21.642 1.009c-.089-.306-.089.306 0 0M18.079 1.241c-.051.051.033-.032 0 0M17.15.931c-.26-.186.187.261 0 0M16.608.854c-.09-.306-.09.306 0 0M15.135.931c-.09-.306-.09.307 0 0M11.882 1.086c.032-.032-.051.051 0 0"/></g><path d="M8.473.853h.156v.155h-.156z"/><g><defs><path id="m" d="M-.074.466h210.147v8.067H-.074z"/></defs><clipPath id="n"><use xlink:href="#m" overflow="visible"/></clipPath><path clip-path="url(#n)" d="M5.763.931c.101-.028.122-.136.232-.155-.013-.09-.141-.065-.232-.077v.232zM2.897.699c.032-.032-.051.051 0 0M1.211.871c.051-.051-.032.032 0 0M.856 1.104c.09.306.09-.306 0 0M.004 1.104C.115 1.086.032.873.159.872.173.805.129.798.082.794h-.156c.061.069.084.175.078.31M84.227.871c.051-.051-.032.032 0 0M83.872 1.104c.09.306.09-.306 0 0M83.02 1.104c.111-.018.028-.231.155-.232.014-.067-.03-.074-.077-.078h-.156c.061.069.084.175.078.31M76.746.949c.089.306.089-.306 0 0M76.358 1.026c.193.302.113-.257 0 0M75.196 1.104c-.032.032.051-.051 0 0M74.731 1.104c.183.249-.012-.599 0 0M74.19.949c.089.306.089-.306 0 0M73.957.949c-.288-.27-.393.211 0 0M71.478.871c.113.257.193-.303 0 0M70.316.793c-.032.032.051-.051 0 0M69.387 1.104c.051-.051-.033.032 0 0M63.732.716c.113.257.192-.302 0 0M60.324 1.104c.225-.043-.119-.121-.077-.232-.257.075.087.153.077.232M56.451.561c-.033.033.051-.05 0 0M49.479.949c-.032.032.051-.051 0 0M46.381.793c-.032.032.051-.051 0 0M98.461.544c.061.018.153.003.155.077-.06-.016-.152-.001-.155-.077M119.221.932c-.09-.307-.09.306 0 0M118.601 1.164c-.051.05.033-.032 0 0M118.447.854c-.095.034-.16.099-.156.232.166.037.148-.11.156-.232M116.355 1.086c-.051.051.033-.032 0 0M106.44.777c-.002-.076-.094-.06-.155-.078.003.075.095.06.155.078M104.891 1.009c.032-.033-.052.05 0 0M104.658 1.009c-.089-.306-.089.306 0 0M101.095 1.241c-.051.051.033-.032 0 0M100.166.931c-.26-.186.187.261 0 0M99.623.854c-.09-.306-.09.306 0 0M98.151.931c-.09-.306-.09.307 0 0M94.898 1.086c.032-.032-.051.051 0 0"/></g><path d="M91.49.853h.155v.155h-.155z"/><g><defs><path id="o" d="M-.074.466h210.147v8.067H-.074z"/></defs><clipPath id="p"><use xlink:href="#o" overflow="visible"/></clipPath><path clip-path="url(#p)" d="M88.779.931c.101-.028.122-.136.232-.155-.013-.091-.141-.066-.232-.078v.233zM85.913.699c.032-.032-.051.051 0 0M168.049.871c.051-.051-.032.032 0 0M166.888 1.104c.09.306.09-.306 0 0M166.036 1.104c.111-.018.028-.231.155-.232.014-.067-.03-.074-.077-.078h-.156c.061.069.084.175.078.31M159.762.949c.089.306.089-.306 0 0M159.374 1.026c.193.302.113-.257 0 0M158.212 1.104c-.032.032.051-.051 0 0M157.747 1.104c.183.249-.012-.599 0 0M157.206.949c.089.306.089-.306 0 0M156.973.949c-.288-.27-.393.211 0 0M154.494.871c.113.257.193-.303 0 0M153.332.793c-.032.032.051-.051 0 0M152.403 1.104c.051-.051-.033.032 0 0M146.748.716c.113.257.192-.302 0 0M143.339 1.104c.225-.043-.119-.121-.077-.232-.257.075.087.153.077.232M139.466.561c-.033.033.051-.05 0 0M132.495.949c-.032.032.051-.051 0 0M129.396.793c-.032.032.051-.051 0 0M181.477.544c.061.018.153.003.155.077-.06-.016-.152-.001-.155-.077M202.237.932c-.09-.307-.09.306 0 0M201.617 1.164c-.051.05.033-.032 0 0M201.462.854c-.095.034-.16.099-.156.232.166.037.148-.11.156-.232M199.371 1.086c-.051.051.033-.032 0 0M189.455.777c-.002-.076-.094-.06-.155-.078.003.075.095.06.155.078M187.907 1.009c.032-.033-.052.05 0 0M187.674 1.009c-.089-.306-.089.306 0 0M184.111 1.241c-.051.051.033-.032 0 0M183.182.931c-.26-.186.187.261 0 0M182.639.854c-.09-.306-.09.306 0 0M7.312 2.093c-.051.051.032-.032 0 0M37.832 1.783c-.212-.056-.156.154-.31.155.048.189.391.041.31-.155M6.227.854c-.26-.08-.121.241-.154.387.241-.1.039-.16.154-.387m16.189.232c.025-.18-.012-.297-.076-.387-.127-.014-.157.507.076.387m-1.393 0c.089-.065.207-.102.387-.077-.007-.231-.462-.208-.387.077m20.682.852c-.595.47-1.447.087-2.402.233-.012-.092.013-.22-.077-.233.078.424-.904.282-.853 0-.241.322-1.358.304-1.626.078-.659.509-1.562-.29-2.247.077a.541.541 0 0 0-.154-.232c-.011.144-.051.259-.155.31-.187-.552-1.234.104-1.627-.31.191.12.228-.263.078-.233-.32.125-.61.636-.93.31.115.003-.014-.389-.155-.387-.222.12.162.361-.078.465-.115-.256-.189.161-.386.077-.133-.074-.157-.257-.31-.31-.663.682-1.728-.086-2.479.388-.116-.091-.091-.322-.311-.31-.193-.013-.241.119-.309.232-.729-.482-1.798.118-2.556-.31a.364.364 0 0 1-.078.233c-.299-.012-.357-.262-.697-.233.064.219-.108.201-.077.388-.46-.306-1.384.214-1.395-.388-.28.256-.676.433-.929.155.03.314-.483.086-.697.155-.089-.244.122-.188.155-.31-.202.057-.455.062-.543.233-.231-.312-.717.208-1.007-.233-.123.206-.211.139-.464.31-.224-.342-.971-.142-1.394 0 .028-.26-.337-.129-.466-.232-.366.432-.712.003-1.161-.078-.214-.033-.073.289-.233.31-.505-.309-1.162-.045-1.549-.387-.283.486-1.513.546-2.091.077-1.08.472-2.515.183-3.642.31a.541.541 0 0 0-.154-.232c-.076.419-1.295.295-1.394 0-.992.368-2.353-.139-3.486.232-.19-.103.14-.234-.078-.31-.161.044-.164.121-.078.233-.24.008-.22-.244-.541-.155.021.176-.019.291-.155.31a.64.64 0 0 1-.31-.31c-.026.027-.161.047-.202.067-.06-.452-.036-.902-.109-1.351.489.04.922.086 1.24.122C4.84.539 6.244.627 7.621.544c.19.103-.085.288.078.31.451-.163 1.66-.475 2.014 0 .051-.419.721-.257.93-.31-.076.307.223.241.386.31.103-.368.912-.393 1.163-.155.696-.087 1.897-.337 2.556.155.433-.065.855-.277 1.394-.155.035.17-.206.382-.155.465.137-.16.24-.068.31-.155-.105-.129.104-.412.388-.388.136.07.128.285.309.311-.19-.315.501-.239.542-.311-.059.017-.089.065-.077.156.512-.046 1.211-.325 2.091-.233.031.133-.115.199 0 .233.146-.336.984-.296 1.395-.078.082-.482.604.172.619 0 .001-.078-.062-.092-.077-.155.851.084 2.618-.166 2.789.233.165-.022.633-.488.852 0 .214-.285.473-.137.775-.233.083.198-.334.271-.078.388.121-.112.269-.196.31-.388.592.104 1.633-.239 1.858.233-.041-.392 1.659-.296 1.24-.078.338-.164.444-.14.775 0 0-.078-.063-.092-.078-.155 1.616.067 3.037-.191 4.029.388.046-.248-.146-.24 0-.388.81.199 1.444-.161 2.014.388.149-.032.007-.355.309-.233.274.008-.164.256.077.233.249.067.243-.12.311-.233.256.106.61.113.697.387V.777c.709.106 1.245.448 1.472-.156.247.053.052.352.154.388.334.075.215-.302.387-.388.591.237 1.365-.177 1.473.311-.076-.308.223-.241.387-.311-.139.163-.25.548.077.62.017-.283.106-.297 0-.542.477.211.523.016.929-.155.077.321.183.44.31.542.053-.279.203-.403-.076-.542.569.041.727.019 1.317 0-.09.159.12.369.154.155-.043 0-.088-.063 0-.078.222.376-.053 1.098.077 1.395-.483.221-2.195.312-2.323-.078"/><path clip-path="url(#p)" d="M33.339 1.628c-.003-.076-.095-.06-.155-.077.002.076.095.061.155.077M32.487 1.628c-.002-.076-.094-.06-.155-.077.002.076.095.061.155.077M32.022 1.938c-.051.051.033-.032 0 0M29.156 1.938c-.051.051.033-.032 0 0M27.685 1.241v-.155c-.166-.036-.148.11-.156.232.064-.014.078-.077.156-.077M26.213 1.241c-.09-.306-.09.306 0 0M23.269 1.861c-.26-.187.187.26 0 0M22.649 1.473c-.05.051.033-.032 0 0M21.798 1.861c-.09-.306-.09.306 0 0M21.488 1.628c-.051.051.033-.031 0 0M20.403 1.628c-.051.051.033-.031 0 0M20.403 1.473c-.051.051.033-.032 0 0M18.312 1.473c-.019-.098-.154-.078-.155 0 .035.113.068-.008.155 0M16.608 1.628c-.09-.305-.09.307 0 0M16.452 1.473c-.089-.306-.089.306 0 0M15.601 1.318c-.09-.306-.09.307 0 0M.902 1.8c-.003-.075-.095-.06-.155-.077.002.075.095.06.155.077M66.443 1.181v.155h.31c.077-.233-.173-.138-.31-.155m-8.676.31c.07.259.174.067.31 0-.051-.232-.165.073-.31 0m10.303-.31c-.01.139.095.163.077.31.225-.014.187-.368-.077-.31M59.162.716c.199-.491.743-.051 1.007.078.11-.266.616.16.542-.233.295.012.483.008.542.078-.088.115-.103.323.077.387.298-.359.642-.501 1.085-.232.71-.262 1.177-.39 1.859-.233-.169.012-.166.196-.155.388.116-.014.286.027.31-.078-.068-.137-.245-.226-.077-.387.394-.033.134.588.541.542 0-.183.134-.228.078-.465.674-.026.932.098 1.549 0 .101.193-.227.322 0 .388.246-.363 1.159-.237 1.162-.388.218.092.041.579.388.543.205-.468.745-.499 1.239-.31.317-.362.98-.246 1.24-.078.386-.389 1.226-.022 1.549.155.018-.213.228-.236.387-.31.096.162.225.291.388.388.367-.331 1.384-.228 1.704-.078V.639c1.953.498 3.686-.487 5.499.31.004-.1.1-.108.078-.233.328.037.762.371 1.006.233-.133.004-.198-.06-.232-.155.301.041.319-.198.542-.233.063.196.319.198.466.31.537-.364 1.869-.324 2.401-.077.065-.115.195-.166.387-.155.012.091-.013.22.077.232.155-.102.695-.386.853 0 .12-.046.25-.071.377-.104-.111.465-.013.936-.087 1.41-.009.005-.204.005-.213.011-.087-.443-.522-.057-.774-.31-.788.5-1.754-.05-2.944.233.068-.249-.119-.243-.233-.31.007.135-.017.241-.077.31-.62-.188-1.684.169-2.246-.233-.23.416-1.16.366-1.627.078-.054.153-.207.207-.387.232-.027-.383-.204.064-.388 0-.083-.073-.024-.286-.232-.232.004.133-.06.198-.155.232-1.045-.267-2.305.244-3.331-.232a32.19 32.19 0 0 1-2.247.232c-.013-.116.029-.286-.076-.31-.115.015-.071.187-.078.31-.32-.253-.551-.007-1.007 0-.084-.198.333-.271.078-.387-.026.36-.397.145-.388.387-.292-.273-.323.132-.62-.077.091-.012.22.013.233-.078-.838.12-1.788-.301-2.634.155-.046-.138.227-.322 0-.387-.234.245-.571.435-.93.077-.099.133-.16.305-.387.31-1.628-.267-3.905.249-5.034-.232.088.159-.122.369-.156.155.157.023-.015-.224-.077-.233-.127.383-.553-.263-.775 0 .094.009.183.023.155.155-.691-.363-1.005-.052-1.627.155-.247-.313-.625-.022-.774-.387-.025.105-.111.148-.078.31-.362.026-.636-.035-.775-.233.029.261-.335.129-.464.233-.428-.271-1.072-.169-1.782-.078-.181-.443-.631.084-1.007-.31-.045.405-.581.188-.774.078-.62.348-1.138.381-1.705.077-.107.048-.011.298-.154.31-.129-.154.006-.098 0-.31-.308-.142-.321.213-.465-.155-.162.743-.953.403-1.317.233-.529.453-2.738.134-4.26.232-.135-.231-.131-.874.077-1.007-.287-.118.164-.341-.155-.465.019-.136.133-.176.309-.155.149.111.223.294.466.31-.012-.193.122-.24.154-.387.34-.055.528.04.621.232.297-.443.815.179 1.006-.077-.043.38.595.418.62.077.007.122-.01.269.155.233-.004-.1-.099-.108-.078-.233.417.09 1.116-.267 1.239.155.24-.404.618.054.853-.232.072.341.2.143.388.077.217-.033-.195.289.077.31.253-.896 1.045-.244 1.549-.542.159.021.019.343.232.31.027-.206.204-.262.388-.31.012.091-.014.22.076.232a.397.397 0 0 1 .234-.232c.115.09.189.223.387.232.553-.448 1.088-.006 1.781-.155.031.134-.115.199 0 .233.065-.276.353.113.31-.31.549-.067.43.331.62.465-.075-.381.376-.116.155-.465.736.04 1.559-.053 1.937.155.289-.347 1.261-.089 1.549.077"/><path clip-path="url(#p)" d="M84.725 1.8c-.003-.075-.095-.06-.155-.077.002.075.095.06.155.077M76.591 1.723c.085-.019.053-.154.155-.155-.033-.214-.244-.004-.155.155M75.662 1.8c.193.302.112-.257 0 0M75.584 1.413c.051-.05-.033.032 0 0M72.175 2.033c-.002-.075-.095-.06-.155-.077.002.075.095.06.155.077M71.633 1.336c-.032.032.051-.051 0 0"/></g><path d="M60.634 1.491h.154v.154h-.154z"/><g><defs><path id="q" d="M-.074.466h210.147v8.067H-.074z"/></defs><clipPath id="r"><use xlink:href="#q" overflow="visible"/></clipPath><path clip-path="url(#r)" d="M59.627 1.18h.155c-.022.126.073.134.077.233.063-.015.077-.078.155-.078V1.18h-.232c-.014-.065.03-.073.077-.077.031-.151-.353-.113-.232.077M54.591 1.8c-.002-.075-.095-.06-.155-.077.002.075.095.06.155.077M51.261 1.878c-.003-.075-.095-.06-.155-.077.002.075.095.06.155.077M49.169 1.568c-.032.032.051-.051 0 0M90.328 2.093c-.051.051.032-.032 0 0"/><path clip-path="url(#r)" d="M120.848 1.783c-.212-.056-.156.154-.31.155.048.189.391.041.31-.155M89.243.854c-.26-.08-.121.241-.154.387.241-.1.039-.16.154-.387m16.189.232c.025-.18-.012-.297-.076-.387-.127-.014-.157.507.076.387m-1.393 0c.089-.065.207-.102.387-.077-.007-.231-.462-.208-.387.077m20.682.852c-.595.47-1.447.087-2.402.233-.012-.092.013-.22-.077-.233.078.424-.904.282-.853 0-.241.322-1.358.304-1.626.078-.659.509-1.562-.29-2.247.077a.541.541 0 0 0-.154-.232c-.011.144-.051.259-.155.31-.187-.552-1.234.104-1.627-.31.191.12.228-.263.078-.233-.32.125-.61.636-.93.31.115.003-.014-.389-.155-.387-.222.12.162.361-.078.465-.115-.256-.189.161-.386.077-.133-.074-.157-.257-.31-.31-.663.682-1.728-.086-2.479.388-.116-.091-.091-.322-.311-.31-.193-.013-.241.119-.309.232-.729-.482-1.798.118-2.556-.31a.364.364 0 0 1-.078.233c-.299-.012-.357-.262-.697-.233.064.219-.108.201-.077.388-.46-.306-1.384.214-1.395-.388-.28.256-.676.433-.929.155.03.314-.483.086-.697.155-.089-.244.122-.188.155-.31-.202.057-.455.062-.543.233-.231-.312-.717.208-1.007-.233-.123.206-.211.139-.464.31-.224-.342-.971-.142-1.394 0 .028-.26-.337-.129-.466-.232-.366.432-.712.003-1.161-.078-.214-.033-.073.289-.233.31-.505-.309-1.162-.045-1.549-.387-.283.486-1.513.546-2.091.077-1.08.472-2.515.183-3.642.31a.541.541 0 0 0-.154-.232c-.076.419-1.295.295-1.394 0-.992.368-2.353-.139-3.486.232-.19-.103.14-.234-.078-.31-.161.044-.164.121-.078.233-.24.008-.22-.244-.541-.155.021.176-.019.291-.155.31a.64.64 0 0 1-.31-.31c-.026.027-.161.047-.202.067-.06-.452-.036-.902-.109-1.351.489.04.922.086 1.24.122 1.247-.16 2.651-.072 4.028-.155.19.103-.085.288.078.31.451-.163 1.66-.475 2.014 0 .051-.419.721-.257.93-.31-.076.307.223.241.386.31.103-.368.912-.393 1.163-.155.696-.087 1.897-.337 2.556.155.434-.065.855-.277 1.394-.155.035.17-.206.382-.155.465.137-.16.24-.068.31-.155-.105-.129.104-.412.388-.388.136.07.128.285.309.311-.19-.315.501-.239.542-.311-.059.017-.089.065-.077.156.512-.046 1.211-.325 2.091-.233.031.133-.115.199 0 .233.146-.336.984-.296 1.395-.078.082-.482.604.172.619 0 .001-.078-.062-.092-.077-.155.851.084 2.618-.166 2.789.233.165-.022.633-.488.852 0 .214-.285.473-.137.775-.233.083.198-.334.271-.078.388.121-.112.269-.196.31-.388.592.104 1.633-.239 1.858.233-.041-.392 1.659-.296 1.24-.078.338-.164.444-.14.775 0 0-.078-.063-.092-.078-.155 1.616.067 3.037-.191 4.029.388.046-.248-.146-.24 0-.388.81.199 1.444-.161 2.014.388.149-.032.007-.355.309-.233.274.008-.164.256.077.233.249.067.243-.12.311-.233.256.106.61.113.697.387V.777c.709.106 1.245.448 1.472-.156.247.053.052.352.154.388.334.075.215-.302.387-.388.591.237 1.365-.177 1.473.311-.076-.308.223-.241.387-.311-.139.163-.25.548.077.62.017-.283.106-.297 0-.542.477.211.523.016.929-.155.077.321.183.44.31.542.053-.279.203-.403-.076-.542.569.041.727.019 1.317 0-.09.159.12.369.154.155-.043 0-.088-.063 0-.078.222.376-.053 1.098.077 1.395-.483.221-2.195.312-2.323-.078"/><path clip-path="url(#r)" d="M116.355 1.628c-.003-.076-.095-.06-.155-.077.002.076.095.061.155.077M115.503 1.628c-.002-.076-.094-.06-.155-.077.002.076.095.061.155.077M115.038 1.938c-.051.051.033-.032 0 0M112.172 1.938c-.051.051.033-.032 0 0M110.7 1.241v-.155c-.166-.036-.148.11-.156.232.064-.014.078-.077.156-.077M109.229 1.241c-.09-.306-.09.306 0 0M106.285 1.861c-.26-.187.187.26 0 0M105.665 1.473c-.05.051.033-.032 0 0M104.814 1.861c-.09-.306-.09.306 0 0M104.504 1.628c-.052.051.032-.031 0 0M103.419 1.628c-.051.051.033-.031 0 0M103.419 1.473c-.051.051.033-.032 0 0M101.327 1.473c-.019-.098-.154-.078-.155 0 .035.113.068-.008.155 0M99.623 1.628c-.09-.305-.09.307 0 0M99.468 1.473c-.089-.306-.089.306 0 0M98.617 1.318c-.09-.306-.09.307 0 0M149.459 1.181v.155h.31c.077-.233-.173-.138-.31-.155m-8.676.31c.07.259.174.067.31 0-.051-.232-.165.073-.31 0m10.303-.31c-.01.139.095.163.077.31.225-.014.187-.368-.077-.31m-8.908-.465c.199-.491.743-.051 1.007.078.11-.266.616.16.542-.233.295.012.483.008.542.078-.088.115-.103.323.077.387.298-.359.642-.501 1.085-.232.71-.262 1.177-.39 1.859-.233-.169.012-.166.196-.155.388.116-.014.286.027.31-.078-.068-.137-.245-.226-.077-.387.394-.033.134.588.541.542 0-.183.134-.228.078-.465.674-.026.932.098 1.549 0 .101.193-.227.322 0 .388.246-.363 1.159-.237 1.162-.388.218.092.041.579.388.543.205-.468.745-.499 1.239-.31.317-.362.98-.246 1.24-.078.386-.389 1.226-.022 1.549.155.018-.213.228-.236.387-.31.096.162.225.291.388.388.367-.331 1.384-.228 1.704-.078V.639c1.953.498 3.686-.487 5.499.31.004-.1.1-.108.078-.233.328.037.762.371 1.006.233-.133.004-.198-.06-.232-.155.301.041.319-.198.542-.233.063.196.319.198.466.31.537-.364 1.869-.324 2.401-.077.065-.115.195-.166.387-.155.012.091-.013.22.077.232.155-.102.695-.386.853 0 .12-.046.25-.071.377-.104-.111.465-.013.936-.087 1.41-.009.005-.204.005-.213.011-.087-.443-.522-.057-.774-.31-.788.5-1.754-.05-2.944.233.068-.249-.119-.243-.233-.31.007.135-.017.241-.077.31-.62-.188-1.684.169-2.246-.233-.23.416-1.16.366-1.627.078-.054.153-.207.207-.387.232-.027-.383-.204.064-.388 0-.083-.073-.024-.286-.232-.232.004.133-.06.198-.155.232-1.045-.267-2.305.244-3.331-.232a32.19 32.19 0 0 1-2.247.232c-.013-.116.029-.286-.076-.31-.115.015-.071.187-.078.31-.32-.253-.551-.007-1.007 0-.084-.198.333-.271.078-.387-.026.36-.397.145-.388.387-.292-.273-.323.132-.62-.077.091-.012.22.013.233-.078-.838.12-1.788-.301-2.634.155-.046-.138.227-.322 0-.387-.234.245-.571.435-.93.077-.099.133-.16.305-.387.31-1.628-.267-3.905.249-5.034-.232.088.159-.122.369-.156.155.157.023-.015-.224-.077-.233-.127.383-.553-.263-.775 0 .094.009.183.023.155.155-.691-.363-1.005-.052-1.627.155-.247-.313-.625-.022-.774-.387-.025.105-.111.148-.078.31-.362.026-.636-.035-.775-.233.029.261-.335.129-.464.233-.428-.271-1.072-.169-1.782-.078-.181-.443-.631.084-1.007-.31-.045.405-.581.188-.774.078-.62.348-1.138.381-1.705.077-.107.048-.011.298-.154.31-.129-.154.006-.098 0-.31-.308-.142-.321.213-.465-.155-.162.743-.953.403-1.317.233-.528.453-2.738.134-4.26.232-.135-.231-.131-.874.077-1.007-.287-.118.164-.341-.155-.465.019-.136.133-.176.309-.155.149.111.223.294.466.31-.012-.193.122-.24.154-.387.34-.055.528.04.621.232.297-.443.815.179 1.006-.077-.043.38.595.418.62.077.007.122-.01.269.155.233-.004-.1-.099-.108-.078-.233.417.09 1.116-.267 1.239.155.24-.404.618.054.853-.232.072.341.2.143.388.077.217-.033-.195.289.077.31.253-.896 1.045-.244 1.549-.542.159.021.019.343.232.31.027-.206.204-.262.388-.31.012.091-.014.22.076.232a.397.397 0 0 1 .234-.232c.115.09.189.223.387.232.553-.448 1.088-.006 1.781-.155.031.134-.115.199 0 .233.065-.276.353.113.31-.31.549-.067.43.331.62.465-.075-.381.376-.116.155-.465.736.04 1.559-.053 1.937.155.289-.347 1.261-.089 1.549.077"/><path clip-path="url(#r)" d="M167.74 1.8c-.003-.075-.095-.06-.155-.077.002.075.095.06.155.077M159.606 1.723c.085-.019.053-.154.155-.155-.033-.214-.244-.004-.155.155M158.677 1.8c.193.302.112-.257 0 0M158.6 1.413c.051-.05-.033.032 0 0M155.191 2.033c-.002-.075-.095-.06-.155-.077.002.075.095.06.155.077M154.649 1.336c-.032.032.051-.051 0 0"/></g><path d="M143.65 1.491h.155v.154h-.155z"/><g><defs><path id="s" d="M-.074.466h210.147v8.067H-.074z"/></defs><clipPath id="t"><use xlink:href="#s" overflow="visible"/></clipPath><path clip-path="url(#t)" d="M142.643 1.18h.155c-.022.126.073.134.077.233.063-.015.077-.078.155-.078V1.18h-.232c-.014-.065.03-.073.077-.077.031-.151-.353-.113-.232.077M137.607 1.8c-.002-.075-.095-.06-.155-.077.002.075.095.06.155.077M134.277 1.878c-.003-.075-.095-.06-.155-.077.001.075.094.06.155.077M132.185 1.568c-.032.032.051-.051 0 0M173.344 2.093c-.051.051.032-.032 0 0"/><path clip-path="url(#t)" d="M203.864 1.783c-.212-.056-.156.154-.31.155.048.189.391.041.31-.155M172.259.854c-.26-.08-.121.241-.154.387.241-.1.039-.16.154-.387m16.189.232c.025-.18-.012-.297-.076-.387-.127-.014-.157.507.076.387m-1.393 0c.089-.065.207-.102.387-.077-.007-.231-.462-.208-.387.077m20.682.852c-.595.47-1.447.087-2.402.233-.012-.092.013-.22-.077-.233.078.424-.904.282-.853 0-.241.322-1.358.304-1.626.078-.659.509-1.562-.29-2.247.077a.541.541 0 0 0-.154-.232c-.011.144-.051.259-.155.31-.187-.552-1.234.104-1.627-.31.191.12.228-.263.078-.233-.32.125-.61.636-.93.31.115.003-.014-.389-.155-.387-.222.12.162.361-.078.465-.115-.256-.189.161-.386.077-.133-.074-.157-.257-.31-.31-.663.682-1.728-.086-2.479.388-.116-.091-.091-.322-.311-.31-.193-.013-.241.119-.309.232-.729-.482-1.798.118-2.556-.31a.364.364 0 0 1-.078.233c-.299-.012-.357-.262-.697-.233.064.219-.108.201-.077.388-.46-.306-1.384.214-1.395-.388-.28.256-.676.433-.929.155.03.314-.483.086-.697.155-.089-.244.122-.188.155-.31-.202.057-.455.062-.543.233-.231-.312-.717.208-1.007-.233-.123.206-.211.139-.464.31-.224-.342-.971-.142-1.394 0 .028-.26-.337-.129-.466-.232-.366.432-.712.003-1.161-.078-.214-.033-.073.289-.233.31-.505-.309-1.162-.045-1.549-.387-.283.486-1.513.546-2.091.077-1.08.472-2.515.183-3.642.31a.541.541 0 0 0-.154-.232c-.076.419-1.295.295-1.394 0-.992.368-2.353-.139-3.486.232-.19-.103.14-.234-.078-.31-.161.044-.164.121-.078.233-.24.008-.22-.244-.541-.155.021.176-.019.291-.155.31a.64.64 0 0 1-.31-.31c-.026.027-.161.047-.202.067-.06-.452-.036-.902-.109-1.351.489.04.922.086 1.24.122 1.247-.16 2.651-.072 4.028-.155.19.103-.085.288.078.31.451-.163 1.66-.475 2.014 0 .051-.419.721-.257.93-.31-.076.307.223.241.386.31.103-.368.912-.393 1.163-.155.696-.087 1.897-.337 2.556.155.434-.065.855-.277 1.394-.155.035.17-.206.382-.155.465.137-.16.24-.068.31-.155-.105-.129.104-.412.388-.388.136.07.128.285.309.311-.19-.315.501-.239.542-.311-.059.017-.089.065-.077.156.512-.046 1.211-.325 2.091-.233.031.133-.115.199 0 .233.146-.336.984-.296 1.395-.078.082-.482.604.172.619 0 .001-.078-.062-.092-.077-.155.851.084 2.618-.166 2.789.233.165-.022.633-.488.852 0 .214-.285.473-.137.775-.233.083.198-.334.271-.078.388.121-.112.269-.196.31-.388.592.104 1.633-.239 1.858.233-.041-.392 1.659-.296 1.24-.078.338-.164.444-.14.775 0 0-.078-.063-.092-.078-.155 1.616.067 3.037-.191 4.029.388.046-.248-.146-.24 0-.388.81.199 1.444-.161 2.014.388.149-.032.007-.355.309-.233.274.008-.164.256.077.233.249.067.243-.12.311-.233.256.106.61.113.697.387V.777c.709.106 1.245.448 1.472-.156.247.053.052.352.154.388.334.075.215-.302.387-.388.591.237 1.365-.177 1.473.311-.076-.308.223-.241.387-.311-.139.163-.25.548.077.62.017-.283.106-.297 0-.542.477.211.523.016.929-.155.077.321.183.44.31.542.053-.279.203-.403-.076-.542.569.041.727.019 1.317 0-.09.159.12.369.154.155-.043 0-.088-.063 0-.078.222.376-.053 1.098.077 1.395-.483.221-2.195.312-2.323-.078"/><path clip-path="url(#t)" d="M199.371 1.628c-.003-.076-.095-.06-.155-.077.002.076.095.061.155.077M198.518 1.628c-.002-.076-.094-.06-.155-.077.002.076.095.061.155.077M198.054 1.938c-.051.051.033-.032 0 0M195.188 1.938c-.051.051.033-.032 0 0M193.716 1.241v-.155c-.166-.036-.148.11-.156.232.064-.014.078-.077.156-.077M192.245 1.241c-.09-.306-.09.306 0 0M189.301 1.861c-.26-.187.187.26 0 0M188.681 1.473c-.05.051.033-.032 0 0M187.829 1.861c-.09-.306-.09.306 0 0M187.519 1.628c-.051.051.033-.031 0 0M186.435 1.628c-.051.051.033-.031 0 0M186.435 1.473c-.051.051.033-.032 0 0M184.343 1.473c-.019-.098-.154-.078-.155 0 .035.113.068-.008.155 0M182.639 1.628c-.09-.305-.09.307 0 0M182.484 1.473c-.089-.306-.089.306 0 0M181.632 1.318c-.09-.306-.09.307 0 0M181.167.931c-.09-.306-.09.307 0 0M177.914 1.086c.032-.032-.051.051 0 0"/></g><path d="M174.505.853h.155v.155h-.155z"/><g><defs><path id="u" d="M-.074.466h210.147v8.067H-.074z"/></defs><clipPath id="v"><use xlink:href="#u" overflow="visible"/></clipPath><path clip-path="url(#v)" d="M171.795.931c.101-.028.122-.136.232-.155-.013-.091-.141-.066-.232-.078v.233zM169.735.699c.032-.032-.051.051 0 0"/></g></svg>