<svg xmlns="http://www.w3.org/2000/svg" xmlns:xlink="http://www.w3.org/1999/xlink" viewBox="0 0 46.109 46.537"><defs><path id="a" d="M0 0h46.109v46.537H0z"/></defs><clipPath id="b"><use xlink:href="#a" overflow="visible"/></clipPath><path clip-path="url(#b)" fill="#03BDD6" d="M20.619 45.279c-.181.321-.307-.554 0 0m.763-.168c-1.415.127.549-.53 0 0m-3.516-.557c-.804-.12 0-.943 0 0m.599-.362c.643.128-.454.274 0 0m3.806.223c.132.483-.364.13-.513.921-.47-.307.513-2.146.513-.921m2.223-.348c-.242.023-.12-.363 0 0m-2.26-.163c-.204.187.1-.096 0 0m-2.542.037c-.433-.344.051-.214 0 0m-1.881-.028c-.385-.151.016-.153 0 0m3.009-.068c-.182.038 0-.398 0 0m3.561-.35c.372.367-.446.019 0 0m-5.34-.041c.145.35-.287-.089 0 0m-1.257-.07c.249-.023-.024.283 0 0m-1.663.111c-.302-.054.282-.226 0 0m7.337.015c-.107.089-.274-.174 0 0m-1.671-.194c.533-.281-.049.499 0 0m-1.759-.062c-.296-.053.03-.235 0 0m10.938-.201c-.368-.223.038-.363 0 0m-5.331-.254c0 .579-.183-.112 0 0m-7.769.167c-.756.014-.003-.07 0 0m-3.844-.139c.011-.076.13-.115.191-.056-.021.065-.133.112-.191.056m3.924-.101c.064-.066.247.157 0 0m7.884-.024c.301-.15-.067.381 0 0m-5.344-.028c-.54.158.242-.728 0 0m-.791-.362c.435-.135-.281-.413.529-.418 0 .43-.504 1.012-.529.418m-5.707-.859c.344-.159.771-.298.251.539a2.194 2.194 0 0 0-.251-.539m-1.135-.214c0 .054.409.454.409.194 0 .385-.409.127-.409.558 0-.078-.601-.562 0-.752m-.712.417c-.554-.028.419-.508 0 0m1.401-.417c-.265-.345.376-.126 0 0m.573-.279c.017-.097.14-.192.218-.139a.118.118 0 0 1-.029.058l.066.133-.066-.132c-.043.047-.12.06-.189.08m-.409-.028c-.226-.262.296.035 0 0m1.472-.139c.514.014-.416.507 0 0m2.251.056c-.048.124-.211.078-.217-.056.062.029.164.017.217.056m-1.308.334c-.492-.547.141-.212 0 0m1.908-.356c.459 0 .006.62-.033.607.12-.144-1.084-.839.033-.607m2.784-.215c-.022.298-.412-.359 0 0m-8.17.07c-.241-.147.011-.081 0 0m3.734-.39c.486-.397-.11.67 0 0m-2.083.111c.293.282-.395-.062 0 0m-.747-.413a.276.276 0 0 1 .066-.089c.166.102.069.168-.008.167.104.147.199.316.155.363-.523-.751-.388-.666-.213-.441m-1.979.44c.012-.004.072-.008 0 0m-1.415-.511c0 .051-.006.095-.029.121-.356.031-.899-.819.029-.121m.598-.464c.729.068.001.436 0 0m3.391-.166c0 .496-.361.081 0 0m3.863-.167c.016.382-.278-.036 0 0m-6.082.055c-.219-.229-.15-.695 0 0m3.282-.363c1.067-.429 0 .69 0 0m2.566-.127c.251.158-.447.226 0 0M7.42 38.644c-.512-.426 1.147-1.701 0 0m.749-.927c.021-.026.065-.071.1-.073l.002.03c-.049.1-.083.114-.102.043m1.267-.088c.275.036-.324-.042 0 0m-.953-.379c.514.015-.414.507 0 0m-.845.028c-.02.1-.126.112-.218.139.018-.097.14-.192.218-.139m-.627.111c-.225-.262.296.035 0 0m4.939-.247c.337.061-.05.407 0 0m-6.002-.003c-.241-.147.012-.081 0 0m6.806-.149c.179-.743.259.23 0 0m-4.103-.015c-.184-.003-.056-.259 0 0m3.94-.124c-.393.067.083-.312 0 0m-5.525.037c-1.01-1.449.523-.566 0 0m-1.173-.167c-.199-.61.303.02 0 0m.305-.582c-1.246.31.902-.722 0 0m-.343-.389c-.238.028.224-.333 0 0m.997-.028c-.051-.031-.125-.039-.136-.112.088-.007.131.033.136.112m-2.972-.279c-.395-.308.482-.156 0 0m5.265-.125c-.767.056.229-1.254 0 0m-2.023-.37a.946.946 0 0 1 .086-.431.424.424 0 0 0 .162.006c.007-.059-.092-.052-.142-.034.38-.596 1.576.69.059.629.087-1.184-.15-.044-.165-.17m-1.224.049c-.305.048.115-.482 0 0m-.327-.223c-.697-.161.305-.341 0 0m.027-.334c-.404-.441.46-.004 0 0m.187-.65c2.377-.196.517 1.064 0 0m-.923.372c.023-.012.047-.01 0 0m.872-.14c-1.259-.133.035-.101 0 0m1.605-.294c.112-.013.037.408 0 0m1.29-.14c.235.25-.432.074 0 0m-5.091.08c-.634-1.663.52-.881 0 0m12.274-.975c-.111.016-.141-.135 0 0m-6.776-.134c0 .224-.261-.016 0 0m-.921.05c-.11.087.299-.978 0 0m-5.163-.183c.092.006.141.058.147.155-.085-.014-.134-.065-.147-.155m-.704.062c-.175-.145.012-.117 0 0m.968-.187c-.509.098.072-.351 0 0m6.701-.28c.736.708-.726.176 0 0m.791-.195c.219.177-.016.122 0 0m-7.375.04c-.127-.116-.117-.107 0 0m1.734-.457c.625 0 1.454.41.98.41-.1-.055-.444-.266-.514-.199-.123.14-.391-.047-.466-.211m-2.613.084c-.371-.359.572.006 0 0m-.176-.217c0-.754.153.006 0 0m-.605-.207c-.204-.283.261.009 0 0m1.103-.197c.684-.248.014.559 0 0m1.521.08c-.218-.229-.149-.694 0 0m-1.902-.329c.38-1.013.214-.169 0 0m2.421-.591c-.021.1-.127.112-.219.139.018-.097.14-.192.219-.139m-2.04.001c-.15-.44.192-.51 0 0m-.586-.03c-.055-.298.464.074 0 0m7.128-.267c.118-.534.478.756 0 0m4.352-.326c.173.325-.01-.001 0 0m-2.144.109c-.956-.475 1.651-.507 0 0m-.681-.229c.018-.144.385.111 0 0m-7.038-.206c.923-.334-.108 1.111 0 0m-.746.325c-.02-.004-.05-.392 0 0m-.49-.494c.028-.074.291-.052.381-.031-.064.151-.27.033-.381.031m-.352-.156c-.027.169-.435.029 0 0m2.406-.259c0 .496-.361.081 0 0m5.787-.115c.262.312-.561.004 0 0m-6.405.064c-.284-.184.165-.178 0 0m-1.553-.062c-.171.026-.059-.382 0 0m6.182-.183c.319-.024 0 .414 0 0m2.849-.129c.428-.463-.049.765 0 0m-5.388.091c-.257.117-.76-.299 0 0m-4.259.004c-.318-.319.45-.034 0 0m5.353-.328c.279-.043 0 .288 0 0m-2.937-.135c.001-.223.035-.065.222-.151-.104.311-.219.575-.222.151m-2.094.214c.212-.285.116-.019 0 0m1.496-.529c.133.055.268.959 0 0m-2.447.333c.083-.217.352-.002 0 0m2.241-.053c-.072.004-.141.005-.175-.031.037-.106.175-.113.175.031M.936 27.53c.057-.258.184-.004 0 0m2.789-.173c-.07-.152.275-.019 0 0M.99 27.168c.189-.239.06-.001 0 0m1.216-.149c0-.592-.715-.048-.819.032 0-.597.819-.903.819-.032m.013-.527c-.191-.083.179-.268 0 0m-.656-.16c-.127-.033.074-.843 0 0m.656-.555c.368-.027-.054.417 0 0m-1.143-.031c-.526-.017-.23-.952 0 0m.498-.497c.11.276-.064.638 0 0m10.415-.11c-.739-.726.276-.335 0 0m-6.664-.396c.111-.152.629.496 0 0m-4.198.028c.017-.127.276.069 0 0m1.445-.166c-.43.037.403-.34 0 0m-1.936-.009c-.044-.378.423-.09 0 0m12.841-.465c.45-.077.043.606 0 0m-5.889.028c-.164-.197.657-.589 0 0m-.385-.028c-.077-.288.313.039 0 0m10.233-.156c-.203-.004.203-.337 0 0M4.18 23.824c.096-.267.267-.006 0 0m3.762-.362c.302-.037.011.589 0 0m-4.334-.111c-.88.034.021-.149 0 0m-1.799-.028c-.128.027-.045-.225 0 0m4.525-.028c-1.003.118.119-.616 0 0m-1.554-.362c.792-.152.211.618 0 0m-2.889.139c-.219-.076-.209-.329 0 0m19.491-.139c-.242-.284.402.061 0 0m-2.808-.224c.26.26-.324-.065 0 0m-6.433.056c.255-.255.219-.201 0 0m-5.753-.056c-.246.02 0-.202 0 0m-4.144-.25c.979-.315.059.681 0 0m4.281-.223c.486.366-.798.184 0 0m-4.471.056c-.744.209 1.216-.44 0 0m7.987-.195c.579-.007-.073.299 0 0m1.473.278c-.122.088-.274.058 0 0m1.955-.209c.429-.464-.049.765 0 0m-7.162-.18c.1-.194.357.178 0 0m-4.989 0c-.177.126-.832-.758 0 0m1.063-.363c.077-.028.664.431 0 0m12.547-.053c-.083.106-.238.08 0 0m-1.888-.086c.219-.236-.027.298 0 0m-.618-.212c.283.29-.351-.074 0 0m2.26-.231c.153.03-.142.334 0 0m-1.287.081c.768-1.018 1.852.221 0 0m-12.05 0c-.65-.42.325-.329 0 0m6.216-.39c.402-.669.181.158 0 0m-2.181-.307c.022-.325.715.362 0 0m-.791.028c.054-.167.384.076 0 0m-1.745-.028c-.008-.002.04-.375 0 0m3.054-.084c.002-.001 0 .091 0 0m4.361-.028c-.021.142-.156-.005-.19-.027.045-.08.148.013.19.027m-3.223-.345c-.303.879.217-.647 0 0m6.468.011c.208-.686.317.271 0 0M1.59 19.673c-.313.039.269-.055 0 0m12.629.421c-.199-1.218.21.052 0 0m.272-.642l.002-.019a.63.63 0 0 1-.11-.087c.046-1.031.517.471.517-.107 0 .304-.011.446-.381.295.006 0-.028-.04-.028-.082m-1.505.053c.152-.082.106.012 0 0m-2.29-.139c.562.265-.044.151 0 0m1.902-.3c.426-.037-.045.255 0 0m-2.376-.034c2.084.114-1.582.864 0 0m3.915-.22c.259.214.151.351 0 0m-11.347.053c-.738-.553.596-.741 0 0m.191-.614c-.127-.384.153.337 0 0m1.99-.111c.026-.211.334-.078 0 0m14.449-.074c-.204-.005.205-.337 0 0m-8.588-.093c-.176-.043-.067-.401 0 0m-7.252 0c-.061-.009-.046-.252 0 0m1.582-.139c-.622.098.286-.502 0 0m-2.59-.084c-.101.012-.167-.164 0 0m5.662-.057c.012-.061.317.089 0 0m.635.113c-.306-.052.016-.425 0 0m-2.59-.223c.023-.419.257-.011 0 0m-.245-.279c.109.001.112.109.137.196-.117.008-.121-.1-.137-.196m-2.554.178c-.392.027.296-.308 0 0m3.723-.125c-.308-.315.41.066 0 0m4.474-.22c.01-.22.292.051 0 0m-.709-.083c-.017-.336.206.032 0 0m-1.854-.114c.587.052-.026.151 0 0m-1.935.086c-.029.006-.105-.232 0 0m-5.806-.056c.025-.102.132-.091.136.028-.064.008-.105-.005-.136-.028m3.434-.03c-.055.059-.206-.117 0 0m-1.772-.304c.281.042-.324.764 0 0m-.054-.112c-.144-.464.017-.063 0 0m-.246-.223c-.638-.081.363-.346 0 0m-.354-.223c-.392-.073-.028-.874 0 0m.246-.529c0-.748.536.765 0 0m9.404-.418c-.142.503-.081-.016 0 0m-5.323-.079c.329-.308-.168.758 0 0m-3.125.177c.454-.145 1.08-.454 1.08-.705 0 .671.074.916-1.08.705m.461-.544c-.53.093.023-.318 0 0m3.952.276c.018-.061.293-.231 0 0m.709 0c-1.173-.719-.643-.622 0 0m-1.003-.555c.006-.315.386-.05 0 0m9.939 0c-.547-.158-.191-.426 0 0m-13.336-.224c-.375 0 .072-.424 0 0m-.125-.193c-.233.028.163-.584 0 0m5.427-.422c.016-.427.541.503 0 0m-.52.001c.161-.043.072.284 0 0m-3.607-.29c-.082.14-.171.276-.266.407-.054-.246.053-.391.266-.407m2.659-.129c.108-.18-.164.277 0 0m4.748.019c-.028-.077.267-.243 0 0m-6.135-.096c-.133-.533.345 0 0 0m-1.011-.288c.245-.266 0 .455 0 0m15.418.1c.136-.37.347-.088 0 0m7.564-.156c.166-.422.955.118 0 0m-12.255-.185l-.062.096.062-.096m-2.527-.009c-.235.105.23-.147 0 0m-8.2-.247c.321.32-.032.266 0 0M7 12.28c0-.342.306.32 0 0m6.621-.145c.027-.044.247-.371 0 0m-.226-.097c-.131.119-.134-.008 0 0m-.355-.083c-1.173-.719-.643-.623 0 0m-7.914-.103l.053-.125c-.694-.494 1.676-.248.211.125a1.92 1.92 0 0 1-.199-.115c-.026.06-.054.115-.065.115m1.377-.233c0-.039.029-.066.089-.078.161.2-.089.095-.089.078m.704-.171c.179.213.002.212 0 0m6.815.033c-.653-.283.247-.236 0 0m-6.429-.329c.471-.614-.281.394 0 0m5.039-.339c.349-.109-.17.462 0 0m-6.026.055c-.542.263 0-.4 0 0m5.083-.594c.175-.069.277-.12.335-.159l.063.001c-.448 0-.225 1.208-.398.158m-.148.399c-.275-.012-.004-.267 0 0m-.438-.275c1.071-.227-.809.527 0 0m-1.288-.127c-.082.14-.171.276-.266.407-.054-.246.053-.391.266-.407m-3.187-.155c-.332 0-.063.185-.486.39.329-3.419-.077-.39.486-.39m2.041-.819c-.351 0-.71.366-.27-.697.662-1.661-.362.697.27.697m1.114-1.384c.302.093.032.162 0 0m.821-.062c-.155.156-.115-.016 0 0m4.345-.159c1.643 0-.929.671 0 0m-2.462-.172c.83.016.11.462 0 0m1.916-.051c.061-.415.584.195 0 0m-.599-.112c.061-.016.147.202 0 0m2.852-.181a5.194 5.194 0 0 0-.052.124c-.02-.041-.015-.103.052-.124m-1.462-.03c-.198-.111.179.1 0 0m-3.612-.039c-.139-.046.225.056 0 0m3.067 0c-.035.012-.151-.251 0 0m-.9-.363c.283-.686.15.816 0 0m-4.346.143c-.036-.005-.272-.533 0 0m1.494-.279c.088-.056.189.151 0 0m.648-.206c0 .163-.049.062-.163.087-.5.112.127-.086.163-.087m.114-.381c-.08.011-.108.008-.114-.004a3.137 3.137 0 0 1-.208.268c-1.174-1.11 1.064-.264.322-.264m-1.758-.034c.076-1.484.916-.227 0 0m3.166-.808c.448-.302.175.703 0 0M10.517 4.961c.538.007-.246.352 0 0m1.924-.028c-.091-.694 1.229-.19 0 0m-1.31-.109c0-.042.321-.059 0 0m.294-.267c.008-.056.382.12 0 0m7.241-.031c.558.063.085.533 0 0m1.03-.025c-.288-.463.456-.742 0 0m-7.501-.097c.006-.415.358.042 0 0m2.836-.25c.36-.057-.003.488-.003.07 0-.024.001-.047.003-.07m1.466.124c-.848-.008-.176-.855 0 0m1.363-.568c.083-.008.352.338 0 0m-3.771-.445c0 .345-.053.384-.289.547.036-.235.151-.47.289-.547m-.493.44c0 .067-.048.084-.119.076-.012-.1.081-.104.119-.076m2.256-.298c.176-.492.115 0 0 0m7.754-.361c.407.151-.157.171 0 0m-4.552-.139c.78.441.076.23 0 0m5.037-.276c.209.199-.356.544 0 0m-4.134.186c-.054-.524.656-.013 0 0m-.851-.186c-.006.032-.315-.092 0 0M15.207 2.6c-.484.058.081-.389 0 0m9.617-.062c-.104-.113-.146-.159 0 0m-.836-.188c.021.193-.363-.008 0 0m1.627.126c.323-.247.461-.092 0 0m3.728-.246c.475-.111-.064.883 0 0m-11.849-.5c-.464-.023.288-.291 0 0m3.22-.229c-.315.145.192-.089 0 0m3.171.043c.064-.341.068.008 0 0m-4.808-.28c-.116-.066.214-.431 0 0m4.955-.497c0 .067.008.079.017.073a5.293 5.293 0 0 0-.076.238c-.047-.052.035-.252.059-.311m-2.35.154c0-.014.331-.081 0 0m3.112.56c.444.012-.303.406 0 0m4.958.833c.138.019-.06.267 0 0m-6.101.442c-.17-.01-.094-.049 0 0m-1.299-.1c.293-.319-.064.444 0 0m5.961.627c.496.235-.218.295 0 0m-1.116.196c0-.146.272.005 0 0m-7.91-.048c-.341-.015-.12-.05 0 0m-5.018-.023c.282.351-.529-.017 0 0m9.411.559c-.369.112.427-.606 0 0m3.372-.311c.172-.071 0 .842 0 0m5.173.084c-.434-.165.324.114 0 0m-1.082.076c-.328 1.001-.014.042 0 0m1.216.182c-.173.589-.031-.007 0 0m-2.733.506c-.157.309.148-.296 0 0m-1.694.177c-.07.018-.208-.272 0 0m-4.482-.194c.176-.09.725.256 0 0m4.864.032c-.244-.151.161.093 0 0m-2.581-.459c-.173.086-.243-.014 0 0m-2.481-.066c.031.004 0 .384 0 0m-1.678.431c.065.289-.028 0 0 0m1.107.126c0-1.27.983.508.109.007-.023-.013-.109-.016-.109-.007m-2.075.194c-.249 0 .205-.021 0 0m14.069-.064c.264.103-.029.215 0 0m-8.18.218c.299-.09-.078.348 0 0m9.03.062c.302-.048-.039.302 0 0m-.41.155c-.004.016-.27-.036 0 0m-4.838-.092c.444-.057.073 1.409 0 0m3.02.621c.619-.105-.465.505 0 0m1.501.316c0 .085-.911.255-.094-.254.061.056.086.175.094.254m-14.763.066c.02-.304.341.256 0 0m8.45.045c.331-.029-.429.148 0 0M17.82 5.979c.457-.429-.135.61 0 0m11.019.321c0-.067.685-.337 0 0m-8.637.086c.305.307-.054-.05 0 0m15.88.097c.057-.118.08-.133 0 0m-21.678.09l.013.033c-.07.003-.15.004-.251-.001a.473.473 0 0 1 .2-.139l.038.107m.014.033a2.563 2.563 0 0 0-.052-.14c.3-.111.597.116.052.14m-2.26-.322c-.04.578 0-.498 0 0m2.436-.125c-.061-.247-.04-.162 0 0m1.228-.403c.073-.069.118-.036.118.075-.051.009-.118-.006-.118-.075m3.286.132c.018-.061.293-.231 0 0m8.208-.243c.05.027.102.423 0 0m-1.359-.031c-1.972.776-1.123-.004 0 0m-14.708.031c-.029-.289.174.02 0 0m.865-.127c.795-.36.472.117 0 0m5.175-.308c.181.724-.245-.012 0 0m-3.649-.193c.527.432-.065.104 0 0m5.258.036c-.128.012.235-.025 0 0m6.454.001c-.342.342-.157-.019 0 0m.604.213c-.127.315.114-.287 0 0m-6.522.097c.434.458-.14.13 0 0m2.833.042c-.418.316.223-.18 0 0m-4.637-.089c-.487.012.187-.009 0 0m3.169.098c-.653-.283.247-.236 0 0m8.07.012c.449-.103-.231.35 0 0m-5.642.015c.003.027-.715.169-.765.169.006 0-.186-.409.605-.409 1.078 0 .774.729.16.24m-3.682-.501c-.369.054.044-.432 0 0m-1.905.052c.017-.321.235.038 0 0m.104.002c.219-.516-.12.292 0 0m-3.663 1.108c0 .157-.162.006-.273-.082-.103 0 .093-1.202.273.082m-.905-.361c.107-.158.161-.005 0 0m-.959-.035c.089 0 .041.325 0 0m9.826.768c.056.353-.332-.047 0 0m-6.924.164c-.031.06-.369.272 0 0m20.142.093c.594-.131-.108.474 0 0m.616.124c.556-.402-.159.76 0 0m.671.092c.291.008-.215 0 0 0m.765.157c.091.016.165.379 0 0m-10.818-.062c.072.63-.385.09 0 0m-1.427.095c-.247-.494.412.782 0 0m-.215.122c-.254.266-.115-.005 0 0m-1.843.272c.387-.773 1.339-.216 0 0m-6.388-.209l.066-.153c.005 0 .008-.003.014-.003-.006.161-.05.182-.08.156m1.532-.153c.115-.162.428.349 0 0m1.738-.05c0 .15-.584-.374 0 0m-1.313-.202c-.018.241-.27.109 0 0m.775.029c-.363-.087.038-.203 0 0m3.619-.074c.668-.12-.257.051 0 0m1.27-.047c.335.009.291.142 0 0m5.213.217c-.545.149.047-.554 0 0m-9.448-.012c.203-.333.336-.017 0 0m4.816.105c-.572-.111.245-.345 0 0m2.55-.373c-.17.069-.251-.038 0 0m-3.795-.011c.493-.023-.225.251 0 0m2.242.912c-.774-.112 0-.444 0 0m-.995.009c-.063.362.027-.255 0 0m-3.591-.057c-.019.105-.095.258-.191.195.009-.12.073-.186.191-.195m-1.743.102c-.087-.005-.136-.232 0 0m-1.31-.046c-.078.184-.11-.013 0 0m3.798.21c-.464-.066.241-.295 0 0m7.154.217c-.32-.461.042-.055 0 0m.693.143c.093-.24-.087.223 0 0m4.814.044c.032-.032.106-.015 0 0m.914.015c-.07-.413.069.367 0 0m-9.471.14c-.284.448-.934-.213 0 0m.763.187c.285-.064-.045.335 0 0m.909.03c-.004.217-.544-.049 0 0m-1.144.217c.078.394-.371-.269 0 0m1.466.063c-.001.027-.336.154 0 0m.499.093c.403-.753.303 1.062 0 0m1.495-.156c2.031.578-1.66 1.877 0 0m1.273.716c-.525-.267.064.032 0 0m4.759.135c.579.009-.055.178 0 0m-3.423.113c-.02.49-.349-.403 0 0m-1.993.155c.163.007.093.515 0 0m3.987.187c-.011.432-.283-.053 0 0m-13.839.186c-.181.038 0-.214 0 0m1.76 0c.103.03-.027.973 0 0m15.225.027c.029.283-.291.02 0 0m2.754.056c.325.195-.016.034 0 0m-10.584.072c.284 0-.29.04 0 0m-2.318-.006c.06.391-.044-.242 0 0m4.634.309c.005-.028.099-.542 0 0m4.396-.208c.33.097 0 .153 0 0m-5.253.34c-.452-.406-.004-.038 0 0m6.398.19c-.225.012.038-.315 0 0m-4.141.183c-.521-.172.049-.305 0 0m-12.724-.124c-.026.009-.121-.272 0 0m8.297.124c-.306-.06-.027-.179 0 0m-11.053-.124c-.006.268-.299-.034 0 0m11.17-.124c-.478.012-.033-.459 0 0m-2.287-.341c-.003.438 0-.127 0 0m-7.182-.25c.29.152.451.564 0 0m-3.255.062c.176-.09.725.256 0 0m-1.876-.062c.065.29-.027 0 0 0m-1.671.15c-.304.059-.143-1.04 0 0m3.349-.581c.031.004 0 .384 0 0m-5.419-.05c-.585-.534.587.497 0 0m5.448-.383c0 .04-.494.025 0 0m1.899.491c-.592-.418.604-.856 0 0m1.886-.302c.038-.134.032-.113 0 0m7.467-.132c-.136.136-.148-.505 0 0m.527.279c-.029.008-.153-.359 0 0m-4.749.28c-.166-.883.931.028 0 0m-3.669-.42c.146.021.275.255 0 0m3.053.016c.142.212-.024.146 0 0m6.14-.133c-.09 0-.196.41-.264.41-1.317-.871-.081-.524.253-.791-.151.126-.432.103.011.381m.406.03c.163-.397-.085.214 0 0m.148-.427c-.192.041.277-.138 0 0m-.42.25c.096-.802.458.358 0 0m-2.826-.435c.159 1.819-.197.018 0 0m-8.758.411c0-.103.374-.192 0 0m-7.532-.255c.321.32-.032.266 0 0m1.356.139c-.082-.026-.144-.546 0 0m.845-.446c.78.441.076.231 0 0m5.759-.094c-.133-.488.268.978 0 0m-2.46-.156c.292-.32-.066.443 0 0m-5.851.122c-1.286-.656 1.576-.402 0 0m4.76-.401c-.103.019-.2-.23 0 0m-1.99-.084c-.182-.11.135-.269 0 0m4.525-.334c-.36-.171 0-.276 0 0m.416.034c-.264-.185.095.061 0 0m-.299-.029c.036.008.052.014.049.043 0 .206-.28-.095-.049-.043m7.921.317c-.52.016.246-.956 0 0m1.085-.156c-.399-.26.021-.146 0 0m-.821 0c.081.399-.499.149 0 0m-3.653-.037c0-.066.476.349 0 0m-6.584.373c-.714-.428 0-.508 0 0m4.377.153c-.053.021-.144-.178 0 0m-.854-.147c.481.265-.239.326 0 0m-7.005.086c-.361-.119.252.079 0 0m-.765-.008c0-.039.03-.065.089-.078.161.2-.089.095-.089.078m10.091-.246c.623.024 1.135 1.394 0 0m.927.223c-.014.122-.434-.221 0 0m1.064-.139c1.017 1.924-1.203-.181 0 0M19.341 9c-.043.139-.108.142-.059.248 0 .013-.277-.324.059-.248m1.343-.049c.166-.288.055.01 0 0m-.376-.106c.216.228.041.218 0 0m-2.442.384c-.139.223.077-.141 0 0m-1.036-.116c.406.15-.158.171 0 0m-4.32.384c-.341-.015-.12-.05 0 0m3.556-.273c-.082.537-.649.065 0 0m-3.489-1.198c-.059.009-.154-.217 0 0m1.118.25c-.098.029-.322.056-.322-.089 0-.235.322-.6.322.089M9.549 9.777c.352-.055-.121.289 0 0m.527 0c.245-.266 0 .455 0 0m8.49.559c-.065.508.02.193.02.746 0 .38-1.781-.567-.02-.746M7.91 10.9c-.546.009.352-.006 0 0m1.141.027c-.157-.396.518 0 0 0m1.934.062c.282.106.105.131 0 0m-2.433 0c.248.113-.053.341 0 0m6.938.484c-.42.317.225-.183 0 0m.963.035c.005.038-.734.241-.734-.361 0 .066.138-.212.31-.212-.501.43-.288.409.261.409.966 0 .722.609.163.164m16.979.057c-.113-.027-.216-.327 0 0m7.197-.084c.609.62-1.077-.096 0 0m.954.557c.094-.537.288.506 0 0m-7.539.146c.258.227-.219-.186 0 0m-16.755.171c.328.177-.013.068 0 0m1.817.001c-.14-.007-.133-.496 0 0m-1.867-.011c.2-.214.065.008 0 0m-.185-.02c-.342-.171.045-.529 0 0m.048-.259c.2-.118.019.203 0 0m.949-.021c-.43.061.046-.376 0 0m-.731-.227c.196-.096-.238.337 0 0m.291-.301c.622.369-.182.637 0 0m11.493.062c-.31.05.027-.282 0 0m2.639.186c-.567.034.289-.536 0 0m8.518.135c.161.826-.135-.645 0 0m-1.158.278c-.278.027-.422-.147 0 0m.176-.31c-.011-.196.075 0 0 0m-21.023.27c-.6.011.491-.572 0 0m1.965-.497c-.544 1.503-.558-.29 0 0m5.632.676c-.286.083 0-.295 0 0m-2.554-.024c-.28.043.043-.316 0 0m-1.218.225c.001-.005.041-.059 0 0m12.008.148c-.044-.314.249.03 0 0m3.166-.466c.216.227-.225 1.056 0 0m1.554.218c.11-.028.366.158 0 0m3.02-.155c.989.766-1.107.064 0 0m.51.054c.214-.02-.251.023 0 0m-2.475.287c-.006.204-.33-.251 0 0m2.265.242c.589-.141-.21.629 0 0m-4.089.335c-.217-.302.262.01 0 0m4.668-.018c.135.383-.476.179 0 0m-3.415.268c-.13-.091-.182-.128 0 0m2.672.028c.148.21-.427.305 0 0m.945.078c.349-.022-.208.019 0 0m-2.445.173c.428-.025-.036.306 0 0m2.154.111c-.108.136-.492.433 0 0m-2.96.243c-.144-.145.45-.335 0 0m2.156.092c-.586.586.305-.327 0 0m-4.003.281c-.102-.42.224-.005 0 0m-5.336.093c-.049-.206.495-.064 0 0m8.473.094c.183-.153.098.013 0 0m-25.869.031c-.015.122-.435-.221 0 0m24.113.069c.247-.098-.182.075 0 0m1.023.148c-.008 0 .067-.34 0 0m3.284 0c.141-.031.134.081 0 0m-6.593.108c.096.327-.004-.014 0 0m1.705.106c.21-.057-.379.13 0 0m5.767.003c-.205.177-.139.001 0 0m-7.535.094c.064.573-.285.043 0 0m.968.341c-.323-.06.414-.447 0 0m4.926-.186c.052.012-.28.871 0 0m.615.093c.036.314-.274-.058 0 0m-1.788.529c-.161-.076-.334-.763 0 0m-9.06-.216c0 .158-.68.403 0 0m-2.873.122c.148.033.117.062 0 0m-1.097-.061c-.883 1.133-.596-.728 0 0m5.202.341c-.033-.314.241.03 0 0m3.972-.095c-.322.035.131-.041 0 0m1.666.111c-.22-.177.006-.119 0 0m-2.002-.016c-.144-.127 0-.119 0 0m-1.496.217c-.337.025.209-.673 0 0m.557.187c-.433.075.383-.383 0 0m4.114-.137c-.011.076-.523.252 0 0m-3.616.137c.252.158-.447.225 0 0m-4.917.214c-.139.329.116-.308 0 0m8.178.011c.285-.031-.026.201 0 0m-1.57.1h-.212l.005-.014h.206l.001.014m-7.696-.011l-.001.008h-.177v-.008h.178m-1.5.183c-.948-.356.177-.233 0 0m7.71.124c-.085.004-.098-.383 0 0m-4.741.133c-.28-.051.201-.173 0 0m7.322.147c-.051.37-.575-.451 0 0m2.356-.035c.299.069-.002.007 0 0m-10.653.19c-.92.368-.003-.058 0 0m11.229.031c.363-.029-.286.313 0 0m1.986.169c1.325.187.01.055 0 0m-4.567.111c-.042.048-.33-.198 0 0m1.056.03c.293.439-.52-.082 0 0m-.909.187c-.277.172-.037-.039 0 0m.482.591c-1.047.355-.012-.545.531-.585.123.359-.531.377-.531.585m1.805-.311c.185-.027.155.097 0 0m2.924.172c-.135.085-.186-.012 0 0m-1.253.169c.021.386-.21.379 0 0m.733.218c.104.205-.041.21 0 0m-18.043-.093c.215.463-.403-.09 0 0m-.34.155c-.318.021 0-.381 0 0m-10.594-.282c.025.004 1.78.562 0 0m-3.707-.195c-.081.1-.236.253-.355.223.081-.1.195-.294.355-.223m-.546.279c-.232-.126 0-.364 0 0m-8.26-.335c.013-.249.883.608 0 0m1.663-.195c.387.124-.353.458 0 0m2.616-.169c-.142.503-.082-.016 0 0m7.423-.035c.596.137-.026.106 0 0m1.029-.046c.219-.049 0 .62 0 0m3.865-.003c.125.12-.069.178 0 0m5.193-.199c-.46.858.09-.17 0 0m2.303 0c0-.292.062.014 0 0m-7.21-.11c-.073.293-.607-.338 0 0m-4.947-.081c.472-.134-.063.324 0 0m.53-.213c-.56-.005.247-.308 0 0m.566-.203c.084.396-.291.063 0 0m-4.085-.139c.171.008-.07.434 0 0m1.68-.058c-.175.157-.276.105 0 0m8.611-.067c-.089.461-.195-.026 0 0m5.923.249c-.098-.057.19-.437 0 0m-1.713.374c-.156.459-.179-.193 0 0m-7.11.027c.262.273-.321-.033 0 0M14.67 17.6c0-.038.024-.226 0 0m2.454.062c0-.113.522-.206 0 0m6.693-.082c.01.026-.318-.743 0 0m4.261-.005c-.058.013-.156-.266 0 0m.393-.02c.121-.444.075.008 0 0m-.649-.401c.038-.115.169.043 0 0m-3.849-.014c.237-.241.116.581 0 0m-3.06.023c.499.065.092.912 0 0m-3.217.167c-.264.329-.172-.015 0 0m1.131-.002c-.071-.153.033-.164 0 0m-.994.058c-.223-.219.004-.054 0 0m12.092.375c.998-.084-.395.601 0 0m5.952.963c.148-.097.164-.107 0 0m-.264-.166c.139.294-.371.014 0 0m-7.271.26c-.501.444 0-.453 0 0m-1.243.062c.026-.73.432.408 0 0m-9.724-.071c-.054-.341.543-.004 0 0m5.765-.146c-.107.137-.469.028-.527-.093.104-.009.406.018.527.093m3.431-.155c.195.133-.128.191 0 0m-8.939.053c.017-.251.302.056 0 0m-5.846.025c.023-.261.201.041 0 0m-1.417.084c-.303-.293-.044-.174 0 0m-2.536 0c.029-.128.182-.13.3-.168-.003.156-.146.167-.3.168m2.017-.195c.283-.245 0 .386 0 0m1.064.111c-.454-.099 0-.197 0 0m.491-.223c.181.187-.015.141 0 0m2.952.082c.048.159-.344-.084 0 0m1.105-.224c.449-.077.043.607 0 0m2.376-.063c.815.358-.099.444 0 0m1.194-.076c.318-.074 0 .37 0 0m9.275.03c.225.263-.297-.035 0 0m4.931.115c-.106.009-.172-.231 0 0m-2.169.063c-.092.085-.303.111 0 0m-1.343.015l-.01-.009c.046.005.092.009.151.009-.099.459-.098 0-.141 0m-9.358.084c-.028 0-.069-.226 0 0m-.681-.028c.21.22-.47.218 0 0m13.036.058c.016-.123.277.063 0 0m-2.622-.098c.618.177-.612.437 0 0m2.786-.014c.017-.125.277.066 0 0m-1.555-.013c.021-.242-.021.245 0 0m-7.546.68c-.875-.002-.671-.21 0 0m-5.861-.009c-.024.001-.118-.445 0 0m21.886-.518c.166-.019.268.047 0 0m-2.175-.406c-.153-.012-.128-.096 0 0m-3.019.674c-.139-.255-.088-.489.348-.352 0-.084.095-.466.356-.467-.052.93-.725.819-.704.819m-3.812-.985c-.152 1.049-.148.001 0 0m1.291.017c0-.071.183-.126 0 0m1.227-.025c.355.103-.088.32 0 0m-2.518-.271c.141-.022-.114.423 0 0m.88-.094c-.012.121-.101.083-.147.031.003-.078.109-.072.147-.031m-1.261 0c.014-.077-.761.364-.936.671-.348-.593.134-1.29.936-.671m-17.166-.471c.037-.002-.049.399 0 0m7.246.054c-.259-.26.326.066 0 0m-6.379-.084c.256-.254.22-.202 0 0m-5.745-.065c-.087-.004-.136-.232 0 0m-3.02-.466c.23.138-.533.964 0 0m.319.144c.016-.379.488-.081 0 0m3.081-.142c-.727.076.255-.808 0 0M2.927 15.8c.139.165-.112.519 0 0m3.197.05c.319-.038-.137.344-.036.003.012-.002.017 0 .027-.002-.108-.374 1.036-.553.009-.001m3.482-.309c-.234.105.23-.146 0 0m6.406-.02c-.001.195-.427-.219 0 0m13.031-.028c-.001.01-.39-.025 0 0m1.791.187c-.025 0-.118-.445 0 0m-3.706 0c.679-.285 0 .661 0 0m-3.417.272c.032-.191.031-.091 0 0m-6.663-.124c-.017.059-.168.026-.191 0 .023-.107.142-.028.191 0m5.74.039c-.098-.442.265.276 0 0m-7.763-.293c.219-.235-.028.299 0 0m2.05.031c.135-.027.145.074.245.083-.037.133-.227-.015-.245-.083m-8.152.276c.448.106-.171.395 0 0m4.166-.028c.256.374-.11.596 0 0m1.696.225c.209.113.258-.127.409-.055-.031.155-.336.208-.409.055m5.966.086l-.013-.037c0-.19.006-.083.013.037m8.764.261c-.564-.177.592-.296 0 0m5.776.125c-.292-.383.068-.09 0 0m-14.953.124c-.08-.257.539-.007 0 0M7.587 16.55c.283.33-.682-.043 0 0m12.263-.195c.379.331-.113.388 0 0m7.393.197c-.256.077.012-.231 0 0m-.513-.22c.47.238-.381.499 0 0m-13.387.191c.018-.042.232.056 0 0m1.014-.098c.546.3-.042.165 0 0m5.057.322c.298-.099-.239.106 0 0m10.57.02c-.085.019-.128-.126 0 0m-2.551.031c-.589-.171.188-.284 0 0m3.137-.124c-.251.029 0-.311 0 0m2.699-.038c.088-.159.28.1 0 0m.436.056c-.283-.041.192-.279 0 0m-8.404-.432c-.399-.459.233.263 0 0m8.201-.021c-.044-.002-.129-.383 0 0m-4.31-.062c-.033.126-.209.038-.234-.031.053-.084.177.017.234.031m3.783-.621c.346.134-.24.244 0 0m.103.383c-.064-.191.535-.062 0 0m5.32-.29c.369.083-.241.629 0 0m-3.078-.097c-.026-.207.071 0 0 0m-2.581-.152c.062.231-.178.23 0 0m2.112-.062c-.01.148-.352.158 0 0m-12.725-.062c.626-.056-.368.299 0 0m-1.5.099c0-.134.242-.153 0 0m-1.695-.161c.273.064.003.174 0 0m-3.552-.001c.658-.873 1.94.231 0 0m14.194-.372c.383-.423-.098.311 0 0m3.402.155c.05-.574.515-.019 0 0m2.931.156c-.102-.921.101.031 0 0m-.029 0c-.971.771-.391-.869 0 0m-9.96-.01c.372.637-.356-.61 0 0m-2.462.149c.227-.598-.142.394 0 0m-1.68-.232c.164.037.102.051 0 0m2.688-.096c.308.118-.005.04 0 0m-4.33.033c.317.451-.436-.063 0 0m10.877.156c-.735-.25.008-.331 0 0m-3.137-.342c.404.019-.191.463 0 0m-18.186-.322c-.654-.283.247-.236 0 0m10.885-.176c.044.007.205.364 0 0m8.943-.124c1.523-.394.007.909 0 0m-6.065.003c.039-.007.072-.02.085.018 0 .192-.285.02-.085-.018m-.749.005c.371.103-.69-.182 0 0m-2.979-.008c-.406.041.203-.387 0 0M6.65 13.995c.282.107.104.132 0 0m6.799-.062c.587.052-.026.151 0 0m18.102-.615c-.459.858.09-.17 0 0m-7.841-.341c.013-.002.079.35 0 0m9.499.093c-.155.459-.18-.193 0 0m.645.249c0-.293.062.013 0 0m-13.662-.125c.11.22-.235.067 0 0m6.18-.013c.504-.246.171.342 0 0m-.273-.084c.261.274-.321-.033 0 0m8.751.532c-.003.1-.066.137-.175.124.001-.152.06-.152.175-.124m-4.661.094c.491.314-.233.345 0 0m8.804.07c.692.261.038.135 0 0m-3.898.307c-.271.069.137-.395 0 0m-1.651.244c.026-.73.432.407 0 0m-.558-.218c-.045-.354.254.04 0 0m-8.883-.341c-.854.141-.217.002 0 0m5.717.093c.691-.224-.049.441 0 0m-8.209.158c.492.124-.4 0 0 0m7.447-.003c.104-.008.406.019.527.093-.107.137-.469.028-.527-.093m8.131-.452c0 .03-.165-.108 0 0m-1.28-.347c-.523 1.106.259-.556 0 0m-14.183-.321c0-.043.253-.16 0 0m2.025.033c-.157-.146.014-.098 0 0m3.779-.089c-.301.024.396-.036 0 0m-6.3.027c-.02.634-.479-.065 0 0m-7.872-.01c.448.106-.17.395 0 0m2.938.066c.664-.121-.252.048 0 0m.606-.122c.493-.023-.225.252 0 0m-4.087.314c.067.397-.291.023 0 0m7.125.031c.052.498-.26-.15 0 0m-7.326.315c-.146.229.174-.288 0 0m-.591.065c.282.33-.683-.042 0 0m4.721.459c-.509-.93-.194-.709 0 0m-11.899-.255c.48-.028-.198.427 0 0m7.97.038c-.087-.005-.136-.233 0 0m-3.573.064c-.14.104-.188-.013 0 0m5.125.028c.009-.12.073-.185.191-.195-.018.105-.095.259-.191.195m-1.581.87c-.054.022-.144-.177 0 0m1.957.354c-.565-1.434.233-.117 0 0m-5.583-.056c-.131.119-.135-.008 0 0m.225.097c.027-.044.249-.372 0 0m.239 2.386c-.038.485-.324-.356 0 0m4.356-.17c-.088.605-.265.382 0 0m30.206 1.926c-.226.692-.011-1.004 0 0m1.085.124c.049-.044.154.142 0 0m-2.551.124c-.02.535-.296-.441 0 0m-.234.093c-.004.339-1.359.732 0 0m-2.111.622c-.297-.511.156-.134 0 0m-.721.059c-.003.288-.016.082 0 0m-.494-.549c.001.36.524-.171.524.134 0 1.28-.522.177-.524-.134m-7.318.863c-.21-.237.011-.121 0 0m1.309.083c-.091.813-.256-.681 0 0m4.161-.006c-.321.143.267-.124 0 0m7.779-.133c.303-.15-.068.382 0 0m.436.474c.189-.496.265.421 0 0m-4.479.141c.531-.281-.046.497 0 0m1.508.054c.307.271-.074.1 0 0m-2.592.163c-.352.766-.317-.052 0 0m1.73.186c.545.024-.371.372 0 0m1.898.18c.217-.043.139.342 0 0m1.977.272c.169.007-.419-.007 0 0m-2.196-.216c1.038.516-.142.396 0 0m-2.265.386c.02-.829.413 0 0 0m-13.492.143c-1.108.49.198-.618 0 0m14.811.012c-.209.463-.042-.005 0 0m.074.072c.228 0 .004.274 0 0m-13.537.442c-.034.022-.065.004-.085-.02-.06.102-.479.366-.507.366-.114-.222-.096-.47.294-.321 0-.171.179-.351.409-.351-.023.174-.055.26-.088.303.059-.054.15-.114.293-.179.282.565-.595.502-.316.202m16.509-.191c.447 0-.43.107 0 0m-1.678.166c-.083.201.067-.164 0 0m-10.163.077c0 .256-.014-.169 0 0m6.743.304c.099-.642.53.337 0 0m2.89-.185c.019.248-.214-.047 0 0m-.409.139c.042.168-.316-.085 0 0m.454.004c.527.545-.742.963 0 0m-1.141.644c-.194.21.17-.188 0 0m-1.97.392c.349-1.295.597 1.098 0 0m3.811-.093c.358.381-.944.07 0 0m-.584.289c.486.641-.637-.833 0 0m-3.169.333c.676-.47.07.969 0 0m4.398-.062c.405-.059-.098.28 0 0m-1.581.109c.108-.001.156.264 0 0m.954.056c.356.147-.064.448 0 0m-1.643.103c.157-.152-.142.163 0 0m-.398-.02c.932.157-.421.463 0 0m2.313.224c.6.343.498.497 0 0m-.72.628c.077.124.026.254.015.422-.149-.518-.452-1.126-.015-.422m.543-.216c-.057.283-.138-.045 0 0m.105.227c.067.009-.199-.026 0 0m-.111.239c.416-.02-.285.016 0 0m-5.296.152c.223-.021 0 .2 0 0m-6.568.176c-.08.011-.034-.335 0 0M43.9 26.36c-.324.657-.465.161 0 0m-3.537.349c-.432-.483.475.058 0 0m-1.789.062c-.21-.175.01-.086 0 0m4.699.09c1.114.368.046.35 0 0m-10.914.345c-.268-.26.396.05 0 0m1.673.017c.039.237-.304-.033 0 0m8.179 0c.318.15-.597.463 0 0m2.726.168c-.334.32-.165-.016 0 0m-2.412-.308c-.618-.051.271.019 0 0m-10.75-.03c-.286.084.038-.057 0 0M34 26.989c-.051-.089-.015-.174 0 0m-3.078-.125c.112-.014.037.407 0 0m1.065-.17c-.303.101-.118-.017 0 0m-1.329.543c-1.673 1.392-.124-1.984 0 0m2.502.544c.094-.65.625.606 0 0m.626 0c-.833.089.471-.442 0 0m6.752-.14c-.02.183-.118.299 0 0m1.32 0c.755-.044-.063.55 0 0m2.61.156c-.021.195-.329-.297 0 0m-6.861.127c0-.132.371 1.077 0 0m3.473.148c-.283-.168.178.103 0 0m2.889.098c-.331.061.02-.394 0 0m-5.688.155c-.405.334.044-.546 0 0m-16.301-.046c-.032 0-.066-.45 0 0m-8.56-.391c.297.355-.732.019 0 0m-.44 0c-.133.115-.188.162 0 0m-2.599-.158c.24.032.076.755 0 0m-.878.437c0-1.662.59 0 0 0m-2.331-.815c-.442-.701.629.556 0 0m.497-.265c.075.138-.395.308 0 0m5.029-.137c.152.031-.143.335 0 0m.382.055c-.411.064.225-.326 0 0m-7.567-.056c-.047-.13.325-.078 0 0m2.113-.108c.04.237-.303-.033 0 0m2.698.083c-.316-.132.113-.289 0 0m-5.069-.138c.016-.309.289-.187 0 0m9.836-.917c-.134.164-.079-.01 0 0m-.557.373c-.948-.356.177-.233 0 0m-3.156-.69c-.178.036.017-.307 0 0m2.687-.212c.053-.084.177.018.234.031-.033.127-.209.039-.234-.031m-1.218-.483c.556 0 .689.086.626.189-.009.006-.012.01-.009.013-.154.204-1.021.466-1.021.302 0-.032.007-.049.015-.059-.018-.015-.034-.028-.06-.052.011-.247.384-.395.449-.393m-.694-.136c.259.214.151.351 0 0m1.725-.312c.968-.414-.185 1.115 0 0m3.824-.139c.21.22-.469.218 0 0m.654-.111c.147-.01-.163.34 0 0m11.494-.056c.335-.323.046.053.018.051-.008-.012-.018.124-.018-.051m-6.446-.003c-.305-.317.404.065 0 0m-4.039-.165c.289-.059-.063.331 0 0m9.532.345c-.28.314.31-.375 0 0m10.926.06c.154.282-.129-.204 0 0m-23.075.014c.031-.01 0 .272 0 0m-1.1.117c.016-.252.301.054 0 0m6.496.188c-.211-.309.628-.207 0 0m-2.07.202c-.956-.475 1.651-.507 0 0m18.705.17c-.379.1.338-.352 0 0m-6.567.063c-.031 0-.066-.45 0 0m-6.815.063c-.21-.237.012-.121 0 0m-7.895.069c.676-.081-.024.215 0 0m-3.849.024c.495-.106-.142.355 0 0m.326.027c-.073-.035-.041-.339 0 0m.877-.154c-.147-.035-.117-.062 0 0m4.407-.105c0 .227-.392-.041 0 0m2.968-.228c.001-.005.026.186 0 0m-6.29-.102c-.123.429-.027-.005 0 0m4.433.306c0 .001-.437.017 0 0M22.5 24.8c-.195.805-.266.048 0 0m4.88.473c-.007.293-.437-.388 0 0m16.376.158c-.024.081-.047-.327 0 0m-1.546.16c-.704.122.328-.485 0 0m-1.481.03c.239.459-.325-.553 0 0m1.547.185c.333-.568-.222.39 0 0m-2.983.247c-.18-.11.521-.294 0 0m-9.045.035c-.572.119.053-.648 0 0m-13.973-.054c.219-.025-.022.281 0 0m1.318-.148c.437-.064 0 .4 0 0m6.762.124c-.018.046-1.011-.069 0 0m-5.542.032c.075-.346.296.043 0 0m-2.865-.37c.484.199-.695.82 0 0m1.445-.112c.046-.007.179.44 0 0m12.141-.175c.426.435-.296-.062 0 0m-8.451.167c-.147.637-.295-.202 0 0m14.5.163c-.133-.007 0-.299 0 0m-9.528.11c.029-.346.329-.08 0 0m14.835-.141c.475-.116-.245.505 0 0m-11.165.146c-.473-.007.448-.111 0 0m-13.995-.437c-.105.231-.029-.006 0 0m1.554.14c-1.109.489.198-.619 0 0m6.016.577c0 .256-.014-.169 0 0m6.833.026c.07.264-.405.019 0 0m-9.091.061c-.205.293-.64-.118 0 0m-2.604.163c-.023.041-.087.04-.136.056.009-.111.081-.124.136-.056m-2.081-.103c.258.035-.032.43 0 0m-.145.176c0-.085.167-.09 0 0m-.073-.204c.235.165-.261.369 0 0m5.313.496c.021.248-.224-.027 0 0m3.661.131c-1.042.044.461-.02 0 0m-7.338-.125c.038.321-.17-.046 0 0m-1.863-.085c.14-.023-.113.423 0 0m.733-.063c.003-.079.109-.073.147-.031-.012.121-.101.083-.147.031m4.162.08c-.058-.03.4-.393 0 0m-4.593.265c.227-.84-.141.557 0 0m5.121.17c.641-.615 0 .88 0 0m5.936.404c.588.06 0 .957 0 0m4.853.418c-.493.022.023-.174 0 0m.627.056c-.134-.064.285-.298 0 0m-15.195.036c-.07.02-.021-.232 0 0m6.716-.064c-.068-.025.158-.482 0 0m-6.379-.167c.227.309-.458-.035 0 0m-7.342.021c.004-.016.025-.105.034-.105.658-.022-.034.001-.034.105m5.606-.313c.036.092-.122.035 0 0m3.243.245c.049.347-.41-.055 0 0m-.962-.12c.174-.016.021.105 0 0m-3.23-.099c.618.177-.612.438 0 0m-.176-.559c.998-.084-.395.601 0 0m4.333.351c-.062.012-.197-.325 0 0m-3.453-.382c-.151 1.048-.148.001 0 0m-3.405.359c-.212.039-.169-.104 0 0m2.059.018c0-.52-1.031-.363-.938-.397h1.033c-.457 0 .36.819.313.819a.415.415 0 0 1-.408-.422m-4.54.065c.26.26-.324-.065 0 0m3.388-.06c.225.263-.297-.035 0 0m-1.288.116c.008-.178.496-.019 0 0m.817.056c-.082.107-.237.08 0 0m.477.129c.006-.453.447-.01 0 0m13.133.46c-.301.484-.116-.126 0 0m5.871.325c-.439-.159.5-.49 0 0m1.745-.222c-.362.266 0-.682 0 0m-5.726-.725c-.001.017-.355.061 0 0m-.79.056c-.251.052-.055-.373 0 0m-3.145-.841c-.006.026-.041.091-.072.089a.64.64 0 0 1 .059-.09 1.33 1.33 0 0 1-.141-.028c-.695-.865.713.087.154.029m5.407-.357c.239.51-.896.023 0 0m4.479.318c1.028.186-.87-.151 0 0m4.082-.011c.37-.139.055.055 0 0m-.136-.084c-.001.007-.358.004 0 0m-3.607-.067c.253-.013-.044.325 0 0m-7.734-1.8c.999.544-.428.335 0 0m6.063.061c.394-.058.114.418 0 0m-5.246-.005c0 .224-.261-.016 0 0m-4.646-.243c-.694-.014.389-.015 0 0m-.323.062c-.269-.063.218-.217 0 0m8.72-.622c.641-.615 0 .879 0 0m-16.227-.455c-.516.019.191-.011 0 0m-2.742-.042c.135.034.135.075 0 0m-.703-.149c-.073.503-.294.424 0 0m3.653.111c-.016-.28.333-.036 0 0m.301-.083c-.223-.219.004-.053 0 0m3.08-.223c.24.032.077.755 0 0m-6.87 0c-.105.116-.287-.054 0 0m7.04.072c.004-.016.025-.105.034-.105.658-.022-.034.001-.034.105m.764-.133c-.065.3-.146.007 0 0m1.192-.385c-.212.039-.169-.104 0 0m-5.856-.46c.215-.742.384.337 0 0m.205-.467c.006-.453.447-.01 0 0m-1.294-.185c.009-.178.496-.02 0 0m5.159-1.891c-1.109.49.197-.618 0 0m-1.554-.139c-.106.231-.03-.006 0 0m-1.666-.053c.053-.084.177.018.235.031-.034.127-.209.039-.235-.031m-.412-.09c.495-.106-.14.355 0 0m.326.027c-.072-.035-.04-.339 0 0m.877-.154c-.146-.036-.117-.062 0 0m19.066.008c-.293.048.093-.35 0 0m-6.462.715c.12.567-.146-.563 0 0m-.633.217c-.096-.565.508.062 0 0m-2.416.032c-.366-.386.174-.18 0 0m-1.906.03c-.024.001-.118-.445 0 0m-6.247-.295c-.154.043.041-.326 0 0m1.136-.27c.045-.007.178.439 0 0m5.287.038c-.735-.25.008-.332 0 0m-3.137-.342c.404.019-.191.463 0 0m-2.041-.03c.676-.081-.025.215 0 0m3.742.061c.382-.423-.099.311 0 0m7.37-.063c-.031-.022-.019-.228 0 0m-2.257.093c-.27.042.07-.344 0 0m1.386.073c-.141.595.031-.474 0 0m-.196.208c-.331.263-.254-.564 0 0m-7.106.062c.968-.414-.185 1.115 0 0m-1.725.312c.259.214.151.351 0 0m-2.441.062c.218-.025-.022.281 0 0m1.759-.062c.189.167-.032.151 0 0m.779.069c.074-.345.295.044 0 0m-1.22-.155c.437-.064 0 .4 0 0m.709.529c.009-.11.081-.124.136-.056-.024.042-.088.041-.136.056m.25-.025c-.553-.543.314-.381 0 0m-2.611-.117c-.804-1.322.489-.29 0 0m-.85-.404c-.134.164-.079-.011 0 0m-.558.372c-.947-.355.178-.232 0 0m.624-.263c.449-.969.283.958 0 0m1.2.279c.257.035-.032.43 0 0m-.355.111c.019-.233.491.077 0 0m.282-.036c.192.058-.288.2 0 0m1.723.197c.106-.023.13.094 0 0m-1.216.023c-.012.12-.101.083-.147.031.003-.079.109-.073.147-.031m2.267.06c0-.05.018-.274.378-.35.252 0 .424-.171.647-.156-.174.212-1.025.775-1.025.506m1.402-.362c-.049.328-.906-.172 0 0m.959.124c-.147-.035-.117-.062 0 0m2.756-.185c0 .159-.679.404 0 0m1.232.402c-.033-.314.241.031 0 0m2.299.279c-.536-.043.158-.769 0 0m.378.068c-.002-.021-.019-.061-.068-.129 0 .095.048.151.064.145-.054.111-.457-.669-.022-.208a.575.575 0 0 1 .026.192m2.109-.103c.039.182-.295.016 0 0m7.012.191c-.296-.053.029-.236 0 0m-12.157.112c-.188-.072.047-.212 0 0m3.332-.081c.686.619-.266.468 0 0m1.788.217c.044.457-.24-.082 0 0m5.477.175c.363-.161.255.017 0 0m-2.427.043c.205-.16.187.029 0 0m-2.752-.016c.13.245-.25-.029 0 0m-11.307-.255c.869.095-.228.347 0 0m-3.248-.296c-.151 1.048-.148.001 0 0m3.002.073c.105-.032-.005.101 0 0m2.272-.127c-.563-.177.592-.296 0 0m5.776.125c-.292-.383.068-.091 0 0m-4.72.124c-.252.028 0-.311 0 0m-.587.093c-.084.018-.128-.126 0 0m-.557.28c-.948-.356.177-.233 0 0m1.319-.529c.447-.015-.05 1.287 0 0m-1.788-.373c.053-.084.177.018.234.032-.033.126-.209.038-.234-.032m-.245-.038c.158.215-.334-.334 0 0m4.625.131c-.076.015-.217-.3 0 0m.165.001c-.045-.002-.13-.383 0 0m-9.115.053c-.166.191-.392-.052 0 0m.155.19c.227-.84-.14.556 0 0m2.656.875c-.506-.545.739-.014 0 0m.739-.301c-.371.089-.037-.143 0 0m-3.451-.013c.038.093-.124.035 0 0m2.362.32c-.595-.322.244-.605 0 0m-.763.139c.286-.319.148.008 0 0m5.452-.114c.003-.079.109-.073.147-.031-.012.121-.101.083-.147.031m-1.642.063c-.273.349-.19-.101 0 0m.909 0c.14-.022-.113.423 0 0m3.274.053c.676-.081-.024.215 0 0m-1.764-.005c.83.814 0 .219 0 0m-4.342.311c-.411.064.225-.326 0 0m3.448-.204c-.92.368-.003-.059 0 0m-6.191.058c.018-.261.029.08 0 0m3.424.007c-.123-.741.727.379 0 0m1.594.276c-.497-.043-.382-.1 0 0m.557-.217c-.151 1.048-.148.001 0 0m1.818.289c-.598-.088-.01-.011 0 0m-1.554.271c-.092.085-.303.111 0 0m1.648.217c.234.165-.261.369 0 0m.299.223c-.405-.177.222-.269 0 0m2.597-.172c.139.293-.371.014 0 0m1.683.041c-.065-.423.761-.072 0 0m5.307.063c.071.323-.377-.007 0 0m-6.726.062c.148-.097.164-.107 0 0m5.26.093c-.36-.04-.203-.579 0 0m-3.753.124c-.058-.03.401-.393 0 0m7.447.497c.219-1.29.367.011 0 0m-.162.016c-.031-.02-.487-.39 0 0m-2.899-.399c-.294.695.161-.417 0 0m-3.828.072c.074-.365.162.053 0 0m-3.59-.118c.038.321-.17-.046 0 0m-7.974-.129c.429-.463-.049.765 0 0m1.495-.187c-.133.115-.187.162 0 0m3.017.204c-.081.364-.238-.038 0 0m-2.782-.017c.215-.741.383.338 0 0m2.491.435c-.031-.023-.019-.228 0 0m5.307-.094c-.292.049.093-.349 0 0m10.391-.715c.351.233.035.345 0 0m-1.231 0c.161.176-.46.44 0 0m-12.07-.171c-.082.017-.117-.11 0 0m-.164.028c-.122.145-.075-.01 0 0m.102.061c-.228.026.034-.282 0 0m.304-.197c-.106.009-.172-.231 0 0m-1.503.029c.449-.969.283.958 0 0m11.048-.327c.098.207-.032-.064 0 0m-8.812-.091c.045-.007.178.439 0 0m-5.476-.384c.277-.098-.288.085-.288.087-.535-.787.123-.872.175-1.096.034.128.535 1.009.113 1.009m19.159-.198c-.172-.051.267.071 0 0m-13.067.07l-.026-.104.026.104m3.936-.129c0 .001-.916 0 0 0m-3.79-.058c.077.09.13.15 0 0m-1.612-1.118c-.007-.057.005-.085.024-.098-.213.14.014-.186.124-.095a1.333 1.333 0 0 1-.112.085c.073-.021.205.136-.036.108m4.997-.777c.344-1.284.434 1.045 0 0m4.422-.215c.018-.039.17-.226.17-.091 0 .129-.17.214-.17.091m3.753.107c.142-.506.371.408 0 0m-4.657-.078c-.015.179-.328.344 0 0m3.217.052c-.099.539.044-.316 0 0m.316-.343c-.378.136.342-.135 0 0m-.338-.207c-.242.669-.045-.005 0 0m-23.699.051c.021.051.002.021 0 0m5.39.104c-.485.134-.192-.341 0 0m-7.273.894c-.105.232-.029-.006 0 0m-.709-.167c-.271.19-.329-.02 0 0m-1.69.056c.491.158-.043.263 0 0m4.503-.416c.066.036 1.322 1.143.578 1.143.237-.16-.276.125-.276.064a1.47 1.47 0 0 1-.302-1.207m-1.913.945c-.014.122-.434-.22 0 0m1.934-.222c-.371.088-.036-.143 0 0m-.651-.01c.649.174-.742.078 0 0m-6.981.595c.043.188-.246.056 0 0m5.261.083c-.564-1.434.234-.116 0 0m2.406.086c-.41.064.225-.326 0 0m.564-.334c.808 0 1.398.16 1.48.28.746-.028-.301.501-.147.108a1.788 1.788 0 0 1-.316.022h.001c-.362 0 .468.409.312.409h-.205c-.044 0-1.162-.832-1.125-.819m1.506 1.186c-.007-.694.295.029 0 0m-6.413-.241c.245-.052-.015.334 0 0m2.578.053c-.064.3-.146.007 0 0m4.539.782c-.106-.885.429.297 0 0m-6.079-.055c.283.11-.198.193 0 0m-6.652.111c.312.09-.006.026 0 0m.545-.083c.033.239-.306-.034 0 0m17.665.498c-.512-.908-.166-.472 0 0m-2.643-.248c.008-.178.496-.019 0 0m1.294.186c.006-.454.447-.011 0 0m-2.739.929c-.1-1.251.432 0 0 0m-8.779-.111c.203-.258.19.137 0 0m8.51-.042c.262.312-.561.004 0 0m-9.294.248c.164.116-.009.084 0 0m8.363.184c-.435-.255.241-.232 0 0m-6.558.562c.189.167-.032.151 0 0m.19-.126c-.044.618-.341-.461 0 0M4.94 25.676c-.244-.003.257-.138.257-.094 0-.006.593.088-.257.094m6.983-.055c-.147-.357 1.375.574 0 0m-2.755.237a.31.31 0 0 1-.032-.004c.019-.025.032-.029.032.004m5.99.12c.449-.968.283.958 0 0m-2.562-.008c.869.095-.228.347 0 0m-9.522.092c-.393.067.083-.312 0 0m4.922-.12c-.105.304-.025-.006 0 0m5.002.317c-.217.041-.096-.063-.01-.053-.003-.089.047-.144.196-.12 1.029-.668.089.409.418.409.434.067-.34.012-.34.24-.091-.109-.23-.322-.264-.476m-10.251-.016c.327.184-.213.229 0 0m3.06.099c.234.25-.433.074 0 0m10.081 1.889c-.225-.243.49.028 0 0m1.151.033c-.987-.174.243-.635 0 0m-6.467-.005c.783.162-.003.014 0 0m21.224-.088c.486.512-.226.279 0 0m2.791.34c-.036 1.005-.812-.407 0 0m3.37-.006c.348-.127-.05.322 0 0m-2.769.278c.831-.113-.337.069 0 0m2.688.224c-.351-.066-.098-.571 0 0m4.686.219c.035-.698.548.467 0 0m1.311.004c1.114.348-.356.646 0 0m-6.241.399c.4.023-1.001-.058 0 0m-.993-.093c.074.207-.046.39 0 0m3.372.187c.12.822-.633-.151 0 0m4.489.008c.207.113-.01.199 0 0m-.163.112c-.048.412-.396-.232 0 0m-1.663.139c-.131.21-.237-.186 0 0m.899.083c.026.247-.188-.009 0 0m.982.056c.118.02-.113.586 0 0m-6.952-.056c.533.07-.114 1.118 0 0m7.17.529c.202.051-.241.264 0 0m-4.852.307c.12-.201 0 .572 0 0m1.094.01l.052-.008.08-.013-.132.021m3.189.023c.637.112.509.484 0 0m-4.665.358c-.43-.507-.253-1.248 0 0m1.172.083c-.295.385-.318 0 0 0m1.336.084c.054.389-.368.005 0 0m-2.235.167c.123.166-.836.966 0 0m1.564.333c-1.435-.182-1.42-.185 0 0m1.162.057c.309.078-.474.268 0 0m-.164.251c-.286.241-.266-.352 0 0m-1.094.053c.271.178-.295-.193 0 0m-1.357.168c.125.076-.648.886 0 0m1.553.062c.569-.06-.219.551 0 0m1.476.168c.183-.14-.186.148 0 0m1.369-.009a1.57 1.57 0 0 0-.189.248l.104-.314c.011.056.04.078.085.066m-5.102.058c.687.171-.542.62 0 0m-14.943.433c.198.161 0 .166 0 0m.245.168c-.14-.032-.131-.13 0 0m.345.006c.142-.012.242.126 0 0m7.933.046c.053-.03.26.507 0 0m3.342.031c.031.132.02.197 0 0m4.87.042c.324-.091-.233.319 0 0m-7.04.175c.247-.181 0 .449 0 0m1.906.125c-.084.617-.627-.162 0 0m4.78.285c-.199.446-.463-.578 0 0m2.461-.161c.192.128-.122.194 0 0m-5.365.248c.09.014-.061.311 0 0m-.74.35c-.459.45-.564.688-.286.769-.351 1.048-.441-.188-.463-.548.024-.305.15-.463.815-.461.039 0-.066.194-.066.24m3.438.085c.075.108.162.231 0 0m-2.111.249c.302.052-.121-.02 0 0m.511.138c-.385.918.468-1.162 0 0m1.424.577c.542.568-.275.015 0 0m-4.771.158c-.05.388-.311-.223 0 0m-1.227.027c1.364.003-.082.391 0 0m1.462.199c-.476.102.314-.067 0 0m1.78-.012c-.245.76-.245.142 0 0m-5.041.259c.092-.016 0 .287 0 0m-.417.312c.01.303-.109-.134 0 0m3.798.19c-.527-.103.146-.377 0 0m.654.056c.332.355-.45.263 0 0m2.335.226c-.167.24-.068.005 0 0m-1.183.48c-.795-.621.167-.024 0 0m3.073-.233c.287.298-.605.206 0 0m-1.685.233c-.032-.312.293.039 0 0m-.401.001c-.303.102-.119-.017 0 0m.225.03c.234.25-.432.074 0 0m1.234.266c-.431.685-.423-.542 0 0m.525-.125c.06.015-.054.39 0 0m.061.359c.039.236-.304-.034 0 0m-2.544.211c-.205.863-.631.631-.715.629.08-.202.751-.797.715-.629m2.586.035c.076.138-.395.307 0 0m-2.063.409c.169.921-1.201.033 0 0m-2.741.554c.561-.596-.119.831 0 0m2.823-.025c1.067-.43 0 .689 0 0m-.691.309c.355-.476 0 .579 0 0m-7.292.306c-.25.03.045-.313 0 0m-.327.255c.205-.51.12.017 0 0m3.066-.198c.51.219 0 .209 0 0m1.772.975c-.684-.103.561-1.909 0 0m2.109-.755c.337.06-.049.407 0 0m.518.279c.143-.219.921.034 0 0m-8.319.33c.513-.135-.274.592 0 0m-5.676.313c.536-.56-.267.591 0 0m-1.908-.112c.055-.105.433.056 0 0m1.332-.325c.184-.027.155.098 0 0m6.079.032c-.286.085.038-.056 0 0m-6.666-.001c.306-.008-.064.356 0 0m1.929.169c.677.059-.59.164 0 0m-.902.07c-.242-.355.004-.1 0 0m6.223-.085c-.268-.26.397.051 0 0m-5.787-.111c-.017.106-.208.025 0 0m7.428-.106c-.052-.089-.014-.174 0 0m-3.078-.124c.112-.014.037.407 0 0m-1.383-.049l.001.008-.013.008c-.069-.009-.098-.164.012-.016m2.458-.111c-.245-.008-.138-.026 0 0m.508-.167c-.126.295-.091.007 0 0m-8.335.173c.121-.608.303.321 0 0m-4.338-.155c-.056.108-.441-.412 0 0m9.647-.112c-.393.067.085-.311 0 0m2.395.015c-.066.154-.017-.275 0 0m-8.329.135c-.223.069.072-.321 0 0m-2.807-.084c-.015.339-.337-.251 0 0m2.377-.11c.277-.035.027.314 0 0m2.727-.155c.363-.029-.286.313 0 0m-4.75.098c.1-.066.088.012 0 0m2.78 0c.407-.119-.074.233 0 0m8.311-.131c-.167.241-.068.006 0 0m-3.893-.036c.145.208-.669.242 0 0m-6.285-.1c.175-.175-.236.239 0 0m-1.763-.018c.333.1-.006.03 0 0m-6.184.006c-.472.191-.335-.283 0 0m7.525-.055c-.289-.219.232-.222 0 0m1.012-.376c.364.069 0 .517 0 0m.755.146c-.49.037.381-.405 0 0m3.048-.195c.006-.358 0 .253 0 0m-.099-.216c.119-.02-.287.341 0 0m10.66 0c.369.094-.34.717 0 0m-7.852.752c-.996-.041 1.309-.407 0 0m-4.276-.36c-.158-.357.28.632 0 0m-2.156.267c.624.083 0 0 0 0zm1.47.037c-.077.047-.04-.695 0 0m8.07-.306c-.364.062.022-.11 0 0m-5.425.195c0-1.086.044-.006 0 0m7.47-.585c-.922.284-.483-.127 0 0m-7.416-.139c.238-.158.052.361 0 0m-3.707-.028c-.32-.314.689-.246 0 0m1.561-.168c-.012-.276.045-.094 0 0m-1.07-.195c.404.028-.036.29 0 0m4.612-.042c.042.136-.054.081 0 0m1.848.015c.169.214-.01.219 0 0m-6.348.209c-.555.275-.047-.021 0 0m12.319-.182c.387.004-.286.633 0 0m1.881.363c-.202-.08.044-.328 0 0m1.209-.225c-.07-.153.275-.02 0 0m-1.475-.084c-.027.614-.406-.02 0 0m-16.083-.636c.368.083-.241.629 0 0m3.166.311c-.16-.076-.333-.763 0 0m1.761-.417c-.205.155.227-.173 0 0m1.826.02c.01-.129.125-.151.218-.195-.072.065-.073.204-.218.195m3.965-.024c-.124.031-.146-.116 0 0m7.632-.045c.112-.014.037.407 0 0m-11.488.208c.299-.076-.086.39 0 0m3.407-.111c-.009.065-.018.13-.109.111.003-.071.04-.108.109-.111m-4.822.321c-.093-.606.72.13 0 0m-8.001.081c.32-.285.036 0 0 0m2.29-.282c.265.009-.178.501 0 0m-1.787.028c.076.138-.395.308 0 0m7.357.345c-.026-.002.041-.433 0 0m-.264.062c-.279.081.037-.323 0 0m-6.098-.124c.268.327-.274-.097 0 0m2.033.141c-.22-.178.005-.119 0 0m18.106-.374c-.053.284-.053 0 0 0m.12-.107c-.286.085.038-.056 0 0m-3.045.243c-.292-.455.547-.247 0 0m-11.819-.587c.053.013-.28.871 0 0m-8.545.263c-.048-.13.324-.078 0 0m-3.599-.429c.873-.316-.099 1.03 0 0m5.563.087c.007-.049.251-.101 0 0m-1.436.311c.003-.079.109-.073.147-.031-.004.079-.11.073-.147.031m1.5-.063c.254-.332-.163.226 0 0m-2.287-.069c.016-.309.289-.188 0 0m-.006-.009c-.019.3-.046-.008 0 0m2.916-.246c.064.574-.284.043 0 0m5.572.125c-.285-.264.009-.16 0 0m-2.199-.435c-.009 0 .067-.341 0 0m4.444-.007c-.265-.278.323.039 0 0m-1.161.1c.164-.141.119.015 0 0m5.353.045c-.149.026-.286-.242 0 0m6.889-.077c.239.51-.896.022 0 0m-2.003.127c.678-.02.742.473 0 0m-9.37.079c-.127.371.064-.195 0 0m-1.835.172c.301-.048-.226.319 0 0m12.214 0c-.256-.105.162-.55 0 0m-1.212-.503c.393.059-.183-.024 0 0m-4.126.109c-.049-.301.445-.067 0 0m-7.682-.45c.053-.03.26.507 0 0m-.75.032c.163.044-.054.252 0 0m.387.13c-.213.048-.005-.047 0 0m-14.537-.325c.143-.219.92.035 0 0m-.519-.279c.338.061-.049.407 0 0m2.536-.027c.243.597-.258-.071 0 0m7.819.041c-.732-.367.323-.096 0 0m-.927-.084c-.055-.445.252.079 0 0m-.354-.892c-.033.501-.329-.356 0 0m-.969-.135c.039.236-.304-.033 0 0m-2.114.108c-.047-.13.325-.078 0 0m6.262.033c.325-.68.066.503 0 0m.568-.112c.033-.215.518.065 0 0m1.854.056c-.004.014-1.01-.089 0 0m1.145-.167c.703-.168-.244.726 0 0m3.395.022c-.015.288 0-.172 0 0m-2.099.168c-.244.056-.136-.368 0 0m8.272.048c-.007-.397.246.012 0 0m-1.877.062c-.082.018 0-.233 0 0m-6.558.028c-.101.755-.717-.23 0 0m11.459.187c-.467-.033.061-.379 0 0m-.546.111c-.225-.039.369-.348 0 0m-1.482-.015c-.117.02-.218-.279 0 0m-7.761.326c-.025.078-.926-.512 0 0m-7.602-.031c.045-.213.095-.086 0 0m1.056-.155c.022.176-.401.086 0 0m-1.41-.058c.073-.196-.075.206 0 0m-3.017-.1c-.443-.699.628.556 0 0m.497-.265c.075.138-.394.308 0 0m1.209-.036c.156-.002.107.614 0 0m3.616-.075c-.348.492-.18-.007 0 0m3.251.348c.073-.55.376-.01 0 0m-7.149.125c-.214-.172.006-.125 0 0m2.211-.188c.153.094-.077.252 0 0m.381.218c-.475-.238.158-.187 0 0m1.088.054c.01-.065.018-.13.109-.111-.003.07-.039.108-.109.111m2.902-.161c.148.21-.427.304 0 0m-4.371.48c0 .011-.401-.013 0 0m17.672.062c-.152-.062-.15-.297 0 0M31.061 36c-.012.1-.142.079-.246.084.016-.095.159-.061.246-.084m-17.339.391c-.257.117-.76-.299 0 0m1.145-.224c-.506.433-.121-.002 0 0m3.745.33c-.173-.315.181.318 0 0m11.489-.219c-.228 1.019-.444-.947 0 0m-.458-.361c-.332.024-.027-.229 0 0m-2.423.406c.013 0-.035-.128-.035-.14v-.044c0-.837-1.719 1.03-.192-.59.358.517 1.136.515.227.774m8.015-1.074c.098.088-.39-.35 0 0m-.558-.199c-.49.063.216-.04 0 0m-1.878-.046c.594.288-.172.413 0 0m-13.462.049c-.572-.615.516.052 0 0m-1.808-.159c.361-.097-.271.285 0 0m-4.649.117c.016-.309.289-.188 0 0m-.738-.304c.112-.013.037.408 0 0m-2.147-.109c-.443-.699.628.556 0 0m.496-.265c.076.138-.395.307 0 0m1.914.282c-.1-1.002.286.045 0 0m-1.706-.328c-.393.067.083-.312 0 0m-2.363-.092c-.048-.13.324-.078 0 0m-.264-.172c-.02.3-.047-.008 0 0m.006.009c.015-.309.288-.187 0 0m2.222-.179c.007-.049.251-.101 0 0m20.079.364c-.234-.016-.228-.26 0 0m4.761.01c-.244-.035-.292-.1 0 0m1.346.018c-.816-.168.655-.199 0 0m-10.267-.042c.583.85-.255-.019 0 0m3.178.126c.461-.162-.335.395 0 0m3.217.139c-.117.29-.029-.009 0 0m1.172.195c-.47-.139.649-.47 0 0m-1.134 0c.057.461-.582.09 0 0m-16.813-.409c.851.01 0 1.168 0 0m4.102.061c-.279.028-.421-.146 0 0m3.199.143l.038-.004.018-.002a9.923 9.923 0 0 0-.056.006m.778.149c.049-.247.295-.037 0 0m.655-.083c-.493-.21.184-.391 0 0m-2.042-.265c-.389.027.371-.158 0 0m-6.146-.117c.125-.025.145.098 0 0m-.922-.082c-.603.43.258-.194 0 0m-2.061-.005c-.166.241-.067.006 0 0m-2.951.051c.029-.041.014.132 0 0m.902-.126c.07.263-.406.018 0 0m7.735.111c.169-.027-.185.041 0 0m1.304-.004c-.729.019.289-.322 0 0m-1.145-.223c.326-.01 0 .245 0 0m.871.142c-.011-.197.075 0 0 0m-5.015.826c.007-.049.251-.101 0 0m.709.036c-.72-.021-.279-.014 0 0m2.281-.53c.216.226-.225 1.056 0 0m17.45.333c-.572-.066.508.059 0 0m-.263.006c.269-.089-.156.068 0 0m1.683-.595c-.384-.219.147.082 0 0m-13.872.06c-.28-.069-.021-.172.121-.18-.023-.107.131-.276.117.064-.025.002-.039-.003-.056-.008a.662.662 0 0 1-.182.124m-11.624-.211c-.572.119.054-.648 0 0m-.523-.258c-.472-.007.449-.111 0 0m2.07-.208c.364.087 0 .336 0 0m11.358-.103c.121.15-.145.66 0 0m.79.167c.28.279-.448-.056 0 0m4.411.015c-.144.406-.447-.041 0 0m.288.144c.056-.064.142-.062.191 0-.017.059-.168.026-.191 0m.409-.112c.129.081-.029.232 0 0m-7.997.077c.388.381-.379.006 0 0m-1.309-.152c-.068-.039.046-.28 0 0m2.412.146c-.098-.373.308.066 0 0m-.311.037c-.03-.276.266.019 0 0m-2.728-.127c-.247-.174.007-.128 0 0m-.245 0c.054.085-.593.431 0 0m-.663.251c-.261-.879.055-.012 0 0m-2.626-.25c-.134-.007 0-.299 0 0m1.717.095c-.076-.006.026-.462 0 0m-7.876-.258c.182-.156.293.228 0 0m-3.041.241c-.1-1.002.285.045 0 0m-1.707-.328c-.393.067.085-.312 0 0m12.709-.163c.326.175-.147.155 0 0m3.123-1.454c-.536-.476.047-.35 0 0m-5.511-.152c-.025-.13.954-.381 0 0m-6.99-.15c.038.321-.17-.046 0 0m-.058-.181c-.017.659-.281-.611 0 0m-4.326-.674c1.451 1.442-1.601.236 0 0m2.039.047c.146.283-.765-.173 0 0m2.163-.037c.707-.104 0 .392 0 0m1.337 0c.267.318-.475-.022 0 0m5.043 0c1.134-.126-.452.496 0 0m4.831.088c-1.36-.532-.256-1.211 0 0M5.66 30.004c.515.014-.415.507 0 0m1.522.047c-.106.231-.029-.006 0 0m1.172-.028c.192-.15.851.526 0 0m6.444.133c-.192-.015.174-.845 0 0m2.051-.341c-.21-.237.011-.121 0 0m-6.134-.139c0 .227-.392-.041 0 0m8.532-.047c-.393.067.084-.312 0 0m2.674-.076c-.08.011-.034-.335 0 0m4.123-.045c-.111.016-.141-.136 0 0m2.209-.112c-.03.178-.43-.08 0 0m-6.498.483c-.303.101-.118-.017 0 0m-.801.078c-.101-1.002.285.045 0 0m3.547-.311c.253-.014-.045.324 0 0m-2.345.232c-.034-.312.294.038 0 0m2.006-.071c1.028.186-.87-.151 0 0m1.446.231c.968.023-.249.29 0 0m-1.957.136c.007-.049.251-.101 0 0m-2.961-.125c.112-.013.037.408 0 0m.738.304c.016-.309.289-.187 0 0m9.769-.037c-.069-.039.045-.28 0 0m1.308.152c.387.381-.378.007 0 0m-1.935-.096c-.248-.174.007-.128 0 0m2.727.127c-.029-.276.267.019 0 0m-2.973-.127c.055.085-.593.43 0 0m-.663.251c-.261-.879.055-.012 0 0m-8.296-.133c-.215-.186.166.139 0 0m.322.026c-.048-.129.324-.078 0 0m2.113-.108c.039.236-.304-.033 0 0m-6.461.14c.213.076-.056.189 0 0m.872.084c-.002.016-.356.06 0 0m11.432.158c-.359-.164-.076-.202 0 0m3.888-.135c.124.133-.037.194 0 0m-.208.302c-.481-.119.634-.34 0 0m3.511-.023c.162.327-.064-.118 0 0m1.396.358c-.491.267-.838-.011 0 0m-1.796-.296c.439.819-.115.476 0 0m.733.574c-.221 0 .184-.267 0 0m-14.976.009c-.437-.16.5-.491 0 0M9.89 31.018c-.023.041-.088.04-.136.056.009-.111.081-.124.136-.056m-2.299-.131c.235.165-.261.369 0 0m.073.204c0-.085.167-.09 0 0m14.638-.358c-.114.26-.03-.006 0 0m1.036.175c.481-.427.254.275 0 0m7.123-.202c.008-.008.478.475 0 0m-3.735.279c.041.145-.316-.076 0 0m-1.03-.111c-.603.43.257-.192 0 0m-2.769.092c.094-.65.626.606 0 0m-.409.195c-.133-.064.286-.298 0 0m-.594-.028c.032.004.028.005.002.003.016.017.028.051.025.125-.157.034-.121-.091-.07-.128a1.426 1.426 0 0 1-.235-.028c.118.011.193.018.24.024l-.005.004a.437.437 0 0 0 .045.003l-.002-.003m1.111.128c.674-.489.024.799 0 0m7.044.281c.319-.228.242.026 0 0m4.116-.167c.182-.124.185-.027 0 0m-7.252-.167c.83.569-.888.261 0 0m-9.904-.521c.587.06 0 .956 0 0m-9.23.117c-.228.026.034-.282 0 0m2.046-.011c.011-.08.298-.123 0 0m-.141-.087c-.122.146-.075-.009 0 0m4.608.557c.093-.101.154.063.272.028-.073.176-.146-.077-.272-.028m-1.418.12c.021.248-.224-.027 0 0m3.043-.065a1.33 1.33 0 0 1-.141-.028c-.695-.865.713.087.154.029-.006.026-.041.091-.072.089a.64.64 0 0 1 .059-.09m4.479.175c.185-.356.051.015 0 0m.38.017c.375-1.503.348-.004 0 0m9.061.077c.3.276-.16.196 0 0m9.127.178c-.123.548-.412-.441 0 0m-2.12.443c-.173-.132-.087-.612 0 0m-2.679.198c-.435-.06.231-.607 0 0m5.616.112c-.159-.02-.193-.355 0 0m-9.568-.056c-.004.07-.04.108-.11.111.01-.065.018-.13.11-.111m-3.79.027c-.213-.172.006-.125 0 0m2.124-.125c.357.008-.016.143 0 0m.469.155c-.475-.238.157-.187 0 0m-2.985-.106c-.032.025-.355-.852 0 0m-3.935-.158c.227.151-.43.246 0 0m8.226-.239c-.349.492-.18-.007 0 0m-1.013.224c-.568.302-.103-.634 0 0m7.168-.362c-.204 0 .297-.005 0 0m-2.012.11c-.244.057-.136-.367 0 0m-11.513-.381c.427.247-.015.284 0 0m-1.163.489c.326-.136.125.083 0 0m.618.207c-.216-1.136.116.018 0 0m-.219.307c.09-.668.348.75 0 0m6.183.095c.045-.213.094-.086 0 0m9.496.189c.019.005-.565.053-.475.06 0 .075-2.359-.618.475-.06m-10.163.097c-.732-.366.323-.095 0 0m-1.536-.088c.423-.067 0 .078 0 0m-2.017-.237c1.104.247-.522.415 0 0m2.681.074c.06.008-.099.376 0 0m.355-.083c.024 0 .101.32 0 0m1.301.141c.056-.019.189.314 0 0m3.087.054c.249-.2.123.09 0 0m-.79-.14c-.202.481-.959.105 0 0m-1.124-1.125c-.068.121-.234.036-.352 0 .061-.17.196.068.352 0m8.649-.311c-.484 0 .467-.175 0 0m-1.31-.096c.737-.648.038.718 0 0m-1.635-.836c.279.279-.448-.056 0 0m-.872.306c-.682-.46 1.036-.618 0 0m-2.692-.586c-.686-.044 0-.732 0 0m6.808-.11c.733.115-.068.38 0 0m3.19.266c.288-.003.092.354 0 0m-.982-.017c.273.504-.202-.356 0 0m-.367-.076c-.216-.26.341.022 0 0m2.932-.373c.081-.018.078.314 0 0m-1.29 0c-.583.804-.005-.001 0 0m-9.851-.498c-.363-.401.502.095 0 0m9.203.029c-.007-.378.247.029 0 0m-2.481.111c-.338-.472.486.086 0 0m-4.252.308c-.478.135-.569-.362 0 0m4.742-.137c.143-.229.155-.025 0 0m-7.032-.143c.089-.667.347.751 0 0m-1.171-.835c0 .223.27.583.435.585-.711.633-1.254.833-1.254.25 0 .222.819-.144.819-.835m-11.542.789c.055-.067.295-.081 0 0m-4.389-.148s-.436.017 0 0m-1.577-.13c.335.561-.745-.076 0 0m-8.929.096c.143-.219.92.035 0 0m-.518-.279c.337.061-.05.407 0 0m2.535-.027c.243.597-.258-.071 0 0m.877-.017c-.121.189-.641.186 0 0m1.248.112c.328-.325-.162.162 0 0m.823-.168c.147-.01-.163.34 0 0m9.602.087c-.531.032.085-.568 0 0m.11-.111c0 .414-.133-.006 0 0m5.831.107c-.134-.007 0-.299 0 0m4.919-.172c-.024.174-.392.186 0 0m-2.59.195c-.363-.057.17-.446 0 0m-19.48.089c.031-.01 0 .272 0 0m2.917.083c-.619-.103.271-.398 0 0m3.505.036c-.694-.015.389-.015 0 0m-.352-.093c.121.004-.039.324 0 0m16.6-.31c.122-.144.076.01 0 0m-.476.031c.42-.444-.105.677 0 0m-4.159-.17c-.022.061-.055.111-.136.111.031-.052.032-.134.136-.111m-12.786.014c-.27.042.069-.344 0 0m2.169-.124c.086-.15.194-.008 0 0m1.157-.113c.058-.016.113.251 0 0m16.684.223c-.007.163-.733-.397 0 0m-16.311-.131c-.008.293-.437-.388 0 0m-8.676.303c.22-.261.16.158 0 0m1.009.056c-.435-.255.241-.232 0 0m2.181.835c.431.013 0 .004 0 0m4.516-.046c.039.328-.181-.048 0 0m-7.224.278c.676-.081-.025.215 0 0m-5.938-.103c.079-.012.186.245 0 0m1.754-.027c.059.08-.071.513 0 0m12.651.738c.076-.676.687.093 0 0m-8.576-.079c.18-.358.068.005 0 0m-4.817.036c-.009-.029-.022-.047-.035-.046-.169-.274.385-.073.035.046m16.609 1.464c.122-.144.077.01 0 0m-.475.031c.42-.444-.105.677 0 0m-.125-.031c-.024.174-.391.186 0 0m-2.589.167c-.153-.431.138 0 0 0m-.261-.133c-.593.598 0-.619 0 0m-1.184-.173c-.022.061-.055.111-.136.111.03-.052.032-.134.136-.111m-2.952.106c-.234.062-.43-.224 0 0m5.499.791c-.025-.326.277.052 0 0m-.53-.089c-.029.177-.429-.081 0 0m-2.39-.12c-.015.096-.105.016-.163 0 .011-.062.144-.022.163 0m-6.285-.023c.227.309-.458-.035 0 0m4.087.498c-.032 0-.066-.45 0 0m.514.017c-.017-.094.128-.157 0 0m6.278-.344c0 .22.819-.141.819-.836 0 .098.542.481.475-.204.953.215-1.294 2.787-1.294 1.04m-3.067.465c-.323-.015.034-.198 0 0m-8.93-.051c.058-.016.113.251 0 0m.692 2.388c-.256.117-.759-.299 0 0m3.115.504c.01-2.038.967 1.349.301-.292.075.014-.298.421-.301.292m3.261.703c-.167.241-.069.005 0 0m1.644-.145c.551-.478-.102.928 0 0m3.146.474c-.233.113.247-.123 0 0m.207.062c.028-1.117.548.562 0 0m-4.968.121c.234.25-.432.074 0 0m2.417-.028c.117.469-.191-.053 0 0m-9.659.956c.574.099-.667-.101 0 0m2.559-.053c.079-.012.187.245 0 0m3.144.297c.337-.39 1.279-.906.524.168-.116-.122-.374-.232-.524-.168m-1.374.013c-.042.048-.119.06-.188.08.017-.097.139-.192.218-.139a.118.118 0 0 1-.03.059c-.044-.089-.031-.062 0 0m1.54 1.585c-.233-.457.019-.035 0 0m2.426-.222c.244.597-.258-.071 0 0m-2.219.556c.149-.375.215.233 0 0m.474-.082c-.794-.23.665.151 0 0m6.396.305c-.067-.335.411.082 0 0m.1.358c.683-.986.734-.25.734.046l-.056.024c.113.249-.23.322-.122.05-.304.117-.83.279-.556-.12m7.952.299c0 1.014-.446.4-.608.385.162-.288.608-.886.608-.385m7.007-.186c.078-.011.186.246 0 0m-4.358.031c.208.739-1.078.449 0 0m1.322.529c-.58.182.245-.791 0 0m2.017-.362c-.153 1.108-.633-.035 0 0m-.573.529c.397 0-.094.419 0 0m.518.056c.045.256-.255-.033 0 0m-3.72.143c-.506.432-.12-.003 0 0m-1.145.223c-.256.117-.759-.299 0 0m-3.45.024c-.295.583-1.328-.406 0 0m-6.113-.059c-.104.309-.126.008 0 0m.528 0c.232.128-.531.628 0 0m5.013-.482c.245-.061-.388.337 0 0m-2.707.161c-.457.184.22-.103 0 0m3.338.2c-.201-.877.22-.842 0 0m-4.475-.684c.399-.114-.046.226 0 0m-2.62.203c-.376.136.341-.134 0 0m5.024-.014c-.227-.455.213.399 0 0m-2.458.62c.679-1.358 1.372.635 0 0m-1.609-.14c-.117-.197.749-.224 0 0m-3.586-.203c.019-.04.17-.226.17-.091 0 .128-.17.214-.17.091m2.314.08c-.099.537.043-.312 0 0m12.068.625c.313.321-.381-.016 0 0m-2.93.616c-.233-.458.019-.036 0 0m.682.251c-.795-.23.664.151 0 0m2.634-.256c.079-.083.57.552 0 0m-.889.395c.487-.398-.113.671 0 0m-1.869.275c-.019.052-.245-.034 0 0m-7.837.045c.104-.124-.019.046 0 0m8.982-.045c.457-.153.004.331 0 0m-1.266.087c.561-.12-.282.847 0 0m2.235.113c.512-.042-.4.309 0 0m-4.809.261c.151-.171.197-.213 0 0m2.519-.207c-.021.1-.126.112-.218.14.018-.098.14-.193.218-.14m-6.408-.037c.164-.037-.015.017 0 0m6.121-.133c.307.052-.097.404 0 0m-4.247.513c-.975-.336.51.165 0 0m-1.315.824c.103-.65.355.18 0 0m22.9-20.451c-.12.105-.288.15 0 0 0 0 0 .001 0 0M20.755 46.059c-.134-.02.058-.257 0 0m.345.098c-.044.098-.604-.374 0 0m2.11.38c.151 0 1.31-.317 2.962-.831l.145.046c.018-.012-.039-.036-.107-.058.712-.222 1.512-.479 2.363-.764-.225-.17-.278-.395.321-.484.114.112.197.207.259.289 1.653-.561 3.452-1.21 5.126-1.884-.12-.066-.203-.236.162-.164.007.04.007.071.005.097a43.671 43.671 0 0 0 3.348-1.503c-.039.016-.084.026-.126.039.017-.097.14-.193.218-.139a.126.126 0 0 1-.074.09c1.968-1.008 3.181-1.961 2.72-2.644.305-.352 3.984-5.283 3.798-5.921a.226.226 0 0 0 .054-.027c0-.023-.023-.01-.055.021-.013-.039-.044-.06-.091-.062.671-2.046.965-3.334.965-3.661 0 1.97 1.452-5.567.06-2.645-.427.026-.368-1.884.219-1.884.877 1.956.418-.41.627-.41-.007-.853-.497-3.436-.497-4.669 0-3.861-1.959-6.589-4.001-8.579-.24.085-.647.119-.233-.166l.064.002c-1.882-1.793-3.789-2.97-4.261-3.832.02.035.023.058.016.093-.989.443-.172-.758-.235-.963.587-.156-1.106-1.131-3.712-2.247.015.065-.019.117-.056-.024-5.745-2.453-15.837-5.558-15.837-2.14-.94.297-2.628.977-3.908 1.61a.856.856 0 0 1-.06.161c-.041-.026-.045-.07-.034-.114-.844.423-1.489.821-1.59 1.065-.011-.153-.022-.388.003-.516-.446.258-.919.587-1.406.969.013.034.033.099.066.211-.025.002-.064-.132-.078-.202-.19.149-.381.305-.575.471.122.091.188.22-.138.166l-.018-.031a28.754 28.754 0 0 0-2.52 2.519c.07.112.075.348-.193.343 0-.05.003-.093.006-.133C2.696 12.835-1.189 19.807.34 22.865c-.112-.225.011.358.011.034 0 .511.048 1.191.108 1.879.026 0 .039.043.013.144.022.242.044.483.067.717.015-.003.071.032.067.076a.355.355 0 0 1-.066-.06c.108 1.121.206 2.069.124 2.069.283 0 1.133 5.375 1.133 3.987 0-.092-.002-.122-.002-.258 0 .947 1.061 2.897 2.109 4.514-.98 3.041 9.198 8.125 15.638 9.919l-.013.061a.197.197 0 0 0 .018-.06c1.478.412 2.759.65 3.663.65"/><path clip-path="url(#b)" fill="#231F20" d="M23.078 18.432c-2.726 0-4.937 2.141-4.937 4.785 0 2.641 2.211 4.784 4.937 4.784 2.727 0 4.938-2.143 4.938-4.784 0-2.644-2.211-4.785-4.938-4.785m9.49 2.941h-2.163c.205.671.316 1.377.316 2.112 0 4.087-3.422 7.403-7.643 7.403-4.219 0-7.642-3.316-7.642-7.403 0-.735.112-1.441.316-2.112h-2.257V31.76c0 .537.439.975.977.975h17.119a.977.977 0 0 0 .977-.975V21.373zm-3.896-7.665a1.11 1.11 0 0 0-1.107 1.108v2.648c0 .61.497 1.108 1.107 1.108h2.779a1.11 1.11 0 0 0 1.107-1.108v-2.648a1.11 1.11 0 0 0-1.107-1.108h-2.779zm-14.753-2.731h18.273a3.165 3.165 0 0 1 3.156 3.156v18.274a3.164 3.164 0 0 1-3.156 3.154H13.919a3.165 3.165 0 0 1-3.157-3.154V14.133a3.166 3.166 0 0 1 3.157-3.156"/></svg>