<svg id="Layer_1" xmlns="http://www.w3.org/2000/svg" viewBox="0 0 46.1 46.5"><style>.st0{fill:none}.st1{fill:#03bdd6}</style><path class="st0" d="M0 0h46.1v46.5H0z"/><path class="st0" d="M0 0h46.1v46.5H0z"/><path class="st1" d="M46.1 24c0-.9-.5-3.4-.5-4.7 0-3.9-2-6.6-4-8.6-.2.1-.6.1-.2-.2h.1c-1.9-1.8-3.8-3-4.3-3.8v.1c-1 .4-.2-.8-.2-1 .6-.2-1.1-1.1-3.7-2.2 0 .1 0 .1-.1 0C27.5 1.1 17.4-2 17.4 1.5c-.9.3-2.6 1-3.9 1.6 0 0 0 .1-.1.2v-.1c-.8.4-1.5.8-1.6 1.1v-.5c-.4.3-.9.6-1.4 1 0 0 0 .1.1.2 0 0-.1-.1-.1-.2-.2 0-.4.2-.6.4.1.1.2.2-.2.1-.8.7-1.7 1.6-2.5 2.5.1.1.1.3-.2.3V8C2.7 12.8-1.2 19.8.3 22.8c-.1-.2 0 .4 0 0 0 .5 0 1.2.1 1.9v.1c0 .2 0 .5.1.7 0 0 .1 0 .1.1 0 0-.1 0-.1-.1.1 1.1.2 2.1.1 2.1.3 0 1.1 5.4 1.1 4v-.3c0 .9 1.1 2.9 2.1 4.5-1 3 9.2 8.1 15.6 9.9v0c1.5.4 2.8.7 3.7.7.2 0 1.3-.3 3-.8h.1l-.1-.1c.7-.2 1.5-.5 2.4-.8-.2-.2-.3-.4.3-.5l.3.3c1.7-.6 3.5-1.2 5.1-1.9-.1-.1-.2-.2.2-.2v.1c1.2-.5 2.4-1 3.3-1.5h-.1c0-.1.1-.2.2-.1 0 0 0 .1-.1.1 2-1 3.2-2 2.7-2.6.3-.4 4-5.3 3.8-5.9h0s0-.1-.1-.1c.7-2 1-3.3 1-3.7 0 2 1.5-5.6.1-2.6-.4 0-.4-1.9.2-1.9 1 2.2.5-.2.7-.2zm-.7-5.4c-.1.1-.2 0 0 0zm.1 3.4c.1 0-.5 0 0 0zm-.9-4.2c1.4.2 0 .1 0 0zm0 6.9c.4-.1-.1.3 0 0zm-.2-9.6c-.2.2-.2 0 0 0zm-.2 10.1c.6.3.5.5 0 0zm.4 4.9c.1 0-.2.6 0 0zm-.1-.4c.2.1 0 .2 0 0zm0-1.9c-.1.2-.4-.3 0 0zm-.2 2c0 .5-.4-.2 0 0zm-.1-11c0 .3-.2.3 0 0zm-.3 7.6c-.3.6-.5.1 0 0zm-.1-1c-.1.1-.1-.3 0 0zm.2 2.8c-.4 0 0-.4 0 0zm-.1-3.3c.4.1 0 .4 0 0zm.2.9c.1 0-.2 0 0 0zm-.1-.2c0 .3-.1-.1 0 0zm0 .4c.4 0-.3.1 0 0zm.1-6.7c-.2.7 0-1 0 0zm-.2 4.8c.4.4-.9.1 0 0zm-.2-1.3c-.1.2.1-.1 0 0zm-.4-1c1 .5-.2.4 0 0zm0 2.6c.5.7-.6-.8 0 0zm.2-9.5c.1-.1.1.1 0 0zm0 6.9c.2-.1.1.3 0 0zm-.1-6.4c0 .3-.3 0 0 0zm-.2 7.8c.5.5-.7.9 0 0zm0-.2c0 .3-.2 0 0 0zm-.5-5.4c.3 0-.3.4 0 0zm-.4 4.8c-.2.4 0 0 0 0zm0 2.6c.1-.2-.2.1 0 0zm-.1.6c-.7.1.3-.5 0 0zm0 1.6c.3.2-.6.5 0 0zm-.3.4c.7 0-.1.6 0 0zm.4-1.8c.3-.6-.2.4 0 0zm.2 1.3c-.6-.1.3 0 0 0zm-.1-4.7c.2 0 0 .3 0 0zm.1-1.2c.3.3-.1.1 0 0zm.1-1.7c0 .6-.3-.4 0 0zm-.1-1.1c.2 0 .2.1 0 0zm.3 4.8c0 .2-.4-.1 0 0zm-.1-7.9c.1 0-.2.9 0 0zm0-2.1c.1.3-.5.1 0 0zm-.1.6c-.1.2-.5.5 0 0zm-.5-1c.6-.1-.2.7 0 0zm0 4.6c.3.1 0 0 0 0zm-.5-5.4c.1-.5.3.5 0 0zm.2.3c1 .7-1.1 0 0 0zm.2 1.2c.1.2-.5.3 0 0zm-.2.7c-.6.5.3-.4 0 0zm-.2 1.8c-.2-.1-.4-.8 0 0zm-.1 13.3c0-.4.2 0 0 0zm-.3-11.2c.1.4-.5.4-.5.6-1 .4 0-.5.5-.6zm-.3 7.6c.5-.1-.3.5 0 0zm-.1 4.5c.3.5-.2-.4 0 0zm.1-9c.6-.3 0 .5 0 0zm.2 6.9c-.3-.2.2.1 0 0zm-.1-5.9c0-.8.4 0 0 0zm-1 7.5c.1.8-.6-.1 0 0zm-.1 1.2c.1-.2 0 .6 0 0zm-.1-12.5c.2 0 .3.1 0 0zm.1 1.3c.2-.5.4.4 0 0zm0 1.7c-.4.8-.4-.1 0 0zm-.1 2.9c.2.3-.1-.2 0 0zM40 23c.3.3 0 .4 0 0zm.1 1.2c.3-1.3.6 1.1 0 0zm.2-1c.1-.6.5.4 0 0zm0-3c-.3-.5.1-.1 0 0zm.2 7.4c0 .2-.1.3 0 0zm-.1-.9c-.5-.5.4.1 0 0zm.1 3.4c-.2-.2.3 0 0 0zm.2 1.3c-.3.4-.3 0 0 0zm0-5.8c.3.5-.3-.5 0 0zm-.2-9.2c0 .1-.5.3 0 0zm0-2.7c.4 0-.1.3 0 0zm.4.9c.2-.1.1 0 0 0zm.2 3.3c.3.5-.5 0 0 0zm-.5-7.4c.3.1 0 0 0 0zm0 1c.6.6-1-.1 0 0zm-.3.4c.1.8-.2-.6 0 0zm-.1 3s.1-.4 0 0zm0 1.9c.3-.1 0 .2 0 0zm0 1.3c-.3.2 0 0 0 0zm-.1-.2c-.1.1-.4-.2 0 0zm-.2-5.3c0 .2-.4-.2 0 0zm-.2 1.5c-.2-.2.4-.4 0 0zm0 3.4c0 .3-.6-.5 0 0zM39 29.4c-.3-.5.5.1 0 0zm.1 8.1c-.1-.4.2 0 0 0zm-.2-2.5c-.4.9.4-1.2 0 0zm-.1 2c-.1.2 0 0 0 0zm-.5-2.2c.3.1-.1 0 0 0zm.1 3c-.2.1.1 0 0 0zm-.1.1c0 .3 0 0 0 0zm0-6.6c-.4 0 .5-.2 0 0zm-.9 1.7c0 .1-2.4-.6.5-.1 0 0-.6 0-.5.1zm.4 1.2s-.1.3 0 0zm-.8-.1c-.4-.2.1.1 0 0zm-.6-3.1c.5.8-.1.5 0 0zm0-8.5c.1.2 0-.1 0 0zm.1 9.4c-.2 0 .3 0 0 0zm.4.3c-.2-.1-.1-.6 0 0zm-.1-1.3c.2.4 0-.1 0 0zm.6-14.8c-.2-.1 0-.1 0 0zm.2 14c.5 0-.1 1.1 0 0zm.3-1.1c-.4-.1-.1-.6 0 0zm-.3-7.5c.4-.1.3.1 0 0zm0 6.4c0-.1.4 1.1 0 0zm-.4-7.2c-.3.1.3-.1 0 0zM37 31.2c.8-.7.1.7 0 0zm.2.4c-.3 0 .2-.3 0 0zm1-.3c-.5.3-.8 0 0 0zm.1-3c-.4.4 0-.5 0 0zm.2-9.2c-.3.7-.1 0 0 0zm.3 5.9c-.4.1.3-.3 0 0zm-.1 1.2c.2 0 0 .2 0 0zm-.2-2.2c.2-1.3.4 0 0 0zm.2-1c.2.2-.4.5 0 0zm-.3-6.1h0zm.1 2.7c-.1.6.1-.3 0 0zm0 7c.3-.1 0 .1 0 0zm.1.2c-.2-.2 0-.1 0 0zm.1 10.7c-.4.1-.2-.1 0 0zm-.1-7.5c.8.1 0 .3 0 0zm.4 1.8c-.1.5-.4-.5 0 0zm0-18c.7.3 0 .1 0 0zm.2.9c.2-.1-.2.1 0 0zm0 6.4c-.3 0 0-.2 0 0zm-.1-1.3c0 .4.5-.2.5.1 0 1.3-.5.2-.5-.1zm.5.5c0 .3-.1.1 0 0zm-.3 5.8c-.2-.2.5-.3 0 0zm.2 5.2c-.4-.5-.2-1.3 0 0zm0-1.7c.1-.3.1-.1 0 0zm-.1-13.4c-.2-.2 0-.2 0 0zm-.1-4.3c0-.2.1 0 0 0zm0 1.5c-.1-.1-.2-.1 0 0zm-.2-1.2c-.3 0-.4-.2 0 0zm-.3.2c.1 0 .4.2 0 0zm0 6.9c-.4.1.4-.1 0 0zm-.2-4.2c.2-.1-.4.1 0 0zm-.2.5c.4.1-.2.7 0 0zm-.1 10.9s-.3 0 0 0zm0-2.5s-.5-.4 0 0zM38 13.2c-.2-.3.3 0 0 0zm0 15.3c.3-.1-.1.3 0 0zm-.2-13c-.3 0 .4-.4 0 0zm0-1.1c-.1-.4.2 0 0 0zm0-3.3c-.2.1.1-.3 0 0zm0-.7c0 .3-.3 0 0 0zm-.1 5.7c-.3 0 .1-.1 0 0zm-.1 1.9c-.1 0-.1-.1 0 0zm-.3-10.9c.1 0 .2.4 0 0zm0 5.1c.2.2-.3 1.1 0 0zm-.2 5s-.1-.4 0 0zm0-3.6s-.2-.1 0 0zm-.2 2.9c.3.2-.4.3 0 0zm-.1-1.3c.1.6-.2 0 0 0zm-.1-4.6c.3.1 0 .2 0 0zm-.1 18.9c.1.2 0 .4 0 0zm-.1-22.6c.3.1-.2 0 0 0zm-.1 9.6c-.4.1.4-.3 0 0zm0 3c0 .1-.2.2-.2.1s.2-.3.2-.1zm-.3-9.8c.6 0-.1.2 0 0zm-1 24.5c-.2 0-.3-.1 0 0zm.1 1c.1 0-.1-.1-.1-.1 0 .1.1.1.1.1zm-.2.4c-.2 0 .4-.3 0 0zm-.4 1.6c.7 0 .7.5 0 0zm.7 1.2c0 .6-.4 0 0 0zm0-3.7c.2-.1-.2 0 0 0zm.1 3.4c-.3-.5.5-.3 0 0zm.1-2.4c0 .4-.3-.2 0 0zm.1-.2c-.5 0 0-.4 0 0zm0-9.8c-.1 0 0-.3 0 0zm0-7.1c.2.3-.4 0 0 0zm.3 15.2c-.1.6-.7-.2 0 0zm0-17.4c-.4 0 .2-.7 0 0zm0-1.2c-.1-1 .1 0 0 0zm0 3.5c.1-.1.1-.1 0 0zm.2 17.4c-.1 0-.1-.3 0 0zm-.2-29.2c.5-.4-.2.7 0 0zm-.1 6.3c-.5 1.1.3-.5 0 0zM35.5 5c.3-.1 0 .3 0 0zm.1 3.3c-.1-.4 0 .4 0 0zm-.3-1.6c.6-.1-.1.5 0 0zm-.2-1.6s-.3 0 0 0zm-.4-.4c.2.1-.1.2 0 0zm0 1c.1.1.1.2.1.3 0 0-.9.2-.1-.3zm-.1 2.6c.1 0 .1 0 0 0zm.1 1.9c0 .4-.3-.1 0 0zm-1 1.1c-.5-.1.1-.3 0 0zm-.4-5.7c.6-.1-.5.5 0 0zm-.6 4.2c0 .5-.4-.4 0 0zM32.4 4c-.2.6-.1 0 0 0zm-.1 6.8s.1-.5 0 0zm-.1-7.1c-.4-.1.3.2 0 0zm-.7 7.3c-.5-.4-.1-.1 0 0zm-.2-1.4c-.5-.3.1 0 0 0zm-.2-5.8c-.3 1 0 .1 0 0zm-.4 6.2c.2 0 .1.5 0 0zm-.4-5c.4 0 0 1.4 0 0zm-.2 3.9c2 .6-1.7 1.9 0 0zm-.1 1.6c.3 0-.3.1 0 0zm-.2-8.2c.1 0-.1.3 0 0zm-.2 2.2c-.1.3.2-.3 0 0zm0 4.8c-.2 0 .3-.1 0 0zm-.3-7.1c.5-.1 0 .9 0 0zm.2 7.5c.1-.4-.1.3 0 0zm0-2.7c-.6.2 0-.5 0 0zm-.3 2.6c.1-.8.5.3 0 0zm-.4-3.3c0-.1.7-.3 0 0zm.3 1.8c-.3-.5.1-.1 0 0zm-.2-2.7c.4-.1-.3.4 0 0zM28.6 9c.4-.7.3 1.1 0 0zm-.1-2.9c.3-.1-.4.1 0 0zm-.2-2.8c.5.2-.2.3 0 0zm0 1.2c-.2-.1.2.1 0 0zm.7 4.8c-.2.1-.4.1 0 .4-.1 0-.2.4-.3.4-1.2-.9 0-.5.3-.8zm-.7.7s-.2-.4 0 0zm-.4-5.3s-.2-.3 0 0zm.2 4.2c0 .1-.4.2 0 0zm-.3-.2c0 .2-.6-.1 0 0zm0 1c-.2.1-.2-.5 0 0zm-.1.8c0 .4-.1-.2 0 0zm-.4-4.9c.1.1.1.5 0 0zm.1 1.2c-.2 0-.3-.1 0 0zm-.2-3.3c0-.2.3 0 0 0zm-.1.2c.1-.1 0 .8 0 0zm0 7c0 .5 0-.1 0 0zm-.3-2.1c.3 0 0 .4 0 0zm-.2.3c.1.4-.4-.3 0 0zm-.1-4c.3-.1-.1.3 0 0zm0 2.1c.1.7-.4.1 0 0zm-.1 2.1c.1 1.8-.2 0 0 0zm-.3-.9c-.4-.3.1-.2 0 0zm-1-1.1c-.3-.5.4.8 0 0zm0 1.2c-.6.1.2-.9 0 0zm.2-.1c.1.4-.5.1 0 0zm.7-2.6c-2 .8-1.2 0 0 0zm-1.2-3.1c-.1-.1-.1-.1 0 0zm1 5.2c-.8-.1 0-.5 0 0zm.3.7c-.3.5-.9-.2 0 0zM26 5.3c-.2.3.1-.3 0 0zm-.4-2.8c.3-.3.5-.1 0 0zm.1 1.6c-.1 0-.2-.1 0 0zm-.3 1c-.4.3-.2-.1 0 0zm-.6-3.6c.4 0-.3.4 0 0zm0 5.6c-.5-.1.3-.3 0 0zm.1.2c-.3.2-.2 0 0 0zm-.1.4c0 .3.1-.3 0 0zm-.6-.9c.4 0 .3.2 0 0zm-.1-4.2c.2.2-.4.6 0 0zM24 .8v.3c-.1-.1 0-.3 0-.3zm-.1.7c0-.3.1.1 0 0zm.1.8c0 .2-.4 0 0 0zm-.5 7.9c-.1-.8 1 .1 0 0zm-.6-1.7c1 1.9-1.2-.2 0 0zm0 1.3c.2.3 0 .2 0 0zm-.3.6c.1 0 0 .9 0 0zm.4-2.9c.4-.7 1.3-.2 0 0zm0-.6c.6-.1-.3 0 0 0zm.6-.1c.5-.1-.2.2 0 0zm.1-2.8c-.4.1.4-.6 0 0zm-.1-1c.4.2-.2.2 0 0zm.1-.2c-.2-.1-.1-.1 0 0zm-.2 1.7c.1-.1.7.2 0 0zm-.2-.5s0 .4 0 0zm-.5.6h-.1c0-1.3 1 .5.1 0zm.3.6c1.1 0 .8.7.2.2 0 0-.7.2-.8.2 0 0-.2-.4.6-.4zm-.7-2.5c.2-.4-.1.4 0 0zm-.1 2.7c-.5.3.2-.2 0 0zM22 6.5c.1.3-.3-.1 0 0zm0 1.4c-.5-.1.2-.3 0 0zm-.3-7s.3-.1 0 0zm0 7.3c0-.1.4.3 0 0zm.2.4c-.1.1-.5-.2 0 0zm-.3-4.2c0 .3-.1 0 0 0zm-.4 3.2c0 .1-.1.3-.2.2.1-.1.1-.2.2-.2zm-.3.8c.7 0 1.2 1.4 0 0zm-.1-3c-.7-.3.2-.2 0 0zm0 5c-.1 0 0-.2 0 0zM20.7 9c.1-.3 0 0 0 0zm0-7.5c-.3.1.2-.1 0 0zm-.1 3.2c-.2 0 .2 0 0 0zm-.3 4.1c.2.3 0 .3 0 0zm-.1-2.4c.3.3-.1-.1 0 0zm-.3 4.1c.3.1.5.6 0 0zm0-.7c.1 0 .2.3 0 0zM20 7c.2-.3.3 0 0 0zm0-1c.1-.3.4.3 0 0zm0-3.2c-.1-.5.6 0 0 0zm-.1 4.3c0 .2-.6-.4 0 0zm-.2-2.6c-.3-.5.5-.7 0 0zm-.2 3.2c-.1 0-.1-.2 0 0zm0 1c-.1 0-.2-.2 0 0zm-.1-3.3c.5.4-.1.1 0 0zm.1-.5c-.3.1.1-.4 0 0zm-.4-2c.7.4 0 .2 0 0zm.2 6.3s-.3-.3.1-.2c-.1.1-.2.1-.1.2zm-.2-3.3c0-.1.3-.2 0 0zm.2-2.5c-.4 0-.1 0 0 0zm.1 3.5c-.4 0 0-.2 0 0zm-.3-5.6c-.1-.1.2-.5 0 0zm0 1.3c0 .1-.3-.1 0 0zm-.2 2.5c-.1 0 .2-.1 0 0zm-.2-.6c.5.1.1.6 0 0zm-.1 4c.5.3-.2.4 0 0zm-.2 1.6c-.6-.4.6-.8 0 0zm.2-3.2c0 .3-.3.1 0 0zm-.4.3c.1-.2.4.3 0 0zm0 .5c-.1.2-.1 0 0 0zM18 8.9c-.1-.5.3 1 0 0zm-.1-5.2s.3.3 0 0zM17.8 6c.5-.5-.1.6 0 0zm.1 3.2c-.2.3 0-.1 0 0zM17.7 5c.3-.5-.1.3 0 0zm-.1 4.5c0-.1.4-.2 0 0zm0-4.2c-.5 0 .2 0 0 0zm0-.3c.1-.3.3 0 0 0zm-.1-3.3c-.5 0 .3-.3 0 0zm-.1 6.4c-.2-.2.1 0 0 0zm-.1-2.9c.2.7-.3 0 0 0zM17.1 8c.1 0 .1 0 0 0 .1.3-.2 0 0 0zM17 8c-.3-.1 0-.2 0 0zm-.2 1.1c.4.2-.1.2 0 0zm-.1 1.5c.1-.1.7.2 0 0zm0-3.4c0 .2-.1.2-.1.2 0-.1.1-.2.1-.2zm0 0s0 .1-.1.1c0 0 0-.1.1-.1zm-.2 2.4c0 .1-.5.1 0 0zm0 .5s0 .3 0 0zm0-5.8c-.9 0-.2-.9 0 0zm-.6-.9c.1-.5.1 0 0 0zm0 2.4c-.1 0-.1 0-.1-.1.1 0 .1 0 .1.1zm.2 3.4c-.1.6-.7.1 0 0zm-.5-.5c.3-.3-.1.5 0 0zm-.4-1.6c-.2-.1.2.1 0 0zM15 4.2c.4-.1 0 .4 0 0zm.2-1.6c-.5.1.1-.4 0 0zm-.1 4c0 .1-.3.3 0 0zm-.2 1.1c1.7 0-.9.7 0 0zm.2.8c-.7-.4 0-.5 0 0zm-.3 2c.1.3 0 0 0 0zm-.2-4.3c-.1-.3 0-.2 0 0zm-.2.4l-.1-.1c.1 0 .1 0 .1.1h-.3c.1-.1.1-.1.2-.1.4-.1.7.1.1.1zm0 .9c.1-.4.6.2 0 0zm.1.9c-.1.1-.2-.2 0 0zm.1-1.3s-.1-.2 0 0zm-.3-3.7c.3.4-.6 0 0 0zm-.2-.1c0 .3-.1.4-.3.5 0-.2.2-.5.3-.5zm-.4 3.4c.3-.6.2.9 0 0zm.1.7c.1-.1.2.2 0 0zm0-1.4c-.1 0 .1-1.2.3.1 0 .2-.2 0-.3-.1zm-.2-1c.6.4 0 .1 0 0zm0-1.3c0 .1 0 .1-.1.1 0-.1.1-.1.1-.1zm.1 4.6c-.1 0-.3.1-.3-.1s.3-.6.3.1zm-.6-3.1c.4-.3.1.7 0 0zm.1.5c.1-.1.1 0 0 0zm-.1 4.9c-.3.1-.1-1 0 0zm-.7-5.7c-.1-.7 1.3-.2 0 0zM12.3 9c.8.4.1.2 0 0zm.2.5c-.3 0-.1-.1 0 0zm0-1.1c-.2-.1.1-.3 0 0zm.1-.4c-.1 0-.2-.2 0 0zm0 2.8c.4-.1-.1.5 0 0zm-.1-3.3c.8 0 .1.5 0 0zm-.3-3.1c0-.4.4 0 0 0zm-.1 1.1c.8-.3.5.1 0 0zm.1.2c.1 0 .1.3 0 0zm0 .6c-.1.6 0-.5 0 0zm-.2 3.8s.1 0 0 0c-.4 0-.2 1.2-.3.2.2-.1.3-.1.3-.2zm-.6-5.5c0-.1.4.1 0 0zm-.2 1c0-.2.2.1 0 0zm-.1-.8s.4 0 0 0zm.6 1.2h-.1c-.1.1-.2.3-.2.3-1.2-1.1 1-.3.3-.3zm-.6 4.4c1.1-.2-.8.5 0 0zm-.1.6c.3.1.1.1 0 0zm.4-4.5c-.5.1.1-.1.2-.1-.1.2-.1.1-.2.1zm0 2.9c-.1 0-.1-.5 0 0zm-.3.6c-.6-.5.5.5 0 0zm.4.7c-.2 0 0-.3 0 0zm.1-2.1c-.4-.1.3.1 0 0zm0-1.5c-.2 0 .2.1 0 0zm-.7-.5c.1 0 .2.2 0 0zm0 1.9c.2.2-.1.1 0 0-.1.1 0 0 0 0zM10.5 5c.6 0-.2.3 0 0zm.1 2.9c-.2.1-.1-.1 0 0zm-.2 10.8c-.3-.3-.1-.2 0 0zM9.9 6c.1-1.5.9-.2 0 0zm-.1 1.9c.3.1 0 .2 0 0zm-.1.9c-1.3-.6 1.6-.4 0 0zm.4.5c.3.3-.1.2 0 0zm0 .5c.2-.3 0 .4 0 0zm-.3 8.7c.3-.3 0 .4 0 0zm.2 3.6c.6 0 0 .3 0 0zm.1-1.8c0-.1.1 0 .2 0-.1.2-.2 0-.2 0zm-.6 7.9c0-1.7.6 0 0 0zm.2 2.5c-.1.2-.1 0 0 0zM9 32.6c0 .2-.2-.1 0 0zm-.2-2.2c.2-.3.1 0 0 0zm.2-.5c.6-.1-.1.2 0 0zm0-.9c.3-.3-.2.1 0 0zm.2 2.4c.1.3-.1-.1 0 0zm0-.2c0 .7-.3-.6 0 0zm-.2-.7c.8-.1 0 .4 0 0zm.1-13.6c.6.1 0 .2 0 0zm0-3.3c.1-.1.1.3 0 0zm.4-3.8c.4-.1-.1.3 0 0zm.3.5c-.1.1-.2.3-.3.4 0-.3.1-.4.3-.4zm-.1 4.2c-.7-.3.2-.2 0 0zm0 9.5c.1.1 0 .1 0 0zm-.1-8.5c-.2.1.2-.1 0 0zm-.1 2c0 .5-.3-.3 0 0zm-.2-2.4s.2-.3 0 0zm.2 13.7c-.5-.2.2-.2 0 0zm.4 3.2c.8.7-.7.2 0 0zm.1-4.6c.3.2-.3-.1 0 0zm-.1 3.4c0-.1.3-.1 0 0zm0 .2s-.1 0-.1.1c0-.1 0-.1.1-.1zm-.1-2.2c.2 0-.2.4 0 0zm-.2-15.2c0-.5.5.5 0 0zm-.2-6.7s-.3-.5 0 0zm-.3 4c-.2-.4.5 0 0 0zm0 2.9c-.1.2-.1 0 0 0zm0 1.2c-.2.2-.2 0 0 0zm-.2.9c.5.1-.1.4 0 0zm0 1.9c-.3 0 0-.4 0 0zM8.4 30c.1-.1.8.5 0 0zm.2 3.6c.3.2-.4.1 0 0zm-.4-15.9c0-.1.4.1 0 0zm.2-.9c-.1 0-.2-.2 0 0zm.1 12c.2-.3.1.1 0 0zm.1-.6c.4 0 0 .4 0 0zm.2-11.9c-.8.1.2-.8 0 0zm-.4-7.7c.7-1.7-.4.7.3.7-.4 0-.7.4-.3-.7zm.2 2.4c.2.1-.1.3 0 0zm-.5 2.1c.1-.1-.1.3 0 0zm.6 1.9c-1.2-.8-.6-.7 0 0zm-.8 8.5c.3-.1.1.6 0 0zm.1 2.4c-.1.3 0 0 0 0zm-.4-5.2c.4-.6.1.2 0 0zm.1-2.6c-.1.5-.1 0 0 0zm0-3.7c0-.3.4 0 0 0zm-.1 12.4c.1.3-.3 0 0 0zm.1.3c0 .1-.4.3 0 0zm0 1.8c-.1.2-.6.2 0 0zm-.1 2c.2.2-.3.4 0 0zm0 2.7c-.1-1 .3.1 0 0zm.1-2.5c0-.1.1-.1 0 0zm.1-.3c-.2 0 0-.3 0 0zm-.2-6.6c-.2-.2.6-.6 0 0zm.2-5.5c0-.1.2-.1.3-.2 0 .2-.1.2-.3.2zM8.1 34c0 .3-.1 0 0 0zm-.4 2.4c.1-.2.9.1 0 0zm.4-2.4c0-.3.3-.2 0 0zm0-1.4c-.1.1.3-1 0 0zm.1-3.6s0 .3 0 0zM8 15c0-.1.3-.3 0 0zm-.1-4.1c-.5 0 .4 0 0 0zm-.3.3c.5-.7-.3.3 0 0zm0 5.3c.3.4-.7 0 0 0zm-.4 10.9c-.5-.7.6.5 0 0zm0 .4c.3 0 0 .3 0 0zm0 2.3c-.1.2 0-.1 0 0zm0-6c-.1-.3.3.1 0 0zm.2-3.2c0 .2-.2.1 0 0zm-.1 12.8c.2 0 .1.4 0 0zm-.1-16.3c-.3-.4.4 0 0 0zm0-6c.2.3 0 .3 0 0zm0 5.6s-.1-.2 0 0zM7 12.3c0-.4.3.3 0 0zM7 20c-.3.8.3-.7 0 0zm-.1 8.9c.2.6-.3-.1 0 0zm-.4-6.7c.5.4-.8.2 0 0zm-.1.5c-.3 0 0-.2 0 0zm-.1-5.1c0-.4.2 0 0 0zm0 4.4c.1-.2.4.2 0 0zm.6 8.6c.1.3-.8-.2 0 0zm-.2-15.5c.3-.4-.2.7 0 0zm.1-2c-.2-.6.3 0 0 0zm-.1.9c.2.1.1.1 0 0zm-.2-2.4c.3.1 0 0 0 0zm.1-.7c-.5.2 0-.4 0 0zm0-.8c-.3 0-.1.2-.5.4.4-3.4 0-.4.5-.4zm-.5 5.8c-.1-.4 1.1-.6 0 0 .3-.1-.1.3 0 0zm.1 1.6c-.1 0-.1-.1-.1-.2 0 0 0 .1.1.2zm.1 5.8c-1 .1.2-.6 0 0zM4.8 30c0 .1-.1.1-.2.1 0 0 .1-.1.2-.1zm-.2-1.5c0 .5-.3.1 0 0zm.2 1.3s-.1.5 0 0zm0-6.9c.8-.1.2.7 0 0zm0-6c0 .1-.2-.1 0 0zm.6 3.5c0-.3.7.4 0 0zm.4 5.9c.2.3-.4.1 0 0zm-.1-3.8c0 .3-.4 0 0 0zm-.5-8.8c-.1-.2.1-.4.3-.4-.1.1-.2.3-.3.4zm.2 2.6c.2.2-.6 1 0 0zm-.3 6.3c.3.1 0 0 0 0zm0-4.3c.4.1-.4.5 0 0zm-.1-.2c0-.2.3 0 0 0zm-.2 11.1c.2-.2 1 0 0 0zm.5-2.4c0-.3.2-.2 0 0zm-.4-1.1c-.2 0 .3-.1.3-.1s.6.1-.3.1zm.4-1c.1-.1.7.5 0 0zm.2 2.2c0-.1.3 0 0 0zm.2 3.1c.5 0-.5.5 0 0zm.4-1.8c-.3.1-.8-.3 0 0zm-.2-7.9s0 .1 0 0zm-.2-3.8c0-.4.5-.1 0 0zm0-3.7c.3-.3 0 .4 0 0zm0-.5c.4.3 0 .3 0 0zm-.3-.4c-.1 0-.1-.1-.2-.1 0 .1-.1.1-.1.1 0-.1 0-.1.1-.1-.7-.6 1.7-.3.2.1zm-.2 5.9c-.7.1.2-.5 0 0zm-.5-4.1c.5 0-.2.5 0 0zm-.1 6.8c0-.2.4 0 0 0zm-.3-6.3c-.4 0 .1-.4 0 0zm-.1-.2c-.3 0 .1-.6 0 0zm-.2.7c-.5.1.1-.3 0 0zm.7-.2c0 .7.1.9-1.1.7.4-.1 1.1-.4 1.1-.7zm-1.3 4c0-.2.9.6 0 0zm.3 8.9c0-.2.3-.1 0 0zm0 0c.1 0 .2 1 0 0zm.1 1.7c.9-.3-.1 1.1 0 0zm.2-.7c-.3-.1.2-.1 0 0zm.2-4.6c.1-.2.2 0 0 0zM3.6 18c-.1 0-.1-.3 0 0zm-.1-.5c-.4 0 .3-.3 0 0zm-.7 2.9s.1-.4 0 0zm-.1 5.8c.4.2-.2.3 0 0zm.1-7.3c-.7-.6.6-.8 0 0zm-.4 2.7c.1 0 .6.5 0 0zm-.2.9c1-.4.1.6 0 0zm.4 2.1c-.5 0 .4-.3 0 0zm-.4 1.2c.4 0 0 .4 0 0zm0 .7c-.2-.1.2-.3 0 0zm0 1.4c.2-.3.1 0 0 0zm0 2.1c-.1-.3.5.1 0 0zm.3-1.6c-.2 0-.1-.4 0 0zm-.1 2.2c.4-1 .2-.1 0 0zm.2-1.7c0-.1.3-.1.4 0-.1.1-.3 0-.4 0zm.5-2.8c-.4 0 .1-.3 0 0zM3 18.3c-.1-.4.1.3 0 0zm.1 11.1c-.1 0-.1-.4 0 0zm-.1.4c.1 0 .2.2 0 0zm0-13.2c.3.1-.3.8 0 0zm0-.1c-.2-.4 0 0 0 0zm-.1-.7c.2.2-.1.5 0 0zm-.3-.3c0-.7.6.8 0 0zm.1.8c-.6-.1.4-.3 0 0zm-.1 1.5c-.1 0-.2-.2 0 0zm-.2-1.7c-.4-.1 0-.9 0 0zm-.3 6.2c-.8.2 1.2-.4 0 0zm-.2.8c-.2-.1-.2-.4 0 0zm-.1.2c-.1 0 0-.2 0 0zm-.2 1.9c.1.3-.1.7 0 0zm0 1.1c-.2 0 0-.8 0 0zm0-6.6c-.3 0 .3-.1 0 0zM1.5 17h-.1c0-.1.1-.1.1 0zm-.2 4.1c-.6-.4.4-.3 0 0zm0 .9c-.2.1-.8-.8 0 0zm-.7 2.6c0-.4.5-.1 0 0zm.5 1.1c-.6 0-.3-.9 0 0zm-.2 1.8c.1-.2.2 0 0 0zm.1-.3c.2-.3 0 0 0 0zm.1-2.4c0-.2.3 0 0 0zm.1 2.9c.1-.2.4 0 0 0zm.5 3.4c-.2-.3.2 0 0 0zm-.3-4c0-.6.8-.9.8 0 0-.7-.7-.1-.8 0zm.4 1.1c-.3-.3.5-.1 0 0zm.4.6c0 .1-.4 0 0 0zm0 3.7c-.1-.2.1-.1 0 0zm.1-1.2c0-.8.1 0 0 0zm.2.2c-.4-.4.5 0 0 0zm.3-1.5c-.2-.4.2-.5 0 0zm0 .9c.7-.3 0 .5 0 0zm.2 1.5c.1 0 .1.1.1.2-.1 0-.1-.1-.1-.2zm.2-.1c-.5.1.1-.3 0 0zm.4-8.9c-.9 0 0-.2 0 0zm-.1 4.3h-.2c0-.2.2-.2.2 0zm0 6c-.6-1.7.6-.9 0 0zm.4 1.7c-.4-.3.5-.1 0 0zm.1-5c-.2-.3.4-.1 0 0zm.3.6c-.2-.3-.2-.7 0 0zm0-3.3c0-.2 0-.1.2-.2-.1.4-.2.6-.2.2zm0 1.2c.4.1 0 .4 0 0zm.5 1.6c1.5 1.5-1.6.3 0 0zm.3.9c.6 0 1.5.4 1 .4-.1-.1-.4-.3-.5-.2-.2.2-.5 0-.5-.2zm.6 2.6c-1.2-.1.1-.1 0 0zm-.1.8c-.7-.2.3-.4 0 0zm0-.4c-.4-.4.5 0 0 0zm.3-1.1c-.4.1.1-.3 0 0zm0 2.5c-.3 0 .2-.4 0 0zm0-.8c-.3 0 .1-.5 0 0zm0 2.1c-.2-.1.1 0 0 0zm0-.4c-.2-.6.3 0 0 0zm.3-.6c-1.2.3.9-.7 0 0zm-.4-2.3c2.4-.2.5 1.1 0 0zm1.1 1.9c-.1 0-.1 0-.1-.1l.1.1zm.1 1.7c-.2-.3.3 0 0 0zm.1-.5c-1-1.5.5-.6 0 0zm0-.7c.4 0 0 .4 0 0zm0-1.3c0-.2 0-.3.1-.4h.2c0-.1-.1-.1-.1 0 .4-.6 1.6.7.1.6 0-1.2-.3 0-.3-.2zm.5 2.4c0 .1-.1.1-.2.1 0-.1.2-.2.2-.1zm-.2 1.3c-.5-.4 1.2-1.7 0 0zm.7-.5c.6.1-.7-.1 0 0zm.1-.4s0-.1 0 0c.1-.1.1-.1.1 0-.1.1-.1.1-.1 0zm0-4.7c.1 0 .1.3 0 0zm.1 1.2c0-.1.4-.1 0 0zm.2 3.1c.5 0-.4.5 0 0zm.2-.3c-.2 0-.1-.3 0 0zm.2-1.6c-.2.1-.7-.3 0 0zm.2-.1c-.7.1.3-1.2 0 0zm.2-2.9c.3.3-.4 0 0 0zm.1 5.2c.3.1-.3 0 0 0zm-.1-7.9c.1-.5.5.8 0 0zm.4 6.4c.2.6-.3 0 0 0zm.4 3.9c-.4 0-.9-.8 0-.1.1.1 0 .1 0 .1zm-.1-5.4c-.4-.7.6.6 0 0zm.3-7.7c-.3-.1.1-.3 0 0zm.1 1.5c.3.3-.5 0 0 0zm.1 5.7s0 .1 0 0zm-.1-3.6c.2.4-.5 0 0 0zm-.1 3.4c0-.1.3-.1 0 0zm.2.4c.1.2-.4.3 0 0zm-.1-6.6c.2.1.1.8 0 0zm.1-3.9c.2-.3.1.1 0 0zm0-3.8c.5.2 0 .3 0 0zm.2 9.7c0 .2-.4-.1 0 0zm-.1 3.7c.2-.2.3.2 0 0zm.1.9c-.4.1.1-.3 0 0zm-.1 3.7c.1 0 .2.3 0 0zm.2 1.5c.7 0 0 .4 0 0zm.9.1c-.5.2-.3-.3 0 0zm-.3-2.3c.9-.3-.1 1 0 0zm.5 1.9c-.2-.3-.1-.7 0 0zm.1-2.1c.3.1-.1.4 0 0zm0-1.2c0-2 1 1.3.3-.3.1 0-.3.4-.3.3zm.1 5.8c-.5-.1.5-.6 0 0zm.3-3.4s-.1.1-.2.1c0-.1.2-.2.2-.1zm.2-1.4c-.4 0 .1-.4 0 0zm0 3.8c-.2-.2.1-.1 0 0zm.3 1.3c0-.1-.6-.6 0-.8 0 .1.4.5.4.2 0 .4-.4.2-.4.6zm-.1-5c.1-.8.2.2 0 0zm.9-.6c-.2.1-.7-.3 0 0zm-.2 3.6c.1 0 .1-.1 0 0 .3 0 .2.1 0 0 .2.2.3.4.2.4-.5-.7-.3-.6-.2-.4zm0 1.2c-.2-.3.4-.1 0 0zm.2-.3c-.2-.2.3.1 0 0zm.7.1c0-.1-.1-.1-.1-.1s-.1.1-.2.1c0-.1.1-.2.2-.1v.1c.1 0 .2.3.1 0zm-.1-.6c.3.3-.4-.1 0 0zm-.1-.2c.1-.3.2.3 0 0zm.1-1.7c-.1-.1-.4-.2-.5-.2.3-.4 1.3-.9.5.2zm-.3 1.4c-.3-.5 0 0 0 0zm.1-.6c0 .5-.3.1 0 0zm-.1 3.5c0-.1.1-.1.2-.1 0 .1-.1.2-.2.1zm.2-.8c0-.2-.1-.4-.3-.5.4-.2.9-.3.3.5zm.4-1.8c-.8-.3.7.1 0 0zm.3-4c-.5.4-.2 0 0 0zm-.1 1.4c-.1.3-.1 0 0 0zm0 0c0-.3.3-.2 0 0zm.2.1c0-.1.4 0 0 0zm.2 3.1c.5 0-.4.5 0 0zm.1-3.7c.3.3-.4.1 0 0zm0-.5c-.2.3-.1 0 0 0zm-.1 2.2c1.1-.4 0 .7 0 0zm.4-1.1c0-.1.1-.1.1 0s-.1 0-.1 0zm.5 5.8c-.3-.1.3-.2 0 0zm0-2.3c-.5-.6.2-.2 0 0zm.1-5.5c-.2-.2 0-.2 0 0zm.2 4.6c.5-.4-.1.7 0 0zm0-.6c.2.6-.3-.1 0 0zm.2-3.6c-.1-.5.2.1 0 0zm.1 2c.3-.3 0 0 0 0zm.2-1.6c.6-.5-.1.9 0 0zm.1.9c0-.1.2-.1 0 0zm.1.2c.2-.3-.2.3 0 0zm.1.3c.1.1-.4.3 0 0zm-.2 3.8s.2-.2.2-.1-.2.2-.2.1zm.2-.9c.1 0 .2 0 .2.1s-.2 0-.2-.1zm.3-.7c-.1.1-.5-.4 0 0zm0-3.9c-.7-.4.3-.1 0 0zm.4 6.8c-.8 0 0-.1 0 0zm-.1.9c-.4-.1 0-.1 0 0zm.1.7c-.8-.2 0-1 0 0zm-.1-1.2c.2 0 0 .3 0 0zm.1-.7c.1 0 .3.2 0 0zm.1-1.3c.1-.1-1.1-.8 0-.6.5 0 0 .6 0 .6zm-.2-2.7c.2.1-.5.2 0 0zm0-3c.1-.2-.1.2 0 0zm-.1 1.4c.2.5-.2-.1 0 0zm0 .2c0 .6-.3.1 0 0zm.3 1.8c0 .4-.3 0 0 0zm-.1.5c.3.1 0 0 0 0zm.3-1.4c.2.3-.3-.1 0 0zm0-2.3c0-.2.1-.1 0 0zm.2 4.1c0 .4-.4-.2 0 0zm0-3.9s-.4 0 0 0zm.1 8.1c.6.1-.5.3 0 0zm.1-7.7c-.2-.3.2.3 0 0zm.4 1.3c.2.1-.2.5 0 0zm0 5.7c.2.3-.2-.1 0 0zm.2-7.8c0 .2-.4.1 0 0zm0 3.8c-.3-.2.3-.2 0 0zm.1 2.3c-.1.5.1-.3 0 0zm-.1-4c.4.1-.2.6 0 0zm.5 6.1c-.4-.3 0-.2 0 0zm0-2.5c-.4.2.3-.1 0 0zm0-1.8c.1-.2-.3.2 0 0zm.3 3.7c-.3-.1.1-.3 0 0zm-.3-1c.4-.1-.3-.4.5-.4 0 .4-.5 1-.5.4zm.2-6.5c0-.1 0-.1.1-.1 0 0 0 .1-.1.1zm.2 1.1c-.2.2.2-.1 0 0zm.1 1.4c-.2-.2 0-.1 0 0zm.2 1.3h0zm.2 2.4c-.1.4-.1.1 0 0zm-.3-5c0-1.1.5.6 0 0zm-.1 2.2c.4 0 0 .5 0 0zm.2.4s-.1 0 0 0zm.1 3.1c-.6.1.2-.8 0 0zm.1 2.6c-.2.3-.3-.6 0 0zm0-3.4c-.1-.2.8-.2 0 0zm.4-2.6c-.5 0 .4-.4 0 0zm.1-2.3c-.1 0 0-.3 0 0zm.8 3.9c-.1 0-.1 0 0 0 .1.3-.3.3-.2.1-.3.1-.8.3-.6-.1.7-1.1.8-.3.8 0zm-.4-1c.4-.1-.1.2 0 0zm.3-.3c-.1 0 0-.7 0 0zm0 .6c.1-.6.3.4 0 0zm0-3.6c.2.1 0 .3 0 0zm0 6.7c.5-.3-.1.5 0 0zm-.6.4c.1-.1 0 .1 0 0zm-.1-1.7c.2.2-.5.7 0 0zm.2-3.6c.4 0-.1.3 0 0zm.1.1c-.6.3-.1 0 0 0zm-.2 1.6c-.2.1.1-.3 0 0zm-.2.4c0-.4.4 0 0 0zm-.2-.6c.2 0 0 .3 0 0zm0-1.2c-.3-.3.7-.2 0 0zm0 1.9c0 .3-.4-.3 0 0zm0 5.5c-.2-.1 0-.3 0 0zm0-2.3c-.2.1 0-.4 0 0zm.3 2.4c0 .1-.6-.4 0 0zm.3-1.1c-1.4.1.5-.5 0 0zm.4.2c-.5-.3.5-2.1.5-.9.1.5-.4.1-.5.9zm.2-4.4c.1-.1.4 0 0 0zm.2-4.1c-.2 0 0-.1 0 0zm.6-1.2c.2.2-.4.3 0 0zm0 5c.3 0-.1.3 0 0zm-.2-4s.2.5 0 0zm-.1 2.7c-.2-.4.3.6 0 0zm-.2 1.9c.4-.1-.1.3 0 0zm0-2.6c0-.3.1-.1 0 0zm.1-.5c-.2-.1-.3-.8 0 0zm-.2 5.8c-.2.2.1-.1 0 0zm.3 0c.1 0-.1 0 0 0zm-.3-1.9c.7-1.3 1.4.7 0 0zm.8 3.1c.1-.6.4.2 0 0zm.3-7.7c-.3-.2 0-.1 0 0zm.2 6.1c-.1.1-.3-.2 0 0zm-.1-1.8c-.4.2.2-.1 0 0zm0-4.3c.3 0-.3.4 0 0zm.2.1s-.3.8 0 0zm-.3 3.1c.2-.1.2 0 0 0zm.2-.8c.4-.1-.3.3 0 0zm.3 1c-.3-.3 0-.1 0 0zm.1-1.9c.2 0-.2.3 0 0zm0 2.1c.6-.6-.2.6 0 0zm.1-1.9c0-.3 0 .3 0 0zm.3 5.2c-.9-.3.5.2 0 0zm0-7.2c.2-.1.2 0 0 0zm.1 2.4c0-1.1.1 0 0 0zm0 4c.4.4-.5 0 0 0zm-.1-5.2c-.3.1 0-.3 0 0zm-.1 2.3c0 .1-.2 0 0 0zm0-2.9c-.2.1.2-.2 0 0zm.3 6.4c-.2 0-.1-.4 0 0zm0-5.3c.2-.2 0 .3 0 0zm0-.6s.1-.4 0 0zm.2 3.2c-.2-.4.2.4 0 0zm0-.6c.7 0-.6.1 0 0zm0-2.8c-.1-.6.7.2 0 0zm.5-.7c-.1.3.1-.2 0 0zm.3-.3c-.3-.3.3 0 0 0zm.3-1.1c-.1.1-1-.5 0 0zm-.2 6.9c0 .6-.1-.1 0 0zm.2-.1c.3-.1 0 .4 0 0zm.1-3c.2.2-.6.2 0 0zm0-1.4c0 .2-.1.1 0 0zm.1-.6c0-.1.1-.2.2-.2-.1.1-.1.2-.2.2zm.1.1c.3 0-.1.4 0 0zm0 3.8c.3-.1-.4.3 0 0zm.2 2.6c.2-.2.2-.3 0 0zm.4-2.1c-.3.6-1.3-.4 0 0zm.1-2.5c-1 0 1.3-.4 0 0zm0 2.3c-.2-.9.2-.8 0 0zm.3-1.9c-.4 0 .1-.3 0 0zm.1.4c-.1 0-.1-.2 0 0 0-.1 0 0 0 0zm.5-2.1c.2.3 0 .3 0 0zm.8 4.7c-.2-.4 0 0 0 0zm.6-1.9c0 1-.4.4-.6.4.1-.3.6-.9.6-.4zm-.5-.7c.1 0 0 .4 0 0zm0 3.4c.3 0-.1.4 0 0zm0 .3c0-.1.1-.2.2-.1 0 0-.1.1-.2.1zm.3-.3c.6-.1-.3.8 0 0zm.1-.1s-.2 0 0 0zm.2-.4c-.8-.3.6.1 0 0zm.2-2.7c-.3.1.1-.1 0 0zm0-2.8c0-.1 0-.1.1-.1 0 .1 0 .2-.1.1zm.2-1.9c-.3 0 0-.2 0 0zm.1 1.2c-.2.1-.3-.2 0 0zm-.2 2.9c0 .1 0-.3 0 0zm.1.2c-.2 0-.1 0 0 0zm0 .5c.5-.2-.3.6 0 0zm.4 0c-.3-.2.4.1 0 0zm0-3c-.2 0-.2-.1 0 0zm.1-1.4c-.2 1-.4-1 0 0zm-.2 3c-.4 0 0-.1 0 0zm-.1.4c-.1.3 0 0 0 0zm.3 2.4c-.2.1-.7-.3 0 0zm.1-2c-.2.3-.1 0 0 0zm0 3.6c.4-.2 0 .3 0 0zm0-6.6c0-.3.5-.1 0 0zm.2 2.9c.3-.5.2.1 0 0zm.4-.2c-.3 0 0-.3 0 0zm.2 3.3c-.4-.3 0-.4 0 0zm-.2-7c0-.1.2-.1.2-.1 0 .1-.1.1-.2.1zm.5 5.8c-.5.4-.1 0 0 0zm-.4 1.5c.5-.4-.1.7 0 0zm.3.5c.5-.1-.4.3 0 0zm.2-1.5c.3.3-.4 0 0 0zm.3-1.4c.2.7-1 .4 0 0zm.2-2.1c-.9.3-.5-.1 0 0zm-.3 1.6c0-.1 0-.2 0 0zm.2 2.5c.1-.1.6.6 0 0zm.3-6.5c0 .3-.1-.1 0 0zm.4-.3c.1 0 0 .3 0 0zm.6 5.3c-.6.2.2-.8 0 0zm.4-5.9c-.1 0-.2-.3 0 0zm0 4.2c.5.3 0 .3 0 0zm.2-1.4c.4 0-.3.6 0 0zm-1.5-2.8H27c.4.5 1.1.5.2.8v-.1c0-.8-1.7 1-.2-.6h-8.3c.1 0 .1.1.1.1l-.2-.1h-.2c0 .1-.1.1-.1 0h-3.5c.1.1.2.3-.1 0h-.9c-1.1 0-2.1-.6-2.7-1.5-.1 0-.1-.1 0-.1-.1-.1-.1-.2-.2-.4h0c-.2-.4-.2-.8-.2-1.2V32s-.1 0-.1-.1l.1.1v-3.6h-.2.2v-.6c-.1 0-.2 0-.2.1v-.1h.2v-5.9V19.6l-.1-.1h.1v-.1c-.4.2-1.6.3-.5-.3.3 0 .4 0 .5.1v-.6c-.1 0 0-.1 0-.1v-.6V14.1c0-1.7 1.4-3.2 3.2-3.2H18c-.3-.2-.4-.5.6-.6-.1.5 0 .2 0 .6h10.6c0-.1.1-.2.2 0h2.8c1.7 0 3.2 1.4 3.2 3.2v1.1c0-.2.3-.5.5 0-.4.3-.5.2-.5.1v8.5c.1-.1.2-.4.1-.2 0 .1-.1.1-.1.2v5c.2 0 .1 0 0 0v1.6c.1.1 0 .1 0 .1v2c-.1 1.6-1.5 3.1-3.2 3.1zm2.5-.6c-.5.1.2 0 0 0zm-.4.7c1.3.1-.1.4 0 0zm.1 1.2c.4.1-.2 0 0 0zm.1 4.8c.4 0-.1.4 0 0zm.1-2.8c.4.1-.3.7 0 0zm.4 2.8c.1.3-.2 0 0 0zm.1-.6c-.2 1.1-.7 0 0 0zm.2-.3c-.7-.1.5-1.9 0 0zm.3-2.1c-.2 0 0-.3 0 0zm0-1.3c-.3-.1.1-.5 0 0zm.3-.7c-.6-.1.1-.4 0 0zm0-17.5c-.3.1.1-.3 0 0zm0 20c.6-.6-.1.8 0 0zm.2-5.7c.1.1.1.1 0 0zm0 7.4c.1 0 .2.3 0 0zm.2-17.7c0 .3-.4 0 0 0zm.2 11c-.8-.1.6-.2 0 0zm.1 2.9c.2.5-.9 0 0 0zm-.1-.3c.3.3-.4.2 0 0zm.3 1.7c-.1-.1.3 0 0 0zm.2-4c-.5.4-.6.7-.3.8-.4 1-.4-.2-.5-.5 0-.3.2-.5.8-.5.1 0 0 .2 0 .2zm.5 1.4c-.2.8-.2.2 0 0zm.2 1.6c-.8-.7.1-.1 0 0zm-.1.1c.1 0 0 .4 0 0zm-.2 2.5c.3 0-.1.4 0 0zm0-1.3c.1-.2.8-.8.7-.6-.2.9-.6.6-.7.6zm.7.7c.3-.5 0 .6 0 0zm-.2.8c.2-.2.9.1 0 0zm.8-1.7c.1 1-1.2.1 0 0zm.2-1.1c.2.2-.5.1 0 0zm-.1 1.7c1-.5 0 .7 0 0zm.4-6.4c.7.1-.5.6 0 0zm.6-1.2c.1.2-.8 1 0 0zm0 .9c-.1 0-.2-.3 0 0zm.1 0c.1.1-.6.9 0 0zm.2 5.3c-.4.6-.4-.6 0 0zm.1-13c.6-.5 0 .9 0 0zm.1 10.8c.5.5-.3 0 0 0zm.4-1.5c-.2.4-.5-.6 0 0zm0 3.9c0 .2-.3 0 0 0zm-.1-.4c.1 0 0 .4 0 0zm.1.6c.1.2-.4.3 0 0zm0-1c.3.3-.6.2 0 0zm.3-3.7c.3-.1-.2.3 0 0zm.3-1.2c.3.2-.3-.2 0 0zm.1-.3c-1.5-.2-1.4-.2 0 0zm-.1-10.2c-.2-.1.3.1 0 0zm.2 10.7c.5 0-.2.6 0 0zm.1-10.9c.5 0-.4.4 0 0zm.8-2c0 .4-1.4.8 0 0zm-.3 4.2c-.2.2.1-.2 0 0zm-.2 1.1c.9.2-.4.5 0 0zm-.1 5.3c.3 0 .1.4 0 0zm.2 1.3c.1.3-.3 0 0 0zm.1-1.7c-.6.8 0 0 0 0zm.3 2.5c-.3.2-.3-.4 0 0zm.1-.3c.3.1-.4.3 0 0zm.2-2c-.2.2-.3-.2 0 0zm-.1-.8c0-.7.5.5 0 0zm.3-15.7c.4 0-.2.1 0 0zm.1 19.2c.1-.1-.2.2 0 0zm0-7.9c.1 0 .1.3 0 0zm.1 9.1c.2.1-.1.2 0 0zm.4-8.1c.1.1 0 .3 0 .4-.2-.5-.5-1.1 0-.4zm-.1 4c.1-.1.1.3 0 0zm.2.3c0 .2-.2 0 0 0zm-.3-3.2c1.1.3 0 .3 0 0zm.6 2.3c1.1.4-.4.7 0 0zm.4 3.5c-.1.1-.1.2-.2.2.1 0 .1-.2.2-.2-.1 0 0 0 0 0zm-.1-1.8c.6.1.5.5 0 0zm.6-.3c.2 0-.3.3 0 0zm.1-3.2c-.3.3-.1 0 0 0zm0-8.4c.1.2 0 .2 0 0zm.1 1.6c.3-.2-.1.3 0 0zm.2-1.2s.1.1 0 0zm.2 3.3c.4 0-.5.1 0 0zm0-1.7c.2-.5.3.5 0 0zm.5 3.7c-.1.1-.3.1 0 0z"/><path class="st1" d="M18.1 23.2c0 2.6 2.2 4.8 4.9 4.8.4 0 .8-.1 1.2-.2 0-.1.1-.2 0 0 1.6-.4 2.9-1.5 3.4-3v-.1c.1-.3.2-.7.2-1.1v-.1-.3c0-.4-.1-.7-.1-1.1-.1 0-.1 0-.1-.1h.1c-.5-2.1-2.5-3.6-4.8-3.6-2.5 0-4.8 2.2-4.8 4.8zm1-.2c.7 0 0 0 0 .1V23zm-.2-.8c0-.3 0 .1 0 0zm-.5 2c.1-.1-.2.3 0 0zm.2-1.5c.2.3-.4-.1 0 0zm.4 1c.2.3-.6 0 0 0zm-.1-.6c.3 0 .1.7 0 0zm.4 1.9c0 .2-.4 0 0 0zm-.1-1.1c-.1-1.3.5 0 0 0zm.2 0c.3 0-.1.4 0 0zm.5-.9c-.1.3-.2 0 0 0zm.5 2s-.5 0 0 0zm.4 1.7c-.1-.1.4-.4 0 0zm.2-.5c-.2.3-.6-.1 0 0zm.1-.6c-.2.6-.3-.3 0 0zm0-3c-.3.1-.2-.1 0 0zm-.2-.7c-.6-.6.7 0 0 0zm0-.8c.1 0 0 .1 0 0zm.2.2c.9.1-.2.4 0 0zm.5.3c-.4.1 0-.1 0 0zm-.2 1.3c-.3-.3.4.1 0 0zm.1 3.8c0 .3-.3 0 0 0zm-.2.4c.7-.6 0 .9 0 0zm.3-4.8c-.4.1.3-.3 0 0zm.6-.3l-.3.1c-.6-.8.1-.9.1-1.1.1.1.6 1 .2 1zm.2-1.4c.1.3-.4-.3 0 0zM22 23c0-.5.4-.1 0 0zm-.2.4c.2-.7.3.4 0 0zm.3 1.3c-.2-.4.7-.2 0 0zm.1.1s.1.2 0 0zm.3 0c-.2.8-.3 0 0 0zm-.2-2.6c-.1-.7.7.4 0 0zm.3-1.5c.1-.1.2 0 .2 0 0 .1-.2.1-.2 0zm.5.9c-1-.4.2-.2 0 0zm-.3 2.9c-.2 0 .3-.2 0 0zm.4 0c-.7 0 .4 0 0 0zm.1 1.6c0 .3 0-.2 0 0zm0-3.1c-.5-.9-.1-.5 0 0zm.1 1.1c-.3-.3.4.1 0 0zm.2-2.1c-.3.3-.2-.1 0 0zm-.2-1.5c-.1-.1-.1-.1 0 0zm-.2-1.1c.4-.4-.1.3 0 0zm1.3 7.3s0 .1 0 0h-.2c-.6-.9.8 0 .2 0zm-.1-5.6c.4-.1 0 1.2 0 0zm.1-.9s-.1-.4 0 0zm0 3.2c0 .4-.2 0 0 0zm0-1.4c.1 0-.2.4 0 0zm0 .3c-.2 1-.2 0 0 0zm.2.5c-.1.1-.3.1 0 0zm.4 4.1c-1 0 .5-.1 0 0zm.3-1.7c-.2-.3 0-.2 0 0zm.7.6c0-.3.3-.1 0 0zm.2-3.2c-.6-.1 0-.1 0 0zM26 22c.8.8 0 .3 0 0zm.4 1c.2.2-.3.4 0 0zm.5-.2c-.1 0-.2-.3 0 0zm.1 1.9c1 .5-.4.3 0 0zm.4.6c0 .3-.5-.4 0 0zm.2-2.9c.1 0 .2.4 0 0zm-.4-1.6c-.1 0-.2-.4 0 0zm.3 1.5c-1.1.5.2-.6 0 0zm-.5-1.1c-.2 0 .1-.2 0 0zm0-.4c-.1 0-.2-.3 0 0zm-.1-.4l-.1.1c.1 0 .2.1 0 .1v-.1c-.2.1 0-.2.1-.1zm-.2 2.9c-.4-.2.2-.3 0 0zm0-.4c-.1 0-.2-.1 0 0zm-.1.1c-.2 0 0-.3 0 0zm-.1-.1c-.1.1-.1 0 0 0zm-.1-2.7c-.4-.4.2-.2 0 0zm-.2.1c0 .1-.7.4 0 0zm-.8 2.5c.4-1 .3 1 0 0zm-.1-.9c0 .1-.1.1-.1 0s.1 0 .1 0zm-.2.2c-.9.4 0 0 0 0zm-.4-2.4c-.8-.3 0-.3 0 0zm-.4 4.2c-.1-.1-.1-.3 0 0zm-.1-2.7c-.2 0 0-.3 0 0zm.2 4.8c-.1.1-1.1-.1 0 0zm-.5-3.5c-.5-.1-.4-.1 0 0zm-.3-1.2s-.1-.1 0 0zm.2-2.3c-.9 0-.7-.2 0 0zm-.6 2c-.6-.2.6-.3 0 0zm-.1-2.3c-.1.1-.5 0-.5-.1.1 0 .4 0 .5.1zm-.7 1.1c1-.5-.2 1.1 0 0zm0 .5c0 .4-.9-.1 0 0zm-.9-1c.4.1-.2.5 0 0zm-.1 1.1c.3 0 .4-.2.6-.2-.2.2-1 .8-1 .5 0 0 .1-.3.4-.3zm-.6-.3c.1-.3.3.1 0 0zm-.1 0c.3.2.2.3 0 0zm0 2.7c0-.2.5-.1 0 0zm-.6 2.1c-1-.5 1.6-.5 0 0zm.4-3c-.6-.3.2-.6 0 0zm0-1.4c-.5-.6.4-.4 0 0zm-.1 0s-.1 0-.1.1c0-.2.1-.2.1-.1zm-.4 2.9c.5-.4 0 .8 0 0zm0-3.3c.2.1 0 .1 0 0zm0 .5c.1 0 .1.1 0 0zm-.3 1.4c.3-.3.2 0 0 0zm-.1-2c.4-.1 0 .4 0 0z"/><path class="st1" d="M32.6 30.6c-.1 0-.3-.2-.1-.2 0 .1.1.1.1.2v-1s-.1-.1-.1-.2c0-.2.1-.2.1-.1v-1.1s0 .1-.1.2c-.3-.1.1-.3.1-.2v-6.8h-.4c0 .4-.1.1-.1 0h-1.5c.1.2 0 .2-.1.1.2.6.3 1.3.3 2 0 .9-.2 1.8-.5 2.5v.1c-1 2.6-3.6 4.6-6.6 4.8 0 .1-.1.2-.3 0h-.2c.1.2.1.4-.2.1v-.1c-1 0-1.9-.2-2.8-.6 0 .1.1.2.1.3-.5-.2-.7-.4-.7-.6-1.4-.7-2.6-1.9-3.3-3.3 0 .2-.1.4 0 .1v-.1c-.1-.2-.2-.5-.3-.8-.1.1-.3.1-.1-.2 0-.1-.1-.3-.1-.4-.1.1 0 0 0 0-.2-.6-.3-1.3-.3-1.9 0-.7.1-1.4.3-2.1h-2.3v.8c.3-.3.1.3 0 .3v1.7c.4 0 .1.5 0 .1v1.7c.5-.2-.2.6.1.6.3 0 .1 0-.1.1v.8c.1 0 .2.1 0 .2v4.2c0 .5.4 1 1 1h5.8v-.1c0 .2.8-.1.8-.8 0 .1.5.5.5-.2.4.1.2.7-.2 1.2h1s0-.1-.1-.1c.1-.4.2-.1.2.1h1.7l.1-.1c.1 0 .2 0 .2.1h2.8v-.1.1h4.3c.5 0 1-.4 1-1v-1.3zm-16.4-3.1c0 .1-.2 0 0 0zm-.3.7c-.2-.2.5.1 0 0zm0-1.6c.2 0-.1.5 0 0zm0 .3c-.1 1.1-.1 0 0 0zm-.3 1.6c.1-.2.2 0 0 0zm-.2-6.8c0-.5.5 0 0 0zm-.2.5c.2-.8.4.3 0 0zm0 3.8c.4-1 .2.9 0 0zm.1-2.5c-.5 0 .2-.1 0 0zm-.2 2.4c-.1.1-.1 0 0 0zm-.2-4.3c-.1.1-.2 0 0 0zm0 3.5c-.2 0-.2 0 0 0zm-.4 1.1c-.9-.3.2-.2 0 0zm-.4-.9c.1-.1.2 0 .2 0 0 .2-.2.1-.2 0zm0-3.8c0-.2.5 0 0 0zm-.2 2.9c.9-.4-.2 1.1 0 0zm.1.9c-.1-.1-.1-.4 0 0zm-.3 0c.4-.2-.2.3 0 0zm0 4.1c.1.3 0 0 0 0zm.1-.3c.3.6-.8-.1 0 0zm.5-.1c.1 0-.1.4 0 0zm0 2.3c.1-.1.2.1.3 0-.1.2-.2-.1-.3 0zm.3-2.2c-.7 0 .4 0 0 0zm.2 1.1c-.2-.1.2-.9 0 0zm-.2-2.9c0-.5-1-.4-.9-.4h1c-.5 0 .4.8.3.8-.3 0-.4-.2-.4-.4zm.4-.3c1-.1-.4.6 0 0zm.2.5c.6.2-.6.5 0 0zm.1 1.7c-.1 0-.2 0 0 0zm.1 1.3c1.2-.1-.4.5 0 0zm.1 2c0-.1.1 0 .2 0-.1.1-.2 0-.2 0zm.3.2c-.1 0-.1-.1 0 0zm.1-.8c0-.1 0-.1.1-.1l-.1.1zm.1-.6s-.1.1 0 0c-.1.1-.1 0 0 0h-.2c-.7-.9.7.1.2 0zm.2-1.7c0 .3-.2 0 0 0zm0 1.9c0-.1 1-.3 0 0zm.8-3.2c-.9-.2.3-.7 0 0zm.1.2c0 .3-.4-.4 0 0zm-.3-.1c0-.1.1.2 0 0zm0 1.4c-.2-.2.1-.1 0 0zm.4 2.1c-.6.6 0-.6 0 0zm-.2-1.2c.6 0 0 .9 0 0zm.3-.2c.3.1 0 .2 0 0zm.1 1.6c-.1-.5.2 0 0 0zm0-1.6c.1-.7.7.1 0 0zm.6 2.1c0 .2-.4-.1 0 0zm.2-2s-.3.1 0 0zm.3 2.1c0-.4.3 0 0 0zm1.5-.8c0 .2-.4.2 0 0zm.2 0c.4-.4-.1.7 0 0zm.2-.4c.2-.4.1 0 0 0zm.2.4c.2-.1.1 0 0 0zm.2-.4c.4-1.5.4 0 0 0zm.9.2c-.5-.5.1-.4 0 0zm-.1-.6h.2v.1c-.2 0-.1-.1-.1-.1h-.1zm.2 1c.3-.1.1.1 0 0zm.3.2c.3.1-.4.2 0 0zm.1-.7c-.4-.2.5-.5 0 0zm.2.7c-.2-1.1.2 0 0 0zm.1-1.1c-.1-.1.3-.3 0 0zm.5.4c.4.3 0 .3 0 0zm0-.3c.7-.5.1.8 0 0zm2.7-.4c-.6.4.3-.2 0 0zm.4 1.5c-.1 0-.4-.8 0 0zm.4.1c-.3-.2 0-.1 0 0zm.2-1.5c.1.1-.3-.1 0 0zm.2.2c.9.6-.8.3 0 0zm1.4-1.8c-.1.2-.5-.1 0 0zm.1 3.3c0-.2.1-.1 0 0zm4.1-11.1c.1.2-.3-.1 0 0zm-.1 5.6c-.3-.3.4.1 0 0zm-.2-5.5s-.9 0 0 0zm-.2 5c-.3.1-.1 0 0 0zm-.4-3c.1-.4.2 0 0 0zm0 .2c.6-.6 0 .9 0 0zm.2 3.2c-.3 0 0-.1 0 0zm-.8-4c-.1-.4.7 0 0 0zm0 .4c0-.1.4-.4 0 0zm-.1 3.4c.1-.1.1.4 0 0zm0 1.8c.1-.1 0 0 0 0zm-1.2 1.9c-.3-.9 0 0 0 0zm-.1.2c-.3-.2 0-.2 0 0zm-1 1.6c.3 0 0 .1 0 0zm.4.1c-.4-.2.2-.2 0 0zm.3-.3c-.5.3-.1-.6 0 0zm0-.6c.1-.2.2.1.4 0-.1.1-.2 0-.4 0zm.6 0c.3.3-.2.2 0 0zm.8-4.4c-1.7 1.4-.2-1.9 0 0zm-.4 1.5c-.1.2-.4.2 0 0zm0 1.7c.1.1-.6.4 0 0zm-.2 1.1c.3-.2.2.1 0 0zm0 1.1c0-.1 0-.1.1-.1 0 0 0 .1-.1.1zm.3-.6c-.4.5-.2 0 0 0zm0-3.2c.4-.5-.1.6 0 0zm.1 1.9s.4.5 0 0zm.1-.3c-.3-.2 0-.2 0 0zm-.1-1c0 .2.8-.1.8-.8 0 .2.3.6.4.6-.7.6-1.2.8-1.2.2zm.7.9c-.1 0 0-.3 0 0zm.6-.2c-.7-.1 0-.8 0 0zm0-1.9c.5.5-.2.3 0 0zm.3-.3c-.5 0 0-.2 0 0zm.1-1.5c-.1 0-.1-.4 0 0zm0-1.3s-.1-.5 0 0zm.1 4.2c-.4-.4.5.1 0 0zM28.7 18.6h2.8c.6 0 1.1-.5 1.1-1.1v-2.6c0-.1 0-.2-.1-.3v-.1c-.1-.4-.6-.8-1-.8h-2.8c-.6 0-1.1.5-1.1 1.1v2.6c0 .7.5 1.2 1.1 1.2zm3.7-1.3c-.3 0 .2-.2 0 0zm.1-1.6c0 .2-.7.4 0 0zm-.4 2s.2-.1 0 0zm-.1-.9c-.1.3.1-.3 0 0zm-.3.6c0 .1-.1.1-.1 0-.1-.1 0-.1.1 0zM29 16.1c.1-.1.2 0 .2 0 0 .2-.2.1-.2 0zm.4.9c-.9-.3.2-.2 0 0zm.2-2.2c.4-.4-.1.4 0 0zm0 1.1c.2 0 .1 0 0 0zm-.1.5c-.5-.2.6-.3 0 0zm.2 1.9h.1c0 .5 0 0-.1 0zm.4 0c.6.2-.6.5 0 0zm-.2-.5c1-.1-.4.6 0 0zm.9-.1c-.1 1.1-.1 0 0 0zm.1-.8h-.2.2zm-.1-1.2s-.1-.5 0 0zm0 1.8c.1-.1-.1.4 0 0zm.3.8c-.1.1-.3.1 0 0zm.2 0c.1-.2 0 .2 0 0zm.1-.7c-.9.4 0-.1 0 0zm-.4-2.4c-.7-.3 0-.4 0 0zm-.4 1.5c-.3 0 0-.3 0 0zM29.5 18c-.3-.6.1-1.3.9-.7 0 0-.7.4-.9.7zm.5-1.2c-.1 0-.1-.2 0 0zm.2-3.1c.5.3-.2.4 0 0zm-.5.2c.7-.2 0 .4 0 0zm-.2.3c1.5-.4 0 .9 0 0zm0-.1c-.1.1-.5 0-.5-.1.1 0 .4.1.5.1zm-.5 1.4s-.3 0 0 0zm-.9 2.1c-.1 0-.2-.3 0 0zm.2.5c.2.3-.3 0 0 0zm.3-.9c-.1 0 .2-.4 0 0zm-.1.4c.1-.5 0 0 0 0zm0-1.8c-.8 1.1-.6-.7 0 0zm-.6-1c.4 0-.2.5 0 0zm-.1 2.4c.1-.2.2 0 0 0z"/></svg>