<svg xmlns="http://www.w3.org/2000/svg" xmlns:xlink="http://www.w3.org/1999/xlink" viewBox="0 0 46.537 46.109"><defs><path id="a" d="M0 0h46.537v46.109H0z"/></defs><clipPath id="b"><use xlink:href="#a" overflow="visible"/></clipPath><path clip-path="url(#b)" fill="#03BDD6" d="M1.258 20.619c-.321-.181.554-.307 0 0m.168.763c-.127-1.415.53.549 0 0m.557-3.516c.12-.804.943 0 0 0m.362.599c-.128.643-.274-.454 0 0m-.223 3.806c-.483.132-.13-.364-.921-.513.307-.47 2.146.513.921.513m.348 2.223c-.023-.242.363-.12 0 0m.163-2.26c-.187-.204.096.1 0 0m-.037-2.542c.344-.433.214.051 0 0m.028-1.881c.151-.385.153.016 0 0m.068 3.009c-.038-.182.398 0 0 0m.35 3.561c-.367.372-.019-.446 0 0m.041-5.34c-.35.145.089-.287 0 0m.07-1.257c.023.249-.283-.024 0 0m-.111-1.663c.054-.302.226.282 0 0m-.015 7.337c-.089-.107.174-.274 0 0m.194-1.671c.281.533-.499-.049 0 0m.062-1.759c.053-.296.235.03 0 0m.201 10.938c.223-.368.363.038 0 0m.254-5.331c-.579 0 .112-.183 0 0m-.167-7.769c-.014-.756.07-.003 0 0m.139-3.844c.076.011.115.13.056.191-.065-.021-.112-.133-.056-.191m.101 3.924c.066.064-.157.247 0 0m.024 7.884c.15.301-.381-.067 0 0m.028-5.344c-.158-.54.728.242 0 0m.362-.791c.135.435.413-.281.418.529-.43 0-1.012-.504-.418-.529m.859-5.707c.159.344.298.771-.539.251.169-.05.384-.148.539-.251m.214-1.135c-.054 0-.454.409-.194.409-.385 0-.127-.409-.558-.409.078 0 .562-.601.752 0m-.417-.712c.028-.554.508.419 0 0m.417 1.401c.345-.265.126.376 0 0m.279.573c.097.017.192.14.139.218a.118.118 0 0 1-.058-.029l-.133.066.132-.066c-.047-.043-.06-.12-.08-.189m.028-.409c.262-.226-.035.296 0 0m.139 1.472c-.014.514-.507-.416 0 0m-.056 2.251c-.124-.048-.078-.211.056-.217-.029.062-.017.164-.056.217m-.334-1.308c.547-.492.212.141 0 0m.356 1.908c0 .459-.62.006-.607-.033.144.12.839-1.084.607.033m.215 2.784c-.298-.022.359-.412 0 0m-.07-8.17c.147-.241.081.011 0 0m.39 3.734c.397.486-.67-.11 0 0m-.111-2.083c-.282.293.062-.395 0 0m.413-.747c.024.01.052.029.089.066-.102.166-.168.069-.167-.008-.147.104-.316.199-.363.155.751-.523.666-.388.441-.213m-.44-1.979c.003.012.008.072 0 0m.511-1.415c-.051 0-.095-.006-.121-.029-.031-.356.819-.899.121.029m.464.598c-.068.729-.436.001 0 0m.166 3.391c-.496 0-.081-.361 0 0m.167 3.863c-.382.016.036-.278 0 0m-.055-6.082c.229-.219.695-.15 0 0m.363 3.282c.429 1.067-.69 0 0 0m.127 2.566c-.158.251-.226-.447 0 0M7.893 7.42c.426-.512 1.701 1.147 0 0m.927.749c.026.021.071.065.073.1l-.03.002c-.1-.049-.114-.083-.043-.102m.088 1.267c-.036.275.042-.324 0 0m.379-.953c-.015.514-.507-.414 0 0m-.028-.845c-.1-.02-.112-.126-.139-.218.097.018.192.14.139.218m-.111-.627c.262-.225-.035.296 0 0m.247 4.939c-.061.337-.407-.05 0 0m.003-6.002c.147-.241.081.012 0 0m.149 6.806c.743.179-.23.259 0 0m.015-4.103c.003-.184.259-.056 0 0m.124 3.94c-.067-.393.312.083 0 0m-.037-5.525c1.449-1.01.566.523 0 0m.167-1.173c.61-.199-.02.303 0 0m.582.305c-.31-1.246.722.902 0 0m.389-.343c-.028-.238.333.224 0 0m.028.997c.031-.051.039-.125.112-.136.007.088-.034.131-.112.136m.279-2.972c.308-.395.156.482 0 0m.125 5.265c-.056-.767 1.254.229 0 0m.37-2.023a.946.946 0 0 1 .431.086.424.424 0 0 0-.006.162c.059.007.052-.092.034-.142.596.38-.69 1.576-.629.059 1.184.087.044-.15.17-.165m-.049-1.224c-.048-.305.482.115 0 0m.223-.327c.161-.697.34.305 0 0m.334.027c.441-.404.004.46 0 0m.65.187c.196 2.377-1.064.517 0 0m-.372-.923c.012.023.01.047 0 0m.14.872c.133-1.259.101.035 0 0m.294 1.605c.013.112-.408.037 0 0m.14 1.29c-.25.235-.074-.432 0 0m-.08-5.091c1.663-.634.881.52 0 0m.975 12.274c-.016-.111.135-.141 0 0m.134-6.776c-.224 0 .016-.261 0 0m-.05-.921c-.087-.11.978.299 0 0m.183-5.163c-.006.092-.058.141-.155.147.014-.085.065-.134.155-.147m-.062-.704c.145-.175.117.012 0 0m.187.968c-.098-.509.351.072 0 0m.28 6.701c-.708.736-.176-.726 0 0m.195.791c-.177.219-.122-.016 0 0m-.04-7.375c.116-.127.107-.117 0 0m.457 1.734c0 .625-.41 1.454-.41.98.055-.1.266-.444.199-.514-.14-.123.047-.391.211-.466m-.084-2.613c.359-.371-.006.572 0 0m.217-.176c.753 0-.006.153 0 0m.207-.605c.283-.204-.009.261 0 0m.197 1.103c.248.684-.559.014 0 0m-.08 1.521c.229-.218.694-.149 0 0m.329-1.902c1.013.38.169.214 0 0m.591 2.421c-.1-.021-.112-.127-.139-.219.097.018.192.14.139.219m-.001-2.04c.44-.15.51.192 0 0m.03-.586c.298-.055-.074.464 0 0m.267 7.128c.534.118-.756.478 0 0m.326 4.352c-.325.173.001-.01 0 0m-.109-2.144c.475-.956.507 1.651 0 0m.229-.682c.144.019-.111.386 0 0m.206-7.037c.334.923-1.111-.108 0 0m-.325-.746c.004-.02.392-.05 0 0m.494-.49c.074.028.052.291.031.381-.151-.064-.033-.27-.031-.381m.156-.352c-.169-.027-.029-.435 0 0m.259 2.406c-.496 0-.081-.361 0 0m.115 5.787c-.312.262-.004-.561 0 0m-.064-6.405c.184-.284.178.165 0 0m.062-1.553c-.026-.171.382-.059 0 0m.183 6.182c.024.319-.414 0 0 0m.129 2.849c.463.428-.765-.049 0 0m-.091-5.388c-.117-.257.299-.76 0 0m-.004-4.259c.319-.318.034.45 0 0m.328 5.353c.043.279-.288 0 0 0m.135-2.937c.223.001.065.035.151.222-.311-.104-.575-.219-.151-.222m-.214-2.094c.285.212.019.116 0 0m.529 1.496c-.055.133-.959.268 0 0m-.333-2.447c.217.083.002.352 0 0m.053 2.241c-.004-.072-.005-.141.031-.175.106.037.113.175-.031.175m.142-2.514c.258.057.004.184 0 0m.173 2.789c.152-.07.019.275 0 0M19.369.99c.239.189.001.06 0 0m.149 1.216c.592 0 .048-.715-.032-.819.597 0 .903.819.032.819m.527.013c.083-.191.268.179 0 0m.16-.656c.033-.127.842.074 0 0m.555.656c.027.368-.417-.054 0 0m.031-1.143c.017-.526.952-.23 0 0m.497.498c-.276.11-.638-.064 0 0m.11 10.415c.726-.739.335.276 0 0m.396-6.664c.152.111-.496.629 0 0m-.028-4.198c.127.017-.069.276 0 0m.166 1.445c-.037-.43.34.403 0 0m.009-1.936c.378-.044.089.423 0 0m.465 12.841c.077.45-.606.043 0 0m-.028-5.889c.197-.164.589.657 0 0m.028-.385c.288-.077-.039.313 0 0m.156 10.233c.004-.203.337.203 0 0m.151-13.256c.267.096.006.267 0 0m.362 3.762c.037.302-.589.011 0 0m.111-4.334c-.034-.88.149.021 0 0m.028-1.799c-.027-.128.225-.045 0 0m.028 4.525c-.118-1.003.616.119 0 0m.362-1.554c.152.792-.618.211 0 0m-.139-2.889c.076-.219.329-.209 0 0m.139 19.491c.284-.242-.061.402 0 0m.224-2.808c-.26.26.065-.324 0 0m-.056-6.433c.255.255.201.219 0 0m.056-5.753c-.02-.246.202 0 0 0m.25-4.144c.315.979-.681.059 0 0m.223 4.281c-.366.486-.184-.798 0 0m-.056-4.471c-.209-.744.44 1.216 0 0m.195 7.987c.007.579-.299-.073 0 0m-.278 1.473c-.088-.122-.058-.274 0 0m.209 1.955c.464.429-.765-.049 0 0m.18-7.162c.194.1-.178.357 0 0m0-4.989c-.126-.177.758-.832 0 0m.363 1.063c.028.077-.431.664 0 0m.053 12.547c-.106-.083-.08-.238 0 0m.086-1.888c.236.219-.298-.027 0 0m.212-.618c-.29.283.074-.351 0 0m.231 2.26c-.03.153-.334-.142 0 0m-.081-1.287c1.018.768-.221 1.852 0 0m0-12.05c.42-.65.329.325 0 0m.39 6.216c.669.402-.158.181 0 0m.307-2.181c.325.022-.362.715 0 0m-.028-.791c.167.054-.076.384 0 0m.028-1.745c.002-.008.375.04 0 0m.084 3.054c.001.002-.091 0 0 0m.028 4.361c-.142-.021.005-.156.027-.19.08.045-.013.148-.027.19m.345-3.223c-.879-.303.647.217 0 0m-.011 6.468c.686.208-.271.317 0 0m.306-11.914c-.039-.313.055.269 0 0m-.421 12.629c1.218-.199-.052.21 0 0m.642.272l.019.002a.661.661 0 0 1 .086-.11c1.032.046-.47.517.108.517-.304 0-.446-.011-.295-.381 0 .006.04-.028.082-.028m-.053-1.505c.082.152-.012.106 0 0m.139-2.29c-.265.562-.151-.044 0 0m.3 1.902c.037.426-.255-.045 0 0m.034-2.376c-.114 2.084-.864-1.582 0 0m.22 3.915c-.214.259-.351.151 0 0M27.672 2.79c.553-.738.741.596 0 0m.614.191c.384-.127-.337.153 0 0m.111 1.99c.211.026.078.334 0 0m.074 14.449c.005-.204.337.205 0 0m.093-8.588c.043-.176.401-.067 0 0m0-7.252c.008-.061.252-.046 0 0m.139 1.582c-.098-.622.502.286 0 0m.084-2.59c-.012-.101.164-.167 0 0m.057 5.662c.061.012-.089.317 0 0m-.113.635c.052-.306.425.016 0 0m.223-2.59c.419.023.011.257 0 0m.279-.245c-.001.109-.109.112-.196.137-.008-.117.1-.121.196-.137m-.178-2.554c-.027-.392.308.296 0 0m.125 3.723c.315-.308-.066.41 0 0m.22 4.474c.22.01-.051.292 0 0m.083-.709c.336-.017-.032.206 0 0m.114-1.854c-.052.587-.151-.026 0 0m-.086-1.935c-.006-.029.232-.105 0 0m.056-5.806c.102.025.091.132-.028.136-.008-.064.005-.105.028-.136m.03 3.434c-.059-.055.117-.206 0 0m.304-1.772c-.042.281-.765-.324 0 0m.112-.054c.464-.144.063.017 0 0m.223-.246c.081-.638.346.363 0 0m.223-.354c.073-.392.874-.028 0 0m.529.246c.748 0-.765.536 0 0m.418 9.404c-.503-.142.016-.081 0 0m.079-5.323c.308.329-.758-.168 0 0m-.177-3.125c.145.454.454 1.08.705 1.08-.671 0-.916.074-.705-1.08m.544.461c-.093-.53.318.023 0 0m-.276 3.952c.061.018.231.293 0 0m0 .709c.719-1.173.622-.643 0 0m.555-1.003c.315.006.05.386 0 0m0 9.939c.158-.547.426-.191 0 0m.224-13.336c0-.375.424.072 0 0m.193-.125c-.028-.233.584.163 0 0m.422 5.427c.427.016-.503.541 0 0m-.001-.52c.043.161-.284.072 0 0m.29-3.607a4.989 4.989 0 0 1-.407-.266c.246-.054.391.053.407.266m.129 2.659c.18.108-.277-.164 0 0m-.019 4.748c.077-.028.243.267 0 0m.096-6.135c.533-.133 0 .345 0 0m.288-1.011c.266.245-.455 0 0 0m-.1 15.418c.37.136.088.347 0 0m.156 7.564c.422.166-.118.955 0 0m.185-12.255a5.375 5.375 0 0 0-.096-.062l.096.062m.009-2.527c-.105-.235.147.23 0 0m.247-8.2c-.32.321-.266-.032 0 0M34.257 7c.342 0-.32.306 0 0m.145 6.621c.044.027.371.247 0 0m.097-.226c-.119-.131.008-.134 0 0m.083-.355c.719-1.173.623-.643 0 0m.103-7.914l.125.053c.494-.694.248 1.676-.125.211a1.92 1.92 0 0 1 .115-.199c-.06-.026-.115-.054-.115-.065m.233 1.377c.039 0 .066.029.078.089-.2.161-.095-.089-.078-.089m.171.704c-.213.179-.212.002 0 0m-.033 6.815c.283-.653.236.247 0 0m.329-6.429c.614.471-.394-.281 0 0m.339 5.039c.109.349-.462-.17 0 0m-.055-6.026c-.263-.542.4 0 0 0m.594 5.083c.069.175.12.277.159.335l-.001.063c0-.448-1.208-.225-.158-.398m-.399-.148c.012-.275.267-.004 0 0m.275-.438c.227 1.071-.527-.809 0 0m.127-1.288a4.989 4.989 0 0 1-.407-.266c.246-.054.39.053.407.266m.155-3.187c0-.332-.185-.063-.39-.486 3.419.329.39-.077.39.486m.819 2.041c0-.351-.366-.71.697-.27 1.661.662-.697-.362-.697.27m1.384 1.114c-.093.302-.162.032 0 0m.062.821c-.156-.155.016-.115 0 0m.159 4.345c0 1.643-.671-.929 0 0m.172-2.462c-.016.83-.462.11 0 0m.051 1.916c.415.061-.195.584 0 0m.112-.599c.016.061-.202.147 0 0m.181 2.852a5.194 5.194 0 0 0-.124-.052c.041-.02.103-.015.124.052m.03-1.462c.111-.198-.1.179 0 0m.039-3.612c.046-.139-.056.225 0 0m0 3.067c-.012-.035.251-.151 0 0m.363-.9c.686.283-.816.15 0 0m-.143-4.346c.005-.036.533-.272 0 0m.279 1.494c.056.088-.151.189 0 0m.206.648c-.163 0-.062-.049-.087-.163-.112-.5.086.127.087.163m.381.114c-.011-.08-.008-.108.004-.114a3.137 3.137 0 0 1-.268-.208c1.11-1.174.264 1.064.264.322m.034-1.758c1.484.076.227.915 0 0m.808 3.166c.302.448-.703.175 0 0M41.576 10.517c-.007.538-.352-.246 0 0m.028 1.924c.694-.091.19 1.229 0 0m.109-1.31c.042 0 .059.321 0 0m.267.294c.056.008-.12.382 0 0m.031 7.241c-.063.558-.533.085 0 0m.025 1.03c.463-.288.742.456 0 0m.097-7.501c.415.006-.042.358 0 0m.25 2.836c.057.36-.488-.003-.07-.003.024 0 .047.001.07.003m-.124 1.466c.008-.848.855-.176 0 0m.568 1.363c.008.083-.338.352 0 0m.445-3.771c-.345 0-.384-.053-.547-.289.235.036.47.151.547.289m-.44-.493c-.067 0-.084-.048-.076-.119.1-.012.104.081.076.119m.298 2.256c.492.176 0 .115 0 0m.361 7.754c-.151.407-.171-.157 0 0m.139-4.552c-.441.78-.23.076 0 0m.276 5.037c-.199.209-.544-.356 0 0m-.187-4.134c.525-.054.014.656 0 0m.187-.851c-.032-.006.092-.315 0 0m.031-3.899c-.058-.484.389.081 0 0m.062 9.617c.113-.104.159-.146 0 0m.188-.836c-.193.021.008-.363 0 0m-.126 1.627c.246.323.092.461 0 0m.246 3.728c.111.475-.883-.064 0 0m.5-11.849c.023-.464.291.288 0 0m.229 3.22c-.145-.315.089.192 0 0m-.043 3.171c.341.064-.008.068 0 0m.28-4.808c.066-.116.431.214 0 0m.497 4.955c-.067 0-.079.008-.073.017a5.293 5.293 0 0 0-.238-.076c.052-.047.252.035.311.059m-.154-2.35c.014 0 .081.331 0 0m-.56 3.112c-.012.444-.406-.303 0 0m-.833 4.958c-.019.138-.267-.06 0 0m-.442-6.101c.01-.17.049-.094 0 0m.1-1.299c.319.293-.444-.064 0 0m-.627 5.961c-.235.496-.295-.218 0 0m-.196-1.116c.146 0-.005.272 0 0m.048-7.91c.015-.341.05-.12 0 0m.023-5.018c-.351.282.017-.529 0 0m-.559 9.411c-.112-.369.606.427 0 0m.311 3.372c.071.172-.842 0 0 0m-.084 5.173c.165-.434-.114.324 0 0m-.076-1.082c-1.001-.328-.042-.014 0 0m-.182 1.216c-.589-.173.007-.031 0 0m-.506-2.733c-.309-.157.296.148 0 0m-.177-1.694c-.018-.07.272-.208 0 0m.194-4.482c.09.176-.256.725 0 0m-.032 4.864c.151-.244-.093.161 0 0m.459-2.581c-.086-.173.013-.243 0 0m.066-2.481c-.004.031-.384 0 0 0m-.431-1.678c-.289.065 0-.028 0 0m-.126 1.107c1.27 0-.508.983-.007.109.013-.023.016-.109.007-.109m-.194-2.075c0-.249.021.205 0 0m.064 14.069c-.103.264-.215-.029 0 0m-.218-8.18c.09.299-.348-.078 0 0m-.062 9.03c.048.302-.302-.039 0 0m-.155-.41c-.016-.004.036-.27 0 0m.092-4.838c.057.444-1.409.073 0 0m-.621 3.02c.105.619-.505-.465 0 0m-.316 1.501c-.085 0-.255-.911.254-.094-.056.061-.175.086-.254.094m-.066-14.763c.304.02-.256.341 0 0m-.045 8.45c.028.331-.148-.429 0 0m.093-10.665c.429.457-.61-.135 0 0m-.321 11.019c.067 0 .337.685 0 0m-.086-8.637c-.307.305.05-.054 0 0m-.097 15.88c.118.057.133.08 0 0m-.09-21.678l-.033.013c-.003-.07-.004-.15.001-.251.07.059.113.13.139.2l-.107.038m-.033.014c.01-.002.141-.051.14-.052.111.3-.116.597-.14.052m.322-2.26c-.578-.04.498 0 0 0m.125 2.436c.247-.061.162-.04 0 0m.403 1.228c.069.073.036.118-.075.118-.009-.051.006-.118.075-.118m-.132 3.286c.061.018.231.293 0 0m.243 8.208c-.027.05-.423.102 0 0m.031-1.359c-.776-1.972.004-1.123 0 0m-.031-14.708c.289-.03-.02.174 0 0m.127.865c.36.795-.117.472 0 0m.308 5.175c-.724.181.012-.245 0 0m.193-3.649c-.432.527-.104-.065 0 0m-.036 5.258c-.012-.128.025.235 0 0m-.001 6.454c-.342-.342.019-.157 0 0m-.213.604c-.315-.127.287.114 0 0m-.097-6.522c-.458.434-.13-.14 0 0m-.042 2.833c-.316-.418.18.223 0 0m.089-4.637c-.012-.487.009.187 0 0m-.098 3.169c.283-.653.236.247 0 0m-.012 8.07c.103.449-.35-.231 0 0m-.015-5.642c-.027.003-.169-.715-.169-.765 0 .006.409-.186.409.605 0 1.078-.729.774-.24.16m.501-3.682c-.054-.369.432.044 0 0m-.052-1.905c.321.017-.038.235 0 0m-.002.104c.516.219-.292-.12 0 0m-1.108-3.663c-.157 0-.006-.162.082-.273 0-.103 1.202.093-.082.273m.361-.905c.158.107.005.161 0 0m.035-.959c0 .089-.325.041 0 0m-.768 9.826c-.353.056.046-.332 0 0m-.164-6.924c-.06-.031-.272-.369 0 0m-.093 20.142c.131.594-.474-.108 0 0m-.124.616c.402.556-.76-.159 0 0m-.092.671c-.008.291 0-.215 0 0m-.157.765c-.016.091-.379.165 0 0m.062-10.818c-.63.072-.09-.385 0 0m-.095-1.427c.494-.247-.782.412 0 0m-.122-.215c-.266-.254.005-.115 0 0m-.272-1.843c.773.387.216 1.339 0 0m.209-6.388l.153.066c0 .005.003.008.003.014-.161-.006-.182-.05-.156-.08m.153 1.532c.162.115-.349.428 0 0m.05 1.738c-.15 0 .374-.584 0 0m.202-1.313c-.241-.018-.109-.27 0 0m-.029.775c.087-.363.203.038 0 0m.074 3.619c.12.668-.051-.257 0 0m.047 1.27c-.009.335-.142.291 0 0m-.217 5.213c-.149-.545.553.047 0 0m.012-9.448c.333.203.017.336 0 0m-.105 4.816c.111-.572.345.245 0 0m.373 2.55c-.069-.17.038-.251 0 0m.011-3.795c.023.493-.251-.225 0 0m-.912 2.242c.112-.774.444 0 0 0m-.009-.995c-.362-.063.255.027 0 0m.057-3.591c-.105-.019-.258-.095-.195-.191.12.009.186.073.195.191m-.102-1.743c.005-.087.232-.136 0 0m.046-1.31c-.184-.078.013-.11 0 0m-.21 3.798c.066-.464.295.241 0 0m-.217 7.154c.461-.32.055.042 0 0m-.143.693c.24.093-.223-.087 0 0m-.044 4.814c.032.032.015.106 0 0m-.015.914c.413-.07-.367.069 0 0m-.14-9.471c-.448-.284.213-.934 0 0m-.187.763c.064.285-.335-.045 0 0m-.03.909c-.217-.004.049-.544 0 0m-.217-1.144c-.394.078.269-.371 0 0m-.063 1.466c-.027-.001-.154-.336 0 0m-.093.499c.753.403-1.062.303 0 0m.156 1.495c-.578 2.031-1.877-1.66 0 0m-.716 1.273c.267-.525-.032.064 0 0m-.135 4.759c-.009.579-.178-.055 0 0m-.113-3.423c-.49-.02.403-.349 0 0m-.155-1.993c-.007.163-.515.093 0 0m-.187 3.987c-.432-.011.053-.283 0 0m-.186-13.839c-.038-.181.214 0 0 0m0 1.76c-.03.103-.973-.027 0 0m-.027 15.225c-.283.029-.02-.291 0 0m-.056 2.754c-.195.325-.034-.016 0 0m-.072-10.584c0 .284-.04-.29 0 0m.006-2.318c-.391.06.242-.044 0 0m-.309 4.634c.028.005.542.099 0 0m.208 4.396c-.097.33-.153 0 0 0m-.34-5.253c.406-.452.038-.004 0 0m-.19 6.398c-.012-.225.315.038 0 0m-.183-4.141c.172-.521.305.049 0 0m.124-12.724c-.009-.026.272-.121 0 0m-.124 8.297c.06-.306.179-.027 0 0m.124-11.053c-.268-.006.034-.299 0 0m.124 11.17c-.012-.478.459-.033 0 0m.341-2.287c-.438-.003.127 0 0 0m.25-7.182c-.152.29-.564.451 0 0m-.062-3.255c.09.176-.256.725 0 0m.062-1.876c-.29.065 0-.027 0 0m-.15-1.671c-.059-.304 1.04-.143 0 0m.581 3.349c-.004.031-.384 0 0 0m.05-5.419c.534-.585-.497.587 0 0m.383 5.448c-.04 0-.025-.494 0 0m-.491 1.899c.418-.592.856.604 0 0m.302 1.886c.134.038.113.032 0 0m.132 7.467c-.136-.136.505-.148 0 0m-.279.527c-.008-.029.359-.153 0 0m-.28-4.749c.883-.166-.028.931 0 0m.42-3.669c-.021.146-.255.275 0 0m-.016 3.053c-.212.142-.146-.024 0 0m.133 6.14c0-.09-.41-.196-.41-.264.871-1.317.524-.081.791.253-.126-.151-.103-.432-.381.011m-.03.406c.397.163-.214-.085 0 0m.427.148c-.041-.192.138.277 0 0m-.25-.42c.802.096-.358.458 0 0m.435-2.826c-1.819.159-.018-.197 0 0m-.411-8.758c.103 0 .192.374 0 0m.255-7.532c-.32.321-.266-.032 0 0m-.139 1.356c.026-.082.546-.144 0 0m.446.845c-.441.78-.231.076 0 0m.094 5.759c.488-.133-.978.268 0 0m.156-2.46c.32.292-.443-.066 0 0m-.122-5.851c.656-1.286.402 1.576 0 0m.401 4.76c-.019-.103.23-.2 0 0m.084-1.99c.11-.182.269.135 0 0m.334 4.525c.171-.36.276 0 0 0m-.034.416c.185-.264-.061.095 0 0m.029-.299c-.008.036-.014.052-.043.049-.206 0 .095-.28.043-.049m-.317 7.921c-.016-.52.956.246 0 0m.156 1.085c.26-.399.146.021 0 0m0-.821c-.399.081-.149-.499 0 0m.037-3.653c.066 0-.349.476 0 0m-.373-6.584c.428-.714.508 0 0 0m-.153 4.377c-.021-.053.178-.144 0 0m.147-.854c-.265.481-.326-.239 0 0m-.086-7.005c.119-.361-.079.252 0 0m.008-.765c.039 0 .065.03.078.089-.2.161-.095-.089-.078-.089m.246 10.091c-.024.623-1.394 1.135 0 0m-.223.927c-.122-.014.221-.434 0 0m.139 1.064c-1.924 1.017.181-1.203 0 0m-.55-3.579c-.139-.043-.142-.108-.248-.059-.013 0 .324-.277.248.059m.049 1.343c.288.166-.01.055 0 0m.106-.376c-.228.216-.218.041 0 0m-.384-2.442c-.223-.139.141.077 0 0m.116-1.036c-.15.406-.171-.158 0 0m-.384-4.32c.015-.341.05-.12 0 0m.273 3.556c-.537-.082-.065-.649 0 0m1.198-3.489c-.009-.059.217-.154 0 0m-.25 1.118c-.029-.098-.056-.322.089-.322.235 0 .6.322-.089.322M36.76 9.549c.055.352-.289-.121 0 0m0 .527c.266.245-.455 0 0 0m-.559 8.49c-.508-.065-.193.02-.746.02-.38 0 .567-1.781.746-.02M35.637 7.91c-.009-.546.006.352 0 0m-.027 1.141c.396-.157 0 .518 0 0m-.062 1.934c-.106.282-.131.105 0 0m0-2.433c-.113.248-.341-.053 0 0m-.484 6.938c-.317-.42.183.225 0 0m-.035.963c-.038.005-.241-.734.361-.734-.066 0 .212.138.212.31-.43-.501-.409-.288-.409.261 0 .966-.609.722-.164.163m-.057 16.979c.027-.113.327-.216 0 0m.084 7.197c-.62.609.096-1.077 0 0m-.557.954c.537.094-.506.288 0 0m-.146-7.539c-.227.258.186-.219 0 0m-.171-16.755c-.177.328-.068-.013 0 0m-.001 1.817c.007-.14.496-.133 0 0m.011-1.867c.214.2-.008.065 0 0m.02-.185c.171-.342.529.045 0 0m.259.048c.118.2-.203.019 0 0m.021.949c-.061-.43.376.046 0 0m.227-.731c.096.196-.337-.238 0 0m.301.291c-.369.622-.637-.182 0 0m-.062 11.493c-.05-.31.282.027 0 0m-.186 2.639c-.034-.567.536.289 0 0m-.135 8.518c-.826.161.645-.135 0 0m-.278-1.158c-.027-.279.147-.422 0 0m.31.176c.196-.011 0 .075 0 0m-.27-21.023c-.011-.6.572.491 0 0m.497 1.965c-1.503-.544.29-.558 0 0m-.676 5.632c-.083-.286.295 0 0 0m.024-2.554c-.043-.28.316.043 0 0m-.225-1.218c.005.001.059.041 0 0m-.148 12.008c.314-.044-.03.249 0 0m.466 3.166c-.227.216-1.056-.225 0 0m-.218 1.554c.028.11-.158.366 0 0m.155 3.02c-.766.989-.064-1.107 0 0m-.054.51c.02.214-.023-.251 0 0m-.287-2.475c-.204-.006.251-.33 0 0m-.242 2.265c.141.589-.629-.21 0 0m-.335-4.089c.302-.217-.01.262 0 0m.018 4.668c-.383.135-.179-.476 0 0m-.268-3.415c.091-.13.128-.182 0 0m-.028 2.672c-.21.148-.305-.427 0 0M33 42.91c.022.349-.019-.208 0 0m-.173-2.445c.025.428-.306-.036 0 0m-.111 2.154c-.136-.108-.433-.492 0 0m-.244-2.96c.146-.144.336.45 0 0m-.091 2.156c-.586-.586.327.305 0 0m-.281-4.003c.42-.102.005.224 0 0m-.093-5.336c.206-.049.064.495 0 0m-.094 8.473c.153.183-.013.098 0 0m-.031-25.869c-.122-.015.221-.435 0 0m-.069 24.113c.098.247-.075-.182 0 0m-.148 1.023c0-.008.34.067 0 0m0 3.284c.031.141-.081.134 0 0m-.108-6.593c-.327.096.014-.004 0 0m-.106 1.705c.057.21-.13-.379 0 0m-.003 5.767c-.177-.205-.001-.139 0 0m-.094-7.535c-.573.064-.043-.285 0 0m-.341.968c.06-.323.447.414 0 0m.186 4.926c-.012.052-.871-.28 0 0m-.093.615c-.314.036.057-.274 0 0m-.529-1.788c.076-.161.763-.334 0 0m.216-9.06c-.158 0-.403-.68 0 0m-.122-2.873c-.033.148-.062.117 0 0m.061-1.097c-1.133-.883.728-.596 0 0m-.341 5.202c.314-.033-.03.241 0 0m.095 3.972c-.035-.322.041.131 0 0m-.111 1.666c.177-.22.119.006 0 0m.016-2.002c.127-.144.119 0 0 0m-.217-1.496c-.025-.337.673.209 0 0m-.187.557c-.075-.433.383.383 0 0m.137 4.114c-.076-.011-.252-.523 0 0m-.137-3.616c-.158.252-.225-.447 0 0m-.214-4.917c-.329-.139.308.116 0 0m-.011 8.178c.031.285-.201-.026 0 0m-.1-1.57v-.212l.014.005v.206l-.014.001m.011-7.696l-.008-.001v-.177h.008v.178m-.183-1.5c.356-.948.233.177 0 0m-.124 7.71c-.004-.085.383-.098 0 0m-.133-4.741c.051-.28.173.201 0 0m-.147 7.322c-.37-.051.451-.575 0 0m.035 2.356c-.069.299-.007-.002 0 0m-.19-10.653c-.368-.92.058-.003 0 0M28.9 42.65c.029.363-.313-.286 0 0m-.169 1.986c-.187 1.325-.055.01 0 0m-.111-4.567c-.048-.042.198-.33 0 0m-.03 1.056c-.439.293.082-.52 0 0m-.187-.909c-.172-.277.039-.037 0 0m-.591.482c-.355-1.047.545-.012.585.531-.359.123-.377-.531-.585-.531m.311 1.805c.027.185-.097.155 0 0m-.172 2.924c-.085-.135.012-.186 0 0m-.169-1.253c-.386.021-.379-.21 0 0m-.218.733c-.205.104-.21-.041 0 0m.093-18.043c-.463.215.09-.403 0 0m-.155-.34c-.021-.318.381 0 0 0m.282-10.594c-.004.025-.562 1.78 0 0m.195-3.707c-.1-.081-.253-.236-.223-.355.1.081.294.195.223.355m-.279-.546c.126-.232.364 0 0 0m.335-8.26c.249.013-.608.883 0 0m.195 1.663c-.124.387-.458-.353 0 0m.169 2.616c-.503-.142.016-.082 0 0m.035 7.423c-.137.596-.107-.026 0 0m.046 1.029c.049.219-.62 0 0 0m.003 3.865c-.12.125-.178-.069 0 0m.199 5.193c-.858-.46.17.09 0 0m0 2.303c.292 0-.014.062 0 0m.11-7.21c-.293-.073.338-.607 0 0m.081-4.947c.134.472-.324-.063 0 0m.213.53c.005-.56.308.247 0 0m.203.566c-.396.084-.063-.291 0 0m.139-4.085c-.008.171-.434-.07 0 0m.058 1.68c-.157-.175-.105-.276 0 0m.066 8.611c-.46-.089.027-.195 0 0m-.248 5.923c.057-.098.437.19 0 0m-.374-1.713c-.459-.156.193-.179 0 0m-.027-7.11c-.273.262.033-.321 0 0m.034-5.084c.038 0 .226.024 0 0m-.062 2.454c.113 0 .206.522 0 0m.082 6.693c-.026.01.743-.318 0 0m.005 4.261c-.013-.058.266-.156 0 0m.02.393c.444.121-.008.075 0 0m.401-.649c.115.038-.043.169 0 0m.014-3.849c.241.237-.581.116 0 0m-.023-3.06c-.065.499-.912.092 0 0m-.167-3.217c-.329-.264.015-.172 0 0m.002 1.131c.153-.071.164.033 0 0m-.058-.994c.219-.223.054.004 0 0m-.375 12.092c.084.998-.601-.395 0 0m-.963 5.952c.097.148.107.164 0 0m.166-.264c-.294.139-.014-.371 0 0m-.26-7.271c-.444-.501.452 0 0 0m-.062-1.243c.73.026-.408.432 0 0m.071-9.724c.341-.054.004.543 0 0m.146 5.765c-.137-.107-.028-.469.093-.527.009.104-.018.406-.093.527m.155 3.431c-.133.195-.191-.128 0 0m-.053-8.939c.251.017-.056.302 0 0m-.025-5.846c.261.023-.041.201 0 0m-.084-1.417c.293-.303.174-.044 0 0m0-2.536c.128.029.13.182.168.3-.156-.003-.167-.146-.168-.3m.195 2.017c.245.283-.386 0 0 0m-.111 1.064c.099-.454.197 0 0 0m.223.491c-.187.181-.141-.015 0 0m-.082 2.952c-.159.048.084-.344 0 0m.224 1.105c.077.449-.607.043 0 0m.063 2.376c-.358.815-.444-.099 0 0m.076 1.194c.074.318-.37 0 0 0m-.03 9.275c-.263.225.035-.297 0 0m-.115 4.931c-.009-.106.231-.172 0 0m-.063-2.169c-.085-.092-.111-.303 0 0m-.015-1.343l.009-.01a1.319 1.319 0 0 0-.009.151c-.459-.099 0-.098 0-.141m-.084-9.358c0-.028.226-.069 0 0m.028-.681c-.22.21-.218-.47 0 0m-.058 13.036c.123.016-.063.277 0 0m.098-2.622c-.177.618-.437-.612 0 0m.014 2.786c.125.017-.066.277 0 0m.013-1.555c.242.021-.245-.021 0 0m-.68-7.546c.002-.875.21-.671 0 0m.009-5.861c-.001-.024.445-.118 0 0m.518 21.886c.019.166-.047.268 0 0m.406-2.175c.012-.153.096-.128 0 0m-.674-3.019c.255-.139.489-.088.352.348.084 0 .466.095.467.356-.93-.052-.819-.725-.819-.704m.985-3.812c-1.049-.152-.002-.148 0 0m-.017 1.291c.071 0 .126.183 0 0m.025 1.227c-.103.355-.32-.088 0 0m.271-2.518c.022.141-.423-.114 0 0m.094.88c-.121-.012-.083-.101-.031-.147.078.003.072.109.031.147m0-1.261c.077.014-.364-.761-.671-.936.593-.348 1.29.134.671.936m.471-17.166c.002.037-.399-.049 0 0m-.054 7.246c.26-.259-.066.326 0 0m.084-6.379c.254.256.202.22 0 0m.065-5.745c.004-.087.232-.136 0 0m.466-3.02c-.138.23-.964-.533 0 0m-.144.319c.379.016.081.488 0 0m.142 3.081c-.076-.727.808.255 0 0m.527-5.833c-.165.139-.519-.112 0 0m-.05 3.197c.038.319-.344-.137-.003-.036.002.012 0 .017.002.027.374-.108.553 1.036.001.009m.309 3.482c-.105-.234.146.23 0 0m.02 6.406c-.195-.001.219-.427 0 0m.028 13.031c-.01-.001.025-.39 0 0m-.187 1.791c0-.025.445-.118 0 0m0-3.706c.285.679-.661 0 0 0m-.272-3.417c.191.032.091.031 0 0m.124-6.663c-.059-.017-.026-.168 0-.191.107.023.028.142 0 .191m-.039 5.74c.442-.098-.276.265 0 0m.292-7.763c.236.219-.298-.028 0 0m-.03 2.05c.027.135-.074.145-.083.245-.133-.037.015-.227.083-.245m-.276-8.152c-.106.448-.395-.171 0 0m.028 4.166c-.374.256-.596-.11 0 0m-.225 1.696c-.113.209.127.258.055.409-.155-.031-.208-.336-.055-.409m-.086 5.966l.037-.013c.19 0 .083.006-.037.013m-.261 8.764c.177-.564.296.592 0 0m-.125 5.776c.383-.292.09.068 0 0m-.124-14.953c.257-.08.007.539 0 0m.124-12.751c-.33.283.043-.682 0 0m.195 12.263c-.331.379-.388-.113 0 0m-.197 7.393c-.077-.256.231.012 0 0m.22-.513c-.238.47-.499-.381 0 0m-.191-13.387c.042.018-.056.232 0 0m.098 1.014c-.3.546-.165-.042 0 0m-.322 5.057c.099.298-.106-.239 0 0m-.02 10.57c-.019-.085.126-.128 0 0m-.031-2.551c.171-.589.284.188 0 0m.124 3.137c-.029-.251.311 0 0 0m.038 2.699c.159.088-.1.28 0 0m-.056.436c.041-.283.279.192 0 0m.432-8.404c.459-.399-.263.233 0 0m.021 8.201c.002-.044.383-.129 0 0m.062-4.31c-.126-.033-.038-.209.031-.234.084.053-.017.177-.031.234m.621 3.783c-.134.346-.244-.24 0 0m-.383.103c.191-.064.062.535 0 0m.29 5.32c-.083.369-.629-.241 0 0m.097-3.078c.207-.026 0 .071 0 0m.152-2.581c-.231.062-.23-.178 0 0m.062 2.112c-.148-.01-.158-.352 0 0m.062-12.725c.056.626-.299-.368 0 0m-.099-1.5c.134 0 .153.242 0 0m.161-1.695c-.064.273-.174.003 0 0m.001-3.552c.873.658-.231 1.94 0 0m.372 14.194c.423.383-.311-.098 0 0m-.155 3.402c.574.05.019.515 0 0m-.156 2.931c.921-.102-.031.101 0 0m0-.029c-.771-.971.869-.391 0 0m.01-9.96c-.638.372.61-.356 0 0m-.149-2.462c.598.227-.394-.142 0 0m.232-1.68c-.037.164-.051.102 0 0m.096 2.688c-.118.308-.04-.005 0 0m-.033-4.33c-.451.317.063-.436 0 0m-.156 10.877c.25-.735.331.008 0 0m.342-3.137c-.019.404-.463-.191 0 0m.322-18.186c.283-.654.236.247 0 0m.176 10.885c-.007.044-.364.205 0 0m.124 8.943c.394 1.522-.909.007 0 0m-.003-6.065c.007.039.02.072-.018.085-.192 0-.02-.285.018-.085m-.005-.749c-.103.371.182-.69 0 0m.008-2.979c-.041-.406.387.203 0 0m.193-13.072c-.107.282-.132.104 0 0m.062 6.799c-.052.587-.151-.026 0 0m.615 18.102c-.858-.459.17.09 0 0m.341-7.841c.002.013-.35.079 0 0m-.093 9.499c-.459-.155.193-.18 0 0m-.249.645c.293 0-.013.062 0 0m.125-13.662c-.22.11-.067-.235 0 0m.013 6.18c.246.504-.342.171 0 0m.084-.273c-.274.261.033-.321 0 0m-.532 8.751c-.1-.003-.137-.066-.124-.175.152.001.152.06.124.175m-.094-4.661c-.314.491-.345-.233 0 0m-.07 8.804c-.261.692-.135.038 0 0m-.307-3.898c-.069-.271.395.137 0 0m-.244-1.651c.73.026-.407.432 0 0m.218-.558c.354-.045-.04.254 0 0m.341-8.883c-.141-.854-.002-.217 0 0m-.093 5.717c.224.691-.441-.049 0 0m-.159-8.209c-.123.492 0-.4 0 0m.004 7.447c.008.104-.019.406-.093.527-.137-.107-.028-.469.093-.527m.452 8.131c-.03 0 .108-.165 0 0m.347-1.28c-1.106-.523.556.259 0 0m.321-14.183c.043 0 .16.253 0 0m-.033 2.025c.146-.157.098.014 0 0m.089 3.779c-.024-.301.036.396 0 0m-.027-6.3c-.634-.02.065-.479 0 0m.01-7.872c-.106.448-.395-.17 0 0m-.066 2.938c.121.664-.048-.252 0 0m.122.606c.023.493-.252-.225 0 0m-.314-4.087c-.397.067-.023-.291 0 0m-.031 7.125c-.498.052.15-.26 0 0m-.315-7.326c-.229-.146.288.174 0 0m-.065-.591c-.33.282.042-.683 0 0m-.459 4.721c.93-.509.709-.194 0 0m.255-11.899c.028.48-.427-.198 0 0m-.038 7.97c.005-.087.233-.136 0 0m-.064-3.573c-.104-.14.013-.188 0 0m-.028 5.125c.12.009.185.073.195.191-.105-.018-.259-.095-.195-.191m-.87-1.581c-.022-.054.177-.144 0 0m-.354 1.957c1.434-.565.117.233 0 0m.056-5.583c-.119-.131.008-.135 0 0m-.097.225c.044.027.372.249 0 0m-2.386.239c-.485-.038.356-.324 0 0m.17 4.356c-.605-.088-.382-.265 0 0m-1.926 30.206c-.692-.226 1.004-.011 0 0m-.124 1.085c.044.049-.142.154 0 0m-.124-2.551c-.535-.02.441-.296 0 0m-.093-.234c-.339-.004-.732-1.359 0 0m-.622-2.111c.511-.297.134.156 0 0m-.059-.721c-.288-.003-.082-.016 0 0m.549-.494c-.36.001.171.524-.134.524-1.28 0-.177-.522.134-.524m-.863-7.318c.237-.21.121.011 0 0m-.084 1.309c-.812-.091.682-.256 0 0m.007 4.161c-.143-.321.124.267 0 0m.133 7.779c.15.303-.382-.068 0 0m-.474.436c.496.189-.421.265 0 0m-.141-4.479c.281.531-.497-.046 0 0m-.054 1.508c-.271.307-.1-.074 0 0m-.163-2.592c-.766-.352.052-.317 0 0m-.186 1.73c-.024.545-.373-.371 0 0m-.18 1.898c.043.217-.342.139 0 0m-.272 1.977c-.007.169.007-.419 0 0m.216-2.196c-.516 1.038-.396-.142 0 0m-.386-2.265c.829.02 0 .413 0 0m-.143-13.492c-.49-1.108.618.198 0 0m-.012 14.811c-.463-.209.005-.042 0 0m-.072.074c0 .228-.274.004 0 0m-.442-13.537c-.022-.034-.004-.065.02-.085-.102-.06-.366-.479-.366-.507.222-.114.47-.096.321.294.171 0 .351.179.351.409-.174-.023-.26-.055-.303-.088.054.059.114.15.179.293-.565.282-.502-.595-.202-.316m.191 16.509c0 .447-.107-.43 0 0m-.166-1.678c-.201-.083.164.067 0 0m-.077-10.163c-.256 0 .169-.014 0 0m-.304 6.743c.642.099-.337.53 0 0m.185 2.89c-.248.019.047-.214 0 0m-.139-.409c-.168.042.085-.316 0 0m-.004.454c-.545.527-.963-.742 0 0m-.644-1.141c-.21-.194.188.17 0 0m-.392-1.97c1.295.349-1.098.597 0 0m.093 3.811c-.381.358-.07-.944 0 0m-.289-.584c-.641.486.833-.637 0 0m-.333-3.169c.47.676-.969.07 0 0m.062 4.398c.059.405-.28-.098 0 0m-.109-1.581c.001.108-.264.156 0 0m-.056.954c-.147.356-.448-.064 0 0m-.103-1.643c.152.157-.163-.142 0 0m.02-.398c-.157.932-.463-.421 0 0m-.224 2.313c-.343.6-.497.498 0 0m-.628-.72c-.124.077-.254.026-.422.015.518-.149 1.126-.452.422-.015m.216.543c-.283-.057.045-.138 0 0m-.227.105c-.009.067.026-.199 0 0m-.239-.111c.02.416-.016-.285 0 0m-.152-5.296c.021.223-.2 0 0 0m-.176-6.568c-.011-.08.335-.034 0 0m.008 11.747c-.657-.324-.161-.465 0 0m-.349-3.537c.483-.432-.058.475 0 0m-.062-1.789c.175-.21.086.01 0 0m-.09 4.699c-.368 1.114-.35.046 0 0m-.345-10.914c.26-.268-.05.396 0 0m-.017 1.673c-.237.039.033-.304 0 0m0 8.179c-.15.318-.463-.597 0 0m-.168 2.726c-.32-.334.016-.165 0 0m.308-2.412c.051-.618-.019.271 0 0m.03-10.75c-.084-.286.057.038 0 0M19.548 34c.089-.051.174-.015 0 0m.125-3.078c.014.112-.407.037 0 0m.17 1.065c-.101-.303.017-.118 0 0m-.543-1.329c-1.392-1.673 1.984-.124 0 0m-.544 2.502c.65.094-.606.625 0 0m0 .626c-.089-.833.442.471 0 0m.14 6.752c-.183-.02-.299-.118 0 0m0 1.32c.044.755-.55-.063 0 0m-.156 2.61c-.195-.021.297-.329 0 0m-.127-6.861c.132 0-1.077.371 0 0m-.148 3.473c.168-.283-.104.178 0 0m-.098 2.889c-.061-.331.394.02 0 0m-.155-5.688c-.334-.405.546.044 0 0m.046-16.301c0-.032.45-.066 0 0m.391-8.56c-.355.297-.019-.732 0 0m0-.44c-.115-.133-.162-.188 0 0m.158-2.599c-.032.24-.755.076 0 0m-.437-.878c1.662 0 0 .59 0 0m.815-2.331c.701-.442-.556.629 0 0m.265.497c-.138.075-.308-.395 0 0m.137 5.029c-.031.152-.335-.143 0 0m-.055.382c-.064-.411.326.224 0 0m.056-7.567c.13-.047.078.325 0 0m.108 2.113c-.237.04.033-.303 0 0m-.083 2.698c.132-.316.289.113 0 0m.138-5.069c.309.016.187.289 0 0m.917 9.836c-.164-.134.01-.079 0 0m-.373-.557c.356-.948.233.177 0 0m.69-3.156c-.036-.178.307.017 0 0m.212 2.687c.084.053-.018.177-.031.234-.127-.033-.039-.209.031-.234m.483-1.218c0 .556-.086.689-.189.626-.006-.009-.01-.012-.013-.009-.204-.154-.466-1.021-.302-1.021.032 0 .049.007.059.015.015-.018.028-.035.052-.06.247.011.395.384.393.449m.136-.694c-.214.259-.351.151 0 0m.312 1.725c.414.968-1.115-.185 0 0m.139 3.824c-.22.21-.218-.469 0 0m.111.654c.01.147-.34-.163 0 0m.056 11.494c.323.335-.053.046-.051.018.012-.008-.124-.018.051-.018m.003-6.446c.317-.305-.065.404 0 0m.165-4.039c.059.289-.331-.063 0 0m-.345 9.532c-.314-.28.375.31 0 0m-.06 10.926c-.282.154.204-.129 0 0m-.014-23.075c.01.031-.272 0 0 0m-.117-1.1c.252.016-.054.301 0 0m-.188 6.496c.309-.211.207.628 0 0m-.202-2.07c.475-.956.507 1.651 0 0m-.17 18.705c-.1-.379.352.338 0 0m-.063-6.567c0-.031.45-.066 0 0m-.063-6.815c.237-.21.121.012 0 0m-.069-7.895c.081.676-.215-.024 0 0m-.024-3.849c.106.495-.355-.142 0 0m-.028.326c.035-.073.34-.041 0 0m.155.877c.035-.147.062-.117 0 0m.105 4.407c-.227 0 .041-.392 0 0m.228 2.968c.005.001-.186.026 0 0m.102-6.29c-.429-.123.005-.027 0 0m-.306 4.433c-.001 0-.017-.437 0 0m.194 2.126c-.805-.195-.048-.266 0 0m-.473 4.88c-.293-.007.388-.437 0 0m-.158 16.376c-.081-.024.327-.047 0 0m-.16-1.546c-.122-.704.485.328 0 0m-.03-1.481c-.459.239.553-.325 0 0m-.185 1.547c.568.333-.39-.222 0 0m-.247-2.983c.11-.18.294.521 0 0m-.035-9.045c-.119-.572.648.053 0 0m.054-13.973c.025.219-.281-.022 0 0m.148 1.318c.064.437-.4 0 0 0m-.125 6.762c-.045-.018.07-1.011 0 0m-.031-5.542c.346.075-.043.296 0 0m.37-2.865c-.199.484-.82-.695 0 0m.112 1.445c.007.046-.44.179 0 0m.175 12.141c-.435.426.062-.296 0 0m-.167-8.451c-.637-.147.202-.295 0 0m-.163 14.5c.007-.133.299 0 0 0m-.11-9.528c.346.029.08.329 0 0m.141 14.835c.116.475-.505-.245 0 0m-.146-11.165c.007-.473.111.448 0 0m.437-13.995c-.231-.105.006-.029 0 0m-.14 1.554c-.489-1.109.619.198 0 0m-.577 6.016c-.256 0 .169-.014 0 0m-.026 6.833c-.264.07-.019-.405 0 0m-.061-9.091c-.293-.205.118-.64 0 0m-.163-2.604c-.041-.023-.04-.087-.056-.136.111.009.124.081.056.136m.103-2.081c-.035.258-.43-.032 0 0m-.176-.145c.085 0 .09.167 0 0m.204-.073c-.165.235-.369-.261 0 0m-.497 5.313c-.247.021.028-.224 0 0m-.13 3.661c-.044-1.042.02.461 0 0m.125-7.338c-.321.038.046-.17 0 0m.085-1.863c.023.14-.423-.113 0 0m.063.733c.079.003.073.109.031.147-.121-.012-.083-.101-.031-.147m-.08 4.162c.03-.058.393.4 0 0m-.265-4.593c.84.227-.557-.141 0 0m-.17 5.121c.615.641-.88 0 0 0m-.404 5.936c-.06.588-.957 0 0 0m-.418 4.853c-.022-.493.174.023 0 0m-.056.627c.064-.134.298.285 0 0m-.036-15.195c-.02-.07.232-.021 0 0m.064 6.716c.025-.068.482.158 0 0m.167-6.379c-.309.227.035-.458 0 0m-.021-7.342c.016.004.105.025.105.034.022.658-.001-.034-.105-.034m.313 5.606c-.092.036-.035-.122 0 0m-.245 3.243c-.347.049.055-.41 0 0m.12-.962c.016.174-.105.021 0 0m.099-3.23c-.177.618-.438-.612 0 0m.559-.176c.084.998-.601-.395 0 0m-.351 4.333c-.012-.062.325-.197 0 0m.382-3.453c-1.048-.151-.001-.148 0 0m-.359-3.405c-.039-.212.104-.169 0 0m-.018 2.059c.52 0 .363-1.031.397-.938v1.033c0-.457-.819.36-.819.313a.415.415 0 0 1 .422-.408m-.065-4.54c-.26.26.065-.324 0 0m.06 3.388c-.263.225.035-.297 0 0m-.116-1.288c.178.008.019.496 0 0m-.056.817c-.107-.082-.08-.237 0 0m-.13.477c.454.006.011.447 0 0m-.459 13.133c-.484-.301.126-.116 0 0m-.325 5.871c.159-.439.49.5 0 0m.222 1.745c-.266-.362.682 0 0 0m.725-5.726c-.017-.001-.061-.355 0 0m-.056-.79c-.052-.251.373-.055 0 0m.841-3.145c-.026-.006-.091-.041-.089-.072a.64.64 0 0 1 .09.059 1.33 1.33 0 0 1 .028-.141c.865-.695-.087.713-.029.154m.357 5.407c-.51.239-.023-.896 0 0m-.318 4.479c-.186 1.028.151-.87 0 0m.011 4.082c.139.37-.055.055 0 0m.084-.136c-.007-.001-.004-.358 0 0m.067-3.607c.013.253-.325-.044 0 0m1.8-7.734c-.544.999-.335-.428 0 0m-.061 6.063c.058.394-.419.114 0 0m.005-5.246c-.224 0 .016-.261 0 0m.243-4.646c.014-.694.015.389 0 0m-.062-.323c.063-.269.217.218 0 0m.622 8.72c.615.641-.879 0 0 0m.455-16.227c-.019-.516.011.191 0 0m.042-2.742c-.034.135-.075.135 0 0m.149-.703c-.503-.073-.424-.294 0 0m-.111 3.653c.28-.016.036.333 0 0m.083.301c.219-.223.053.004 0 0m.223 3.08c-.032.24-.755.077 0 0m0-6.87c-.116-.105.054-.287 0 0m-.072 7.04c.016.004.105.025.105.034.022.658-.001-.034-.105-.034m.133.764c-.3-.065-.007-.146 0 0m.385 1.192c-.039-.212.103-.169 0 0m.46-5.856c.742.215-.337.384 0 0m.467.205c.453.006.01.447 0 0m.185-1.294c.178.009.02.496 0 0m1.891 5.159c-.49-1.109.618.197 0 0m.139-1.554c-.231-.106.006-.03 0 0m.053-1.666c.084.053-.018.177-.031.235-.127-.034-.039-.209.031-.235m.09-.412c.106.495-.355-.14 0 0m-.027.326c.035-.072.339-.04 0 0m.154.877c.036-.146.062-.117 0 0m-.008 19.066c-.048-.293.35.093 0 0m-.715-6.462c-.567.12.563-.146 0 0m-.217-.633c.565-.096-.062.508 0 0m-.032-2.416c.386-.366.18.174 0 0m-.03-1.906c-.001-.024.445-.118 0 0m.295-6.247c-.043-.154.326.041 0 0m.27 1.136c.007.045-.439.178 0 0m-.038 5.287c.25-.735.332.008 0 0m.342-3.137c-.019.404-.463-.191 0 0m.03-2.041c.081.676-.215-.025 0 0m-.061 3.742c.423.382-.311-.099 0 0m.063 7.37c.022-.031.228-.019 0 0m-.093-2.257c-.042-.27.344.07 0 0m-.073 1.386c-.595-.141.474.031 0 0m-.208-.196c-.263-.331.564-.254 0 0m-.062-7.106c.414.968-1.115-.185 0 0m-.312-1.725c-.214.259-.351.151 0 0m-.062-2.441c.025.218-.281-.022 0 0m.062 1.759c-.167.189-.151-.032 0 0m-.069.779c.345.074-.044.295 0 0m.155-1.22c.064.437-.4 0 0 0m-.529.709c.11.009.124.081.056.136-.042-.024-.041-.088-.056-.136m.025.25c.543-.553.381.314 0 0m.117-2.611c1.322-.804.29.489 0 0m.404-.85c-.164-.134.011-.079 0 0m-.372-.558c.355-.947.232.178 0 0m.263.624c.969.449-.958.283 0 0m-.279 1.2c-.035.257-.43-.032 0 0m-.111-.355c.233.019-.077.491 0 0m.036.282c-.058.192-.2-.288 0 0m-.197 1.723c.023.106-.094.13 0 0m-.023-1.216c-.121-.012-.083-.101-.031-.147.079.003.073.109.031.147m-.061 2.267c.051 0 .275.018.351.378 0 .252.171.424.156.647-.212-.174-.775-1.025-.507-1.025m.363 1.402c-.328-.049.172-.906 0 0m-.124.959c.035-.147.062-.117 0 0m.185 2.756c-.159 0-.404-.679 0 0m-.402 1.232c.314-.033-.031.241 0 0m-.279 2.299c.043-.536.769.158 0 0m-.068.378c.021-.002.061-.019.129-.068-.095 0-.151.048-.145.064-.111-.054.669-.457.208-.022a.575.575 0 0 1-.192.026m.103 2.109c-.182.039-.016-.295 0 0m-.191 7.012c.053-.296.236.029 0 0m-.112-12.157c.072-.188.212.047 0 0m.081 3.332c-.619.686-.468-.266 0 0m-.217 1.788c-.457.044.082-.24 0 0m-.175 5.477c.161.363-.017.255 0 0m-.043-2.427c.16.205-.029.187 0 0m.016-2.752c-.245.13.029-.25 0 0m.255-11.307c-.095.869-.347-.228 0 0m.296-3.248c-1.048-.151-.001-.148 0 0m-.073 3.002c.032.105-.101-.005 0 0m.127 2.272c.177-.563.296.592 0 0m-.125 5.776c.383-.292.091.068 0 0m-.124-4.72c-.028-.252.311 0 0 0m-.093-.587c-.018-.084.126-.128 0 0m-.28-.557c.356-.948.233.177 0 0m.529 1.319c.015.447-1.287-.05 0 0m.373-1.788c.084.053-.018.177-.032.234-.126-.033-.038-.209.032-.234m.038-.245c-.215.158.334-.334 0 0m-.131 4.625c-.015-.076.3-.217 0 0m-.001.165c.002-.045.383-.13 0 0m-.053-9.115c-.191-.166.052-.392 0 0m-.19.155c.84.227-.556-.14 0 0m-.875 2.656c.545-.506.014.739 0 0m.301.739c-.089-.371.143-.037 0 0m.013-3.451c-.093.038-.035-.124 0 0m-.32 2.362c.322-.595.605.244 0 0m-.139-.763c.319.286-.008.148 0 0m.114 5.452c.079.003.073.109.031.147-.121-.012-.083-.101-.031-.147m-.063-1.642c-.349-.273.101-.19 0 0m0 .909c.022.14-.423-.113 0 0m-.053 3.274c.081.676-.215-.024 0 0m.005-1.764c-.814.83-.219 0 0 0m-.311-4.342c-.064-.411.326.225 0 0m.204 3.448c-.368-.92.059-.003 0 0m-.058-6.191c.261.018-.08.029 0 0m-.007 3.424c.741-.123-.379.727 0 0m-.276 1.594c.043-.497.1-.382 0 0m.217.557c-1.048-.151-.001-.148 0 0m-.289 1.818c.088-.598.01-.01 0 0m-.271-1.554c-.085-.092-.111-.303 0 0m-.217 1.648c-.165.234-.369-.261 0 0m-.223.299c.177-.405.269.222 0 0m.172 2.597c-.293.139-.014-.371 0 0m-.041 1.683c.423-.065.072.761 0 0m-.063 5.307c-.323.071.007-.377 0 0m-.062-6.726c.097.148.107.164 0 0m-.093 5.26c.04-.36.579-.203 0 0m-.124-3.753c.03-.058.393.401 0 0m-.497 7.447c1.29.219-.011.367 0 0m-.016-.162c.02-.031.39-.487 0 0m.399-2.899c-.695-.294.417.161 0 0m-.072-3.828c.365.074-.053.162 0 0m.118-3.59c-.321.038.046-.17 0 0m.129-7.974c.463.429-.765-.049 0 0m.187 1.495c-.115-.133-.162-.187 0 0m-.204 3.017c-.364-.081.038-.238 0 0m.017-2.782c.741.215-.338.383 0 0m-.435 2.491c.023-.031.228-.019 0 0m.094 5.307c-.049-.292.349.093 0 0m.715 10.391c-.233.351-.345.035 0 0m0-1.231c-.176.161-.44-.46 0 0m.171-12.07c-.017-.082.11-.117 0 0m-.028-.164c-.145-.122.01-.075 0 0m-.061.102c-.026-.228.282.034 0 0m.197.304c-.009-.106.231-.172 0 0m-.029-1.503c.969.449-.958.283 0 0m.327 11.048c-.207.098.064-.032 0 0m.091-8.812c.007.045-.439.178 0 0m.384-5.476c.098.277-.085-.288-.087-.288.787-.535.872.123 1.096.175-.128.034-1.009.535-1.009.113m.198 19.159c.051-.172-.071.267 0 0m-.07-13.067l.104-.026-.104.026m.129 3.936c-.001 0 0-.916 0 0m.058-3.79c-.09.077-.15.13 0 0m1.118-1.612c.057-.007.085.005.098.024-.14-.213.186.014.095.124a1.333 1.333 0 0 1-.085-.112c.021.073-.136.205-.108-.036m.777 4.997c1.284.344-1.045.434 0 0m.215 4.422c.039.018.226.17.091.17-.129 0-.214-.17-.091-.17m-.107 3.753c.506.142-.408.371 0 0m.078-4.657c-.179-.015-.344-.328 0 0m-.052 3.217c-.539-.099.316.044 0 0m.343.316c-.136-.378.135.342 0 0m.207-.338c-.669-.242.005-.045 0 0m-.051-23.699c-.051.021-.021.002 0 0m-.104 5.39c-.134-.485.341-.192 0 0m-.894-7.273c-.232-.105.006-.029 0 0m.167-.709c-.19-.271.02-.329 0 0m-.056-1.69c-.158.491-.263-.043 0 0m.416 4.503c-.036.066-1.143 1.322-1.143.578.16.237-.125-.276-.064-.276a1.47 1.47 0 0 1 1.207-.302m-.945-1.913c-.122-.014.22-.434 0 0m.222 1.934c-.088-.371.143-.036 0 0m.01-.651c-.174.649-.078-.742 0 0m-.595-6.981c-.188.043-.056-.246 0 0m-.083 5.261c1.434-.564.116.234 0 0m-.086 2.406c-.064-.41.326.225 0 0m.334.564c0 .808-.16 1.398-.28 1.48.028.746-.501-.301-.108-.147a1.788 1.788 0 0 1-.022-.316v.001c0-.362-.409.468-.409.312v-.205c0-.044.832-1.162.819-1.125m-1.186 1.506c.694-.007-.029.295 0 0m.241-6.413c.052.245-.334-.015 0 0m-.053 2.578c-.3-.064-.007-.146 0 0m-.782 4.539c.885-.106-.297.429 0 0m.055-6.079c-.11.283-.193-.198 0 0m-.111-6.652c-.09.312-.026-.006 0 0m.083.545c-.239.033.034-.306 0 0m-.498 17.665c.908-.512.472-.166 0 0m.248-2.643c.178.008.019.496 0 0m-.186 1.294c.454.006.011.447 0 0m-.929-2.739c1.251-.1 0 .432 0 0m.111-8.779c.258.203-.137.19 0 0m.042 8.51c-.312.262-.004-.561 0 0m-.248-9.294c-.116.164-.084-.009 0 0m-.184 8.363c.255-.435.232.241 0 0m-.562-6.558c-.167.189-.151-.032 0 0m.126.19c-.618-.044.461-.341 0 0M20.861 4.94c.003-.244.138.257.094.257.006 0-.088.593-.094-.257m.055 6.983c.357-.147-.574 1.375 0 0m-.237-2.755a.31.31 0 0 1 .004-.032c.025.019.029.032-.004.032m-.12 5.99c.968.449-.958.283 0 0m.008-2.562c-.095.869-.347-.228 0 0m-.092-9.522c-.067-.393.312.083 0 0m.12 4.922c-.304-.105.005-.025 0 0m-.317 5.002c-.041-.217.063-.096.053-.01.089-.003.144.047.12.196.668 1.029-.409.089-.409.418-.067.434-.012-.34-.24-.34.109-.091.322-.23.476-.264m.016-10.251c-.184.327-.229-.213 0 0m-.099 3.06c-.25.234-.074-.433 0 0m-1.889 10.081c.243-.225-.028.49 0 0m-.033 1.151c.174-.987.635.243 0 0m.005-6.467c-.162.783-.014-.003 0 0m.088 21.224c-.512.486-.279-.226 0 0m-.34 2.791c-1.005-.036.406-.812 0 0m.006 3.37c.127.348-.322-.05 0 0m-.278-2.769c.113.831-.069-.337 0 0m-.224 2.688c.066-.351.571-.098 0 0m-.219 4.686c.698.035-.467.548 0 0m-.004 1.311c-.348 1.114-.646-.356 0 0m-.399-6.241c-.023.4.058-1.001 0 0m.093-.993c-.207.074-.39-.046 0 0m-.187 3.372c-.822.12.151-.633 0 0m-.008 4.489c-.113.207-.199-.01 0 0m-.112-.163c-.412-.048.232-.396 0 0m-.139-1.663c-.21-.131.186-.237 0 0m-.083.899c-.247.026.009-.188 0 0m-.056.982c-.02.118-.586-.113 0 0m.056-6.952c-.07.533-1.118-.114 0 0m-.529 7.17c-.051.202-.264-.241 0 0m-.307-4.852c.201.12-.572 0 0 0m-.01 1.094l.008.052.013.08-.021-.132m-.023 3.189c-.112.637-.484.509 0 0m-.358-4.665c.507-.43 1.248-.253 0 0m-.083 1.172c-.385-.295 0-.318 0 0m-.084 1.336c-.389.054-.005-.368 0 0m-.167-2.235c-.166.123-.966-.836 0 0m-.333 1.564c.182-1.435.185-1.42 0 0m-.057 1.162c-.078.309-.268-.474 0 0m-.251-.164c-.241-.286.352-.266 0 0m-.053-1.094c-.178.271.193-.295 0 0m-.168-1.357c-.076.125-.886-.648 0 0m-.062 1.553c.06.569-.551-.219 0 0m-.168 1.476c.14.183-.148-.186 0 0m.009 1.369a1.57 1.57 0 0 0-.248-.189l.314.104c-.056.011-.078.04-.066.085m-.058-5.102c-.171.687-.62-.542 0 0m-.433-14.943c-.161.198-.166 0 0 0m-.168.245c.032-.14.13-.131 0 0m-.006.345c.012.142-.126.242 0 0m-.046 7.933c.03.053-.507.26 0 0m-.031 3.342c-.132.031-.197.02 0 0m-.042 4.87c.091.324-.319-.233 0 0m-.175-7.04c.181.247-.449 0 0 0m-.125 1.906c-.617-.084.162-.627 0 0m-.285 4.78c-.446-.199.578-.463 0 0m.161 2.461c-.128.192-.194-.122 0 0m-.248-5.365c-.014.09-.311-.061 0 0m-.35-.74c-.45-.459-.688-.564-.769-.286-1.048-.351.188-.441.548-.463.305.024.463.15.461.815 0 .039-.194-.066-.24-.066m-.085 3.438c-.108.075-.231.162 0 0m-.249-2.111c-.052.302.02-.121 0 0m-.138.511c-.918-.385 1.162.468 0 0m-.577 1.424c-.568.542-.015-.275 0 0m-.158-4.771c-.388-.05.223-.311 0 0m-.027-1.227c-.003 1.364-.391-.082 0 0m-.199 1.462c-.102-.476.067.314 0 0m.012 1.78c-.76-.245-.142-.245 0 0m-.259-5.041c.016.092-.287 0 0 0m-.312-.417c-.303.01.134-.109 0 0m-.19 3.798c.103-.527.377.146 0 0m-.056.654c-.355.332-.263-.45 0 0m-.226 2.335c-.24-.167-.005-.068 0 0m-.48-1.183c.621-.795.024.167 0 0m.233 3.073c-.298.287-.206-.605 0 0m-.233-1.685c.312-.032-.039.293 0 0m-.001-.401c-.102-.303.017-.119 0 0m-.03.225c-.25.234-.074-.432 0 0m-.266 1.234c-.685-.431.542-.423 0 0m.125.525c-.015.06-.39-.054 0 0m-.359.061c-.236.039.033-.304 0 0m-.211-2.544c-.863-.205-.631-.631-.629-.715.202.08.797.751.629.715m-.035 2.586c-.138.076-.307-.395 0 0m-.409-2.063c-.921.169-.033-1.201 0 0m-.554-2.741c.596.561-.831-.119 0 0m.025 2.823c.43 1.067-.689 0 0 0m-.309-.691c.476.355-.579 0 0 0m-.306-7.292c-.03-.25.313.045 0 0m-.255-.327c.51.205-.017.12 0 0m.198 3.066c-.219.51-.209 0 0 0m-.975 1.772c.103-.684 1.909.561 0 0m.755 2.109c-.06.337-.407-.049 0 0m-.279.518c.219.143-.034.921 0 0m-.33-8.319c.135.513-.592-.274 0 0m-.313-5.676c.56.536-.591-.267 0 0m.111-1.908c.106.055-.055.433 0 0m.326 1.332c.027.184-.098.155 0 0m-.032 6.079c-.085-.286.056.038 0 0m.001-6.666c.008.306-.356-.064 0 0m-.169 1.929c-.059.677-.164-.59 0 0m-.07-.902c.355-.242.1.004 0 0m.085 6.223c.259-.268-.051.397 0 0m.111-5.787c-.106-.017-.025-.208 0 0m.106 7.428c.089-.052.174-.014 0 0m.124-3.078c.014.112-.407.037 0 0m.049-1.383l-.008.001-.008-.013c.009-.069.164-.098.016.012m.111 2.458c.008-.245.026-.138 0 0m.167.508c-.295-.126-.007-.091 0 0m-.173-8.335c.608.121-.321.303 0 0m.155-4.338c-.108-.056.412-.441 0 0m.112 9.647c-.067-.393.311.085 0 0m-.015 2.395c-.154-.066.275-.017 0 0m-.135-8.329c-.069-.223.321.072 0 0m.084-2.807c-.339-.016.251-.337 0 0m.11 2.377c.035.277-.314.027 0 0m.155 2.727c.029.363-.313-.286 0 0m-.098-4.75c.066.1-.012.088 0 0m0 2.78c.119.407-.233-.074 0 0m.131 8.311c-.241-.167-.006-.068 0 0m.036-3.893c-.208.145-.242-.669 0 0m.1-6.285c.175.175-.239-.236 0 0m.018-1.763c-.1.333-.03-.006 0 0m-.006-6.184c-.191-.472.283-.335 0 0m.055 7.525c.219-.289.222.232 0 0m.376 1.012c-.069.364-.517 0 0 0m-.146.755c-.037-.49.405.381 0 0m.195 3.048c.358.006-.253 0 0 0m.216-.099c.02.119-.341-.287 0 0m0 10.66c-.094.369-.717-.34 0 0m-.752-7.852c.041-.996.407 1.309 0 0m.36-4.276c.357-.158-.632.28 0 0m-.267-2.156c-.083.624 0 0 0 0zm-.037 1.47c-.047-.077.695-.04 0 0m.306 8.07c-.062-.364.11.022 0 0m-.195-5.425c1.086 0 .006.044 0 0m.585 7.47c-.284-.922.127-.483 0 0m.139-7.416c.158.238-.361.052 0 0m.028-3.707c.314-.32.246.689 0 0m.168 1.561c.276-.012.094.045 0 0m.195-1.07c-.028.404-.29-.036 0 0m.042 4.612c-.136.042-.081-.054 0 0m-.015 1.848c-.214.169-.219-.01 0 0m-.209-6.348c-.275-.555.021-.047 0 0m.182 12.319c-.004.387-.633-.286 0 0m-.363 1.881c.08-.202.328.044 0 0m.225 1.209c.153-.07.02.275 0 0m.084-1.475c-.614-.027.02-.406 0 0m.636-16.083c-.083.368-.629-.241 0 0m-.311 3.166c.076-.16.763-.333 0 0m.417 1.761c-.155-.205.173.227 0 0m-.02 1.826c.129.01.151.125.195.218-.065-.072-.204-.073-.195-.218m.024 3.965c-.031-.124.116-.146 0 0m.045 7.632c.014.112-.407.037 0 0m-.208-11.488c.076.299-.39-.086 0 0m.111 3.407c-.065-.009-.13-.018-.111-.109.071.003.108.04.111.109m-.321-4.822c.606-.093-.13.72 0 0m-.081-8.001c.285.32 0 .036 0 0m.282 2.29c-.009.265-.501-.178 0 0m-.028-1.787c-.138.076-.308-.395 0 0m-.345 7.357c.002-.026.433.041 0 0m-.062-.264c-.081-.279.323.037 0 0m.124-6.098c-.327.268.097-.274 0 0m-.141 2.033c.178-.22.119.005 0 0m.374 18.106c-.284-.053 0-.053 0 0m.107.12c-.085-.286.056.038 0 0m-.243-3.045c.455-.292.247.547 0 0m.587-11.819c-.013.053-.871-.28 0 0m-.263-8.545c.13-.048.078.324 0 0m.429-3.599c.316.873-1.03-.099 0 0m-.087 5.563c.049.007.101.251 0 0m-.311-1.436c.079.003.073.109.031.147-.079-.004-.073-.11-.031-.147m.063 1.5c.332.254-.226-.163 0 0m.069-2.287c.309.016.188.289 0 0m.009-.006c-.3-.019.008-.046 0 0m.246 2.916c-.574.064-.043-.284 0 0m-.125 5.572c.264-.285.16.009 0 0m.435-2.199c0-.009.341.067 0 0m.007 4.444c.278-.265-.039.323 0 0m-.1-1.161c.141.164-.015.119 0 0m-.045 5.353c-.026-.149.242-.286 0 0m.077 6.889c-.51.239-.022-.896 0 0m-.127-2.003c.02.678-.473.742 0 0m-.079-9.37c-.371-.127.195.064 0 0m-.172-1.835c.048.301-.319-.226 0 0m0 12.214c.105-.256.55.162 0 0m.503-1.212c-.059.393.024-.183 0 0m-.109-4.126c.301-.049.067.445 0 0m.45-7.682c.03.053-.507.26 0 0m-.032-.75c-.045.163-.252-.054 0 0m-.13.387c-.048-.213.047-.005 0 0m.324-14.537c.22.143-.034.92 0 0m.28-.519c-.061.338-.407-.049 0 0m.027 2.536c-.597.243.071-.258 0 0m-.041 7.819c.367-.732.096.323 0 0m.084-.927c.445-.055-.079.252 0 0m.892-.354c-.501-.033.356-.329 0 0m.135-.969c-.236.039.033-.304 0 0m-.108-2.114c.13-.047.078.325 0 0M11.33 19.4c.68.325-.503.066 0 0m.112.568c.215.033-.065.518 0 0m-.056 1.854c-.014-.004.089-1.01 0 0m.167 1.145c.168.703-.726-.244 0 0m-.022 3.395c-.288-.015.172 0 0 0m-.168-2.099c-.056-.244.368-.136 0 0m-.048 8.272c.397-.007-.012.246 0 0m-.062-1.877c-.018-.082.233 0 0 0m-.028-6.558c-.755-.101.23-.717 0 0m-.187 11.459c.033-.467.379.061 0 0m-.111-.546c.039-.225.348.369 0 0m.015-1.482c-.02-.117.279-.218 0 0m-.326-7.761c-.078-.025.512-.926 0 0m.031-7.602c.213.045.086.095 0 0m.155 1.056c-.176.022-.086-.401 0 0m.058-1.41c.196.073-.206-.075 0 0m.1-3.017c.699-.443-.556.628 0 0m.265.497c-.138.075-.308-.394 0 0m.036 1.209c.002.156-.614.107 0 0m.075 3.616c-.492-.348.007-.18 0 0m-.348 3.251c.55.073.01.376 0 0m-.125-7.149c.172-.214.125.006 0 0m.188 2.211c-.094.153-.252-.077 0 0m-.218.381c.238-.475.187.158 0 0m-.054 1.088c.065.01.13.018.111.109-.071-.003-.108-.039-.111-.109m.161 2.902c-.21.148-.304-.427 0 0m-.48-4.371c-.011 0 .013-.401 0 0m-.062 17.672c.062-.152.297-.15 0 0m.139-5.043c-.1-.012-.079-.142-.084-.246.095.016.061.159.084.246m-.391-17.339c-.117-.257.299-.76 0 0m.224 1.145c-.433-.506.002-.121 0 0m-.331 3.745c.316-.173-.317.181 0 0m.22 11.489c-1.019-.228.947-.444 0 0m.361-.458c-.024-.332.229-.027 0 0m-.406-2.423c0 .013.128-.035.14-.035h.044c.837 0-1.03-1.719.59-.192-.517.358-.515 1.136-.774.227m1.074 8.015c-.088.098.35-.39 0 0m.199-.558c-.063-.49.04.216 0 0m.046-1.878c-.288.594-.413-.172 0 0m-.049-13.462c.615-.572-.052.516 0 0m.158-1.808c.098.361-.284-.271 0 0m-.116-4.649c.309.016.188.289 0 0m.304-.738c.013.112-.408.037 0 0m.109-2.147c.699-.443-.556.628 0 0m.265.496c-.138.076-.307-.395 0 0m-.282 1.914c1.002-.1-.045.286 0 0m.328-1.706c-.067-.393.312.083 0 0m.092-2.363c.13-.048.078.324 0 0m.172-.264c-.3-.02.008-.047 0 0m-.009.006c.309.015.187.288 0 0m.179 2.222c.049.007.101.251 0 0m-.364 20.079c.016-.234.26-.228 0 0m-.01 4.761c.035-.244.1-.292 0 0m-.018 1.346c.168-.816.199.655 0 0m.042-10.267c-.85.583.019-.255 0 0m-.126 3.178c.162.461-.395-.335 0 0m-.139 3.217c-.29-.117.009-.029 0 0m-.195 1.172c.139-.47.47.649 0 0m0-1.134c-.461.057-.09-.582 0 0m.409-16.813c-.01.851-1.168 0 0 0m-.061 4.102c-.028-.279.146-.421 0 0m-.143 3.199l.004.038.002.018a9.923 9.923 0 0 0-.006-.056m-.149.778c.247.049.037.295 0 0m.083.655c.21-.493.391.184 0 0m.265-2.042c-.027-.389.158.371 0 0m.117-6.146c.025.125-.098.145 0 0m.082-.922c-.43-.603.194.258 0 0m.005-2.061c-.241-.166-.006-.067 0 0m-.051-2.951c.041.029-.132.014 0 0m.126.902c-.263.07-.018-.406 0 0m-.111 7.735c.027.169-.041-.185 0 0m.004 1.304c-.019-.729.322.289 0 0m.223-1.145c.01.326-.245 0 0 0m-.142.871c.197-.011 0 .075 0 0m-.826-5.015c.049.007.101.251 0 0m-.036.709c.021-.72.014-.279 0 0m.53 2.281c-.226.216-1.056-.225 0 0m-.333 17.45c.066-.572-.059.508 0 0m-.006-.263c.089.269-.068-.156 0 0m.595 1.683c.219-.384-.082.147 0 0m-.06-13.872c.069-.28.172-.021.18.121.107-.024.276.131-.064.117-.002-.025.003-.039.008-.056a.662.662 0 0 1-.124-.182m.211-11.624c-.119-.572.648.054 0 0m.258-.523c.007-.472.111.449 0 0m.208 2.07c-.087.364-.336 0 0 0m.103 11.358c-.15.121-.66-.145 0 0m-.167.79c-.279.28.056-.448 0 0m-.015 4.411c-.406-.144.041-.447 0 0m-.144.288c.064.056.062.142 0 .191-.059-.017-.026-.168 0-.191m.112.409c-.081.129-.232-.029 0 0m-.077-7.997c-.381.388-.006-.379 0 0m.152-1.309c.039-.068.28.046 0 0m-.146 2.412c.373-.098-.066.308 0 0m-.037-.311c.276-.03-.019.266 0 0m.127-2.728c.174-.247.128.007 0 0m0-.245c-.085.054-.431-.593 0 0m-.251-.663c.879-.261.012.055 0 0m.25-2.626c.007-.134.299 0 0 0m-.095 1.717c.006-.076.462.026 0 0m.258-7.876c.156.182-.228.293 0 0m-.241-3.041c1.002-.1-.045.285 0 0m.328-1.707c-.067-.393.312.085 0 0m.163 12.709c-.175.326-.155-.147 0 0m1.454 3.123c.476-.536.35.047 0 0m.152-5.511c.13-.025.381.954 0 0m.15-6.99c-.321.038.046-.17 0 0m.181-.058c-.659-.017.611-.281 0 0m.674-4.326c-1.442 1.451-.236-1.601 0 0m-.047 2.039c-.283.146.173-.765 0 0m.037 2.163c.104.707-.392 0 0 0m-.001 1.337c-.317.267.023-.475 0 0m0 5.043c.127 1.134-.495-.452 0 0m-.087 4.831c.532-1.36 1.211-.256 0 0m.628-14.596c-.014.515-.507-.415 0 0m-.047 1.522c-.231-.106.006-.029 0 0m.028 1.172c.15.192-.526.851 0 0m-.133 6.444c.015-.192.845.174 0 0m.341 2.051c.237-.21.121.011 0 0m.139-6.134c-.227 0 .041-.392 0 0m.047 8.532c-.067-.393.312.084 0 0m.076 2.674c-.011-.08.335-.034 0 0m.045 4.123c-.016-.111.135-.141 0 0m.112 2.209c-.178-.03.08-.43 0 0m-.483-6.498c-.101-.303.017-.118 0 0m-.078-.801c1.002-.101-.045.285 0 0m.311 3.547c.014.253-.324-.045 0 0m-.232-2.345c.312-.034-.038.294 0 0m.071 2.006c-.186 1.028.151-.87 0 0m-.231 1.446c-.023.968-.29-.249 0 0m-.136-1.957c.049.007.101.251 0 0m.125-2.961c.013.112-.408.037 0 0m-.304.738c.309.016.187.289 0 0m.037 9.769c.039-.069.28.045 0 0m-.152 1.308c-.381.387-.007-.378 0 0m.096-1.935c.174-.248.128.007 0 0m-.127 2.727c.276-.029-.019.267 0 0m.127-2.973c-.085.055-.43-.593 0 0m-.251-.663c.879-.261.012.055 0 0m.133-8.296c.186-.215-.139.166 0 0m-.026.322c.129-.048.078.324 0 0m.107 2.113c-.235.039.034-.304 0 0m-.139-6.461c-.076.213-.189-.056 0 0m-.084.872c-.016-.002-.06-.356 0 0m-.158 11.432c.164-.359.202-.076 0 0m.135 3.888c-.133.124-.194-.037 0 0m-.302-.208c.119-.481.34.634 0 0m.023 3.511c-.327.162.118-.064 0 0m-.358 1.396c-.267-.491.011-.838 0 0m.296-1.796c-.819.439-.476-.115 0 0m-.574.733c0-.221.267.184 0 0m-.009-14.976c.16-.437.491.5 0 0m.561-12.301c-.041-.023-.04-.088-.056-.136.111.009.124.081.056.136m.131-2.299c-.165.235-.369-.261 0 0m-.204.073c.085 0 .09.167 0 0m.358 14.638c-.26-.114.006-.03 0 0m-.175 1.036c.427.481-.275.254 0 0m.202 7.123c.008.008-.475.478 0 0m-.279-3.735c-.145.041.076-.316 0 0m.111-1.03c-.43-.603.192.257 0 0m-.092-2.769c.65.094-.606.626 0 0m-.195-.409c.064-.133.298.286 0 0m.028-.594c-.004.032-.005.028-.003.002-.017.016-.052.028-.125.025-.034-.157.091-.121.128-.07.006-.088.02-.233.028-.235a8.827 8.827 0 0 1-.024.24l-.004-.005a.437.437 0 0 0-.003.045l.003-.002m-.128 1.111c.489.674-.799.024 0 0m-.281 7.044c.228.319-.026.242 0 0m.167 4.116c.124.182.027.185 0 0m.167-7.252c-.569.83-.261-.888 0 0m.521-9.904c-.06.587-.956 0 0 0m-.117-9.23c-.026-.228.282.034 0 0m.011 2.046c.08.011.123.298 0 0m.087-.141c-.146-.122.009-.075 0 0m-.557 4.608c.101.093-.063.154-.028.272-.176-.073.077-.146.028-.272m-.12-1.418c-.248.021.027-.224 0 0m.065 3.043a1.33 1.33 0 0 1 .028-.141c.865-.695-.087.713-.029.154-.026-.006-.091-.041-.089-.072a.64.64 0 0 1 .09.059m-.175 4.479c.356.185-.015.051 0 0m-.017.38c1.503.375.004.348 0 0m-.077 9.061c-.276.3-.196-.16 0 0m-.178 9.127c-.548-.123.441-.412 0 0m-.443-2.12c.132-.173.612-.087 0 0m-.198-2.679c.06-.435.607.231 0 0m-.112 5.616c.02-.159.355-.193 0 0m.056-9.568c-.07-.004-.108-.04-.111-.11.065.01.13.018.111.11m-.027-3.79c.172-.213.125.006 0 0m.125 2.124c-.008.357-.143-.016 0 0m-.155.469c.238-.475.187.157 0 0m.106-2.985c-.025-.032.852-.355 0 0m.158-3.935c-.151.227-.246-.43 0 0m.239 8.226c-.492-.349.007-.18 0 0m-.224-1.013c-.302-.568.634-.103 0 0m.362 7.168c0-.204.005.297 0 0m-.11-2.012c-.057-.244.367-.136 0 0m.381-11.513c-.247.427-.284-.015 0 0m-.489-1.163c.136.326-.083.125 0 0m-.207.618c1.136-.216-.018.116 0 0m-.307-.219c.668.09-.75.348 0 0m-.095 6.183c.213.045.086.094 0 0m-.189 9.496c-.005.019-.053-.565-.06-.475-.075 0 .618-2.359.06.475m-.097-10.163c.366-.732.095.323 0 0m.088-1.536c.067.423-.078 0 0 0m.237-2.017c-.247 1.104-.415-.522 0 0m-.074 2.681c-.008.06-.376-.099 0 0m.083.355c0 .024-.32.101 0 0m-.141 1.301c.019.056-.314.189 0 0m-.054 3.087c.2.249-.09.123 0 0m.14-.79c-.481-.202-.105-.959 0 0m1.125-1.124c-.121-.068-.036-.234 0-.352.17.061-.068.196 0 .352m.311 8.649c0-.484.175.467 0 0m.096-1.31c.648.737-.718.038 0 0m.836-1.635c-.279.279.056-.448 0 0m-.306-.872c.459-.682.618 1.036 0 0m.586-2.692c.044-.686.732 0 0 0m.11 6.808c-.115.733-.38-.068 0 0m-.266 3.19c.003.288-.354.092 0 0m.017-.982c-.504.273.356-.202 0 0m.076-.367c.26-.216-.022.341 0 0m.373 2.932c.018.081-.314.078 0 0m0-1.29c-.804-.583.001-.005 0 0m.498-9.851c.401-.363-.095.502 0 0m-.029 9.203c.378-.007-.029.247 0 0m-.111-2.481c.472-.338-.086.486 0 0m-.308-4.252c-.135-.478.362-.569 0 0m.137 4.742c.229.143.025.155 0 0m.143-7.032c.667.089-.751.347 0 0m.835-1.171c-.223 0-.583.27-.585.435-.633-.711-.833-1.254-.25-1.254-.222 0 .144.819.835.819m-.789-11.542c.067.055.081.295 0 0m.148-4.389s-.017-.436 0 0m.13-1.577c-.561.335.076-.745 0 0m-.096-8.929c.219.143-.035.92 0 0m.279-.518c-.061.337-.408-.05 0 0m.027 2.535c-.597.243.071-.258 0 0m.017.877c-.189-.121-.186-.641 0 0m-.112 1.248c.325.328-.162-.162 0 0m.168.823c.01.147-.34-.163 0 0m-.087 9.602c-.032-.531.568.085 0 0m.111.11c-.414 0 .006-.133 0 0m-.107 5.831c.007-.134.299 0 0 0m.172 4.919c-.174-.024-.186-.392 0 0m-.195-2.59c.057-.363.446.17 0 0M17.525 8.2c.01.031-.272 0 0 0m-.083 2.917c.103-.619.398.271 0 0m-.036 3.505c.015-.694.015.389 0 0m.093-.352c-.004.121-.324-.039 0 0m.31 16.6c.144.122-.01.076 0 0m-.031-.476c.444.42-.677-.105 0 0m.17-4.159c-.061-.022-.111-.055-.111-.136.052.031.134.032.111.136m-.014-12.786c-.042-.27.344.069 0 0m.124 2.169c.15.086.008.194 0 0m.113 1.157c.016.058-.251.113 0 0m-.223 16.684c-.163-.007.397-.733 0 0m.131-16.311c-.293-.008.388-.437 0 0m-.303-8.676c.261.22-.158.16 0 0m-.056 1.009c.255-.435.232.241 0 0m-.835 2.181c-.013.431-.004 0 0 0m.046 4.516c-.328.039.048-.181 0 0m-.278-7.224c.081.676-.215-.025 0 0m.103-5.938c.012.079-.245.186 0 0m.027 1.754c-.08.059-.513-.071 0 0m-.738 12.651c.676.076-.093.687 0 0m.079-8.576c.358.18-.005.068 0 0m-.036-4.817c.029-.009.047-.022.046-.035.274-.169.073.385-.046.035m-1.464 16.609c.144.122-.01.077 0 0m-.032-.475c.445.42-.676-.105 0 0m.032-.125c-.174-.024-.186-.391 0 0m-.167-2.589c.431-.153 0 .138 0 0m.133-.261c-.598-.593.619 0 0 0m.173-1.184c-.061-.022-.111-.055-.111-.136.052.03.134.032.111.136m-.106-2.952c-.062-.234.224-.43 0 0m-.791 5.499c.326-.025-.052.277 0 0m.089-.53c-.177-.029.081-.429 0 0m.12-2.39c-.096-.015-.016-.105 0-.163.062.011.022.144 0 .163m.023-6.285c-.309.227.035-.458 0 0m-.498 4.087c0-.032.45-.066 0 0m-.017.514c.094-.017.157.128 0 0m.344 6.278c-.22 0 .141.819.836.819-.098 0-.481.542.204.475-.215.953-2.787-1.294-1.04-1.294m-.465-3.067c.015-.323.198.034 0 0m.051-8.93c.016.058-.251.113 0 0m-2.388.692c-.117-.256.299-.759 0 0m-.504 3.115c2.038.01-1.349.967.292.301-.014.075-.421-.298-.292-.301m-.703 3.261c-.241-.167-.005-.069 0 0m.145 1.644c.478.551-.928-.102 0 0m-.474 3.146c-.113-.233.123.247 0 0m-.062.207c1.117.028-.562.548 0 0m-.121-4.968c-.25.234-.074-.432 0 0m.028 2.417c-.469.117.053-.191 0 0m-.956-9.659c-.099.574.101-.667 0 0m.053 2.559c.012.079-.245.187 0 0m-.297 3.144c.39.337.906 1.279-.168.524.122-.116.232-.374.168-.524m-.013-1.374c-.048-.042-.06-.119-.08-.188.097.017.192.139.139.218a.118.118 0 0 1-.059-.03c.089-.044.062-.031 0 0m-1.585 1.54c.457-.233.035.019 0 0m.222 2.426c-.597.244.071-.258 0 0m-.556-2.219c.375.149-.233.215 0 0m.082.474c.23-.794-.151.665 0 0m-.305 6.396c.335-.067-.082.411 0 0m-.358.1c.986.683.25.734-.046.734l-.024-.056c-.249.113-.322-.23-.05-.122-.117-.304-.279-.83.12-.556m-.299 7.952c-1.014 0-.4-.446-.385-.608.288.162.886.608.385.608m.186 7.007c.011.078-.246.186 0 0m-.031-4.358c-.739.208-.449-1.078 0 0m-.529 1.322c-.182-.58.791.245 0 0m.362 2.017c-1.108-.153.035-.633 0 0m-.529-.573c0 .397-.419-.094 0 0m-.056.518c-.256.045.033-.255 0 0m-.143-3.72c-.432-.506.003-.12 0 0m-.223-1.145c-.117-.256.299-.759 0 0m-.024-3.45c-.583-.295.406-1.328 0 0m.059-6.113c-.309-.104-.008-.126 0 0m0 .528c-.128.232-.628-.531 0 0m.482 5.013c.061.245-.337-.388 0 0m-.161-2.707c-.184-.458.103.22 0 0m-.2 3.338c.877-.201.842.22 0 0m.684-4.475c.114.399-.226-.046 0 0m-.203-2.62c-.136-.376.134.341 0 0m.014 5.024c.455-.227-.399.213 0 0m-.62-2.458c1.358.679-.635 1.372 0 0m.14-1.609c.197-.117.224.749 0 0m.203-3.586c.04.019.226.17.091.17-.128 0-.214-.17-.091-.17m-.08 2.314c-.537-.099.312.043 0 0m-.625 12.068c-.321.313.016-.381 0 0m-.616-2.93c.458-.233.036.019 0 0m-.251.682c.23-.795-.151.664 0 0m.256 2.634c.083.079-.552.57 0 0m-.395-.889c.398.487-.671-.113 0 0m-.275-1.869c-.052-.019.034-.245 0 0m-.045-7.837c.124.104-.046-.019 0 0m.045 8.982c.153.457-.331.004 0 0m-.087-1.266c.12.561-.847-.282 0 0m-.113 2.235c.042.512-.309-.4 0 0m-.261-4.809c.171.151.213.197 0 0m.206 2.519c-.099-.021-.111-.126-.139-.218.098.018.193.14.139.218m.038-6.408c.037.164-.017-.015 0 0m.133 6.121c-.052.307-.404-.097 0 0m-.513-4.247c.336-.975-.165.51 0 0m-.824-1.315c.65.103-.18.355 0 0m20.451 22.9c-.105-.12-.15-.288 0 0 0 0-.001 0 0 0M.478 20.755c.02-.134.257.058 0 0m-.099.345c-.097-.044.375-.604 0 0M0 23.21c0 .151.317 1.31.831 2.962l-.046.145c.012.018.036-.039.058-.107.222.712.479 1.512.764 2.363.17-.225.395-.278.484.321a2.655 2.655 0 0 1-.289.259c.561 1.653 1.21 3.452 1.884 5.126.066-.12.236-.203.164.162a.377.377 0 0 1-.097.005 43.671 43.671 0 0 0 1.503 3.348c-.016-.039-.026-.084-.039-.126.097.017.193.14.139.218a.126.126 0 0 1-.09-.074c1.008 1.968 1.961 3.181 2.644 2.72.352.305 5.283 3.984 5.921 3.798a.226.226 0 0 0 .027.054c.023 0 .01-.023-.021-.055.039-.013.06-.044.062-.091 2.046.671 3.334.965 3.661.965-1.97 0 5.567 1.452 2.645.06-.026-.427 1.884-.368 1.884.219-1.956.877.41.418.41.627.853-.007 3.436-.497 4.669-.497 3.861 0 6.589-1.959 8.579-4.001-.085-.24-.119-.647.166-.233l-.002.064c1.793-1.882 2.97-3.789 3.832-4.261a.116.116 0 0 1-.093.016c-.443-.989.758-.172.963-.236.156.588 1.131-1.105 2.247-3.711-.065.015-.117-.019.024-.056 2.453-5.745 5.558-15.837 2.14-15.837-.297-.94-.977-2.628-1.61-3.908a.856.856 0 0 1-.161-.06c.026-.041.07-.045.114-.034-.423-.844-.821-1.489-1.065-1.59.152-.011.388-.022.516.003a12.318 12.318 0 0 0-.969-1.406 3.593 3.593 0 0 1-.211.066c-.002-.025.132-.064.202-.078-.149-.19-.305-.381-.471-.575-.091.122-.22.188-.166-.138l.031-.018a28.754 28.754 0 0 0-2.519-2.52c-.112.07-.348.075-.343-.193.05 0 .093.003.133.006C33.702 2.696 26.73-1.189 23.672.34c.225-.112-.358.011-.034.011-.511 0-1.191.048-1.879.108 0 .026-.043.039-.144.013a99.34 99.34 0 0 0-.717.067c.003.015-.032.071-.076.067a.355.355 0 0 1 .06-.066c-1.121.108-2.069.206-2.069.124 0 .283-5.375 1.133-3.987 1.133.092 0 .122-.002.258-.002-.947 0-2.897 1.061-4.514 2.109-3.041-.98-8.125 9.198-9.919 15.638l-.061-.013a.197.197 0 0 0 .06.018C.238 21.025 0 22.306 0 23.21"/><path clip-path="url(#b)" fill="#231F20" d="M23.199 10.369v6.162h5.784v3.828h-5.784v6.254c0 1.414.073 2.32.223 2.722.151.4.427.72.836.961.54.324 1.156.486 1.851.486 1.234 0 2.462-.403 3.682-1.205v3.846c-1.041.491-1.985.836-2.83 1.034-.844.197-1.758.295-2.739.295-1.114 0-2.098-.14-2.956-.422-.857-.283-1.587-.684-2.192-1.204-.605-.521-1.024-1.075-1.258-1.663-.233-.585-.35-1.435-.35-2.55v-8.554h-2.695v-3.451c.958-.31 1.779-.757 2.46-1.337a6.63 6.63 0 0 0 1.644-2.094c.414-.814.699-1.849.855-3.108h3.469z"/></svg>