<svg id="Layer_1" xmlns="http://www.w3.org/2000/svg" viewBox="0 0 46.5 46.1"><style>.st0{fill:none}.st1{fill:#03bdd6}</style><path class="st0" d="M0 0h46.5v46.1H0z"/><path class="st0" d="M0 0h46.5v46.1H0z"/><path class="st1" d="M42.9 33.2c2.5-5.7 5.6-15.8 2.1-15.8-.3-.9-1-2.6-1.6-3.9 0 0-.1 0-.2-.1h.1c-.4-.8-.8-1.5-1.1-1.6h.5c-.3-.4-.6-.9-1-1.4 0 0-.1 0-.2.1 0 0 .1-.1.2-.1-.1-.2-.3-.4-.5-.6-.1.1-.2.2-.2-.1-.7-.8-1.6-1.7-2.5-2.5-.1.1-.3.1-.3-.2h.1C33.5 2.8 26.5-1.1 23.5.4c.2-.1-.4 0 0 0-.5 0-1.2 0-1.9.1h-.1c-.2 0-.5 0-.7.1 0 0 0 .1-.1.1 0 0 0-.1.1-.1-1.1.1-2.1.2-2.1.1 0 .3-5.4 1.1-4 1.1h.3c-.9 0-2.9 1.1-4.5 2.1-3-1-8.1 9.2-9.9 15.6H.5h.1C.2 21 0 22.3 0 23.2c0 .2.3 1.3.8 3v.1l.1-.1c.2.7.5 1.5.8 2.4.2-.2.4-.3.5.3-.2.1-.3.2-.4.3.6 1.7 1.2 3.5 1.9 5.1.1-.1.2-.2.2.2h-.1c.5 1.2 1 2.4 1.5 3.3v-.1c.1 0 .2.1.1.2 0 0-.1 0-.1-.1 1 2 2 3.2 2.6 2.7.4.3 5.3 4 5.9 3.8v0s.1 0 .1-.1c2 .7 3.3 1 3.7 1-2 0 5.6 1.5 2.6.1 0-.4 1.9-.4 1.9.2-2 .9.4.4.4.6.9 0 3.4-.5 4.7-.5 3.9 0 6.6-2 8.6-4-.1-.2-.1-.6.2-.2v.1c1.8-1.9 3-3.8 3.8-4.3h-.1c-.4-1 .8-.2 1-.2.1.5 1-1.1 2.2-3.8-.1.1-.2 0 0 0zM.4 21.1c-.1 0 .4-.6 0 0zm.1-.3c0-.2.2 0 0 0zm21.4 25.1c-.1-.1-.2-.3 0 0zm21-18.8c.1.1-.9 0 0 0zm-.4-3.8s-.3 0 0 0zm0 2.4c-.1-.1 0-.2 0 0zm-.5 2.6c.2-.2-.1.2 0 0zm0-4.8c.1.1-.2.7 0 0zm0-.7v-.1c1.3 0-.5 1 0 .1zm.1-1.2c-.3 0 0-.1 0 0zm.5 2.1c-.1-.4.6.4 0 0zm.5-9.4c-.3.3 0-.6 0 0zm0 5c0-.4.1-.1 0 0zm0 7.9c.1 0 0 .3 0 0zm.2 1.1c-.3.5-.3-.2 0 0zm.9 1.5c0 .1-.2-.1 0 0zm.9-5c-.1.4-.4-.3 0 0zm.6-.8s-.1 0-.2-.1l.2.1zm-.1-2.3s.1.3 0 0zm-.3-2.6c0-.1.4.2 0 0zm-.3 4.8c.3 0 0 .1 0 0zm0-3.2c-.1-.3.1.2 0 0zm-.2-3.2c0-.5.3.3 0 0zm-.5 11.8c.1.5-.9 0 0 0zm-.4-6.9c.3.2-.5-.1 0 0zm-.1 1.3c0-.2 0-.1 0 0zm.3 1.9c.2.3.1.5 0 0zm.1-1.6c-.2 0 0-.4 0 0zm-.2.8c.1-.1.2-.1 0 0zm-.1-9.6c0-.5.4.1 0 0zm0 3.9s.1-.3 0 0zm-.2.9c.5-.1 0 .6 0 0zm.2 4.1c-.2.2-.5-.4 0 0zm-.3-5c-.4.7-.2 0 0 0zm-.1 4.5c-.2.4-.2-.2 0 0zm-.4-7.7c.5.1 0 .1 0 0zm-.3-2.3c-.1 0-.1 0-.1-.1.2 0 .2.1.1.1zm.5.5c-.3 0-.4-.1-.5-.3.2 0 .4.2.5.3zm-.5 3.8s-.3.3 0 0zm-.5-1.4c0-.9.8-.2 0 0zm.1-1.5c0 .4-.5 0 0 0-.1 0 0 0 0 0zm-.3-2.8c.4 0 0 .4 0 0zm-.1 7.5c.5-.3.8.5 0 0zm0-1c-.1.5-.5.1 0 0zm-.2 1.9c0-.2 0 .2 0 0zm-.7 2.6s-.2-.7-.2-.8c0 0 .4-.2.4.6 0 1.1-.7.8-.2.2zm0 5.7c.1.4-.3-.3 0 0zm-.2-2.9c-.8-2 0-1.2 0 0zm0 1.3c0 .1-.4.1 0 0zm-.3-8.2c.1 0 .3.3 0 0zm.1-3.2c0-.1 0-.1.1-.1 0 .1 0 .1-.1.1zm-.3-1.8c-.2 0 0-.2.1-.3 0-.1 1.2.1-.1.3zm0 .5c.2-.1.1 0 0 0zm-.4-.2c-.1 0-.1 0 0 0v-.2c.1.1.1.1.1.2.1.3-.1.6-.1 0h0zm.3-2.2c-.6-.1.5 0 0 0zm.5 0c0 .1-.3.1 0 0zm0 1c.2.1 0 .1 0 0zm.1-2c.3 0 0 .2 0 0zm.1.9c.4.8-.1.5 0 0zm.3 5.2c-.7.2 0-.3 0 0zm.2-3.7c-.4.6-.1 0 0 0zm-.4 7.2c.3-.7.3.2 0 0zm0 1.5c-.3-.5.2.2 0 0zm.1-2.9c-.5.5-.2-.1 0 0zm0-1.8c0-.5 0 .2 0 0zm.1 8.4c-.3-.2.3.1 0 0zm.2-.6c-.4-.4 0-.2 0 0zm0-6.5c0-.1 0 .2 0 0zm0-1.2c.6.3-.3-.1 0 0zm0-.1c.4.1 0 .3 0 0zm.1 1.9c-.1-.3.4.1 0 0zm.4-8.1s-.1.4 0 0zm-.3-.3c.1 0 .1.4 0 0zm-.1 1.3c.7 0 .2 1.3 0 0zm0-1.9c0 .6-.4-.2 0 0zm-.2 2.6c.3.4-.7.1 0 0zm-.9-3.2c1.5.1.3.9 0 0zm0 1.8v-.1c-.1-.1-.3-.2-.3-.2 1.2-1.2.3 1 .3.3zm-.4-.2c-.2 0-.1 0-.1-.2-.1-.4.1.2.1.2zm-.2-.6c.1.1-.1.2 0 0zm-.2-1.5s.5-.3 0 0zm.1 4.3c.7.3-.8.2 0 0zm0 9.9c0 .5-.3-.2 0 0zm0 3.8c-.1-.2 0-.3 0 0zM39 23c.8.4.2 1.3 0 0zm.3 1.9c-.3-.3 0-.2 0 0zm.3-5.5c.1-.4.2 0 0 0zm.1 3.6c.1.6-.1-.3 0 0zm-.2-3c.3.2 0 .3 0 0zm-.1-.1c-.1 0 .4-.6 0 0zm0-1.7c.1.1-.4.4 0 0zm-.2-1.6s.1 0 .2.1c-.2 0-.2 0-.2-.1zm.2 8.2c.1-.5.3.3 0 0zm.1 4.7c-.2-.6.5 0 0 0zm.2-5.3c0 .4-.1.3 0 0zm-.1-5.6c-.2 0-.1-.3 0 0zm-.2-4s.3-.1 0 0zm0-3c.1-.2 0 .2 0 0zm0 3.6c.1-.2-.1.2 0 0zm0 1.5s-.1 0-.1-.1l.1.1zm-.2-2.9c0 .1-.2.2 0 0zm-.1.6c.4.1-.2.6 0 0zm-.1-1.9c0 .8-.4.1 0 0zm-.1 5.7c-.2-.1 0-.1 0 0zm-.1 1.3c0-.1.3-.1 0 0zm.1 1.7c-.1 0-.3-.1-.2-.2.1.1.2.1.2.2zm-.1-6.3c0 1.7-.6-.9 0 0zm-.5 19.7c0 .1 0 .1 0 0zM37 29.2c.8.1-.4.5 0 0zm.2.4c0-.2.2.3 0 0zm-.4-.1c.4.1-.2-.1 0 0zm0-.4c0-.1-.4-.2-.4-.3.9-1.3.5-.1.8.3-.1-.2-.1-.5-.4 0zm-1.3-10.5c-.4 0 .6-1.8.7 0-.5-.1-.2 0-.7 0zm.5 1.3c-.1.3-.5.5 0 0zm-.2 7.2c-.4 0 .1 0 0 0zm-.3 2.3c-.1-.5.4 0 0 0zm-.2-11.2c-.2 0 .1-.3 0 0zm-.1 11.1c.1-.3.2 0 0 0zm.1-8.3s.3-.1 0 0zm.3-11.9c.4-.2 0 .5 0 0zm0-1.2c0-.5 0 .4 0 0zm.4 8.8c.1.1-.3.7 0 0zm0-1.9c-.2.1 0 0 0 0zm-.1-1.7c-.1-.3 1-.1 0 0zm.9-3c.2.2-.5 0 0 0zm0-.6c0 .4-.3-.1 0 0zm-.4 8.9c.4-.6.9.6 0 0zm.5-1.9s0-.5 0 0zm-.2 3.4c0 .1-.2.2 0 0zm0 3c-.2.2-.1 0 0 0zm-.2-11.8c.6-.6-.5.5 0 0zm0 5.4s-.4 0 0 0zm-.2 7c.9-.1 0 1 0 0zm.3 4.8s.3-.2 0 0zm.3-.5c-.2-.2.5-.2 0 0zm.5-1.4c-1.8.1 0-.2 0 0zm.9-12.7c0-.1-.1-.3.1-.3s.6.3-.1.3zm.2-1.1c0-.1.2-.2 0 0zm0 4.6c-.2 0 .1-.3 0 0zm0 .2c.2-.2-.1.1 0 0zm-.1 4.3s-.4.4 0 0zm-.4-6.6c.4-.7.5 0 0 0zm.2-2.6c.1-.2.2.1 0 0zm-.1 2c0-.1.2-.2 0 0zm-.4-4.8c.6-1.3.4 1.6 0 0zm.3 8.9c-.3.5-.3-.2 0 0zm-.1.9c-.1-.1.1-.2 0 0zm0-7.9c.1-.4-.1.3 0 0zm0-.8c.1 0 .1.1 0 0-.1.3 0 0 0 0zm-.1 4.8c.3.3-.4-.1 0 0zm-.1 2.4c.4-.1-1 .3 0 0zm-.4-1.9c-.5-.1-.1-.7 0 0zm-.3-3.6c.1-.3.1-.1 0 0zm.4 4.3c-.1.4-.1-.1 0 0zm-.1 1.1c-.2-.2.1 0 0 0zm.2 1.4c-.1 0-.1-.1-.2-.1 0 .1.3-.2.2.1zm.2 1c-.2.2-.2 0 0 0zm-.1.4c.3.2 0 0 0 0zm0-8.4c-.5.8-.3.1 0 0zm-.5-.9s.6-.1 0 0zm.2-1.3c-.4.3-.3-.1 0 0zm-.3 7.5c.1 0 .2.4 0 0zm1.1 5.3c-1.9 1 .2-1.2 0 0zm-.2-1c-.1-.1.3-.5 0 0zm.3-1c-.1.7-1.4 1.2 0 0zm.1 4.4c-.4.1-.1-.5 0 0zm0 .8c.3-.4.2.1 0 0zm-.1-1c0-.6.9.2 0 0zm.3-8.1c.2-.3.3 0 0 0zm.2-6.4c-.2-.2 0-.1 0 0zm-.1-.8c-.1.3-.1 0 0 0zm-1.4-1.1c0-.4-.4-.7.7-.3 1.7.7-.7-.4-.7.3zm-.8-2.1c0-.3-.2-.1-.4-.5 3.5.4.4 0 .4.5zm-.1 3.2c-.1-.1-.3-.2-.4-.3.2 0 .3.1.4.3zm-.2 1.3c.3 1.1-.5-.8 0 0zm-.2.4c0-.2.2 0 0 0zm.4.2c.1.2.1.3.2.3v.1c-.1-.5-1.3-.2-.2-.4zm-.6-5.1c-.3-.5.4 0 0 0zm0 6c.1.4-.4-.1 0 0zm-.2-1.6c-.1.3-.1.1 0 0zm0-2.4c-.1.2-.3-.1 0 0zm-.1-1c.6.5-.4-.3 0 0zm-.3 6.4c.2-.6.2.3 0 0zm0 1.5c-.4-.4.1.2 0 0zm0-8.3c-.2.2-.2 0 0 0zm-.2-.7c.1 0 .1 0 0 0-.1.3 0 0 0 0zm-.2-1.4c.1 0 .1 0 .1.1.5-.7.2 1.7-.1.2 0-.1.1-.1.1-.2-.1 0-.1-.1-.1-.1zm-.1 7.9c.7-1.1.6-.6 0 0zm.3 7.2c-1.5-.5.3-.5 0 0zm-.2 19.1c.2 0 0 .1 0 0zm-.5-20.2c0-.1.5-.1 0 0zm0-1.8c-.2.3-.1 0 0 0zm.3.8c-.1-.5.4 0 0 0zm.2-.8c.1.2-.3-.2 0 0zm-.3 1c0-.6.6.4 0 0zm.1-1.2c.1.2-.2 0 0 0zm-.3 0c.2-.4.5 0 0 0zm0 .1c.2.2 0 .1 0 0zm0 8.7c-.1-.3.3 0 0 0zm0-2.6c0-.3.4 0 0 0zm.6 8.4c-.1-.5.5.3 0 0zm.2-2.6c-.1-.3.2 0 0 0zm0-11.5c-.3.6-.6-.2 0 0zm-.5-4.2c-.1-.1 0-.1 0 0zm-.1.2s.4.3 0 0zM34.3 7c.3 0-.4.3 0 0zm-.1-1.3c-.3.4-.2 0 0 0zm-.2 8.2c-.1-.2.2.3 0 0zm-.1 20.2c.3-.1-.1.2 0 0zm-.1-28.4c.2.3-.5 0 0 0zm-.1 21.7c0-.3 0 .4 0 0zm-.1-3.7c.1-.2.1 0 0 0zm0-2.1c.1 0 .2.3 0 0zm.1-.5c-.7 0 0-.4 0 0zm-.4 14.7c-1.1-.5.6.3 0 0zm-.3 1.3c-.1 0 .1-.2 0 0zm-1.6-1.2c.9-.1 0 .1 0 0zm-.3-3.2c-.2.1-.2-.1 0 0zm-.1 2.6c.2 0 0 .1 0 0zm-.1 3.1c-.1.4-.6-.2 0 0zm-.3-5.3c.2-.1.1.5 0 0zm.4-.1c-.2.3-.3-.3 0 0zm-.6-3.8c-.1 0 0-.2 0-.2.1 0 0 .1 0 .2zm-.1 4.3s.4-.1 0 0zm0-8.2c.4-.4-.3.2 0 0zm-.5 8.4c.1-.3.3.2 0 0zm.1-.4c.2.1-.1.2 0 0zm0-2.7c-.1-.3.3 0 0 0zm-1.2-5.4c-.9-.5.2.1 0 0zm-.3 3.1c-.2.2.1-.3 0 0zm.3-.8c.3 0 0 .1 0 0zm.2-.6c-.4-.2.2-.2 0 0zm.3-13c-.6-.1-.4-.3 0 0zm-.3 1.5c.1.4-.4-.1 0 0zm.1-5.9c-.5 0 .4-.3 0 0zm.7 3.8s-.4-.1 0 0zm-.1 7.2c.3-.3-.1.3 0 0zm0 2.2c-.5-.1 0-.2 0 0zm-.1-8.7c-.2-.1-.1-.2 0 0zm-.1-1.6c0 .1-.4-.1 0 0zm-.2 5.4c.2-.2 0 0 0 0zm0-.1c-.3-.3 0-.2 0 0zm0 1.1c.2 0 .2.1 0 0zm.1-2.4c-.4.1-.1-.2 0 0zm-.2-.5c0-.6.3.2 0 0zm-.2-1.2c.1 0 .3 0 0 0zm.5 6.2c-.1.5-.9.1 0 0zm-.4 7.2c-.1-.1.2-.2 0 0zm0 .4c.4.1 0 0 0 0zm0-4.7c-.1 0 .7-.3 0 0zm.4.2c.2.2-.6.1 0 0zm0 3.8c.1.1-.1.2 0 0zm-.1.8c.1-.1.4.2 0 0zm.2.8c.3-.9.2.2 0 0zm.2-15.3c.2.3.2.2 0 0zM31 16c-.2 0 .2-.4 0 0zm0 13s.1-.3 0 0zm-.3-6.2c.4-.1-.3.3 0 0zm0-5.9c.1 0 0 .1 0 .2v-.2zm.2.2c0 .1-.1.1-.1.2-.1 0 .1-.2.1-.2zM31 15c.2.2-.3 0 0 0zm0-5.4c-.1-.2.1.2 0 0zm-.3-3.5c0 .3-.4-.1 0 0 .4-.1.5 1.1 0 0zm0 2.8c-.2.5-.4-.1 0 0zm0-6c-.1.2-.5-.1 0 0zm-.5 5.9c-.1-.8.8.2 0 0zm-.1-3.1c.3 0 0 .5 0 0zm.1 21c-.2.5-.5-.4 0 0zm-.2.5c-.1-.2.2.1 0 0zm.1-12.8c-.3.5-.2-.1 0 0zm-.1-1.1c.1.1 0 .3 0 0zm.2 6.6c-.3.3-.4-.2 0 0zM30 7.6c-.3.3 0-.7 0 0zm-.1 12.7c.2 0 0 .6 0 0zm.3-14.9c-.1.2-1-.6 0 0zm-.5 3c.1-.1.3-.2 0 0zm.1 11c.1.3-.1-.2 0 0zm-.1 8c.2-.6.3.2 0 0zm.3 7.9c.4-.3.1.1 0 0zm.1-5.8c.2-.5.3.6 0 0zm.3-8.7c0-.1 0-.1 0 0 .2-.1.1-.1 0 0zm.1-6c-.1.2.1.3.1.4-.2 0-.3-.3-.1-.4zm.2-1.7c-.4.2-.6-.1 0 0zm-.1 10.6c.2 0 .1 0 0 0zm.3 3.4c.2.7-.7 0 0 0zm0 3.7s.4-.1 0 0zm.3 4.1c-.1-.1-.2-.4 0 0zm.2-25.6s.4.2 0 0zm.1-.2c-.1-.2 0-.2 0 0zm-.1 2.9c-.5-.1 0 0 0 0zm-.2 11.5c.6.2-.3-.2 0 0zm.1-4.6c0 .3-.2 0 0 0zm.2 1.2c-.4.4.1-.4 0 0zm.1 4.4c-.1.3-.1 0 0 0zm-.1-2.7c-.1.1-.1.1 0 0zm-.1 4.1c-.6.4.6-.3 0 0zm0 5.1c.2-.7.3 0 0 0zm.3-3.1c0 .4-.4-.2 0 0zm-.4-12.5c.9.6-.2 1.9 0 0zm-.1 5.2c.1 0 .1.3 0 0zm.1 1.5c0 .7-.3-.3 0 0zm.1 13.8c-.8-1 .9-.4 0 0zm.1-2.9c.6 0 .1.5 0 0zm.2-3.4c.4.4-.3-.1 0 0zm-.3-15c1.5-.5.2.3 0 0zm.4-1.9c0-.1.2-.2 0 0zm.2-3c.3-.7.3.2 0 0zm.2 10.9s-.3.2 0 0zm.1 8.9c.4 1.5-.9 0 0 0zm.4-15.2c.1 0 .2.1.2.2-.1-.1-.3-.1-.2-.2zm0-5.2c-.1-.1 0-.1 0 0zm.1 3.6c0-.1.2-.1 0 0zm0-8c0 .5-.4-.2 0 0zm-.3 11.9c1-.5.7-.1 0 0zm.5-4.7c-.3.3 0-.7 0 0zm.1.6c-.3-.1.2.2 0 0zm.3 7.3c-.5.1.1-.2 0 0zm0-7.1c-.4.1 0-.3 0 0zm-.2 21.2c.3 0 0 0 0 0zm.1-13.7c-.2.1 0-.2 0 0zm.1 6.2c.2.5-.4.1 0 0zm0-.3c-.2.3.1-.3 0 0zm-.2 5.5c-.8-.5.2 0 0 0zm-.4-7.6c-.2-.9 0-.2 0 0zm-.2-10.6c0 .6-.1 0 0 0zm.1 16.3c.2.7-.5 0 0 0zm-.2-.7c0 .1 0 .4-.1.5-.1-.1 0-.5.1-.5zm0-7.5c-.1.5 0-.4 0 0zm-.1 11.4c.4-.1 0 .2 0 0zm-.1-13.2c0-.4.4.2 0 0zm0 3c-.1.4.2-.7 0 0zm0 .8c.1 0 .1 0 0 0-.2 0 0-.3 0 0zm-.1 9.9c.7.1-.4.5 0 0zm.2 1.7c0-.3.4.1 0 0zm.3 3.9c-.2.7-.1 0 0 0zm.1-8.8c-.3.5-.3-.2 0 0zm.1 4.6c-.1 0-.1-.1-.1-.2.1.1.1.1.1.2zm.6-1.6c-.5-.1.2-.2 0 0zm.1-9.5s-.4.1 0 0zm.1-10.4c-.1.4-.4-.2 0 0zm-.1 2.9c.1.7-.1-.3 0 0zm.1.6c0 .5-.2-.2 0 0zm-.2-10c.5-.2 0 .3 0 0zm-.1 6.1s.2.3 0 0zm0-4.8c.2.1-.3-.1 0 0zm-.1-2.6c-.1-.1-.3-.2-.4-.3.2 0 .3.1.4.3zM33 9.1c0 .1-.3.1 0 0zm0 .5c.4 0-.5.5 0 0zm-.5-5.4c0-.3.6.1 0 0zm0 2.5c-.1.2-.1.1 0 0zm-.1-2.4c0-.4.4.1 0 0zm-.3 13.3c.2-.5.5-.1 0 0zm0-9.9c.3 0 .1.4 0 0zm-.5 1c.7-1.2.6-.6 0 0zm0-.7s.2.3 0 0zm.3-4c-.1-.5.3.1 0 0zm-.6-.4c.2.4.5 1.1.7 1.1-.7 0-.9 0-.7-1.1zm.2 3.1c.3.3-.8-.2 0 0zM31 2.6c.7 0-.8.6 0 0zm-.5-.2c0-.4.8 0 0 0zm-.3.3c.1-.6.4.4 0 0zM30 3c.5-.2.1 0 0 0zm-.1 0c0 .3-.8-.3 0 0zm-.3 1.8c-.1 0 .1-.2 0 0zm0-3.4c.1 0 .1.1 0 .1-.1-.1-.1-.1 0-.1zm-.1 5.8s.2-.1 0 0zm.1 1.9c-.1.6-.2 0 0 0zm-.1 1.9c.3 0 0 .2 0 0zm-.1.7c.2 0-.1.3 0 0zm-.2-4.5c.3-.3-.1.4 0 0zm-.1-3.7c-.1-.4.3.3 0 0zm.1 2.5c0 .1-.1.1-.2.1 0 0 .1-.1.2-.1zm-.2.3c.4 0 0 .2 0 0zm-.3 2.6c.1-.3.5 0 0 0zm.1-.7c.1 0 0 .4 0 0zm0-5.6c0-.1.2-.2 0 0zm-.1 2.6c-.1-.7.5.2 0 0zm-.1-1.6c0-.1.2-.1 0 0zm0 7.2c0-.1.4 0 0 0zM28.4 5c.2 0 .1.3 0 0zm0 2.7c-.5-.1 0-.1 0 0zm0 7.4c-.1.6-.1 0 0 0zm-.2-10c-.1.4-.4-.4 0 0zm-.3 2.7c.1.1.1.2.1.3-.1 0-.1-.1-.1-.3zm.2 2.1c.2.2-.4 0 0 0zm-.2.5c.3-.3.1-.1 0 0zm.1.5c0-.4.1 0 0 0zm.2.5c-.2.2-.2 0 0 0zm-.2-8c.3 0-.6.9 0 0zm-.3 8.3c.1-.3.4 0 0 0zm.3.5c-.1-.1-.3-.2-.2-.4.1.1.2.3.2.4zm0-.4c.2 0-.1.2 0 0zm.1 2.6c-.2 0 .1-.4 0 0zm.2 1.1c.1.4-.6 0 0 0zm.2.6c0 .3-.6 0 0 0zM28.3 3c.4-.1-.4.1 0 0zm-.6-.2c.5-.7.7.6 0 0zm0 11.3c-.2.3-.3.2 0 0zm-.2-3.9c-.1 2.1-.9-1.6 0 0zm0 2.4c0 .4-.3 0 0 0zm-.3-1.9c-.3.6-.2 0 0 0zM27 13c.1.1 0 .1 0 0zm.1 1.5l.1-.1c1 0-.5.5.1.5-.3 0-.4 0-.2-.4-.1 0-.1 0 0 0zm.1 1.1c.1.5-.4-.1 0 0zm-.1.7c-.1 0 0-.2 0-.2.1 0 0 .1 0 .2zm.1-.3c0-.1.3-.1 0 0zm-.8-1.8c1.3-.2 0 .2 0 0zm-.6 1.4c.2.2-.1-.3-.1-.3.3-.2.7-.4 1.2-.3 0 .1-1.1 1.3-1.1.6zm.4.9c.4-.9.2.2 0 0zm-.7-3.8c1.5-.6.1.2 0 0zm.1-5.3c-.2 0 0-.2 0 0zm.6 7c-.2.6-.1-.8 0 0zm0 .6c-.1-.3.1 0 0 0zm-.2-1.9c-.1 0 .2-.4 0 0zm.5-2.6c-.2.5-.3 0 0 0zm.1 1.7c-.2-.3 0-.3 0 0zm-.2.7c-.2-.1 0 0 0 0zm.5-11.3c-.1-.3 0 .3 0 0zm-.3 11.9c.6.2-.3.3 0 0zm0-6.5c-.9-.3.6.3 0 0zm-.4 3.3c-.1 0 0-.2 0-.2.1 0 0 .1 0 .2zm0-4.4s-.1 0 0 0zm-.1-3.1s.4.1 0 0zm0 1.8c.2 0-.1.4 0 0zm0 .8c.3 0-.3.7 0 0zm-.3 2.2c.7.4-.2.1 0 0zm-.4-6.3c.4-.6.3.4 0 0zm0 12.1c1 .8-.2 1.8 0 0zm0 1.7c0-.4.4.2 0 0zm.1-.4c0 .1-.3-.2 0 0zm-.2-2.3c-.3.3 0-.3 0 0zm-.2.6c.2.3-.3 0 0 0zm-.1 1.1c.2 0 0 .5 0 0zm-.2 1.3c.5 0 0 .5 0 0zm.2-.5c-.1-.1-.1-.2 0 0zm-.1-12.5c0 .1-.4.6 0 0zm-.1 8.3c.1.3-.3 0 0 0zm0 2.6c-.3-.1 0-.1 0 0zm-.2-12c-.2-.2.7-.8 0 0zm0 5c.1.1-.2.4 0 0zm-.2 8.9c.7.2-.4.4 0 0zm0-1.7c.4.4-.8-.1 0 0zm-.2-2c-.1-.1-.1-.3 0 0zm.2-1.5c0 .6-.3 0 0 0zm-.2-7.9c-.2-.8.5 1.2 0 0zm.1 4.4c-.4.5-.2-.8 0 0zm-.2-4.3c.3 1-.7.1 0 0zM24 5.7c-.2 0 .1-.4 0 0zm-.1-.6c-.1.3 0 0 0 0zm.1 6.7c-.1.2-.1-.2 0 0zm-.2-5.4c0-.3.2 0 0 0zm0 5.7c.2.3.2.3 0 0zm-.3-10.2c0-.2.3-.2 0 0zm.1 2.9c.2.8-.6.2 0 0zm-.4 1.5c-.1-1 .7.2 0 0zm.3 5.8c-.2-.1 0-.3 0 0zm-.3 3.7c.3-.2.1.1 0 0zm0-14c0-.1.2 0 0 0zm0 1.8c0-.9.1 0 0 0zm-.1 4.3c0 .3-.6.1 0 0zm-.4-3.7c.3.1 0 .2 0 0zm-.3 3c.3-.1 0 .3 0 0zm0 .4c.2-.2.6.6 0 0zm.2 2.1c-.2.1-.1 0 0 0zM21.9.6c.4 0 .1.5 0 0zm0 2c0-.5.4.4 0 0zm-.1-1.5c.1 0-.1.3 0 0zm0 4.2c.1.1-.5.7 0 0zm-.5-3.7c-.3.1-.6-.1 0 0zM21 5.2s-.1.6-.1-.3c0-.2.1.3.1.3zm-.2-4.1c0-.6.9-.3 0 0zm0 1.1c0 .4-.5 0 0 0zm-.3.9c-.1-.4.3.1 0 0zm.1 4.9c-.3-.1 0 0 0 0zm-.4-6.4c0-.2.8 0 0 0zm.1 1.1c-.2.4-.2-.2 0 0zm-.1 3.1c-.3.2-.1-.4 0 0zM20 2.2c.1-.2.3.2 0 0zm-.5 0c.6 0 0-.7 0-.8.6 0 .9.8 0 .8zm.2 5.4c-.2.1 0-.3 0 0zm-.1-2.1c.1 0 .1.3 0 0zm0 4.8c.1-.3.3.1 0 0zm.2-5c.3 0 .1.2 0 0zM19.4 1c.2.2 0 0 0 0zm.1 6.7c-.2 0-.4-.4 0 0zm-.2 4.8c-.1-.2.1-.2 0 0zm-.1-5.3c.7-.5-.6.6 0 0zm-.8 2.3c1.6 0 0 .6 0 0zm.7 3.4c-.1 0-.1-.2 0 0zm-.6-1.4c.4.4-.8-.1 0 0zm-.2-.9c-.2.8 0 0 0 0zm.3 2.4c-.1-.2-.1-.2 0 0zm0 .4c-.3.3 0-.7 0 0zm.2-3c0 .2-.7.1 0 0zm0 .2c0 .7 0 0-.1 0h.1zm.4-.6c-.3.3 0-.3 0 0zm-.1 2.1c.2 0 0 .5 0 0zm.1-8.4c.1 0 0 .3 0 0zM19 .9c.3.1 0 .2 0 0zm.1 2.8c0 .1-.9.2 0 0zm-.2-.2v-.2c.1 0 .1.2 0 .2zm-.1-2.3c.2.1 0 .4 0 0zm-.2 1c.3.2 0 .1 0 0zm.2 2.1c.2 0 .1 0 .2.2-.3-.1-.6-.2-.2-.2zm-.1 2.9c0 .3-.3 0 0 0zm-.3-5.4c.3-.3 0 .5 0 0zm0 4.3c-.1-.3.3-.8 0 0zm-.1 2.5c.1.4-.4 0 0 0zm-.1-6.1c-.1-.2.3-.1 0 0zM18.1 4c.2-.3.2.2 0 0zm.1 6.4c-.4.3-.1-.5 0 0zm-.3 3c0-.2.4.1 0 0zm.1-8.8c-.5 0 0-.3 0 0zm-.3 4.9c.3-.5.3.2 0 0zm.1-1c.2.2-.2.1 0 0zm0-6.3c-.2 0-.1-.4 0 0zm-.3 12.1c0 .1-.3-.1 0 0zm-.1.3c0-.7 0 .4 0 0zm0-.8c-.5.3.1-.8 0 0zm-.1 1.5c0-.1 0-.2 0 0zm.3-6.3c.3.3-.2-.2 0 0zm-.1-.8s-.2 0 0 0zm.2-.5c-.2-.1-.2-.6 0 0zm-.1-.8c-.6.2.1-.3 0 0zm0-2.6c0 .4-.4 0 0 0zm-.3.5c.3.2 0 1 0 0zm.1 6.3c.1-.6.4.3 0 0zm.3-1.3c0 .2-.3-.2 0 0zm-.1-7.2c.1 0 .1.3 0 .4-.1-.1 0-.3 0-.4zm-.5.5c0-.1.4-.1 0 0zm.4.7c.3.9-1.2-.1 0 0zm-.3 7c.2.1-.1.4 0 0zm-.2.7c.5-.9.5 1.7 0 0zm.1 2.2c-.3.1 0 0 0 0zm-.3-4.4c.5.1-.8.5 0 0zm.1 2.4c0 .4 0 0 0 0zm0-1c-.3 0 0-.4 0 0zm-.4-5c0 .5-.5-.5 0 0zm0 1.5c-.2-.1 0 0 0 0zm0 1.2c.2.1-.5.8 0 0zm-.1 6.4c0-.2.8.2 0 0zm.4-10c-.1 0-.5-.1 0 0zm0-1.8c0 .1-.3.2 0 0zm-.1 6c0 .6-.3-.1 0 0zm-.2-6.8c.3-.1 0 .5 0 0zm0 .6c.4-.2.5.2 0 0zm0 2c-.1 0-.1-.1-.1-.2.1 0 .2.1.1.2zm-.6-2.4c1 .4.2.2 0 0zm.2 6.4c.4.2 0 .1 0 0zm0-4.8c.3-.2.1.4 0 0zm-.7 3.7c.1 0 .1.1 0 0zm.1 2.2s0-.1-.1-.1c.2 0 .2 0 .1.1zm-.2-.7c-.6 0 .6-.3 0 0zm-.1 5.4c-.2-.1.1-.1 0-.3.2.1 0 .2 0 .3zm-.1-5.4c-.3.1.1-.1 0 0zm.1 3.7c-.3 0 0-.2 0 0zm-.2 3.3c.1 0 .4 1 0 0zm.1-.3c.1 0 .1 0 0 0 .1 0 .1 0 .1-.1.9-.7 0 .7-.1.1.1.1 0 0 0 0zm.6-8.3c-.2.2-.4-.3 0 0zm.3-2.8c-1.4 1.5-.2-1.6 0 0zm-.4-.5c.2-.2.7-.2 0 0zM16 9c.1.8-.4 0 0 0zm0 1.4c-.3.2 0-.5 0 0zm0-3.5c-.3.1.1-.8 0 0zm-.3.9c0-.2.3 0 0 0zm.1 1.9c-.1-.1 0-.1 0 0zm-.1.2c.1 0 .2.3 0 0zm.3 5.5c.1 1.2-.5-.4 0 0zm-.3-12.6c.2.7-.6 0 0 0zm-.2-1.1c.3-.2 0 .2 0 0zm-.2.6c.7 0 0 .1 0 0zm-.3.2c.4-.4 0 .5 0 0zm.1 2.6c0 .6-.4 1.5-.4 1 .1-.1.3-.4.2-.5-.1-.2.1-.5.2-.5zM15 20.8c1.5.4 0 .4 0 0zm0-.4c.4.2 0 .1 0 0zm.4 16.6c.6.8-.8.1 0 0zm-.1 1.3c0-.4.1.5 0 0zm-.3-8.6c-.1-.1 0-.2 0-.4.1.1-.1.2 0 .4zm-1.2 1.1c-.5-.2-.1-.9 0 0zm-.1.8c.2.3-.1.1 0 0zm0-3.1c.1.1-.3.2 0 0zm.2-1.3s-.3.1 0 0zm-.1-.3s-.4-.1 0 0zm.1-2.7c-.3 1.1-.4-.5 0 0zm-.3 2c.1.4 0 0 0 0zm-.1 1.5c.4-.7.1.4 0 0zm.1 10.2s-.1-.6-.1-.5c0 0 .7-2.3.1.5zm.2-9.5c.2 0 .1.1 0 0zm.1-6.2c.7.1-.7.4 0 0zm.3.2c1.2-.2 0 .2 0 0zm.2-.6c.2.3 0 .1 0 0zm.1 12.7c0-.2.4-.1 0 0zm.2 2c0-.2 0 .3 0 0zm-.4-7.2c-.3-.5.6-.1 0 0zm.2 1.1c-.5-.4 0-.2 0 0zm-.2-8.3c-.2.3-.3-.4 0 0zm-.2 4c0-.1.9-.4 0 0zM14 29c.3-.4.2.2 0 0zm.2-.4c0 .3-.2 0 0 0zm-.2-2.1c.2-.3.2 0 0 0zm.1 3.7c-.1 0-.1 0-.1-.1l.1.1zm-.1 9.6c0-.1.4-.2 0 0zm.1-5.6c.1-.4.6.2 0 0zm.2 2.7c.2-.2.6-.1 0 0zm.5 2.1c-.6-.1.4-.4 0 0zm.1-16c-.2.4-.3 0 0 0zm.1 6.9c-.3.3-.2-.2 0 0zm.4-8c0 .1-.1.1-.1.1-.1-.2.1-.2.1-.1v-.2.2zm0 .6c0-.1.3.3 0 0zm-.1.5c.5.7-.8.1 0 0zm0 3.9c-.5.9-.2-.8 0 0zm-.1 7.3c.1.2 0 .2 0 0zm-.2-4.1c.2.3 0 .2 0 0zm0-7.9c.1-.4.4.5 0 0zm0 15c0-.3.2.2 0 0zm.5-.8c-.8.5-.4-.1 0 0zm.2-10.7c-.5-.6.2.3 0 0zm-.1-2.4c.5.5-.2.3 0 0zm.2 7.2s-.4.4 0 0zm-.2-3.8c-.2.1 0-.3 0 0zm-.4 11.5c-.2-.5.1-.8 0 0zm.4-1.4c-.3.2.1 0 0 0zm0-3.5c.1-.5.3.7 0 0zm.3.2c-.2.2-.2 0 0 0zm-.2-3.9c.2-.3.2 0 0 0zm.1-7.3c-.3-.1 0 0 0 0zm-.2.6c.6.1-.6.7 0 0zm-.8-1.2c.5-.5.4.1 0 0zm-.9-1.5c-.2 0 .1.8.8.8-.1 0-.5.5.2.5-.1 1-2.7-1.3-1-1.3zm-1.5 2.9c.1-.3.2 0 .2.1.1 0 .3.1-.1.1v-.1l-.1-.1zm.1 13.9c.2-.4-.1.1 0 0zm-.6-1.7c0 .2-.1-.2 0 0zm-.4-2.5c-.3.6-.4-.2 0 0zm0 1.9c-.1-.5 0 .2 0 0zm-.1.4l-.1.1.1-.1zm-1.2-7.9h.1c.8 0-1-1.7.6-.2-.4.4-.4 1.1-.7.2zm.4 2.4c0-.3.2 0 0 0zm-1.1.6c.3 0 0 .5 0 0zm.1 4.2c-.1.4 0-.2 0 0zm-1.1 1c.4-.3.2.5 0 0zm.2 3c-.1-.2.1.1 0 0zm-.1-.1c-.3 0 0 0 0 0zm-.5-3c-.6 0 0-.4 0 0zM8 36.8c.2-.1.1.3 0 0zm-.9-12.4c1 0 0 .1 0 0zm.1 5.5c0-.4.2 0 0 0zm-.4-4c-.2.2-.2-.6 0 0zm0 3.9c-.2-.1 0 0 0 0zm-.5-8c.6.1-.3.3 0 0zm.2 8.4c-.3-.2 0-.1 0 0zm-.2-.6c0-.2 0-.1 0 0zm-.2-1c.1.1-.4 0 0 0zm-.1 3c.1 0 .2 0 0 0zm-.5-7.7c.6.6-.5-.2 0 0zm.2-1.9c.1.1-.1.4 0 0zm.1 2.7c-.1.7-.2-.6 0 0zm-.1-.9c.4-.3.1 0 0 0zm.2.4c-.1 0 0-.2 0 0zm.1-1.4c0 .3-.4-.1 0 0zm0 6.6c-.1-.3 0 .1 0 0zm0-6.1c0 .2-.1.2 0 0zm-.3-1.4c0-.1 0-.1 0 0-.3.1-.3-.3-.1-.2-.1-.3-.3-.8.1-.6 1 .7.3.8 0 .8zm.4-.9c.3 0-.1.4 0 0zm.1 6.2c0-.1.1-.1 0 0zm.2-12.6c.2-.8-.2.7 0 0zm-.1-.4c.4.1-.2.2 0 0zm.4 7.3c.1.4-.3-.1 0 0zm.1 2c0 .4-.4-.3 0 0zm-.2-2.7c0 .2-.3 0 0 0zm-.1-2.4c-.3 0 .2-.4 0 0zm0-.9c-.2-.1.4-.5 0 0zm-.1 3.7c-.1-.2.3.1 0 0zm.1 8.3c-.1 0 .3 0 0 0zm.1-2.4c-.1-.4.3.1 0 0zm.3-10.7c-.6.2 0-.3 0 0zM6.6 14c.5-.3.1 0 0 0zm.3 5.7c.2.1-.2-.3 0 0zm.5 4.3c.4 0-.2 0 0 0zm.2-.1c.1.2-.3-.2 0 0zM7.2 21c0-.5.4.4 0 0zm-.3.8c0-.1.7 0 0 0zm0-1.2v-.1c.1 0 .1 0 0 .1zm.1-.2s0-.1 0 0zm.2 2.1c.4-.2-.6.3 0 0zm.2-2.3c-.1.4-.5 0 0 0zm-.4-1c.2-.3.2.3 0 0zm-.1-7.5c-.1-.5.3-.3 0 0zm0 6.2c-.1.3 0 0 0 0zm0 8.9c0-1 .4 1.3 0 0zm.7 7.8c-.1.4-.7-.3 0 0zm0-2.7c-.2-.9.2-.5 0 0zm.2-7.4c.1.2-.4 0 0 0zm.2-2.2c.2 0 .1.1 0 0zm.2-1c-.1.4-.3-.1 0 0zm-.2.1c-.3-.6 0-.1 0 0zm-.2-.6c.3-.3.3.7 0 0zm0 14.8c.1-.2.3 0 0 0zm.4-1.9c0 .4-.7-.3 0 0zm0-6c-.2.2-.2 0 0 0zm0-1.8c-.1 0-.1-.1 0 0zm-.1-11.6c.1-.1.2-.4.2-.5.3.3.8 1.3-.2.5zm.2-1.9s-.1 0 0 0c-.1-.1-.1-.1-.1-.2l.1.2zm.2-1.8c0 .1-.2.2 0 0zm0-2.5c-.1.6.1-.7 0 0zm.2 9.1c-.2.1-.3-.4 0 0zm0 1.8c0 .2-.5-.2 0 0zm-.3-2.3c.3.3 0 0 0 0zm.4 2.5c-.1.4-.7-.2 0 0zm-.4 3.2c.1-.2.8-.3 0 0zm0-4.2c-.3.2.1-.3 0 0zm-.2 2c.2-.2.2 0 0 0zm.1 4.1c-.1-.3.3 0 0 0zm0 .2s.4.1 0 0zm.5 5c-.1 0-.1 0-.1-.1.1 0 .1 0 .1.1zm-.1-3.4c.1.3-.4-.1 0 0zm-.2-1.4c.6-.1-.1.7 0 0zm.4 12.9c0 .1-.4 0 0 0zm0-7.6c-.1-.2.1-.2 0 0zm-.1-4c.2 0 .2.1.2.2 0-.1-.2-.1-.2-.2zm.1-1.8c-.2-.2.1.2 0 0zm.2-.6c-.1 0-.9-.3 0 0zm.3-5.9c-.4.2.1-.2 0 0zm0-2.4c-.2.3-.1-.4 0 0zm-.1 19.3c.1.7-.4.7 0 0zm0-9.4c-.4-.1.2.1 0 0zm-.2-1.9c.3-.3.2 0 0 0zm.1-5.6c-.6 0 0-.3 0 0zM9 14.8c-.3-.1 0-.1 0 0zm0 0c.3 0 .2.3 0 0zm-.1 2.3c.3.2-.2-.2 0 0zm-.1-1.5c.1 0 .1.1 0 .1v-.1zm.3 1.4c.1 0 .1.2 0 0zm.1-5.6c.3.9-1-.1 0 0zM8.8 15c.1 0 .1.4 0 0zm.3 8.4c0 .3-.3-.3 0 0zm0 12.2c.1-.3.5.1 0 0zm.4 1c-.5.2-.1-.9 0 0zm-.1-6.9c0-.2.2-.3 0 0zm0-5.4c.2.2 0 .2 0 0zm.1 1.2c.3-.3 0 .3 0 0zm0-4.4c0-.1.4 0 0 0zm0-.8c1.1 0-.5.5 0 0zm.1-.2c-.1-.2.1.2 0 0zm.3 1.7c0 .2-.3 0 0 0zm-.1.4c-.1-.2 0 0 0 0zm.1.4c.1 0-.5.2 0 0zm.2-5.7c.4.6-1-.1 0 0zm-.2-1.6c-.2-.2 0-.1 0 0zm.7-3.3c2 0-1.3 1 .3.3 0 .1-.4-.3-.3-.3zm.5-3.1c-.1-.2.3-.7 0 0zm.2 10.5c.7.3-.5.1 0 0zm.1.6c.3 0 0 .5 0 0zm0 1.8s.1-1 0 0zm-.3-3.4c-.1.2-.3 0 0 0zm-.2-2.2c.1-.2.1 0 0 0zm.4.3c0 .2-.7.1 0 0zm-.1-1.2c-.1.1-.3-.4 0 0zm-.2-.5c.7-.4-.6.6 0 0zm-.1 3c.2.1-.2-.1 0 0zm-.1 1.4c-.2 0-.1-.4 0 0zm.1.8c-.1 0-.1 0-.1-.1 0 0 .1 0 .1.1zm-.3-1.8c.3 0 .1.1 0 0zm0 7.6c-.1-.1.5-1 0 0zm.3-3c-.2.2-.3-.4 0 0zm-.1-4c.3-.5.2.2 0 0zm.2 4.6c.5 0 0 .3 0 0zm.3-3.3c-.5-.3 0-.2 0 0zm.1-7c.1 0 0 .4 0 0zm.1 2.2c-.3 0 0-.4 0 0zm-.2.9c-.5 0 .4-.3 0 0zm-.9.4c.5-.1 0 .2 0 0zm0 .9c.3-.7.1.3 0 0zm.1.9c-.1 0 0-.4 0 0zm-.1-3.5c-.5-.5 0-.2 0 0zm-.3-1.2c-.1-.2.3-.7 0 0zm.3-4c-.6.2.1-.3 0 0zm0-2.6c-.1.4-.4 0 0 0zm-.3.6c.2.1 0 .9 0 0zM10 18.6c.4-.2-.3.2 0 0zm.3 11.5c-1.1-.2.9-.4 0 0zm.2.7c.1 0 .1.2.1.2-.2 0-.1-.1-.1-.2zm-.1 5.3c.1-.1.3-.1 0 0zm.5-2.6c0-.1.3-.2 0 0zm0 1.5c.1-.2.4.4 0 0zm.1.6c.1-.5.4 0 0 0zm.2-11.5c-.7-.1.3-.7 0 0zm.1 6.6c-.1-.1.2 0 0 0zm0 1.8c.4 0 0 .3 0 0zm.1-8.2c-.1-.3.3-.2 0 0zm.1 2.1c-.3-.1.2 0 0 0zm.1-3.4c.1.7-.8-.3 0 0zm-.1-3.7c.6-.5-.1.6 0 0zm1-11.2c.3 0 .2.3 0 0zm.2 2.2s.1.3 0 0zm-.2 5.2c-.5-.6.2.2 0 0zm-.1.9c0 .1-.1.1 0 0zm-.5 7.5c.3.1.1.3 0 0zm.2 8.7c-.3-.1 0 0 0 0zm.1-14.5c-.2.2-1.1-.2 0 0zm-.5-2.3c0-.7 0-.3 0 0zm0-.7c.1 0 .1.3 0 0zm.6.7c0 .9-1.2 0 0 0zm-.3 8.8c.2-.5.4.2 0 0zm.2-4.7c0-.2.2-.4 0 0zm.1 2.6c0-.4.1.4 0 0zm.2-9.1c-.3-.2 0-.1 0 0zm-.1-2.9c.1 0-.1 0 0 0zm.2.9c-.3 0-.1-.5 0 0zm-.2 7.7c.1.2 0-.2 0 0zm.1 1.3c-.1-.7.3.3 0 0zm0-.3c.2 0 0 .1 0 0zm.2-.9c0 .4-.3 0 0 0zm-.2-11.1c-.3 0 0-.1 0 0zm-.2.2c.2 0 .1.4 0 0zm-.1 2.4c0-.4.4.1 0 0zm-.3 1.7c1-.1 0 .3 0 0zm.3-1.9c-.1.1-.3-.4 0 0zm-.3-.5c.7-.4-.5.6 0 0zm-.1 2.1c0 .2-.4.1 0 0zm-.3.8c.3 0 .2.3 0 0zm.1 4.6c.1.4-.2-.2 0 0zm.3 15.2c-.5 0-.1-.6 0 0zm0 1.1c.1-.5.4.6 0 0zm.3-4.4c.2.5-.4-.3 0 0zm.1-3.2c-.8.6.1-.2 0 0zm0 10.3c.2-.8.2.6 0 0zm0-1.4c0-.2.1-.3 0 0zm0-4.7c0-.3.3-.2 0 0zm.3-18.9c-.1-.6.7 0 0 0zm.4 5.3c0-.1.3 0 0 0zm-.1 1.7c0-.1.4 0 0 0zm.2-5.5c-.1.4-.4 0 0 0zm-.2-2.1c0-.4.1.5 0 0zm-.2 8.5c.9-.2 0 .1 0 0zm.3.7c-.1 0-.5-.6 0 0zm0 .2c.2-.2.1 0 0 0zm-.1 3.1c.4-.1-.1.3 0 0zm0-.3c.2-.1-.1.2 0 0zM13 21c.1-.1.3 0 0 0zm-.1 1.3c-.4.4 0-.4 0 0zm.1 8c-.1.1-.3-.1 0 0zm-.2-.4c.1.1.1.1 0 .2v-.2zm.2-.3c-.4-.2 0-.5 0 0zm0-4.4c-.3.2.1-.5 0 0zm.2-.8c-.2.1-.7-.2 0 0zm-.1-13.8c.2.2-.2.3 0 0zm-.2-3c1-.1 0 .3 0 0zm.3-1.7c0-.4.3.1 0 0zm.2 12.7c-.2.3-.2-.1 0 0zm.1-10.4c0 .1-.2.1 0 0zm0 9c0-.4.2 0 0 0zm.1-3.3c.1 0 .1.2 0 0zm0-.5s.4 0 0 0zm.3 5.1c.3 0-.1.3 0 0zm.1-.5c-.2 0 0-.4 0 0zm.1-8.7c-.3.3 0-.4 0 0zm0 6.3c-.1 0 0-.1 0-.2v.2zm.4 1.8c.4-.1 0 .2 0 0zm.1 2.6c-.1 0-.2-.4 0 0zm0 .2c.4.4-.7-.1 0 0zm0 .4c.2.2 0 .1 0 0zm0-3.4c-.6-.6.6 0 0 0zm.1-4.1c-.1-.3.2-.5 0 0zm.1 2.9c-.1 0-.1-.1-.1-.1s.1 0 .1.1zm-.1-5.3c-.2.2-.1 0 0 0zm-.2-.8c-.7.8-.2-.7 0 0zm-.3-6.7c-.1-.5.4.1 0 0zm-.2-1c.2-.1.2.1 0 0zm.1.8c0 .1-.1.1-.2.1.1-.1.1-.1.2-.1zm-.2 5.1c-.1-.1 1 .3 0 0zm.1.9c-.2 0 0-.2 0 0zm-.2 6.8c0-.1.2-.1 0 0zm-.9-12.3c1.6-.6.9.6 0 0zm0 5.1c-.2.3 0-.4 0 0zm-.1-1.3c0 .2-.4.1 0 0zm-.3-1.6c.1-1.2.1.1 0 0zm.2.1c.2 2.4-1 .5 0 0zm-.6-.2c.4-.4 0 .5 0 0zm-.3 0c.1-.7.3.3 0 0zm-.3.3c0-.3.5.1 0 0zm.1 1.2c.2 0 .3 0 .4.1v.2c.1 0 .1-.1 0-.1.6.4-.7 1.6-.6.1 1.2 0 .1-.3.2-.3zm-.4 2c0-.7 1.3.3 0 0zm-.1-5.2c.3-.4.1.5 0 0zm-.3 3c0-.1 0-.1.1-.1l-.1.1zm0-1c0-.3.3.2 0 0zm-.4.3c-.3-1.2.7.9 0 0zm-.6-.3c.6-.2 0 .3 0 0zm-.2 1.2c1.5-1 .6.5 0 0zm.1 5.5c-.1-.4.3.1 0 0zm-.1-3.9c0-.2.2-.1 0 0zm-.1 4.1c.8.1-.2.2 0 0zm-.1-6.9c.1-.2.1.1 0 0zm0 6.1c-.1.3-.4-.1 0 0zm-.3-5c.3-.2 0 .3 0 0zm.2.6c-.1 0-.1-.1-.1-.2l.1.2zm0 .9c0 .5-.5-.4 0 0zm-.4.9c0 .3.1-.3 0 0zm-.1-1.2s.1 0 0 0c.1.1.1.1 0 .1 0-.1-.1-.1 0-.1zm-.9-.8c.4-.5 1.7 1.2 0 0zm-.1 10.4c-.1.2-.2-.5 0 0zm-.1-2.6c.5 1.1-.7 0 0 0zm-.3-3.3c.2-.2.7-.1 0 0zm0 6.1c-.4 0 .1-.3 0 0zm-.2-3.9c-.4 0 0-.3 0 0zm-.1-3.3c-.1.7-.5 0 0 0zm-.5-.6h-.1c0-.4.8-1 .1 0zm-.1 3.3c.1.1.1.1 0 0 0 .3 0 .2 0 0-.2.2-.4.3-.4.2.8-.5.7-.3.4-.2zm-.4.8c-.2.3.1-.4 0 0zm.1 2.1c.4.5-.6-.1 0 0zm-.3-3.8c.1-.2 0 .1 0 0zm0 8.2c-.3 0 .4-.4 0 0zM5.7 18c0 .5-.6 0-.6 0 .1.1.8-1.1.6 0zm-.9 1.3c-.6-.1.3.1 0 0zm0-2.3s.2.2.1.2-.2-.2-.1-.2zm-.2 3.6c.2-.1.3.8 0 0zm-.1 1.6c1.3.7-.6 1.4 0 0zm.5 3.9c0 .3-.4-.4 0 0zm-.2-2.7c-.2-.4.1.2 0 0zm-.2 3.4c.9-.2.9.2 0 0zm.5-2.1c.5-.2-.4.2 0 0zm0-5c-.1-.4.1.3 0 0zm.2 2.6c.1.4-.2-.1 0 0zm.1-6.2c.5-.5.2.2 0 0zm.3 1.1c0 .1 0 .2-.1.2 0 0 0-.2.1-.2zm0-2c0 .5-.5-.4 0 0zm-.1-1.5c.3-.2 0 .3 0 0zm0 .4c.1 0 .2.1.1.2h-.1c-.1.1-.4.2-.1.1.1 0 .1-.1.1-.1v-.2zm-.3-.6c.3-.2.1.4 0 0zm-.4-1.4c0-.5.5.5 0 0zm.4.8c-.1 0-.5.4-.2.4-.4 0-.1-.4-.6-.4.1 0 .6-.6.8 0zM5.1 14c.2.3.3.8-.5.3.1-.1.3-.2.5-.3zm-.9 5.7c.1.4.4-.3.4.5-.4 0-1-.5-.4-.5zm.3.9c-.3-.1 0-.1 0 0zm-.7-2.7c.1.1-.1.3 0 0zM3.7 14c.1 0 .1.1.1.2-.1 0-.1-.1-.1-.2zm-.1 3.9c0-.8 0 0 0 0zm.1 7.7c-.5 0 .1-.1 0 0zM3.3 20c0-.3.2.1 0 0zM3 16.1c.1-.3.3.3 0 0zm.2 1.7c0 .2-.3 0 0 0zM3.1 19c-.4.2.1-.2 0 0zm-.3 10s.1-.2 0 0zm0-7.8c.1.1 0 0 0 0zm-.1-.4c0-.2.4 0 0 0zm.1 7.8c-.1.3-.4-.1 0 0zm-.2.3c-.1 0-.1-.1-.1-.2.1 0 .1.1.1.2zm0-6.4c.1.1 0-.1 0 0zm0-4.7c.2-.4.2 0 0 0zm0 1.9c.3-.4.2 0 0 0zm0 2.5c-.2-.2.1.1 0 0zm-.1 2.3c-.1-.2.3-.1 0 0zM2 17.9c.1-.8.9 0 0 0zm.3.6c-.1.6-.2-.5 0 0zm-.9 2.9c-.1-1.4.6.5 0 0zm-.1-.8c-.4-.2.5-.3 0 0zm.1 2.4c.7.1-.2.4 0 0zm-.2-1.2c.3-.5 2.1.5.9.5-.5.1-.1-.4-.9-.5zm1 2.5c.4-.9-.1.5 0 0zm.2 2c.2.2.2.2 0 0zm.2 4.9c.1.5-.3-.4 0 0zm.2-2.3c.1.6-.9-.3 0 0zm0 1.3c.2.4-.3 0 0 0zm.2-5.8c-.3.4 0-.5 0 0zm0-.9c-.1-.1.2-.3 0 0zm.1 7.4c.4.5-.6-.1 0 0zm.1-9.1c.3.5-.5-.1 0 0zm.1 7.4c.2-.8-.2.6 0 0zm.2 2.6c.1.1-.5.6 0 0zm0-.8c.2-.4.3 0 0 0zm0-2.5c.5-.2 0 0 0 0zm.3-2.7c.2.3-.3 0 0 0zm.3 5.6c-.3.3 0-.4 0 0zm-.2-10.9c-.2-.6.7.2 0 0zm.6.6c-.1.2-.6-.5 0 0zm-.1 5.6c-.5-.3.4-1.3 0 0zm.1 3.4c-.2-.2.3-.7 0 0zm.2 1.2c-.5-.5 0-.1 0 0zm.1 3.7c-.2.1.1-.2 0 0zm.1-.5c0 .4-.4-.1 0 0zm.5.6c-1.1-.2 0-.7 0 0zm-.4-2c-.1-.6.8.2 0 0zm.6-1.4c-.8.2-.5-1 0 0zm0 4.4c0 .1-.2.2 0 0zm-.2-7c-1 0-.4-.4-.4-.6.3.1.9.6.4.6zm.5.5c.1.5-.6-.3 0 0zm-.1.4c.3-.3 0 .4 0 0zm.4 7.9c.2.2 0 .9 0 0zm.3-.5c-.1.3-.4-.1 0 0zm-.8-2.1c.1-.7 1.9.5 0 0zm1-1.8c-.2.5-.2 0 0 0zm-.2-3.1c.5.3 0 .2 0 0zm.2.4c0-.3.4 0 0 0zm.4 7.3c.4.3-.6 0 0 0zm.3.7c.4 1-.7 0 0 0zm-.1-2.9c.6.6-.8-.1 0 0zm.6 2.8c-.9.1 0-1.2 0 0zm.4 2c-.1.1-.3-.4 0 0zm0-2.5c-.9-.2-.6-.6-.6-.7.2 0 .8.7.6.7zm.2 2.5c-.2 0 .1-.3 0 0zm.4-.1c0 .1-.4 0 0 0zm-.1-.5c-.7-.4.5-.4 0 0zm.2-1.2c-.2.2 0-.5 0 0zm.1-.2c-.1-.4 0-.2 0 0zm0 .4c.3-.1-.1.2 0 0zm.2 1.6c-.3.3-.2-.6 0 0zm-.2-3c.6-.8 0 .1 0 0zm.5 1.1c-.3-.1 0 0 0 0zm.2-2.3c-.4.3-.3-.4 0 0zm0-.6c.1-.6.4.1 0 0zm.2-3.8c-.3 0 .2-.1 0 0zm.3.4c.1.1-.2 0 0 0zm.3 5c-.8-.2-.1-.2 0 0zm.2-3.2c0 1.3-.4-.1 0 0zm0 1.2c-.4 0 .2-.3 0 0zm.2 4.8c-.6.5 0-.3 0 0zm.5-1.4c-.9-.4 1.2.4 0 0zm.2-.6c-.1.3 0-.1 0 0zM12 37c-.4-.5-.7-.6-.8-.3-1-.4.2-.4.5-.5.3 0 .5.2.5.8.1.1-.1 0-.2 0zm.4.8s-.3-.1 0 0zm.2 5.3c-.1.2-.2-.1 0 0zm-.1-2.4c-.5-.2.5-.5 0 0zm.2-4.8c-.6-.1.2-.7 0 0zm.2-1.9c.1.2-.5 0 0 0zm.1 7c.1.3-.3-.2 0 0zm.1-4.9c-.1.1-.2.1 0 0zm0-3.3c0 .1-.5.3 0 0zm.1-7.9c0 .1-.2.2 0 0zm0-.4c0-.1.1-.1 0 0zm.1-.2c-.1.2-.1 0 0 0zm.5 14.9c-.2.7-.6-.5 0 0zm0 5.1c-.1-.1-.2-.1-.2-.2.1.1.2.1.2.2 0-.1 0 0 0 0zm0-1.3c.2.1-.1-.2 0 0zm.2-1.5c0 .5-.6-.2 0 0zm0-1.6c0 .1-.8-.6 0 0zm.2 1.4c-.2.3.2-.3 0 0zm.1 1.1c-.3-.3.3-.3 0 0zm.2.1c-.1.3-.2-.4 0 0zm.1-1.1c.2-1.5.2-1.4 0 0zm.3-1.6c-.2.1-1-.8 0 0zm.2 2.2c-.4.1 0-.3 0 0zm.1-1.3c-.4-.3 0-.3 0 0zm0-1.2c.6-.4 1.3-.2 0 0zm.9-15.7c-.2 0 .1-.3 0 0zm-.1-2.1c.2-.1.1.3 0 0zm0-.3c.2-.2-.1.1 0 0zm-.1 8.3c.9-.3 0 0 0 0zm1.2-1.4c-.1-.1.1-.5 0 0zM17 26c0-.1.2-.1 0 0zm0-4.1c0-.1.3 0 0 0zm-.4-.9c1-.1-.1.2 0 0zm.1 3.2c-.2 1 .2-.9 0 0zm0-2c.3-.1-.1.3 0 0zm.2 2.3c0 .3-.3 0 0 0zm-.2-2.7c-.1-.3 0-.2 0 0zm-.2 10c0-.7.7 0 0 0zm.3 10.3c-.8-.6 0 0 0 0zm0 1.3c0 .1-.3.1 0 0zm-.4-2.9c.3-.2 0 .3 0 0zm-.1.3c-.5.3.4-.2 0 0zm0 1c0 .3-.3.1 0 0zm.3-3.2c-.1.8-.4 0 0 0zm-.1-13c0 1-.3-.2 0 0zm-.1-1.9s.1.2 0 0zm.1-3c0 .1-.4 0 0 0zm-.3.7c.3 0 .2.3 0 0zm0 9.2c.1-.3.1 0 0 0zm0-.3c-.1.1-.5-.6 0 0zm0 .9c.1-.1.3 0 0 0zm-.1 1.3c-.4.4 0-.4 0 0zm-.1.8c.3 0 0 .3 0 0zm-.1 1.2c.4-.7.6 1.1 0 0zm.3.9c-.3.3 0-.5 0 0zm-.6 8.8c-.1.6-.5.5 0 0zm0-4.3c.2.1-.5 0 0 0zm.3 4.9c0 .2-.2-.3 0 0zm.6-7.2c-.1.5-1.1-.1 0 0zm-.1 7c0 .1-.6-.2 0 0zm.1-1c-.3 0 0-.2 0 0zm.1-.9c-.3-.2.1-.3 0 0zm.1 1.6c-.4 0 .2-.4 0 0zm.1.2c-.1.2-.2 0 0 0zm0-4.5c-.8.1.2-.6 0 0zm.2-3.4c-.2.1-.4 0 0 0zm.3 4.9c.3 0-.1.2 0 0zm-.2-2.5c.5-.3 0 .5 0 0zm.2-6.7c.4-.4-.1.5 0 0zm-.2.2c.7 0-.7.3 0 0zm-.3 2.2c-.1-.4.4-.5 0 0zm.2 4.8c.2.1 0 .1 0 0zm.3 4.4c-.3 1.1-.6-.4 0 0zm0-1.3c.7 0-.5.5 0 0zm.2-4.7c.1-.4.6-.1 0 0zm.3-2.7c.1.8-.1-.3 0 0zM18 38c.2.3-.3-.1 0 0zm0-3.4c-1 0 .4-.8 0 0zm-.1-1.1c-.1 0 .4-.8 0 0zm.3 4.8c-.3-.4.6 0 0 0zm.2 5.7c-.1-.4.4 0 0 0zm.1-2.9c.1-.3-.1.2 0 0zm.1-3.5c.1 0-1.1.4 0 0zm-.2-3.4c-.3-.4.6 0 0 0zm.3 10.3c-.2-.1.3-.4 0 0zm.2-2.6c0 .7-.6-.1 0 0zm0-1.4c-.2 0-.3-.1 0 0zm-.1-6.7c-.1-.8.4.5 0 0zm0-.6c.6.1-.6.6 0 0zm-.2-.4c0-.2.3.2 0 0zm.5 12.1c-.3-.3.1-.1 0 0zm.2-2.7c-.1.3-.4-.6 0 0zm0-8.2c-.2.1 0-.3 0 0zm.4 9.3c-.4 1.1-.4 0 0 0zm-.2-.8c0-.6-.1.3 0 0zm0-8.5c.1-.1.2 0 0 0zm.3 4.6c.1-.2.1 0 0 0zm.3-3.9c0 .3-.3 0 0 0zm-.1 3.6s0-.3 0 0zm-.1.2c.2.3 0 0 0 0zm0-4.1c-.2 1 .2-.9 0 0zm-.1 6c.5-.5 0 .4 0 0zm.4 3.5c-.7-.3-.2-.5 0 0zm.1-5.2c.1.2-.2 0 0 0zm.2 5.3c0 .4 0-.3 0 0zm.2.1c0 .1.1-.2 0 0zm.3-.1c-.3 0 0-.1 0 0zm-.3-.5c-.1.1-.3 0-.4 0 .5-.2 1.2-.5.4 0zm-.2-4.2c.1-.2.3.5 0 0zm.4 1.4c-.4.3.6-.3 0 0zm-.1-5.1c0-.1.3 0 0 0zm.1 6.6c-.1-.7.5.3 0 0zm.2 1.6c-.1-.1.3-.1 0 0zm-.2-2.9c.1.5-.6-.3 0 0zm-.2 1.4c.6.3-.4-.2 0 0zm.7 1.9c-.4.6-.5.5 0 0zm.2-2.3c-.2.9-.5-.4 0 0zm0 .4c.1.1-.2-.2 0 0zm.1 1.6c-.2.4-.5 0 0 0zm0-.9c0 .1-.2.1 0 0zm.1 1.6c.1.4-.2-.1 0 0zm0-4.4c.5.6-1 0 0 0zm-.3-1.4c-.1-.4.4.3 0 0zm.6 4.5c-.6.5.9-.6 0 0zm.3.6c-.4.4-.1-.9 0 0zm-.1-3.8c1.3.3-1.1.6 0 0zm-.1-.3c-.3.2.2-.1 0 0zm.7-4.4c-.7-.3.5.2 0 0zm-.3 3.1c1.3.2 0 .4 0 0zm-.1-.2c.1 0 .4-.5 0 0zm.2 3.8c-.2-.2.2.1 0 0zm.6 1.1c-.5.5-.9-.7 0 0zm.2-4.5c-.2.2-.4-.4 0 0zm0 1.3c-.2.3-.4 0 0 0zm-.2-3.7c-.3 0 0-.4 0 0zm.1 6.5c-.2 0 0-.4 0 0zm.1.4c-.3 0 0-.2 0 0zm-.2-2.9c.7.1-.3.5 0 0zm.4 3.4c-.2-.1.2.1 0 0zm.2 1.7c0 .4-.2-.5 0 0zm.2-3c0 .2-.3 0 0 0zm.1-.1c-.5-.2 0 0 0 0zm-.1-5.9c-.2.1 0 0 0 0zm.2 4.6c.9 0 0 .4 0 0zm.4 2.3c-.5 1-.4-.2 0 0zm-.2 2.2c0 .1 0-.5 0 0zm.3-2c0 .2-.4.1 0 0zm-.1-2.2c.1-.2 0 .3 0 0zm.3.3c-.1.5-.4-.4 0 0zm.1-1.7c-.7-.4.1-.4 0 0zm-.1-4.7c.1.2-.1.2 0 0zm0 2.4c.2.4 0 .3 0 0zm.3 4.9c-.3.3-.1-.1 0 0zm.1-1.6c.2.6-.5 0 0 0zm.1 4.5c.5.2-.4.3 0 0zm-.1-6.2c.1-.3.3 0 0 0zM26 45c.1.3-.4-.1 0 0zm-.2-7.8c-.1-.3.2.3 0 0zm1 1.9c-.4 0 .2.5-.1.5-1.3 0-.2-.5.1-.5zm.2-2.9s.2.2.1.2c-.2 0-.3-.2-.1-.2zm-.1 3.7c.5.2-.4.4 0 0zm0-4.6c-.1 0-.3-.3 0 0zm0 3.2c-.5-.1.3.1 0 0zm-.7 1.1c-.3 0-.1-.1 0 0zm.1.7c.5-.3.1.1 0 0zm.6 2.1c-.3 0-.7-1.4 0 0zm.1.2c-.5 0 .4-.3 0 0zm.1 2.6c.1 0-.1.1 0 0zm.2-1.1c-.7-.2 1 0 0 0zm.1-5.6c-.6-.3 0-.1 0 0zm-.1-2.6c0-.3.4.1 0 0zm-.1 2.9c-.1-.4.2.4 0 0zm.4 6.1c-.2.1-.2 0 0 0zm.2-.7c-.4 0-.4-.2 0 0zm.2 1.2c-.1-.1 0-.2 0 0zm.1-2.9c.1.2-.1.2 0 0zm-.3-1.8c-.4-1 .5 0 .6.5-.4.2-.4-.5-.6-.5zm.8-5.4c-.9-.1-.8-.7-.8-.7.3-.1.5-.1.4.3.1.1.4.2.4.4zm-.1 2.3c0-.1.1-.1 0 0zm-.4 2.2c0 .2-.1.3 0 0zm-.1-4.2c-.3.2 0-.4 0 0zm-.2.3c.1.1.1.1 0 0zm.6 4.3c-.2-.3 0 0 0 0zm.2.9c-.4.3.1-.5 0 0zm0-1c0-.1.2-.4 0 0zm.1 4.5c-.2 1.4 0 0 0 0zm.2-1.9c0 .3-.3-.3 0 0zm.2-.6c0 .3 0 0 0 0zm0-2.4c-.4 0 .4-.6 0 0zm.3-2.6s.3-.1 0 0zm.3 1.5v-.2.2zm.1 1.6c0 .3-.2 0 0 0zM27 34.5c-.8.2-1.8.3-2.7.3-.3 0-.6 0-.8-.1 0 0-.1.1-.2.1v-.1c-.7-.1-1.4-.2-2-.4-.9-.3-1.6-.7-2.2-1.2-.3-.2-.5-.5-.7-.8.1.1.1.4-.2.1.1-.2.1-.1.2-.1-.2-.3-.4-.6-.5-.9v-.1c-.2.1-.4.3-.4.4-.6-.7-.8-1.3-.2-1.3-.2 0 .1.7.6.8-.1-.2-.1-.5-.2-.8-.1-.4-.1-.9-.1-1.5v-8.6h-2.7v-3.5c1-.3 1.8-.8 2.5-1.3.7-.6 1.2-1.3 1.6-2.1.4-.8.7-1.8.9-3.1h3.5v1.5h0v3.7c.2 0 .1.2 0 .1v.9h1.9c.2-.3.7-.9.7-.9 0 .4 0 .7-.1.9h1.9c0-.1.1-.3.2-.6 0 0-.1.4-.2.6H29v3.8h-2.6c.1 0 0 .4-.3.2.1-.1.2-.2.3-.2h-.2v0H25c0 .1 0 .3-.3.1 0-.1.1-.1.1-.1h-1.5v1.4c.3.1.2.2 0 .2v4.6c0 1.2.1 2.1.2 2.5 0 0 .1 0 .1.1v.1c.2.4.4.7.8 1 .5.3 1.2.5 1.9.5.8 0 1.7-.2 2.5-.6-.1-.2-.2-.5.2-.3v.2c.1 0 .1-.1.2-.1-.1-.2-.3-.5-.5-.5.4-.2.9-.1.9.3.1-.1.3-.1.4-.2V32c.1 0 .1 0 0 0v1.4c-1.2.5-2.2.9-3 1.1zm.7-7.4c.7 0-.5.4 0 0zm0 1.2c-.4-.5.5 0 0 0zm-.2-1.8c0-.3.4 0 0 0zm.1-2.7c0-.9.2-.7 0 0zm.1 3.1c-.5.2 0-.4 0 0zm.3-4.3c0 .1 0 .4-.1.5-.2-.1-.1-.4.1-.5zm0 4c-.1.2-.2-.2 0 0zm.2 3.5c-.2.6-.4-.6 0 0zm0-.4v.1c-.4 0 0 0 0-.1zm-2.7.4c-.1-.1.7-.5.2 0h-.2s.1 0 .1-.1c-.1 0-.1 0-.1.1zm-.2-3.1c.1-.2.2.1 0 0zm.1 3.4c-.6.7-.5-.3 0 0zm.1-6c0 .4-1.3 0 0 0zm-1-2.2l-.1-.3c.8-.5.9.1 1.1.2-.1 0-1 .5-1 .1zm-.6 7c-.6.3-.5-.6-.2-.3v-.1c-.1-.1-.4-.5-.4-.5.2-.1.5-.1.3.3.2 0 .4.2.4.4-.2 0-.3-.1-.3-.1s.1.1.2.3zm-.3-7.2c.4 0 0 .4 0 0zm0-.6c.3-.3-.1.4 0 0zm.2-.7c.2 0 0 .5 0 0zm-.3 2.6c.9-.5.5-.1 0 0zm.4-2.2c0-.3.1-.2 0 0zm.4 3.4c-1.1-.2 0-.2 0 0zm-.2-.6c0-.5.1-.4 0 0zm.1-2.3c-.1-.4.3.3 0 0zm.1.7c.8-.1-.3.7 0 0zm.1 2.8c-.4-.9.1 0 0 0zm-.7-.4c-.1-.1-.1-.3 0 0zm0 .7c1 .4-.9.3 0 0zm.3.9c.1-.6 0 0 0 0zm-.2.6c0-.1.2-.2 0 0zm-.2-.3c-.1-.2.3 0 0 0zm0-.1c-.1-.1 0-.1 0 0zm.1.2c-.1-.1.1-.2 0 0zm-.2-.3c-.2.2-.4-.3 0 0zm-.2.3c.1-.4.2.2 0 0zm.9.9c0 .1-.5.2 0 0zm0-.1c-.5-1.1.6.2 0 0zm.3-1.5c-.8.8-.2 0 0 0zm0 1.7c.1.7-.2 0 0 0zm0-3.2c.1.1-.4-.2 0 0zm0-.9c-.3-.3.2-.2 0 0zm.1 1.6c.1 0 .1.1 0 .1s0-.1 0-.1zm0-4.3c.6-.6.1.7 0 0zm.3.7c0-.4.2 0 0 0zm.3-.5c-.1.9-.3-.2 0 0zm.2-.2c.1.1-.1 0 0 0zm-.1 3.3c0-.2.3 0 0 0zm-.1-.6s.2-.1 0 0zm-.2-.5c.3-1 .2.2 0 0zm.5 5.8c.3-.2 0 .1 0 0zm.1-5.7c.2-.6.3.6 0 0zm0 6.5c0-.5.7.1 0 0zm.3-7.1c.1.1 0 .2 0 .2-.2 0-.1-.2 0-.2zm0-.2c-.2.1.3-.4 0 0zm-.1 4.6c-.1-.1.3-.2 0 0zm0 .2c0-.1.3-.2 0 0zm.1.2c.3 0-.1.2 0 0zm.1-.6s.1 0 0 0c0-.2.3 0 .2.1l-.1-.1c0 .1-.1.2-.1 0zm.3-.6c-.2 0-.4-.7 0 0zm-.2-2.8c0-.1 0-.1 0 0zm.1-1c-.3 0 .2-.9 0 0zm-.4-1.4c.1 0 .3 0 .4.4 0 .3.2.4.2.6-.3-.1-.8-1-.6-1zm.7-.3c-.2.3-.4.2 0 0zm-.1.1c.4.1 0 .3 0 0zm-.1 3.7s.5-.1 0 0zm.1 1.9c.3-.4.1.2 0 0zm0 2.4c.5-.1-.1.5 0 0zm.2.6c-.6.2.6-.1 0 0zm.2-7c.4 1-1.1-.2 0 0zm.4-.9c0 .4-.5-.2 0 0zm0 1.7c.4.4-.4-.1 0 0zm-.4 1.5c.3-.8.4 0 0 0zm0 4.8c-.2-.3.6-.2 0 0zm.3.2c-.6-.1.4.1 0 0zm0-1.4c0-.2.4.1 0 0zm.1 2.3s.3 0 0 0zm2.8 6.3c-.2.3-.2-.4 0 0zm.1 3.6c-.1 0-.2-.5 0 0zm-.1-4.1c-.1-.4.4.4 0 0zm.2-.5c-.1-.4.6.2 0 0zm.2 1.5c.1-.2.1 0 0 0zm0 2c.2-.2.1 0 0 0zm.1-1.7c0-.3 0 .1 0 0zm-.1-4c.3 0 0 .3 0 0zm.3-5.2c-1.1-.8.8-.6 0 0zm0 1.1c-.1.2-.1.1 0 0zm.1 2.9c-.2 0-.4-.7 0 0zm-.2 9.1c.1-.2.7-.4 0 0zm.5 1.8c-.3 0 .1-.3 0 0zm.1-.7c0 .1-.9-.2 0 0zm-.2-4.9c.1-.3.5.4 0 0zm.4-1c-.6.1-.1-.2 0 0zm0 7.6c-.1-.2 0-.2 0 0zm.1-5.8c0 .2-.2-.4 0 0zm.2 4.9c0 .1-.1.1 0 0zm0-3.3s.3.1 0 0zm.1-1c.1.2-.1-.2 0 0zm.1-24.1c-.1 0 .2-.5 0 0zm0 25.8c.2.2 0 .1 0 0zm.1-8.4c.2-.1.1.5 0 0zm.1 5.3c.4-.1 0 .2 0 0zm.3 4c-.6-.6.3.3 0 0zm.1-2.1c.1-.2.3.4 0 0zm.2 2.9c-.1-.1-.4-.5 0 0zm.1-2.1c.1.4-.3-.1 0 0zm.2 2.4c0 .4 0-.2 0 0zm.1-.9c-.2.1-.3-.5 0 0zm0-2.7c.1-.1.1-.2 0 0zm.3 3.4c-.4.1-.2-.5 0 0zm0-4.7c.3-.2-.1.3 0 0zm.3 4.1c.1.6-.6-.2 0 0zm0-20.9c.3.1 0 .3 0 0zm.1 7.5c.4.2-.1 1 0 0zm.1 11.2c-.2 0 .3-.4 0 0zm.4 1.9c-.8 1-.1-1.1 0 0zm-.2-3c0 .1-.1.4 0 0zm.2-1.5c-.2.2-1-.3 0 0zm.1-3.3c-.3.3.1-.2 0 0zm0 5.1c-.1-.3.1-.4 0 0zm.1 2.5c.5.1-.5.3 0 0zm.1-1.3c-.8.1.7-.2 0 0zm.5.3c-.7.6.1-1 0 0zm-.1-7.2c0-.1.3-.2 0 0zm0-16.9s-.2-.7.4-.7c-.1 0 .2.1.2.3-.4-.5-.4-.3-.4.3 0 .9-.6.6-.2.1zm.2 17.2c.2-.5.3.1 0 0zm.2 4.1c0-.2.3.1 0 0zm.2-6.3c.4-.5 0-.1 0 0zm.3 5.2c-.1.3-.1 0 0 0zm-.2-4.4s.6.1 0 0zm.3-4.6c-.4 0 .3-.1 0 0zm0 2.3c0 .3 0-.3 0 0zm.1 10.6c-.2.3 0 0 0 0zm0-2.8c-.2 0 0-.3 0 0zm.1-15.2c-.1.1-1 0 0 0zm0-1.8c-.1-.1.2 0 0 0zm.2 13.9c-.5 0 0-.3 0 0zm.1-4c0 .2-.5.1 0 0zm.2 2c-.5 0 .4-.4 0 0zm.1 3.4c0 .6-.2-.1 0 0zm.1-4.8c.3-.5 0 .1 0 0zm.8-1.2c-.6 2-1.9-1.7 0 0zm-.2-1.5c.8.4-1.1.3 0 0zm.1-.5s-.2-.4 0 0zm.1-1.5c-.4.1.2-.4 0 0zm.2 1.2c-.2 0 0-.6 0 0zm0-1c.1.3-.3 0 0 0zm.2-.7c-.5-.3.2-.9 0 0zm.1 9.5c.4-.1-.3 0 0 0zm.2-6.5c.5-.3.1.1 0 0zm.3-7.1c0-.5.3.2 0 0zm.2 2.8c-.4 0 .2.1 0 0zm0 1c.1-.8.4 0 0 0zm.5-.7c.5-.3-.8.4 0 0zm.1 1.4c-.6.1-.1-.4 0 0zm-.1 10.8c0 .1-.3.2 0 0zm.2-.8c0 .3 0-.2 0 0zm.1-.6c.4.5-.8-.2 0 0zm.1-.6c.1.6-.5-.1 0 0zm.1-20.2c-.1 0-.3-.4 0 0zm.2 6.9c-.4.1 0-.3 0 0zm.1-1.8c-.4.3 0-.1 0 0zm0 8.6c.1 0 .4.7 0 0zm.4-11c.4.5-.7-.1 0 0zm-.1 10.7c0 .3-.2-.4 0 0zm0-8.5c.3.1-.2.4 0 0zm.1 14.8c-.1 0-.3-.9.3-.1-.1.1-.2.1-.3.1zm.3-1.5c.1.6-.5-.5 0 0zm.6-3c.1.4-1.4.1 0 0zm-.1 4.8s.1-.3 0 0zm.2.4c0 .3-.3 0 0 0zm0-9c.1.3-.3-.1 0 0zm.3 8.2c-.1.2-.3-.1 0 0zm0-6.8c-.1 0 .2-.2 0 0zm.1 1.7c-.3-.1.3.2 0 0zm.5 2.8c-.5-.2 0-.1 0 0zm.2-1.3c-1-.3 0 0 0 0zm.1 1.1c.2-.4-.1.3 0 0z"/></svg>