<?xml version="1.0" encoding="utf-8"?>
<!-- Generator: Adobe Illustrator 21.0.0, SVG Export Plug-In . SVG Version: 6.00 Build 0)  -->
<svg version="1.1" id="Layer_1" xmlns="http://www.w3.org/2000/svg" xmlns:xlink="http://www.w3.org/1999/xlink" x="0px" y="0px"
	 viewBox="0 0 35.561 35.974" enable-background="new 0 0 35.561 35.974" xml:space="preserve">
<g>
	<defs>
		<rect id="SVGID_1_" width="35.561" height="35.974"/>
	</defs>
	<clipPath id="SVGID_2_">
		<use xlink:href="#SVGID_1_"  overflow="visible"/>
	</clipPath>
	<path clip-path="url(#SVGID_2_)" fill="#03BED7" d="M2.28,2.176C2.17,2.101,2.066,2.03,2.066,2.03L2.009,2.122
		C2.106,2.145,2.195,2.162,2.28,2.176"/>
	<path clip-path="url(#SVGID_2_)" fill="#03BED7" d="M3.235,1.227L3.168,1.181c-0.01,0.03-0.025,0.055-0.038,0.083
		C3.165,1.25,3.199,1.237,3.235,1.227"/>
	<path clip-path="url(#SVGID_2_)" fill="#03BED7" d="M2.007,2.125C1.796,2.47,1.657,2.864,1.321,3.123
		C1.203,3.042,0.967,2.881,0.848,2.8C0.606,2.901,0.6,3.163,0.475,3.346C0.357,3.265,0.239,3.185,0.177,3.275
		c-0.24,0.186-0.221,0.432-0.03,0.645C1.352,3.247,2.897,3.769,2.007,2.125"/>
	<path clip-path="url(#SVGID_2_)" fill="#03BED7" d="M3.448,2.04L2.826,1.615C2.619,1.78,2.389,1.929,2.309,2.181
		C2.736,2.247,3.052,2.206,3.448,2.04"/>
	<path clip-path="url(#SVGID_2_)" fill="#03BED7" d="M4.6,31.737c0.038,0.056,0.047,0.093-0.115,0.084
		C4.525,31.791,4.562,31.764,4.6,31.737c-0.034-0.053-0.093-0.124-0.062-0.194c-0.341,0.385-0.756,0.811-1.203,1.16
		c0.005,0.138,0.013,0.276,0.026,0.41c1.12-0.844,2.276-1.634,2.891-2.767C5.583,30.804,5.232,31.278,4.6,31.737"/>
	<path clip-path="url(#SVGID_2_)" fill="#03BED7" d="M3.646,33.723l-0.115,0.084C3.693,33.817,3.684,33.78,3.646,33.723"/>
	<path clip-path="url(#SVGID_2_)" fill="#03BED7" d="M21.136,18.761c0.3-0.32,0.167-0.691-0.075-0.972
		c-0.169,0.494-0.676,1.03-0.882,1.68C20.49,19.224,20.802,18.989,21.136,18.761"/>
	<path clip-path="url(#SVGID_2_)" fill="#03BED7" d="M19.53,16.911c-0.028,0.03-0.028,0.057-0.002,0.082
		c-0.187,0.099,0.087,0.198,0.371,0.366c0.051-0.137,0.086-0.259,0.111-0.366l-0.149-0.055L19.53,16.911z"/>
	<path clip-path="url(#SVGID_2_)" fill="#03BED7" d="M20.713,17.1c-0.269,0.177,0.104,0.379,0.348,0.689
		C21.149,17.515,21.1,17.268,20.713,17.1"/>
	<path clip-path="url(#SVGID_2_)" fill="#03BED7" d="M15.791,32.722c-0.352,0.626-0.596,0.962-0.759,1.117
		c0.006,0.182,0.005,0.412-0.007,0.706l0.095-0.064c0.437-0.539,0.892-1.068,1.361-1.591c0.152-0.272,0.287-0.546,0.368-0.822
		C16.49,32.278,16.133,32.492,15.791,32.722"/>
	<path clip-path="url(#SVGID_2_)" fill="#03BED7" d="M15.032,33.839C14.982,32.278,14.395,34.443,15.032,33.839"/>
	<path clip-path="url(#SVGID_2_)" fill="#03BED7" d="M14.568,25.776l0.081-0.056l0.194-0.224
		C14.75,25.591,14.66,25.682,14.568,25.776"/>
	<path clip-path="url(#SVGID_2_)" fill="#03BED7" d="M23.221,23.644c-0.288,0.223-0.571,0.454-0.853,0.693l-0.418,0.362
		l-0.304,0.298l0.331-0.28l0.44-0.357c0.29-0.237,0.572-0.473,0.839-0.706c0.535-0.467,1.01-0.925,1.358-1.362
		c-0.148,0.101-0.392,0.134-0.537,0.233C23.974,22.862,23.686,23.326,23.221,23.644"/>
	<path clip-path="url(#SVGID_2_)" fill="#03BED7" d="M25.189,20.431c-0.404,0.743-1.134,1.509-1.942,2.278
		c-0.425,0.392-0.848,0.784-1.267,1.172l-0.327,0.301l-0.261,0.26c-0.169,0.172-0.335,0.346-0.496,0.522
		c-0.996,1.081-2.607,1.514-3.235,2.878l0.186,0.273l0.056-0.171c0.452-0.23,0.885-0.313,1.285-0.475l-0.044,0.066l0.095-0.087
		c0.264-0.111,0.514-0.263,0.743-0.524c0.099-0.129,0.199-0.26,0.3-0.391c0.341-0.293,0.685-0.589,1.029-0.885
		c0.36-0.324,0.72-0.647,1.078-0.969c0.9-0.801,1.697-1.607,2.226-2.387c0.748-0.911,0.989-1.743,1.468-2.471
		C25.825,19.997,25.319,20.209,25.189,20.431 M22.374,27.79c0.199-0.241,0.396-0.475,0.614-0.697
		c0.109-0.111,0.223-0.22,0.345-0.324c0.168-0.136,0.419-0.319,0.644-0.473L23.389,26.8l-0.338,0.33L22.374,27.79z M34.356,16.832
		c-2.606-1.212-4.681-2.371-6.151-3.486c-0.636-0.435-2.073-1.217-3.314-1.663c-1.258-0.459-2.253-0.539-2.484,0.104
		c1.513-0.42,4.075,1.315,6.205,2.737c1.078,0.72,2.076,1.38,3.029,1.822C32.587,16.784,33.534,17.036,34.356,16.832 M25.002,16.229
		c-0.785-0.203-1.349-0.421-1.861-0.654c-0.51-0.232-0.97-0.48-1.473-0.689c-0.237-0.162-0.904-0.084-1.168-0.264
		c-0.446-0.173-0.82-0.16-1.143-0.248c0.008,0.094,0.012,0.186,0.013,0.276c-0.162-0.177-0.424-0.189-0.648-0.192l-0.163-0.006
		l-0.077-0.009c-0.013-0.003-0.022-0.003-0.038-0.009L18.373,14.4c-0.191-0.094-0.375-0.221-0.551-0.407
		c-0.062,0.091-0.305,0.192-0.423,0.112c-0.653-0.313-1.12-0.899-1.717-1.04c-0.654-0.313-1.244-0.716-1.841-0.858
		c-0.119-0.081-0.542,0.031-0.841-0.039c-0.313-0.161-0.618-0.335-0.923-0.507c-0.005,0.034-0.01,0.066-0.015,0.097
		c0.233,0.164,0.478,0.318,0.757,0.42c0.835,0.302,1.787,0.685,2.558,1.078c0.949,0.515,1.899,0.965,2.85,1.381
		c0.073,0.035,0.089,0.031,0.119,0.036l0.085,0.014l0.177,0.029l0.377,0.067c0.261,0.049,0.544,0.109,0.845,0.181
		c0.27,0.052,0.672,0.059,0.985,0.14c0.529,0.094,0.98,0.302,1.472,0.488c0.495,0.188,1.038,0.359,1.865,0.456
		C24.401,16.085,24.57,16.2,25.002,16.229 M10.363,10.482l0.001-0.043l-0.026,0.043H10.363z M8.412,6.378
		C7.707,5.667,6.496,5.146,5.366,4.582C5.343,4.603,5.323,4.624,5.309,4.645C6.118,5.321,7.336,5.826,8.412,6.378 M5.706,4.401
		c0.147,0.045,0.303,0.086,0.461,0.123c-0.005-0.033-0.01-0.067-0.012-0.102C6.04,4.344,5.869,4.352,5.706,4.401 M11.46,29.142
		c1.128-1.109,2.19-2.262,3.19-3.422c1.229-0.864,2.404-1.759,3.477-2.715c0.537-0.477,1.048-0.97,1.528-1.482
		c0.394-0.453,0.646-0.85,0.848-1.26c0.289-0.722,0.887-1.333,1.276-1.921c0.372-0.576,0.516-1.116-0.609-1.349
		c-0.075-0.01-0.146-0.018-0.216-0.027l-0.005,0.027c-0.109,0.038-0.185,0.073-0.236,0.107c-0.096-0.041-0.214-0.077-0.357-0.107
		c-0.167-0.019-0.331-0.037-0.495-0.055c-0.567-0.204-1.128-0.405-1.691-0.607c-0.208-0.077-0.387-0.149-0.546-0.224
		c-0.08-0.038-0.155-0.076-0.228-0.117c-0.387-0.26-0.775-0.52-1.165-0.783c-0.474-0.323-1.015-0.292-1.488-0.615
		c-0.491-0.309-0.973-0.614-1.454-0.918c-0.016,0.02-0.024,0.044-0.024,0.072c-2.026-1.215-4.065-2.344-6.286-3.423
		C5.971,9.768,5.086,9.03,4.141,8.385c-0.354-0.242-0.106-0.606-0.28-0.859C3.226,6.425,2.766,5.577,1.826,4.668
		c0,0,0.125-0.182,0.187-0.273c-0.185-0.08-0.329-0.183-0.429-0.294c1.206-0.673,2.75-0.152,1.86-1.795l0.002-0.003
		c0.096,0.023,0.185,0.04,0.271,0.054L3.74,2.372l0.006-0.01C4.172,2.428,4.488,2.386,4.884,2.22L4.263,1.796
		c0.126-0.101,0.239-0.211,0.304-0.353l0.105-0.035C4.764,1.47,4.841,1.523,4.841,1.523c0.078-0.049,0.148-0.104,0.211-0.164
		c0.809-0.021,1.803,0.359,1.897-0.131c0.006-0.28-0.505-0.383-1.035-0.573C5.91,0.602,5.901,0.549,5.886,0.502
		c0.653,0.313,0.435-0.637,0.851-0.485C7.21,0.34,7.745,0.57,8.218,0.893c1.925,1.315,3.609,2.333,5.686,3.352l0.271,0.138
		c0.994,0.513,1.873,1.084,2.722,1.769c-0.1,0.023-0.2,0.04-0.299,0.054c0.682,0.552,1.392,1.066,2.21,1.422
		c1.011,0.423,2.022,0.847,3.024,1.314c0.138,0.068,0.221,0.098,0.407,0.199l0.5,0.269c0.338,0.188,0.676,0.376,1.016,0.565
		c0.682,0.389,1.374,0.803,2.063,1.24c2.864,1.85,5.826,3.594,9.493,5.651c-1.668-0.842-3.193-1.613-4.497-2.412
		c-0.522-0.371-1.055-0.742-1.604-1.09c0.495,0.382,1.031,0.739,1.604,1.09c1.233,0.874,2.388,1.736,3.902,2.539
		c-0.546,0.521-0.886,1.026-0.931,1.547c-0.331,0.115-0.5,0.098-0.678,0.22c-1.272,0.868-2.624,1.658-3.191,2.579
		c0.133,0.043-0.43,0.427,0.014,0.391c-1.021,0.831-2.356,1.743-3.339,2.681c-0.447,0.392-0.789,0.882-1.137,1.433l-1.52,1.307
		l-0.19,0.163l-0.103,0.104l-0.207,0.208l-0.413,0.416c-0.553,0.555-1.107,1.111-1.666,1.672c-1.122,1.121-2.27,2.254-3.48,3.419
		c-0.619,0.551-1.401,1.09-2.088,1.56c0.804-0.995,1.675-1.959,2.579-2.908c1.073-0.635,2.056-1.307,2.546-2.327
		c0.13-0.216,0.261-0.426,0.398-0.631c-1.004,0.98-1.994,1.961-2.944,2.958c-0.633,0.375-1.297,0.737-1.908,1.149l0.023-0.044
		c0.398-0.443,0.804-0.883,1.219-1.318c0.954-0.564,1.836-1.159,2.365-2.001c0.066-0.105,0.129-0.213,0.182-0.327
		c0.128-0.215,0.261-0.425,0.397-0.629c-0.614,0.609-1.226,1.215-1.834,1.818c-0.37,0.38-0.741,0.761-1.11,1.139
		c-0.281,0.164-0.566,0.33-0.851,0.496c0.013-0.042,0.029-0.085,0.037-0.128c0.176-0.253,0.108-1.774-0.433-1.805
		c-1.804,1.266-4.063,3.443-4.125,3.352c-0.367-0.284,2.426-2.892,2.246-2.903c-0.203,0.079-0.401,0.164-0.596,0.253
		c0.115-0.187,0.226-0.374,0.316-0.562c0.292-0.333,0.828-0.565,0.94-0.909c0.454-1.111,1.525-1.575,2.222-2.584
		c0.405-0.678,0.865-1.526,1.325-2.375c-0.124-0.181,0.294-0.333,0.051-0.435c0.667-0.455,1.439-0.983,1.362-1.709l0.039-0.048
		c0.047-0.032,0.082-0.1,0.117-0.185c0.524-0.289,0.868-0.675,1.1-1.066c0.235-0.392,0.362-0.792,0.527-1.162
		c0.203-0.207,0.422-0.401,0.688-0.583c-0.177,0.121-0.551,0.243-0.61,0.417l-0.078,0.166c-0.522,0.534-0.951,1.182-1.528,1.865
		c-0.018,0.091-0.05,0.24-0.099,0.363c-0.059,0.034-0.113,0.062-0.18,0.094c0.011,0.048,0.019,0.094,0.024,0.139
		c-0.638,0.818-1.497,1.543-2.009,2.286c-1.1,1.206-2.603,2.009-3.976,2.87c0.561-0.606,1.105-1.22,1.63-1.836
		c-0.701,0.708-1.355,1.385-1.978,2.059c-0.116,0.077-0.229,0.152-0.343,0.228l-0.71,0.484c0.248-0.11,0.488-0.229,0.724-0.351
		c-0.369,0.406-0.73,0.813-1.077,1.227c-2.08,2.045-4.375,3.937-6.871,5.435c-0.029-0.143-0.05-0.29-0.065-0.44
		c1.12-0.845,2.276-1.634,2.891-2.766c-0.668,0.456-1.021,0.931-1.652,1.389c-0.035-0.052-0.093-0.123-0.062-0.193
		c-0.341,0.384-0.755,0.811-1.204,1.159c-0.011-0.338-0.002-0.685,0.006-1.034c0.112-0.344,0.467-0.586,0.76-0.919
		c1.427-1.205,2.904-2.146,4.265-3.399c1.369-0.885,2.737-1.769,4.046-2.686C13.433,26.927,12.407,28.012,11.46,29.142"/>
	<path clip-path="url(#SVGID_2_)" fill="#03BED7" d="M13.787,27.865c-0.435,0.46-0.877,0.917-1.333,1.365
		c-0.323,0.386-0.639,0.778-0.947,1.181c-1.565,1.783-3.894,3.133-5.783,4.745c0.123,0.309,0.302,0.586,0.568,0.818
		c2.416-1.216,4.297-3.215,6.613-4.574l0.032-0.065c0.574-1.192,2.234-2.06,3.106-3.322c0.809-1.354,1.867-2.343,2.738-3.606
		C17.073,25.574,15.583,26.879,13.787,27.865"/>
	<path clip-path="url(#SVGID_2_)" fill="#03BED7" d="M19.9,17.359c-0.039,0.106-0.089,0.221-0.149,0.348
		c-0.083,0.373-0.166,0.829-0.398,1.47c0.361-0.316,0.717-0.603,1.117-0.876C20.746,17.971,20.324,17.586,19.9,17.359"/>
	<path clip-path="url(#SVGID_2_)" fill="#03BED7" d="M19.126,19.736c0.089-0.203,0.163-0.387,0.227-0.558L18.95,19.54l-0.205,0.19
		l-0.104,0.098l-0.225,0.181l-1.804,1.477c-1.845,1.804-3.725,3.561-5.496,5.474c-0.205,0.212-0.414,0.413-0.626,0.608
		c1.988-1.283,3.973-2.563,5.777-3.95c0.902-0.693,1.759-1.412,2.549-2.172c0.193-0.187,0.401-0.389,0.569-0.57
		c0.115-0.145,0.222-0.29,0.318-0.434c0.192-0.288,0.341-0.571,0.435-0.846c0.013-0.04,0.028-0.084,0.042-0.126
		c-0.208,0.164-0.413,0.334-0.62,0.509l-0.312,0.268c-0.108,0.094-0.181,0.164-0.401,0.336c-0.735,0.6-1.469,1.199-2.202,1.797
		l1.432-1.422l0.707-0.726c0.026-0.028,0.064-0.065,0.081-0.087l0.04-0.059l0.078-0.118L19.126,19.736z"/>
	<path clip-path="url(#SVGID_2_)" fill="#03BED7" d="M14.208,27.419c-0.117,0.075-0.232,0.149-0.348,0.223
		c-0.11,0.121-0.219,0.241-0.328,0.36l0.255-0.138L14.208,27.419z"/>
	<path clip-path="url(#SVGID_2_)" fill="#03BED7" d="M19.188,27.469l0.051-0.021c0.338-0.307,0.688-0.611,1.043-0.915
		c0.416-0.527,0.872-1.044,1.364-1.537C20.694,25.799,19.755,26.597,19.188,27.469"/>
	<path clip-path="url(#SVGID_2_)" fill="#03BED7" d="M24.029,27.362c0.213-0.145,0.637-0.435,0.85-0.581l0.253-0.413
		c-0.2,0.128-0.403,0.257-0.605,0.387L24.029,27.362z"/>
	<path clip-path="url(#SVGID_2_)" fill="#03BED7" d="M33.785,18.54c-2.567,2.273-5.279,4.671-8.331,7.304
		c-0.106,0.172-0.214,0.347-0.322,0.523c2.349-1.523,4.631-3.252,5.904-4.859c0.267-0.316,0.423-0.823,0.798-1.078
		c1.607-1.22,2.741-2.391,3.728-3.438l-0.251-0.126c0.074,0.042,0.148,0.083,0.225,0.126c-0.556,0.492-1.12,0.991-1.696,1.501
		L33.785,18.54z"/>
</g>
</svg>
