<?xml version="1.0" encoding="utf-8"?>
<!-- Generator: Adobe Illustrator 21.0.0, SVG Export Plug-In . SVG Version: 6.00 Build 0)  -->
<svg version="1.1" id="Layer_1" xmlns="http://www.w3.org/2000/svg" xmlns:xlink="http://www.w3.org/1999/xlink" x="0px" y="0px"
	 viewBox="0 0 46.5 46.1" style="enable-background:new 0 0 46.5 46.1;" xml:space="preserve">
<style type="text/css">
	.st0{fill:none;}
	.st1{fill:#03BDD6;}
</style>
<rect class="st0" width="46.5" height="46.1"/>
<rect class="st0" width="46.5" height="46.1"/>
<path class="st1" d="M46.5,22.9c0-0.2-0.3-1.3-0.8-3c0,0,0-0.1,0-0.1c0,0,0,0-0.1,0.1c-0.2-0.7-0.5-1.5-0.8-2.4
	c-0.2,0.2-0.4,0.3-0.5-0.3c0.1-0.1,0.2-0.2,0.3-0.3c-0.6-1.7-1.2-3.5-1.9-5.1c-0.1,0.1-0.2,0.2-0.2-0.2c0,0,0.1,0,0.1,0
	c-0.5-1.2-1-2.4-1.5-3.3c0,0,0,0.1,0,0.1c-0.1,0-0.2-0.1-0.1-0.2c0,0,0.1,0,0.1,0.1c-1-2-2-3.2-2.6-2.7c-0.4-0.3-5.3-4-5.9-3.8
	c0,0,0,0,0-0.1c0,0,0,0,0,0.1c0,0-0.1,0-0.1,0.1c-2-0.7-3.3-1-3.7-1c2,0-5.6-1.5-2.6-0.1c0,0.4-1.9,0.4-1.9-0.2
	C26.4-0.2,24,0.2,24,0c-0.9,0-3.4,0.5-4.7,0.5c-3.9,0-6.6,2-8.6,4c0.1,0.2,0.1,0.6-0.2,0.2c0,0,0,0,0-0.1c-1.8,1.9-3,3.8-3.8,4.3
	c0,0,0.1,0,0.1,0c0.4,1-0.8,0.2-1,0.2c-0.2-0.6-1.1,1.1-2.2,3.7c0.1,0,0.1,0,0,0.1c-2.5,5.7-5.6,15.8-2.1,15.8
	c0.3,0.9,1,2.6,1.6,3.9c0,0,0.1,0,0.2,0.1c0,0-0.1,0-0.1,0c0.4,0.8,0.8,1.5,1.1,1.6c-0.2,0-0.4,0-0.5,0c0.3,0.4,0.6,0.9,1,1.4
	c0,0,0.1,0,0.2-0.1c0,0-0.1,0.1-0.2,0.1C4.8,36,5,36.1,5.2,36.3c0.1-0.1,0.2-0.2,0.2,0.1c0,0,0,0,0,0C6,37.3,6.9,38.2,7.8,39
	c0.1-0.1,0.3-0.1,0.3,0.2c0,0-0.1,0-0.1,0c4.8,4.2,11.8,8.1,14.8,6.6c-0.2,0.1,0.4,0,0,0c0.5,0,1.2,0,1.9-0.1c0,0,0,0,0.1,0
	c0.2,0,0.5,0,0.7-0.1c0,0,0-0.1,0.1-0.1c0,0,0,0.1-0.1,0.1c1.1-0.1,2.1-0.2,2.1-0.1c0-0.3,5.4-1.1,4-1.1c-0.1,0-0.1,0-0.3,0
	c0.9,0,2.9-1.1,4.5-2.1c3,1,8.1-9.2,9.9-15.6c0,0,0,0,0.1,0c0,0,0,0-0.1,0C46.3,25.1,46.5,23.8,46.5,22.9z M46.2,25
	C46.3,25.1,45.8,25.6,46.2,25L46.2,25z M46.1,25.4C46,25.5,45.8,25.3,46.1,25.4L46.1,25.4z M24.7,0.2C24.8,0.3,24.8,0.5,24.7,0.2
	L24.7,0.2z M45.1,23.1C44.5,23,45.3,22.7,45.1,23.1L45.1,23.1z M44.3,21.8C44,22.8,44.5,21.3,44.3,21.8L44.3,21.8z M43.8,17.5
	C43.8,17.2,44.2,17.6,43.8,17.5L43.8,17.5z M43.9,23.7C43.9,23.5,43.9,23.7,43.9,23.7L43.9,23.7z M43.9,17.2c0.1,0,0.1,0.1,0.1,0.2
	C44,17.4,43.9,17.3,43.9,17.2z M44.2,19.8C44,19.6,43.9,19.6,44.2,19.8L44.2,19.8z M43.9,15C43.8,14.4,44.2,15.4,43.9,15L43.9,15z
	 M43.8,17.2C43.7,16.6,44.6,17.5,43.8,17.2L43.8,17.2z M43.7,15.9C43.5,15.5,44,15.9,43.7,15.9L43.7,15.9z M43.7,24.9
	C43.6,24.8,43.8,24.9,43.7,24.9L43.7,24.9z M43.7,17.1C43.7,17.1,43.7,17.3,43.7,17.1L43.7,17.1z M43.4,15.2
	C43,14.7,44.1,15.3,43.4,15.2L43.4,15.2z M43.3,16.9C43,17.7,43.4,16.3,43.3,16.9L43.3,16.9z M43,14.3C42.9,14.2,43.6,13.7,43,14.3
	L43,14.3z M42.4,14.7C42.7,14.4,42.4,15.1,42.4,14.7L42.4,14.7z M41.8,26.8C42.3,26.9,41.5,26.7,41.8,26.8L41.8,26.8z M41.7,29.1
	c0,0-0.2-0.2-0.1-0.2C41.7,28.9,41.8,29.1,41.7,29.1z M41.9,25.5C41.7,25.6,41.7,24.7,41.9,25.5L41.9,25.5z M42,23.9
	C40.7,23.2,42.7,22.5,42,23.9L42,23.9z M41.4,21.4C41,21.7,41.8,21.2,41.4,21.4L41.4,21.4z M41.4,26.4
	C41.6,26.8,41.3,26.1,41.4,26.4L41.4,26.4z M41.2,23.8C41.1,23.4,41.5,23.9,41.2,23.8L41.2,23.8z M41.9,19.4
	C41,19.6,41.1,19.1,41.9,19.4L41.9,19.4z M41.7,22.7C41.9,23.1,41.6,22.5,41.7,22.7L41.7,22.7z M41.6,20
	C41.5,19.7,41.9,20.4,41.6,20L41.6,20z M42,25C42.2,24.8,42.7,25.5,42,25L42,25z M42,25.5C42.4,25.6,42.1,25.7,42,25.5L42,25.5z
	 M42.1,19.4C42.7,19.7,41.7,20.7,42.1,19.4L42.1,19.4z M42.1,16C42.2,16.2,41.8,16.7,42.1,16L42.1,16z M41.9,14.8
	C42.3,15.3,41.9,14.9,41.9,14.8L41.9,14.8z M41.7,11.1C42,11.1,41.7,11.4,41.7,11.1L41.7,11.1z M41.7,11.6
	C41.7,11.2,42.1,11.7,41.7,11.6L41.7,11.6z M41.1,11C42.2,11.2,41.1,11.7,41.1,11L41.1,11z M41.5,13.1
	C41.7,13.6,40.7,12.8,41.5,13.1L41.5,13.1z M41,14.4C41.7,14.2,41.4,15.5,41,14.4L41,14.4z M40.9,10C40.9,9.9,41.2,9.8,40.9,10
	L40.9,10z M41.1,17c1,0,0.4,0.4,0.4,0.6C41.2,17.5,40.6,17,41.1,17z M40.8,25c-1-0.7-0.2-0.7,0-0.7c0,0,0,0,0,0.1
	c0.2-0.1,0.3,0.2,0,0.1C41.1,24.7,41.2,25.3,40.8,25z M40.5,25.1C40.1,25.1,40.5,24.7,40.5,25.1L40.5,25.1z M40.2,31.5
	C39.9,32.3,40.3,30.8,40.2,31.5L40.2,31.5z M40.2,32C39.9,31.8,40.5,31.7,40.2,32L40.2,32z M39.7,29.7C40.3,29.5,39.6,30,39.7,29.7
	L39.7,29.7z M39.9,32.2C39.4,32.4,39.9,32.1,39.9,32.2L39.9,32.2z M38.3,33.7C38.3,33.7,38.3,33.7,38.3,33.7
	c0.1,0.1,0.1,0.1,0.1,0.2C38.3,33.9,38.2,33.7,38.3,33.7z M38.3,32.3c-0.4-0.3-0.9-1.3,0.2-0.5C38.3,31.9,38.2,32.2,38.3,32.3z
	 M38,35.5C38,35.4,38.3,35.3,38,35.5L38,35.5z M38.1,38C38.2,37.5,38,38.7,38.1,38L38.1,38z M37.1,28.4C37.6,28.3,37,28.6,37.1,28.4
	L37.1,28.4z M37.1,30.8C37.4,30.6,37.2,31.2,37.1,30.8L37.1,30.8z M37,25.8C35.9,25.8,37.6,25.3,37,25.8L37,25.8z M36.9,26
	C37.1,26.3,36.8,25.8,36.9,26L36.9,26z M36.5,29.2C36,28.6,37.4,29.3,36.5,29.2L36.5,29.2z M36.6,30.8C36.9,31,36.6,30.9,36.6,30.8
	L36.6,30.8z M35.9,34.1c-2,0,1.3-1-0.3-0.3C35.6,33.7,36,34.1,35.9,34.1z M35.4,37.2C35.5,37.4,35.1,38,35.4,37.2L35.4,37.2z
	 M33,37.9C33,37.8,33.3,37.8,33,37.9L33,37.9z M33.1,29C33.1,29.3,32.9,28.9,33.1,29L33.1,29z M32.6,25.9c0.2,0-0.1-0.8-0.8-0.8
	c0.1,0,0.5-0.5-0.2-0.5C31.8,23.6,34.4,25.9,32.6,25.9z M33,32.2C32.9,32.2,32.8,32,33,32.2L33,32.2z M32.9,32.7
	C32.9,32.7,32.5,32.7,32.9,32.7L32.9,32.7z M32.7,27.6C32.3,27.6,32.7,27.3,32.7,27.6L32.7,27.6z M32.6,28.1
	C32.8,28.1,32.5,28.5,32.6,28.1L32.6,28.1z M32.4,36.8C32.7,36.5,32.4,37.2,32.4,36.8L32.4,36.8z M32.5,30.5c0.1,0,0,0.1,0,0.2
	C32.4,30.6,32.4,30.5,32.5,30.5z M31.9,33.1C31.9,33.3,31.7,33.5,31.9,33.1L31.9,33.1z M31.8,30.1c0.1,0,0.1,0.1,0.1,0.1
	C31.8,30.2,31.8,30.2,31.8,30.1z M31.9,28.9C32.5,29.5,31.3,28.9,31.9,28.9L31.9,28.9z M32.1,28.7C31.6,28.8,32.1,28.5,32.1,28.7
	L32.1,28.7z M31.9,26.1C32.1,26.1,32.1,26.5,31.9,26.1L31.9,26.1z M31.9,25.9C31.5,25.5,32.6,26.1,31.9,25.9L31.9,25.9z M31.9,25.5
	C31.8,25.4,31.9,25.4,31.9,25.5L31.9,25.5z M30.5,41.3C32,39.8,30.8,42.9,30.5,41.3L30.5,41.3z M31,41.8C30.7,42,30.3,42,31,41.8
	L31,41.8z M30.4,42.1C30.4,42.1,30.4,42.1,30.4,42.1C30.1,42.3,30.3,41.7,30.4,42.1z M30.4,37.3C30.1,37.1,30.4,37.2,30.4,37.3
	L30.4,37.3z M30.5,28.7C29.8,28.6,30.6,28,30.5,28.7L30.5,28.7z M29.8,41.3C29.8,41.3,30.3,41.4,29.8,41.3L29.8,41.3z M29.8,43.1
	C29.8,43,30,42.9,29.8,43.1L29.8,43.1z M29.9,37.2C29.8,36.5,30.1,37.2,29.9,37.2L29.9,37.2z M29.8,29.3
	C29.6,29.5,29.7,29.2,29.8,29.3L29.8,29.3z M29.7,35.4C29.9,35.4,29.6,35.8,29.7,35.4L29.7,35.4z M29.4,17.9
	C29.6,17.9,29.3,18.3,29.4,17.9L29.4,17.9z M29.5,20.1C29.5,20.2,29.4,20.2,29.5,20.1L29.5,20.1z M29.6,24.2
	C29.6,24.3,29.2,24.2,29.6,24.2L29.6,24.2z M30,25.2C29,25.3,30,24.9,30,25.2L30,25.2z M29.6,26.9C29.7,27.3,29.3,26.8,29.6,26.9
	L29.6,26.9z M29.8,4C30.6,4.6,29.8,4,29.8,4L29.8,4z M29.8,2.7C29.7,2.6,30.1,2.6,29.8,2.7L29.8,2.7z M30.1,5.6
	C29.9,5.8,30.1,5.3,30.1,5.6L30.1,5.6z M30.2,5.3C30.7,5,29.8,5.5,30.2,5.3L30.2,5.3z M30.2,4.3C30.2,4,30.6,4.2,30.2,4.3L30.2,4.3z
	 M30,7.5C30.1,6.7,30.3,7.5,30,7.5L30,7.5z M30.7,11.6C30.2,12.3,30,10.6,30.7,11.6L30.7,11.6z M30.3,10.7
	C30.6,10.4,30.3,11.2,30.3,10.7L30.3,10.7z M31.2,9.1C30.5,8.3,31.9,9,31.2,9.1L31.2,9.1z M31.3,7.8C31.3,8.3,31.1,7.3,31.3,7.8
	L31.3,7.8z M31.6,16.4c0.1,0.1,0,0.2,0,0.4C31.4,16.7,31.7,16.6,31.6,16.4z M32.7,15.3C33.2,15.5,32.8,16.3,32.7,15.3L32.7,15.3z
	 M32.9,14.5C32.7,14.3,32.9,14.4,32.9,14.5L32.9,14.5z M32.8,17.6C32.8,17.5,33.1,17.4,32.8,17.6L32.8,17.6z M32.7,18.9
	C32.7,18.9,33,18.8,32.7,18.9L32.7,18.9z M32.7,19.2C32.7,19.2,33.1,19.3,32.7,19.2L32.7,19.2z M32.7,21.9
	C32.9,20.8,33.1,22.5,32.7,21.9L32.7,21.9z M32.9,19.9C32.8,19.5,33,19.9,32.9,19.9L32.9,19.9z M33,18.4
	C32.6,19.1,32.9,18.1,33,18.4L33,18.4z M32.9,8.2c0,0,0.1,0.6,0.1,0.5C33,8.7,32.3,11,32.9,8.2z M32.7,17.7
	C32.5,17.7,32.6,17.6,32.7,17.7L32.7,17.7z M32.6,23.9C31.9,23.8,33.4,23.5,32.6,23.9L32.6,23.9z M32.3,23.7
	C31.2,23.9,32.3,23.6,32.3,23.7L32.3,23.7z M32.1,24.3C32,24,32.2,24.2,32.1,24.3L32.1,24.3z M32,11.6C32,11.9,31.6,11.8,32,11.6
	L32,11.6z M31.9,9.6C31.9,9.8,31.9,9.3,31.9,9.6L31.9,9.6z M32.2,16.8C32.5,17.3,31.6,16.9,32.2,16.8L32.2,16.8z M32,15.8
	C32.5,16.1,32,15.9,32,15.8L32,15.8z M32.3,24C32.4,23.8,32.5,24.4,32.3,24L32.3,24z M32.4,20C32.4,20.1,31.6,20.4,32.4,20L32.4,20z
	 M32.5,17.1C32.3,17.5,32.3,16.9,32.5,17.1L32.5,17.1z M32.4,17.5C32.4,17.2,32.5,17.5,32.4,17.5L32.4,17.5z M32.5,19.7
	C32.3,19.9,32.4,19.7,32.5,19.7L32.5,19.7z M32.5,15.9c0.1,0,0.1,0,0.1,0.1C32.5,16,32.4,16,32.5,15.9z M32.5,6.3
	C32.5,6.5,32.2,6.5,32.5,6.3L32.5,6.3z M32.4,11.9C32.3,12.4,31.8,11.7,32.4,11.9L32.4,11.9z M32.2,9.2C32.1,9.4,31.6,9.3,32.2,9.2
	L32.2,9.2z M31.8,7.1C32.3,7.2,31.3,7.5,31.8,7.1L31.8,7.1z M31.6,23.1C31.9,22.7,31.9,23.1,31.6,23.1L31.6,23.1z M31.6,16.2
	C31.9,15.9,31.8,16.4,31.6,16.2L31.6,16.2z M31.5,25.3C30,24.9,31.5,25,31.5,25.3L31.5,25.3z M31.5,25.7
	C31.1,25.5,31.5,25.6,31.5,25.7L31.5,25.7z M31.3,30.2c0,0,0,0.1,0,0.1C30.4,31,31.4,29.6,31.3,30.2C31.3,30.2,31.4,30.2,31.3,30.2
	C31.4,30.2,31.3,30.2,31.3,30.2z M31.4,33.2C31.6,33.2,31.4,33.4,31.4,33.2L31.4,33.2z M31.3,31.8c-0.1-0.1,0.1-0.2,0-0.3
	C31.5,31.6,31.2,31.7,31.3,31.8z M30.7,36.4C30.9,36.5,30.7,36.5,30.7,36.4L30.7,36.4z M30.8,36.3C30.7,36.2,30.7,36,30.8,36.3
	L30.8,36.3z M30.8,38.3C30.8,38.5,30.5,38.3,30.8,38.3L30.8,38.3z M30.7,29.1C30.7,28.5,31.6,29.1,30.7,29.1L30.7,29.1z M31.2,19.2
	C31.8,18.3,31.5,20.1,31.2,19.2L31.2,19.2z M31.4,11.9C31.3,11.7,31.3,11.7,31.4,11.9L31.4,11.9z M31.5,16
	C31.3,15.7,31.6,15.8,31.5,16L31.5,16z M31.3,23.1C30.8,22.4,32.1,23.1,31.3,23.1L31.3,23.1z M31.1,24.2c0,0,0.1,0,0.1,0
	C31.3,24.3,31.2,24.3,31.1,24.2c0,0.1,0,0.3,0,0.3C31.1,24.3,31.1,24.3,31.1,24.2C31.1,24.2,31.1,24.2,31.1,24.2
	C31.1,24.2,31.1,24.2,31.1,24.2z M31.2,23.6C31.1,23.7,30.9,23.3,31.2,23.6L31.2,23.6z M31,23.2C30.3,23.1,31.6,22.6,31,23.2
	L31,23.2z M30.9,20.4C31.3,21,30.7,20.2,30.9,20.4L30.9,20.4z M31,19.4C31.1,19.3,30.9,19.7,31,19.4L31,19.4z M30.7,15.6
	C30.7,15.6,31.2,15.2,30.7,15.6L30.7,15.6z M30.9,22.8C30.5,22.3,31.2,22.5,30.9,22.8L30.9,22.8z M30.7,23.8
	C31,23.9,30.7,23.8,30.7,23.8L30.7,23.8z M31.1,38.4C31,38.4,31,38.3,31.1,38.4L31.1,38.4z M30.9,38.5
	C31.1,38.3,31.3,38.8,30.9,38.5L30.9,38.5z M31,36.2c0,0,0,0.1,0.1,0.1C31,36.3,31,36.3,31,36.2z M31.6,23.9
	C31.4,24.4,31.1,23.4,31.6,23.9L31.6,23.9z M31.6,8.9C31.6,9.2,31.3,8.8,31.6,8.9L31.6,8.9z M31,9.7C31.8,9.2,31.5,9.8,31,9.7
	L31,9.7z M31.3,7.9C31.6,8.4,31.3,8.7,31.3,7.9L31.3,7.9z M30.9,9.3C31.3,9.1,30.8,9.3,30.9,9.3L30.9,9.3z M31,12.8
	C30.8,13.3,30.6,12.2,31,12.8L31,12.8z M30.7,12.6C30.8,12.5,30.8,12.6,30.7,12.6L30.7,12.6z M30.8,16.5
	C30.6,16.8,30.6,16.5,30.8,16.5L30.8,16.5z M30.6,27.9C30.6,27.9,30.7,28.3,30.6,27.9L30.6,27.9z M30.5,28.8
	C30.6,28.6,30.7,28.8,30.5,28.8L30.5,28.8z M30.4,22.3C30.6,22.3,30.4,22.6,30.4,22.3L30.4,22.3z M30.5,24.4
	C30.4,24.5,30.4,24.1,30.5,24.4L30.5,24.4z M30.5,24.7C30.3,25,30.6,24.6,30.5,24.7L30.5,24.7z M30.6,16.4
	C29.7,16.7,30.6,16.4,30.6,16.4L30.6,16.4z M30.4,15.5C30.2,15.8,30.2,15.5,30.4,15.5L30.4,15.5z M30.4,15.8
	C30.5,15.7,30.8,16.4,30.4,15.8L30.4,15.8z M30.5,13.6C30.8,13.2,30.5,14,30.5,13.6L30.5,13.6z M30.5,12.8
	C30.2,12.8,30.5,12.5,30.5,12.8L30.5,12.8z M30.3,14.9C30.3,15,30,14.9,30.3,14.9L30.3,14.9z M30.4,24.7
	C30,24.7,30.2,24.4,30.4,24.7L30.4,24.7z M30,25.4C30,25.3,30.5,25.4,30,25.4L30,25.4z M30.2,22.5C30.1,22.5,30.1,22.2,30.2,22.5
	L30.2,22.5z M30,20.5C30.1,19.5,30.3,20.8,30,20.5L30,20.5z M30.1,14.3C30,15,29.3,14.3,30.1,14.3L30.1,14.3z M29.9,24.4
	C30,24.7,29.9,24.5,29.9,24.4L29.9,24.4z M29.9,24C29.6,24,29.9,23.7,29.9,24L29.9,24z M29.8,21.9C30,20.9,29.7,22.8,29.8,21.9
	L29.8,21.9z M29.6,21.6C29.6,21.4,30,21.7,29.6,21.6L29.6,21.6z M30.2,31.3C30.1,31.5,29.3,31.1,30.2,31.3L30.2,31.3z M30,37.8
	C29.9,37.6,30.5,36.9,30,37.8L30,37.8z M30.1,38.9C30.3,39,30,39,30.1,38.9L30.1,38.9z M30,40.5C30,39.9,30.5,40.9,30,40.5L30,40.5z
	 M30.6,25.9C30.1,27.2,29.4,26.1,30.6,25.9L30.6,25.9z M30.5,30.7C30.4,29.6,31,31.1,30.5,30.7L30.5,30.7z M30.5,35.7
	C30.9,35.5,30.5,36.2,30.5,35.7L30.5,35.7z M30.5,37.1C30.4,36.4,30.9,37.1,30.5,37.1L30.5,37.1z M30.6,39.2
	C30.9,39.1,30.4,40,30.6,39.2L30.6,39.2z M31.2,36.9C31.9,37,30.6,37.2,31.2,36.9L31.2,36.9z M31.4,36.9
	C31.7,36.8,31.3,37.1,31.4,36.9L31.4,36.9z M31.5,29.9C31.4,29.9,31.2,28.9,31.5,29.9L31.5,29.9z M31.7,24.4
	C31.2,24.9,31.3,24.3,31.7,24.4L31.7,24.4z M33.1,27.5C33.3,27.2,33.3,27.7,33.1,27.5L33.1,27.5z M33.3,40.2
	C33.4,40.6,33,40.1,33.3,40.2L33.3,40.2z M33.6,38.5C32.6,38.6,33.7,38.2,33.6,38.5L33.6,38.5z M33.6,22.7
	C33.3,22.8,33.7,22.4,33.6,22.7L33.6,22.7z M33.7,23C33.4,23.1,33.7,22.8,33.7,23L33.7,23z M33.5,25.1
	C33.5,25.2,33.2,25.1,33.5,25.1L33.5,25.1z M33.6,25.8C33.4,26,33.4,25.8,33.6,25.8L33.6,25.8z M33.6,26C33.6,26,34,26.6,33.6,26
	L33.6,26z M33.7,23.8C34,23.4,33.7,24.2,33.7,23.8L33.7,23.8z M33.6,15.8C33.7,15.7,33.8,15.9,33.6,15.8L33.6,15.8z M33.7,16.2
	c-0.1-0.1-0.1-0.1,0-0.2C33.7,16.1,33.7,16.2,33.7,16.2z M33.5,16.5C34,16.7,33.5,17,33.5,16.5L33.5,16.5z M33.5,20.9
	C33.8,20.7,33.5,21.4,33.5,20.9L33.5,20.9z M33.4,21.7C33.5,21.6,34,21.9,33.4,21.7L33.4,21.7z M33.4,35.5
	C33.2,35.3,33.6,35.2,33.4,35.5L33.4,35.5z M33.6,29.3C33.6,29.4,33.3,29.3,33.6,29.3L33.6,29.3z M33.7,27.6
	C33.6,27.7,33.2,27.6,33.7,27.6L33.7,27.6z M33.5,33.1C33.6,32.7,33.8,33.1,33.5,33.1L33.5,33.1z M33.7,35.2
	C33.7,35.6,33.6,34.7,33.7,35.2L33.7,35.2z M33.8,26.7C32.9,26.9,33.8,26.6,33.8,26.7L33.8,26.7z M33.9,34.6
	C34,35.2,33.3,34.6,33.9,34.6L33.9,34.6z M34.1,23c-0.1,0.3-0.2,0-0.2-0.1c-0.1,0-0.3-0.1,0.1-0.1c0,0,0,0,0,0.1
	C34,22.9,34.1,22.9,34.1,23z M34.1,9.1C33.9,9.5,34.2,9,34.1,9.1L34.1,9.1z M34.7,10.8C34.6,10.6,34.7,11,34.7,10.8L34.7,10.8z
	 M34.7,10.4C34.7,10.4,34.7,10.4,34.7,10.4L34.7,10.4z M34.3,28C34.6,27.8,35.4,28.2,34.3,28L34.3,28z M34.9,30.3
	C34.8,31,34.9,30.6,34.9,30.3L34.9,30.3z M34.8,31C34.8,31,34.7,30.8,34.8,31L34.8,31z M34.1,32.7C34.3,32.9,34.1,32.8,34.1,32.7
	L34.1,32.7z M34.1,35.7C34.1,35.6,34.2,35.6,34.1,35.7L34.1,35.7z M34,26C33.8,26,34,25.9,34,26L34,26z M33.9,26.9
	C33.9,26.5,34.1,26.9,33.9,26.9L33.9,26.9z M34.1,25.7C34.1,26.4,33.8,25.4,34.1,25.7L34.1,25.7z M34.1,27
	C34.1,26.9,34.1,27.2,34.1,27L34.1,27z M34,34.8C34.2,34.7,34,35.2,34,34.8L34,34.8z M34.1,30.6C34.5,31.2,33.9,30.4,34.1,30.6
	L34.1,30.6z M34.1,29.7C34.1,29.6,34.2,29.6,34.1,29.7L34.1,29.7z M34.3,23.6C34.3,24,34.1,23.2,34.3,23.6L34.3,23.6z M34.6,22.2
	C34.4,22.1,34.6,21.9,34.6,22.2L34.6,22.2z M34.5,13.5C34.8,13.6,34.5,13.5,34.5,13.5L34.5,13.5z M34.5,21.5
	C34.3,22,34.1,21.4,34.5,21.5L34.5,21.5z M34.3,26.2C34.3,26.4,34.2,26.6,34.3,26.2L34.3,26.2z M34.3,30.3
	C34.3,29.4,35.4,30.3,34.3,30.3L34.3,30.3z M34.7,13.5C35.1,13.4,34.8,14,34.7,13.5L34.7,13.5z M34.7,12.3
	C34.5,12.8,34.2,11.7,34.7,12.3L34.7,12.3z M34.3,16.7C34.2,16.3,34.7,17,34.3,16.7L34.3,16.7z M34.2,19.9
	C35.1,19.3,34.2,20.1,34.2,19.9L34.2,19.9z M34.2,9.6C34.1,10.4,34,9,34.2,9.6L34.2,9.6z M34.2,11C34.2,11.2,34.1,11.3,34.2,11
	L34.2,11z M34.2,15.7C34.2,16,34,16,34.2,15.7L34.2,15.7z M33.9,35.8C33.8,35.8,33.8,35.6,33.9,35.8L33.9,35.8z M34,38
	C33.7,38,33.8,37.7,34,38L34,38z M34,38C34.3,38.1,34,38.1,34,38L34,38z M34.2,37.8C34.1,37.8,34.1,37.5,34.2,37.8L34.2,37.8z
	 M34.3,35.4C34.4,35.8,34,35.3,34.3,35.4L34.3,35.4z M34.6,33.7C33.6,33.8,34.7,33.4,34.6,33.7L34.6,33.7z M34.3,35.6
	C34.5,35.5,34.6,36,34.3,35.6L34.3,35.6z M34.6,36.1C33.9,36.6,35.2,35.5,34.6,36.1L34.6,36.1z M34.7,34
	C34.7,33.9,35.1,33.9,34.7,34L34.7,34z M35,33.2C34.7,33.2,34.8,32.9,35,33.2L35,33.2z M34.9,28.6C34.8,28.2,35.2,28.9,34.9,28.6
	L34.9,28.6z M35.1,26.8C34.4,27.3,35.1,26.3,35.1,26.8L35.1,26.8z M35,13.3C35.3,12.7,35.4,13.5,35,13.3L35,13.3z M35,11.4
	C35.1,11.9,35,11.2,35,11.4L35,11.4z M35.1,11C35.1,11,35.1,11,35.1,11L35.1,11z M36.3,18.9c0,0-0.1,0-0.1,0h0c-0.8,0,1,1.7-0.6,0.2
	C36.1,18.8,36.1,18,36.3,18.9z M35.9,16.5C35.9,16.8,35.7,16.5,35.9,16.5L35.9,16.5z M36.3,16C37.3,16.2,35.3,16.5,36.3,16L36.3,16z
	 M36.5,27.5C36.2,27.7,36.8,27.3,36.5,27.5L36.5,27.5z M36.2,31.2C36.6,31.7,36.2,31.4,36.2,31.2L36.2,31.2z M36.4,32.4
	C36.5,32.6,36.1,33.1,36.4,32.4L36.4,32.4z M36.1,15.3C36,15.3,36,15.1,36,15C36.1,15.1,36.1,15.2,36.1,15.3z M36.1,10
	C36.1,10.2,35.8,10.2,36.1,10L36.1,10z M36.1,27.7C36.1,27.7,36.1,28.1,36.1,27.7L36.1,27.7z M35.6,23.3
	C35.8,23.2,35.9,23.7,35.6,23.3L35.6,23.3z M35.8,26.2c-0.1,0-0.1,0-0.1-0.1C35.7,26.1,35.8,26.1,35.8,26.2z M35.7,27.3
	C35.5,27.8,35.5,27.1,35.7,27.3L35.7,27.3z M35.5,27.7C35.6,27.5,35.7,27.8,35.5,27.7L35.5,27.7z M35.7,29.9
	C35.5,30.1,35.5,29.9,35.7,29.9L35.7,29.9z M35.5,22.7C35,22.7,35.5,22.4,35.5,22.7L35.5,22.7z M35.2,26
	C35.7,26.3,35.2,26.2,35.2,26L35.2,26z M35.3,29.6C35.3,29.5,35.9,29.5,35.3,29.6L35.3,29.6z M35.3,30.8
	C35.5,30.7,35.6,31.2,35.3,30.8L35.3,30.8z M35.6,31.3C34.9,31.8,36.1,30.7,35.6,31.3L35.6,31.3z M35.7,28.3
	C35.5,28.2,35.9,28.4,35.7,28.3L35.7,28.3z M35.7,26.9C35.9,26.9,35.8,27.3,35.7,26.9L35.7,26.9z M35.9,27.9
	C35.7,27.9,35.8,27.8,35.9,27.9L35.9,27.9z M35.9,20.3C36,20.4,35.4,21.3,35.9,20.3L35.9,20.3z M35.6,12.6
	C35.6,12.7,35.3,12.8,35.6,12.6L35.6,12.6z M35.6,11.1C35.6,11.3,35.3,10.7,35.6,11.1L35.6,11.1z M35.5,10.6
	C35.5,11,35.1,10.5,35.5,10.6L35.5,10.6z M35.3,22C36.1,22.1,35.1,22.7,35.3,22L35.3,22z M35.3,15.5C35.3,15.5,35.1,15.5,35.3,15.5
	L35.3,15.5z M35.2,13.6C34.8,13.6,35.2,13.3,35.2,13.6L35.2,13.6z M35.2,21.8C35.2,22.1,34.8,22,35.2,21.8L35.2,21.8z M35,19.7
	C35.3,19.8,34.8,19.7,35,19.7L35,19.7z M35,23.1C34.8,22.4,35.7,23.4,35,23.1L35,23.1z M35.2,24.3C35.2,24.3,35.1,25.3,35.2,24.3
	L35.2,24.3z M35.1,26.1C34.9,26.1,35.2,25.6,35.1,26.1L35.1,26.1z M35.2,26.7C34.5,26.4,35.7,26.6,35.2,26.7L35.2,26.7z M35.2,33
	C35,33,35.1,32.6,35.2,33L35.2,33z M35.1,30.9C35.3,30.8,35,31.2,35.1,30.9L35.1,30.9z M35.2,29.9C35.7,29.9,34.8,30.2,35.2,29.9
	L35.2,29.9z M36.1,29.5C35.6,29.6,36.2,29.3,36.1,29.5L36.1,29.5z M36.2,28.6C35.8,29.3,36.1,28.3,36.2,28.6L36.2,28.6z M36.1,36.4
	C36.7,36.2,36.1,36.7,36.1,36.4L36.1,36.4z M36.2,39C36.2,38.6,36.6,39,36.2,39L36.2,39z M36.4,38.4C36.2,38.3,36.5,37.5,36.4,38.4
	L36.4,38.4z M36.6,23.5C36.6,23.5,37.1,23.3,36.6,23.5L36.6,23.5z M36.8,23.9C36.8,24.1,36.7,23.9,36.8,23.9L36.8,23.9z M36.6,24.3
	C36.7,24.1,36.9,24.3,36.6,24.3L36.6,24.3z M37.1,15.9C36.8,15.9,37,15.4,37.1,15.9L37.1,15.9z M36.9,11.7
	C37,11.3,36.9,11.9,36.9,11.7L36.9,11.7z M37.4,10.5C37.3,10.8,36.9,10.4,37.4,10.5L37.4,10.5z M37.4,22.7
	C37.4,22.4,37.8,23,37.4,22.7L37.4,22.7z M37.3,20.9C37.6,21,37.1,20.8,37.3,20.9L37.3,20.9z M37.2,11.5
	C37.2,10.9,37.7,10.8,37.2,11.5L37.2,11.5z M37.1,9.5C37.6,9.3,37.1,10.4,37.1,9.5L37.1,9.5z M37.1,16.4
	C37.2,16.6,36.9,16.7,37.1,16.4L37.1,16.4z M37.1,21.8C37,21.6,37.1,21.7,37.1,21.8L37.1,21.8z M37,20.6C36.7,20.9,37,20.3,37,20.6
	L37,20.6z M37,25.1C37,25.1,36.7,25,37,25.1L37,25.1z M37.4,22.9C37.2,23.1,37.3,22.8,37.4,22.9L37.4,22.9z M37.3,28.4
	C37.9,28.4,37.4,28.7,37.3,28.4L37.3,28.4z M37.6,31.3C37.9,31.4,37.6,31.4,37.6,31.3L37.6,31.3z M37.6,31.3
	C37.3,31.3,37.4,31,37.6,31.3L37.6,31.3z M37.6,29.1C37.3,28.8,37.9,29.2,37.6,29.1L37.6,29.1z M37.7,30.6c-0.1,0-0.1-0.1,0-0.1
	C37.8,30.4,37.7,30.5,37.7,30.6z M37.4,29.1C37.3,29.1,37.3,28.9,37.4,29.1L37.4,29.1z M37.3,34.7C37,33.8,38.3,34.8,37.3,34.7
	L37.3,34.7z M37.7,31.1C37.6,31.1,37.7,30.8,37.7,31.1L37.7,31.1z M37.5,22.5C37.5,22.5,38.3,22.8,37.5,22.5L37.5,22.5z M38.1,10.7
	C37.6,11,37.8,10.2,38.1,10.7L38.1,10.7z M37.8,7.7C37.9,8,37.8,7.6,37.8,7.7L37.8,7.7z M37.9,7.8C38.2,7.8,37.9,7.8,37.9,7.8
	L37.9,7.8z M38.3,25.9C38.1,26.1,38.2,25.9,38.3,25.9L38.3,25.9z M38.2,27.9C38.5,27.7,38.1,28.2,38.2,27.9L38.2,27.9z M38.3,21.8
	C38.4,22.1,38,21.8,38.3,21.8L38.3,21.8z M38.2,21.6C38.2,21.6,37.8,21.5,38.2,21.6L38.2,21.6z M37.9,28.9
	C38,28.8,38.2,29.3,37.9,28.9L37.9,28.9z M37.8,27.1C37.9,26.9,38.3,27.3,37.8,27.1L37.8,27.1z M38.1,29.4
	C37.8,29.1,38.1,29.4,38.1,29.4L38.1,29.4z M37.7,16.6c0.1,0,0.1,0,0.1,0.1C37.8,16.7,37.7,16.7,37.7,16.6z M37.8,20
	C37.8,19.7,38.2,20.1,37.8,20L37.8,20z M38,21.4C37.4,21.5,38.2,20.7,38,21.4L38,21.4z M37.6,8.5C37.6,8.4,38,8.5,37.6,8.5L37.6,8.5
	z M37.7,16.2C37.7,16.3,37.6,16.3,37.7,16.2L37.7,16.2z M37.7,20.1c-0.1,0-0.2-0.1-0.2-0.2C37.6,20,37.7,20,37.7,20.1z M37.7,21.9
	C37.8,22.2,37.5,21.7,37.7,21.9L37.7,21.9z M38.1,23.7C38,23.9,37.3,24,38.1,23.7L38.1,23.7z M37.8,26.9
	C37.9,26.5,38.4,27.1,37.8,26.9L37.8,26.9z M38.4,10.8C39,10.8,38.4,11.2,38.4,10.8L38.4,10.8z M38.5,9.3C38.4,9.4,38.5,9,38.5,9.3
	L38.5,9.3z M38.7,10.5C38.7,10.7,38.4,10.5,38.7,10.5L38.7,10.5z M38.4,12.4C38.4,12,39,12.7,38.4,12.4L38.4,12.4z M38.5,24.7
	C38.8,25.3,38.5,24.8,38.5,24.7L38.5,24.7z M38.3,18.4C38.6,18.2,38.6,18.4,38.3,18.4L38.3,18.4z M38.3,20.2
	C38.5,20.2,38.4,20.3,38.3,20.2L38.3,20.2z M38.4,24.8C38.4,24.4,38.7,24.9,38.4,24.8L38.4,24.8z M38.6,23.8
	C38.3,23.8,38.5,23.7,38.6,23.8L38.6,23.8z M38.7,25.3C38.4,25.6,38.5,24.6,38.7,25.3L38.7,25.3z M38.8,21.6
	C38.6,21.4,39.1,21.6,38.8,21.6L38.8,21.6z M38.9,14.2C39.2,15.1,38.8,14.7,38.9,14.2L38.9,14.2z M39.5,21.7
	C38.4,21.7,39.5,21.6,39.5,21.7L39.5,21.7z M39.3,16.2C39.3,16.6,39.2,16.2,39.3,16.2L39.3,16.2z M39.6,24.3
	C39.6,24.4,38.9,24.4,39.6,24.3L39.6,24.3z M39.6,25.6c0,0,0,0.1,0,0.1C39.6,25.6,39.6,25.6,39.6,25.6z M39.6,25.7
	C39.6,25.8,39.6,25.8,39.6,25.7C39.6,25.8,39.6,25.7,39.6,25.7z M39.3,23.6C38.9,23.8,39.9,23.4,39.3,23.6L39.3,23.6z M39.7,19.4
	C39.6,20.4,39.2,18,39.7,19.4L39.7,19.4z M38.9,11.5C39,11.1,39.6,11.8,38.9,11.5L38.9,11.5z M38.9,22.2
	C38.9,22,39.2,22.5,38.9,22.2L38.9,22.2z M39.1,22.1C38.8,22.1,39.4,22.1,39.1,22.1L39.1,22.1z M39.3,25.1
	C39.3,25.6,38.9,24.7,39.3,25.1L39.3,25.1z M39.2,25.9C39.2,25.5,39.7,25.9,39.2,25.9L39.2,25.9z M39.5,26.9
	C39.3,27.2,39.3,26.6,39.5,26.9L39.5,26.9z M39.6,34.4C39.8,34.9,39.3,34.7,39.6,34.4L39.6,34.4z M39.6,28.2
	C39.7,27.9,39.6,28.2,39.6,28.2L39.6,28.2z M39.6,26.5C39.4,26.3,39.8,26.7,39.6,26.5L39.6,26.5z M39.7,20.2
	C39.9,20,39.9,20.8,39.7,20.2L39.7,20.2z M39.7,16.3C40,16.4,39.7,16.3,39.7,16.3L39.7,16.3z M40,27.7C40.4,27.7,39.8,28.1,40,27.7
	L40,27.7z M39.9,25.3C39.9,25.1,40.2,25.3,39.9,25.3L39.9,25.3z M40.1,24.9C40.2,25.1,39.8,24.8,40.1,24.9L40.1,24.9z M40,16.6
	C40.1,16.7,39.7,16.6,40,16.6L40,16.6z M40,19C40,19.4,39.7,18.9,40,19L40,19z M39.8,22.6C39.7,22.3,40.1,22.9,39.8,22.6L39.8,22.6z
	 M39.9,24.6C39.8,24.2,40.1,24.7,39.9,24.6L39.9,24.6z M40.1,28.6C40.2,28.7,39.7,29.1,40.1,28.6L40.1,28.6z M40.2,24.3
	C39.6,24.2,40.6,24,40.2,24.3L40.2,24.3z M40.1,16C40.4,16.1,40.1,16,40.1,16L40.1,16z M40.2,16.5C40.2,16.7,40.2,16.6,40.2,16.5
	L40.2,16.5z M40.3,18.9C40.3,18.9,40.4,18.9,40.3,18.9C40.4,18.9,40.4,18.9,40.3,18.9C40.4,19,40.2,19,40.3,18.9z M40.4,17.5
	C40.4,17.4,40.8,17.5,40.4,17.5L40.4,17.5z M40.5,14.5C40.4,14.5,40.3,14.5,40.5,14.5L40.5,14.5z M40.8,22.3
	C40.5,22.6,40.7,22.3,40.8,22.3L40.8,22.3z M40.8,21.4C40.8,20.7,40.9,22,40.8,21.4L40.8,21.4z M40.6,21.9
	C40.7,21.9,40.7,22.1,40.6,21.9L40.6,21.9z M40.6,23.4C40.6,23,40.9,23.4,40.6,23.4L40.6,23.4z M40.6,16.7
	C40.7,17,40.5,16.7,40.6,16.7L40.6,16.7z M40.6,22.8C40.5,22.6,40.6,22.6,40.6,22.8L40.6,22.8z M40.9,24.1
	C40.8,24,40.9,23.7,40.9,24.1L40.9,24.1z M41,22.2C40.4,21.7,41.6,22.5,41,22.2L41,22.2z M40.7,16.5C40.5,16,41.3,16.8,40.7,16.5
	L40.7,16.5z M40.7,16.1C40.5,16.4,40.8,15.7,40.7,16.1L40.7,16.1z M40.3,8.2C40.1,8.1,40.4,7.3,40.3,8.2L40.3,8.2z M40.1,8.7
	C40.1,8.4,40.5,8.8,40.1,8.7L40.1,8.7z M40.8,10.8C40.7,11.5,38.9,10.3,40.8,10.8L40.8,10.8z M39.8,12.6
	C40.1,12.1,40.1,12.6,39.8,12.6L39.8,12.6z M40,15.7C39.5,15.5,40.1,15.5,40,15.7L40,15.7z M39.8,15.3
	C39.8,15.6,39.5,15.3,39.8,15.3L39.8,15.3z M39.5,8C39,7.7,40.1,8,39.5,8L39.5,8z M39.2,7.4C38.7,6.3,39.9,7.4,39.2,7.4L39.2,7.4z
	 M39.2,10.2C38.6,9.6,40,10.3,39.2,10.2L39.2,10.2z M38.6,7.4C39.6,7.3,38.7,8.6,38.6,7.4L38.6,7.4z M38.2,5.4
	C38.4,5.3,38.5,5.8,38.2,5.4L38.2,5.4z M38.2,8c0.9,0.2,0.6,0.6,0.6,0.7C38.6,8.6,38,7.9,38.2,8z M38,5.4C38.2,5.4,38,5.7,38,5.4
	L38,5.4z M37.6,5.5C37.6,5.4,38,5.5,37.6,5.5L37.6,5.5z M37.8,6C38.4,6.4,37.2,6.4,37.8,6L37.8,6z M37.5,7.2
	C37.7,7,37.6,7.7,37.5,7.2L37.5,7.2z M37.5,7.5C37.6,7.8,37.4,7.6,37.5,7.5L37.5,7.5z M37.5,7.1C37.1,7.1,37.5,6.8,37.5,7.1
	L37.5,7.1z M37.2,5.4C37.5,5.1,37.4,6,37.2,5.4L37.2,5.4z M37.5,8.4C36.8,9.2,37.4,8.3,37.5,8.4L37.5,8.4z M37,7.3
	C37.2,7.4,37,7.3,37,7.3L37,7.3z M36.8,9.6C37.1,9.3,37,10,36.8,9.6L36.8,9.6z M36.7,10.3C36.6,10.8,36.3,10.1,36.7,10.3L36.7,10.3z
	 M36.5,14C36.8,14,36.4,14.2,36.5,14L36.5,14z M36.2,13.6C36.2,13.5,36.5,13.6,36.2,13.6L36.2,13.6z M35.9,8.6
	C36.7,8.8,36.1,8.8,35.9,8.6L35.9,8.6z M35.9,10.4C36,10.8,35.9,10.1,35.9,10.4L35.9,10.4z M35.7,11.8
	C35.8,10.5,36.1,11.9,35.7,11.8L35.7,11.8z M35.7,10.6C36.1,10.7,35.5,10.9,35.7,10.6L35.7,10.6z M35.6,5.8
	C36.1,5.3,35.6,6.1,35.6,5.8L35.6,5.8z M35,7.3C35.9,7.6,33.8,6.8,35,7.3L35,7.3z M34.8,7.8C34.9,7.5,34.8,7.9,34.8,7.8L34.8,7.8z
	 M34.5,9.1c0.5,0.5,0.7,0.6,0.8,0.3c1,0.4-0.2,0.4-0.5,0.5c-0.3,0-0.5-0.2-0.5-0.8C34.3,9,34.5,9.1,34.5,9.1z M34.2,8.4
	C34.2,8.3,34.5,8.4,34.2,8.4L34.2,8.4z M33.9,3C34,2.8,34.1,3.1,33.9,3L33.9,3z M34.1,5.5C34.5,5.7,33.5,5.9,34.1,5.5L34.1,5.5z
	 M33.8,10.2C34.4,10.3,33.6,10.9,33.8,10.2L33.8,10.2z M33.7,12.1C33.5,11.9,34.1,12.1,33.7,12.1L33.7,12.1z M33.5,5.1
	C33.4,4.8,33.8,5.3,33.5,5.1L33.5,5.1z M33.5,10C33.6,9.9,33.6,9.9,33.5,10L33.5,10z M33.4,13.3C33.4,13.3,33.9,13.1,33.4,13.3
	L33.4,13.3z M33.4,21.2C33.4,21.1,33.5,21,33.4,21.2L33.4,21.2z M33.4,21.6C33.3,21.7,33.2,21.7,33.4,21.6L33.4,21.6z M33.2,21.8
	C33.4,21.6,33.4,21.8,33.2,21.8L33.2,21.8z M32.8,6.9C32.9,6.2,33.4,7.4,32.8,6.9L32.8,6.9z M32.7,1.8C32.8,1.8,32.9,1.9,33,2
	C32.9,1.9,32.7,1.9,32.7,1.8C32.7,1.9,32.7,1.8,32.7,1.8z M32.7,3.2C32.6,3,32.9,3.3,32.7,3.2L32.7,3.2z M32.5,4.6
	C32.5,4.1,33.1,4.9,32.5,4.6L32.5,4.6z M32.5,6.2C32.6,6.1,33.4,6.8,32.5,6.2L32.5,6.2z M32.3,4.8C32.5,4.6,32.1,5.1,32.3,4.8
	L32.3,4.8z M32.3,3.7C32.5,4,31.9,4,32.3,3.7L32.3,3.7z M32,3.6C32.1,3.3,32.3,4,32,3.6L32,3.6z M32,4.7C31.8,6.2,31.8,6.2,32,4.7
	L32,4.7z M31.6,6.3C31.8,6.2,32.6,7.1,31.6,6.3L31.6,6.3z M31.5,4.1C31.8,4,31.5,4.4,31.5,4.1L31.5,4.1z M31.4,5.4
	C31.8,5.7,31.4,5.7,31.4,5.4L31.4,5.4z M31.3,6.6C30.8,7,30,6.8,31.3,6.6L31.3,6.6z M30.9,1.9C31,1.3,31.4,1.4,30.9,1.9L30.9,1.9z
	 M30.9,6.2C30.7,6.1,31.5,6.2,30.9,6.2L30.9,6.2z M30.6,1.3C30.6,1.1,30.9,1.6,30.6,1.3L30.6,1.3z M30.1,8.5
	C30.1,8,31.2,8.6,30.1,8.5L30.1,8.5z M30.1,1.6C30.1,1.4,30.7,1.7,30.1,1.6L30.1,1.6z M30.1,2.5C30.3,2.5,30.1,2.7,30.1,2.5
	L30.1,2.5z M30,3.4C30.2,3.6,29.8,3.7,30,3.4L30,3.4z M29.8,1.8C30.3,1.8,29.6,2.2,29.8,1.8L29.8,1.8z M29.7,1.6
	C29.8,1.4,29.9,1.6,29.7,1.6L29.7,1.6z M29.7,6.1C30.5,6,29.6,6.7,29.7,6.1L29.7,6.1z M29.5,9.5C29.7,9.4,29.9,9.5,29.5,9.5
	L29.5,9.5z M29.6,6.6C29.3,6.5,29.5,6.5,29.6,6.6L29.6,6.6z M29.2,2.2C29.6,1.1,29.9,2.6,29.2,2.2L29.2,2.2z M29.4,7.1
	C28.9,7.5,29.5,6.6,29.4,7.1L29.4,7.1z M29.3,4.6C28.9,4.6,29.3,4.4,29.3,4.6L29.3,4.6z M29.2,3.5C28.5,3.5,29.7,3,29.2,3.5
	L29.2,3.5z M29,8.2C28.9,8.6,28.4,8.3,29,8.2L29,8.2z M28.5,8.2C28.4,7.8,28.8,8.2,28.5,8.2L28.5,8.2z M28.3,7.8
	C28.7,8.2,27.8,7.8,28.3,7.8L28.3,7.8z M28.2,2.1C28.2,2.5,27.8,2.1,28.2,2.1L28.2,2.1z M28.1,5C27.9,5.3,28.2,4.9,28.1,5L28.1,5z
	 M27.9,8.5C27.8,8.5,29,8.1,27.9,8.5L27.9,8.5z M27.8,1.6C28,1.7,27.5,2,27.8,1.6L27.8,1.6z M27.6,4.3C27.6,3.5,28.2,4.3,27.6,4.3
	L27.6,4.3z M27.6,5.6C27.8,5.6,27.9,5.7,27.6,5.6L27.6,5.6z M27.4,1.2C27.7,1.5,27.4,1.3,27.4,1.2L27.4,1.2z M27.2,3.9
	C27.4,3.6,27.7,4.5,27.2,3.9L27.2,3.9z M26.9,2.8C27.2,1.7,27.2,2.8,26.9,2.8L26.9,2.8z M27.1,3.6C27,4.2,27.1,3.3,27.1,3.6
	L27.1,3.6z M26.8,7.5C26.6,7.7,26.7,7.5,26.8,7.5L26.8,7.5z M26.7,5.7C26.2,6.2,26.8,5.3,26.7,5.7L26.7,5.7z M26.6,7.6
	C26.5,7.3,26.7,7.6,26.6,7.6L26.6,7.6z M26.4,2.2C27,2.5,26.5,2.7,26.4,2.2L26.4,2.2z M26.2,7.4C26.2,7.2,26.4,7.4,26.2,7.4
	L26.2,7.4z M26,2.1C26,1.7,26.1,2.4,26,2.1L26,2.1z M25.8,2C25.8,1.9,25.8,2.2,25.8,2L25.8,2z M25.6,2.1C25.9,2.1,25.5,2.2,25.6,2.1
	L25.6,2.1z M25.8,2.6c0.1-0.1,0.3,0,0.4,0C25.7,2.8,25.1,3.1,25.8,2.6z M26.1,6.8C25.9,7,25.8,6.3,26.1,6.8L26.1,6.8z M25.6,3.9
	C25.7,4.6,25.1,3.6,25.6,3.9L25.6,3.9z M25.4,2.4C25.5,2.4,25.1,2.4,25.4,2.4L25.4,2.4z M25.6,5.4C26.1,5.1,25.1,5.7,25.6,5.4
	L25.6,5.4z M25.7,5.2C25.6,4.7,26.2,5.5,25.7,5.2L25.7,5.2z M25.8,3.8C25.2,3.5,26.2,4.1,25.8,3.8L25.8,3.8z M25.2,1.9
	C25.5,1.3,25.7,1.4,25.2,1.9L25.2,1.9z M24.9,4.2C25.1,3.3,25.4,4.6,24.9,4.2L24.9,4.2z M25,3.8C24.8,3.7,25.1,4,25,3.8L25,3.8z
	 M24.9,2.2C25,1.8,25.3,2.2,24.9,2.2L24.9,2.2z M24.8,3.1C24.8,3,25.1,3,24.8,3.1L24.8,3.1z M24.7,1.6C24.6,1.2,25,1.7,24.7,1.6
	L24.7,1.6z M24.8,6C24.3,5.3,25.7,5.9,24.8,6L24.8,6z M25,7.3C25.1,7.7,24.7,7,25,7.3L25,7.3z M24.4,2.8C25.1,2.3,23.6,3.4,24.4,2.8
	L24.4,2.8z M24.1,2.2C24.5,1.8,24.2,3.1,24.1,2.2L24.1,2.2z M24.2,6C22.9,5.7,25.3,5.4,24.2,6L24.2,6z M24.3,6.3
	C24.6,6.1,24.1,6.4,24.3,6.3L24.3,6.3z M24,7.8C24,7.8,23.6,8.3,24,7.8L24,7.8z M24,7.6C22.7,7.4,24,7.3,24,7.6L24,7.6z M23.8,4
	C24,4.2,23.6,3.9,23.8,4L23.8,4z M23.2,2.9C23.7,2.4,24.2,3.6,23.2,2.9L23.2,2.9z M23,7.4C23.2,7.2,23.5,7.8,23,7.4L23,7.4z M23,6.2
	C23.3,5.8,23.4,6.1,23,6.2L23,6.2z M23.2,9.9C23.5,9.8,23.2,10.2,23.2,9.9L23.2,9.9z M23.2,3.4C23.4,3.3,23.1,3.7,23.2,3.4L23.2,3.4
	z M23,2.9C23.3,2.9,23,3.2,23,2.9L23,2.9z M23.2,5.8C22.6,5.7,23.6,5.3,23.2,5.8L23.2,5.8z M22.8,2.4C23,2.5,22.7,2.3,22.8,2.4
	L22.8,2.4z M22.7,0.7C22.7,0.3,22.8,1.2,22.7,0.7L22.7,0.7z M22.4,3.7C22.4,3.5,22.7,3.7,22.4,3.7L22.4,3.7z M22.4,3.8
	C22.8,4,22.4,3.8,22.4,3.8L22.4,3.8z M22.5,9.7C22.7,9.6,22.4,9.7,22.5,9.7L22.5,9.7z M22.2,5.1C21.4,5.1,22.2,4.7,22.2,5.1
	L22.2,5.1z M21.8,2.8C22.3,1.8,22.2,3,21.8,2.8L21.8,2.8z M22,0.6C22,0.5,22,1.1,22,0.6L22,0.6z M21.8,2.6
	C21.7,2.4,22.1,2.5,21.8,2.6L21.8,2.6z M21.8,4.8C21.7,5,21.9,4.5,21.8,4.8L21.8,4.8z M21.6,4.5C21.6,4,22,4.9,21.6,4.5L21.6,4.5z
	 M21.4,6.2C22.2,6.6,21.3,6.6,21.4,6.2L21.4,6.2z M21.6,10.9C21.4,10.7,21.6,10.7,21.6,10.9L21.6,10.9z M21.5,8.5
	C21.4,8.1,21.6,8.2,21.5,8.5L21.5,8.5z M21.2,3.7C21.5,3.3,21.3,3.7,21.2,3.7L21.2,3.7z M21.2,5.2C20.9,4.6,21.7,5.2,21.2,5.2
	L21.2,5.2z M21,0.7C20.5,0.5,21.5,0.4,21,0.7L21,0.7z M21.1,6.9C21.1,7.2,20.9,6.9,21.1,6.9L21.1,6.9z M20.6,1.1
	C20.4,0.8,20.9,1.2,20.6,1.1L20.6,1.1z M20.7,8.9C20.8,9.2,20.6,8.6,20.7,8.9L20.7,8.9z M19.8,7c0.4,0-0.2-0.5,0.1-0.5
	C21.2,6.5,20.1,7,19.8,7z M19.6,9.9c0,0-0.2-0.2-0.1-0.2C19.6,9.7,19.7,9.9,19.6,9.9z M19.7,6.2C19.2,6,20.1,5.8,19.7,6.2L19.7,6.2z
	 M19.6,10.8C19.8,10.8,19.9,11.1,19.6,10.8L19.6,10.8z M19.6,7.6C20.2,7.7,19.3,7.6,19.6,7.6L19.6,7.6z M20.3,6.6
	C20.6,6.6,20.4,6.6,20.3,6.6L20.3,6.6z M20.2,5.8C19.7,6.1,20.1,5.7,20.2,5.8L20.2,5.8z M19.6,3.7C20,3.7,20.4,5.1,19.6,3.7
	L19.6,3.7z M19.5,3.5C20.1,3.5,19.1,3.8,19.5,3.5L19.5,3.5z M19.4,0.9C19.4,0.9,19.5,0.8,19.4,0.9L19.4,0.9z M19.3,2
	C20,2.2,18.3,2,19.3,2L19.3,2z M19.3,15.5C19.3,15.5,19.1,15.5,19.3,15.5L19.3,15.5z M19.4,17.8C19.5,18,19.1,17.7,19.4,17.8
	L19.4,17.8z M19.2,10.2C19.3,10.5,18.9,10.1,19.2,10.2L19.2,10.2z M19.1,7.6C19.8,7.9,19.1,7.7,19.1,7.6L19.1,7.6z M19.3,7.3
	C19.4,7.7,19.2,6.9,19.3,7.3L19.3,7.3z M19,1.2C19.2,1.1,19.2,1.2,19,1.2L19,1.2z M18.8,1.9C19.1,1.9,19.1,2.1,18.8,1.9L18.8,1.9z
	 M17.4,15.7c-0.1,0,0.4,0.8,0.7,0.9C17.4,17,16.7,16.5,17.4,15.7z M17.9,18.6C17.6,18.6,17.9,18.5,17.9,18.6L17.9,18.6z M17.6,18
	C17.6,18.1,17.3,18.2,17.6,18L17.6,18z M17.6,17.6C17.1,17.5,17.6,17.6,17.6,17.6L17.6,17.6z M17.2,17.5
	C17.2,17.6,16.8,17.3,17.2,17.5L17.2,17.5z M17.2,18.3C17,18.2,17.2,18.1,17.2,18.3L17.2,18.3z M17.4,14.4c0.1,0,0.1,0.1,0,0.1
	C17.3,14.6,17.3,14.5,17.4,14.4z M17.5,15.3C17.4,15.2,17.9,15.4,17.5,15.3L17.5,15.3z M17.8,16.2C17.7,15.2,18.4,16.6,17.8,16.2
	L17.8,16.2z M17.7,15.3C18.8,15.5,17.7,15.5,17.7,15.3L17.7,15.3z M17.7,12.8C17.8,12.4,18,12.9,17.7,12.8L17.7,12.8z M17.7,14
	C17.7,14,17.6,13.8,17.7,14L17.7,14z M18.1,17.8C18.4,17.6,18.1,18.1,18.1,17.8L18.1,17.8z M18.2,12.9C18.2,13,18,13,18.2,12.9
	L18.2,12.9z M18.3,14.8C18.1,14.8,18.5,14.8,18.3,14.8L18.3,14.8z M18.3,13.2C18.2,13.2,18.4,12.9,18.3,13.2L18.3,13.2z M18.3,15
	C18.4,15.1,18.4,15.3,18.3,15L18.3,15z M18.3,16.2c0.5,0.1,0,0.1,0,0.1c0,0,0,0,0,0C18.3,16.3,18.3,16.3,18.3,16.2z M18.3,16
	C18.5,15.4,18.8,16.6,18.3,16L18.3,16z M18.4,13.4C18.3,13.4,18.5,13.1,18.4,13.4L18.4,13.4z M18.4,11.1c-0.1,0-0.5-0.1-0.5-0.4
	c0.9,0.1,0.8,0.7,0.8,0.7C18.5,11.6,18.2,11.6,18.4,11.1z M18,8.5C18,8.6,17.9,8.6,18,8.5L18,8.5z M18.4,6.3
	C18.4,6.1,18.5,6,18.4,6.3L18.4,6.3z M18.6,10.5C18.9,10.4,18.6,10.9,18.6,10.5L18.6,10.5z M18.7,10.2
	C18.6,10.1,18.6,10.1,18.7,10.2L18.7,10.2z M18.8,17.8C19.3,18.3,18.4,17.8,18.8,17.8L18.8,17.8z M18.6,0.7
	C18.7,0.8,18.6,0.9,18.6,0.7L18.6,0.7z M18.4,3.6C18.4,3.4,18.5,3.5,18.4,3.6L18.4,3.6z M18.7,5.4c0.4,1-0.5,0-0.6-0.5
	C18.5,4.8,18.5,5.4,18.7,5.4z M18.1,5.9C18.3,6.2,18.1,5.9,18.1,5.9L18.1,5.9z M17.9,5C18.4,4.7,17.9,5.5,17.9,5L17.9,5z M17.9,6
	C18,6.1,17.7,6.4,17.9,6L17.9,6z M17.8,1.5C18,0.1,17.9,1.5,17.8,1.5L17.8,1.5z M17.6,3.5C17.6,3.1,18,3.7,17.6,3.5L17.6,3.5z
	 M17.6,14.7C18,15.6,17.5,14.7,17.6,14.7L17.6,14.7z M17.4,4C17.5,3.7,17.4,4,17.4,4L17.4,4z M17.5,6.4C17.8,6.4,17,7,17.5,6.4
	L17.5,6.4z M17.3,13.7C17.3,14,17.1,13.5,17.3,13.7L17.3,13.7z M17.2,9C17.2,9.1,16.8,9.1,17.2,9L17.2,9z M17,16.7
	C16.7,17.6,16.8,16.5,17,16.7L17,16.7z M16.9,15.4c0-0.1,0-0.1,0-0.2c0,0,0,0,0,0C16.9,15.2,16.9,15.3,16.9,15.4
	C16.9,15.4,16.9,15.4,16.9,15.4z M16.9,7.5C16.9,7.5,16.9,7.5,16.9,7.5c0,0.1,0,0.1,0,0.2c0,0,0,0,0,0C16.9,7.6,16.9,7.6,16.9,7.5z
	 M16.8,5.9C16.7,5.6,17,5.9,16.8,5.9L16.8,5.9z M16.8,14.1C17.1,14.2,16.5,14,16.8,14.1L16.8,14.1z M16.8,16.1
	C16.8,16.2,16.6,16.3,16.8,16.1L16.8,16.1z M16.9,32C16.6,31.7,16.7,31.8,16.9,32L16.9,32z M16.7,26.7
	C16.6,26.4,16.9,26.9,16.7,26.7L16.7,26.7z M17.4,32.2C18,32.3,17.7,32.5,17.4,32.2L17.4,32.2z M17.5,36.6
	C18,36.6,17.2,36.9,17.5,36.6L17.5,36.6z M17.1,33.7C17.1,33.6,17.5,33.8,17.1,33.7L17.1,33.7z M17.1,32.1
	C17.2,32.2,17.2,32.3,17.1,32.1L17.1,32.1z M17.4,28.3C17.2,28.5,17.3,28.3,17.4,28.3L17.4,28.3z M17.3,28.4
	C17.7,28.7,17.3,28.6,17.3,28.4L17.3,28.4z M17.3,27.3C17.2,27.4,17.2,27.2,17.3,27.3L17.3,27.3z M17.2,29.7
	C17.6,29.6,17.3,30,17.2,29.7L17.2,29.7z M17.5,30.2C17.4,30.8,17.1,30,17.5,30.2L17.5,30.2z M17.6,31.4
	C17.6,31.4,17.4,31.4,17.6,31.4L17.6,31.4z M17.7,30.8C17.5,30.3,18,30.8,17.7,30.8L17.7,30.8z M17.6,26.4
	C17.9,26.1,17.6,26.7,17.6,26.4L17.6,26.4z M17.7,25.8C18,25.9,17.4,26.4,17.7,25.8L17.7,25.8z M17.7,29C17.5,29,17.5,28.5,17.7,29
	L17.7,29z M17.2,25.2C17.2,24.7,18.1,25.1,17.2,25.2L17.2,25.2z M17,23.5C17.4,23.5,17,23.7,17,23.5L17,23.5z M16.9,32.9
	C16.9,32.8,17.3,32.9,16.9,32.9L16.9,32.9z M16.9,25.6C16.7,25.9,17,25.3,16.9,25.6L16.9,25.6z M16.8,37.7
	C16.8,37.8,16.6,37.9,16.8,37.7L16.8,37.7z M16.3,40.7C16.5,40.5,17.3,41.3,16.3,40.7L16.3,40.7z M16.5,32.8
	C16.5,32.7,16.6,32.5,16.5,32.8L16.5,32.8z M16.4,31.8C16.7,31.2,16.6,31.8,16.4,31.8L16.4,31.8z M16.5,38.5
	C16.9,38.2,16.5,39.2,16.5,38.5L16.5,38.5z M16.7,25.8C16.4,25.9,16.7,25.2,16.7,25.8L16.7,25.8z M16.4,26.3
	C16.7,25.9,16.7,26.4,16.4,26.3L16.4,26.3z M16.5,40.4C16.1,40.4,16.4,39.9,16.5,40.4L16.5,40.4z M16.3,37.3
	C16.4,38.1,15.5,37.1,16.3,37.3L16.3,37.3z M15.1,36.8C15.1,36.8,14.8,36.6,15.1,36.8L15.1,36.8z M15,37C15.2,37.2,15,37.2,15,37
	L15,37z M15.1,31.5C13.7,32,15,31.2,15.1,31.5L15.1,31.5z M14.7,33.4C14.8,33.5,14.6,33.6,14.7,33.4L14.7,33.4z M13.9,31.8
	c-0.1,0-0.2-0.1-0.2-0.2C13.8,31.7,13.9,31.7,13.9,31.8z M13.8,37C14,37.1,13.8,37.2,13.8,37L13.8,37z M13.8,33.4
	C13.8,33.5,13.6,33.5,13.8,33.4L13.8,33.4z M13.7,41.4C13.7,40.9,14.2,41.6,13.7,41.4L13.7,41.4z M14,29.5
	C13.1,30,13.3,29.7,14,29.5L14,29.5z M13.5,34.2C13.9,33.9,13.5,34.9,13.5,34.2L13.5,34.2z M13.5,33.6
	C13.7,33.7,13.2,33.4,13.5,33.6L13.5,33.6z M13.2,26.3C13.7,26.2,13,26.5,13.2,26.3L13.2,26.3z M13.1,33.4
	C13.5,33.3,13.2,33.7,13.1,33.4L13.1,33.4z M12.8,29.3C12.8,28.8,13.1,29.5,12.8,29.3L12.8,29.3z M12.9,29.9
	C12.8,29.2,13,30.2,12.9,29.9L12.9,29.9z M12.9,32.9C13,32.4,13.3,33,12.9,32.9L12.9,32.9z M12.9,25C13.5,25,12.8,25.5,12.9,25
	L12.9,25z M12.9,18.7C12.9,19,12.8,18.3,12.9,18.7L12.9,18.7z M12.9,22.5C12.8,22.6,12.8,22.4,12.9,22.5L12.9,22.5z M12.9,24.5
	C12.9,24.5,12.8,24.2,12.9,24.5L12.9,24.5z M13.2,10.3C14.3,10.8,12.7,10,13.2,10.3L13.2,10.3z M13.6,9C13.6,9,13.5,9.2,13.6,9
	L13.6,9z M14,17.2c0-0.1,0-0.4,0.1-0.5C14.3,16.7,14.2,17.1,14,17.2z M14,24.6C14.2,24.1,14,25,14,24.6L14,24.6z M14.3,12.7
	C13.6,12.6,14.8,12.2,14.3,12.7L14.3,12.7z M14.1,13.2C13.8,13.3,14.2,13,14.1,13.2L14.1,13.2z M14.1,11
	C14.2,11.3,13.7,10.9,14.1,11L14.1,11z M13.8,7.1C14.1,6.4,13.9,7.1,13.8,7.1L13.8,7.1z M13.7,15.9C14,15.4,14.1,16.2,13.7,15.9
	L13.7,15.9z M13.6,11.3c0.1,0,0.1,0.1,0.1,0.2C13.6,11.4,13.6,11.4,13.6,11.3z M13.1,20C13.4,19.7,13.1,20.3,13.1,20L13.1,20z
	 M13.2,19.7C12.9,19.2,13.5,19.6,13.2,19.7L13.2,19.7z M13.2,25.9C13.4,25.8,13.3,26.2,13.2,25.9L13.2,25.9z M13.3,12.3
	C13,12.3,13.3,12.2,13.3,12.3L13.3,12.3z M13.1,12.9C13.5,13.1,12.9,13.1,13.1,12.9L13.1,12.9z M13,22.4C13,22.4,13.3,22.3,13,22.4
	L13,22.4z M13.3,14.6C14.2,15,13.1,14.5,13.3,14.6L13.3,14.6z M13.8,22.1C13.9,23,13.8,22.3,13.8,22.1L13.8,22.1z M13.9,32.7
	C14,32.1,14.1,32.7,13.9,32.7L13.9,32.7z M13.9,16.4C13.7,15.7,14.3,16.4,13.9,16.4L13.9,16.4z M14.2,26.4
	C14.2,26.8,13.8,26.2,14.2,26.4L14.2,26.4z M14.2,23.4C14.3,23,14,24.1,14.2,23.4L14.2,23.4z M14.2,22.7
	C14.2,22.6,14.2,22.6,14.2,22.7C14.4,22.6,14.2,22.9,14.2,22.7z M14.2,16.6C13.8,15.1,15.1,16.6,14.2,16.6L14.2,16.6z M14.3,25.5
	C14.3,25.5,14.7,25.3,14.3,25.5L14.3,25.5z M14.5,36.4C14.2,37.1,14.3,36.2,14.5,36.4L14.5,36.4z M15.2,10.2
	C14.2,10.3,15.2,10.1,15.2,10.2L15.2,10.2z M15,26C15.4,25.7,14.9,26.4,15,26L15,26z M15,21.6C15.1,21.3,15,21.7,15,21.6L15,21.6z
	 M15.1,24.3C15.1,24.2,15.1,24.2,15.1,24.3L15.1,24.3z M14.8,18.2C14.8,17.8,15.3,18.4,14.8,18.2L14.8,18.2z M15.2,15.1
	C14.9,15.8,14.8,15.1,15.2,15.1L15.2,15.1z M15.2,30.7C14.3,30.1,15.4,28.8,15.2,30.7L15.2,30.7z M15.2,27.2
	C15.3,26.9,15.4,27.2,15.2,27.2L15.2,27.2z M15.3,22.7C14.7,22.4,15.7,22.8,15.3,22.7L15.3,22.7z M15.3,20.1
	C15.3,20.1,15.3,20.1,15.3,20.1L15.3,20.1z M15.2,10.2C15.9,11.2,14.3,10.6,15.2,10.2L15.2,10.2z M15,13.1
	C14.4,13.1,15,12.6,15,13.1L15,13.1z M14.8,16.5C14.4,16.2,15.2,16.6,14.8,16.5L14.8,16.5z M15.1,34.1
	C15.6,34.2,15.1,34.2,15.1,34.1L15.1,34.1z M15.4,25.5C15.2,25.5,15.2,25.2,15.4,25.5L15.4,25.5z M15.3,24
	C15.2,23.4,15.6,24.4,15.3,24L15.3,24z M15.3,11.3C15.5,11.3,15.5,11.6,15.3,11.3L15.3,11.3z M15.4,13.4
	C15.6,13.3,15.6,13.5,15.4,13.4L15.4,13.4z M15.6,10.8C15.3,10.8,15.6,10.7,15.6,10.8L15.6,10.8z M15.6,7.7
	C15.7,7.3,16.3,8,15.6,7.7L15.6,7.7z M15.9,13C15.7,13.1,15.9,12.5,15.9,13L15.9,13z M15.6,13.1C15.7,12.8,15.8,13.4,15.6,13.1
	L15.6,13.1z M16.2,16.9c0.1,0,0,0.2,0,0.2C16.1,17.1,16.2,17,16.2,16.9z M16.2,12.6C16.2,12.7,15.9,12.7,16.2,12.6L16.2,12.6z
	 M16.3,20.8C15.8,21.2,16.5,20.6,16.3,20.8L16.3,20.8z M16.2,25.4C16.2,25.4,16.1,25.4,16.2,25.4C15.9,25.4,16,25.4,16.2,25.4z
	 M16.1,31.3c0.1-0.2-0.1-0.3-0.1-0.4C16.2,30.9,16.2,31.3,16.1,31.3z M15.9,33C16.2,32.8,16.4,33.1,15.9,33L15.9,33z M15.9,37.2
	C16,36.7,16.3,37.4,15.9,37.2L15.9,37.2z M15.6,29c0-0.1,0.1-0.1,0.1-0.2C15.8,28.8,15.7,29,15.6,29z M15.6,31.1
	C15.3,30.9,15.9,31.1,15.6,31.1L15.6,31.1z M15.9,23.3C15.4,23.4,16.1,23.1,15.9,23.3L15.9,23.3z M15.8,29.1c0.1,0,0,0.2,0,0.2
	C15.7,29.2,15.8,29.1,15.8,29.1z M16,22.4C15.8,22.4,15.9,22.4,16,22.4L16,22.4z M15.7,19C15.4,18.3,16.3,19,15.7,19L15.7,19z
	 M15.7,15.3C15.7,15.3,15.2,15.4,15.7,15.3L15.7,15.3z M15.5,17.1C15.5,17.1,15.5,17.5,15.5,17.1L15.5,17.1z M15.5,30.1
	C15.7,30.1,15.3,30.5,15.5,30.1L15.5,30.1z M15.5,36.5C15.6,36.7,15.4,36.3,15.5,36.5L15.5,36.5z M15.8,40
	C15.8,39.7,16.2,40.1,15.8,40C15.9,40,15.9,40,15.8,40C15.5,40.1,15.3,39,15.8,40z M15.8,43.2C16,43,16.3,43.3,15.8,43.2L15.8,43.2z
	 M16.4,16.6C16.2,17.2,16.1,16,16.4,16.6L16.4,16.6z M16.5,10.8C16.2,11.1,16.5,10.8,16.5,10.8L16.5,10.8z M16.7,15.5
	C16.7,15.8,16.4,15.5,16.7,15.5L16.7,15.5z M16.6,18.9C16.6,19.1,16.3,18.9,16.6,18.9L16.6,18.9z M16.6,12.8
	C16.5,12.8,16.7,12.6,16.6,12.8L16.6,12.8z M16.7,12.4C16.7,12.7,16.4,12.2,16.7,12.4L16.7,12.4z M16.5,9.2
	C16.7,8.9,16.8,9.6,16.5,9.2L16.5,9.2z M16.4,5.6C16.5,5.6,16.7,6.1,16.4,5.6L16.4,5.6z M16.5,9.7C16.6,10.1,16.2,9.3,16.5,9.7
	L16.5,9.7z M16.4,10.2C16.4,10.6,15.7,10,16.4,10.2L16.4,10.2z M16.1,8.7C16,8.9,16,8.7,16.1,8.7L16.1,8.7z M16.2,6.7
	C16,7,16,6.7,16.2,6.7L16.2,6.7z M16.1,8.4C16.1,8.7,16,8.3,16.1,8.4L16.1,8.4z M16.1,12.4C15.8,12.4,16.2,12.1,16.1,12.4L16.1,12.4
	z M15.8,17.6C16.9,18.5,15.1,18.2,15.8,17.6L15.8,17.6z M15.9,16.5C15.9,16.3,15.9,16.4,15.9,16.5L15.9,16.5z M15.7,13.6
	C15.9,13.6,16.1,14.3,15.7,13.6L15.7,13.6z M16,4.5C15.9,4.7,15.2,4.9,16,4.5L16,4.5z M15.4,2.8C15.7,2.7,15.4,3,15.4,2.8L15.4,2.8z
	 M15.3,3.4C15.3,3.3,16.2,3.7,15.3,3.4L15.3,3.4z M15.5,8.3C15.5,8.6,15.1,7.9,15.5,8.3L15.5,8.3z M15.2,9.3
	C15.8,9.2,15.2,9.6,15.2,9.3L15.2,9.3z M15.1,1.7C15.3,1.9,15.1,1.9,15.1,1.7L15.1,1.7z M15.1,7.5C15,7.3,15.2,7.9,15.1,7.5
	L15.1,7.5z M14.9,2.6C14.8,2.5,15,2.5,14.9,2.6L14.9,2.6z M14.9,5.9C14.9,5.9,14.5,5.8,14.9,5.9L14.9,5.9z M14.7,6.9
	C14.6,6.7,14.8,7.1,14.7,6.9L14.7,6.9z M14.7,31C14.8,31,14.4,31.5,14.7,31L14.7,31z M14.6,5.2C14.5,5,14.6,5.1,14.6,5.2L14.6,5.2z
	 M14.5,13.6C14.3,13.7,14.5,13.1,14.5,13.6L14.5,13.6z M14.4,8.3C14,8.4,14.4,8.1,14.4,8.3L14.4,8.3z M14.2,4.3
	C14.7,4.9,13.8,4,14.2,4.3L14.2,4.3z M14.1,6.5C13.9,6.6,13.7,6,14.1,6.5L14.1,6.5z M13.8,3.5C14,3.6,14.3,4,13.8,3.5L13.8,3.5z
	 M13.7,5.6C13.7,5.2,14,5.7,13.7,5.6L13.7,5.6z M13.5,3.2C13.5,2.9,13.6,3.4,13.5,3.2L13.5,3.2z M13.5,4.1C13.7,4,13.8,4.6,13.5,4.1
	L13.5,4.1z M13.4,6.8C13.3,6.9,13.3,7,13.4,6.8L13.4,6.8z M13.2,3.4C13.5,3.3,13.3,3.9,13.2,3.4L13.2,3.4z M13.2,8.1
	C12.9,8.3,13.2,7.8,13.2,8.1L13.2,8.1z M12.8,4C12.7,3.4,13.5,4.2,12.8,4L12.8,4z M12.7,17.4C12.3,17.2,12.8,16.4,12.7,17.4
	L12.7,17.4z M12.7,12C12.4,12.1,12.7,11.8,12.7,12L12.7,12z M12.6,6.2C12.8,6.3,12.4,6.6,12.6,6.2L12.6,6.2z M12.3,4.3
	C13,3.3,12.3,5.4,12.3,4.3L12.3,4.3z M12.4,7.3C12.4,7.2,12.6,6.9,12.4,7.3L12.4,7.3z M12.2,8.9C12.4,8.6,13.3,9.1,12.2,8.9
	L12.2,8.9z M11.6,25.9C13.1,26.4,11.4,26.4,11.6,25.9L11.6,25.9z M11.9,6.8C11.7,6.8,11.9,6.8,11.9,6.8L11.9,6.8z M12.3,22.8
	C12.3,23.1,12,22.8,12.3,22.8L12.3,22.8z M12.3,20.3C12.4,20.5,12,20.3,12.3,20.3L12.3,20.3z M12.1,27.9
	C12.1,28.5,11.6,27.4,12.1,27.9L12.1,27.9z M11.8,14.4C11.8,14.9,11.2,14.1,11.8,14.4L11.8,14.4z M11.6,17
	C11.6,17.3,11.3,17,11.6,17L11.6,17z M11.5,28.5C11.9,27.9,12.2,28.7,11.5,28.5L11.5,28.5z M11.8,28.8C11.7,28.6,12.2,29,11.8,28.8
	L11.8,28.8z M12,28.1C12.1,28.5,11.7,28,12,28.1L12,28.1z M12.1,29C11.9,28.8,12.3,29,12.1,29L12.1,29z M12.3,29.1
	C12.2,29.4,11.8,29,12.3,29.1L12.3,29.1z M12.3,28.9C12.1,28.7,12.4,28.8,12.3,28.9L12.3,28.9z M12.4,27
	C12.3,27.1,11.9,27.1,12.4,27L12.4,27z M12.4,28.8C12.5,28.5,12.4,28.8,12.4,28.8L12.4,28.8z M12.2,12.1
	C12.4,11.8,12,12.3,12.2,12.1L12.2,12.1z M12.2,7C12.2,7.3,12,7.4,12.2,7L12.2,7z M12,4.5C11.5,4.4,12.5,4.2,12,4.5L12,4.5z
	 M11.9,5.8C12.7,5.7,11.3,6,11.9,5.8L11.9,5.8z M11.5,5.5C12.1,4.9,11.4,6.6,11.5,5.5L11.5,5.5z M11.6,12.7
	C11.5,12.8,11.2,12.9,11.6,12.7L11.6,12.7z M11.5,29.7c0,0,0.2,0.7-0.4,0.7c0.1,0-0.2-0.1-0.2-0.3c0.4,0.5,0.4,0.3,0.4-0.3
	C11.3,28.9,12,29.1,11.5,29.7z M11.5,30.6C11.8,31,11.3,30.4,11.5,30.6L11.5,30.6z M11,37.6C11.1,37.3,11.3,37.6,11,37.6L11,37.6z
	 M11,35.1C11.1,34.8,11.1,35,11,35.1L11,35.1z M10.9,37.1C10.5,37.2,10.9,36.5,10.9,37.1L10.9,37.1z M10.9,38.2
	C10.9,38.7,10.9,37.8,10.9,38.2L10.9,38.2z M9.8,36C9.5,35.8,10.2,36,9.8,36L9.8,36z M9.8,36.6C9.7,36.2,10.1,36.7,9.8,36.6
	L9.8,36.6z M8.3,32.4c0,0.1,0.1,0.3-0.1,0.3C8,32.7,7.6,32.4,8.3,32.4z M8,33.5C8,33.6,7.8,33.7,8,33.5L8,33.5z M8.3,11.5
	C8.3,11.4,8.3,11.4,8.3,11.5L8.3,11.5z M9.2,30C9.8,30.1,9.3,30.7,9.2,30L9.2,30z M9.5,33.6C9.5,33.9,9.4,33.7,9.5,33.6L9.5,33.6z
	 M9.1,29.3C9.3,28.9,9.3,29.4,9.1,29.3L9.1,29.3z M9.2,28.2C9.5,28.4,9.1,28.2,9.2,28.2L9.2,28.2z M8.8,25.8
	C9.1,25.6,9.1,25.8,8.8,25.8L8.8,25.8z M9,25.4C8.7,25.3,9,25.4,9,25.4L9,25.4z M9,26.8c0.1,0,0.1,0.1,0.2,0.1
	C9.3,26.8,8.9,27.1,9,26.8z M8.5,23.2C10.4,22.2,8.3,24.4,8.5,23.2L8.5,23.2z M8.6,24.3C8.7,24.3,8.4,24.7,8.6,24.3L8.6,24.3z
	 M8.4,25.2C8.4,24.6,9.8,24,8.4,25.2L8.4,25.2z M8.6,35.3C8.6,35.3,8.5,35.2,8.6,35.3C8.7,35,8.6,35.3,8.6,35.3z M8.6,34.5
	C8.5,34.9,8.7,34.3,8.6,34.5L8.6,34.5z M8.5,27.5C8.8,27,8.9,27.7,8.5,27.5L8.5,27.5z M8.7,26.6C8.7,26.7,8.5,26.8,8.7,26.6
	L8.7,26.6z M8.5,31C8.1,31.7,8,31,8.5,31L8.5,31z M8.2,24.4C8.1,24.4,8.5,24,8.2,24.4L8.2,24.4z M8.2,20.8
	C8.6,20.7,8.3,21.3,8.2,20.8L8.2,20.8z M8.2,20C7.9,20.4,8,19.9,8.2,20L8.2,20z M8.3,21.1C8.4,21.6,7.4,20.8,8.3,21.1L8.3,21.1z
	 M8.1,28.9C8.3,28.9,8,29.2,8.1,28.9C8,28.9,8,28.9,8.1,28.9z M8.1,28.7C7.9,28.9,8.1,28.6,8.1,28.7L8.1,28.7z M8,29.1
	C7.9,29.5,7.8,29.1,8,29.1L8,29.1z M8.4,33.6C8.2,33.8,8.1,33.5,8.4,33.6L8.4,33.6z M8.4,31.6C8.5,31.7,8.2,31.8,8.4,31.6L8.4,31.6z
	 M8.8,36.4C8.2,37.7,8.4,34.8,8.8,36.4L8.8,36.4z M8.7,30.5C8.4,30.2,9.2,30.6,8.7,30.5L8.7,30.5z M8.9,28.1
	C8.4,28.2,9.9,27.8,8.9,28.1L8.9,28.1z M9,33.8C9.4,33.1,9.2,33.8,9,33.8L9,33.8z M9.4,34.7C9.4,34.8,8.9,34.8,9.4,34.7L9.4,34.7z
	 M9.3,36C9.6,35.7,9.5,36.1,9.3,36L9.3,36z M9.5,28.5C9.4,28.5,9.3,28.1,9.5,28.5L9.5,28.5z M9.1,19.7C10.9,19.6,9.1,19.9,9.1,19.7
	L9.1,19.7z M9.6,16.9C8.8,16.8,9.9,16.5,9.6,16.9L9.6,16.9z M9.3,16.5C9.3,16.7,9.2,16.2,9.3,16.5L9.3,16.5z M9.7,16.6
	C9.3,16.5,10,16.7,9.7,16.6L9.7,16.6z M9.7,17.1c0,0.1,0.4,0.2,0.4,0.3c-0.9,1.3-0.5,0.1-0.8-0.3C9.5,17.2,9.4,17.5,9.7,17.1z
	 M9.8,23.2C10.1,23,10,23.2,9.8,23.2L9.8,23.2z M9.8,26.2C9.8,26.1,10.1,26,9.8,26.2L9.8,26.2z M10.2,22.6
	C9.4,22.7,10.3,21.6,10.2,22.6L10.2,22.6z M10,17.8C10,17.9,9.6,18,10,17.8L10,17.8z M9.7,18.4C9.8,18.5,9.2,18.5,9.7,18.4L9.7,18.4
	z M9.8,25.8C9.7,25.8,9.7,25.8,9.8,25.8L9.8,25.8z M10.1,27.7C9.7,28.3,9.3,27.1,10.1,27.7L10.1,27.7z M9.6,29.6
	C9.7,29.6,9.7,30.1,9.6,29.6L9.6,29.6z M10,35.1C9.5,35.6,10.5,34.5,10,35.1L10,35.1z M10.1,29.6C10.1,29.6,10.4,29.6,10.1,29.6
	L10.1,29.6z M10.6,33C10.7,33.3,9.6,33.1,10.6,33L10.6,33z M10.5,31.3C10.8,31.2,10.5,31.3,10.5,31.3L10.5,31.3z M10.6,29.4
	C10.5,29.3,10.8,28.7,10.6,29.4L10.6,29.4z M10.3,27.5c0.5,0.1,0.2,0,0.7,0C11.5,27.5,10.5,29.3,10.3,27.5z M10.5,26.2
	C10.6,25.9,11.1,25.7,10.5,26.2L10.5,26.2z M10.7,19C11.2,19,10.6,19,10.7,19L10.7,19z M11.1,16.7C11.1,17.2,10.6,16.7,11.1,16.7
	L11.1,16.7z M11.2,27.9C11.5,27.9,11.2,28.2,11.2,27.9L11.2,27.9z M11.3,16.8C11.3,17.1,11.2,16.9,11.3,16.8L11.3,16.8z M11.2,25.1
	C11.2,25.2,10.9,25.2,11.2,25.1L11.2,25.1z M11.3,12.4C11.2,12.9,11,12.4,11.3,12.4L11.3,12.4z M11.1,8.3
	C11.2,8.5,10.8,8.2,11.1,8.3L11.1,8.3z M11,14.7C10.6,15.1,10.9,14.7,11,14.7L11,14.7z M10.6,9.4C10.7,9.1,10.8,9.4,10.6,9.4
	L10.6,9.4z M10.8,13.8C10.8,13.8,10.3,13.7,10.8,13.8L10.8,13.8z M10.5,18.4C10.9,18.4,10.3,18.5,10.5,18.4L10.5,18.4z M10.5,16.1
	C10.5,15.8,10.6,16.4,10.5,16.1L10.5,16.1z M10.5,5.5C10.6,5.2,10.5,5.6,10.5,5.5L10.5,5.5z M10.4,8.3C10.7,8.3,10.4,8.6,10.4,8.3
	L10.4,8.3z M10.4,23.5C10.4,23.4,11.3,23.5,10.4,23.5L10.4,23.5z M10.4,25.3C10.4,25.5,10.2,25.3,10.4,25.3L10.4,25.3z M10.2,11.4
	C10.6,11.4,10.1,11.7,10.2,11.4L10.2,11.4z M10,15.4C10,15.3,10.5,15.3,10,15.4L10,15.4z M9.8,13.4C10.3,13.4,9.4,13.8,9.8,13.4
	L9.8,13.4z M9.7,10C9.7,9.4,9.9,10.1,9.7,10L9.7,10z M9.6,14.8C9.3,15.3,9.6,14.7,9.6,14.8L9.6,14.8z M8.9,16
	C9.5,14,10.8,17.7,8.9,16L8.9,16z M9,17.5C8.3,17.1,10.1,17.2,9,17.5L9,17.5z M8.9,18C9,18,9.1,18.4,8.9,18L8.9,18z M8.9,19.5
	C9.3,19.4,8.6,19.9,8.9,19.5L8.9,19.5z M8.7,18.4C8.9,18.4,8.6,18.9,8.7,18.4L8.7,18.4z M8.6,19.3C8.6,19,9,19.3,8.6,19.3L8.6,19.3z
	 M8.4,20C8.9,20.3,8.2,21,8.4,20L8.4,20z M8.3,10.6C7.9,10.6,8.7,10.5,8.3,10.6L8.3,10.6z M8.1,17C7.6,17.3,8,16.9,8.1,17L8.1,17z
	 M7.9,24.1C7.8,24.6,7.6,23.9,7.9,24.1L7.9,24.1z M7.7,27.9C7.9,28,7.7,28,7.7,27.9L7.7,27.9z M7.7,26.6C7.7,26.7,7.5,26.8,7.7,26.6
	L7.7,26.6z M7.6,24.9c0.1,0,0.3,0.1,0.2,0.2C7.7,25.1,7.6,25,7.6,24.9z M7.7,21.3C8,21.3,7.4,21.3,7.7,21.3L7.7,21.3z M7.7,20.3
	C7.6,21.1,7.2,20.3,7.7,20.3L7.7,20.3z M6.8,22.5C6.7,22,7,22.8,6.8,22.5L6.8,22.5z M6.8,18.7C6.8,18.9,6.7,19,6.8,18.7L6.8,18.7z
	 M7,16.7C7.2,17.2,6.5,16.6,7,16.7L7,16.7z M7.1,21.3C7,21.9,6.8,21,7.1,21.3L7.1,21.3z M6.8,21.9C6.8,21.5,7,21.6,6.8,21.9
	L6.8,21.9z M6.9,23.1C6.8,22.5,6.9,23.4,6.9,23.1L6.9,23.1z M6.9,26.8C6.9,27.1,6.7,26.7,6.9,26.8L6.9,26.8z M7,26.1
	C6.7,25.9,7,25.8,7,26.1L7,26.1z M7.1,26.2C7.3,26.2,6.7,26.8,7.1,26.2L7.1,26.2z M7.2,28C7,27.8,7.5,27.5,7.2,28L7.2,28z M7.3,29.5
	c0,0-0.1,0-0.2-0.1c0,0,0,0,0,0C7.3,29.4,7.3,29.5,7.3,29.5z M7.5,23.1C6.8,22.7,7.3,21.8,7.5,23.1L7.5,23.1z M7.3,21.3
	C7.5,21.5,7.3,21.4,7.3,21.3L7.3,21.3z M7.1,21C6.6,21.3,7.9,20.6,7.1,21L7.1,21z M7,19.6C7.7,19.5,7.1,20,7,19.6L7,19.6z M7.1,8.8
	C7.1,8.7,7.5,8.6,7.1,8.8L7.1,8.8z M6.9,9.6C7,9.3,6.9,9.8,6.9,9.6L6.9,9.6z M6.9,10.2C6.5,9.7,7.6,10.4,6.9,10.2L6.9,10.2z
	 M6.7,10.8C6.6,10.3,7.2,11,6.7,10.8L6.7,10.8z M6.6,31C6.7,31,6.9,31.4,6.6,31L6.6,31z M6.5,24.1C6.8,24,6.4,24.4,6.5,24.1
	L6.5,24.1z M6.6,31.7C6.6,31.7,6.6,31.7,6.6,31.7c0,0.1,0,0.1,0,0.2c-0.1-0.1-0.1-0.1-0.1-0.2C6.4,31.4,6.6,31.1,6.6,31.7
	c0,0-0.1,0-0.1,0C6.5,31.7,6.5,31.7,6.6,31.7z M5.7,33.9C5.7,33.8,6,33.9,5.7,33.9L5.7,33.9z M5.7,32.9C5.6,32.8,5.7,32.8,5.7,32.9
	L5.7,32.9z M6.1,32c0.2,0,0,0.2-0.1,0.3C6,32.4,4.8,32.2,6.1,32z M5.6,34.9C5.4,34.9,5.7,34.7,5.6,34.9L5.6,34.9z M5.5,34
	C5.2,33.2,5.6,33.5,5.5,34L5.5,34z M5,28.4C4.5,28.1,5.3,28.5,5,28.4L5,28.4z M5,28.5C4.7,28.5,5,28.2,5,28.5L5,28.5z M4.9,26.6
	C5,26.9,4.5,26.5,4.9,26.6L4.9,26.6z M5.4,22.9c0,0,0.2,0.7,0.2,0.8c0,0-0.4,0.2-0.4-0.6C5.2,22,5.9,22.3,5.4,22.9z M5.4,17.2
	C5.3,16.8,5.8,17.5,5.4,17.2L5.4,17.2z M5.4,25.3C5.1,26,5.2,25.1,5.4,25.3L5.4,25.3z M5.3,28.5C5.3,29,5.3,28.3,5.3,28.5L5.3,28.5z
	 M5.4,23.8C5.7,24.3,5.2,23.6,5.4,23.8L5.4,23.8z M5.4,26.7C5.8,26.2,5.5,26.8,5.4,26.7L5.4,26.7z M5.3,20.2C5.6,20.3,5,20,5.3,20.2
	L5.3,20.2z M5.1,20.8C5.4,21.1,5,20.9,5.1,20.8L5.1,20.8z M5.1,27.2C5.1,27.3,5,27,5.1,27.2L5.1,27.2z M5,32.5
	C5.4,31.9,5.1,32.5,5,32.5L5,32.5z M5.2,28.8C5.9,28.6,5.2,29.1,5.2,28.8L5.2,28.8z M5.6,20.2C6.4,22.1,5.6,21.3,5.6,20.2L5.6,20.2z
	 M5.6,18.8C5.7,18.7,6.1,18.7,5.6,18.8L5.6,18.8z M5.9,27C5.8,27,5.7,26.7,5.9,27L5.9,27z M5.8,30.2c0,0.1,0,0.1-0.1,0.1
	C5.7,30.2,5.7,30.2,5.8,30.2z M6,31.5c0,0,0.1,0,0.1,0C6.1,31.5,6.1,31.5,6,31.5z M6.3,34C6.9,34,5.8,34,6.3,34L6.3,34z M6.4,25.9
	C6.7,25.6,6.3,26,6.4,25.9L6.4,25.9z M6.3,17.3C6.2,17.3,6,16.6,6.3,17.3L6.3,17.3z M6,28.3C5.5,27.8,6.6,28.4,6,28.3L6,28.3z
	 M6.1,17.6C6,17.3,6.2,18.1,6.1,17.6L6.1,17.6z M6,26.1C5.7,26.1,6.3,25.7,6,26.1L6,26.1z M6,11.3c0.1,0,0.3,0.9-0.3,0.1
	C5.8,11.3,5.9,11.3,6,11.3z M5.6,12.8C5.5,12.2,6.2,13.3,5.6,12.8L5.6,12.8z M5,15.8C5,15.4,6.4,15.8,5,15.8L5,15.8z M5.1,11
	C5.1,11,5.1,11.3,5.1,11L5.1,11z M5,10.6C4.9,10.3,5.3,10.6,5,10.6L5,10.6z M4.9,19.6C4.8,19.3,5.2,19.7,4.9,19.6L4.9,19.6z
	 M4.7,11.4C4.8,11.2,4.9,11.5,4.7,11.4L4.7,11.4z M4.7,25.5C4.7,25.8,4.7,25.3,4.7,25.5L4.7,25.5z M4.6,23.4c-1.3,0,0.5-1,0-0.1
	C4.5,23.3,4.5,23.4,4.6,23.4z M4.4,24.5C4.7,24.5,4.4,24.6,4.4,24.5L4.4,24.5z M4,22.9C4,22.8,4.4,22.9,4,22.9L4,22.9z M4.1,20.4
	C4.1,20.5,4,20.6,4.1,20.4L4.1,20.4z M4.5,17.8C4.4,18,4.6,17.6,4.5,17.8L4.5,17.8z M4.5,22.7C4.4,22.5,4.7,21.9,4.5,22.7L4.5,22.7z
	 M4.7,18.2C4.7,18.2,4.4,18.4,4.7,18.2L4.7,18.2z M4.5,16.5C4.8,16.6,4.2,16.3,4.5,16.5L4.5,16.5z M4,13.8C4.6,13.9,4,13.8,4,13.8
	L4,13.8z M3.8,15C4.8,15.3,3.9,15,3.8,15L3.8,15z M3.7,13.9C3.6,14.3,3.9,13.6,3.7,13.9L3.7,13.9z M3.7,19.1
	C3.6,18.9,4.5,19.1,3.7,19.1L3.7,19.1z M4,22.4C4.1,22.8,3.4,22,4,22.4L4,22.4z M3.4,31.8C3.8,31.6,3.4,32.4,3.4,31.8L3.4,31.8z
	 M3.4,26.8C3.4,27.2,3.4,26.9,3.4,26.8L3.4,26.8z M3.5,18.9C3.3,18.9,3.5,18.6,3.5,18.9L3.5,18.9z M3.3,17.8
	C3.5,17.3,3.6,18,3.3,17.8L3.3,17.8z M2.3,16.4C2.3,16.2,2.6,16.4,2.3,16.4L2.3,16.4z M1.5,21.3C1.5,20.9,1.9,21.6,1.5,21.3
	L1.5,21.3z M0.8,22.1c0,0,0.1,0,0.2,0.1C1,22.2,0.8,22.1,0.8,22.1C0.8,22.1,0.8,22.1,0.8,22.1z M0.9,24.4
	C0.9,24.4,0.8,24.1,0.9,24.4L0.9,24.4z M1.3,27C1.2,27.1,0.8,26.8,1.3,27L1.3,27z M1.5,22.2C1.2,22.2,1.6,22.2,1.5,22.2L1.5,22.2z
	 M1.5,25.4C1.6,25.7,1.4,25.2,1.5,25.4L1.5,25.4z M1.7,28.6C1.7,29.1,1.4,28.3,1.7,28.6L1.7,28.6z M2.2,16.8
	C2.1,16.3,3.1,16.8,2.2,16.8L2.2,16.8z M2.7,23.8C2.3,23.5,3.1,23.8,2.7,23.8L2.7,23.8z M2.8,22.5C2.7,22.6,2.7,22.6,2.8,22.5
	L2.8,22.5z M2.5,20.5C2.2,20.2,2.4,20,2.5,20.5L2.5,20.5z M2.3,22.1C2.5,22.1,2.3,22.5,2.3,22.1L2.3,22.1z M2.5,21.4
	C2.4,21.4,2.4,21.4,2.5,21.4L2.5,21.4z M2.6,30.9C2.7,31.4,2.2,30.8,2.6,30.9L2.6,30.9z M2.6,27C2.7,27,2.5,27.3,2.6,27L2.6,27z
	 M2.8,26.2C2.3,26.2,2.8,25.5,2.8,26.2L2.8,26.2z M2.6,22C2.8,21.8,3.2,22.4,2.6,22L2.6,22z M2.9,27.1C3.3,26.3,3.1,27,2.9,27.1
	L2.9,27.1z M3,22.5C3.2,22.1,3.2,22.7,3,22.5L3,22.5z M3.4,30.3C2.9,30.1,3.4,30.1,3.4,30.3L3.4,30.3z M3.7,32.5
	c0.1,0,0.1,0,0.1,0.1C3.7,32.6,3.7,32.6,3.7,32.5z M3.3,32c0.3,0,0.4,0.1,0.5,0.3C3.6,32.3,3.3,32.2,3.3,32z M3.7,28.2
	C3.7,28.2,4,27.9,3.7,28.2L3.7,28.2z M4.3,29.6C4.3,30.5,3.4,29.8,4.3,29.6L4.3,29.6z M4.2,31.1C4.1,30.7,4.6,31.1,4.2,31.1
	C4.2,31.1,4.2,31.1,4.2,31.1z M4.4,33.9C4,33.9,4.4,33.6,4.4,33.9L4.4,33.9z M4.5,26.4C4,26.7,3.8,26,4.5,26.4L4.5,26.4z M4.5,27.4
	C4.6,26.9,5.1,27.4,4.5,27.4L4.5,27.4z M4.6,34.7C4.5,34.7,4.7,34.3,4.6,34.7L4.6,34.7z M4.8,35C4.8,35,4.8,34.7,4.8,35L4.8,35z
	 M4.9,33.7C4.2,33.8,4.7,32.4,4.9,33.7L4.9,33.7z M5,35.6C5,35.1,5.3,35.8,5,35.6L5,35.6z M5.2,33C4.9,32.6,5.9,32.9,5.2,33L5.2,33z
	 M6,36.2C4.5,36.1,5.8,35.3,6,36.2L6,36.2z M6,34.5c0,0.1,0,0.1,0,0.1c0.1,0.1,0.3,0.2,0.3,0.2C5.2,35.9,6,33.7,6,34.5z M6.4,34.6
	c0.2,0,0.1,0,0.1,0.2C6.6,35.2,6.4,34.6,6.4,34.6z M6.6,35.2C6.6,35.1,6.8,35,6.6,35.2L6.6,35.2z M6.9,36.7
	C6.9,36.7,6.4,37,6.9,36.7L6.9,36.7z M6.7,32.4C6.1,32.1,7.6,32.2,6.7,32.4L6.7,32.4z M6.9,27.5C7.2,27.5,7,27.8,6.9,27.5L6.9,27.5z
	 M7.1,31.5C7.1,31.5,6.9,31.6,7.1,31.5L7.1,31.5z M7.1,34.5C7.1,34.7,7.2,34.3,7.1,34.5L7.1,34.5z M7.1,30.9
	C7,31.1,7.2,30.7,7.1,30.9L7.1,30.9z M7.2,29.5c0,0,0.1,0,0.1,0.1C7.3,29.5,7.2,29.5,7.2,29.5z M7.4,32.3
	C7.3,32.2,7.6,32.2,7.4,32.3L7.4,32.3z M7.5,31.7C7.1,31.6,7.7,31.1,7.5,31.7L7.5,31.7z M7.5,33.6C7.5,32.8,8,33.5,7.5,33.6
	L7.5,33.6z M7.7,31.2C7.7,29.5,8.4,32.1,7.7,31.2L7.7,31.2z M7.9,35.5C8,35.7,7.8,35.6,7.9,35.5L7.9,35.5z M7.9,36.3
	C8,36,8.1,36.3,7.9,36.3L7.9,36.3z M9.3,37.4c0,0.4,0.4,0.7-0.7,0.3C6.9,37,9.3,38.1,9.3,37.4z M10.1,39.5c0,0.3,0.2,0.1,0.4,0.5
	C7.1,39.6,10.1,40,10.1,39.5z M10.3,36.3c0.1,0.1,0.3,0.2,0.4,0.3C10.4,36.6,10.3,36.5,10.3,36.3z M10.4,35
	C10.2,33.9,10.9,35.8,10.4,35L10.4,35z M10.7,34.6C10.7,34.8,10.4,34.6,10.7,34.6L10.7,34.6z M10.3,34.4c-0.1-0.2-0.1-0.3-0.2-0.3
	c0,0,0,0,0-0.1C10.1,34.5,11.3,34.2,10.3,34.4z M10.9,39.5C11.1,40,10.5,39.5,10.9,39.5L10.9,39.5z M10.8,33.5
	C10.7,33.1,11.3,33.6,10.8,33.5L10.8,33.5z M11.2,38.5C10.5,38,11.5,38.8,11.2,38.5L11.2,38.5z M11.5,32.1
	C11.2,32.7,11.2,31.8,11.5,32.1L11.5,32.1z M11.4,38.9C11.7,38.7,11.7,38.9,11.4,38.9L11.4,38.9z M11.6,39.6
	C11.6,39.6,11.6,39.6,11.6,39.6C11.7,39.4,11.6,39.6,11.6,39.6z M11.9,41c-0.1,0-0.1,0-0.1-0.1c-0.5,0.7-0.2-1.7,0.1-0.2
	c0,0.1-0.1,0.1-0.1,0.2C11.8,40.9,11.9,41,11.9,41z M12,33.1C11.2,34.2,11.3,33.7,12,33.1L12,33.1z M12,32.7
	C12.2,32.8,12,32.8,12,32.7L12,32.7z M12.1,32.5C12.1,32.5,11.8,32.2,12.1,32.5L12.1,32.5z M12.3,39.1
	C11.9,39.1,12.6,38.8,12.3,39.1L12.3,39.1z M12.3,40.4C12.6,40,12.6,40.4,12.3,40.4L12.3,40.4z M12.5,32.2
	C12.6,32.4,12.4,31.9,12.5,32.2L12.5,32.2z M12.9,25C12.5,24.8,12.8,24.6,12.9,25L12.9,25z M12.8,40.4
	C12.5,40.1,13.2,40.4,12.8,40.4L12.8,40.4z M13.1,39.4C12.5,39.5,13.1,39,13.1,39.4L13.1,39.4z M13.2,33.2
	C13.1,33.3,12.9,33,13.2,33.2L13.2,33.2z M13.1,38C13,37.9,13.4,38.1,13.1,38L13.1,38z M13.3,40.6c0.1,0.1,0.3,0.2,0.4,0.3
	C13.4,41,13.3,40.8,13.3,40.6z M13.6,37C13.5,36.9,13.9,37,13.6,37L13.6,37z M13.6,36.5C13.1,36.5,14.1,36,13.6,36.5L13.6,36.5z
	 M14,41.9C14,42.2,13.4,41.8,14,41.9L14,41.9z M14,39.5C14.1,39.2,14.1,39.4,14,39.5L14,39.5z M14.2,41.8
	C14.2,42.2,13.8,41.7,14.2,41.8L14.2,41.8z M14.4,28.5C14.2,29,14,28.7,14.4,28.5L14.4,28.5z M14.4,38.4
	C14.1,38.4,14.4,38,14.4,38.4L14.4,38.4z M15,37.4C14.2,38.6,14.3,38,15,37.4L15,37.4z M15,38.1C14.9,38.1,14.7,37.8,15,38.1
	L15,38.1z M14.7,42.1C14.8,42.6,14.4,42,14.7,42.1L14.7,42.1z M15.2,42.5c-0.1-0.5-0.5-1.1-0.7-1.1C15.2,41.4,15.4,41.4,15.2,42.5z
	 M15.1,39.4C14.7,39.1,15.8,39.6,15.1,39.4L15.1,39.4z M15.5,43.5C14.8,43.5,16.3,42.9,15.5,43.5L15.5,43.5z M16.1,43.7
	C16,44.1,15.2,43.8,16.1,43.7L16.1,43.7z M16.3,43.4C16.2,44,16,43,16.3,43.4L16.3,43.4z M16.5,43.1C16.1,43.3,16.5,43.1,16.5,43.1
	L16.5,43.1z M16.6,43.1C16.7,42.8,17.4,43.4,16.6,43.1L16.6,43.1z M16.9,41.3C17,41.4,16.8,41.5,16.9,41.3L16.9,41.3z M17,44.7
	c-0.1,0-0.1-0.1,0-0.1C17,44.7,17,44.7,17,44.7z M17,38.9C17,39,16.8,39,17,38.9L17,38.9z M16.9,37C17,36.4,17.1,37,16.9,37L16.9,37
	z M17.1,35.1C16.7,35.2,17.1,34.9,17.1,35.1L17.1,35.1z M17.1,34.4C16.9,34.4,17.2,34.1,17.1,34.4L17.1,34.4z M17.4,38.9
	C17,39.2,17.4,38.5,17.4,38.9L17.4,38.9z M17.5,42.6C17.5,43,17.2,42.3,17.5,42.6L17.5,42.6z M17.3,40.1c0-0.1,0.1-0.1,0.2-0.1
	C17.5,40.1,17.4,40.1,17.3,40.1z M17.6,39.8C17.2,39.8,17.6,39.6,17.6,39.8L17.6,39.8z M17.8,37.2C17.8,37.5,17.4,37.2,17.8,37.2
	L17.8,37.2z M17.7,37.9C17.6,37.9,17.8,37.6,17.7,37.9L17.7,37.9z M17.8,43.5C17.8,43.6,17.6,43.7,17.8,43.5L17.8,43.5z M17.8,40.9
	C17.9,41.6,17.3,40.7,17.8,40.9L17.8,40.9z M18,42.5C18,42.6,17.7,42.6,18,42.5L18,42.5z M18,35.3C17.9,35.5,17.6,35.3,18,35.3
	L18,35.3z M18.1,26.7C18.1,26.9,17.7,26.5,18.1,26.7L18.1,26.7z M18.8,28.7C18.5,28.8,18.8,28.2,18.8,28.7L18.8,28.7z M19,28.2
	C19,28.2,18.5,28.3,19,28.2L19,28.2z M18.8,30.2C18.8,30.2,19.3,28.4,18.8,30.2L18.8,30.2z M18.6,23.5c0-0.1,0-0.4,0.1-0.5
	C18.8,23.1,18.7,23.4,18.6,23.5z M18.8,34.2c-0.1-0.1-0.3-0.2-0.2-0.4C18.7,34,18.8,34.1,18.8,34.2z M18.4,34.7
	C18.5,34.5,18.5,34.7,18.4,34.7L18.4,34.7z M18.6,35.2C18.5,35.7,18.4,35.2,18.6,35.2L18.6,35.2z M18.5,36.3
	C18.2,36,18.9,36.3,18.5,36.3L18.5,36.3z M18.7,38.3c-0.1,0-0.1-0.2-0.2-0.3C18.7,38,18.7,38.1,18.7,38.3z M18.7,35.7
	C18.4,36,18.5,35.8,18.7,35.7L18.7,35.7z M18.6,34.3C18.3,34.3,18.6,34.1,18.6,34.3L18.6,34.3z M18.4,31.8
	C18.6,31.7,18.4,32.1,18.4,31.8L18.4,31.8z M18.2,30.6C18.1,30.2,18.8,30.6,18.2,30.6L18.2,30.6z M18.1,30C18,29.7,18.7,30,18.1,30
	L18.1,30z M18.1,31C18.2,30.4,18.2,31,18.1,31L18.1,31z M18.1,38.4C18.6,38.6,18.1,38.5,18.1,38.4L18.1,38.4z M18.3,41
	C18.4,40.6,18.8,41.4,18.3,41L18.3,41z M18.5,42.7C18.3,42.7,19.1,41.8,18.5,42.7L18.5,42.7z M18.8,34.4
	C18.7,34.7,18.5,34.4,18.8,34.4L18.8,34.4z M18.6,28.5C18.3,28.5,18.6,28.2,18.6,28.5L18.6,28.5z M18.4,26.4
	C18.6,26.2,18.6,26.9,18.4,26.4L18.4,26.4z M18.4,25.7C18.4,25.8,18.2,25.8,18.4,25.7L18.4,25.7z M18.2,28.3
	C18.5,27.5,18.6,28.4,18.2,28.3L18.2,28.3z M18.1,27.1C18,26.8,18.5,27.1,18.1,27.1L18.1,27.1z M18.1,26.1
	C18.2,26,18.2,26.2,18.1,26.1L18.1,26.1z M18.1,41.1C17.9,41.1,18.1,40.8,18.1,41.1L18.1,41.1z M18.3,43.1
	C17.9,43.3,18.6,43,18.3,43.1L18.3,43.1z M18.9,43.3C18.3,44.1,18.1,42.7,18.9,43.3L18.9,43.3z M18.8,32C19,31.7,19.2,31.8,18.8,32
	L18.8,32z M19,35.9C19.1,33.8,19.9,37.5,19,35.9L19,35.9z M19.1,33.5C19,33.1,19.3,33.6,19.1,33.5L19.1,33.5z M19.7,44.5
	C19.7,44.8,19.6,44.3,19.7,44.5L19.7,44.5z M20,39.1C20.8,39.4,19.3,38.9,20,39.1L20,39.1z M20.4,43.3C20.4,43.3,20,43.2,20.4,43.3
	L20.4,43.3z M20.5,41.5C20.3,41.5,20.5,41.1,20.5,41.5L20.5,41.5z M20.4,40.7C20.1,40.7,20.8,40,20.4,40.7L20.4,40.7z M20.3,40.2
	C20.3,40.2,20.4,40.2,20.3,40.2L20.3,40.2z M20.7,38.5C20.1,38.1,20.9,38.4,20.7,38.5L20.7,38.5z M21.1,44.8
	C20.7,45.4,20.8,44.4,21.1,44.8L21.1,44.8z M20.9,38.7C21.1,38.7,21,39,20.9,38.7L20.9,38.7z M22,44.8C22.1,45,21.2,45.6,22,44.8
	L22,44.8z M21.6,43.7C21.6,43.7,22.1,43.1,21.6,43.7L21.6,43.7z M22,39.8C21.8,39.7,22.2,39.4,22,39.8L22,39.8z M22.3,44.1
	C22.5,44.8,21.9,42.8,22.3,44.1L22.3,44.1z M22.2,39.6C22.6,39.1,22.4,40.4,22.2,39.6L22.2,39.6z M22.5,43.9
	C22.1,42.9,23.1,43.8,22.5,43.9L22.5,43.9z M22.5,40.5C22.8,40.4,22.5,40.8,22.5,40.5L22.5,40.5z M22.6,41
	C22.7,40.7,22.6,41,22.6,41L22.6,41z M22.7,39.7C22.7,40,22.5,39.7,22.7,39.7L22.7,39.7z M23.1,44.2C23,44.4,22.7,44.4,23.1,44.2
	L23.1,44.2z M22.9,41.3C22.8,40.5,23.6,41.1,22.9,41.3L22.9,41.3z M23.3,39.8C23.4,40.8,22.7,39.7,23.3,39.8L23.3,39.8z M23.3,44.3
	C23.3,44.4,23.1,44.3,23.3,44.3L23.3,44.3z M23.4,42.5C23.4,43.4,23.2,42.5,23.4,42.5L23.4,42.5z M23.5,38.2
	C23.4,37.9,24.1,38.2,23.5,38.2L23.5,38.2z M23.8,41.9C23.6,41.8,23.8,41.7,23.8,41.9L23.8,41.9z M24.1,38.9
	C23.8,39,24.2,38.6,24.1,38.9L24.1,38.9z M24.2,38.5C24,38.7,23.6,37.9,24.2,38.5L24.2,38.5z M24,36.4C24.1,36.3,24.1,36.5,24,36.4
	L24,36.4z M24.6,45.5C24.2,45.5,24.5,45,24.6,45.5L24.6,45.5z M24.6,43.5C24.6,44,24.3,43.1,24.6,43.5L24.6,43.5z M24.8,45
	C24.6,45,24.8,44.7,24.8,45L24.8,45z M24.7,40.8C24.6,40.7,25.2,40.2,24.7,40.8L24.7,40.8z M24.8,34.4v0.2c0,0,0,0,0,0V36h-2.6
	c0,0,0,0.1-0.1,0.1c0,0,0,0,0-0.1h-1.8c0,0,0,0,0,0c0,0,0,0,0,0h-0.8v-0.6c0,0,0,0-0.1,0c0-0.1,0.1-0.1,0.1-0.1v-3.7c0,0,0,0,0,0
	c0,0,0,0.1-0.1,0.1c-1,0,0.5-0.5-0.1-0.5c0.1,0,0.1,0,0.2,0v-0.7c0,0-0.1,0-0.1,0c-0.1-0.3,0-0.2,0.1-0.1v-0.3c0,0,0,0,0,0
	c-0.1,0,0-0.1,0-0.2v-2.9c0,0,0,0,0,0v-2.3c0,0-0.1,0-0.1,0c0-0.1,0-0.1,0.1-0.1v-1.6c0,0,0,0-0.1,0c-0.3-0.3,0-0.1,0.1,0v-0.3H19
	c0,0.5-0.1,0.4-0.1,0h-2.3v-3.1c0,0-0.1,0-0.2-0.1c0.1-0.2,0.2-0.2,0.2-0.1v-0.6h0.1c0,0,0.1,0,0.1,0h2.7v-2.3c-0.1,0-0.1,0,0,0
	v-0.3c0-0.5,0-1.2,0.1-1.8c-0.2-0.1-0.2-0.2,0-0.2c0.1-0.7,0.3-1.5,0.8-2c0.9-1.2,2.2-2,4.5-2c3.6,0,5.1,0.5,5.1,0.5l-0.5,2.9
	c0.2,0,0.4,0,0,0.2c0,0,0,0,0,0l-0.2,0.8c0.6,0.7,0.7,1.2,0.2,1.2c0.2,0-0.1-0.8-0.8-0.8c0.2,0,0.4-0.2,0.5-0.3
	c-0.2,0-0.5-0.1-0.8-0.2c0,0,0,0-0.1,0c-0.4-0.1-0.8-0.1-1.3-0.1c-0.1,0-0.1,0-0.2,0c0,0.1,0,0,0,0c-1,0-1.9,0.4-1.9,1.4v3h2.7
	c0.1-0.1,0.3-0.1,0.4,0h1.5l-0.3,3.9h-4.3v1.1c0.7,0.2,0.1,0.2,0,0v0.2c0,0,0.1,0,0,0v2c0,0,0,0.1,0,0.1c0,0,0,0,0,0.1v4.1
	c0.1,0,0.1,0,0,0v1.9c0,0,0,0,0,0v1.7c0.1-0.1,0.2-0.1,0,0v0.3c0.1-0.1,0.2-0.2,0.3-0.1C25,34.3,24.9,34.3,24.8,34.4z M19.4,30.1
	C19.3,30.2,19,30.2,19.4,30.1L19.4,30.1z M19.3,26.6C19.2,25.9,19.5,26.6,19.3,26.6L19.3,26.6z M19.2,29.3
	C19.2,29.4,19.2,29.4,19.2,29.3L19.2,29.3z M19.3,25.9C19.4,26.4,18.9,26.1,19.3,25.9L19.3,25.9z M26.5,7.8
	C26.5,7.8,26.5,8.1,26.5,7.8L26.5,7.8z M28.9,18.4C28.9,18.8,28.5,18.3,28.9,18.4L28.9,18.4z M28.7,15.8
	C28.9,15.9,28.9,16.2,28.7,15.8L28.7,15.8z M28.8,15.7C28.3,15.3,29.4,15.8,28.8,15.7L28.8,15.7z M28.7,15.2
	C28.6,15.1,28.7,15.2,28.7,15.2L28.7,15.2z M27.5,18.5C27.6,18.7,27.1,18.5,27.5,18.5L27.5,18.5z M27.4,17.7
	C27.5,17.7,27.5,18,27.4,17.7L27.4,17.7z M27.2,15.5C28.6,17.1,25.3,15.6,27.2,15.5L27.2,15.5z M26.9,15.2
	C26.8,15.1,27.3,15.2,26.9,15.2L26.9,15.2z M27.1,14.3C27.1,14.6,27,14.3,27.1,14.3L27.1,14.3z M26.3,16.2
	C26.8,16,26.3,17.1,26.3,16.2L26.3,16.2z M26.1,16C26.4,15.9,26.2,16.4,26.1,16L26.1,16z M26.1,15.9C26.2,16.4,25.4,15.8,26.1,15.9
	L26.1,15.9z M25.8,16.4C25.8,16.9,25.7,15.9,25.8,16.4L25.8,16.4z M25.4,16.6C25.8,16.2,25.3,16.9,25.4,16.6L25.4,16.6z M28.8,36.6
	C28.6,37.1,28.6,36.4,28.8,36.6L28.8,36.6z M28.8,37.6C28.5,37.4,28.9,37.5,28.8,37.6L28.8,37.6z M28.9,26.7
	C28.9,27.2,28.3,26.6,28.9,26.7L28.9,26.7z M29,31.8C29,31.7,29.4,31.9,29,31.8L29,31.8z M29.1,31.5C29.1,32.2,29.1,31.1,29.1,31.5
	L29.1,31.5z M29.1,35C29,35.6,28.7,34.7,29.1,35L29.1,35z M29,37.9C29,37.9,29.3,37.9,29,37.9L29,37.9z M28.8,26.6
	C29.2,26.6,28.8,26.7,28.8,26.6L28.8,26.6z M28.8,36.3C28.8,36.2,29.2,36.5,28.8,36.3L28.8,36.3z M29,37.1
	C28.7,36.8,29.1,37.3,29,37.1L29,37.1z M28.9,38.4C29.1,38.5,29.1,39,28.9,38.4L28.9,38.4z M28.9,39.2C29.5,39,28.8,39.5,28.9,39.2
	L28.9,39.2z M28.9,41.8C29,41.4,29.3,41.8,28.9,41.8L28.9,41.8z M29.2,41.3C29,41.1,29.2,40.3,29.2,41.3L29.2,41.3z M29.1,32.3
	C29.7,32,29,33.1,29.1,32.3L29.1,32.3z M29.2,30.8C29.2,30.9,29.2,31,29.2,30.8L29.2,30.8z M29.4,26.4
	C29.3,26.3,29.3,26.1,29.4,26.4L29.4,26.4z M28.4,29.3C28.3,29.3,28.6,29.2,28.4,29.3L28.4,29.3z M28.5,29
	C28.8,29,28.1,29.4,28.5,29L28.5,29z M28.5,30.5C28.3,30.4,28.5,30.3,28.5,30.5L28.5,30.5z M28.6,32.7
	C28.6,32.9,28.3,32.6,28.6,32.7L28.6,32.7z M26.3,40.3C26.6,40.1,26.4,40.7,26.3,40.3L26.3,40.3z M26.2,43.4
	C26.4,43,26.5,43.6,26.2,43.4L26.2,43.4z M26.3,33.1C26.3,33.3,26.2,33.2,26.3,33.1c-0.1,0-0.2,0-0.2-0.2c-0.7-1,0.4-0.1,0.4-0.4
	c0.1-0.4,0,0.3,0.2,0.3C26.6,32.9,26.4,33.1,26.3,33.1z M25.9,38.1C26.2,38.2,25.9,38.1,25.9,38.1L25.9,38.1z M26.1,43
	C26.1,43.4,25.8,43,26.1,43L26.1,43z M26,33.5C26.1,32.6,26.3,33.7,26,33.5L26,33.5z M26,31C25,30.5,26.9,30.7,26,31L26,31z
	 M25.6,34.2C25.3,34.3,26.2,32.8,25.6,34.2L25.6,34.2z M25.7,41.2c0,0.2-0.1-0.3-0.1-0.3C25.6,40.9,25.7,40.3,25.7,41.2z M25,32.6
	C25.1,32.6,25.1,32.6,25,32.6c0.2,0.2,0.5,1,0.3,1c0,0,0,0-0.1,0c0,0,0,0-0.1,0.1c-0.2,0-0.4-0.4-0.4-0.4
	C24.9,32.7,24.9,32.6,25,32.6z M25,25.7C25,25.7,25,26.2,25,25.7L25,25.7z M25.2,28.6C25.1,27.9,25.4,28.6,25.2,28.6L25.2,28.6z
	 M25.2,32.5C25.1,32,25.6,32.6,25.2,32.5L25.2,32.5z M25.3,32.1C25.2,32.2,24.9,32.2,25.3,32.1L25.3,32.1z M25.1,31.3
	C25.1,31.4,25.1,31.4,25.1,31.3L25.1,31.3z M25,26.8C25.2,26.8,25,27.2,25,26.8L25,26.8z M25.3,32c-0.1-0.1,0-0.2,0-0.2
	C25.5,31.8,25.4,32,25.3,32z M25.9,28.5C25.8,28.1,26.3,28.5,25.9,28.5L25.9,28.5z M26,27.3C25.7,27.2,26.1,27,26,27.3L26,27.3z
	 M26.3,29.8C26.3,29.5,26.7,29.8,26.3,29.8L26.3,29.8z M26.4,27.7c0,0,0,0.1,0.1,0.1C26.3,27.8,26.3,27.7,26.4,27.7z M26.2,30
	C26.4,29.7,26.6,30.2,26.2,30L26.2,30z M26.4,29.9C26.3,29.9,26.3,29.7,26.4,29.9L26.4,29.9z M26.2,25.1
	C26.5,25.3,26.1,25.7,26.2,25.1L26.2,25.1z M26.1,22.8C26.4,22.8,25.9,22.8,26.1,22.8L26.1,22.8z M26,29.8
	C26,29.6,26.3,29.9,26,29.8L26,29.8z M25.7,30.2C25.9,29.7,26.5,30.9,25.7,30.2L25.7,30.2z M25.6,28.7C25.6,28.7,26,28.5,25.6,28.7
	L25.6,28.7z M25.6,25C26.2,25.2,25.3,25.3,25.6,25L25.6,25z M25.5,28.8C26,29.9,24.9,28.6,25.5,28.8L25.5,28.8z M25.4,30.4
	C25.6,30.5,25.4,30.4,25.4,30.4L25.4,30.4z M25.6,34.7C25.6,34.9,25.2,34.7,25.6,34.7L25.6,34.7z M26.2,31.6
	C25.9,32.5,26,31.4,26.2,31.6L26.2,31.6z M25.9,31C26,31.2,25.9,31.1,25.9,31L25.9,31z M26.7,24.7C27,24.6,26.7,24.9,26.7,24.7
	L26.7,24.7z M26.7,28.3C27.1,28.3,26.7,28.5,26.7,28.3L26.7,28.3z M26.9,29.9C26.1,29.7,27.5,30,26.9,29.9L26.9,29.9z M26.9,30.2
	C28,30.3,26.9,30.3,26.9,30.2L26.9,30.2z M27,31.1C26.9,30.1,27.6,31.5,27,31.1L27,31.1z M27.3,26.7C27.3,26.8,27,26.9,27.3,26.7
	L27.3,26.7z M27.1,24.8C26.5,24.1,28,24.8,27.1,24.8L27.1,24.8z M26.6,30.2C26.6,30.1,27.1,30.3,26.6,30.2L26.6,30.2z M26.7,25.3
	C26.6,25.4,26.3,24.9,26.7,25.3L26.7,25.3z M26.6,29.5c-0.1,0-0.1-0.1,0-0.1C26.7,29.3,26.6,29.4,26.6,29.5z M26.8,40.9
	C26.5,40.8,26.6,40.6,26.8,40.9L26.8,40.9z M26.9,35.8C26.8,36.1,26.6,35.7,26.9,35.8L26.9,35.8z M26.8,38.5
	C27.1,38.4,26.8,38.8,26.8,38.5L26.8,38.5z M26.9,40.6C26.8,40.6,26.9,40.3,26.9,40.6L26.9,40.6z M27,33C27.1,33.4,26.7,32.8,27,33
	L27,33z M27,33.4C27,33.3,27.3,33.6,27,33.4L27,33.4z M27.1,38.4C27.2,38.4,27.4,38.8,27.1,38.4L27.1,38.4z M27.3,33.6
	C27.3,33.8,27.2,33.8,27.3,33.6L27.3,33.6z M26.9,32.5v-1v0c0,0.5,0.8-0.4,0.8-0.3c0,0.2-0.2,0.4-0.4,0.4
	C26.8,31.5,26.9,32.6,26.9,32.5z M27.5,30.9C27.7,30.3,28,31.5,27.5,30.9L27.5,30.9z M27.6,27.7C27.6,27.5,27.7,27.7,27.6,27.7
	L27.6,27.7z M28.3,29.1C28.1,30.1,27.6,28.8,28.3,29.1L28.3,29.1z M28.3,24.1C28.3,24.2,27.8,24.2,28.3,24.1L28.3,24.1z M28.2,30.2
	C28,30.4,28.3,29.7,28.2,30.2L28.2,30.2z M28,28.6C28,28.6,27.8,28.6,28,28.6L28,28.6z M27.9,32.7C28.2,32.4,27.9,33.4,27.9,32.7
	L27.9,32.7z M27.7,35.7C27.8,35.5,28.5,35.7,27.7,35.7L27.7,35.7z M27.7,35.5c0-0.7,0,0,0.1,0C27.8,35.6,27.7,35.5,27.7,35.5z
	 M27.9,33.1C28,33.3,28,33.3,27.9,33.1L27.9,33.1z M27.8,28.2C28.1,28,27.7,28.7,27.8,28.2L27.8,28.2z M27.7,26.7
	C28.1,26.7,27.7,27.1,27.7,26.7L27.7,26.7z M27.5,30C27.6,29.9,27.5,30.1,27.5,30L27.5,30z M27.6,32.7
	C27.2,32.7,27.6,32.2,27.6,32.7L27.6,32.7z M27.5,33.2C27.6,33.2,27.6,33.4,27.5,33.2L27.5,33.2z M27.3,32.7
	C27.6,32.5,27.3,33,27.3,32.7L27.3,32.7z M27.4,34C27.2,34,27.4,33.5,27.4,34L27.4,34z M27.4,36.1C27.6,35.8,27.3,36.4,27.4,36.1
	L27.4,36.1z M28.2,36.6C26.5,36.6,28.2,36,28.2,36.6L28.2,36.6z M28.1,34.6C27.6,34.2,28.8,34.7,28.1,34.6L28.1,34.6z M28.3,35.5
	C28.4,34.8,28.3,35.5,28.3,35.5L28.3,35.5z M25.2,44.5C25.5,44.4,25.9,44.6,25.2,44.5L25.2,44.5z M25.7,45
	C25.7,45.6,24.8,45.3,25.7,45L25.7,45z M25.8,43.9C25.8,43.5,26.2,43.9,25.8,43.9L25.8,43.9z M26.3,44.5
	C26.3,44.7,25.5,44.5,26.3,44.5L26.3,44.5z M26.5,43.9C26.4,44.1,26.2,43.7,26.5,43.9L26.5,43.9z M27,43.9c-0.6,0,0,0.7,0,0.8
	C26.5,44.7,26.1,43.9,27,43.9z M27.2,45.1C26.9,44.9,27.2,45.1,27.2,45.1L27.2,45.1z M27.4,38.9C26.7,39.4,27.9,38.3,27.4,38.9
	L27.4,38.9z M27.4,42.4C27.2,42.5,27.3,42.1,27.4,42.4L27.4,42.4z M27.5,45.2C27.3,45.1,27.5,45,27.5,45.2L27.5,45.2z M27.4,42.5
	C27.4,42.3,28.4,42.2,27.4,42.5L27.4,42.5z M27.7,42.7c0,0.1,0,0.1,0,0.2C27.5,42.8,27.5,42.7,27.7,42.7z M27.7,44.9
	C27.5,44.8,27.7,44.5,27.7,44.9L27.7,44.9z M27.9,44C27.6,43.7,27.9,43.8,27.9,44L27.9,44z M27.7,41.9c-0.2,0-0.1,0-0.2-0.2
	C27.9,41.7,28.1,41.9,27.7,41.9z M27.8,38.9C27.8,38.6,28.1,38.9,27.8,38.9L27.8,38.9z M28.2,44.3C27.9,44.6,28.1,43.8,28.2,44.3
	L28.2,44.3z M28.2,40C28.3,40.3,27.9,40.8,28.2,40L28.2,40z M28.2,37.5C28.2,37.2,28.6,37.5,28.2,37.5L28.2,37.5z M28.4,43.7
	C28.4,43.8,28,43.7,28.4,43.7L28.4,43.7z M28.4,42.1C28.3,42.4,28.3,41.9,28.4,42.1L28.4,42.1z M28.4,35.7
	C28.7,35.4,28.4,36.3,28.4,35.7L28.4,35.7z M28.5,41.5C29,41.5,28.6,41.8,28.5,41.5L28.5,41.5z M28.8,43.9
	C28.9,43.9,28.8,44.3,28.8,43.9L28.8,43.9z M28.9,43.5c-0.1,0-0.1-0.3,0-0.4C29,43.2,28.9,43.4,28.9,43.5z M29.4,43
	C29.4,43.1,29,43.1,29.4,43L29.4,43z M29.1,42.3C28.8,41.4,30.2,42.4,29.1,42.3L29.1,42.3z M29.3,35.3
	C29.1,35.2,29.4,34.9,29.3,35.3L29.3,35.3z M29.5,34.6C29,35.5,29,32.9,29.5,34.6L29.5,34.6z M29.4,32.4
	C29.7,32.3,29.4,32.4,29.4,32.4L29.4,32.4z M29.6,29.9C29.9,29.9,29.6,30.1,29.6,29.9L29.6,29.9z M29.7,34.4
	C29.7,34,29.7,34.4,29.7,34.4L29.7,34.4z M29.7,36.8C29.2,36.7,30.5,36.3,29.7,36.8L29.7,36.8z M30,43.9C29.7,44,30.1,43.5,30,43.9
	L30,43.9z M30,43.3C29.6,43.5,29.5,43.1,30,43.3L30,43.3z M30,41.3c0.1,0,0.1,0.1,0.1,0.2C30.1,41.5,30,41.4,30,41.3z M30.6,43.7
	C29.6,43.3,30.5,43.5,30.6,43.7L30.6,43.7z M30.9,43.3C30.6,42.7,31.4,43.3,30.9,43.3L30.9,43.3z M31.1,44.4
	C30.8,44.6,31.1,44.2,31.1,44.4L31.1,44.4z M31.3,43.8C30.5,43.8,31.3,43.7,31.3,43.8L31.3,43.8z M31.5,43.7
	C31.1,44,31.5,43.1,31.5,43.7L31.5,43.7z M31.4,41c0-0.6,0.4-1.5,0.4-1c-0.1,0.1-0.3,0.4-0.2,0.5C31.8,40.7,31.6,41,31.4,41z
	 M31.8,35.4C32,35.2,31.9,35.4,31.8,35.4L31.8,35.4z M32,36.2C32.7,35.5,32.2,36.9,32,36.2L32,36.2z M32.3,42.9
	C32.4,43.4,32,42.8,32.3,42.9L32.3,42.9z M32.5,43.9C32.3,44,32.4,43.8,32.5,43.9L32.5,43.9z M32.4,43.2c0-0.1,0.1-0.1,0.2-0.1
	C32.6,43.1,32.5,43.1,32.4,43.2z M32.6,38C32.7,38.1,31.6,37.7,32.6,38L32.6,38z M32.6,37.1C32.8,37.1,32.5,37.3,32.6,37.1
	L32.6,37.1z M32.7,30.3C32.7,30.4,32.6,30.4,32.7,30.3L32.7,30.3z M33.7,42.6C32,43.2,32.8,42.1,33.7,42.6L33.7,42.6z M33.6,37.5
	C33.8,37.2,33.7,37.9,33.6,37.5L33.6,37.5z M33.7,38.8C33.7,38.7,34.1,38.7,33.7,38.8L33.7,38.8z M34,40.4
	C33.9,41.6,33.9,40.3,34,40.4L34,40.4z M33.8,40.3C33.6,37.9,34.9,39.8,33.8,40.3L33.8,40.3z M34.4,40.5
	C34,40.9,34.4,40.1,34.4,40.5L34.4,40.5z M34.8,40.5C34.6,41.2,34.4,40.2,34.8,40.5L34.8,40.5z M35,40.2C35,40.5,34.5,40.1,35,40.2
	L35,40.2z M34.9,39c-0.2,0-0.3,0-0.4-0.1c0,0,0-0.1,0-0.2c-0.1,0-0.1,0.1,0,0.1c-0.6-0.4,0.7-1.6,0.6-0.1C33.9,38.7,35.1,39,34.9,39
	z M35.3,37C35.4,37.7,34.1,36.7,35.3,37L35.3,37z M35.4,42.2C35.1,42.6,35.3,41.7,35.4,42.2L35.4,42.2z M35.7,39.3
	c0,0.1,0,0.1-0.1,0.1C35.6,39.3,35.6,39.3,35.7,39.3z M35.8,40.3C35.8,40.5,35.4,40,35.8,40.3L35.8,40.3z M36.1,39.9
	C36.4,41.2,35.4,39,36.1,39.9L36.1,39.9z M36.7,40.2C36.1,40.4,36.7,39.9,36.7,40.2L36.7,40.2z M36.9,39
	C35.4,40.1,36.3,38.5,36.9,39L36.9,39z M36.9,33.5C36.9,33.9,36.5,33.4,36.9,33.5L36.9,33.5z M37,37.5C37,37.6,36.7,37.5,37,37.5
	L37,37.5z M37,33.4C36.2,33.2,37.2,33.1,37,33.4L37,33.4z M37.1,40.2C37,40.4,37.1,40.2,37.1,40.2L37.1,40.2z M37.1,34.2
	C37.2,33.8,37.5,34.2,37.1,34.2L37.1,34.2z M37.4,39.1C37.1,39.3,37.4,38.8,37.4,39.1L37.4,39.1z M37.3,38.5c0.1,0,0.1,0.1,0.1,0.2
	C37.3,38.7,37.2,38.5,37.3,38.5z M37.2,37.6C37.3,37.1,37.8,38,37.2,37.6L37.2,37.6z M37.6,36.7C37.7,36.4,37.6,37,37.6,36.7
	L37.6,36.7z M37.7,37.9C37.7,37.9,37.6,37.9,37.7,37.9c-0.1-0.1-0.1-0.1,0-0.1C37.8,37.9,37.8,37.9,37.7,37.9z M38.6,38.7
	C38.2,39.2,36.9,37.5,38.6,38.7L38.6,38.7z M38.7,28.3C38.8,28.1,38.9,28.8,38.7,28.3L38.7,28.3z M38.8,30.9
	C38.4,29.8,39.5,30.9,38.8,30.9L38.8,30.9z M39.2,34.2C38.9,34.4,38.5,34.3,39.2,34.2L39.2,34.2z M39.1,28.1
	C39.5,28.1,39.1,28.4,39.1,28.1L39.1,28.1z M39.3,32C39.8,32,39.4,32.3,39.3,32L39.3,32z M39.5,35.4C39.5,34.6,39.9,35.4,39.5,35.4
	L39.5,35.4z M39.9,36c0.1,0,0.1,0,0.1,0C40.1,36.3,39.2,36.9,39.9,36z M40,32.6C40,32.6,39.9,32.5,40,32.6
	C40,32.3,40.1,32.4,40,32.6c0.2-0.2,0.4-0.3,0.4-0.2C39.7,32.9,39.8,32.7,40,32.6z M40.4,31.8C40.7,31.5,40.3,32.2,40.4,31.8
	L40.4,31.8z M40.3,29.7C39.9,29.2,41,29.8,40.3,29.7L40.3,29.7z M40.7,33.5C40.5,33.7,40.6,33.5,40.7,33.5L40.7,33.5z M40.6,25.3
	C40.9,25.3,40.3,25.7,40.6,25.3L40.6,25.3z M40.8,28.1c0-0.5,0.6,0,0.6,0C41.3,28,40.6,29.2,40.8,28.1z M41.2,30
	C40.6,30.5,41,29.8,41.2,30L41.2,30z M40.8,28.7c0.1,0,0.1,0.2-0.1,0.2C40.8,28.8,40.8,28.7,40.8,28.7z M40.8,30.9
	C40.8,30.4,41.3,31.3,40.8,30.9L40.8,30.9z M40.9,32.4C40.7,32.6,41,32.1,40.9,32.4L40.9,32.4z M41,32c-0.1,0-0.2-0.1-0.1-0.2
	c0,0,0,0,0.1,0c0.1-0.1,0.4-0.2,0.1-0.1c-0.1,0-0.1,0.1-0.1,0.1C40.9,31.8,40.9,31.9,41,32z M41.2,32.6
	C40.9,32.8,41.1,32.2,41.2,32.6L41.2,32.6z M41.7,34C41.6,34.5,41.1,33.5,41.7,34L41.7,34z M41.2,33.3c0.1,0,0.5-0.4,0.2-0.4
	c0.4,0,0.1,0.4,0.6,0.4C41.9,33.3,41.4,33.9,41.2,33.3z M41.5,32.1c-0.2-0.3-0.3-0.8,0.5-0.3C41.8,31.9,41.6,32,41.5,32.1z
	 M42.3,26.4c-0.1-0.4-0.4,0.3-0.4-0.5C42.3,25.9,42.9,26.4,42.3,26.4z M42.7,25.6C42.8,26.2,41.9,25.4,42.7,25.6L42.7,25.6z
	 M42.7,20.3C42.6,20,43.1,20.3,42.7,20.3L42.7,20.3z M43,17.6C42.6,17.9,43,17.6,43,17.6L43,17.6z M42.7,28.2
	C42.7,28.1,42.9,27.9,42.7,28.2L42.7,28.2z M42.8,32.1c-0.1,0-0.1-0.1-0.1-0.2C42.8,31.9,42.9,32,42.8,32.1z M43,28.2
	C43,29,42.9,28.2,43,28.2L43,28.2z M42.8,20.5C43.4,20.5,42.7,20.7,42.8,20.5L42.8,20.5z M43.1,15.1C42.8,15.5,42.7,15.1,43.1,15.1
	L43.1,15.1z M43.3,26.1C43.2,26.4,43,26.1,43.3,26.1L43.3,26.1z M43.3,24.3C43,23.8,43.8,24.4,43.3,24.3L43.3,24.3z M43.5,22.7
	C43.6,22.8,43.3,22.9,43.5,22.7L43.5,22.7z M43.5,30C43.4,30.3,43.3,29.7,43.5,30L43.5,30z M43.4,28.3
	C43.4,28.1,43.7,28.4,43.4,28.3L43.4,28.3z M43.5,27.1C43.8,26.9,43.4,27.4,43.5,27.1L43.5,27.1z M43.5,21.7
	C43.9,21.4,43.5,22.2,43.5,21.7L43.5,21.7z M43.8,25.3C43.9,25.5,43.4,25.3,43.8,25.3L43.8,25.3z M43.9,28.3
	C43.8,28.7,43.8,28.3,43.9,28.3L43.9,28.3z M43.9,26.4C43.6,26.9,43.7,26.4,43.9,26.4L43.9,26.4z M43.9,23.9
	C44.1,24.1,43.8,23.8,43.9,23.9L43.9,23.9z M44.1,21.6C44.1,21.9,43.7,21.7,44.1,21.6L44.1,21.6z M44.4,23.8
	c0.5-0.1,0.1,0.4,0.9,0.5C45,24.8,43.2,23.8,44.4,23.8z M44.2,27.6C44.3,27,44.5,28.1,44.2,27.6L44.2,27.6z M44.6,28.2
	C44.4,29,43.6,28.2,44.6,28.2L44.6,28.2z M45.1,24.7C45.2,26.1,44.6,24.2,45.1,24.7L45.1,24.7z M45.3,25.5
	C45.6,25.7,44.7,25.8,45.3,25.5L45.3,25.5z"/>
</svg>
