<?xml version="1.0" encoding="utf-8"?>
<!-- Generator: Adobe Illustrator 21.0.0, SVG Export Plug-In . SVG Version: 6.00 Build 0)  -->
<svg version="1.1" id="Layer_1" xmlns="http://www.w3.org/2000/svg" xmlns:xlink="http://www.w3.org/1999/xlink" x="0px" y="0px"
	 viewBox="0 0 210 9" enable-background="new 0 0 210 9" xml:space="preserve">
<g>
	<defs>
		<rect id="SVGID_1_" x="-0.074" y="0.466" width="210.147" height="8.067"/>
	</defs>
	<clipPath id="SVGID_2_">
		<use xlink:href="#SVGID_1_"  overflow="visible"/>
	</clipPath>
	<path clip-path="url(#SVGID_2_)" d="M15.445,6.871c0.061,0.018,0.153,0.003,0.155,0.077C15.54,6.932,15.448,6.947,15.445,6.871"/>
	<path clip-path="url(#SVGID_2_)" d="M36.205,7.259C36.115,6.952,36.115,7.565,36.205,7.259"/>
	<path clip-path="url(#SVGID_2_)" d="M35.585,7.491C35.534,7.541,35.618,7.459,35.585,7.491"/>
	<path clip-path="url(#SVGID_2_)" d="M35.431,7.181c-0.095,0.034-0.16,0.099-0.156,0.232C35.441,7.45,35.423,7.303,35.431,7.181"/>
	<path clip-path="url(#SVGID_2_)" d="M33.339,7.413C33.288,7.464,33.372,7.381,33.339,7.413"/>
	<path clip-path="url(#SVGID_2_)" d="M23.424,7.104c-0.002-0.076-0.094-0.06-0.155-0.078C23.272,7.101,23.364,7.086,23.424,7.104"/>
	<path clip-path="url(#SVGID_2_)" d="M21.875,7.336C21.907,7.303,21.823,7.386,21.875,7.336"/>
	<path clip-path="url(#SVGID_2_)" d="M21.642,7.336C21.553,7.03,21.553,7.642,21.642,7.336"/>
	<path clip-path="url(#SVGID_2_)" d="M18.079,7.568C18.028,7.619,18.112,7.536,18.079,7.568"/>
	<path clip-path="url(#SVGID_2_)" d="M17.15,7.259C16.89,7.072,17.337,7.519,17.15,7.259"/>
	<path clip-path="url(#SVGID_2_)" d="M16.608,7.181C16.518,6.875,16.518,7.487,16.608,7.181"/>
	<path clip-path="url(#SVGID_2_)" d="M15.135,7.259C15.045,6.952,15.045,7.565,15.135,7.259"/>
	<path clip-path="url(#SVGID_2_)" d="M11.882,7.413C11.914,7.381,11.831,7.464,11.882,7.413"/>
</g>
<rect x="8.473" y="7.181" width="0.156" height="0.156"/>
<g>
	<defs>
		<rect id="SVGID_3_" x="-0.074" y="0.466" width="210.147" height="8.067"/>
	</defs>
	<clipPath id="SVGID_4_">
		<use xlink:href="#SVGID_3_"  overflow="visible"/>
	</clipPath>
	<path clip-path="url(#SVGID_4_)" d="M5.763,7.259c0.101-0.028,0.122-0.136,0.232-0.155C5.982,7.013,5.854,7.038,5.763,7.026V7.259z
		"/>
	<path clip-path="url(#SVGID_4_)" d="M2.897,7.026C2.929,6.994,2.846,7.077,2.897,7.026"/>
	<path clip-path="url(#SVGID_4_)" d="M1.211,7.198C1.262,7.147,1.179,7.23,1.211,7.198"/>
	<path clip-path="url(#SVGID_4_)" d="M0.856,7.431C0.946,7.737,0.946,7.125,0.856,7.431"/>
	<path clip-path="url(#SVGID_4_)" d="M0.004,7.431C0.115,7.413,0.032,7.2,0.159,7.199c0.014-0.067-0.03-0.074-0.077-0.078h-0.156
		C-0.013,7.19,0.01,7.296,0.004,7.431"/>
	<path clip-path="url(#SVGID_4_)" d="M84.227,7.198C84.278,7.147,84.195,7.23,84.227,7.198"/>
	<path clip-path="url(#SVGID_4_)" d="M83.872,7.431C83.962,7.737,83.962,7.125,83.872,7.431"/>
	<path clip-path="url(#SVGID_4_)" d="M83.02,7.431c0.111-0.018,0.028-0.231,0.155-0.232c0.014-0.067-0.03-0.074-0.077-0.078h-0.156
		C83.003,7.19,83.026,7.296,83.02,7.431"/>
	<path clip-path="url(#SVGID_4_)" d="M76.746,7.276C76.835,7.582,76.835,6.97,76.746,7.276"/>
	<path clip-path="url(#SVGID_4_)" d="M76.358,7.353C76.551,7.655,76.471,7.096,76.358,7.353"/>
	<path clip-path="url(#SVGID_4_)" d="M75.196,7.431C75.164,7.463,75.247,7.38,75.196,7.431"/>
	<path clip-path="url(#SVGID_4_)" d="M74.731,7.431C74.914,7.68,74.719,6.832,74.731,7.431"/>
	<path clip-path="url(#SVGID_4_)" d="M74.19,7.276C74.279,7.582,74.279,6.97,74.19,7.276"/>
	<path clip-path="url(#SVGID_4_)" d="M73.957,7.276C73.669,7.006,73.564,7.487,73.957,7.276"/>
	<path clip-path="url(#SVGID_4_)" d="M71.478,7.198C71.591,7.455,71.671,6.895,71.478,7.198"/>
	<path clip-path="url(#SVGID_4_)" d="M70.316,7.121C70.284,7.153,70.367,7.07,70.316,7.121"/>
	<path clip-path="url(#SVGID_4_)" d="M69.387,7.431C69.438,7.38,69.354,7.463,69.387,7.431"/>
	<path clip-path="url(#SVGID_4_)" d="M63.732,7.043C63.845,7.3,63.924,6.741,63.732,7.043"/>
	<path clip-path="url(#SVGID_4_)" d="M60.324,7.431c0.225-0.043-0.119-0.121-0.077-0.232C59.99,7.274,60.334,7.352,60.324,7.431"/>
	<path clip-path="url(#SVGID_4_)" d="M56.451,6.888C56.418,6.921,56.502,6.838,56.451,6.888"/>
	<path clip-path="url(#SVGID_4_)" d="M49.479,7.276C49.447,7.308,49.53,7.225,49.479,7.276"/>
	<path clip-path="url(#SVGID_4_)" d="M46.381,7.121C46.349,7.153,46.432,7.07,46.381,7.121"/>
	<path clip-path="url(#SVGID_4_)" d="M98.461,6.871c0.061,0.018,0.153,0.003,0.155,0.077C98.556,6.932,98.464,6.947,98.461,6.871"/>
	<path clip-path="url(#SVGID_4_)" d="M119.221,7.259C119.131,6.952,119.131,7.565,119.221,7.259"/>
	<path clip-path="url(#SVGID_4_)" d="M118.601,7.491C118.55,7.541,118.634,7.459,118.601,7.491"/>
	<path clip-path="url(#SVGID_4_)" d="M118.447,7.181c-0.095,0.034-0.16,0.099-0.156,0.232C118.457,7.45,118.439,7.303,118.447,7.181
		"/>
	<path clip-path="url(#SVGID_4_)" d="M116.355,7.413C116.304,7.464,116.388,7.381,116.355,7.413"/>
	<path clip-path="url(#SVGID_4_)" d="M106.44,7.104c-0.002-0.076-0.094-0.06-0.155-0.078C106.288,7.101,106.38,7.086,106.44,7.104"
		/>
	<path clip-path="url(#SVGID_4_)" d="M104.891,7.336C104.923,7.303,104.839,7.386,104.891,7.336"/>
	<path clip-path="url(#SVGID_4_)" d="M104.658,7.336C104.569,7.03,104.569,7.642,104.658,7.336"/>
	<path clip-path="url(#SVGID_4_)" d="M101.095,7.568C101.044,7.619,101.128,7.536,101.095,7.568"/>
	<path clip-path="url(#SVGID_4_)" d="M100.166,7.259C99.906,7.072,100.353,7.519,100.166,7.259"/>
	<path clip-path="url(#SVGID_4_)" d="M99.623,7.181C99.533,6.875,99.533,7.487,99.623,7.181"/>
	<path clip-path="url(#SVGID_4_)" d="M98.151,7.259C98.061,6.952,98.061,7.565,98.151,7.259"/>
	<path clip-path="url(#SVGID_4_)" d="M94.898,7.413C94.93,7.381,94.847,7.464,94.898,7.413"/>
</g>
<rect x="91.49" y="7.181" width="0.155" height="0.156"/>
<g>
	<defs>
		<rect id="SVGID_5_" x="-0.074" y="0.466" width="210.147" height="8.067"/>
	</defs>
	<clipPath id="SVGID_6_">
		<use xlink:href="#SVGID_5_"  overflow="visible"/>
	</clipPath>
	<path clip-path="url(#SVGID_6_)" d="M88.779,7.259c0.101-0.028,0.122-0.136,0.232-0.155c-0.013-0.091-0.141-0.066-0.232-0.078
		V7.259z"/>
	<path clip-path="url(#SVGID_6_)" d="M85.913,7.026C85.945,6.994,85.862,7.077,85.913,7.026"/>
	<path clip-path="url(#SVGID_6_)" d="M168.049,7.198C168.1,7.147,168.017,7.23,168.049,7.198"/>
	<path clip-path="url(#SVGID_6_)" d="M166.888,7.431C166.978,7.737,166.978,7.125,166.888,7.431"/>
	<path clip-path="url(#SVGID_6_)" d="M166.036,7.431c0.111-0.018,0.028-0.231,0.155-0.232c0.014-0.067-0.03-0.074-0.077-0.078
		h-0.156C166.019,7.19,166.042,7.296,166.036,7.431"/>
	<path clip-path="url(#SVGID_6_)" d="M159.762,7.276C159.851,7.582,159.851,6.97,159.762,7.276"/>
	<path clip-path="url(#SVGID_6_)" d="M159.374,7.353C159.567,7.655,159.487,7.096,159.374,7.353"/>
	<path clip-path="url(#SVGID_6_)" d="M158.212,7.431C158.18,7.463,158.263,7.38,158.212,7.431"/>
	<path clip-path="url(#SVGID_6_)" d="M157.747,7.431C157.93,7.68,157.735,6.832,157.747,7.431"/>
	<path clip-path="url(#SVGID_6_)" d="M157.206,7.276C157.295,7.582,157.295,6.97,157.206,7.276"/>
	<path clip-path="url(#SVGID_6_)" d="M156.973,7.276C156.685,7.006,156.58,7.487,156.973,7.276"/>
	<path clip-path="url(#SVGID_6_)" d="M154.494,7.198C154.607,7.455,154.687,6.895,154.494,7.198"/>
	<path clip-path="url(#SVGID_6_)" d="M153.332,7.121C153.3,7.153,153.383,7.07,153.332,7.121"/>
	<path clip-path="url(#SVGID_6_)" d="M152.403,7.431C152.454,7.38,152.37,7.463,152.403,7.431"/>
	<path clip-path="url(#SVGID_6_)" d="M146.748,7.043C146.861,7.3,146.94,6.741,146.748,7.043"/>
	<path clip-path="url(#SVGID_6_)" d="M143.339,7.431c0.225-0.043-0.119-0.121-0.077-0.232
		C143.005,7.274,143.349,7.352,143.339,7.431"/>
	<path clip-path="url(#SVGID_6_)" d="M139.466,6.888C139.433,6.921,139.517,6.838,139.466,6.888"/>
	<path clip-path="url(#SVGID_6_)" d="M132.495,7.276C132.463,7.308,132.546,7.225,132.495,7.276"/>
	<path clip-path="url(#SVGID_6_)" d="M129.396,7.121C129.364,7.153,129.447,7.07,129.396,7.121"/>
	<path clip-path="url(#SVGID_6_)" d="M181.477,6.871c0.061,0.018,0.153,0.003,0.155,0.077C181.572,6.932,181.48,6.947,181.477,6.871
		"/>
	<path clip-path="url(#SVGID_6_)" d="M202.237,7.259C202.147,6.952,202.147,7.565,202.237,7.259"/>
	<path clip-path="url(#SVGID_6_)" d="M201.617,7.491C201.566,7.541,201.65,7.459,201.617,7.491"/>
	<path clip-path="url(#SVGID_6_)" d="M201.462,7.181c-0.095,0.034-0.16,0.099-0.156,0.232C201.472,7.45,201.454,7.303,201.462,7.181
		"/>
	<path clip-path="url(#SVGID_6_)" d="M199.371,7.413C199.32,7.464,199.404,7.381,199.371,7.413"/>
	<path clip-path="url(#SVGID_6_)" d="M189.455,7.104c-0.002-0.076-0.094-0.06-0.155-0.078
		C189.303,7.101,189.395,7.086,189.455,7.104"/>
	<path clip-path="url(#SVGID_6_)" d="M187.907,7.336C187.939,7.303,187.855,7.386,187.907,7.336"/>
	<path clip-path="url(#SVGID_6_)" d="M187.674,7.336C187.585,7.03,187.585,7.642,187.674,7.336"/>
	<path clip-path="url(#SVGID_6_)" d="M184.111,7.568C184.06,7.619,184.144,7.536,184.111,7.568"/>
	<path clip-path="url(#SVGID_6_)" d="M183.182,7.259C182.922,7.072,183.369,7.519,183.182,7.259"/>
	<path clip-path="url(#SVGID_6_)" d="M182.639,7.181C182.549,6.875,182.549,7.487,182.639,7.181"/>
	<path clip-path="url(#SVGID_6_)" d="M7.312,8.42C7.261,8.471,7.344,8.388,7.312,8.42"/>
	<path clip-path="url(#SVGID_6_)" d="M37.832,8.11c-0.212-0.056-0.156,0.154-0.31,0.155C37.57,8.454,37.913,8.306,37.832,8.11
		 M6.227,7.181c-0.26-0.08-0.121,0.241-0.154,0.387C6.314,7.468,6.112,7.408,6.227,7.181 M22.416,7.413
		c0.025-0.18-0.012-0.297-0.076-0.387C22.213,7.012,22.183,7.533,22.416,7.413 M21.023,7.413c0.089-0.065,0.207-0.102,0.387-0.077
		C21.403,7.105,20.948,7.128,21.023,7.413 M41.705,8.265c-0.595,0.47-1.447,0.087-2.402,0.233c-0.012-0.092,0.013-0.22-0.077-0.233
		c0.078,0.424-0.904,0.282-0.853,0c-0.241,0.322-1.358,0.304-1.626,0.078c-0.659,0.509-1.562-0.29-2.247,0.077
		c-0.037-0.091-0.082-0.176-0.154-0.232c-0.011,0.144-0.051,0.259-0.155,0.31c-0.187-0.552-1.234,0.104-1.627-0.31
		c0.191,0.12,0.228-0.263,0.078-0.233c-0.32,0.125-0.61,0.636-0.93,0.31c0.115,0.003-0.014-0.389-0.155-0.387
		c-0.222,0.12,0.162,0.361-0.078,0.465c-0.115-0.256-0.189,0.161-0.386,0.077c-0.133-0.074-0.157-0.257-0.31-0.31
		c-0.663,0.682-1.728-0.086-2.479,0.388c-0.116-0.091-0.091-0.322-0.311-0.31C27.8,8.175,27.752,8.307,27.684,8.42
		c-0.729-0.482-1.798,0.118-2.556-0.31c0.003,0.107-0.036,0.17-0.078,0.233c-0.299-0.012-0.357-0.262-0.697-0.233
		c0.064,0.219-0.108,0.201-0.077,0.388c-0.46-0.306-1.384,0.214-1.395-0.388c-0.28,0.256-0.676,0.433-0.929,0.155
		c0.03,0.314-0.483,0.086-0.697,0.155c-0.089-0.244,0.122-0.188,0.155-0.31c-0.202,0.057-0.455,0.062-0.543,0.233
		C20.636,8.031,20.15,8.551,19.86,8.11c-0.123,0.206-0.211,0.139-0.464,0.31c-0.224-0.342-0.971-0.142-1.394,0
		c0.028-0.26-0.337-0.129-0.466-0.232C17.17,8.62,16.824,8.191,16.375,8.11c-0.214-0.033-0.073,0.289-0.233,0.31
		c-0.505-0.309-1.162-0.045-1.549-0.387C14.31,8.519,13.08,8.579,12.502,8.11c-1.08,0.471-2.515,0.183-3.642,0.31
		C8.823,8.329,8.778,8.244,8.706,8.188c-0.076,0.419-1.295,0.295-1.394,0C6.32,8.556,4.959,8.049,3.826,8.42
		c-0.19-0.103,0.14-0.234-0.078-0.31C3.587,8.154,3.584,8.231,3.67,8.343C3.43,8.351,3.45,8.099,3.129,8.188
		C3.15,8.364,3.11,8.479,2.974,8.498c-0.14-0.067-0.243-0.17-0.31-0.31C2.638,8.215,2.503,8.235,2.462,8.255
		c-0.06-0.452-0.036-0.902-0.109-1.351c0.489,0.04,0.922,0.086,1.24,0.122c1.247-0.16,2.651-0.072,4.028-0.155
		c0.19,0.103-0.085,0.288,0.078,0.31c0.451-0.163,1.66-0.475,2.014,0c0.051-0.419,0.721-0.257,0.93-0.31
		c-0.076,0.307,0.223,0.241,0.386,0.31c0.103-0.368,0.912-0.393,1.163-0.155c0.696-0.087,1.897-0.337,2.556,0.155
		c0.433-0.065,0.855-0.277,1.394-0.155c0.035,0.17-0.206,0.382-0.155,0.465c0.137-0.16,0.24-0.068,0.31-0.155
		c-0.105-0.129,0.104-0.412,0.388-0.388c0.136,0.07,0.128,0.285,0.309,0.31c-0.19-0.314,0.501-0.238,0.542-0.31
		c-0.059,0.017-0.089,0.065-0.077,0.155c0.512-0.045,1.211-0.324,2.091-0.232c0.031,0.133-0.115,0.199,0,0.232
		c0.146-0.335,0.984-0.295,1.395-0.077c0.082-0.482,0.604,0.172,0.619,0c0.001-0.078-0.062-0.092-0.077-0.155
		c0.851,0.084,2.618-0.166,2.789,0.232c0.165-0.021,0.633-0.487,0.852,0c0.214-0.284,0.473-0.136,0.775-0.232
		c0.083,0.197-0.334,0.271-0.078,0.387c0.121-0.111,0.269-0.195,0.31-0.387c0.592,0.104,1.633-0.239,1.858,0.232
		c-0.041-0.391,1.659-0.295,1.24-0.077c0.338-0.164,0.444-0.14,0.775,0c0-0.078-0.063-0.092-0.078-0.155
		c1.616,0.067,3.037-0.191,4.029,0.387c0.046-0.247-0.146-0.239,0-0.387c0.81,0.199,1.444-0.161,2.014,0.387
		c0.149-0.031,0.007-0.354,0.309-0.232c0.274,0.008-0.164,0.256,0.077,0.232c0.249,0.068,0.243-0.119,0.311-0.232
		c0.256,0.105,0.61,0.113,0.697,0.387v-0.31c0.709,0.107,1.245,0.449,1.472-0.155c0.247,0.053,0.052,0.352,0.154,0.388
		c0.334,0.074,0.215-0.302,0.387-0.388c0.591,0.237,1.365-0.177,1.473,0.31c-0.076-0.307,0.223-0.24,0.387-0.31
		c-0.139,0.163-0.25,0.548,0.077,0.62c0.017-0.283,0.106-0.297,0-0.542c0.477,0.21,0.523,0.016,0.929-0.155
		c0.077,0.321,0.183,0.44,0.31,0.542c0.053-0.279,0.203-0.403-0.076-0.542c0.569,0.041,0.727,0.019,1.317,0
		c-0.09,0.159,0.12,0.369,0.154,0.155c-0.043,0-0.088-0.063,0-0.078c0.222,0.376-0.053,1.098,0.077,1.395
		C43.545,8.564,41.833,8.655,41.705,8.265"/>
	<path clip-path="url(#SVGID_6_)" d="M33.339,7.956c-0.003-0.076-0.095-0.06-0.155-0.077C33.186,7.954,33.279,7.939,33.339,7.956"/>
	<path clip-path="url(#SVGID_6_)" d="M32.487,7.956c-0.002-0.076-0.094-0.06-0.155-0.077C32.334,7.954,32.427,7.939,32.487,7.956"/>
	<path clip-path="url(#SVGID_6_)" d="M32.022,8.265C31.971,8.316,32.055,8.233,32.022,8.265"/>
	<path clip-path="url(#SVGID_6_)" d="M29.156,8.265C29.105,8.316,29.189,8.233,29.156,8.265"/>
	<path clip-path="url(#SVGID_6_)" d="M27.685,7.568V7.413c-0.166-0.036-0.148,0.11-0.156,0.232
		C27.593,7.631,27.607,7.568,27.685,7.568"/>
	<path clip-path="url(#SVGID_6_)" d="M26.213,7.568C26.123,7.262,26.123,7.874,26.213,7.568"/>
	<path clip-path="url(#SVGID_6_)" d="M23.269,8.188C23.009,8.001,23.456,8.448,23.269,8.188"/>
	<path clip-path="url(#SVGID_6_)" d="M22.649,7.801C22.599,7.852,22.682,7.769,22.649,7.801"/>
	<path clip-path="url(#SVGID_6_)" d="M21.798,8.188C21.708,7.882,21.708,8.494,21.798,8.188"/>
	<path clip-path="url(#SVGID_6_)" d="M21.488,7.956C21.437,8.006,21.521,7.924,21.488,7.956"/>
	<path clip-path="url(#SVGID_6_)" d="M20.403,7.956C20.352,8.006,20.436,7.924,20.403,7.956"/>
	<path clip-path="url(#SVGID_6_)" d="M20.403,7.801C20.352,7.852,20.436,7.769,20.403,7.801"/>
	<path clip-path="url(#SVGID_6_)" d="M18.312,7.801c-0.019-0.098-0.154-0.078-0.155,0C18.192,7.914,18.225,7.793,18.312,7.801"/>
	<path clip-path="url(#SVGID_6_)" d="M16.608,7.956C16.518,7.65,16.518,8.262,16.608,7.956"/>
	<path clip-path="url(#SVGID_6_)" d="M16.452,7.801C16.363,7.495,16.363,8.107,16.452,7.801"/>
	<path clip-path="url(#SVGID_6_)" d="M15.601,7.646C15.511,7.34,15.511,7.953,15.601,7.646"/>
	<path clip-path="url(#SVGID_6_)" d="M0.902,8.128c-0.003-0.075-0.095-0.06-0.155-0.077C0.749,8.126,0.842,8.111,0.902,8.128"/>
	<path clip-path="url(#SVGID_6_)" d="M66.443,7.508v0.155h0.31C66.83,7.43,66.58,7.525,66.443,7.508 M57.767,7.818
		c0.07,0.259,0.174,0.067,0.31,0C58.026,7.586,57.912,7.891,57.767,7.818 M68.07,7.508c-0.01,0.139,0.095,0.163,0.077,0.31
		C68.372,7.804,68.334,7.45,68.07,7.508 M59.162,7.043c0.199-0.491,0.743-0.051,1.007,0.078c0.11-0.266,0.616,0.16,0.542-0.233
		c0.295,0.012,0.483,0.008,0.542,0.078c-0.088,0.115-0.103,0.323,0.077,0.387c0.298-0.359,0.642-0.501,1.085-0.232
		c0.71-0.262,1.177-0.39,1.859-0.233c-0.169,0.012-0.166,0.196-0.155,0.388c0.116-0.014,0.286,0.027,0.31-0.077
		c-0.068-0.138-0.245-0.227-0.077-0.388c0.394-0.033,0.134,0.588,0.541,0.542c0-0.183,0.134-0.228,0.078-0.465
		c0.674-0.026,0.932,0.098,1.549,0c0.101,0.193-0.227,0.322,0,0.388c0.246-0.363,1.159-0.237,1.162-0.388
		C67.9,6.98,67.723,7.467,68.07,7.431c0.205-0.468,0.745-0.499,1.239-0.31c0.317-0.362,0.98-0.246,1.24-0.078
		c0.386-0.389,1.226-0.022,1.549,0.156c0.018-0.214,0.228-0.237,0.387-0.311c0.096,0.162,0.225,0.291,0.388,0.388
		c0.367-0.331,1.384-0.228,1.704-0.077V6.966c1.953,0.498,3.686-0.487,5.499,0.31c0.004-0.1,0.1-0.108,0.078-0.233
		c0.328,0.037,0.762,0.371,1.006,0.233c-0.133,0.004-0.198-0.06-0.232-0.155c0.301,0.041,0.319-0.198,0.542-0.233
		c0.063,0.196,0.319,0.198,0.466,0.311c0.537-0.365,1.869-0.325,2.401-0.078c0.065-0.115,0.195-0.166,0.387-0.155
		c0.012,0.091-0.013,0.22,0.077,0.233c0.155-0.102,0.695-0.387,0.853,0c0.12-0.047,0.25-0.072,0.377-0.105
		c-0.111,0.465-0.013,0.936-0.087,1.41c-0.009,0.005-0.204,0.005-0.213,0.011c-0.087-0.443-0.522-0.057-0.774-0.31
		c-0.788,0.5-1.754-0.05-2.944,0.233c0.068-0.249-0.119-0.243-0.233-0.31c0.007,0.135-0.017,0.241-0.077,0.31
		c-0.62-0.188-1.684,0.169-2.246-0.233c-0.23,0.416-1.16,0.366-1.627,0.078c-0.054,0.153-0.207,0.207-0.387,0.232
		c-0.027-0.383-0.204,0.064-0.388,0c-0.083-0.073-0.024-0.286-0.232-0.232c0.004,0.133-0.06,0.198-0.155,0.232
		c-1.045-0.267-2.305,0.244-3.331-0.232c-0.725,0.098-1.095,0.142-2.247,0.232c-0.013-0.116,0.029-0.286-0.076-0.31
		c-0.115,0.015-0.071,0.187-0.078,0.31c-0.32-0.253-0.551-0.007-1.007,0c-0.084-0.198,0.333-0.271,0.078-0.387
		c-0.026,0.36-0.397,0.145-0.388,0.387c-0.292-0.273-0.323,0.132-0.62-0.077c0.091-0.012,0.22,0.013,0.233-0.078
		c-0.838,0.12-1.788-0.301-2.634,0.155c-0.046-0.138,0.227-0.322,0-0.387c-0.234,0.245-0.571,0.435-0.93,0.077
		c-0.099,0.133-0.16,0.305-0.387,0.31c-1.628-0.267-3.905,0.249-5.034-0.232c0.088,0.159-0.122,0.369-0.156,0.155
		c0.157,0.023-0.015-0.224-0.077-0.233c-0.127,0.383-0.553-0.263-0.775,0c0.094,0.009,0.183,0.023,0.155,0.155
		c-0.691-0.363-1.005-0.052-1.627,0.155c-0.247-0.313-0.625-0.022-0.774-0.387c-0.025,0.105-0.111,0.148-0.078,0.31
		c-0.362,0.026-0.636-0.035-0.775-0.233c0.029,0.261-0.335,0.129-0.464,0.233c-0.428-0.271-1.072-0.169-1.782-0.078
		c-0.181-0.443-0.631,0.084-1.007-0.31c-0.045,0.405-0.581,0.188-0.774,0.078c-0.62,0.348-1.138,0.381-1.705,0.077
		c-0.107,0.048-0.011,0.298-0.154,0.31c-0.129-0.154,0.006-0.098,0-0.31c-0.308-0.142-0.321,0.213-0.465-0.155
		c-0.162,0.743-0.953,0.403-1.317,0.233c-0.529,0.453-2.738,0.134-4.26,0.232c-0.135-0.231-0.131-0.874,0.077-1.007
		c-0.287-0.118,0.164-0.341-0.155-0.465c0.019-0.136,0.133-0.176,0.309-0.155c0.149,0.111,0.223,0.294,0.466,0.311
		c-0.012-0.194,0.122-0.241,0.154-0.388c0.34-0.055,0.528,0.04,0.621,0.232c0.297-0.443,0.815,0.179,1.006-0.077
		c-0.043,0.38,0.595,0.418,0.62,0.077c0.007,0.122-0.01,0.269,0.155,0.233c-0.004-0.1-0.099-0.108-0.078-0.233
		c0.417,0.09,1.116-0.267,1.239,0.156c0.24-0.405,0.618,0.053,0.853-0.233c0.072,0.341,0.2,0.143,0.388,0.077
		c0.217-0.033-0.195,0.289,0.077,0.31c0.253-0.896,1.045-0.244,1.549-0.542c0.159,0.021,0.019,0.343,0.232,0.31
		c0.027-0.206,0.204-0.262,0.388-0.31c0.012,0.091-0.014,0.22,0.076,0.232c0.045-0.111,0.122-0.189,0.234-0.232
		c0.115,0.09,0.189,0.223,0.387,0.232c0.553-0.448,1.088-0.006,1.781-0.155c0.031,0.134-0.115,0.199,0,0.233
		c0.065-0.276,0.353,0.113,0.31-0.31c0.549-0.067,0.43,0.331,0.62,0.465c-0.075-0.381,0.376-0.116,0.155-0.465
		c0.736,0.04,1.559-0.053,1.937,0.155C57.902,6.619,58.874,6.877,59.162,7.043"/>
	<path clip-path="url(#SVGID_6_)" d="M84.725,8.128c-0.003-0.075-0.095-0.06-0.155-0.077C84.572,8.126,84.665,8.111,84.725,8.128"/>
	<path clip-path="url(#SVGID_6_)" d="M76.591,8.05c0.085-0.019,0.053-0.154,0.155-0.155C76.713,7.681,76.502,7.891,76.591,8.05"/>
	<path clip-path="url(#SVGID_6_)" d="M75.662,8.128C75.855,8.43,75.774,7.871,75.662,8.128"/>
	<path clip-path="url(#SVGID_6_)" d="M75.584,7.74C75.635,7.69,75.551,7.772,75.584,7.74"/>
	<path clip-path="url(#SVGID_6_)" d="M72.175,8.36C72.173,8.285,72.08,8.3,72.02,8.283C72.022,8.358,72.115,8.343,72.175,8.36"/>
	<path clip-path="url(#SVGID_6_)" d="M71.633,7.663C71.601,7.695,71.684,7.612,71.633,7.663"/>
</g>
<rect x="60.634" y="7.818" width="0.154" height="0.155"/>
<g>
	<defs>
		<rect id="SVGID_7_" x="-0.074" y="0.466" width="210.147" height="8.067"/>
	</defs>
	<clipPath id="SVGID_8_">
		<use xlink:href="#SVGID_7_"  overflow="visible"/>
	</clipPath>
	<path clip-path="url(#SVGID_8_)" d="M59.627,7.508h0.155c-0.022,0.126,0.073,0.134,0.077,0.233
		c0.063-0.015,0.077-0.078,0.155-0.078V7.508h-0.232c-0.014-0.065,0.03-0.073,0.077-0.077C59.89,7.28,59.506,7.318,59.627,7.508"/>
	<path clip-path="url(#SVGID_8_)" d="M54.591,8.128c-0.002-0.075-0.095-0.06-0.155-0.077C54.438,8.126,54.531,8.111,54.591,8.128"/>
	<path clip-path="url(#SVGID_8_)" d="M51.261,8.205c-0.003-0.075-0.095-0.06-0.155-0.077C51.108,8.203,51.201,8.188,51.261,8.205"/>
	<path clip-path="url(#SVGID_8_)" d="M49.169,7.895C49.137,7.927,49.22,7.844,49.169,7.895"/>
	<path clip-path="url(#SVGID_8_)" d="M90.328,8.42C90.277,8.471,90.36,8.388,90.328,8.42"/>
	<path clip-path="url(#SVGID_8_)" d="M120.848,8.11c-0.212-0.056-0.156,0.154-0.31,0.155C120.586,8.454,120.929,8.306,120.848,8.11
		 M89.243,7.181c-0.26-0.08-0.121,0.241-0.154,0.387C89.33,7.468,89.128,7.408,89.243,7.181 M105.432,7.413
		c0.025-0.18-0.012-0.297-0.076-0.387C105.229,7.012,105.199,7.533,105.432,7.413 M104.039,7.413
		c0.089-0.065,0.207-0.102,0.387-0.077C104.419,7.105,103.964,7.128,104.039,7.413 M124.721,8.265
		c-0.595,0.47-1.447,0.087-2.402,0.233c-0.012-0.092,0.013-0.22-0.077-0.233c0.078,0.424-0.904,0.282-0.853,0
		c-0.241,0.322-1.358,0.304-1.626,0.078c-0.659,0.509-1.562-0.29-2.247,0.077c-0.037-0.091-0.082-0.176-0.154-0.232
		c-0.011,0.144-0.051,0.259-0.155,0.31c-0.187-0.552-1.234,0.104-1.627-0.31c0.191,0.12,0.228-0.263,0.078-0.233
		c-0.32,0.125-0.61,0.636-0.93,0.31c0.115,0.003-0.014-0.389-0.155-0.387c-0.222,0.12,0.162,0.361-0.078,0.465
		c-0.115-0.256-0.189,0.161-0.386,0.077c-0.133-0.074-0.157-0.257-0.31-0.31c-0.663,0.682-1.728-0.086-2.479,0.388
		c-0.116-0.091-0.091-0.322-0.311-0.31c-0.193-0.013-0.241,0.119-0.309,0.232c-0.729-0.482-1.798,0.118-2.556-0.31
		c0.003,0.107-0.036,0.17-0.078,0.233c-0.299-0.012-0.357-0.262-0.697-0.233c0.064,0.219-0.108,0.201-0.077,0.388
		c-0.46-0.306-1.384,0.214-1.395-0.388c-0.28,0.256-0.676,0.433-0.929,0.155c0.03,0.314-0.483,0.086-0.697,0.155
		c-0.089-0.244,0.122-0.188,0.155-0.31c-0.202,0.057-0.455,0.062-0.543,0.233c-0.231-0.312-0.717,0.208-1.007-0.233
		c-0.123,0.206-0.211,0.139-0.464,0.31c-0.224-0.342-0.971-0.142-1.394,0c0.028-0.26-0.337-0.129-0.466-0.232
		c-0.366,0.432-0.712,0.003-1.161-0.078c-0.214-0.033-0.073,0.289-0.233,0.31c-0.505-0.309-1.162-0.045-1.549-0.387
		c-0.283,0.486-1.513,0.546-2.091,0.077c-1.08,0.471-2.515,0.183-3.642,0.31c-0.037-0.091-0.082-0.176-0.154-0.232
		c-0.076,0.419-1.295,0.295-1.394,0c-0.992,0.368-2.353-0.139-3.486,0.232c-0.19-0.103,0.14-0.234-0.078-0.31
		c-0.161,0.044-0.164,0.121-0.078,0.233c-0.24,0.008-0.22-0.244-0.541-0.155c0.021,0.176-0.019,0.291-0.155,0.31
		c-0.14-0.067-0.243-0.17-0.31-0.31c-0.026,0.027-0.161,0.047-0.202,0.067c-0.06-0.452-0.036-0.902-0.109-1.351
		c0.489,0.04,0.922,0.086,1.24,0.122c1.247-0.16,2.651-0.072,4.028-0.155c0.19,0.103-0.085,0.288,0.078,0.31
		c0.451-0.163,1.66-0.475,2.014,0c0.051-0.419,0.721-0.257,0.93-0.31c-0.076,0.307,0.223,0.241,0.386,0.31
		c0.103-0.368,0.912-0.393,1.163-0.155c0.696-0.087,1.897-0.337,2.556,0.155c0.434-0.065,0.855-0.277,1.394-0.155
		c0.035,0.17-0.206,0.382-0.155,0.465c0.137-0.16,0.24-0.068,0.31-0.155c-0.105-0.129,0.104-0.412,0.388-0.388
		c0.136,0.07,0.128,0.285,0.309,0.31c-0.19-0.314,0.501-0.238,0.542-0.31c-0.059,0.017-0.089,0.065-0.077,0.155
		c0.512-0.045,1.211-0.324,2.091-0.232c0.031,0.133-0.115,0.199,0,0.232c0.146-0.335,0.984-0.295,1.395-0.077
		c0.082-0.482,0.604,0.172,0.619,0c0.001-0.078-0.062-0.092-0.077-0.155c0.851,0.084,2.618-0.166,2.789,0.232
		c0.165-0.021,0.633-0.487,0.852,0c0.214-0.284,0.473-0.136,0.775-0.232c0.083,0.197-0.334,0.271-0.078,0.387
		c0.121-0.111,0.269-0.195,0.31-0.387c0.592,0.104,1.633-0.239,1.858,0.232c-0.041-0.391,1.659-0.295,1.24-0.077
		c0.338-0.164,0.444-0.14,0.775,0c0-0.078-0.063-0.092-0.078-0.155c1.616,0.067,3.037-0.191,4.029,0.387
		c0.046-0.247-0.146-0.239,0-0.387c0.81,0.199,1.444-0.161,2.014,0.387c0.149-0.031,0.007-0.354,0.309-0.232
		c0.274,0.008-0.164,0.256,0.077,0.232c0.249,0.068,0.243-0.119,0.311-0.232c0.256,0.105,0.61,0.113,0.697,0.387v-0.31
		c0.709,0.107,1.245,0.449,1.472-0.155c0.247,0.053,0.052,0.352,0.154,0.388c0.334,0.074,0.215-0.302,0.387-0.388
		c0.591,0.237,1.365-0.177,1.473,0.31c-0.076-0.307,0.223-0.24,0.387-0.31c-0.139,0.163-0.25,0.548,0.077,0.62
		c0.017-0.283,0.106-0.297,0-0.542c0.477,0.21,0.523,0.016,0.929-0.155c0.077,0.321,0.183,0.44,0.31,0.542
		c0.053-0.279,0.203-0.403-0.076-0.542c0.569,0.041,0.727,0.019,1.317,0c-0.09,0.159,0.12,0.369,0.154,0.155
		c-0.043,0-0.088-0.063,0-0.078c0.222,0.376-0.053,1.098,0.077,1.395C126.561,8.564,124.849,8.655,124.721,8.265"/>
	<path clip-path="url(#SVGID_8_)" d="M116.355,7.956c-0.003-0.076-0.095-0.06-0.155-0.077
		C116.202,7.954,116.295,7.939,116.355,7.956"/>
	<path clip-path="url(#SVGID_8_)" d="M115.503,7.956c-0.002-0.076-0.094-0.06-0.155-0.077C115.35,7.954,115.443,7.939,115.503,7.956
		"/>
	<path clip-path="url(#SVGID_8_)" d="M115.038,8.265C114.987,8.316,115.071,8.233,115.038,8.265"/>
	<path clip-path="url(#SVGID_8_)" d="M112.172,8.265C112.121,8.316,112.205,8.233,112.172,8.265"/>
	<path clip-path="url(#SVGID_8_)" d="M110.7,7.568V7.413c-0.166-0.036-0.148,0.11-0.156,0.232
		C110.608,7.631,110.622,7.568,110.7,7.568"/>
	<path clip-path="url(#SVGID_8_)" d="M109.229,7.568C109.139,7.262,109.139,7.874,109.229,7.568"/>
	<path clip-path="url(#SVGID_8_)" d="M106.285,8.188C106.025,8.001,106.472,8.448,106.285,8.188"/>
	<path clip-path="url(#SVGID_8_)" d="M105.665,7.801C105.615,7.852,105.698,7.769,105.665,7.801"/>
	<path clip-path="url(#SVGID_8_)" d="M104.814,8.188C104.724,7.882,104.724,8.494,104.814,8.188"/>
	<path clip-path="url(#SVGID_8_)" d="M104.504,7.956C104.452,8.006,104.536,7.924,104.504,7.956"/>
	<path clip-path="url(#SVGID_8_)" d="M103.419,7.956C103.368,8.006,103.452,7.924,103.419,7.956"/>
	<path clip-path="url(#SVGID_8_)" d="M103.419,7.801C103.368,7.852,103.452,7.769,103.419,7.801"/>
	<path clip-path="url(#SVGID_8_)" d="M101.327,7.801c-0.019-0.098-0.154-0.078-0.155,0C101.207,7.914,101.24,7.793,101.327,7.801"/>
	<path clip-path="url(#SVGID_8_)" d="M99.623,7.956C99.533,7.65,99.533,8.262,99.623,7.956"/>
	<path clip-path="url(#SVGID_8_)" d="M99.468,7.801C99.379,7.495,99.379,8.107,99.468,7.801"/>
	<path clip-path="url(#SVGID_8_)" d="M98.617,7.646C98.527,7.34,98.527,7.953,98.617,7.646"/>
	<path clip-path="url(#SVGID_8_)" d="M149.459,7.508v0.155h0.31C149.846,7.43,149.596,7.525,149.459,7.508 M140.783,7.818
		c0.07,0.259,0.174,0.067,0.31,0C141.042,7.586,140.928,7.891,140.783,7.818 M151.086,7.508c-0.01,0.139,0.095,0.163,0.077,0.31
		C151.388,7.804,151.35,7.45,151.086,7.508 M142.178,7.043c0.199-0.491,0.743-0.051,1.007,0.078c0.11-0.266,0.616,0.16,0.542-0.233
		c0.295,0.012,0.483,0.008,0.542,0.078c-0.088,0.115-0.103,0.323,0.077,0.387c0.298-0.359,0.642-0.501,1.085-0.232
		c0.71-0.262,1.177-0.39,1.859-0.233c-0.169,0.012-0.166,0.196-0.155,0.388c0.116-0.014,0.286,0.027,0.31-0.077
		c-0.068-0.138-0.245-0.227-0.077-0.388c0.394-0.033,0.134,0.588,0.541,0.542c0-0.183,0.134-0.228,0.078-0.465
		c0.674-0.026,0.932,0.098,1.549,0c0.101,0.193-0.227,0.322,0,0.388c0.246-0.363,1.159-0.237,1.162-0.388
		c0.218,0.092,0.041,0.579,0.388,0.543c0.205-0.468,0.745-0.499,1.239-0.31c0.317-0.362,0.98-0.246,1.24-0.078
		c0.386-0.389,1.226-0.022,1.549,0.156c0.018-0.214,0.228-0.237,0.387-0.311c0.096,0.162,0.225,0.291,0.388,0.388
		c0.367-0.331,1.384-0.228,1.704-0.077V6.966c1.953,0.498,3.686-0.487,5.499,0.31c0.004-0.1,0.1-0.108,0.078-0.233
		c0.328,0.037,0.762,0.371,1.006,0.233c-0.133,0.004-0.198-0.06-0.232-0.155c0.301,0.041,0.319-0.198,0.542-0.233
		c0.063,0.196,0.319,0.198,0.466,0.311c0.537-0.365,1.869-0.325,2.401-0.078c0.065-0.115,0.195-0.166,0.387-0.155
		c0.012,0.091-0.013,0.22,0.077,0.233c0.155-0.102,0.695-0.387,0.853,0c0.12-0.047,0.25-0.072,0.377-0.105
		c-0.111,0.465-0.013,0.936-0.087,1.41c-0.009,0.005-0.204,0.005-0.213,0.011c-0.087-0.443-0.522-0.057-0.774-0.31
		c-0.788,0.5-1.754-0.05-2.944,0.233c0.068-0.249-0.119-0.243-0.233-0.31c0.007,0.135-0.017,0.241-0.077,0.31
		c-0.62-0.188-1.684,0.169-2.246-0.233c-0.23,0.416-1.16,0.366-1.627,0.078c-0.054,0.153-0.207,0.207-0.387,0.232
		c-0.027-0.383-0.204,0.064-0.388,0c-0.083-0.073-0.024-0.286-0.232-0.232c0.004,0.133-0.06,0.198-0.155,0.232
		c-1.045-0.267-2.305,0.244-3.331-0.232c-0.725,0.098-1.095,0.142-2.247,0.232c-0.013-0.116,0.029-0.286-0.076-0.31
		c-0.115,0.015-0.071,0.187-0.078,0.31c-0.32-0.253-0.551-0.007-1.007,0c-0.084-0.198,0.333-0.271,0.078-0.387
		c-0.026,0.36-0.397,0.145-0.388,0.387c-0.292-0.273-0.323,0.132-0.62-0.077c0.091-0.012,0.22,0.013,0.233-0.078
		c-0.838,0.12-1.788-0.301-2.634,0.155c-0.046-0.138,0.227-0.322,0-0.387c-0.234,0.245-0.571,0.435-0.93,0.077
		c-0.099,0.133-0.16,0.305-0.387,0.31c-1.628-0.267-3.905,0.249-5.034-0.232c0.088,0.159-0.122,0.369-0.156,0.155
		c0.157,0.023-0.015-0.224-0.077-0.233c-0.127,0.383-0.553-0.263-0.775,0c0.094,0.009,0.183,0.023,0.155,0.155
		c-0.691-0.363-1.005-0.052-1.627,0.155c-0.247-0.313-0.625-0.022-0.774-0.387c-0.025,0.105-0.111,0.148-0.078,0.31
		c-0.362,0.026-0.636-0.035-0.775-0.233c0.029,0.261-0.335,0.129-0.464,0.233c-0.428-0.271-1.072-0.169-1.782-0.078
		c-0.181-0.443-0.631,0.084-1.007-0.31c-0.045,0.405-0.581,0.188-0.774,0.078c-0.62,0.348-1.138,0.381-1.705,0.077
		c-0.107,0.048-0.011,0.298-0.154,0.31c-0.129-0.154,0.006-0.098,0-0.31c-0.308-0.142-0.321,0.213-0.465-0.155
		c-0.162,0.743-0.953,0.403-1.317,0.233c-0.528,0.453-2.738,0.134-4.26,0.232c-0.135-0.231-0.131-0.874,0.077-1.007
		c-0.287-0.118,0.164-0.341-0.155-0.465c0.019-0.136,0.133-0.176,0.309-0.155c0.149,0.111,0.223,0.294,0.466,0.311
		c-0.012-0.194,0.122-0.241,0.154-0.388c0.34-0.055,0.528,0.04,0.621,0.232c0.297-0.443,0.815,0.179,1.006-0.077
		c-0.043,0.38,0.595,0.418,0.62,0.077c0.007,0.122-0.01,0.269,0.155,0.233c-0.004-0.1-0.099-0.108-0.078-0.233
		c0.417,0.09,1.116-0.267,1.239,0.156c0.24-0.405,0.618,0.053,0.853-0.233c0.072,0.341,0.2,0.143,0.388,0.077
		c0.217-0.033-0.195,0.289,0.077,0.31c0.253-0.896,1.045-0.244,1.549-0.542c0.159,0.021,0.019,0.343,0.232,0.31
		c0.027-0.206,0.204-0.262,0.388-0.31c0.012,0.091-0.014,0.22,0.076,0.232c0.045-0.111,0.122-0.189,0.234-0.232
		c0.115,0.09,0.189,0.223,0.387,0.232c0.553-0.448,1.088-0.006,1.781-0.155c0.031,0.134-0.115,0.199,0,0.233
		c0.065-0.276,0.353,0.113,0.31-0.31c0.549-0.067,0.43,0.331,0.62,0.465c-0.075-0.381,0.376-0.116,0.155-0.465
		c0.736,0.04,1.559-0.053,1.937,0.155C140.918,6.619,141.89,6.877,142.178,7.043"/>
	<path clip-path="url(#SVGID_8_)" d="M167.74,8.128c-0.003-0.075-0.095-0.06-0.155-0.077C167.587,8.126,167.68,8.111,167.74,8.128"
		/>
	<path clip-path="url(#SVGID_8_)" d="M159.606,8.05c0.085-0.019,0.053-0.154,0.155-0.155C159.728,7.681,159.517,7.891,159.606,8.05"
		/>
	<path clip-path="url(#SVGID_8_)" d="M158.677,8.128C158.87,8.43,158.789,7.871,158.677,8.128"/>
	<path clip-path="url(#SVGID_8_)" d="M158.6,7.74C158.651,7.69,158.567,7.772,158.6,7.74"/>
	<path clip-path="url(#SVGID_8_)" d="M155.191,8.36c-0.002-0.075-0.095-0.06-0.155-0.077C155.038,8.358,155.131,8.343,155.191,8.36"
		/>
	<path clip-path="url(#SVGID_8_)" d="M154.649,7.663C154.617,7.695,154.7,7.612,154.649,7.663"/>
</g>
<rect x="143.65" y="7.818" width="0.155" height="0.155"/>
<g>
	<defs>
		<rect id="SVGID_9_" x="-0.074" y="0.466" width="210.147" height="8.067"/>
	</defs>
	<clipPath id="SVGID_10_">
		<use xlink:href="#SVGID_9_"  overflow="visible"/>
	</clipPath>
	<path clip-path="url(#SVGID_10_)" d="M142.643,7.508h0.155c-0.022,0.126,0.073,0.134,0.077,0.233
		c0.063-0.015,0.077-0.078,0.155-0.078V7.508h-0.232c-0.014-0.065,0.03-0.073,0.077-0.077C142.906,7.28,142.522,7.318,142.643,7.508
		"/>
	<path clip-path="url(#SVGID_10_)" d="M137.607,8.128c-0.002-0.075-0.095-0.06-0.155-0.077
		C137.454,8.126,137.547,8.111,137.607,8.128"/>
	<path clip-path="url(#SVGID_10_)" d="M134.277,8.205c-0.003-0.075-0.095-0.06-0.155-0.077
		C134.123,8.203,134.216,8.188,134.277,8.205"/>
	<path clip-path="url(#SVGID_10_)" d="M132.185,7.895C132.153,7.927,132.236,7.844,132.185,7.895"/>
	<path clip-path="url(#SVGID_10_)" d="M173.344,8.42C173.293,8.471,173.376,8.388,173.344,8.42"/>
	<path clip-path="url(#SVGID_10_)" d="M203.864,8.11c-0.212-0.056-0.156,0.154-0.31,0.155C203.602,8.454,203.945,8.306,203.864,8.11
		 M172.259,7.181c-0.26-0.08-0.121,0.241-0.154,0.387C172.346,7.468,172.144,7.408,172.259,7.181 M188.448,7.413
		c0.025-0.18-0.012-0.297-0.076-0.387C188.245,7.012,188.215,7.533,188.448,7.413 M187.055,7.413
		c0.089-0.065,0.207-0.102,0.387-0.077C187.435,7.105,186.98,7.128,187.055,7.413 M207.737,8.265
		c-0.595,0.47-1.447,0.087-2.402,0.233c-0.012-0.092,0.013-0.22-0.077-0.233c0.078,0.424-0.904,0.282-0.853,0
		c-0.241,0.322-1.358,0.304-1.626,0.078c-0.659,0.509-1.562-0.29-2.247,0.077c-0.037-0.091-0.082-0.176-0.154-0.232
		c-0.011,0.144-0.051,0.259-0.155,0.31c-0.187-0.552-1.234,0.104-1.627-0.31c0.191,0.12,0.228-0.263,0.078-0.233
		c-0.32,0.125-0.61,0.636-0.93,0.31c0.115,0.003-0.014-0.389-0.155-0.387c-0.222,0.12,0.162,0.361-0.078,0.465
		c-0.115-0.256-0.189,0.161-0.386,0.077c-0.133-0.074-0.157-0.257-0.31-0.31c-0.663,0.682-1.728-0.086-2.479,0.388
		c-0.116-0.091-0.091-0.322-0.311-0.31c-0.193-0.013-0.241,0.119-0.309,0.232c-0.729-0.482-1.798,0.118-2.556-0.31
		c0.003,0.107-0.036,0.17-0.078,0.233c-0.299-0.012-0.357-0.262-0.697-0.233c0.064,0.219-0.108,0.201-0.077,0.388
		c-0.46-0.306-1.384,0.214-1.395-0.388c-0.28,0.256-0.676,0.433-0.929,0.155c0.03,0.314-0.483,0.086-0.697,0.155
		c-0.089-0.244,0.122-0.188,0.155-0.31c-0.202,0.057-0.455,0.062-0.543,0.233c-0.231-0.312-0.717,0.208-1.007-0.233
		c-0.123,0.206-0.211,0.139-0.464,0.31c-0.224-0.342-0.971-0.142-1.394,0c0.028-0.26-0.337-0.129-0.466-0.232
		c-0.366,0.432-0.712,0.003-1.161-0.078c-0.214-0.033-0.073,0.289-0.233,0.31c-0.505-0.309-1.162-0.045-1.549-0.387
		c-0.283,0.486-1.513,0.546-2.091,0.077c-1.08,0.471-2.515,0.183-3.642,0.31c-0.037-0.091-0.082-0.176-0.154-0.232
		c-0.076,0.419-1.295,0.295-1.394,0c-0.992,0.368-2.353-0.139-3.486,0.232c-0.19-0.103,0.14-0.234-0.078-0.31
		c-0.161,0.044-0.164,0.121-0.078,0.233c-0.24,0.008-0.22-0.244-0.541-0.155c0.021,0.176-0.019,0.291-0.155,0.31
		c-0.14-0.067-0.243-0.17-0.31-0.31c-0.026,0.027-0.161,0.047-0.202,0.067c-0.06-0.452-0.036-0.902-0.109-1.351
		c0.489,0.04,0.922,0.086,1.24,0.122c1.247-0.16,2.651-0.072,4.028-0.155c0.19,0.103-0.085,0.288,0.078,0.31
		c0.451-0.163,1.66-0.475,2.014,0c0.051-0.419,0.721-0.257,0.93-0.31c-0.076,0.307,0.223,0.241,0.386,0.31
		c0.103-0.368,0.912-0.393,1.163-0.155c0.696-0.087,1.897-0.337,2.556,0.155c0.434-0.065,0.855-0.277,1.394-0.155
		c0.035,0.17-0.206,0.382-0.155,0.465c0.137-0.16,0.24-0.068,0.31-0.155c-0.105-0.129,0.104-0.412,0.388-0.388
		c0.136,0.07,0.128,0.285,0.309,0.31c-0.19-0.314,0.501-0.238,0.542-0.31c-0.059,0.017-0.089,0.065-0.077,0.155
		c0.512-0.045,1.211-0.324,2.091-0.232c0.031,0.133-0.115,0.199,0,0.232c0.146-0.335,0.984-0.295,1.395-0.077
		c0.082-0.482,0.604,0.172,0.619,0c0.001-0.078-0.062-0.092-0.077-0.155c0.851,0.084,2.618-0.166,2.789,0.232
		c0.165-0.021,0.633-0.487,0.852,0c0.214-0.284,0.473-0.136,0.775-0.232c0.083,0.197-0.334,0.271-0.078,0.387
		c0.121-0.111,0.269-0.195,0.31-0.387c0.592,0.104,1.633-0.239,1.858,0.232c-0.041-0.391,1.659-0.295,1.24-0.077
		c0.338-0.164,0.444-0.14,0.775,0c0-0.078-0.063-0.092-0.078-0.155c1.616,0.067,3.037-0.191,4.029,0.387
		c0.046-0.247-0.146-0.239,0-0.387c0.81,0.199,1.444-0.161,2.014,0.387c0.149-0.031,0.007-0.354,0.309-0.232
		c0.274,0.008-0.164,0.256,0.077,0.232c0.249,0.068,0.243-0.119,0.311-0.232c0.256,0.105,0.61,0.113,0.697,0.387v-0.31
		c0.709,0.107,1.245,0.449,1.472-0.155c0.247,0.053,0.052,0.352,0.154,0.388c0.334,0.074,0.215-0.302,0.387-0.388
		c0.591,0.237,1.365-0.177,1.473,0.31c-0.076-0.307,0.223-0.24,0.387-0.31c-0.139,0.163-0.25,0.548,0.077,0.62
		c0.017-0.283,0.106-0.297,0-0.542c0.477,0.21,0.523,0.016,0.929-0.155c0.077,0.321,0.183,0.44,0.31,0.542
		c0.053-0.279,0.203-0.403-0.076-0.542c0.569,0.041,0.727,0.019,1.317,0c-0.09,0.159,0.12,0.369,0.154,0.155
		c-0.043,0-0.088-0.063,0-0.078c0.222,0.376-0.053,1.098,0.077,1.395C209.577,8.564,207.865,8.655,207.737,8.265"/>
	<path clip-path="url(#SVGID_10_)" d="M199.371,7.956c-0.003-0.076-0.095-0.06-0.155-0.077
		C199.218,7.954,199.311,7.939,199.371,7.956"/>
	<path clip-path="url(#SVGID_10_)" d="M198.518,7.956c-0.002-0.076-0.094-0.06-0.155-0.077
		C198.365,7.954,198.458,7.939,198.518,7.956"/>
	<path clip-path="url(#SVGID_10_)" d="M198.054,8.265C198.003,8.316,198.087,8.233,198.054,8.265"/>
	<path clip-path="url(#SVGID_10_)" d="M195.188,8.265C195.137,8.316,195.221,8.233,195.188,8.265"/>
	<path clip-path="url(#SVGID_10_)" d="M193.716,7.568V7.413c-0.166-0.036-0.148,0.11-0.156,0.232
		C193.624,7.631,193.638,7.568,193.716,7.568"/>
	<path clip-path="url(#SVGID_10_)" d="M192.245,7.568C192.155,7.262,192.155,7.874,192.245,7.568"/>
	<path clip-path="url(#SVGID_10_)" d="M189.301,8.188C189.041,8.001,189.488,8.448,189.301,8.188"/>
	<path clip-path="url(#SVGID_10_)" d="M188.681,7.801C188.631,7.852,188.714,7.769,188.681,7.801"/>
	<path clip-path="url(#SVGID_10_)" d="M187.829,8.188C187.739,7.882,187.739,8.494,187.829,8.188"/>
	<path clip-path="url(#SVGID_10_)" d="M187.519,7.956C187.468,8.006,187.552,7.924,187.519,7.956"/>
	<path clip-path="url(#SVGID_10_)" d="M186.435,7.956C186.384,8.006,186.468,7.924,186.435,7.956"/>
	<path clip-path="url(#SVGID_10_)" d="M186.435,7.801C186.384,7.852,186.468,7.769,186.435,7.801"/>
	<path clip-path="url(#SVGID_10_)" d="M184.343,7.801c-0.019-0.098-0.154-0.078-0.155,0C184.223,7.914,184.256,7.793,184.343,7.801"
		/>
	<path clip-path="url(#SVGID_10_)" d="M182.639,7.956C182.549,7.65,182.549,8.262,182.639,7.956"/>
	<path clip-path="url(#SVGID_10_)" d="M182.484,7.801C182.395,7.495,182.395,8.107,182.484,7.801"/>
	<path clip-path="url(#SVGID_10_)" d="M181.632,7.646C181.542,7.34,181.542,7.953,181.632,7.646"/>
	<path clip-path="url(#SVGID_10_)" d="M181.167,7.259C181.077,6.952,181.077,7.565,181.167,7.259"/>
	<path clip-path="url(#SVGID_10_)" d="M177.914,7.413C177.946,7.381,177.863,7.464,177.914,7.413"/>
</g>
<rect x="174.505" y="7.181" width="0.155" height="0.156"/>
<g>
	<defs>
		<rect id="SVGID_11_" x="-0.074" y="0.466" width="210.147" height="8.067"/>
	</defs>
	<clipPath id="SVGID_12_">
		<use xlink:href="#SVGID_11_"  overflow="visible"/>
	</clipPath>
	<path clip-path="url(#SVGID_12_)" d="M171.795,7.259c0.101-0.028,0.122-0.136,0.232-0.155c-0.013-0.091-0.141-0.066-0.232-0.078
		V7.259z"/>
	<path clip-path="url(#SVGID_12_)" d="M169.735,7.026C169.767,6.994,169.684,7.077,169.735,7.026"/>
	<path clip-path="url(#SVGID_12_)" d="M15.445,0.544c0.061,0.018,0.153,0.003,0.155,0.077C15.54,0.605,15.448,0.62,15.445,0.544"/>
	<path clip-path="url(#SVGID_12_)" d="M36.205,0.932C36.115,0.625,36.115,1.238,36.205,0.932"/>
	<path clip-path="url(#SVGID_12_)" d="M35.585,1.164C35.534,1.214,35.618,1.132,35.585,1.164"/>
	<path clip-path="url(#SVGID_12_)" d="M35.431,0.854c-0.095,0.034-0.16,0.099-0.156,0.232C35.441,1.123,35.423,0.976,35.431,0.854"
		/>
	<path clip-path="url(#SVGID_12_)" d="M33.339,1.086C33.288,1.137,33.372,1.054,33.339,1.086"/>
	<path clip-path="url(#SVGID_12_)" d="M23.424,0.777c-0.002-0.076-0.094-0.06-0.155-0.078C23.272,0.774,23.364,0.759,23.424,0.777"
		/>
	<path clip-path="url(#SVGID_12_)" d="M21.875,1.009C21.907,0.976,21.823,1.059,21.875,1.009"/>
	<path clip-path="url(#SVGID_12_)" d="M21.642,1.009C21.553,0.703,21.553,1.315,21.642,1.009"/>
	<path clip-path="url(#SVGID_12_)" d="M18.079,1.241C18.028,1.292,18.112,1.209,18.079,1.241"/>
	<path clip-path="url(#SVGID_12_)" d="M17.15,0.931C16.89,0.745,17.337,1.192,17.15,0.931"/>
	<path clip-path="url(#SVGID_12_)" d="M16.608,0.854C16.518,0.548,16.518,1.16,16.608,0.854"/>
	<path clip-path="url(#SVGID_12_)" d="M15.135,0.931C15.045,0.625,15.045,1.238,15.135,0.931"/>
	<path clip-path="url(#SVGID_12_)" d="M11.882,1.086C11.914,1.054,11.831,1.137,11.882,1.086"/>
</g>
<rect x="8.473" y="0.853" width="0.156" height="0.155"/>
<g>
	<defs>
		<rect id="SVGID_13_" x="-0.074" y="0.466" width="210.147" height="8.067"/>
	</defs>
	<clipPath id="SVGID_14_">
		<use xlink:href="#SVGID_13_"  overflow="visible"/>
	</clipPath>
	<path clip-path="url(#SVGID_14_)" d="M5.763,0.931c0.101-0.028,0.122-0.136,0.232-0.155C5.982,0.686,5.854,0.711,5.763,0.699V0.931
		z"/>
	<path clip-path="url(#SVGID_14_)" d="M2.897,0.699C2.929,0.667,2.846,0.75,2.897,0.699"/>
	<path clip-path="url(#SVGID_14_)" d="M1.211,0.871C1.262,0.82,1.179,0.903,1.211,0.871"/>
	<path clip-path="url(#SVGID_14_)" d="M0.856,1.104C0.946,1.41,0.946,0.798,0.856,1.104"/>
	<path clip-path="url(#SVGID_14_)" d="M0.004,1.104c0.111-0.018,0.028-0.231,0.155-0.232c0.014-0.067-0.03-0.074-0.077-0.078h-0.156
		C-0.013,0.863,0.01,0.969,0.004,1.104"/>
	<path clip-path="url(#SVGID_14_)" d="M84.227,0.871C84.278,0.82,84.195,0.903,84.227,0.871"/>
	<path clip-path="url(#SVGID_14_)" d="M83.872,1.104C83.962,1.41,83.962,0.798,83.872,1.104"/>
	<path clip-path="url(#SVGID_14_)" d="M83.02,1.104c0.111-0.018,0.028-0.231,0.155-0.232c0.014-0.067-0.03-0.074-0.077-0.078h-0.156
		C83.003,0.863,83.026,0.969,83.02,1.104"/>
	<path clip-path="url(#SVGID_14_)" d="M76.746,0.949C76.835,1.255,76.835,0.643,76.746,0.949"/>
	<path clip-path="url(#SVGID_14_)" d="M76.358,1.026C76.551,1.328,76.471,0.769,76.358,1.026"/>
	<path clip-path="url(#SVGID_14_)" d="M75.196,1.104C75.164,1.136,75.247,1.053,75.196,1.104"/>
	<path clip-path="url(#SVGID_14_)" d="M74.731,1.104C74.914,1.353,74.719,0.505,74.731,1.104"/>
	<path clip-path="url(#SVGID_14_)" d="M74.19,0.949C74.279,1.255,74.279,0.643,74.19,0.949"/>
	<path clip-path="url(#SVGID_14_)" d="M73.957,0.949C73.669,0.679,73.564,1.16,73.957,0.949"/>
	<path clip-path="url(#SVGID_14_)" d="M71.478,0.871C71.591,1.128,71.671,0.568,71.478,0.871"/>
	<path clip-path="url(#SVGID_14_)" d="M70.316,0.793C70.284,0.825,70.367,0.742,70.316,0.793"/>
	<path clip-path="url(#SVGID_14_)" d="M69.387,1.104C69.438,1.053,69.354,1.136,69.387,1.104"/>
	<path clip-path="url(#SVGID_14_)" d="M63.732,0.716C63.845,0.973,63.924,0.414,63.732,0.716"/>
	<path clip-path="url(#SVGID_14_)" d="M60.324,1.104c0.225-0.043-0.119-0.121-0.077-0.232C59.99,0.947,60.334,1.025,60.324,1.104"/>
	<path clip-path="url(#SVGID_14_)" d="M56.451,0.561C56.418,0.594,56.502,0.511,56.451,0.561"/>
	<path clip-path="url(#SVGID_14_)" d="M49.479,0.949C49.447,0.981,49.53,0.898,49.479,0.949"/>
	<path clip-path="url(#SVGID_14_)" d="M46.381,0.793C46.349,0.825,46.432,0.742,46.381,0.793"/>
	<path clip-path="url(#SVGID_14_)" d="M98.461,0.544c0.061,0.018,0.153,0.003,0.155,0.077C98.556,0.605,98.464,0.62,98.461,0.544"/>
	<path clip-path="url(#SVGID_14_)" d="M119.221,0.932C119.131,0.625,119.131,1.238,119.221,0.932"/>
	<path clip-path="url(#SVGID_14_)" d="M118.601,1.164C118.55,1.214,118.634,1.132,118.601,1.164"/>
	<path clip-path="url(#SVGID_14_)" d="M118.447,0.854c-0.095,0.034-0.16,0.099-0.156,0.232
		C118.457,1.123,118.439,0.976,118.447,0.854"/>
	<path clip-path="url(#SVGID_14_)" d="M116.355,1.086C116.304,1.137,116.388,1.054,116.355,1.086"/>
	<path clip-path="url(#SVGID_14_)" d="M106.44,0.777c-0.002-0.076-0.094-0.06-0.155-0.078C106.288,0.774,106.38,0.759,106.44,0.777"
		/>
	<path clip-path="url(#SVGID_14_)" d="M104.891,1.009C104.923,0.976,104.839,1.059,104.891,1.009"/>
	<path clip-path="url(#SVGID_14_)" d="M104.658,1.009C104.569,0.703,104.569,1.315,104.658,1.009"/>
	<path clip-path="url(#SVGID_14_)" d="M101.095,1.241C101.044,1.292,101.128,1.209,101.095,1.241"/>
	<path clip-path="url(#SVGID_14_)" d="M100.166,0.931C99.906,0.745,100.353,1.192,100.166,0.931"/>
	<path clip-path="url(#SVGID_14_)" d="M99.623,0.854C99.533,0.548,99.533,1.16,99.623,0.854"/>
	<path clip-path="url(#SVGID_14_)" d="M98.151,0.931C98.061,0.625,98.061,1.238,98.151,0.931"/>
	<path clip-path="url(#SVGID_14_)" d="M94.898,1.086C94.93,1.054,94.847,1.137,94.898,1.086"/>
</g>
<rect x="91.49" y="0.853" width="0.155" height="0.155"/>
<g>
	<defs>
		<rect id="SVGID_15_" x="-0.074" y="0.466" width="210.147" height="8.067"/>
	</defs>
	<clipPath id="SVGID_16_">
		<use xlink:href="#SVGID_15_"  overflow="visible"/>
	</clipPath>
	<path clip-path="url(#SVGID_16_)" d="M88.779,0.931c0.101-0.028,0.122-0.136,0.232-0.155c-0.013-0.091-0.141-0.066-0.232-0.078
		V0.931z"/>
	<path clip-path="url(#SVGID_16_)" d="M85.913,0.699C85.945,0.667,85.862,0.75,85.913,0.699"/>
	<path clip-path="url(#SVGID_16_)" d="M168.049,0.871C168.1,0.82,168.017,0.903,168.049,0.871"/>
	<path clip-path="url(#SVGID_16_)" d="M166.888,1.104C166.978,1.41,166.978,0.798,166.888,1.104"/>
	<path clip-path="url(#SVGID_16_)" d="M166.036,1.104c0.111-0.018,0.028-0.231,0.155-0.232c0.014-0.067-0.03-0.074-0.077-0.078
		h-0.156C166.019,0.863,166.042,0.969,166.036,1.104"/>
	<path clip-path="url(#SVGID_16_)" d="M159.762,0.949C159.851,1.255,159.851,0.643,159.762,0.949"/>
	<path clip-path="url(#SVGID_16_)" d="M159.374,1.026C159.567,1.328,159.487,0.769,159.374,1.026"/>
	<path clip-path="url(#SVGID_16_)" d="M158.212,1.104C158.18,1.136,158.263,1.053,158.212,1.104"/>
	<path clip-path="url(#SVGID_16_)" d="M157.747,1.104C157.93,1.353,157.735,0.505,157.747,1.104"/>
	<path clip-path="url(#SVGID_16_)" d="M157.206,0.949C157.295,1.255,157.295,0.643,157.206,0.949"/>
	<path clip-path="url(#SVGID_16_)" d="M156.973,0.949C156.685,0.679,156.58,1.16,156.973,0.949"/>
	<path clip-path="url(#SVGID_16_)" d="M154.494,0.871C154.607,1.128,154.687,0.568,154.494,0.871"/>
	<path clip-path="url(#SVGID_16_)" d="M153.332,0.793C153.3,0.825,153.383,0.742,153.332,0.793"/>
	<path clip-path="url(#SVGID_16_)" d="M152.403,1.104C152.454,1.053,152.37,1.136,152.403,1.104"/>
	<path clip-path="url(#SVGID_16_)" d="M146.748,0.716C146.861,0.973,146.94,0.414,146.748,0.716"/>
	<path clip-path="url(#SVGID_16_)" d="M143.339,1.104c0.225-0.043-0.119-0.121-0.077-0.232
		C143.005,0.947,143.349,1.025,143.339,1.104"/>
	<path clip-path="url(#SVGID_16_)" d="M139.466,0.561C139.433,0.594,139.517,0.511,139.466,0.561"/>
	<path clip-path="url(#SVGID_16_)" d="M132.495,0.949C132.463,0.981,132.546,0.898,132.495,0.949"/>
	<path clip-path="url(#SVGID_16_)" d="M129.396,0.793C129.364,0.825,129.447,0.742,129.396,0.793"/>
	<path clip-path="url(#SVGID_16_)" d="M181.477,0.544c0.061,0.018,0.153,0.003,0.155,0.077C181.572,0.605,181.48,0.62,181.477,0.544
		"/>
	<path clip-path="url(#SVGID_16_)" d="M202.237,0.932C202.147,0.625,202.147,1.238,202.237,0.932"/>
	<path clip-path="url(#SVGID_16_)" d="M201.617,1.164C201.566,1.214,201.65,1.132,201.617,1.164"/>
	<path clip-path="url(#SVGID_16_)" d="M201.462,0.854c-0.095,0.034-0.16,0.099-0.156,0.232
		C201.472,1.123,201.454,0.976,201.462,0.854"/>
	<path clip-path="url(#SVGID_16_)" d="M199.371,1.086C199.32,1.137,199.404,1.054,199.371,1.086"/>
	<path clip-path="url(#SVGID_16_)" d="M189.455,0.777c-0.002-0.076-0.094-0.06-0.155-0.078
		C189.303,0.774,189.395,0.759,189.455,0.777"/>
	<path clip-path="url(#SVGID_16_)" d="M187.907,1.009C187.939,0.976,187.855,1.059,187.907,1.009"/>
	<path clip-path="url(#SVGID_16_)" d="M187.674,1.009C187.585,0.703,187.585,1.315,187.674,1.009"/>
	<path clip-path="url(#SVGID_16_)" d="M184.111,1.241C184.06,1.292,184.144,1.209,184.111,1.241"/>
	<path clip-path="url(#SVGID_16_)" d="M183.182,0.931C182.922,0.745,183.369,1.192,183.182,0.931"/>
	<path clip-path="url(#SVGID_16_)" d="M182.639,0.854C182.549,0.548,182.549,1.16,182.639,0.854"/>
	<path clip-path="url(#SVGID_16_)" d="M7.312,2.093C7.261,2.144,7.344,2.061,7.312,2.093"/>
	<path clip-path="url(#SVGID_16_)" d="M37.832,1.783c-0.212-0.056-0.156,0.154-0.31,0.155C37.57,2.127,37.913,1.979,37.832,1.783
		 M6.227,0.854c-0.26-0.08-0.121,0.241-0.154,0.387C6.314,1.141,6.112,1.081,6.227,0.854 M22.416,1.086
		c0.025-0.18-0.012-0.297-0.076-0.387C22.213,0.685,22.183,1.206,22.416,1.086 M21.023,1.086c0.089-0.065,0.207-0.102,0.387-0.077
		C21.403,0.778,20.948,0.801,21.023,1.086 M41.705,1.938c-0.595,0.47-1.447,0.087-2.402,0.233c-0.012-0.092,0.013-0.22-0.077-0.233
		c0.078,0.424-0.904,0.282-0.853,0c-0.241,0.322-1.358,0.304-1.626,0.078c-0.659,0.509-1.562-0.29-2.247,0.077
		c-0.037-0.091-0.082-0.176-0.154-0.232c-0.011,0.144-0.051,0.259-0.155,0.31c-0.187-0.552-1.234,0.104-1.627-0.31
		c0.191,0.12,0.228-0.263,0.078-0.233c-0.32,0.125-0.61,0.636-0.93,0.31c0.115,0.003-0.014-0.389-0.155-0.387
		c-0.222,0.12,0.162,0.361-0.078,0.465c-0.115-0.256-0.189,0.161-0.386,0.077c-0.133-0.074-0.157-0.257-0.31-0.31
		c-0.663,0.682-1.728-0.086-2.479,0.388c-0.116-0.091-0.091-0.322-0.311-0.31C27.8,1.848,27.752,1.98,27.684,2.093
		c-0.729-0.482-1.798,0.118-2.556-0.31c0.003,0.107-0.036,0.17-0.078,0.233c-0.299-0.012-0.357-0.262-0.697-0.233
		c0.064,0.219-0.108,0.201-0.077,0.388c-0.46-0.306-1.384,0.214-1.395-0.388c-0.28,0.256-0.676,0.433-0.929,0.155
		c0.03,0.314-0.483,0.086-0.697,0.155c-0.089-0.244,0.122-0.188,0.155-0.31c-0.202,0.057-0.455,0.062-0.543,0.233
		c-0.231-0.312-0.717,0.208-1.007-0.233c-0.123,0.206-0.211,0.139-0.464,0.31c-0.224-0.342-0.971-0.142-1.394,0
		c0.028-0.26-0.337-0.129-0.466-0.232c-0.366,0.432-0.712,0.003-1.161-0.078c-0.214-0.033-0.073,0.289-0.233,0.31
		c-0.505-0.309-1.162-0.045-1.549-0.387c-0.283,0.486-1.513,0.546-2.091,0.077c-1.08,0.472-2.515,0.183-3.642,0.31
		C8.823,2.002,8.778,1.917,8.706,1.861c-0.076,0.419-1.295,0.295-1.394,0C6.32,2.229,4.959,1.722,3.826,2.093
		c-0.19-0.103,0.14-0.234-0.078-0.31C3.587,1.827,3.584,1.904,3.67,2.016C3.43,2.024,3.45,1.772,3.129,1.861
		C3.15,2.037,3.11,2.152,2.974,2.171c-0.14-0.067-0.243-0.17-0.31-0.31C2.638,1.888,2.503,1.908,2.462,1.928
		c-0.06-0.452-0.036-0.902-0.109-1.351c0.489,0.04,0.922,0.086,1.24,0.122c1.247-0.16,2.651-0.072,4.028-0.155
		c0.19,0.103-0.085,0.288,0.078,0.31c0.451-0.163,1.66-0.475,2.014,0c0.051-0.419,0.721-0.257,0.93-0.31
		c-0.076,0.307,0.223,0.241,0.386,0.31c0.103-0.368,0.912-0.393,1.163-0.155c0.696-0.087,1.897-0.337,2.556,0.155
		c0.433-0.065,0.855-0.277,1.394-0.155c0.035,0.17-0.206,0.382-0.155,0.465c0.137-0.16,0.24-0.068,0.31-0.155
		c-0.105-0.129,0.104-0.412,0.388-0.388c0.136,0.07,0.128,0.285,0.309,0.311c-0.19-0.315,0.501-0.239,0.542-0.311
		c-0.059,0.017-0.089,0.065-0.077,0.156c0.512-0.046,1.211-0.325,2.091-0.233c0.031,0.133-0.115,0.199,0,0.233
		c0.146-0.336,0.984-0.296,1.395-0.078c0.082-0.482,0.604,0.172,0.619,0c0.001-0.078-0.062-0.092-0.077-0.155
		c0.851,0.084,2.618-0.166,2.789,0.233c0.165-0.022,0.633-0.488,0.852,0c0.214-0.285,0.473-0.137,0.775-0.233
		c0.083,0.198-0.334,0.271-0.078,0.388c0.121-0.112,0.269-0.196,0.31-0.388c0.592,0.104,1.633-0.239,1.858,0.233
		c-0.041-0.392,1.659-0.296,1.24-0.078c0.338-0.164,0.444-0.14,0.775,0c0-0.078-0.063-0.092-0.078-0.155
		c1.616,0.067,3.037-0.191,4.029,0.388c0.046-0.248-0.146-0.24,0-0.388c0.81,0.199,1.444-0.161,2.014,0.388
		c0.149-0.032,0.007-0.355,0.309-0.233c0.274,0.008-0.164,0.256,0.077,0.233c0.249,0.067,0.243-0.12,0.311-0.233
		c0.256,0.106,0.61,0.113,0.697,0.387V0.777c0.709,0.106,1.245,0.448,1.472-0.156c0.247,0.053,0.052,0.352,0.154,0.388
		c0.334,0.075,0.215-0.302,0.387-0.388c0.591,0.237,1.365-0.177,1.473,0.311c-0.076-0.308,0.223-0.241,0.387-0.311
		c-0.139,0.163-0.25,0.548,0.077,0.62c0.017-0.283,0.106-0.297,0-0.542c0.477,0.211,0.523,0.016,0.929-0.155
		c0.077,0.321,0.183,0.44,0.31,0.542c0.053-0.279,0.203-0.403-0.076-0.542c0.569,0.041,0.727,0.019,1.317,0
		c-0.09,0.159,0.12,0.369,0.154,0.155c-0.043,0-0.088-0.063,0-0.078c0.222,0.376-0.053,1.098,0.077,1.395
		C43.545,2.237,41.833,2.328,41.705,1.938"/>
	<path clip-path="url(#SVGID_16_)" d="M33.339,1.628c-0.003-0.076-0.095-0.06-0.155-0.077C33.186,1.627,33.279,1.612,33.339,1.628"
		/>
	<path clip-path="url(#SVGID_16_)" d="M32.487,1.628c-0.002-0.076-0.094-0.06-0.155-0.077C32.334,1.627,32.427,1.612,32.487,1.628"
		/>
	<path clip-path="url(#SVGID_16_)" d="M32.022,1.938C31.971,1.989,32.055,1.906,32.022,1.938"/>
	<path clip-path="url(#SVGID_16_)" d="M29.156,1.938C29.105,1.989,29.189,1.906,29.156,1.938"/>
	<path clip-path="url(#SVGID_16_)" d="M27.685,1.241V1.086c-0.166-0.036-0.148,0.11-0.156,0.232
		C27.593,1.304,27.607,1.241,27.685,1.241"/>
	<path clip-path="url(#SVGID_16_)" d="M26.213,1.241C26.123,0.935,26.123,1.547,26.213,1.241"/>
	<path clip-path="url(#SVGID_16_)" d="M23.269,1.861C23.009,1.674,23.456,2.121,23.269,1.861"/>
	<path clip-path="url(#SVGID_16_)" d="M22.649,1.473C22.599,1.524,22.682,1.441,22.649,1.473"/>
	<path clip-path="url(#SVGID_16_)" d="M21.798,1.861C21.708,1.555,21.708,2.167,21.798,1.861"/>
	<path clip-path="url(#SVGID_16_)" d="M21.488,1.628C21.437,1.679,21.521,1.597,21.488,1.628"/>
	<path clip-path="url(#SVGID_16_)" d="M20.403,1.628C20.352,1.679,20.436,1.597,20.403,1.628"/>
	<path clip-path="url(#SVGID_16_)" d="M20.403,1.473C20.352,1.524,20.436,1.441,20.403,1.473"/>
	<path clip-path="url(#SVGID_16_)" d="M18.312,1.473c-0.019-0.098-0.154-0.078-0.155,0C18.192,1.586,18.225,1.465,18.312,1.473"/>
	<path clip-path="url(#SVGID_16_)" d="M16.608,1.628C16.518,1.323,16.518,1.935,16.608,1.628"/>
	<path clip-path="url(#SVGID_16_)" d="M16.452,1.473C16.363,1.167,16.363,1.779,16.452,1.473"/>
	<path clip-path="url(#SVGID_16_)" d="M15.601,1.318C15.511,1.012,15.511,1.625,15.601,1.318"/>
	<path clip-path="url(#SVGID_16_)" d="M0.902,1.8C0.899,1.725,0.807,1.74,0.747,1.723C0.749,1.798,0.842,1.783,0.902,1.8"/>
	<path clip-path="url(#SVGID_16_)" d="M66.443,1.181v0.155h0.31C66.83,1.103,66.58,1.198,66.443,1.181 M57.767,1.491
		c0.07,0.259,0.174,0.067,0.31,0C58.026,1.259,57.912,1.564,57.767,1.491 M68.07,1.181c-0.01,0.139,0.095,0.163,0.077,0.31
		C68.372,1.477,68.334,1.123,68.07,1.181 M59.162,0.716c0.199-0.491,0.743-0.051,1.007,0.078c0.11-0.266,0.616,0.16,0.542-0.233
		c0.295,0.012,0.483,0.008,0.542,0.078c-0.088,0.115-0.103,0.323,0.077,0.387c0.298-0.359,0.642-0.501,1.085-0.232
		c0.71-0.262,1.177-0.39,1.859-0.233c-0.169,0.012-0.166,0.196-0.155,0.388c0.116-0.014,0.286,0.027,0.31-0.078
		c-0.068-0.137-0.245-0.226-0.077-0.387c0.394-0.033,0.134,0.588,0.541,0.542c0-0.183,0.134-0.228,0.078-0.465
		c0.674-0.026,0.932,0.098,1.549,0c0.101,0.193-0.227,0.322,0,0.388c0.246-0.363,1.159-0.237,1.162-0.388
		C67.9,0.653,67.723,1.14,68.07,1.104c0.205-0.468,0.745-0.499,1.239-0.31c0.317-0.362,0.98-0.246,1.24-0.078
		c0.386-0.389,1.226-0.022,1.549,0.155c0.018-0.213,0.228-0.236,0.387-0.31c0.096,0.162,0.225,0.291,0.388,0.388
		c0.367-0.331,1.384-0.228,1.704-0.078V0.639c1.953,0.498,3.686-0.487,5.499,0.31c0.004-0.1,0.1-0.108,0.078-0.233
		c0.328,0.037,0.762,0.371,1.006,0.233c-0.133,0.004-0.198-0.06-0.232-0.155c0.301,0.041,0.319-0.198,0.542-0.233
		c0.063,0.196,0.319,0.198,0.466,0.31c0.537-0.364,1.869-0.324,2.401-0.077c0.065-0.115,0.195-0.166,0.387-0.155
		c0.012,0.091-0.013,0.22,0.077,0.232c0.155-0.102,0.695-0.386,0.853,0c0.12-0.046,0.25-0.071,0.377-0.104
		c-0.111,0.465-0.013,0.936-0.087,1.41c-0.009,0.005-0.204,0.005-0.213,0.011c-0.087-0.443-0.522-0.057-0.774-0.31
		c-0.788,0.5-1.754-0.05-2.944,0.233c0.068-0.249-0.119-0.243-0.233-0.31c0.007,0.135-0.017,0.241-0.077,0.31
		c-0.62-0.188-1.684,0.169-2.246-0.233c-0.23,0.416-1.16,0.366-1.627,0.078c-0.054,0.153-0.207,0.207-0.387,0.232
		c-0.027-0.383-0.204,0.064-0.388,0c-0.083-0.073-0.024-0.286-0.232-0.232c0.004,0.133-0.06,0.198-0.155,0.232
		c-1.045-0.267-2.305,0.244-3.331-0.232c-0.725,0.098-1.095,0.142-2.247,0.232c-0.013-0.116,0.029-0.286-0.076-0.31
		c-0.115,0.015-0.071,0.187-0.078,0.31c-0.32-0.253-0.551-0.007-1.007,0c-0.084-0.198,0.333-0.271,0.078-0.387
		c-0.026,0.36-0.397,0.145-0.388,0.387c-0.292-0.273-0.323,0.132-0.62-0.077c0.091-0.012,0.22,0.013,0.233-0.078
		c-0.838,0.12-1.788-0.301-2.634,0.155c-0.046-0.138,0.227-0.322,0-0.387c-0.234,0.245-0.571,0.435-0.93,0.077
		c-0.099,0.133-0.16,0.305-0.387,0.31c-1.628-0.267-3.905,0.249-5.034-0.232c0.088,0.159-0.122,0.369-0.156,0.155
		c0.157,0.023-0.015-0.224-0.077-0.233c-0.127,0.383-0.553-0.263-0.775,0c0.094,0.009,0.183,0.023,0.155,0.155
		c-0.691-0.363-1.005-0.052-1.627,0.155c-0.247-0.313-0.625-0.022-0.774-0.387c-0.025,0.105-0.111,0.148-0.078,0.31
		c-0.362,0.026-0.636-0.035-0.775-0.233c0.029,0.261-0.335,0.129-0.464,0.233c-0.428-0.271-1.072-0.169-1.782-0.078
		c-0.181-0.443-0.631,0.084-1.007-0.31c-0.045,0.405-0.581,0.188-0.774,0.078c-0.62,0.348-1.138,0.381-1.705,0.077
		c-0.107,0.048-0.011,0.298-0.154,0.31c-0.129-0.154,0.006-0.098,0-0.31c-0.308-0.142-0.321,0.213-0.465-0.155
		c-0.162,0.743-0.953,0.403-1.317,0.233c-0.529,0.453-2.738,0.134-4.26,0.232c-0.135-0.231-0.131-0.874,0.077-1.007
		c-0.287-0.118,0.164-0.341-0.155-0.465c0.019-0.136,0.133-0.176,0.309-0.155c0.149,0.111,0.223,0.294,0.466,0.31
		c-0.012-0.193,0.122-0.24,0.154-0.387c0.34-0.055,0.528,0.04,0.621,0.232c0.297-0.443,0.815,0.179,1.006-0.077
		c-0.043,0.38,0.595,0.418,0.62,0.077c0.007,0.122-0.01,0.269,0.155,0.233c-0.004-0.1-0.099-0.108-0.078-0.233
		c0.417,0.09,1.116-0.267,1.239,0.155c0.24-0.404,0.618,0.054,0.853-0.232c0.072,0.341,0.2,0.143,0.388,0.077
		c0.217-0.033-0.195,0.289,0.077,0.31c0.253-0.896,1.045-0.244,1.549-0.542c0.159,0.021,0.019,0.343,0.232,0.31
		c0.027-0.206,0.204-0.262,0.388-0.31c0.012,0.091-0.014,0.22,0.076,0.232c0.045-0.111,0.122-0.189,0.234-0.232
		c0.115,0.09,0.189,0.223,0.387,0.232c0.553-0.448,1.088-0.006,1.781-0.155c0.031,0.134-0.115,0.199,0,0.233
		c0.065-0.276,0.353,0.113,0.31-0.31c0.549-0.067,0.43,0.331,0.62,0.465c-0.075-0.381,0.376-0.116,0.155-0.465
		c0.736,0.04,1.559-0.053,1.937,0.155C57.902,0.292,58.874,0.55,59.162,0.716"/>
	<path clip-path="url(#SVGID_16_)" d="M84.725,1.8c-0.003-0.075-0.095-0.06-0.155-0.077C84.572,1.798,84.665,1.783,84.725,1.8"/>
	<path clip-path="url(#SVGID_16_)" d="M76.591,1.723c0.085-0.019,0.053-0.154,0.155-0.155C76.713,1.354,76.502,1.564,76.591,1.723"
		/>
	<path clip-path="url(#SVGID_16_)" d="M75.662,1.8C75.855,2.102,75.774,1.543,75.662,1.8"/>
	<path clip-path="url(#SVGID_16_)" d="M75.584,1.413C75.635,1.363,75.551,1.445,75.584,1.413"/>
	<path clip-path="url(#SVGID_16_)" d="M72.175,2.033c-0.002-0.075-0.095-0.06-0.155-0.077C72.022,2.031,72.115,2.016,72.175,2.033"
		/>
	<path clip-path="url(#SVGID_16_)" d="M71.633,1.336C71.601,1.368,71.684,1.285,71.633,1.336"/>
</g>
<rect x="60.634" y="1.491" width="0.154" height="0.154"/>
<g>
	<defs>
		<rect id="SVGID_17_" x="-0.074" y="0.466" width="210.147" height="8.067"/>
	</defs>
	<clipPath id="SVGID_18_">
		<use xlink:href="#SVGID_17_"  overflow="visible"/>
	</clipPath>
	<path clip-path="url(#SVGID_18_)" d="M59.627,1.18h0.155c-0.022,0.126,0.073,0.134,0.077,0.233
		c0.063-0.015,0.077-0.078,0.155-0.078V1.18h-0.232c-0.014-0.065,0.03-0.073,0.077-0.077C59.89,0.952,59.506,0.99,59.627,1.18"/>
	<path clip-path="url(#SVGID_18_)" d="M54.591,1.8c-0.002-0.075-0.095-0.06-0.155-0.077C54.438,1.798,54.531,1.783,54.591,1.8"/>
	<path clip-path="url(#SVGID_18_)" d="M51.261,1.878c-0.003-0.075-0.095-0.06-0.155-0.077C51.108,1.876,51.201,1.861,51.261,1.878"
		/>
	<path clip-path="url(#SVGID_18_)" d="M49.169,1.568C49.137,1.6,49.22,1.517,49.169,1.568"/>
	<path clip-path="url(#SVGID_18_)" d="M90.328,2.093C90.277,2.144,90.36,2.061,90.328,2.093"/>
	<path clip-path="url(#SVGID_18_)" d="M120.848,1.783c-0.212-0.056-0.156,0.154-0.31,0.155
		C120.586,2.127,120.929,1.979,120.848,1.783 M89.243,0.854c-0.26-0.08-0.121,0.241-0.154,0.387
		C89.33,1.141,89.128,1.081,89.243,0.854 M105.432,1.086c0.025-0.18-0.012-0.297-0.076-0.387
		C105.229,0.685,105.199,1.206,105.432,1.086 M104.039,1.086c0.089-0.065,0.207-0.102,0.387-0.077
		C104.419,0.778,103.964,0.801,104.039,1.086 M124.721,1.938c-0.595,0.47-1.447,0.087-2.402,0.233
		c-0.012-0.092,0.013-0.22-0.077-0.233c0.078,0.424-0.904,0.282-0.853,0c-0.241,0.322-1.358,0.304-1.626,0.078
		c-0.659,0.509-1.562-0.29-2.247,0.077c-0.037-0.091-0.082-0.176-0.154-0.232c-0.011,0.144-0.051,0.259-0.155,0.31
		c-0.187-0.552-1.234,0.104-1.627-0.31c0.191,0.12,0.228-0.263,0.078-0.233c-0.32,0.125-0.61,0.636-0.93,0.31
		c0.115,0.003-0.014-0.389-0.155-0.387c-0.222,0.12,0.162,0.361-0.078,0.465c-0.115-0.256-0.189,0.161-0.386,0.077
		c-0.133-0.074-0.157-0.257-0.31-0.31c-0.663,0.682-1.728-0.086-2.479,0.388c-0.116-0.091-0.091-0.322-0.311-0.31
		c-0.193-0.013-0.241,0.119-0.309,0.232c-0.729-0.482-1.798,0.118-2.556-0.31c0.003,0.107-0.036,0.17-0.078,0.233
		c-0.299-0.012-0.357-0.262-0.697-0.233c0.064,0.219-0.108,0.201-0.077,0.388c-0.46-0.306-1.384,0.214-1.395-0.388
		c-0.28,0.256-0.676,0.433-0.929,0.155c0.03,0.314-0.483,0.086-0.697,0.155c-0.089-0.244,0.122-0.188,0.155-0.31
		c-0.202,0.057-0.455,0.062-0.543,0.233c-0.231-0.312-0.717,0.208-1.007-0.233c-0.123,0.206-0.211,0.139-0.464,0.31
		c-0.224-0.342-0.971-0.142-1.394,0c0.028-0.26-0.337-0.129-0.466-0.232c-0.366,0.432-0.712,0.003-1.161-0.078
		c-0.214-0.033-0.073,0.289-0.233,0.31c-0.505-0.309-1.162-0.045-1.549-0.387c-0.283,0.486-1.513,0.546-2.091,0.077
		c-1.08,0.472-2.515,0.183-3.642,0.31c-0.037-0.091-0.082-0.176-0.154-0.232c-0.076,0.419-1.295,0.295-1.394,0
		c-0.992,0.368-2.353-0.139-3.486,0.232c-0.19-0.103,0.14-0.234-0.078-0.31c-0.161,0.044-0.164,0.121-0.078,0.233
		c-0.24,0.008-0.22-0.244-0.541-0.155c0.021,0.176-0.019,0.291-0.155,0.31c-0.14-0.067-0.243-0.17-0.31-0.31
		c-0.026,0.027-0.161,0.047-0.202,0.067c-0.06-0.452-0.036-0.902-0.109-1.351c0.489,0.04,0.922,0.086,1.24,0.122
		c1.247-0.16,2.651-0.072,4.028-0.155c0.19,0.103-0.085,0.288,0.078,0.31c0.451-0.163,1.66-0.475,2.014,0
		c0.051-0.419,0.721-0.257,0.93-0.31c-0.076,0.307,0.223,0.241,0.386,0.31c0.103-0.368,0.912-0.393,1.163-0.155
		c0.696-0.087,1.897-0.337,2.556,0.155c0.434-0.065,0.855-0.277,1.394-0.155c0.035,0.17-0.206,0.382-0.155,0.465
		c0.137-0.16,0.24-0.068,0.31-0.155c-0.105-0.129,0.104-0.412,0.388-0.388c0.136,0.07,0.128,0.285,0.309,0.311
		c-0.19-0.315,0.501-0.239,0.542-0.311c-0.059,0.017-0.089,0.065-0.077,0.156c0.512-0.046,1.211-0.325,2.091-0.233
		c0.031,0.133-0.115,0.199,0,0.233c0.146-0.336,0.984-0.296,1.395-0.078c0.082-0.482,0.604,0.172,0.619,0
		c0.001-0.078-0.062-0.092-0.077-0.155c0.851,0.084,2.618-0.166,2.789,0.233c0.165-0.022,0.633-0.488,0.852,0
		c0.214-0.285,0.473-0.137,0.775-0.233c0.083,0.198-0.334,0.271-0.078,0.388c0.121-0.112,0.269-0.196,0.31-0.388
		c0.592,0.104,1.633-0.239,1.858,0.233c-0.041-0.392,1.659-0.296,1.24-0.078c0.338-0.164,0.444-0.14,0.775,0
		c0-0.078-0.063-0.092-0.078-0.155c1.616,0.067,3.037-0.191,4.029,0.388c0.046-0.248-0.146-0.24,0-0.388
		c0.81,0.199,1.444-0.161,2.014,0.388c0.149-0.032,0.007-0.355,0.309-0.233c0.274,0.008-0.164,0.256,0.077,0.233
		c0.249,0.067,0.243-0.12,0.311-0.233c0.256,0.106,0.61,0.113,0.697,0.387V0.777c0.709,0.106,1.245,0.448,1.472-0.156
		c0.247,0.053,0.052,0.352,0.154,0.388c0.334,0.075,0.215-0.302,0.387-0.388c0.591,0.237,1.365-0.177,1.473,0.311
		c-0.076-0.308,0.223-0.241,0.387-0.311c-0.139,0.163-0.25,0.548,0.077,0.62c0.017-0.283,0.106-0.297,0-0.542
		c0.477,0.211,0.523,0.016,0.929-0.155c0.077,0.321,0.183,0.44,0.31,0.542c0.053-0.279,0.203-0.403-0.076-0.542
		c0.569,0.041,0.727,0.019,1.317,0c-0.09,0.159,0.12,0.369,0.154,0.155c-0.043,0-0.088-0.063,0-0.078
		c0.222,0.376-0.053,1.098,0.077,1.395C126.561,2.237,124.849,2.328,124.721,1.938"/>
	<path clip-path="url(#SVGID_18_)" d="M116.355,1.628c-0.003-0.076-0.095-0.06-0.155-0.077
		C116.202,1.627,116.295,1.612,116.355,1.628"/>
	<path clip-path="url(#SVGID_18_)" d="M115.503,1.628c-0.002-0.076-0.094-0.06-0.155-0.077
		C115.35,1.627,115.443,1.612,115.503,1.628"/>
	<path clip-path="url(#SVGID_18_)" d="M115.038,1.938C114.987,1.989,115.071,1.906,115.038,1.938"/>
	<path clip-path="url(#SVGID_18_)" d="M112.172,1.938C112.121,1.989,112.205,1.906,112.172,1.938"/>
	<path clip-path="url(#SVGID_18_)" d="M110.7,1.241V1.086c-0.166-0.036-0.148,0.11-0.156,0.232
		C110.608,1.304,110.622,1.241,110.7,1.241"/>
	<path clip-path="url(#SVGID_18_)" d="M109.229,1.241C109.139,0.935,109.139,1.547,109.229,1.241"/>
	<path clip-path="url(#SVGID_18_)" d="M106.285,1.861C106.025,1.674,106.472,2.121,106.285,1.861"/>
	<path clip-path="url(#SVGID_18_)" d="M105.665,1.473C105.615,1.524,105.698,1.441,105.665,1.473"/>
	<path clip-path="url(#SVGID_18_)" d="M104.814,1.861C104.724,1.555,104.724,2.167,104.814,1.861"/>
	<path clip-path="url(#SVGID_18_)" d="M104.504,1.628C104.452,1.679,104.536,1.597,104.504,1.628"/>
	<path clip-path="url(#SVGID_18_)" d="M103.419,1.628C103.368,1.679,103.452,1.597,103.419,1.628"/>
	<path clip-path="url(#SVGID_18_)" d="M103.419,1.473C103.368,1.524,103.452,1.441,103.419,1.473"/>
	<path clip-path="url(#SVGID_18_)" d="M101.327,1.473c-0.019-0.098-0.154-0.078-0.155,0C101.207,1.586,101.24,1.465,101.327,1.473"
		/>
	<path clip-path="url(#SVGID_18_)" d="M99.623,1.628C99.533,1.323,99.533,1.935,99.623,1.628"/>
	<path clip-path="url(#SVGID_18_)" d="M99.468,1.473C99.379,1.167,99.379,1.779,99.468,1.473"/>
	<path clip-path="url(#SVGID_18_)" d="M98.617,1.318C98.527,1.012,98.527,1.625,98.617,1.318"/>
	<path clip-path="url(#SVGID_18_)" d="M149.459,1.181v0.155h0.31C149.846,1.103,149.596,1.198,149.459,1.181 M140.783,1.491
		c0.07,0.259,0.174,0.067,0.31,0C141.042,1.259,140.928,1.564,140.783,1.491 M151.086,1.181c-0.01,0.139,0.095,0.163,0.077,0.31
		C151.388,1.477,151.35,1.123,151.086,1.181 M142.178,0.716c0.199-0.491,0.743-0.051,1.007,0.078c0.11-0.266,0.616,0.16,0.542-0.233
		c0.295,0.012,0.483,0.008,0.542,0.078c-0.088,0.115-0.103,0.323,0.077,0.387c0.298-0.359,0.642-0.501,1.085-0.232
		c0.71-0.262,1.177-0.39,1.859-0.233c-0.169,0.012-0.166,0.196-0.155,0.388c0.116-0.014,0.286,0.027,0.31-0.078
		c-0.068-0.137-0.245-0.226-0.077-0.387c0.394-0.033,0.134,0.588,0.541,0.542c0-0.183,0.134-0.228,0.078-0.465
		c0.674-0.026,0.932,0.098,1.549,0c0.101,0.193-0.227,0.322,0,0.388c0.246-0.363,1.159-0.237,1.162-0.388
		c0.218,0.092,0.041,0.579,0.388,0.543c0.205-0.468,0.745-0.499,1.239-0.31c0.317-0.362,0.98-0.246,1.24-0.078
		c0.386-0.389,1.226-0.022,1.549,0.155c0.018-0.213,0.228-0.236,0.387-0.31c0.096,0.162,0.225,0.291,0.388,0.388
		c0.367-0.331,1.384-0.228,1.704-0.078V0.639c1.953,0.498,3.686-0.487,5.499,0.31c0.004-0.1,0.1-0.108,0.078-0.233
		c0.328,0.037,0.762,0.371,1.006,0.233c-0.133,0.004-0.198-0.06-0.232-0.155c0.301,0.041,0.319-0.198,0.542-0.233
		c0.063,0.196,0.319,0.198,0.466,0.31c0.537-0.364,1.869-0.324,2.401-0.077c0.065-0.115,0.195-0.166,0.387-0.155
		c0.012,0.091-0.013,0.22,0.077,0.232c0.155-0.102,0.695-0.386,0.853,0c0.12-0.046,0.25-0.071,0.377-0.104
		c-0.111,0.465-0.013,0.936-0.087,1.41c-0.009,0.005-0.204,0.005-0.213,0.011c-0.087-0.443-0.522-0.057-0.774-0.31
		c-0.788,0.5-1.754-0.05-2.944,0.233c0.068-0.249-0.119-0.243-0.233-0.31c0.007,0.135-0.017,0.241-0.077,0.31
		c-0.62-0.188-1.684,0.169-2.246-0.233c-0.23,0.416-1.16,0.366-1.627,0.078c-0.054,0.153-0.207,0.207-0.387,0.232
		c-0.027-0.383-0.204,0.064-0.388,0c-0.083-0.073-0.024-0.286-0.232-0.232c0.004,0.133-0.06,0.198-0.155,0.232
		c-1.045-0.267-2.305,0.244-3.331-0.232c-0.725,0.098-1.095,0.142-2.247,0.232c-0.013-0.116,0.029-0.286-0.076-0.31
		c-0.115,0.015-0.071,0.187-0.078,0.31c-0.32-0.253-0.551-0.007-1.007,0c-0.084-0.198,0.333-0.271,0.078-0.387
		c-0.026,0.36-0.397,0.145-0.388,0.387c-0.292-0.273-0.323,0.132-0.62-0.077c0.091-0.012,0.22,0.013,0.233-0.078
		c-0.838,0.12-1.788-0.301-2.634,0.155c-0.046-0.138,0.227-0.322,0-0.387c-0.234,0.245-0.571,0.435-0.93,0.077
		c-0.099,0.133-0.16,0.305-0.387,0.31c-1.628-0.267-3.905,0.249-5.034-0.232c0.088,0.159-0.122,0.369-0.156,0.155
		c0.157,0.023-0.015-0.224-0.077-0.233c-0.127,0.383-0.553-0.263-0.775,0c0.094,0.009,0.183,0.023,0.155,0.155
		c-0.691-0.363-1.005-0.052-1.627,0.155c-0.247-0.313-0.625-0.022-0.774-0.387c-0.025,0.105-0.111,0.148-0.078,0.31
		c-0.362,0.026-0.636-0.035-0.775-0.233c0.029,0.261-0.335,0.129-0.464,0.233c-0.428-0.271-1.072-0.169-1.782-0.078
		c-0.181-0.443-0.631,0.084-1.007-0.31c-0.045,0.405-0.581,0.188-0.774,0.078c-0.62,0.348-1.138,0.381-1.705,0.077
		c-0.107,0.048-0.011,0.298-0.154,0.31c-0.129-0.154,0.006-0.098,0-0.31c-0.308-0.142-0.321,0.213-0.465-0.155
		c-0.162,0.743-0.953,0.403-1.317,0.233c-0.528,0.453-2.738,0.134-4.26,0.232c-0.135-0.231-0.131-0.874,0.077-1.007
		c-0.287-0.118,0.164-0.341-0.155-0.465c0.019-0.136,0.133-0.176,0.309-0.155c0.149,0.111,0.223,0.294,0.466,0.31
		c-0.012-0.193,0.122-0.24,0.154-0.387c0.34-0.055,0.528,0.04,0.621,0.232c0.297-0.443,0.815,0.179,1.006-0.077
		c-0.043,0.38,0.595,0.418,0.62,0.077c0.007,0.122-0.01,0.269,0.155,0.233c-0.004-0.1-0.099-0.108-0.078-0.233
		c0.417,0.09,1.116-0.267,1.239,0.155c0.24-0.404,0.618,0.054,0.853-0.232c0.072,0.341,0.2,0.143,0.388,0.077
		c0.217-0.033-0.195,0.289,0.077,0.31c0.253-0.896,1.045-0.244,1.549-0.542c0.159,0.021,0.019,0.343,0.232,0.31
		c0.027-0.206,0.204-0.262,0.388-0.31c0.012,0.091-0.014,0.22,0.076,0.232c0.045-0.111,0.122-0.189,0.234-0.232
		c0.115,0.09,0.189,0.223,0.387,0.232c0.553-0.448,1.088-0.006,1.781-0.155c0.031,0.134-0.115,0.199,0,0.233
		c0.065-0.276,0.353,0.113,0.31-0.31c0.549-0.067,0.43,0.331,0.62,0.465c-0.075-0.381,0.376-0.116,0.155-0.465
		c0.736,0.04,1.559-0.053,1.937,0.155C140.918,0.292,141.89,0.55,142.178,0.716"/>
	<path clip-path="url(#SVGID_18_)" d="M167.74,1.8c-0.003-0.075-0.095-0.06-0.155-0.077C167.587,1.798,167.68,1.783,167.74,1.8"/>
	<path clip-path="url(#SVGID_18_)" d="M159.606,1.723c0.085-0.019,0.053-0.154,0.155-0.155
		C159.728,1.354,159.517,1.564,159.606,1.723"/>
	<path clip-path="url(#SVGID_18_)" d="M158.677,1.8C158.87,2.102,158.789,1.543,158.677,1.8"/>
	<path clip-path="url(#SVGID_18_)" d="M158.6,1.413C158.651,1.363,158.567,1.445,158.6,1.413"/>
	<path clip-path="url(#SVGID_18_)" d="M155.191,2.033c-0.002-0.075-0.095-0.06-0.155-0.077
		C155.038,2.031,155.131,2.016,155.191,2.033"/>
	<path clip-path="url(#SVGID_18_)" d="M154.649,1.336C154.617,1.368,154.7,1.285,154.649,1.336"/>
</g>
<rect x="143.65" y="1.491" width="0.155" height="0.154"/>
<g>
	<defs>
		<rect id="SVGID_19_" x="-0.074" y="0.466" width="210.147" height="8.067"/>
	</defs>
	<clipPath id="SVGID_20_">
		<use xlink:href="#SVGID_19_"  overflow="visible"/>
	</clipPath>
	<path clip-path="url(#SVGID_20_)" d="M142.643,1.18h0.155c-0.022,0.126,0.073,0.134,0.077,0.233
		c0.063-0.015,0.077-0.078,0.155-0.078V1.18h-0.232c-0.014-0.065,0.03-0.073,0.077-0.077C142.906,0.952,142.522,0.99,142.643,1.18"
		/>
	<path clip-path="url(#SVGID_20_)" d="M137.607,1.8c-0.002-0.075-0.095-0.06-0.155-0.077C137.454,1.798,137.547,1.783,137.607,1.8"
		/>
	<path clip-path="url(#SVGID_20_)" d="M134.277,1.878c-0.003-0.075-0.095-0.06-0.155-0.077
		C134.123,1.876,134.216,1.861,134.277,1.878"/>
	<path clip-path="url(#SVGID_20_)" d="M132.185,1.568C132.153,1.6,132.236,1.517,132.185,1.568"/>
	<path clip-path="url(#SVGID_20_)" d="M173.344,2.093C173.293,2.144,173.376,2.061,173.344,2.093"/>
	<path clip-path="url(#SVGID_20_)" d="M203.864,1.783c-0.212-0.056-0.156,0.154-0.31,0.155
		C203.602,2.127,203.945,1.979,203.864,1.783 M172.259,0.854c-0.26-0.08-0.121,0.241-0.154,0.387
		C172.346,1.141,172.144,1.081,172.259,0.854 M188.448,1.086c0.025-0.18-0.012-0.297-0.076-0.387
		C188.245,0.685,188.215,1.206,188.448,1.086 M187.055,1.086c0.089-0.065,0.207-0.102,0.387-0.077
		C187.435,0.778,186.98,0.801,187.055,1.086 M207.737,1.938c-0.595,0.47-1.447,0.087-2.402,0.233
		c-0.012-0.092,0.013-0.22-0.077-0.233c0.078,0.424-0.904,0.282-0.853,0c-0.241,0.322-1.358,0.304-1.626,0.078
		c-0.659,0.509-1.562-0.29-2.247,0.077c-0.037-0.091-0.082-0.176-0.154-0.232c-0.011,0.144-0.051,0.259-0.155,0.31
		c-0.187-0.552-1.234,0.104-1.627-0.31c0.191,0.12,0.228-0.263,0.078-0.233c-0.32,0.125-0.61,0.636-0.93,0.31
		c0.115,0.003-0.014-0.389-0.155-0.387c-0.222,0.12,0.162,0.361-0.078,0.465c-0.115-0.256-0.189,0.161-0.386,0.077
		c-0.133-0.074-0.157-0.257-0.31-0.31c-0.663,0.682-1.728-0.086-2.479,0.388c-0.116-0.091-0.091-0.322-0.311-0.31
		c-0.193-0.013-0.241,0.119-0.309,0.232c-0.729-0.482-1.798,0.118-2.556-0.31c0.003,0.107-0.036,0.17-0.078,0.233
		c-0.299-0.012-0.357-0.262-0.697-0.233c0.064,0.219-0.108,0.201-0.077,0.388c-0.46-0.306-1.384,0.214-1.395-0.388
		c-0.28,0.256-0.676,0.433-0.929,0.155c0.03,0.314-0.483,0.086-0.697,0.155c-0.089-0.244,0.122-0.188,0.155-0.31
		c-0.202,0.057-0.455,0.062-0.543,0.233c-0.231-0.312-0.717,0.208-1.007-0.233c-0.123,0.206-0.211,0.139-0.464,0.31
		c-0.224-0.342-0.971-0.142-1.394,0c0.028-0.26-0.337-0.129-0.466-0.232c-0.366,0.432-0.712,0.003-1.161-0.078
		c-0.214-0.033-0.073,0.289-0.233,0.31c-0.505-0.309-1.162-0.045-1.549-0.387c-0.283,0.486-1.513,0.546-2.091,0.077
		c-1.08,0.472-2.515,0.183-3.642,0.31c-0.037-0.091-0.082-0.176-0.154-0.232c-0.076,0.419-1.295,0.295-1.394,0
		c-0.992,0.368-2.353-0.139-3.486,0.232c-0.19-0.103,0.14-0.234-0.078-0.31c-0.161,0.044-0.164,0.121-0.078,0.233
		c-0.24,0.008-0.22-0.244-0.541-0.155c0.021,0.176-0.019,0.291-0.155,0.31c-0.14-0.067-0.243-0.17-0.31-0.31
		c-0.026,0.027-0.161,0.047-0.202,0.067c-0.06-0.452-0.036-0.902-0.109-1.351c0.489,0.04,0.922,0.086,1.24,0.122
		c1.247-0.16,2.651-0.072,4.028-0.155c0.19,0.103-0.085,0.288,0.078,0.31c0.451-0.163,1.66-0.475,2.014,0
		c0.051-0.419,0.721-0.257,0.93-0.31c-0.076,0.307,0.223,0.241,0.386,0.31c0.103-0.368,0.912-0.393,1.163-0.155
		c0.696-0.087,1.897-0.337,2.556,0.155c0.434-0.065,0.855-0.277,1.394-0.155c0.035,0.17-0.206,0.382-0.155,0.465
		c0.137-0.16,0.24-0.068,0.31-0.155c-0.105-0.129,0.104-0.412,0.388-0.388c0.136,0.07,0.128,0.285,0.309,0.311
		c-0.19-0.315,0.501-0.239,0.542-0.311c-0.059,0.017-0.089,0.065-0.077,0.156c0.512-0.046,1.211-0.325,2.091-0.233
		c0.031,0.133-0.115,0.199,0,0.233c0.146-0.336,0.984-0.296,1.395-0.078c0.082-0.482,0.604,0.172,0.619,0
		c0.001-0.078-0.062-0.092-0.077-0.155c0.851,0.084,2.618-0.166,2.789,0.233c0.165-0.022,0.633-0.488,0.852,0
		c0.214-0.285,0.473-0.137,0.775-0.233c0.083,0.198-0.334,0.271-0.078,0.388c0.121-0.112,0.269-0.196,0.31-0.388
		c0.592,0.104,1.633-0.239,1.858,0.233c-0.041-0.392,1.659-0.296,1.24-0.078c0.338-0.164,0.444-0.14,0.775,0
		c0-0.078-0.063-0.092-0.078-0.155c1.616,0.067,3.037-0.191,4.029,0.388c0.046-0.248-0.146-0.24,0-0.388
		c0.81,0.199,1.444-0.161,2.014,0.388c0.149-0.032,0.007-0.355,0.309-0.233c0.274,0.008-0.164,0.256,0.077,0.233
		c0.249,0.067,0.243-0.12,0.311-0.233c0.256,0.106,0.61,0.113,0.697,0.387V0.777c0.709,0.106,1.245,0.448,1.472-0.156
		c0.247,0.053,0.052,0.352,0.154,0.388c0.334,0.075,0.215-0.302,0.387-0.388c0.591,0.237,1.365-0.177,1.473,0.311
		c-0.076-0.308,0.223-0.241,0.387-0.311c-0.139,0.163-0.25,0.548,0.077,0.62c0.017-0.283,0.106-0.297,0-0.542
		c0.477,0.211,0.523,0.016,0.929-0.155c0.077,0.321,0.183,0.44,0.31,0.542c0.053-0.279,0.203-0.403-0.076-0.542
		c0.569,0.041,0.727,0.019,1.317,0c-0.09,0.159,0.12,0.369,0.154,0.155c-0.043,0-0.088-0.063,0-0.078
		c0.222,0.376-0.053,1.098,0.077,1.395C209.577,2.237,207.865,2.328,207.737,1.938"/>
	<path clip-path="url(#SVGID_20_)" d="M199.371,1.628c-0.003-0.076-0.095-0.06-0.155-0.077
		C199.218,1.627,199.311,1.612,199.371,1.628"/>
	<path clip-path="url(#SVGID_20_)" d="M198.518,1.628c-0.002-0.076-0.094-0.06-0.155-0.077
		C198.365,1.627,198.458,1.612,198.518,1.628"/>
	<path clip-path="url(#SVGID_20_)" d="M198.054,1.938C198.003,1.989,198.087,1.906,198.054,1.938"/>
	<path clip-path="url(#SVGID_20_)" d="M195.188,1.938C195.137,1.989,195.221,1.906,195.188,1.938"/>
	<path clip-path="url(#SVGID_20_)" d="M193.716,1.241V1.086c-0.166-0.036-0.148,0.11-0.156,0.232
		C193.624,1.304,193.638,1.241,193.716,1.241"/>
	<path clip-path="url(#SVGID_20_)" d="M192.245,1.241C192.155,0.935,192.155,1.547,192.245,1.241"/>
	<path clip-path="url(#SVGID_20_)" d="M189.301,1.861C189.041,1.674,189.488,2.121,189.301,1.861"/>
	<path clip-path="url(#SVGID_20_)" d="M188.681,1.473C188.631,1.524,188.714,1.441,188.681,1.473"/>
	<path clip-path="url(#SVGID_20_)" d="M187.829,1.861C187.739,1.555,187.739,2.167,187.829,1.861"/>
	<path clip-path="url(#SVGID_20_)" d="M187.519,1.628C187.468,1.679,187.552,1.597,187.519,1.628"/>
	<path clip-path="url(#SVGID_20_)" d="M186.435,1.628C186.384,1.679,186.468,1.597,186.435,1.628"/>
	<path clip-path="url(#SVGID_20_)" d="M186.435,1.473C186.384,1.524,186.468,1.441,186.435,1.473"/>
	<path clip-path="url(#SVGID_20_)" d="M184.343,1.473c-0.019-0.098-0.154-0.078-0.155,0C184.223,1.586,184.256,1.465,184.343,1.473"
		/>
	<path clip-path="url(#SVGID_20_)" d="M182.639,1.628C182.549,1.323,182.549,1.935,182.639,1.628"/>
	<path clip-path="url(#SVGID_20_)" d="M182.484,1.473C182.395,1.167,182.395,1.779,182.484,1.473"/>
	<path clip-path="url(#SVGID_20_)" d="M181.632,1.318C181.542,1.012,181.542,1.625,181.632,1.318"/>
	<path clip-path="url(#SVGID_20_)" d="M181.167,0.931C181.077,0.625,181.077,1.238,181.167,0.931"/>
	<path clip-path="url(#SVGID_20_)" d="M177.914,1.086C177.946,1.054,177.863,1.137,177.914,1.086"/>
</g>
<rect x="174.505" y="0.853" width="0.155" height="0.155"/>
<g>
	<defs>
		<rect id="SVGID_21_" x="-0.074" y="0.466" width="210.147" height="8.067"/>
	</defs>
	<clipPath id="SVGID_22_">
		<use xlink:href="#SVGID_21_"  overflow="visible"/>
	</clipPath>
	<path clip-path="url(#SVGID_22_)" d="M171.795,0.931c0.101-0.028,0.122-0.136,0.232-0.155c-0.013-0.091-0.141-0.066-0.232-0.078
		V0.931z"/>
	<path clip-path="url(#SVGID_22_)" d="M169.735,0.699C169.767,0.667,169.684,0.75,169.735,0.699"/>
</g>
</svg>
