<?xml version="1.0" encoding="utf-8"?>
<!-- Generator: Adobe Illustrator 21.0.0, SVG Export Plug-In . SVG Version: 6.00 Build 0)  -->
<svg version="1.1" id="Layer_1" xmlns="http://www.w3.org/2000/svg" xmlns:xlink="http://www.w3.org/1999/xlink" x="0px" y="0px"
	 viewBox="0 0 46.5 46.1" style="enable-background:new 0 0 46.5 46.1;" xml:space="preserve">
<style type="text/css">
	.st0{fill:none;}
	.st1{fill:#03BDD6;}
</style>
<rect class="st0" width="46.5" height="46.1"/>
<rect class="st0" width="46.5" height="46.1"/>
<path class="st1" d="M42.9,33.2c2.5-5.7,5.6-15.8,2.1-15.8c-0.3-0.9-1-2.6-1.6-3.9c0,0-0.1,0-0.2-0.1c0,0,0.1,0,0.1,0
	c-0.4-0.8-0.8-1.5-1.1-1.6c0.2,0,0.4,0,0.5,0c-0.3-0.4-0.6-0.9-1-1.4c0,0-0.1,0-0.2,0.1c0,0,0.1-0.1,0.2-0.1
	c-0.1-0.2-0.3-0.4-0.5-0.6c-0.1,0.1-0.2,0.2-0.2-0.1c0,0,0,0,0,0c-0.7-0.8-1.6-1.7-2.5-2.5c-0.1,0.1-0.3,0.1-0.3-0.2
	c0,0,0.1,0,0.1,0c-4.8-4.2-11.8-8.1-14.8-6.6c0.2-0.1-0.4,0,0,0c-0.5,0-1.2,0-1.9,0.1c0,0,0,0-0.1,0c-0.2,0-0.5,0-0.7,0.1
	c0,0,0,0.1-0.1,0.1c0,0,0-0.1,0.1-0.1c-1.1,0.1-2.1,0.2-2.1,0.1c0,0.3-5.4,1.1-4,1.1c0.1,0,0.1,0,0.3,0c-0.9,0-2.9,1.1-4.5,2.1
	c-3-1-8.1,9.2-9.9,15.6c0,0,0,0-0.1,0c0,0,0,0,0.1,0C0.2,21,0,22.3,0,23.2c0,0.2,0.3,1.3,0.8,3c0,0,0,0.1,0,0.1c0,0,0,0,0.1-0.1
	c0.2,0.7,0.5,1.5,0.8,2.4c0.2-0.2,0.4-0.3,0.5,0.3C2,29,1.9,29.1,1.8,29.2c0.6,1.7,1.2,3.5,1.9,5.1c0.1-0.1,0.2-0.2,0.2,0.2
	c0,0-0.1,0-0.1,0c0.5,1.2,1,2.4,1.5,3.3c0,0,0-0.1,0-0.1c0.1,0,0.2,0.1,0.1,0.2c0,0-0.1,0-0.1-0.1c1,2,2,3.2,2.6,2.7
	c0.4,0.3,5.3,4,5.9,3.8c0,0,0,0,0,0.1c0,0,0,0,0-0.1c0,0,0.1,0,0.1-0.1c2,0.7,3.3,1,3.7,1c-2,0,5.6,1.5,2.6,0.1
	c0-0.4,1.9-0.4,1.9,0.2c-2,0.9,0.4,0.4,0.4,0.6c0.9,0,3.4-0.5,4.7-0.5c3.9,0,6.6-2,8.6-4c-0.1-0.2-0.1-0.6,0.2-0.2c0,0,0,0,0,0.1
	c1.8-1.9,3-3.8,3.8-4.3c0,0-0.1,0-0.1,0c-0.4-1,0.8-0.2,1-0.2C40.8,37.5,41.7,35.9,42.9,33.2C42.8,33.3,42.7,33.2,42.9,33.2z
	 M0.4,21.1C0.3,21.1,0.8,20.5,0.4,21.1L0.4,21.1z M0.5,20.8C0.5,20.6,0.7,20.8,0.5,20.8L0.5,20.8z M21.9,45.9
	C21.8,45.8,21.7,45.6,21.9,45.9L21.9,45.9z M42.9,27.1C43,27.2,42,27.1,42.9,27.1L42.9,27.1z M42.5,23.3
	C42.5,23.3,42.2,23.3,42.5,23.3L42.5,23.3z M42.5,25.7C42.4,25.6,42.5,25.5,42.5,25.7L42.5,25.7z M42,28.3
	C42.2,28.1,41.9,28.5,42,28.3L42,28.3z M42,23.5C42.1,23.6,41.8,24.2,42,23.5L42,23.5z M42,22.8c0,0,0-0.1,0-0.1
	C43.3,22.7,41.5,23.7,42,22.8z M42.1,21.6C41.8,21.6,42.1,21.5,42.1,21.6L42.1,21.6z M42.6,23.7C42.5,23.3,43.2,24.1,42.6,23.7
	L42.6,23.7z M43.1,14.3C42.8,14.6,43.1,13.7,43.1,14.3L43.1,14.3z M43.1,19.3C43.1,18.9,43.2,19.2,43.1,19.3L43.1,19.3z M43.1,27.2
	C43.2,27.2,43.1,27.5,43.1,27.2L43.1,27.2z M43.3,28.3C43,28.8,43,28.1,43.3,28.3L43.3,28.3z M44.2,29.8
	C44.2,29.9,44,29.7,44.2,29.8L44.2,29.8z M45.1,24.8C45,25.2,44.7,24.5,45.1,24.8L45.1,24.8z M45.7,24c0,0-0.1,0-0.2-0.1
	C45.5,23.9,45.7,24,45.7,24C45.7,24,45.7,24,45.7,24z M45.6,21.7C45.6,21.7,45.7,22,45.6,21.7L45.6,21.7z M45.3,19.1
	C45.3,19,45.7,19.3,45.3,19.1L45.3,19.1z M45,23.9C45.3,23.9,45,24,45,23.9L45,23.9z M45,20.7C44.9,20.4,45.1,20.9,45,20.7L45,20.7z
	 M44.8,17.5C44.8,17,45.1,17.8,44.8,17.5L44.8,17.5z M44.3,29.3C44.4,29.8,43.4,29.3,44.3,29.3L44.3,29.3z M43.9,22.4
	C44.2,22.6,43.4,22.3,43.9,22.4L43.9,22.4z M43.8,23.7C43.8,23.5,43.8,23.6,43.8,23.7L43.8,23.7z M44.1,25.6
	C44.3,25.9,44.2,26.1,44.1,25.6L44.1,25.6z M44.2,24C44,24,44.2,23.6,44.2,24L44.2,24z M44,24.8C44.1,24.7,44.2,24.7,44,24.8
	L44,24.8z M43.9,15.2C43.9,14.7,44.3,15.3,43.9,15.2L43.9,15.2z M43.9,19.1C43.9,19.1,44,18.8,43.9,19.1L43.9,19.1z M43.7,20
	C44.2,19.9,43.7,20.6,43.7,20L43.7,20z M43.9,24.1C43.7,24.3,43.4,23.7,43.9,24.1L43.9,24.1z M43.6,19.1
	C43.2,19.8,43.4,19.1,43.6,19.1L43.6,19.1z M43.5,23.6C43.3,24,43.3,23.4,43.5,23.6L43.5,23.6z M43.1,15.9
	C43.6,16,43.1,16,43.1,15.9L43.1,15.9z M42.8,13.6c-0.1,0-0.1,0-0.1-0.1C42.9,13.5,42.9,13.6,42.8,13.6z M43.3,14.1
	c-0.3,0-0.4-0.1-0.5-0.3C43,13.8,43.2,14,43.3,14.1z M42.8,17.9C42.8,17.9,42.5,18.2,42.8,17.9L42.8,17.9z M42.3,16.5
	C42.3,15.6,43.1,16.3,42.3,16.5L42.3,16.5z M42.4,15C42.4,15.4,41.9,15,42.4,15C42.3,15,42.4,15,42.4,15z M42.1,12.2
	C42.5,12.2,42.1,12.6,42.1,12.2L42.1,12.2z M42,19.7C42.5,19.4,42.8,20.2,42,19.7L42,19.7z M42,18.7C41.9,19.2,41.5,18.8,42,18.7
	L42,18.7z M41.8,20.6C41.8,20.4,41.8,20.8,41.8,20.6L41.8,20.6z M41.1,23.2c0,0-0.2-0.7-0.2-0.8c0,0,0.4-0.2,0.4,0.6
	C41.3,24.1,40.6,23.8,41.1,23.2z M41.1,28.9C41.2,29.3,40.8,28.6,41.1,28.9L41.1,28.9z M40.9,26C40.1,24,40.9,24.8,40.9,26L40.9,26z
	 M40.9,27.3C40.9,27.4,40.5,27.4,40.9,27.3L40.9,27.3z M40.6,19.1C40.7,19.1,40.9,19.4,40.6,19.1L40.6,19.1z M40.7,15.9
	c0-0.1,0-0.1,0.1-0.1C40.8,15.9,40.8,15.9,40.7,15.9z M40.4,14.1c-0.2,0,0-0.2,0.1-0.3C40.5,13.7,41.7,13.9,40.4,14.1z M40.4,14.6
	C40.6,14.5,40.5,14.6,40.4,14.6L40.4,14.6z M40,14.4C39.9,14.4,39.9,14.4,40,14.4c0-0.1,0-0.1,0-0.2c0.1,0.1,0.1,0.1,0.1,0.2
	C40.2,14.7,40,15,40,14.4c0,0,0.1,0,0.1,0C40.1,14.4,40,14.4,40,14.4z M40.3,12.2C39.7,12.1,40.8,12.2,40.3,12.2L40.3,12.2z
	 M40.8,12.2C40.8,12.3,40.5,12.3,40.8,12.2L40.8,12.2z M40.8,13.2C41,13.3,40.8,13.3,40.8,13.2L40.8,13.2z M40.9,11.2
	C41.2,11.2,40.9,11.4,40.9,11.2L40.9,11.2z M41,12.1C41.4,12.9,40.9,12.6,41,12.1L41,12.1z M41.3,17.3C40.6,17.5,41.3,17,41.3,17.3
	L41.3,17.3z M41.5,13.6C41.1,14.2,41.4,13.6,41.5,13.6L41.5,13.6z M41.1,20.8C41.4,20.1,41.4,21,41.1,20.8L41.1,20.8z M41.1,22.3
	C40.8,21.8,41.3,22.5,41.1,22.3L41.1,22.3z M41.2,19.4C40.7,19.9,41,19.3,41.2,19.4L41.2,19.4z M41.2,17.6
	C41.2,17.1,41.2,17.8,41.2,17.6L41.2,17.6z M41.3,26C41,25.8,41.6,26.1,41.3,26L41.3,26z M41.5,25.4C41.1,25,41.5,25.2,41.5,25.4
	L41.5,25.4z M41.5,18.9C41.5,18.8,41.5,19.1,41.5,18.9L41.5,18.9z M41.5,17.7C42.1,18,41.2,17.6,41.5,17.7L41.5,17.7z M41.5,17.6
	C41.9,17.7,41.5,17.9,41.5,17.6L41.5,17.6z M41.6,19.5C41.5,19.2,42,19.6,41.6,19.5L41.6,19.5z M42,11.4C42,11.4,41.9,11.8,42,11.4
	L42,11.4z M41.7,11.1C41.8,11.1,41.8,11.5,41.7,11.1L41.7,11.1z M41.6,12.4C42.3,12.4,41.8,13.7,41.6,12.4L41.6,12.4z M41.6,10.5
	C41.6,11.1,41.2,10.3,41.6,10.5L41.6,10.5z M41.4,13.1C41.7,13.5,40.7,13.2,41.4,13.1L41.4,13.1z M40.5,9.9
	C42,10,40.8,10.8,40.5,9.9L40.5,9.9z M40.5,11.7c0-0.1,0-0.1,0-0.1c-0.1-0.1-0.3-0.2-0.3-0.2C41.4,10.2,40.5,12.4,40.5,11.7z
	 M40.1,11.5c-0.2,0-0.1,0-0.1-0.2C39.9,10.9,40.1,11.5,40.1,11.5z M39.9,10.9C40,11,39.8,11.1,39.9,10.9L39.9,10.9z M39.7,9.4
	C39.7,9.4,40.2,9.1,39.7,9.4L39.7,9.4z M39.8,13.7C40.5,14,39,13.9,39.8,13.7L39.8,13.7z M39.8,23.6C39.8,24.1,39.5,23.4,39.8,23.6
	L39.8,23.6z M39.8,27.4C39.7,27.2,39.8,27.1,39.8,27.4L39.8,27.4z M39,23C39.8,23.4,39.2,24.3,39,23L39,23z M39.3,24.9
	C39,24.6,39.3,24.7,39.3,24.9L39.3,24.9z M39.6,19.4C39.7,19,39.8,19.4,39.6,19.4L39.6,19.4z M39.7,23C39.8,23.6,39.6,22.7,39.7,23
	L39.7,23z M39.5,20C39.8,20.2,39.5,20.3,39.5,20L39.5,20z M39.4,19.9C39.3,19.9,39.8,19.3,39.4,19.9L39.4,19.9z M39.4,18.2
	C39.5,18.3,39,18.6,39.4,18.2L39.4,18.2z M39.2,16.6c0,0,0.1,0,0.2,0.1c0,0,0,0,0,0C39.2,16.7,39.2,16.7,39.2,16.6z M39.4,24.8
	C39.5,24.3,39.7,25.1,39.4,24.8L39.4,24.8z M39.5,29.5C39.3,28.9,40,29.5,39.5,29.5L39.5,29.5z M39.7,24.2
	C39.7,24.6,39.6,24.5,39.7,24.2L39.7,24.2z M39.6,18.6C39.4,18.6,39.5,18.3,39.6,18.6L39.6,18.6z M39.4,14.6
	C39.4,14.6,39.7,14.5,39.4,14.6L39.4,14.6z M39.4,11.6C39.5,11.4,39.4,11.8,39.4,11.6L39.4,11.6z M39.4,15.2
	C39.5,15,39.3,15.4,39.4,15.2L39.4,15.2z M39.4,16.7c0,0-0.1,0-0.1-0.1C39.3,16.6,39.3,16.6,39.4,16.7z M39.2,13.8
	C39.2,13.9,39,14,39.2,13.8L39.2,13.8z M39.1,14.4C39.5,14.5,38.9,15,39.1,14.4L39.1,14.4z M39,12.5C39,13.3,38.6,12.6,39,12.5
	L39,12.5z M38.9,18.2C38.7,18.1,38.9,18.1,38.9,18.2L38.9,18.2z M38.8,19.5C38.8,19.4,39.1,19.4,38.8,19.5L38.8,19.5z M38.9,21.2
	c-0.1,0-0.3-0.1-0.2-0.2C38.8,21.1,38.9,21.1,38.9,21.2z M38.8,14.9C38.8,16.6,38.2,14,38.8,14.9L38.8,14.9z M38.3,34.6
	C38.3,34.7,38.3,34.7,38.3,34.6L38.3,34.6z M37,29.2C37.8,29.3,36.6,29.7,37,29.2L37,29.2z M37.2,29.6
	C37.2,29.4,37.4,29.9,37.2,29.6L37.2,29.6z M36.8,29.5C37.2,29.6,36.6,29.4,36.8,29.5L36.8,29.5z M36.8,29.1c0-0.1-0.4-0.2-0.4-0.3
	c0.9-1.3,0.5-0.1,0.8,0.3C37.1,28.9,37.1,28.6,36.8,29.1z M35.5,18.6c-0.4,0,0.6-1.8,0.7,0C35.7,18.5,36,18.6,35.5,18.6z M36,19.9
	C35.9,20.2,35.5,20.4,36,19.9L36,19.9z M35.8,27.1C35.4,27.1,35.9,27.1,35.8,27.1L35.8,27.1z M35.5,29.4
	C35.4,28.9,35.9,29.4,35.5,29.4L35.5,29.4z M35.3,18.2C35.1,18.2,35.4,17.9,35.3,18.2L35.3,18.2z M35.2,29.3
	C35.3,29,35.4,29.3,35.2,29.3L35.2,29.3z M35.3,21C35.3,21,35.6,20.9,35.3,21L35.3,21z M35.6,9.1C36,8.9,35.6,9.6,35.6,9.1L35.6,9.1
	z M35.6,7.9C35.6,7.4,35.6,8.3,35.6,7.9L35.6,7.9z M36,16.7C36.1,16.8,35.7,17.4,36,16.7L36,16.7z M36,14.8
	C35.8,14.9,36,14.8,36,14.8L36,14.8z M35.9,13.1C35.8,12.8,36.9,13,35.9,13.1L35.9,13.1z M36.8,10.1C37,10.3,36.3,10.1,36.8,10.1
	L36.8,10.1z M36.8,9.5C36.8,9.9,36.5,9.4,36.8,9.5L36.8,9.5z M36.4,18.4C36.8,17.8,37.3,19,36.4,18.4L36.4,18.4z M36.9,16.5
	C36.9,16.5,36.9,16,36.9,16.5L36.9,16.5z M36.7,19.9C36.7,20,36.5,20.1,36.7,19.9L36.7,19.9z M36.7,22.9
	C36.5,23.1,36.6,22.9,36.7,22.9L36.7,22.9z M36.5,11.1C37.1,10.5,36,11.6,36.5,11.1L36.5,11.1z M36.5,16.5
	C36.5,16.5,36.1,16.5,36.5,16.5L36.5,16.5z M36.3,23.5C37.2,23.4,36.3,24.5,36.3,23.5L36.3,23.5z M36.6,28.3
	C36.6,28.3,36.9,28.1,36.6,28.3L36.6,28.3z M36.9,27.8C36.7,27.6,37.4,27.6,36.9,27.8L36.9,27.8z M37.4,26.4
	C35.6,26.5,37.4,26.2,37.4,26.4L37.4,26.4z M38.3,13.7c0-0.1-0.1-0.3,0.1-0.3C38.6,13.4,39,13.7,38.3,13.7z M38.5,12.6
	C38.5,12.5,38.7,12.4,38.5,12.6L38.5,12.6z M38.5,17.2C38.3,17.2,38.6,16.9,38.5,17.2C38.5,17.2,38.5,17.2,38.5,17.2z M38.5,17.4
	C38.7,17.2,38.4,17.5,38.5,17.4L38.5,17.4z M38.4,21.7C38.4,21.7,38,22.1,38.4,21.7L38.4,21.7z M38,15.1
	C38.4,14.4,38.5,15.1,38,15.1L38,15.1z M38.2,12.5C38.3,12.3,38.4,12.6,38.2,12.5L38.2,12.5z M38.1,14.5
	C38.1,14.4,38.3,14.3,38.1,14.5L38.1,14.5z M37.7,9.7C38.3,8.4,38.1,11.3,37.7,9.7L37.7,9.7z M38,18.6C37.7,19.1,37.7,18.4,38,18.6
	L38,18.6z M37.9,19.5C37.8,19.4,38,19.3,37.9,19.5L37.9,19.5z M37.9,11.6C38,11.2,37.8,11.9,37.9,11.6L37.9,11.6z M37.9,10.8
	C38,10.8,38,10.9,37.9,10.8C37.8,11.1,37.9,10.8,37.9,10.8z M37.8,15.6C38.1,15.9,37.4,15.5,37.8,15.6L37.8,15.6z M37.7,18
	C38.1,17.9,36.7,18.3,37.7,18L37.7,18z M37.3,16.1C36.8,16,37.2,15.4,37.3,16.1L37.3,16.1z M37,12.5C37.1,12.2,37.1,12.4,37,12.5
	L37,12.5z M37.4,16.8C37.3,17.2,37.3,16.7,37.4,16.8L37.4,16.8z M37.3,17.9C37.1,17.7,37.4,17.9,37.3,17.9L37.3,17.9z M37.5,19.3
	c-0.1,0-0.1-0.1-0.2-0.1C37.3,19.3,37.6,19,37.5,19.3z M37.7,20.3C37.5,20.5,37.5,20.3,37.7,20.3L37.7,20.3z M37.6,20.7
	C37.9,20.9,37.6,20.7,37.6,20.7L37.6,20.7z M37.6,12.3C37.1,13.1,37.3,12.4,37.6,12.3L37.6,12.3z M37.1,11.4
	C37.1,11.4,37.7,11.3,37.1,11.4L37.1,11.4z M37.3,10.1C36.9,10.4,37,10,37.3,10.1L37.3,10.1z M37,17.6C37.1,17.6,37.2,18,37,17.6
	L37,17.6z M38.1,22.9C36.2,23.9,38.3,21.7,38.1,22.9L38.1,22.9z M37.9,21.9C37.8,21.8,38.2,21.4,37.9,21.9L37.9,21.9z M38.2,20.9
	C38.1,21.6,36.8,22.1,38.2,20.9L38.2,20.9z M38.3,25.3C37.9,25.4,38.2,24.8,38.3,25.3L38.3,25.3z M38.3,26.1
	C38.6,25.7,38.5,26.2,38.3,26.1L38.3,26.1z M38.2,25.1C38.2,24.5,39.1,25.3,38.2,25.1L38.2,25.1z M38.5,17
	C38.7,16.7,38.8,17,38.5,17L38.5,17z M38.7,10.6C38.5,10.4,38.7,10.5,38.7,10.6L38.7,10.6z M38.6,9.8C38.5,10.1,38.5,9.8,38.6,9.8
	L38.6,9.8z M37.2,8.7c0-0.4-0.4-0.7,0.7-0.3C39.6,9.1,37.2,8,37.2,8.7z M36.4,6.6c0-0.3-0.2-0.1-0.4-0.5C39.5,6.5,36.4,6.1,36.4,6.6
	z M36.3,9.8c-0.1-0.1-0.3-0.2-0.4-0.3C36.1,9.5,36.2,9.6,36.3,9.8z M36.1,11.1C36.4,12.2,35.6,10.3,36.1,11.1L36.1,11.1z M35.9,11.5
	C35.9,11.3,36.1,11.5,35.9,11.5L35.9,11.5z M36.3,11.7c0.1,0.2,0.1,0.3,0.2,0.3c0,0,0,0,0,0.1C36.4,11.6,35.2,11.9,36.3,11.7z
	 M35.7,6.6C35.4,6.1,36.1,6.6,35.7,6.6L35.7,6.6z M35.7,12.6C35.8,13,35.3,12.5,35.7,12.6L35.7,12.6z M35.5,11
	C35.4,11.3,35.4,11.1,35.5,11L35.5,11z M35.5,8.6C35.4,8.8,35.2,8.5,35.5,8.6L35.5,8.6z M35.4,7.6C36,8.1,35,7.3,35.4,7.6L35.4,7.6z
	 M35.1,14C35.3,13.4,35.3,14.3,35.1,14L35.1,14z M35.1,15.5C34.7,15.1,35.2,15.7,35.1,15.5L35.1,15.5z M35.1,7.2
	C34.9,7.4,34.9,7.2,35.1,7.2L35.1,7.2z M34.9,6.5C35,6.5,35,6.5,34.9,6.5C34.8,6.8,34.9,6.5,34.9,6.5z M34.7,5.1
	c0.1,0,0.1,0,0.1,0.1c0.5-0.7,0.2,1.7-0.1,0.2c0-0.1,0.1-0.1,0.1-0.2C34.7,5.2,34.7,5.1,34.7,5.1z M34.6,13
	C35.3,11.9,35.2,12.4,34.6,13L34.6,13z M34.9,20.2C33.4,19.7,35.2,19.7,34.9,20.2L34.9,20.2z M34.7,39.3
	C34.9,39.3,34.7,39.4,34.7,39.3L34.7,39.3z M34.2,19.1C34.2,19,34.7,19,34.2,19.1L34.2,19.1z M34.2,17.3
	C34,17.6,34.1,17.3,34.2,17.3L34.2,17.3z M34.5,18.1C34.4,17.6,34.9,18.1,34.5,18.1L34.5,18.1z M34.7,17.3
	C34.8,17.5,34.4,17.1,34.7,17.3L34.7,17.3z M34.4,18.3C34.4,17.7,35,18.7,34.4,18.3L34.4,18.3z M34.5,17.1
	C34.6,17.3,34.3,17.1,34.5,17.1L34.5,17.1z M34.2,17.1C34.4,16.7,34.7,17.1,34.2,17.1L34.2,17.1z M34.2,17.2
	C34.4,17.4,34.2,17.3,34.2,17.2L34.2,17.2z M34.2,25.9C34.1,25.6,34.5,25.9,34.2,25.9L34.2,25.9z M34.2,23.3
	C34.2,23,34.6,23.3,34.2,23.3L34.2,23.3z M34.8,31.7C34.7,31.2,35.3,32,34.8,31.7L34.8,31.7z M35,29.1C34.9,28.8,35.2,29.1,35,29.1
	L35,29.1z M35,17.6C34.7,18.2,34.4,17.4,35,17.6L35,17.6z M34.5,13.4C34.4,13.3,34.5,13.3,34.5,13.4L34.5,13.4z M34.4,13.6
	C34.4,13.6,34.8,13.9,34.4,13.6L34.4,13.6z M34.3,7C34.6,7,33.9,7.3,34.3,7L34.3,7z M34.2,5.7C33.9,6.1,34,5.7,34.2,5.7L34.2,5.7z
	 M34,13.9C33.9,13.7,34.2,14.2,34,13.9L34,13.9z M33.9,34.1C34.2,34,33.8,34.3,33.9,34.1L33.9,34.1z M33.8,5.7
	C34,6,33.3,5.7,33.8,5.7L33.8,5.7z M33.7,27.4C33.7,27.1,33.7,27.8,33.7,27.4L33.7,27.4z M33.6,23.7C33.7,23.5,33.7,23.7,33.6,23.7
	L33.6,23.7z M33.6,21.6C33.7,21.6,33.8,21.9,33.6,21.6L33.6,21.6z M33.7,21.1C33,21.1,33.7,20.7,33.7,21.1L33.7,21.1z M33.3,35.8
	C32.2,35.3,33.9,36.1,33.3,35.8L33.3,35.8z M33,37.1C32.9,37.1,33.1,36.9,33,37.1L33,37.1z M31.4,35.9C32.3,35.8,31.4,36,31.4,35.9
	L31.4,35.9z M31.1,32.7C30.9,32.8,30.9,32.6,31.1,32.7L31.1,32.7z M31,35.3C31.2,35.3,31,35.4,31,35.3L31,35.3z M30.9,38.4
	C30.8,38.8,30.3,38.2,30.9,38.4L30.9,38.4z M30.6,33.1C30.8,33,30.7,33.6,30.6,33.1L30.6,33.1z M31,33C30.8,33.3,30.7,32.7,31,33
	L31,33z M30.4,29.2c-0.1,0,0-0.2,0-0.2C30.5,29,30.4,29.1,30.4,29.2z M30.3,33.5C30.3,33.5,30.7,33.4,30.3,33.5L30.3,33.5z
	 M30.3,25.3C30.7,24.9,30,25.5,30.3,25.3L30.3,25.3z M29.8,33.7C29.9,33.4,30.1,33.9,29.8,33.7L29.8,33.7z M29.9,33.3
	C30.1,33.4,29.8,33.5,29.9,33.3L29.9,33.3z M29.9,30.6C29.8,30.3,30.2,30.6,29.9,30.6L29.9,30.6z M28.7,25.2
	C27.8,24.7,28.9,25.3,28.7,25.2L28.7,25.2z M28.4,28.3C28.2,28.5,28.5,28,28.4,28.3L28.4,28.3z M28.7,27.5
	C29,27.5,28.7,27.6,28.7,27.5L28.7,27.5z M28.9,26.9C28.5,26.7,29.1,26.7,28.9,26.9L28.9,26.9z M29.2,13.9
	C28.6,13.8,28.8,13.6,29.2,13.9L29.2,13.9z M28.9,15.4C29,15.8,28.5,15.3,28.9,15.4L28.9,15.4z M29,9.5C28.5,9.5,29.4,9.2,29,9.5
	L29,9.5z M29.7,13.3C29.7,13.3,29.3,13.2,29.7,13.3L29.7,13.3z M29.6,20.5C29.9,20.2,29.5,20.8,29.6,20.5L29.6,20.5z M29.6,22.7
	C29.1,22.6,29.6,22.5,29.6,22.7L29.6,22.7z M29.5,14C29.3,13.9,29.4,13.8,29.5,14L29.5,14z M29.4,12.4C29.4,12.5,29,12.3,29.4,12.4
	L29.4,12.4z M29.2,17.8C29.4,17.6,29.2,17.8,29.2,17.8L29.2,17.8z M29.2,17.7C28.9,17.4,29.2,17.5,29.2,17.7L29.2,17.7z M29.2,18.8
	C29.4,18.8,29.4,18.9,29.2,18.8L29.2,18.8z M29.3,16.4C28.9,16.5,29.2,16.2,29.3,16.4L29.3,16.4z M29.1,15.9
	C29.1,15.3,29.4,16.1,29.1,15.9L29.1,15.9z M28.9,14.7C29,14.7,29.2,14.7,28.9,14.7L28.9,14.7z M29.4,20.9
	C29.3,21.4,28.5,21,29.4,20.9L29.4,20.9z M29,28.1C28.9,28,29.2,27.9,29,28.1L29,28.1z M29,28.5C29.4,28.6,29,28.5,29,28.5L29,28.5z
	 M29,23.8C28.9,23.8,29.7,23.5,29,23.8L29,23.8z M29.4,24C29.6,24.2,28.8,24.1,29.4,24L29.4,24z M29.4,27.8
	C29.5,27.9,29.3,28,29.4,27.8L29.4,27.8z M29.3,28.6C29.4,28.5,29.7,28.8,29.3,28.6L29.3,28.6z M29.5,29.4
	C29.8,28.5,29.7,29.6,29.5,29.4L29.5,29.4z M29.7,14.1C29.9,14.4,29.9,14.3,29.7,14.1L29.7,14.1z M31,16C30.8,16,31.2,15.6,31,16
	L31,16z M31,29C31,29,31.1,28.7,31,29L31,29z M30.7,22.8C31.1,22.7,30.4,23.1,30.7,22.8L30.7,22.8z M30.7,16.9c0.1,0,0,0.1,0,0.2
	C30.7,17,30.7,16.9,30.7,16.9z M30.9,17.1c0,0.1-0.1,0.1-0.1,0.2C30.7,17.3,30.9,17.1,30.9,17.1z M31,15C31.2,15.2,30.7,15,31,15
	L31,15z M31,9.6C30.9,9.4,31.1,9.8,31,9.6L31,9.6z M30.7,6.1C30.7,6.4,30.3,6,30.7,6.1C30.7,6.1,30.7,6.1,30.7,6.1
	C31.1,6,31.2,7.2,30.7,6.1z M30.7,8.9C30.5,9.4,30.3,8.8,30.7,8.9L30.7,8.9z M30.7,2.9C30.6,3.1,30.2,2.8,30.7,2.9L30.7,2.9z
	 M30.2,8.8C30.1,8,31,9,30.2,8.8L30.2,8.8z M30.1,5.7C30.4,5.7,30.1,6.2,30.1,5.7L30.1,5.7z M30.2,26.7C30,27.2,29.7,26.3,30.2,26.7
	L30.2,26.7z M30,27.2C29.9,27,30.2,27.3,30,27.2L30,27.2z M30.1,14.4C29.8,14.9,29.9,14.3,30.1,14.4L30.1,14.4z M30,13.3
	C30.1,13.4,30,13.6,30,13.3L30,13.3z M30.2,19.9C29.9,20.2,29.8,19.7,30.2,19.9L30.2,19.9z M30,7.6C29.7,7.9,30,6.9,30,7.6L30,7.6z
	 M29.9,20.3C30.1,20.3,29.9,20.9,29.9,20.3L29.9,20.3z M30.2,5.4C30.1,5.6,29.2,4.8,30.2,5.4L30.2,5.4z M29.7,8.4
	C29.8,8.3,30,8.2,29.7,8.4L29.7,8.4z M29.8,19.4C29.9,19.7,29.7,19.2,29.8,19.4L29.8,19.4z M29.7,27.4C29.9,26.8,30,27.6,29.7,27.4
	L29.7,27.4z M30,35.3C30.4,35,30.1,35.4,30,35.3L30,35.3z M30.1,29.5C30.3,29,30.4,30.1,30.1,29.5L30.1,29.5z M30.4,20.8
	C30.4,20.7,30.4,20.7,30.4,20.8C30.6,20.7,30.5,20.7,30.4,20.8z M30.5,14.8c-0.1,0.2,0.1,0.3,0.1,0.4C30.4,15.2,30.3,14.9,30.5,14.8
	z M30.7,13.1C30.3,13.3,30.1,13,30.7,13.1L30.7,13.1z M30.6,23.7C30.8,23.7,30.7,23.7,30.6,23.7L30.6,23.7z M30.9,27.1
	C31.1,27.8,30.2,27.1,30.9,27.1L30.9,27.1z M30.9,30.8C30.9,30.8,31.3,30.7,30.9,30.8L30.9,30.8z M31.2,34.9
	C31.1,34.8,31,34.5,31.2,34.9L31.2,34.9z M31.4,9.3C31.4,9.3,31.8,9.5,31.4,9.3L31.4,9.3z M31.5,9.1C31.4,8.9,31.5,8.9,31.5,9.1
	L31.5,9.1z M31.4,12C30.9,11.9,31.4,12,31.4,12L31.4,12z M31.2,23.5C31.8,23.7,30.9,23.3,31.2,23.5L31.2,23.5z M31.3,18.9
	C31.3,19.2,31.1,18.9,31.3,18.9L31.3,18.9z M31.5,20.1C31.1,20.5,31.6,19.7,31.5,20.1L31.5,20.1z M31.6,24.5
	C31.5,24.8,31.5,24.5,31.6,24.5L31.6,24.5z M31.5,21.8C31.4,21.9,31.4,21.9,31.5,21.8L31.5,21.8z M31.4,25.9
	C30.8,26.3,32,25.6,31.4,25.9L31.4,25.9z M31.4,31C31.6,30.3,31.7,31,31.4,31L31.4,31z M31.7,27.9C31.7,28.3,31.3,27.7,31.7,27.9
	L31.7,27.9z M31.3,15.4C32.2,16,31.1,17.3,31.3,15.4L31.3,15.4z M31.2,20.6C31.3,20.6,31.3,20.9,31.2,20.6L31.2,20.6z M31.3,22.1
	C31.3,22.8,31,21.8,31.3,22.1L31.3,22.1z M31.4,35.9C30.6,34.9,32.3,35.5,31.4,35.9L31.4,35.9z M31.5,33C32.1,33,31.6,33.5,31.5,33
	L31.5,33z M31.7,29.6C32.1,30,31.4,29.5,31.7,29.6L31.7,29.6z M31.4,14.6C32.9,14.1,31.6,14.9,31.4,14.6L31.4,14.6z M31.8,12.7
	C31.8,12.6,32,12.5,31.8,12.7L31.8,12.7z M32,9.7C32.3,9,32.3,9.9,32,9.7L32,9.7z M32.2,20.6C32.2,20.6,31.9,20.8,32.2,20.6
	L32.2,20.6z M32.3,29.5C32.7,31,31.4,29.5,32.3,29.5L32.3,29.5z M32.7,14.3c0.1,0,0.2,0.1,0.2,0.2C32.8,14.4,32.6,14.4,32.7,14.3z
	 M32.7,9.1C32.6,9,32.7,9,32.7,9.1L32.7,9.1z M32.8,12.7C32.8,12.6,33,12.6,32.8,12.7L32.8,12.7z M32.8,4.7
	C32.8,5.2,32.4,4.5,32.8,4.7L32.8,4.7z M32.5,16.6C33.5,16.1,33.2,16.5,32.5,16.6L32.5,16.6z M33,11.9C32.7,12.2,33,11.2,33,11.9
	L33,11.9z M33.1,12.5C32.8,12.4,33.3,12.7,33.1,12.5L33.1,12.5z M33.4,19.8C32.9,19.9,33.5,19.6,33.4,19.8L33.4,19.8z M33.4,12.7
	C33,12.8,33.4,12.4,33.4,12.7L33.4,12.7z M33.2,33.9C33.5,33.9,33.2,33.9,33.2,33.9L33.2,33.9z M33.3,20.2
	C33.1,20.3,33.3,20,33.3,20.2L33.3,20.2z M33.4,26.4C33.6,26.9,33,26.5,33.4,26.4L33.4,26.4z M33.4,26.1
	C33.2,26.4,33.5,25.8,33.4,26.1L33.4,26.1z M33.2,31.6C32.4,31.1,33.4,31.6,33.2,31.6L33.2,31.6z M32.8,24
	C32.6,23.1,32.8,23.8,32.8,24L32.8,24z M32.6,13.4C32.6,14,32.5,13.4,32.6,13.4L32.6,13.4z M32.7,29.7
	C32.9,30.4,32.2,29.7,32.7,29.7L32.7,29.7z M32.5,29c0,0.1,0,0.4-0.1,0.5C32.3,29.4,32.4,29,32.5,29z M32.5,21.5
	C32.4,22,32.5,21.1,32.5,21.5L32.5,21.5z M32.4,32.9C32.8,32.8,32.4,33.1,32.4,32.9L32.4,32.9z M32.3,19.7
	C32.3,19.3,32.7,19.9,32.3,19.7L32.3,19.7z M32.3,22.7C32.2,23.1,32.5,22,32.3,22.7L32.3,22.7z M32.3,23.5
	C32.4,23.5,32.4,23.5,32.3,23.5C32.1,23.5,32.3,23.2,32.3,23.5z M32.2,33.4C32.9,33.5,31.8,33.9,32.2,33.4L32.2,33.4z M32.4,35.1
	C32.4,34.8,32.8,35.2,32.4,35.1L32.4,35.1z M32.7,39C32.5,39.7,32.6,39,32.7,39L32.7,39z M32.8,30.2C32.5,30.7,32.5,30,32.8,30.2
	L32.8,30.2z M32.9,34.8c-0.1,0-0.1-0.1-0.1-0.2C32.9,34.7,32.9,34.7,32.9,34.8z M33.5,33.2C33,33.1,33.7,33,33.5,33.2L33.5,33.2z
	 M33.6,23.7C33.6,23.7,33.2,23.8,33.6,23.7L33.6,23.7z M33.7,13.3C33.6,13.7,33.3,13.1,33.7,13.3L33.7,13.3z M33.6,16.2
	C33.7,16.9,33.5,15.9,33.6,16.2L33.6,16.2z M33.7,16.8C33.7,17.3,33.5,16.6,33.7,16.8L33.7,16.8z M33.5,6.8
	C34,6.6,33.5,7.1,33.5,6.8L33.5,6.8z M33.4,12.9C33.4,12.9,33.6,13.2,33.4,12.9L33.4,12.9z M33.4,8.1C33.6,8.2,33.1,8,33.4,8.1
	L33.4,8.1z M33.3,5.5c-0.1-0.1-0.3-0.2-0.4-0.3C33.1,5.2,33.2,5.3,33.3,5.5z M33,9.1C33,9.2,32.7,9.2,33,9.1L33,9.1z M33,9.6
	C33.4,9.6,32.5,10.1,33,9.6L33,9.6z M32.5,4.2C32.5,3.9,33.1,4.3,32.5,4.2L32.5,4.2z M32.5,6.7C32.4,6.9,32.4,6.8,32.5,6.7L32.5,6.7
	z M32.4,4.3C32.4,3.9,32.8,4.4,32.4,4.3L32.4,4.3z M32.1,17.6C32.3,17.1,32.6,17.5,32.1,17.6L32.1,17.6z M32.1,7.7
	C32.4,7.7,32.2,8.1,32.1,7.7L32.1,7.7z M31.6,8.7C32.3,7.5,32.2,8.1,31.6,8.7L31.6,8.7z M31.6,8C31.6,8,31.8,8.3,31.6,8L31.6,8z
	 M31.9,4C31.8,3.5,32.2,4.1,31.9,4L31.9,4z M31.3,3.6C31.5,4,31.8,4.7,32,4.7C31.3,4.7,31.1,4.7,31.3,3.6z M31.5,6.7
	C31.8,7,30.7,6.5,31.5,6.7L31.5,6.7z M31,2.6C31.7,2.6,30.2,3.2,31,2.6L31,2.6z M30.5,2.4C30.5,2,31.3,2.4,30.5,2.4L30.5,2.4z
	 M30.2,2.7C30.3,2.1,30.6,3.1,30.2,2.7L30.2,2.7z M30,3C30.5,2.8,30.1,3,30,3L30,3z M29.9,3C29.9,3.3,29.1,2.7,29.9,3L29.9,3z
	 M29.6,4.8C29.5,4.8,29.7,4.6,29.6,4.8L29.6,4.8z M29.6,1.4c0.1,0,0.1,0.1,0,0.1C29.5,1.4,29.5,1.4,29.6,1.4z M29.5,7.2
	C29.5,7.2,29.7,7.1,29.5,7.2L29.5,7.2z M29.6,9.1C29.5,9.7,29.4,9.1,29.6,9.1L29.6,9.1z M29.5,11C29.8,11,29.5,11.2,29.5,11L29.5,11
	z M29.4,11.7C29.6,11.7,29.3,12,29.4,11.7L29.4,11.7z M29.2,7.2C29.5,6.9,29.1,7.6,29.2,7.2L29.2,7.2z M29.1,3.5
	C29,3.1,29.4,3.8,29.1,3.5L29.1,3.5z M29.2,6c0,0.1-0.1,0.1-0.2,0.1C29,6.1,29.1,6,29.2,6z M29,6.3C29.4,6.3,29,6.5,29,6.3L29,6.3z
	 M28.7,8.9C28.8,8.6,29.2,8.9,28.7,8.9L28.7,8.9z M28.8,8.2C28.9,8.2,28.8,8.6,28.8,8.2L28.8,8.2z M28.8,2.6
	C28.8,2.5,29,2.4,28.8,2.6L28.8,2.6z M28.7,5.2C28.6,4.5,29.2,5.4,28.7,5.2L28.7,5.2z M28.6,3.6C28.6,3.5,28.8,3.5,28.6,3.6
	L28.6,3.6z M28.6,10.8C28.6,10.7,29,10.8,28.6,10.8L28.6,10.8z M28.4,5C28.6,5,28.5,5.3,28.4,5L28.4,5z M28.4,7.7
	C27.9,7.6,28.4,7.6,28.4,7.7L28.4,7.7z M28.4,15.1C28.3,15.7,28.3,15.1,28.4,15.1L28.4,15.1z M28.2,5.1C28.1,5.5,27.8,4.7,28.2,5.1
	L28.2,5.1z M27.9,7.8C28,7.9,28,8,28,8.1C27.9,8.1,27.9,8,27.9,7.8z M28.1,9.9C28.3,10.1,27.7,9.9,28.1,9.9L28.1,9.9z M27.9,10.4
	C28.2,10.1,28,10.3,27.9,10.4L27.9,10.4z M28,10.9C28,10.5,28.1,10.9,28,10.9L28,10.9z M28.2,11.4C28,11.6,28,11.4,28.2,11.4
	L28.2,11.4z M28,3.4C28.3,3.4,27.4,4.3,28,3.4L28,3.4z M27.7,11.7C27.8,11.4,28.1,11.7,27.7,11.7L27.7,11.7z M28,12.2
	c-0.1-0.1-0.3-0.2-0.2-0.4C27.9,11.9,28,12.1,28,12.2z M28,11.8C28.2,11.8,27.9,12,28,11.8L28,11.8z M28.1,14.4
	C27.9,14.4,28.2,14,28.1,14.4L28.1,14.4z M28.3,15.5C28.4,15.9,27.7,15.5,28.3,15.5L28.3,15.5z M28.5,16.1
	C28.5,16.4,27.9,16.1,28.5,16.1L28.5,16.1z M28.3,3C28.7,2.9,27.9,3.1,28.3,3L28.3,3z M27.7,2.8C28.2,2.1,28.4,3.4,27.7,2.8
	L27.7,2.8z M27.7,14.1C27.5,14.4,27.4,14.3,27.7,14.1L27.7,14.1z M27.5,10.2C27.4,12.3,26.6,8.6,27.5,10.2L27.5,10.2z M27.5,12.6
	C27.5,13,27.2,12.6,27.5,12.6L27.5,12.6z M27.2,10.7C26.9,11.3,27,10.7,27.2,10.7L27.2,10.7z M27,13C27.1,13.1,27,13.1,27,13L27,13z
	 M27.1,14.5C27.1,14.5,27.1,14.5,27.1,14.5c0,0,0.1-0.1,0.1-0.1c1,0-0.5,0.5,0.1,0.5C27,14.9,26.9,14.9,27.1,14.5
	C27,14.5,27,14.5,27.1,14.5z M27.2,15.6C27.3,16.1,26.8,15.5,27.2,15.6L27.2,15.6z M27.1,16.3c-0.1,0,0-0.2,0-0.2
	C27.2,16.1,27.1,16.2,27.1,16.3z M27.2,16C27.2,15.9,27.5,15.9,27.2,16L27.2,16z M26.4,14.2C27.7,14,26.4,14.4,26.4,14.2L26.4,14.2z
	 M25.8,15.6c0.2,0.2-0.1-0.3-0.1-0.3c0.3-0.2,0.7-0.4,1.2-0.3C26.9,15.1,25.8,16.3,25.8,15.6z M26.2,16.5
	C26.6,15.6,26.4,16.7,26.2,16.5L26.2,16.5z M25.5,12.7C27,12.1,25.6,12.9,25.5,12.7L25.5,12.7z M25.6,7.4
	C25.4,7.4,25.6,7.2,25.6,7.4L25.6,7.4z M26.2,14.4C26,15,26.1,13.6,26.2,14.4L26.2,14.4z M26.2,15C26.1,14.7,26.3,15,26.2,15
	L26.2,15z M26,13.1C25.9,13.1,26.2,12.7,26,13.1L26,13.1z M26.5,10.5C26.3,11,26.2,10.5,26.5,10.5L26.5,10.5z M26.6,12.2
	C26.4,11.9,26.6,11.9,26.6,12.2L26.6,12.2z M26.4,12.9C26.2,12.8,26.4,12.9,26.4,12.9L26.4,12.9z M26.9,1.6
	C26.8,1.3,26.9,1.9,26.9,1.6L26.9,1.6z M26.6,13.5C27.2,13.7,26.3,13.8,26.6,13.5L26.6,13.5z M26.6,7C25.7,6.7,27.2,7.3,26.6,7
	L26.6,7z M26.2,10.3c-0.1,0,0-0.2,0-0.2C26.3,10.1,26.2,10.2,26.2,10.3z M26.2,5.9C26.2,5.9,26.1,5.9,26.2,5.9L26.2,5.9z M26.1,2.8
	C26.1,2.8,26.5,2.9,26.1,2.8L26.1,2.8z M26.1,4.6C26.3,4.6,26,5,26.1,4.6L26.1,4.6z M26.1,5.4C26.4,5.4,25.8,6.1,26.1,5.4L26.1,5.4z
	 M25.8,7.6C26.5,8,25.6,7.7,25.8,7.6L25.8,7.6z M25.4,1.3C25.8,0.7,25.7,1.7,25.4,1.3L25.4,1.3z M25.4,13.4
	C26.4,14.2,25.2,15.2,25.4,13.4L25.4,13.4z M25.4,15.1C25.4,14.7,25.8,15.3,25.4,15.1L25.4,15.1z M25.5,14.7
	C25.5,14.8,25.2,14.5,25.5,14.7L25.5,14.7z M25.3,12.4C25,12.7,25.3,12.1,25.3,12.4L25.3,12.4z M25.1,13C25.3,13.3,24.8,13,25.1,13
	L25.1,13z M25,14.1C25.2,14.1,25,14.6,25,14.1L25,14.1z M24.8,15.4C25.3,15.4,24.8,15.9,24.8,15.4L24.8,15.4z M25,14.9
	C24.9,14.8,24.9,14.7,25,14.9L25,14.9z M24.9,2.4C24.9,2.5,24.5,3,24.9,2.4L24.9,2.4z M24.8,10.7C24.9,11,24.5,10.7,24.8,10.7
	L24.8,10.7z M24.8,13.3C24.5,13.2,24.8,13.2,24.8,13.3L24.8,13.3z M24.6,1.3C24.4,1.1,25.3,0.5,24.6,1.3L24.6,1.3z M24.6,6.3
	C24.7,6.4,24.4,6.7,24.6,6.3L24.6,6.3z M24.4,15.2C25.1,15.4,24,15.6,24.4,15.2L24.4,15.2z M24.4,13.5
	C24.8,13.9,23.6,13.4,24.4,13.5L24.4,13.5z M24.2,11.5C24.1,11.4,24.1,11.2,24.2,11.5L24.2,11.5z M24.4,10
	C24.4,10.6,24.1,10,24.4,10L24.4,10z M24.2,2.1C24,1.3,24.7,3.3,24.2,2.1L24.2,2.1z M24.3,6.5C23.9,7,24.1,5.7,24.3,6.5L24.3,6.5z
	 M24.1,2.2C24.4,3.2,23.4,2.3,24.1,2.2L24.1,2.2z M24,5.7C23.8,5.7,24.1,5.3,24,5.7L24,5.7z M23.9,5.1C23.8,5.4,23.9,5.1,23.9,5.1
	L23.9,5.1z M24,11.8C23.9,12,23.9,11.6,24,11.8L24,11.8z M23.8,6.4C23.8,6.1,24,6.4,23.8,6.4L23.8,6.4z M23.8,12.1
	C24,12.4,24,12.4,23.8,12.1L23.8,12.1z M23.5,1.9C23.5,1.7,23.8,1.7,23.5,1.9L23.5,1.9z M23.6,4.8C23.8,5.6,23,5,23.6,4.8L23.6,4.8z
	 M23.2,6.3C23.1,5.3,23.9,6.5,23.2,6.3L23.2,6.3z M23.5,12.1C23.3,12,23.5,11.8,23.5,12.1L23.5,12.1z M23.2,15.8
	C23.5,15.6,23.3,15.9,23.2,15.8L23.2,15.8z M23.2,1.8C23.2,1.7,23.4,1.8,23.2,1.8L23.2,1.8z M23.2,3.6C23.2,2.7,23.3,3.6,23.2,3.6
	L23.2,3.6z M23.1,7.9C23.1,8.2,22.5,8,23.1,7.9L23.1,7.9z M22.7,4.2C23,4.3,22.7,4.4,22.7,4.2L22.7,4.2z M22.4,7.2
	C22.7,7.1,22.4,7.5,22.4,7.2L22.4,7.2z M22.4,7.6C22.6,7.4,23,8.2,22.4,7.6L22.4,7.6z M22.6,9.7C22.4,9.8,22.5,9.7,22.6,9.7
	L22.6,9.7z M21.9,0.6C22.3,0.6,22,1.1,21.9,0.6L21.9,0.6z M21.9,2.6C21.9,2.1,22.3,3,21.9,2.6L21.9,2.6z M21.8,1.1
	C21.9,1.1,21.7,1.4,21.8,1.1L21.8,1.1z M21.8,5.3C21.9,5.4,21.3,6,21.8,5.3L21.8,5.3z M21.3,1.6C21,1.7,20.7,1.5,21.3,1.6L21.3,1.6z
	 M21,5.2c0,0-0.1,0.6-0.1-0.3C20.9,4.7,21,5.2,21,5.2z M20.8,1.1C20.8,0.5,21.7,0.8,20.8,1.1L20.8,1.1z M20.8,2.2
	C20.8,2.6,20.3,2.2,20.8,2.2L20.8,2.2z M20.5,3.1C20.4,2.7,20.8,3.2,20.5,3.1L20.5,3.1z M20.6,8C20.3,7.9,20.6,8,20.6,8L20.6,8z
	 M20.2,1.6C20.2,1.4,21,1.6,20.2,1.6L20.2,1.6z M20.3,2.7C20.1,3.1,20.1,2.5,20.3,2.7L20.3,2.7z M20.2,5.8C19.9,6,20.1,5.4,20.2,5.8
	L20.2,5.8z M20,2.2C20.1,2,20.3,2.4,20,2.2L20,2.2z M19.5,2.2c0.6,0,0-0.7,0-0.8C20.1,1.4,20.4,2.2,19.5,2.2z M19.7,7.6
	C19.5,7.7,19.7,7.3,19.7,7.6L19.7,7.6z M19.6,5.5C19.7,5.5,19.7,5.8,19.6,5.5L19.6,5.5z M19.6,10.3C19.7,10,19.9,10.4,19.6,10.3
	L19.6,10.3z M19.8,5.3C20.1,5.3,19.9,5.5,19.8,5.3L19.8,5.3z M19.4,1C19.6,1.2,19.4,1,19.4,1L19.4,1z M19.5,7.7
	C19.3,7.7,19.1,7.3,19.5,7.7L19.5,7.7z M19.3,12.5C19.2,12.3,19.4,12.3,19.3,12.5L19.3,12.5z M19.2,7.2C19.9,6.7,18.6,7.8,19.2,7.2
	L19.2,7.2z M18.4,9.5C20,9.5,18.4,10.1,18.4,9.5L18.4,9.5z M19.1,12.9C19,12.9,19,12.7,19.1,12.9L19.1,12.9z M18.5,11.5
	C18.9,11.9,17.7,11.4,18.5,11.5L18.5,11.5z M18.3,10.6C18.1,11.4,18.3,10.6,18.3,10.6L18.3,10.6z M18.6,13
	C18.5,12.8,18.5,12.8,18.6,13L18.6,13z M18.6,13.4C18.3,13.7,18.6,12.7,18.6,13.4L18.6,13.4z M18.8,10.4
	C18.8,10.6,18.1,10.5,18.8,10.4L18.8,10.4z M18.8,10.6c0,0.7,0,0-0.1,0C18.8,10.6,18.8,10.6,18.8,10.6z M19.2,10
	C18.9,10.3,19.2,9.7,19.2,10L19.2,10z M19.1,12.1C19.3,12.1,19.1,12.6,19.1,12.1L19.1,12.1z M19.2,3.7C19.3,3.7,19.2,4,19.2,3.7
	L19.2,3.7z M19,0.9C19.3,1,19,1.1,19,0.9L19,0.9z M19.1,3.7C19.1,3.8,18.2,3.9,19.1,3.7L19.1,3.7z M18.9,3.5c0-0.1,0-0.1,0-0.2
	C19,3.3,19,3.5,18.9,3.5z M18.8,1.2C19,1.3,18.8,1.6,18.8,1.2L18.8,1.2z M18.6,2.2C18.9,2.4,18.6,2.3,18.6,2.2L18.6,2.2z M18.8,4.3
	c0.2,0,0.1,0,0.2,0.2C18.7,4.4,18.4,4.3,18.8,4.3z M18.7,7.2C18.7,7.5,18.4,7.2,18.7,7.2L18.7,7.2z M18.4,1.8
	C18.7,1.5,18.4,2.3,18.4,1.8L18.4,1.8z M18.4,6.1C18.3,5.8,18.7,5.3,18.4,6.1L18.4,6.1z M18.3,8.6C18.4,9,17.9,8.6,18.3,8.6
	L18.3,8.6z M18.2,2.5C18.1,2.3,18.5,2.4,18.2,2.5L18.2,2.5z M18.1,4C18.3,3.7,18.3,4.2,18.1,4L18.1,4z M18.2,10.4
	C17.8,10.7,18.1,9.9,18.2,10.4L18.2,10.4z M17.9,13.4C17.9,13.2,18.3,13.5,17.9,13.4L17.9,13.4z M18,4.6C17.5,4.6,18,4.3,18,4.6
	L18,4.6z M17.7,9.5C18,9,18,9.7,17.7,9.5L17.7,9.5z M17.8,8.5C18,8.7,17.6,8.6,17.8,8.5L17.8,8.5z M17.8,2.2
	C17.6,2.2,17.7,1.8,17.8,2.2L17.8,2.2z M17.5,14.3C17.5,14.4,17.2,14.2,17.5,14.3L17.5,14.3z M17.4,14.6
	C17.4,13.9,17.4,15,17.4,14.6L17.4,14.6z M17.4,13.8C16.9,14.1,17.5,13,17.4,13.8L17.4,13.8z M17.3,15.3
	C17.3,15.2,17.3,15.1,17.3,15.3L17.3,15.3z M17.6,9C17.9,9.3,17.4,8.8,17.6,9L17.6,9z M17.5,8.2C17.5,8.2,17.3,8.2,17.5,8.2
	L17.5,8.2z M17.7,7.7C17.5,7.6,17.5,7.1,17.7,7.7L17.7,7.7z M17.6,6.9C17,7.1,17.7,6.6,17.6,6.9L17.6,6.9z M17.6,4.3
	C17.6,4.7,17.2,4.3,17.6,4.3L17.6,4.3z M17.3,4.8C17.6,5,17.3,5.8,17.3,4.8L17.3,4.8z M17.4,11.1C17.5,10.5,17.8,11.4,17.4,11.1
	L17.4,11.1z M17.7,9.8C17.7,10,17.4,9.6,17.7,9.8L17.7,9.8z M17.6,2.6c0.1,0,0.1,0.3,0,0.4C17.5,2.9,17.6,2.7,17.6,2.6z M17.1,3.1
	C17.1,3,17.5,3,17.1,3.1L17.1,3.1z M17.5,3.8C17.8,4.7,16.3,3.7,17.5,3.8L17.5,3.8z M17.2,10.8C17.4,10.9,17.1,11.2,17.2,10.8
	L17.2,10.8z M17,11.5C17.5,10.6,17.5,13.2,17,11.5L17,11.5z M17.1,13.7C16.8,13.8,17.1,13.7,17.1,13.7L17.1,13.7z M16.8,9.3
	C17.3,9.4,16,9.8,16.8,9.3L16.8,9.3z M16.9,11.7C16.9,12.1,16.9,11.7,16.9,11.7L16.9,11.7z M16.9,10.7
	C16.6,10.7,16.9,10.3,16.9,10.7L16.9,10.7z M16.5,5.7C16.5,6.2,16,5.2,16.5,5.7L16.5,5.7z M16.5,7.2C16.3,7.1,16.5,7.2,16.5,7.2
	L16.5,7.2z M16.5,8.4C16.7,8.5,16,9.2,16.5,8.4L16.5,8.4z M16.4,14.8C16.4,14.6,17.2,15,16.4,14.8L16.4,14.8z M16.8,4.8
	C16.7,4.8,16.3,4.7,16.8,4.8L16.8,4.8z M16.8,3C16.8,3.1,16.5,3.2,16.8,3L16.8,3z M16.7,9C16.7,9.6,16.4,8.9,16.7,9L16.7,9z
	 M16.5,2.2C16.8,2.1,16.5,2.7,16.5,2.2L16.5,2.2z M16.5,2.8C16.9,2.6,17,3,16.5,2.8L16.5,2.8z M16.5,4.8c-0.1,0-0.1-0.1-0.1-0.2
	C16.5,4.6,16.6,4.7,16.5,4.8z M15.9,2.4C16.9,2.8,16.1,2.6,15.9,2.4L15.9,2.4z M16.1,8.8C16.5,9,16.1,8.9,16.1,8.8L16.1,8.8z
	 M16.1,4C16.1,4,16.1,4,16.1,4C16.4,3.8,16.2,4.4,16.1,4z M15.4,7.7C15.5,7.7,15.5,7.8,15.4,7.7L15.4,7.7z M15.5,9.9
	c0,0,0-0.1-0.1-0.1C15.6,9.8,15.6,9.8,15.5,9.9z M15.3,9.2C14.7,9.2,15.9,8.9,15.3,9.2L15.3,9.2z M15.2,14.6c-0.2-0.1,0.1-0.1,0-0.3
	C15.4,14.4,15.2,14.5,15.2,14.6z M15.1,9.2C14.8,9.3,15.2,9.1,15.1,9.2L15.1,9.2z M15.2,12.9C14.9,12.9,15.2,12.7,15.2,12.9
	L15.2,12.9z M15,16.2C15.1,16.2,15.4,17.2,15,16.2L15,16.2z M15.1,15.9C15.2,15.9,15.2,15.9,15.1,15.9c0.1,0,0.1,0,0.1-0.1
	C16.1,15.1,15.2,16.5,15.1,15.9C15.2,16,15.1,15.9,15.1,15.9z M15.7,7.6C15.5,7.8,15.3,7.3,15.7,7.6L15.7,7.6z M16,4.8
	C14.6,6.3,15.8,3.2,16,4.8L16,4.8z M15.6,4.3C15.8,4.1,16.3,4.1,15.6,4.3L15.6,4.3z M16,9C16.1,9.8,15.6,9,16,9L16,9z M16,10.4
	C15.7,10.6,16,9.9,16,10.4L16,10.4z M16,6.9C15.7,7,16.1,6.1,16,6.9L16,6.9z M15.7,7.8C15.7,7.6,16,7.8,15.7,7.8L15.7,7.8z
	 M15.8,9.7C15.7,9.6,15.8,9.6,15.8,9.7L15.8,9.7z M15.7,9.9C15.8,9.9,15.9,10.2,15.7,9.9L15.7,9.9z M16,15.4
	C16.1,16.6,15.5,15,16,15.4L16,15.4z M15.7,2.8C15.9,3.5,15.1,2.8,15.7,2.8L15.7,2.8z M15.5,1.7C15.8,1.5,15.5,1.9,15.5,1.7
	L15.5,1.7z M15.3,2.3C16,2.3,15.3,2.4,15.3,2.3L15.3,2.3z M15,2.5C15.4,2.1,15,3,15,2.5L15,2.5z M15.1,5.1c0,0.6-0.4,1.5-0.4,1
	c0.1-0.1,0.3-0.4,0.2-0.5C14.8,5.4,15,5.1,15.1,5.1z M15,20.8C16.5,21.2,15,21.2,15,20.8L15,20.8z M15,20.4
	C15.4,20.6,15,20.5,15,20.4L15,20.4z M15.4,37C16,37.8,14.6,37.1,15.4,37L15.4,37z M15.3,38.3C15.3,37.9,15.4,38.8,15.3,38.3
	L15.3,38.3z M15,29.7c-0.1-0.1,0-0.2,0-0.4C15.1,29.4,14.9,29.5,15,29.7z M13.8,30.8C13.3,30.6,13.7,29.9,13.8,30.8L13.8,30.8z
	 M13.7,31.6C13.9,31.9,13.6,31.7,13.7,31.6L13.7,31.6z M13.7,28.5C13.8,28.6,13.4,28.7,13.7,28.5L13.7,28.5z M13.9,27.2
	C13.9,27.2,13.6,27.3,13.9,27.2L13.9,27.2z M13.8,26.9C13.8,26.9,13.4,26.8,13.8,26.9L13.8,26.9z M13.9,24.2
	C13.6,25.3,13.5,23.7,13.9,24.2L13.9,24.2z M13.6,26.2C13.7,26.6,13.6,26.2,13.6,26.2L13.6,26.2z M13.5,27.7
	C13.9,27,13.6,28.1,13.5,27.7L13.5,27.7z M13.6,37.9c0,0-0.1-0.6-0.1-0.5C13.5,37.4,14.2,35.1,13.6,37.9z M13.8,28.4
	C14,28.4,13.9,28.5,13.8,28.4L13.8,28.4z M13.9,22.2C14.6,22.3,13.2,22.6,13.9,22.2L13.9,22.2z M14.2,22.4
	C15.4,22.2,14.2,22.6,14.2,22.4L14.2,22.4z M14.4,21.8C14.6,22.1,14.4,21.9,14.4,21.8L14.4,21.8z M14.5,34.5
	C14.5,34.3,14.9,34.4,14.5,34.5L14.5,34.5z M14.7,36.5C14.7,36.3,14.7,36.8,14.7,36.5L14.7,36.5z M14.3,29.3
	C14,28.8,14.9,29.2,14.3,29.3L14.3,29.3z M14.5,30.4C14,30,14.5,30.2,14.5,30.4L14.5,30.4z M14.3,22.1C14.1,22.4,14,21.7,14.3,22.1
	L14.3,22.1z M14.1,26.1C14.1,26,15,25.7,14.1,26.1L14.1,26.1z M14,29C14.3,28.6,14.2,29.2,14,29L14,29z M14.2,28.6
	C14.2,28.9,14,28.6,14.2,28.6L14.2,28.6z M14,26.5C14.2,26.2,14.2,26.5,14,26.5L14,26.5z M14.1,30.2c-0.1,0-0.1,0-0.1-0.1
	C14,30.1,14.1,30.2,14.1,30.2z M14,39.8C14,39.7,14.4,39.6,14,39.8L14,39.8z M14.1,34.2C14.2,33.8,14.7,34.4,14.1,34.2L14.1,34.2z
	 M14.3,36.9C14.5,36.7,14.9,36.8,14.3,36.9L14.3,36.9z M14.8,39C14.2,38.9,15.2,38.6,14.8,39L14.8,39z M14.9,23
	C14.7,23.4,14.6,23,14.9,23L14.9,23z M15,29.9C14.7,30.2,14.8,29.7,15,29.9L15,29.9z M15.4,21.9C15.4,21.9,15.4,21.9,15.4,21.9
	C15.4,21.9,15.4,21.9,15.4,21.9c0,0.1-0.1,0.1-0.1,0.1C15.2,21.8,15.4,21.8,15.4,21.9c0-0.1,0-0.2,0-0.2
	C15.4,21.8,15.4,21.8,15.4,21.9z M15.4,22.5C15.4,22.4,15.7,22.8,15.4,22.5L15.4,22.5z M15.3,23C15.8,23.7,14.5,23.1,15.3,23
	L15.3,23z M15.3,26.9C14.8,27.8,15.1,26.1,15.3,26.9L15.3,26.9z M15.2,34.2C15.3,34.4,15.2,34.4,15.2,34.2L15.2,34.2z M15,30.1
	C15.2,30.4,15,30.3,15,30.1L15,30.1z M15,22.2C15.1,21.8,15.4,22.7,15,22.2L15,22.2z M15,37.2C15,36.9,15.2,37.4,15,37.2L15,37.2z
	 M15.5,36.4C14.7,36.9,15.1,36.3,15.5,36.4L15.5,36.4z M15.7,25.7C15.2,25.1,15.9,26,15.7,25.7L15.7,25.7z M15.6,23.3
	C16.1,23.8,15.4,23.6,15.6,23.3L15.6,23.3z M15.8,30.5C15.8,30.5,15.4,30.9,15.8,30.5L15.8,30.5z M15.6,26.7
	C15.4,26.8,15.6,26.4,15.6,26.7L15.6,26.7z M15.2,38.2C15,37.7,15.3,37.4,15.2,38.2L15.2,38.2z M15.6,36.8
	C15.3,37,15.7,36.8,15.6,36.8L15.6,36.8z M15.6,33.3C15.7,32.8,15.9,34,15.6,33.3L15.6,33.3z M15.9,33.5
	C15.7,33.7,15.7,33.5,15.9,33.5L15.9,33.5z M15.7,29.6C15.9,29.3,15.9,29.6,15.7,29.6L15.7,29.6z M15.8,22.3
	C15.5,22.2,15.8,22.3,15.8,22.3L15.8,22.3z M15.6,22.9C16.2,23,15,23.6,15.6,22.9L15.6,22.9z M14.8,21.7
	C15.3,21.2,15.2,21.8,14.8,21.7L14.8,21.7z M13.9,20.2c-0.2,0,0.1,0.8,0.8,0.8c-0.1,0-0.5,0.5,0.2,0.5
	C14.8,22.5,12.2,20.2,13.9,20.2z M12.4,23.1c0.1-0.3,0.2,0,0.2,0.1c0.1,0,0.3,0.1-0.1,0.1c0,0,0,0,0-0.1
	C12.5,23.2,12.5,23.2,12.4,23.1z M12.5,37C12.7,36.6,12.4,37.1,12.5,37L12.5,37z M11.9,35.3C11.9,35.5,11.8,35.1,11.9,35.3
	L11.9,35.3z M11.5,32.8C11.2,33.4,11.1,32.6,11.5,32.8L11.5,32.8z M11.5,34.7C11.4,34.2,11.5,34.9,11.5,34.7L11.5,34.7z M11.4,35.1
	c0,0-0.1,0.1-0.1,0.1C11.2,35.3,11.3,35.2,11.4,35.1z M10.2,27.2c0,0,0.1,0,0.1,0h0c0.8,0-1-1.7,0.6-0.2
	C10.5,27.4,10.5,28.1,10.2,27.2z M10.6,29.6C10.6,29.3,10.8,29.6,10.6,29.6L10.6,29.6z M9.5,30.2C9.8,30.2,9.5,30.7,9.5,30.2
	L9.5,30.2z M9.6,34.4C9.5,34.8,9.6,34.2,9.6,34.4L9.6,34.4z M8.5,35.4C8.9,35.1,8.7,35.9,8.5,35.4L8.5,35.4z M8.7,38.4
	C8.6,38.2,8.8,38.5,8.7,38.4L8.7,38.4z M8.6,38.3C8.3,38.3,8.6,38.3,8.6,38.3L8.6,38.3z M8.1,35.3C7.5,35.3,8.1,34.9,8.1,35.3
	L8.1,35.3z M8,36.8C8.2,36.7,8.1,37.1,8,36.8L8,36.8z M7.1,24.4C8.1,24.4,7.1,24.5,7.1,24.4L7.1,24.4z M7.2,29.9
	C7.2,29.5,7.4,29.9,7.2,29.9L7.2,29.9z M6.8,25.9C6.6,26.1,6.6,25.3,6.8,25.9L6.8,25.9z M6.8,29.8C6.6,29.7,6.8,29.8,6.8,29.8
	L6.8,29.8z M6.3,21.8C6.9,21.9,6,22.1,6.3,21.8L6.3,21.8z M6.5,30.2C6.2,30,6.5,30.1,6.5,30.2L6.5,30.2z M6.3,29.6
	C6.3,29.4,6.3,29.5,6.3,29.6L6.3,29.6z M6.1,28.6C6.2,28.7,5.7,28.6,6.1,28.6L6.1,28.6z M6,31.6C6.1,31.6,6.2,31.6,6,31.6L6,31.6z
	 M5.5,23.9C6.1,24.5,5,23.7,5.5,23.9L5.5,23.9z M5.7,22C5.8,22.1,5.6,22.4,5.7,22L5.7,22z M5.8,24.7C5.7,25.4,5.6,24.1,5.8,24.7
	L5.8,24.7z M5.7,23.8C6.1,23.5,5.8,23.8,5.7,23.8L5.7,23.8z M5.9,24.2C5.8,24.2,5.9,24,5.9,24.2L5.9,24.2z M6,22.8
	C6,23.1,5.6,22.7,6,22.8L6,22.8z M6,29.4C5.9,29.1,6,29.5,6,29.4L6,29.4z M6,23.3C6,23.5,5.9,23.5,6,23.3L6,23.3z M5.7,21.9
	C5.7,21.8,5.7,21.8,5.7,21.9c-0.3,0.1-0.3-0.3-0.1-0.2c-0.1-0.3-0.3-0.8,0.1-0.6C6.7,21.8,6,21.9,5.7,21.9z M6.1,21
	C6.4,21,6,21.4,6.1,21L6.1,21z M6.2,27.2C6.2,27.2,6.2,27.2,6.2,27.2C6.2,27.2,6.2,27.2,6.2,27.2C6.2,27.1,6.3,27.1,6.2,27.2z
	 M6.4,14.6C6.6,13.8,6.2,15.3,6.4,14.6L6.4,14.6z M6.3,14.2C6.7,14.3,6.1,14.4,6.3,14.2L6.3,14.2z M6.7,21.5
	C6.8,21.9,6.4,21.4,6.7,21.5L6.7,21.5z M6.8,23.5C6.8,23.9,6.4,23.2,6.8,23.5L6.8,23.5z M6.6,20.8C6.6,21,6.3,20.8,6.6,20.8
	L6.6,20.8z M6.5,18.4C6.2,18.4,6.7,18,6.5,18.4L6.5,18.4z M6.5,17.5C6.3,17.4,6.9,17,6.5,17.5L6.5,17.5z M6.4,21.2
	C6.3,21,6.7,21.3,6.4,21.2L6.4,21.2z M6.5,29.5C6.4,29.5,6.8,29.5,6.5,29.5L6.5,29.5z M6.6,27.1C6.5,26.7,6.9,27.2,6.6,27.1
	L6.6,27.1z M6.9,16.4C6.3,16.6,6.9,16.1,6.9,16.4L6.9,16.4z M6.6,14C7.1,13.7,6.7,14,6.6,14L6.6,14z M6.9,19.7
	C7.1,19.8,6.7,19.4,6.9,19.7L6.9,19.7z M7.4,24C7.8,24,7.2,24,7.4,24L7.4,24z M7.6,23.9C7.7,24.1,7.3,23.7,7.6,23.9L7.6,23.9z
	 M7.2,21C7.2,20.5,7.6,21.4,7.2,21L7.2,21z M6.9,21.8C6.9,21.7,7.6,21.8,6.9,21.8L6.9,21.8z M6.9,20.6c0,0,0-0.1,0-0.1
	C7,20.5,7,20.5,6.9,20.6z M7,20.4C7,20.4,7,20.3,7,20.4C7,20.4,7,20.4,7,20.4z M7.2,22.5C7.6,22.3,6.6,22.8,7.2,22.5L7.2,22.5z
	 M7.4,20.2C7.3,20.6,6.9,20.2,7.4,20.2L7.4,20.2z M7,19.2C7.2,18.9,7.2,19.5,7,19.2L7,19.2z M6.9,11.7C6.8,11.2,7.2,11.4,6.9,11.7
	L6.9,11.7z M6.9,17.9C6.8,18.2,6.9,17.9,6.9,17.9L6.9,17.9z M6.9,26.8C6.9,25.8,7.3,28.1,6.9,26.8L6.9,26.8z M7.6,34.6
	C7.5,35,6.9,34.3,7.6,34.6L7.6,34.6z M7.6,31.9C7.4,31,7.8,31.4,7.6,31.9L7.6,31.9z M7.8,24.5C7.9,24.7,7.4,24.5,7.8,24.5L7.8,24.5z
	 M8,22.3C8.2,22.3,8.1,22.4,8,22.3L8,22.3z M8.2,21.3C8.1,21.7,7.9,21.2,8.2,21.3L8.2,21.3z M8,21.4C7.7,20.8,8,21.3,8,21.4L8,21.4z
	 M7.8,20.8C8.1,20.5,8.1,21.5,7.8,20.8L7.8,20.8z M7.8,35.6C7.9,35.4,8.1,35.6,7.8,35.6L7.8,35.6z M8.2,33.7
	C8.2,34.1,7.5,33.4,8.2,33.7L8.2,33.7z M8.2,27.7C8,27.9,8,27.7,8.2,27.7L8.2,27.7z M8.2,25.9C8.1,25.9,8.1,25.8,8.2,25.9L8.2,25.9z
	 M8.1,14.3c0.1-0.1,0.2-0.4,0.2-0.5C8.6,14.1,9.1,15.1,8.1,14.3z M8.3,12.4C8.3,12.4,8.2,12.4,8.3,12.4c-0.1-0.1-0.1-0.1-0.1-0.2
	C8.2,12.2,8.3,12.4,8.3,12.4z M8.5,10.6C8.5,10.7,8.3,10.8,8.5,10.6L8.5,10.6z M8.5,8.1C8.4,8.7,8.6,7.4,8.5,8.1L8.5,8.1z M8.7,17.2
	C8.5,17.3,8.4,16.8,8.7,17.2L8.7,17.2z M8.7,19C8.7,19.2,8.2,18.8,8.7,19L8.7,19z M8.4,16.7C8.7,17,8.4,16.7,8.4,16.7L8.4,16.7z
	 M8.8,19.2C8.7,19.6,8.1,19,8.8,19.2L8.8,19.2z M8.4,22.4C8.5,22.2,9.2,22.1,8.4,22.4L8.4,22.4z M8.4,18.2
	C8.1,18.4,8.5,17.9,8.4,18.2L8.4,18.2z M8.2,20.2C8.4,20,8.4,20.2,8.2,20.2L8.2,20.2z M8.3,24.3C8.2,24,8.6,24.3,8.3,24.3L8.3,24.3z
	 M8.3,24.5C8.3,24.5,8.7,24.6,8.3,24.5L8.3,24.5z M8.8,29.5c-0.1,0-0.1,0-0.1-0.1C8.8,29.4,8.8,29.4,8.8,29.5z M8.7,26.1
	C8.8,26.4,8.3,26,8.7,26.1L8.7,26.1z M8.5,24.7C9.1,24.6,8.4,25.4,8.5,24.7L8.5,24.7z M8.9,37.6C8.9,37.7,8.5,37.6,8.9,37.6
	L8.9,37.6z M8.9,30C8.8,29.8,9,29.8,8.9,30L8.9,30z M8.8,26C9,26,9,26.1,9,26.2C9,26.1,8.8,26.1,8.8,26z M8.9,24.2
	C8.7,24,9,24.4,8.9,24.2L8.9,24.2z M9.1,23.6C9,23.6,8.2,23.3,9.1,23.6L9.1,23.6z M9.4,17.7C9,17.9,9.5,17.5,9.4,17.7L9.4,17.7z
	 M9.4,15.3C9.2,15.6,9.3,14.9,9.4,15.3L9.4,15.3z M9.3,34.6C9.4,35.3,8.9,35.3,9.3,34.6L9.3,34.6z M9.3,25.2
	C8.9,25.1,9.5,25.3,9.3,25.2L9.3,25.2z M9.1,23.3C9.4,23,9.3,23.3,9.1,23.3L9.1,23.3z M9.2,17.7C8.6,17.7,9.2,17.4,9.2,17.7
	L9.2,17.7z M9,14.8C8.7,14.7,9,14.7,9,14.8L9,14.8z M9,14.8C9.3,14.8,9.2,15.1,9,14.8L9,14.8z M8.9,17.1C9.2,17.3,8.7,16.9,8.9,17.1
	L8.9,17.1z M8.8,15.6c0.1,0,0.1,0.1,0,0.1C8.8,15.7,8.8,15.6,8.8,15.6z M9.1,17C9.2,17,9.2,17.2,9.1,17L9.1,17z M9.2,11.4
	C9.5,12.3,8.2,11.3,9.2,11.4L9.2,11.4z M8.8,15C8.9,15,8.9,15.4,8.8,15L8.8,15z M9.1,23.4C9.1,23.7,8.8,23.1,9.1,23.4L9.1,23.4z
	 M9.1,35.6C9.2,35.3,9.6,35.7,9.1,35.6L9.1,35.6z M9.5,36.6C9,36.8,9.4,35.7,9.5,36.6L9.5,36.6z M9.4,29.7
	C9.4,29.5,9.6,29.4,9.4,29.7L9.4,29.7z M9.4,24.3C9.6,24.5,9.4,24.5,9.4,24.3L9.4,24.3z M9.5,25.5C9.8,25.2,9.5,25.8,9.5,25.5
	L9.5,25.5z M9.5,21.1C9.5,21,9.9,21.1,9.5,21.1L9.5,21.1z M9.5,20.3C10.6,20.3,9,20.8,9.5,20.3L9.5,20.3z M9.6,20.1
	C9.5,19.9,9.7,20.3,9.6,20.1L9.6,20.1z M9.9,21.8C9.9,22,9.6,21.8,9.9,21.8L9.9,21.8z M9.8,22.2C9.7,22,9.8,22.2,9.8,22.2L9.8,22.2z
	 M9.9,22.6C10,22.6,9.4,22.8,9.9,22.6L9.9,22.6z M10.1,16.9C10.5,17.5,9.1,16.8,10.1,16.9L10.1,16.9z M9.9,15.3
	C9.7,15.1,9.9,15.2,9.9,15.3L9.9,15.3z M10.6,12c2,0-1.3,1,0.3,0.3C10.9,12.4,10.5,12,10.6,12z M11.1,8.9C11,8.7,11.4,8.2,11.1,8.9
	L11.1,8.9z M11.3,19.4C12,19.7,10.8,19.5,11.3,19.4L11.3,19.4z M11.4,20C11.7,20,11.4,20.5,11.4,20L11.4,20z M11.4,21.8
	C11.4,21.8,11.5,20.8,11.4,21.8L11.4,21.8z M11.1,18.4C11,18.6,10.8,18.4,11.1,18.4L11.1,18.4z M10.9,16.2C11,16,11,16.2,10.9,16.2
	L10.9,16.2z M11.3,16.5C11.3,16.7,10.6,16.6,11.3,16.5L11.3,16.5z M11.2,15.3C11.1,15.4,10.9,14.9,11.2,15.3L11.2,15.3z M11,14.8
	C11.7,14.4,10.4,15.4,11,14.8L11,14.8z M10.9,17.8C11.1,17.9,10.7,17.7,10.9,17.8L10.9,17.8z M10.8,19.2
	C10.6,19.2,10.7,18.8,10.8,19.2L10.8,19.2z M10.9,20c-0.1,0-0.1,0-0.1-0.1C10.8,19.9,10.9,19.9,10.9,20z M10.6,18.2
	C10.9,18.2,10.7,18.3,10.6,18.2L10.6,18.2z M10.6,25.8C10.5,25.7,11.1,24.8,10.6,25.8L10.6,25.8z M10.9,22.8
	C10.7,23,10.6,22.4,10.9,22.8L10.9,22.8z M10.8,18.8C11.1,18.3,11,19,10.8,18.8L10.8,18.8z M11,23.4C11.5,23.4,11,23.7,11,23.4
	L11,23.4z M11.3,20.1C10.8,19.8,11.3,19.9,11.3,20.1L11.3,20.1z M11.4,13.1C11.5,13.1,11.4,13.5,11.4,13.1L11.4,13.1z M11.5,15.3
	C11.2,15.3,11.5,14.9,11.5,15.3L11.5,15.3z M11.3,16.2C10.8,16.2,11.7,15.9,11.3,16.2L11.3,16.2z M10.4,16.6
	C10.9,16.5,10.4,16.8,10.4,16.6L10.4,16.6z M10.4,17.5C10.7,16.8,10.5,17.8,10.4,17.5L10.4,17.5z M10.5,18.4
	C10.4,18.4,10.5,18,10.5,18.4L10.5,18.4z M10.4,14.9C9.9,14.4,10.4,14.7,10.4,14.9L10.4,14.9z M10.1,13.7C10,13.5,10.4,13,10.1,13.7
	L10.1,13.7z M10.4,9.7C9.8,9.9,10.5,9.4,10.4,9.7L10.4,9.7z M10.4,7.1C10.3,7.5,10,7.1,10.4,7.1L10.4,7.1z M10.1,7.7
	C10.3,7.8,10.1,8.6,10.1,7.7L10.1,7.7z M10,18.6C10.4,18.4,9.7,18.8,10,18.6L10,18.6z M10.3,30.1C9.2,29.9,11.2,29.7,10.3,30.1
	L10.3,30.1z M10.5,30.8c0.1,0,0.1,0.2,0.1,0.2C10.4,31,10.5,30.9,10.5,30.8z M10.4,36.1C10.5,36,10.7,36,10.4,36.1L10.4,36.1z
	 M10.9,33.5C10.9,33.4,11.2,33.3,10.9,33.5L10.9,33.5z M10.9,35C11,34.8,11.3,35.4,10.9,35L10.9,35z M11,35.6
	C11.1,35.1,11.4,35.6,11,35.6L11,35.6z M11.2,24.1C10.5,24,11.5,23.4,11.2,24.1L11.2,24.1z M11.3,30.7
	C11.2,30.6,11.5,30.7,11.3,30.7L11.3,30.7z M11.3,32.5C11.7,32.5,11.3,32.8,11.3,32.5L11.3,32.5z M11.4,24.3
	C11.3,24,11.7,24.1,11.4,24.3L11.4,24.3z M11.5,26.4C11.2,26.3,11.7,26.4,11.5,26.4L11.5,26.4z M11.6,23
	C11.7,23.7,10.8,22.7,11.6,23L11.6,23z M11.5,19.3C12.1,18.8,11.4,19.9,11.5,19.3L11.5,19.3z M12.5,8.1C12.8,8.1,12.7,8.4,12.5,8.1
	L12.5,8.1z M12.7,10.3C12.7,10.3,12.8,10.6,12.7,10.3L12.7,10.3z M12.5,15.5C12,14.9,12.7,15.7,12.5,15.5L12.5,15.5z M12.4,16.4
	C12.4,16.5,12.3,16.5,12.4,16.4L12.4,16.4z M11.9,23.9C12.2,24,12,24.2,11.9,23.9L11.9,23.9z M12.1,32.6
	C11.8,32.5,12.1,32.6,12.1,32.6L12.1,32.6z M12.2,18.1C12,18.3,11.1,17.9,12.2,18.1L12.2,18.1z M11.7,15.8
	C11.7,15.1,11.7,15.5,11.7,15.8L11.7,15.8z M11.7,15.1C11.8,15.1,11.8,15.4,11.7,15.1L11.7,15.1z M12.3,15.8
	C12.3,16.7,11.1,15.8,12.3,15.8L12.3,15.8z M12,24.6C12.2,24.1,12.4,24.8,12,24.6L12,24.6z M12.2,19.9
	C12.2,19.7,12.4,19.5,12.2,19.9L12.2,19.9z M12.3,22.5C12.3,22.1,12.4,22.9,12.3,22.5L12.3,22.5z M12.5,13.4
	C12.2,13.2,12.5,13.3,12.5,13.4L12.5,13.4z M12.4,10.5C12.5,10.5,12.3,10.5,12.4,10.5L12.4,10.5z M12.6,11.4
	C12.3,11.4,12.5,10.9,12.6,11.4L12.6,11.4z M12.4,19.1C12.5,19.3,12.4,18.9,12.4,19.1L12.4,19.1z M12.5,20.4
	C12.4,19.7,12.8,20.7,12.5,20.4L12.5,20.4z M12.5,20.1C12.7,20.1,12.5,20.2,12.5,20.1L12.5,20.1z M12.7,19.2
	C12.7,19.6,12.4,19.2,12.7,19.2L12.7,19.2z M12.5,8.1C12.2,8.1,12.5,8,12.5,8.1L12.5,8.1z M12.3,8.3C12.5,8.3,12.4,8.7,12.3,8.3
	L12.3,8.3z M12.2,10.7C12.2,10.3,12.6,10.8,12.2,10.7L12.2,10.7z M11.9,12.4C12.9,12.3,11.9,12.7,11.9,12.4L11.9,12.4z M12.2,10.5
	C12.1,10.6,11.9,10.1,12.2,10.5L12.2,10.5z M11.9,10C12.6,9.6,11.4,10.6,11.9,10L11.9,10z M11.8,12.1C11.8,12.3,11.4,12.2,11.8,12.1
	L11.8,12.1z M11.5,12.9C11.8,12.9,11.7,13.2,11.5,12.9L11.5,12.9z M11.6,17.5C11.7,17.9,11.4,17.3,11.6,17.5L11.6,17.5z M11.9,32.7
	C11.4,32.7,11.8,32.1,11.9,32.7L11.9,32.7z M11.9,33.8C12,33.3,12.3,34.4,11.9,33.8L11.9,33.8z M12.2,29.4
	C12.4,29.9,11.8,29.1,12.2,29.4L12.2,29.4z M12.3,26.2C11.5,26.8,12.4,26,12.3,26.2L12.3,26.2z M12.3,36.5
	C12.5,35.7,12.5,37.1,12.3,36.5L12.3,36.5z M12.3,35.1C12.3,34.9,12.4,34.8,12.3,35.1L12.3,35.1z M12.3,30.4
	C12.3,30.1,12.6,30.2,12.3,30.4L12.3,30.4z M12.6,11.5C12.5,10.9,13.3,11.5,12.6,11.5L12.6,11.5z M13,16.8
	C13,16.7,13.3,16.8,13,16.8L13,16.8z M12.9,18.5C12.9,18.4,13.3,18.5,12.9,18.5L12.9,18.5z M13.1,13C13,13.4,12.7,13,13.1,13
	L13.1,13z M12.9,10.9C12.9,10.5,13,11.4,12.9,10.9L12.9,10.9z M12.7,19.4C13.6,19.2,12.7,19.5,12.7,19.4L12.7,19.4z M13,20.1
	C12.9,20.1,12.5,19.5,13,20.1L13,20.1z M13,20.3C13.2,20.1,13.1,20.3,13,20.3L13,20.3z M12.9,23.4C13.3,23.3,12.8,23.7,12.9,23.4
	L12.9,23.4z M12.9,23.1C13.1,23,12.8,23.3,12.9,23.1L12.9,23.1z M13,21C13.1,20.9,13.3,21,13,21L13,21z M12.9,22.3
	C12.5,22.7,12.9,21.9,12.9,22.3L12.9,22.3z M13,30.3C12.9,30.4,12.7,30.2,13,30.3L13,30.3z M12.8,29.9c0.1,0.1,0.1,0.1,0,0.2
	C12.8,30,12.8,29.9,12.8,29.9z M13,29.6C12.6,29.4,13,29.1,13,29.6L13,29.6z M13,25.2C12.7,25.4,13.1,24.7,13,25.2L13,25.2z
	 M13.2,24.4C13,24.5,12.5,24.2,13.2,24.4L13.2,24.4z M13.1,10.6C13.3,10.8,12.9,10.9,13.1,10.6L13.1,10.6z M12.9,7.6
	C13.9,7.5,12.9,7.9,12.9,7.6L12.9,7.6z M13.2,5.9C13.2,5.5,13.5,6,13.2,5.9L13.2,5.9z M13.4,18.6C13.2,18.9,13.2,18.5,13.4,18.6
	L13.4,18.6z M13.5,8.2C13.5,8.3,13.3,8.3,13.5,8.2L13.5,8.2z M13.5,17.2C13.5,16.8,13.7,17.2,13.5,17.2L13.5,17.2z M13.6,13.9
	C13.7,13.9,13.7,14.1,13.6,13.9L13.6,13.9z M13.6,13.4C13.6,13.4,14,13.4,13.6,13.4L13.6,13.4z M13.9,18.5
	C14.2,18.5,13.8,18.8,13.9,18.5L13.9,18.5z M14,18C13.8,18,14,17.6,14,18L14,18z M14.1,9.3C13.8,9.6,14.1,8.9,14.1,9.3L14.1,9.3z
	 M14.1,15.6c-0.1,0,0-0.1,0-0.2C14.1,15.5,14.1,15.6,14.1,15.6z M14.5,17.4C14.9,17.3,14.5,17.6,14.5,17.4L14.5,17.4z M14.6,20
	C14.5,20,14.4,19.6,14.6,20L14.6,20z M14.6,20.2C15,20.6,13.9,20.1,14.6,20.2L14.6,20.2z M14.6,20.6C14.8,20.8,14.6,20.7,14.6,20.6
	L14.6,20.6z M14.6,17.2C14,16.6,15.2,17.2,14.6,17.2L14.6,17.2z M14.7,13.1C14.6,12.8,14.9,12.6,14.7,13.1L14.7,13.1z M14.8,16
	c-0.1,0-0.1-0.1-0.1-0.1C14.7,15.9,14.8,15.9,14.8,16z M14.7,10.7C14.5,10.9,14.6,10.7,14.7,10.7L14.7,10.7z M14.5,9.9
	C13.8,10.7,14.3,9.2,14.5,9.9L14.5,9.9z M14.2,3.2C14.1,2.7,14.6,3.3,14.2,3.2L14.2,3.2z M14,2.2C14.2,2.1,14.2,2.3,14,2.2L14,2.2z
	 M14.1,3c0,0.1-0.1,0.1-0.2,0.1C14,3,14,3,14.1,3z M13.9,8.1C13.8,8,14.9,8.4,13.9,8.1L13.9,8.1z M14,9C13.8,9,14,8.8,14,9L14,9z
	 M13.8,15.8C13.8,15.7,14,15.7,13.8,15.8L13.8,15.8z M12.9,3.5C14.5,2.9,13.8,4.1,12.9,3.5L12.9,3.5z M12.9,8.6
	C12.7,8.9,12.9,8.2,12.9,8.6L12.9,8.6z M12.8,7.3C12.8,7.5,12.4,7.4,12.8,7.3L12.8,7.3z M12.5,5.7C12.6,4.5,12.6,5.8,12.5,5.7
	L12.5,5.7z M12.7,5.8C12.9,8.2,11.7,6.3,12.7,5.8L12.7,5.8z M12.1,5.6C12.5,5.2,12.1,6.1,12.1,5.6L12.1,5.6z M11.8,5.6
	C11.9,4.9,12.1,5.9,11.8,5.6L11.8,5.6z M11.5,5.9C11.5,5.6,12,6,11.5,5.9L11.5,5.9z M11.6,7.1c0.2,0,0.3,0,0.4,0.1c0,0,0,0.1,0,0.2
	c0.1,0,0.1-0.1,0-0.1c0.6,0.4-0.7,1.6-0.6,0.1C12.6,7.4,11.5,7.1,11.6,7.1z M11.2,9.1C11.2,8.4,12.5,9.4,11.2,9.1L11.2,9.1z
	 M11.1,3.9C11.4,3.5,11.2,4.4,11.1,3.9L11.1,3.9z M10.8,6.9c0-0.1,0-0.1,0.1-0.1C10.9,6.8,10.9,6.8,10.8,6.9z M10.8,5.9
	C10.8,5.6,11.1,6.1,10.8,5.9L10.8,5.9z M10.4,6.2C10.1,5,11.1,7.1,10.4,6.2L10.4,6.2z M9.8,5.9C10.4,5.7,9.8,6.2,9.8,5.9L9.8,5.9z
	 M9.6,7.1C11.1,6.1,10.2,7.6,9.6,7.1L9.6,7.1z M9.7,12.6C9.6,12.2,10,12.7,9.7,12.6L9.7,12.6z M9.6,8.7C9.6,8.5,9.8,8.6,9.6,8.7
	L9.6,8.7z M9.5,12.8C10.3,12.9,9.3,13,9.5,12.8L9.5,12.8z M9.4,5.9C9.5,5.7,9.5,6,9.4,5.9L9.4,5.9z M9.4,12C9.3,12.3,9,11.9,9.4,12
	L9.4,12z M9.1,7C9.4,6.8,9.1,7.3,9.1,7L9.1,7z M9.3,7.6c-0.1,0-0.1-0.1-0.1-0.2C9.2,7.4,9.3,7.6,9.3,7.6z M9.3,8.5
	C9.3,9,8.8,8.1,9.3,8.5L9.3,8.5z M8.9,9.4C8.9,9.7,9,9.1,8.9,9.4L8.9,9.4z M8.8,8.2C8.8,8.2,8.9,8.2,8.8,8.2c0.1,0.1,0.1,0.1,0,0.1
	C8.8,8.2,8.7,8.2,8.8,8.2z M7.9,7.4C8.3,6.9,9.6,8.6,7.9,7.4L7.9,7.4z M7.8,17.8C7.7,18,7.6,17.3,7.8,17.8L7.8,17.8z M7.7,15.2
	C8.2,16.3,7,15.2,7.7,15.2L7.7,15.2z M7.4,11.9C7.6,11.7,8.1,11.8,7.4,11.9L7.4,11.9z M7.4,18C7,18,7.5,17.7,7.4,18L7.4,18z
	 M7.2,14.1C6.8,14.1,7.2,13.8,7.2,14.1L7.2,14.1z M7.1,10.8C7,11.5,6.6,10.8,7.1,10.8L7.1,10.8z M6.6,10.2c-0.1,0-0.1,0-0.1,0
	C6.5,9.8,7.3,9.2,6.6,10.2z M6.5,13.5C6.6,13.6,6.6,13.6,6.5,13.5C6.5,13.8,6.5,13.7,6.5,13.5c-0.2,0.2-0.4,0.3-0.4,0.2
	C6.9,13.2,6.8,13.4,6.5,13.5z M6.1,14.3C5.9,14.6,6.2,13.9,6.1,14.3L6.1,14.3z M6.2,16.4C6.6,16.9,5.6,16.3,6.2,16.4L6.2,16.4z
	 M5.9,12.6C6,12.4,5.9,12.7,5.9,12.6L5.9,12.6z M5.9,20.8C5.6,20.8,6.3,20.4,5.9,20.8L5.9,20.8z M5.7,18c0,0.5-0.6,0-0.6,0
	C5.2,18.1,5.9,16.9,5.7,18z M4.8,19.3C4.2,19.2,5.1,19.4,4.8,19.3L4.8,19.3z M4.8,17c0,0,0.2,0.2,0.1,0.2C4.8,17.2,4.7,17,4.8,17z
	 M4.6,20.6C4.8,20.5,4.9,21.4,4.6,20.6L4.6,20.6z M4.5,22.2C5.8,22.9,3.9,23.6,4.5,22.2L4.5,22.2z M5,26.1C5,26.4,4.6,25.7,5,26.1
	L5,26.1z M4.8,23.4C4.6,23,4.9,23.6,4.8,23.4L4.8,23.4z M4.6,26.8C5.5,26.6,5.5,27,4.6,26.8L4.6,26.8z M5.1,24.7
	C5.6,24.5,4.7,24.9,5.1,24.7L5.1,24.7z M5.1,19.7C5,19.3,5.2,20,5.1,19.7L5.1,19.7z M5.3,22.3C5.4,22.7,5.1,22.2,5.3,22.3L5.3,22.3z
	 M5.4,16.1C5.9,15.6,5.6,16.3,5.4,16.1L5.4,16.1z M5.7,17.2c0,0.1,0,0.2-0.1,0.2C5.6,17.4,5.6,17.2,5.7,17.2z M5.7,15.2
	C5.7,15.7,5.2,14.8,5.7,15.2L5.7,15.2z M5.6,13.7C5.9,13.5,5.6,14,5.6,13.7L5.6,13.7z M5.6,14.1c0.1,0,0.2,0.1,0.1,0.2
	c0,0,0,0-0.1,0c-0.1,0.1-0.4,0.2-0.1,0.1c0.1,0,0.1-0.1,0.1-0.1C5.6,14.3,5.6,14.2,5.6,14.1z M5.3,13.5C5.6,13.3,5.4,13.9,5.3,13.5
	L5.3,13.5z M4.9,12.1C4.9,11.6,5.4,12.6,4.9,12.1L4.9,12.1z M5.3,12.9c-0.1,0-0.5,0.4-0.2,0.4c-0.4,0-0.1-0.4-0.6-0.4
	C4.6,12.9,5.1,12.3,5.3,12.9z M5.1,14c0.2,0.3,0.3,0.8-0.5,0.3C4.7,14.2,4.9,14.1,5.1,14z M4.2,19.7c0.1,0.4,0.4-0.3,0.4,0.5
	C4.2,20.2,3.6,19.7,4.2,19.7z M4.5,20.6C4.2,20.5,4.5,20.5,4.5,20.6L4.5,20.6z M3.8,17.9C3.9,18,3.7,18.2,3.8,17.9L3.8,17.9z
	 M3.7,14c0.1,0,0.1,0.1,0.1,0.2C3.7,14.2,3.7,14.1,3.7,14z M3.6,17.9C3.6,17.1,3.6,17.9,3.6,17.9L3.6,17.9z M3.7,25.6
	C3.2,25.6,3.8,25.5,3.7,25.6L3.7,25.6z M3.3,20C3.3,19.7,3.5,20.1,3.3,20L3.3,20z M3,16.1C3.1,15.8,3.3,16.4,3,16.1L3,16.1z
	 M3.2,17.8C3.2,18,2.9,17.8,3.2,17.8L3.2,17.8z M3.1,19C2.7,19.2,3.2,18.8,3.1,19L3.1,19z M2.8,29C2.8,29,2.9,28.8,2.8,29L2.8,29z
	 M2.8,21.2C2.9,21.3,2.8,21.2,2.8,21.2L2.8,21.2z M2.7,20.8C2.7,20.6,3.1,20.8,2.7,20.8L2.7,20.8z M2.8,28.6
	C2.7,28.9,2.4,28.5,2.8,28.6L2.8,28.6z M2.6,28.9c-0.1,0-0.1-0.1-0.1-0.2C2.6,28.7,2.6,28.8,2.6,28.9z M2.6,22.5
	C2.7,22.6,2.6,22.4,2.6,22.5L2.6,22.5z M2.6,17.8C2.8,17.4,2.8,17.8,2.6,17.8L2.6,17.8z M2.6,19.7C2.9,19.3,2.8,19.7,2.6,19.7
	L2.6,19.7z M2.6,22.2C2.4,22,2.7,22.3,2.6,22.2L2.6,22.2z M2.5,24.5C2.4,24.3,2.8,24.4,2.5,24.5L2.5,24.5z M2,17.9
	C2.1,17.1,2.9,17.9,2,17.9L2,17.9z M2.3,18.5C2.2,19.1,2.1,18,2.3,18.5L2.3,18.5z M1.4,21.4C1.3,20,2,21.9,1.4,21.4L1.4,21.4z
	 M1.3,20.6C0.9,20.4,1.8,20.3,1.3,20.6L1.3,20.6z M1.4,23C2.1,23.1,1.2,23.4,1.4,23L1.4,23z M1.2,21.8c0.3-0.5,2.1,0.5,0.9,0.5
	C1.6,22.4,2,21.9,1.2,21.8z M2.2,24.3C2.6,23.4,2.1,24.8,2.2,24.3L2.2,24.3z M2.4,26.3C2.6,26.5,2.6,26.5,2.4,26.3L2.4,26.3z
	 M2.6,31.2C2.7,31.7,2.3,30.8,2.6,31.2L2.6,31.2z M2.8,28.9C2.9,29.5,1.9,28.6,2.8,28.9L2.8,28.9z M2.8,30.2
	C3,30.6,2.5,30.2,2.8,30.2L2.8,30.2z M3,24.4C2.7,24.8,3,23.9,3,24.4L3,24.4z M3,23.5C2.9,23.4,3.2,23.2,3,23.5L3,23.5z M3.1,30.9
	C3.5,31.4,2.5,30.8,3.1,30.9L3.1,30.9z M3.2,21.8C3.5,22.3,2.7,21.7,3.2,21.8L3.2,21.8z M3.3,29.2C3.5,28.4,3.1,29.8,3.3,29.2
	L3.3,29.2z M3.5,31.8C3.6,31.9,3,32.4,3.5,31.8L3.5,31.8z M3.5,31C3.7,30.6,3.8,31,3.5,31L3.5,31z M3.5,28.5
	C4,28.3,3.5,28.5,3.5,28.5L3.5,28.5z M3.8,25.8C4,26.1,3.5,25.8,3.8,25.8L3.8,25.8z M4.1,31.4C3.8,31.7,4.1,31,4.1,31.4L4.1,31.4z
	 M3.9,20.5C3.7,19.9,4.6,20.7,3.9,20.5L3.9,20.5z M4.5,21.1C4.4,21.3,3.9,20.6,4.5,21.1L4.5,21.1z M4.4,26.7
	C3.9,26.4,4.8,25.4,4.4,26.7L4.4,26.7z M4.5,30.1C4.3,29.9,4.8,29.4,4.5,30.1L4.5,30.1z M4.7,31.3C4.2,30.8,4.7,31.2,4.7,31.3
	L4.7,31.3z M4.8,35C4.6,35.1,4.9,34.8,4.8,35L4.8,35z M4.9,34.5C4.9,34.9,4.5,34.4,4.9,34.5L4.9,34.5z M5.4,35.1
	C4.3,34.9,5.4,34.4,5.4,35.1L5.4,35.1z M5,33.1C4.9,32.5,5.8,33.3,5,33.1L5,33.1z M5.6,31.7C4.8,31.9,5.1,30.7,5.6,31.7L5.6,31.7z
	 M5.6,36.1C5.6,36.2,5.4,36.3,5.6,36.1L5.6,36.1z M5.4,29.1c-1,0-0.4-0.4-0.4-0.6C5.3,28.6,5.9,29.1,5.4,29.1z M5.9,29.6
	C6,30.1,5.3,29.3,5.9,29.6L5.9,29.6z M5.8,30C6.1,29.7,5.8,30.4,5.8,30L5.8,30z M6.2,37.9C6.4,38.1,6.2,38.8,6.2,37.9L6.2,37.9z
	 M6.5,37.4C6.4,37.7,6.1,37.3,6.5,37.4L6.5,37.4z M5.7,35.3C5.8,34.6,7.6,35.8,5.7,35.3L5.7,35.3z M6.7,33.5
	C6.5,34,6.5,33.5,6.7,33.5L6.7,33.5z M6.5,30.4C7,30.7,6.5,30.6,6.5,30.4L6.5,30.4z M6.7,30.8C6.7,30.5,7.1,30.8,6.7,30.8L6.7,30.8z
	 M7.1,38.1C7.5,38.4,6.5,38.1,7.1,38.1L7.1,38.1z M7.4,38.8C7.8,39.8,6.7,38.8,7.4,38.8L7.4,38.8z M7.3,35.9
	C7.9,36.5,6.5,35.8,7.3,35.9L7.3,35.9z M7.9,38.7C7,38.8,7.9,37.5,7.9,38.7L7.9,38.7z M8.3,40.7C8.2,40.8,8,40.3,8.3,40.7L8.3,40.7z
	 M8.3,38.2c-0.9-0.2-0.6-0.6-0.6-0.7C7.9,37.5,8.5,38.2,8.3,38.2z M8.5,40.7C8.3,40.7,8.6,40.4,8.5,40.7L8.5,40.7z M8.9,40.6
	C8.9,40.7,8.5,40.6,8.9,40.6L8.9,40.6z M8.8,40.1C8.1,39.7,9.3,39.7,8.8,40.1L8.8,40.1z M9,38.9C8.8,39.1,9,38.4,9,38.9L9,38.9z
	 M9.1,38.7C9,38.3,9.1,38.5,9.1,38.7L9.1,38.7z M9.1,39.1C9.4,39,9,39.3,9.1,39.1L9.1,39.1z M9.3,40.7C9,41,9.1,40.1,9.3,40.7
	L9.3,40.7z M9.1,37.7C9.7,36.9,9.1,37.8,9.1,37.7L9.1,37.7z M9.6,38.8C9.3,38.7,9.6,38.8,9.6,38.8L9.6,38.8z M9.8,36.5
	C9.4,36.8,9.5,36.1,9.8,36.5L9.8,36.5z M9.8,35.9C9.9,35.3,10.2,36,9.8,35.9L9.8,35.9z M10,32.1C9.7,32.1,10.2,32,10,32.1L10,32.1z
	 M10.3,32.5C10.4,32.6,10.1,32.5,10.3,32.5L10.3,32.5z M10.6,37.5C9.8,37.3,10.5,37.3,10.6,37.5L10.6,37.5z M10.8,34.3
	C10.8,35.6,10.4,34.2,10.8,34.3L10.8,34.3z M10.8,35.5C10.4,35.5,11,35.2,10.8,35.5L10.8,35.5z M11,40.3C10.4,40.8,11,40,11,40.3
	L11,40.3z M11.5,38.9C10.6,38.5,12.7,39.3,11.5,38.9L11.5,38.9z M11.7,38.3C11.6,38.6,11.7,38.2,11.7,38.3L11.7,38.3z M12,37
	c-0.4-0.5-0.7-0.6-0.8-0.3c-1-0.4,0.2-0.4,0.5-0.5c0.3,0,0.5,0.2,0.5,0.8C12.3,37.1,12.1,37,12,37z M12.4,37.8
	C12.4,37.8,12.1,37.7,12.4,37.8L12.4,37.8z M12.6,43.1C12.5,43.3,12.4,43,12.6,43.1L12.6,43.1z M12.5,40.7
	C12,40.5,13,40.2,12.5,40.7L12.5,40.7z M12.7,35.9C12.1,35.8,12.9,35.2,12.7,35.9L12.7,35.9z M12.9,34C13,34.2,12.4,34,12.9,34
	L12.9,34z M13,41C13.1,41.3,12.7,40.8,13,41L13,41z M13.1,36.1C13,36.2,12.9,36.2,13.1,36.1L13.1,36.1z M13.1,32.8
	C13.1,32.9,12.6,33.1,13.1,32.8L13.1,32.8z M13.2,24.9C13.2,25,13,25.1,13.2,24.9L13.2,24.9z M13.2,24.5
	C13.2,24.4,13.3,24.4,13.2,24.5L13.2,24.5z M13.3,24.3C13.2,24.5,13.2,24.3,13.3,24.3L13.3,24.3z M13.8,39.2
	C13.6,39.9,13.2,38.7,13.8,39.2L13.8,39.2z M13.8,44.3c-0.1-0.1-0.2-0.1-0.2-0.2C13.7,44.2,13.8,44.2,13.8,44.3
	C13.8,44.2,13.8,44.3,13.8,44.3z M13.8,43C14,43.1,13.7,42.8,13.8,43L13.8,43z M14,41.5C14,42,13.4,41.3,14,41.5L14,41.5z M14,39.9
	C14,40,13.2,39.3,14,39.9L14,39.9z M14.2,41.3C14,41.6,14.4,41,14.2,41.3L14.2,41.3z M14.3,42.4C14,42.1,14.6,42.1,14.3,42.4
	L14.3,42.4z M14.5,42.5C14.4,42.8,14.3,42.1,14.5,42.5L14.5,42.5z M14.6,41.4C14.8,39.9,14.8,40,14.6,41.4L14.6,41.4z M14.9,39.8
	C14.7,39.9,13.9,39,14.9,39.8L14.9,39.8z M15.1,42C14.7,42.1,15.1,41.7,15.1,42L15.1,42z M15.2,40.7C14.8,40.4,15.2,40.4,15.2,40.7
	L15.2,40.7z M15.2,39.5C15.8,39.1,16.5,39.3,15.2,39.5L15.2,39.5z M16.1,23.8C15.9,23.8,16.2,23.5,16.1,23.8L16.1,23.8z M16,21.7
	C16.2,21.6,16.1,22,16,21.7L16,21.7z M16,21.4C16.2,21.2,15.9,21.5,16,21.4L16,21.4z M15.9,29.7C16.8,29.4,15.9,29.7,15.9,29.7
	L15.9,29.7z M17.1,28.3C17,28.2,17.2,27.8,17.1,28.3L17.1,28.3z M17,26C17,25.9,17.2,25.9,17,26L17,26z M17,21.9
	C17,21.8,17.3,21.9,17,21.9L17,21.9z M16.6,21C17.6,20.9,16.5,21.2,16.6,21L16.6,21z M16.7,24.2C16.5,25.2,16.9,23.3,16.7,24.2
	L16.7,24.2z M16.7,22.2C17,22.1,16.6,22.5,16.7,22.2L16.7,22.2z M16.9,24.5C16.9,24.8,16.6,24.5,16.9,24.5L16.9,24.5z M16.7,21.8
	C16.6,21.5,16.7,21.6,16.7,21.8L16.7,21.8z M16.5,31.8C16.5,31.1,17.2,31.8,16.5,31.8L16.5,31.8z M16.8,42.1
	C16,41.5,16.8,42.1,16.8,42.1L16.8,42.1z M16.8,43.4C16.8,43.5,16.5,43.5,16.8,43.4L16.8,43.4z M16.4,40.5
	C16.7,40.3,16.4,40.8,16.4,40.5L16.4,40.5z M16.3,40.8C15.8,41.1,16.7,40.6,16.3,40.8L16.3,40.8z M16.3,41.8
	C16.3,42.1,16,41.9,16.3,41.8L16.3,41.8z M16.6,38.6C16.5,39.4,16.2,38.6,16.6,38.6L16.6,38.6z M16.5,25.6
	C16.5,26.6,16.2,25.4,16.5,25.6L16.5,25.6z M16.4,23.7C16.4,23.7,16.5,23.9,16.4,23.7L16.4,23.7z M16.5,20.7
	C16.5,20.8,16.1,20.7,16.5,20.7L16.5,20.7z M16.2,21.4C16.5,21.4,16.4,21.7,16.2,21.4L16.2,21.4z M16.2,30.6
	C16.3,30.3,16.3,30.6,16.2,30.6L16.2,30.6z M16.2,30.3C16.1,30.4,15.7,29.7,16.2,30.3L16.2,30.3z M16.2,31.2
	C16.3,31.1,16.5,31.2,16.2,31.2L16.2,31.2z M16.1,32.5C15.7,32.9,16.1,32.1,16.1,32.5L16.1,32.5z M16,33.3
	C16.3,33.3,16,33.6,16,33.3L16,33.3z M15.9,34.5C16.3,33.8,16.5,35.6,15.9,34.5L15.9,34.5z M16.2,35.4
	C15.9,35.7,16.2,34.9,16.2,35.4L16.2,35.4z M15.6,44.2C15.5,44.8,15.1,44.7,15.6,44.2L15.6,44.2z M15.6,39.9
	C15.8,40,15.1,39.9,15.6,39.9L15.6,39.9z M15.9,44.8C15.9,45,15.7,44.5,15.9,44.8L15.9,44.8z M16.5,37.6
	C16.4,38.1,15.4,37.5,16.5,37.6L16.5,37.6z M16.4,44.6C16.4,44.7,15.8,44.4,16.4,44.6L16.4,44.6z M16.5,43.6
	C16.2,43.6,16.5,43.4,16.5,43.6L16.5,43.6z M16.6,42.7C16.3,42.5,16.7,42.4,16.6,42.7L16.6,42.7z M16.7,44.3
	C16.3,44.3,16.9,43.9,16.7,44.3L16.7,44.3z M16.8,44.5C16.7,44.7,16.6,44.5,16.8,44.5L16.8,44.5z M16.8,40C16,40.1,17,39.4,16.8,40
	L16.8,40z M17,36.6C16.8,36.7,16.6,36.6,17,36.6L17,36.6z M17.3,41.5C17.6,41.5,17.2,41.7,17.3,41.5L17.3,41.5z M17.1,39
	C17.6,38.7,17.1,39.5,17.1,39L17.1,39z M17.3,32.3C17.7,31.9,17.2,32.8,17.3,32.3L17.3,32.3z M17.1,32.5
	C17.8,32.5,16.4,32.8,17.1,32.5L17.1,32.5z M16.8,34.7C16.7,34.3,17.2,34.2,16.8,34.7L16.8,34.7z M17,39.5
	C17.2,39.6,17,39.6,17,39.5L17,39.5z M17.3,43.9C17,45,16.7,43.5,17.3,43.9L17.3,43.9z M17.3,42.6C18,42.6,16.8,43.1,17.3,42.6
	L17.3,42.6z M17.5,37.9C17.6,37.5,18.1,37.8,17.5,37.9L17.5,37.9z M17.8,35.2C17.9,36,17.7,34.9,17.8,35.2L17.8,35.2z M18,38
	C18.2,38.3,17.7,37.9,18,38L18,38z M18,34.6C17,34.6,18.4,33.8,18,34.6L18,34.6z M17.9,33.5C17.8,33.5,18.3,32.7,17.9,33.5
	L17.9,33.5z M18.2,38.3C17.9,37.9,18.8,38.3,18.2,38.3L18.2,38.3z M18.4,44C18.3,43.6,18.8,44,18.4,44L18.4,44z M18.5,41.1
	C18.6,40.8,18.4,41.3,18.5,41.1L18.5,41.1z M18.6,37.6C18.7,37.6,17.5,38,18.6,37.6L18.6,37.6z M18.4,34.2
	C18.1,33.8,19,34.2,18.4,34.2L18.4,34.2z M18.7,44.5C18.5,44.4,19,44.1,18.7,44.5L18.7,44.5z M18.9,41.9
	C18.9,42.6,18.3,41.8,18.9,41.9L18.9,41.9z M18.9,40.5C18.7,40.5,18.6,40.4,18.9,40.5L18.9,40.5z M18.8,33.8
	C18.7,33,19.2,34.3,18.8,33.8L18.8,33.8z M18.8,33.2C19.4,33.3,18.2,33.8,18.8,33.2L18.8,33.2z M18.6,32.8
	C18.6,32.6,18.9,33,18.6,32.8L18.6,32.8z M19.1,44.9C18.8,44.6,19.2,44.8,19.1,44.9L19.1,44.9z M19.3,42.2
	C19.2,42.5,18.9,41.6,19.3,42.2L19.3,42.2z M19.3,34C19.1,34.1,19.3,33.7,19.3,34L19.3,34z M19.7,43.3
	C19.3,44.4,19.3,43.3,19.7,43.3L19.7,43.3z M19.5,42.5C19.5,41.9,19.4,42.8,19.5,42.5L19.5,42.5z M19.5,34
	C19.6,33.9,19.7,34,19.5,34L19.5,34z M19.8,38.6C19.9,38.4,19.9,38.6,19.8,38.6L19.8,38.6z M20.1,34.7C20.1,35,19.8,34.7,20.1,34.7
	L20.1,34.7z M20,38.3C20,38.3,20,38,20,38.3L20,38.3z M19.9,38.5C20.1,38.8,19.9,38.5,19.9,38.5L19.9,38.5z M19.9,34.4
	C19.7,35.4,20.1,33.5,19.9,34.4L19.9,34.4z M19.8,40.4C20.3,39.9,19.8,40.8,19.8,40.4L19.8,40.4z M20.2,43.9
	C19.5,43.6,20,43.4,20.2,43.9L20.2,43.9z M20.3,38.7C20.4,38.9,20.1,38.7,20.3,38.7L20.3,38.7z M20.5,44
	C20.5,44.4,20.5,43.7,20.5,44L20.5,44z M20.7,44.1C20.7,44.2,20.8,43.9,20.7,44.1L20.7,44.1z M21,44C20.7,44,21,43.9,21,44L21,44z
	 M20.7,43.5c-0.1,0.1-0.3,0-0.4,0C20.8,43.3,21.5,43,20.7,43.5z M20.5,39.3C20.6,39.1,20.8,39.8,20.5,39.3L20.5,39.3z M20.9,40.7
	C20.5,41,21.5,40.4,20.9,40.7L20.9,40.7z M20.8,35.6C20.8,35.5,21.1,35.6,20.8,35.6L20.8,35.6z M20.9,42.2
	C20.8,41.5,21.4,42.5,20.9,42.2L20.9,42.2z M21.1,43.8C21,43.7,21.4,43.7,21.1,43.8L21.1,43.8z M20.9,40.9
	C21,41.4,20.3,40.6,20.9,40.9L20.9,40.9z M20.7,42.3C21.3,42.6,20.3,42.1,20.7,42.3L20.7,42.3z M21.4,44.2
	C21,44.8,20.9,44.7,21.4,44.2L21.4,44.2z M21.6,41.9C21.4,42.8,21.1,41.5,21.6,41.9L21.6,41.9z M21.6,42.3
	C21.7,42.4,21.4,42.1,21.6,42.3L21.6,42.3z M21.7,43.9C21.5,44.3,21.2,43.9,21.7,43.9L21.7,43.9z M21.7,43
	C21.7,43.1,21.5,43.1,21.7,43L21.7,43z M21.8,44.6C21.9,45,21.6,44.5,21.8,44.6L21.8,44.6z M21.8,40.2
	C22.3,40.8,20.8,40.2,21.8,40.2L21.8,40.2z M21.5,38.8C21.4,38.4,21.9,39.1,21.5,38.8L21.5,38.8z M22.1,43.3
	C21.5,43.8,23,42.7,22.1,43.3L22.1,43.3z M22.4,43.9C22,44.3,22.3,43,22.4,43.9L22.4,43.9z M22.3,40.1
	C23.6,40.4,21.2,40.7,22.3,40.1L22.3,40.1z M22.2,39.8C21.9,40,22.4,39.7,22.2,39.8L22.2,39.8z M22.9,35.4
	C22.2,35.1,23.4,35.6,22.9,35.4L22.9,35.4z M22.6,38.5C23.9,38.7,22.6,38.9,22.6,38.5L22.6,38.5z M22.5,38.3
	C22.6,38.3,22.9,37.8,22.5,38.3L22.5,38.3z M22.7,42.1C22.5,41.9,22.9,42.2,22.7,42.1L22.7,42.1z M23.3,43.2
	C22.8,43.7,22.4,42.5,23.3,43.2L23.3,43.2z M23.5,38.7C23.3,38.9,23.1,38.3,23.5,38.7L23.5,38.7z M23.5,40
	C23.3,40.3,23.1,40,23.5,40L23.5,40z M23.3,36.3C23,36.3,23.3,35.9,23.3,36.3L23.3,36.3z M23.4,42.8C23.2,42.8,23.4,42.4,23.4,42.8
	L23.4,42.8z M23.5,43.2C23.2,43.2,23.5,43,23.5,43.2L23.5,43.2z M23.3,40.3C24,40.4,23,40.8,23.3,40.3L23.3,40.3z M23.7,43.7
	C23.5,43.6,23.9,43.8,23.7,43.7L23.7,43.7z M23.9,45.4C23.9,45.8,23.7,44.9,23.9,45.4L23.9,45.4z M24.1,42.4
	C24.1,42.6,23.8,42.4,24.1,42.4L24.1,42.4z M24.2,42.3C23.7,42.1,24.2,42.3,24.2,42.3L24.2,42.3z M24.1,36.4
	C23.9,36.5,24.1,36.4,24.1,36.4L24.1,36.4z M24.3,41C25.2,41,24.3,41.4,24.3,41L24.3,41z M24.7,43.3C24.2,44.3,24.3,43.1,24.7,43.3
	L24.7,43.3z M24.5,45.5C24.5,45.6,24.5,45,24.5,45.5L24.5,45.5z M24.8,43.5C24.8,43.7,24.4,43.6,24.8,43.5L24.8,43.5z M24.7,41.3
	C24.8,41.1,24.7,41.6,24.7,41.3L24.7,41.3z M25,41.6C24.9,42.1,24.6,41.2,25,41.6L25,41.6z M25.1,39.9
	C24.4,39.5,25.2,39.5,25.1,39.9L25.1,39.9z M25,35.2C25.1,35.4,24.9,35.4,25,35.2L25,35.2z M25,37.6C25.2,38,25,37.9,25,37.6
	L25,37.6z M25.3,42.5C25,42.8,25.2,42.4,25.3,42.5L25.3,42.5z M25.4,40.9C25.6,41.5,24.9,40.9,25.4,40.9L25.4,40.9z M25.5,45.4
	C26,45.6,25.1,45.7,25.5,45.4L25.5,45.4z M25.4,39.2C25.5,38.9,25.7,39.2,25.4,39.2L25.4,39.2z M26,45C26.1,45.3,25.6,44.9,26,45
	L26,45z M25.8,37.2C25.7,36.9,26,37.5,25.8,37.2L25.8,37.2z M26.8,39.1c-0.4,0,0.2,0.5-0.1,0.5C25.4,39.6,26.5,39.1,26.8,39.1z
	 M27,36.2c0,0,0.2,0.2,0.1,0.2C26.9,36.4,26.8,36.2,27,36.2z M26.9,39.9C27.4,40.1,26.5,40.3,26.9,39.9L26.9,39.9z M26.9,35.3
	C26.8,35.3,26.6,35,26.9,35.3L26.9,35.3z M26.9,38.5C26.4,38.4,27.2,38.6,26.9,38.5L26.9,38.5z M26.2,39.6
	C25.9,39.6,26.1,39.5,26.2,39.6L26.2,39.6z M26.3,40.3C26.8,40,26.4,40.4,26.3,40.3L26.3,40.3z M26.9,42.4
	C26.6,42.4,26.2,41,26.9,42.4L26.9,42.4z M27,42.6C26.5,42.6,27.4,42.3,27,42.6L27,42.6z M27.1,45.2C27.2,45.2,27,45.3,27.1,45.2
	L27.1,45.2z M27.3,44.1C26.6,43.9,28.3,44.1,27.3,44.1L27.3,44.1z M27.4,38.5C26.8,38.2,27.4,38.4,27.4,38.5L27.4,38.5z M27.3,35.9
	C27.3,35.6,27.7,36,27.3,35.9L27.3,35.9z M27.2,38.8C27.1,38.4,27.4,39.2,27.2,38.8L27.2,38.8z M27.6,44.9
	C27.4,45,27.4,44.9,27.6,44.9L27.6,44.9z M27.8,44.2C27.4,44.2,27.4,44,27.8,44.2L27.8,44.2z M28,45.4C27.9,45.3,28,45.2,28,45.4
	L28,45.4z M28.1,42.5C28.2,42.7,28,42.7,28.1,42.5L28.1,42.5z M27.8,40.7c-0.4-1,0.5,0,0.6,0.5C28,41.4,28,40.7,27.8,40.7z
	 M28.6,35.3c-0.9-0.1-0.8-0.7-0.8-0.7c0.3-0.1,0.5-0.1,0.4,0.3C28.3,35,28.6,35.1,28.6,35.3z M28.5,37.6
	C28.5,37.5,28.6,37.5,28.5,37.6L28.5,37.6z M28.1,39.8C28.1,40,28,40.1,28.1,39.8L28.1,39.8z M28,35.6C27.7,35.8,28,35.2,28,35.6
	L28,35.6z M27.8,35.9C27.9,36,27.9,36,27.8,35.9L27.8,35.9z M28.4,40.2C28.2,39.9,28.4,40.2,28.4,40.2L28.4,40.2z M28.6,41.1
	C28.2,41.4,28.7,40.6,28.6,41.1L28.6,41.1z M28.6,40.1C28.6,40,28.8,39.7,28.6,40.1L28.6,40.1z M28.7,44.6
	C28.5,46,28.7,44.6,28.7,44.6L28.7,44.6z M28.9,42.7C28.9,43,28.6,42.4,28.9,42.7L28.9,42.7z M29.1,42.1
	C29.1,42.4,29.1,42.1,29.1,42.1L29.1,42.1z M29.1,39.7C28.7,39.7,29.5,39.1,29.1,39.7L29.1,39.7z M29.4,37.1
	C29.4,37.1,29.7,37,29.4,37.1L29.4,37.1z M29.7,38.6C29.7,38.6,29.7,38.6,29.7,38.6c0-0.1,0-0.1,0-0.2c0,0,0,0,0,0
	C29.7,38.5,29.7,38.6,29.7,38.6z M29.8,40.2C29.8,40.5,29.6,40.2,29.8,40.2L29.8,40.2z M27,34.5c-0.8,0.2-1.8,0.3-2.7,0.3
	c-0.3,0-0.6,0-0.8-0.1c0,0-0.1,0.1-0.2,0.1c0,0,0-0.1,0-0.1c-0.7-0.1-1.4-0.2-2-0.4c-0.9-0.3-1.6-0.7-2.2-1.2
	c-0.3-0.2-0.5-0.5-0.7-0.8c0.1,0.1,0.1,0.4-0.2,0.1c0.1-0.2,0.1-0.1,0.2-0.1c-0.2-0.3-0.4-0.6-0.5-0.9c0,0,0-0.1,0-0.1
	c-0.2,0.1-0.4,0.3-0.4,0.4c-0.6-0.7-0.8-1.3-0.2-1.3c-0.2,0,0.1,0.7,0.6,0.8c-0.1-0.2-0.1-0.5-0.2-0.8c0,0,0,0,0,0
	c-0.1-0.4-0.1-0.9-0.1-1.5v-8.6h-2.7v-3.5c1-0.3,1.8-0.8,2.5-1.3c0.7-0.6,1.2-1.3,1.6-2.1c0.4-0.8,0.7-1.8,0.9-3.1h3.5v1.5
	c0,0,0,0,0.1,0c0,0,0,0-0.1,0v3.7c0.2,0,0.1,0.2,0,0.1v0.9h1.9c0.2-0.3,0.7-0.9,0.7-0.9c0,0.4,0,0.7-0.1,0.9h1.9
	c0-0.1,0.1-0.3,0.2-0.6c0,0-0.1,0.4-0.2,0.6H29v0.7c0,0.1,0,0.1,0,0.1v3h-0.8c0,0,0,0,0,0c0,0,0,0,0,0h-1.8c0.1,0,0,0.4-0.3,0.2
	c0.1-0.1,0.2-0.2,0.3-0.2h-0.2c0,0,0,0,0,0.1c0,0,0,0,0-0.1H25c0,0.1,0,0.3-0.3,0.1c0-0.1,0.1-0.1,0.1-0.1h-1.5v1.4
	c0.3,0.1,0.2,0.2,0,0.2v4.6c0,1.2,0.1,2.1,0.2,2.5c0,0,0.1,0,0.1,0.1c0,0,0,0,0,0c0,0,0,0,0,0.1c0.2,0.4,0.4,0.7,0.8,1
	c0.5,0.3,1.2,0.5,1.9,0.5c0.8,0,1.7-0.2,2.5-0.6c-0.1-0.2-0.2-0.5,0.2-0.3c0,0.1,0,0.2,0,0.2c0.1,0,0.1-0.1,0.2-0.1
	c-0.1-0.2-0.3-0.5-0.5-0.5c0.4-0.2,0.9-0.1,0.9,0.3c0.1-0.1,0.3-0.1,0.4-0.2v0.3c0,0,0,0,0,0V32c0.1,0,0.1,0,0,0v1.4
	C28.8,33.9,27.8,34.3,27,34.5z M27.7,27.1C28.4,27.1,27.2,27.5,27.7,27.1L27.7,27.1z M27.7,28.3C27.3,27.8,28.2,28.3,27.7,28.3
	L27.7,28.3z M27.5,26.5C27.5,26.2,27.9,26.5,27.5,26.5L27.5,26.5z M27.6,23.8C27.6,22.9,27.8,23.1,27.6,23.8L27.6,23.8z M27.7,26.9
	C27.2,27.1,27.7,26.5,27.7,26.9L27.7,26.9z M28,22.6c0,0.1,0,0.4-0.1,0.5C27.7,23,27.8,22.7,28,22.6z M28,26.6
	C27.9,26.8,27.8,26.4,28,26.6L28,26.6z M28.2,30.1C28,30.7,27.8,29.5,28.2,30.1L28.2,30.1z M28.2,29.7
	C28.2,29.7,28.2,29.7,28.2,29.7c0,0,0,0.1,0,0.1C27.8,29.8,28.2,29.8,28.2,29.7z M25.5,30.1c-0.1-0.1,0.7-0.5,0.2,0
	C25.6,30.1,25.5,30.1,25.5,30.1c0,0,0.1,0,0.1-0.1C25.5,30,25.5,30,25.5,30.1z M25.3,27C25.4,26.8,25.5,27.1,25.3,27L25.3,27z
	 M25.4,30.4C24.8,31.1,24.9,30.1,25.4,30.4L25.4,30.4z M25.5,24.4C25.5,24.8,24.2,24.4,25.5,24.4L25.5,24.4z M24.5,22.2
	c0.1,0.3-0.1-0.3-0.1-0.3c0.8-0.5,0.9,0.1,1.1,0.2C25.4,22.1,24.5,22.6,24.5,22.2z M23.9,29.2c-0.6,0.3-0.5-0.6-0.2-0.3
	c0,0,0-0.1,0-0.1c-0.1-0.1-0.4-0.5-0.4-0.5c0.2-0.1,0.5-0.1,0.3,0.3c0.2,0,0.4,0.2,0.4,0.4c-0.2,0-0.3-0.1-0.3-0.1
	C23.7,28.9,23.8,29,23.9,29.2z M23.6,22C24,22,23.6,22.4,23.6,22L23.6,22z M23.6,21.4C23.9,21.1,23.5,21.8,23.6,21.4L23.6,21.4z
	 M23.8,20.7C24,20.7,23.8,21.2,23.8,20.7L23.8,20.7z M23.5,23.3C24.4,22.8,24,23.2,23.5,23.3L23.5,23.3z M23.9,21.1
	C23.9,20.8,24,20.9,23.9,21.1L23.9,21.1z M24.3,24.5C23.2,24.3,24.3,24.3,24.3,24.5L24.3,24.5z M24.1,23.9
	C24.1,23.4,24.2,23.5,24.1,23.9L24.1,23.9z M24.2,21.6C24.1,21.2,24.5,21.9,24.2,21.6L24.2,21.6z M24.3,22.3
	C25.1,22.2,24,23,24.3,22.3L24.3,22.3z M24.4,25.1C24,24.2,24.5,25.1,24.4,25.1L24.4,25.1z M23.7,24.7
	C23.6,24.6,23.6,24.4,23.7,24.7L23.7,24.7z M23.7,25.4C24.7,25.8,22.8,25.7,23.7,25.4L23.7,25.4z M24,26.3
	C24.1,25.7,24,26.3,24,26.3L24,26.3z M23.8,26.9C23.8,26.8,24,26.7,23.8,26.9L23.8,26.9z M23.6,26.6C23.5,26.4,23.9,26.6,23.6,26.6
	L23.6,26.6z M23.6,26.5C23.5,26.4,23.6,26.4,23.6,26.5L23.6,26.5z M23.7,26.7C23.6,26.6,23.8,26.5,23.7,26.7L23.7,26.7z M23.5,26.4
	C23.3,26.6,23.1,26.1,23.5,26.4L23.5,26.4z M23.3,26.7C23.4,26.3,23.5,26.9,23.3,26.7L23.3,26.7z M24.2,27.6
	C24.2,27.7,23.7,27.8,24.2,27.6L24.2,27.6z M24.2,27.5C23.7,26.4,24.8,27.7,24.2,27.5L24.2,27.5z M24.5,26
	C23.7,26.8,24.3,26,24.5,26L24.5,26z M24.5,27.7C24.6,28.4,24.3,27.7,24.5,27.7L24.5,27.7z M24.5,24.5
	C24.6,24.6,24.1,24.3,24.5,24.5L24.5,24.5z M24.5,23.6C24.2,23.3,24.7,23.4,24.5,23.6L24.5,23.6z M24.6,25.2c0.1,0,0.1,0.1,0,0.1
	C24.5,25.3,24.6,25.2,24.6,25.2z M24.6,20.9C25.2,20.3,24.7,21.6,24.6,20.9L24.6,20.9z M24.9,21.6C24.9,21.2,25.1,21.6,24.9,21.6
	L24.9,21.6z M25.2,21.1C25.1,22,24.9,20.9,25.2,21.1L25.2,21.1z M25.4,20.9C25.5,21,25.3,20.9,25.4,20.9L25.4,20.9z M25.3,24.2
	C25.3,24,25.6,24.2,25.3,24.2L25.3,24.2z M25.2,23.6C25.2,23.6,25.4,23.5,25.2,23.6L25.2,23.6z M25,23.1
	C25.3,22.1,25.2,23.3,25,23.1L25,23.1z M25.5,28.9C25.8,28.7,25.5,29,25.5,28.9L25.5,28.9z M25.6,23.2
	C25.8,22.6,25.9,23.8,25.6,23.2L25.6,23.2z M25.6,29.7C25.6,29.2,26.3,29.8,25.6,29.7L25.6,29.7z M25.9,22.6c0.1,0.1,0,0.2,0,0.2
	C25.7,22.8,25.8,22.6,25.9,22.6z M25.9,22.4C25.7,22.5,26.2,22,25.9,22.4L25.9,22.4z M25.8,27C25.7,26.9,26.1,26.8,25.8,27L25.8,27z
	 M25.8,27.2C25.8,27.1,26.1,27,25.8,27.2L25.8,27.2z M25.9,27.4C26.2,27.4,25.8,27.6,25.9,27.4L25.9,27.4z M26,26.8
	C26,26.8,26.1,26.8,26,26.8c0-0.2,0.3,0,0.2,0.1c0,0-0.1-0.1-0.1-0.1C26.1,26.9,26,27,26,26.8z M26.3,26.2
	C26.1,26.2,25.9,25.5,26.3,26.2L26.3,26.2z M26.1,23.4C26.1,23.3,26.1,23.3,26.1,23.4L26.1,23.4z M26.2,22.4
	C25.9,22.4,26.4,21.5,26.2,22.4L26.2,22.4z M25.8,21c0.1,0,0.3,0,0.4,0.4c0,0.3,0.2,0.4,0.2,0.6C26.1,21.9,25.6,21,25.8,21z
	 M26.5,20.7C26.3,21,26.1,20.9,26.5,20.7L26.5,20.7z M26.4,20.8C26.8,20.9,26.4,21.1,26.4,20.8L26.4,20.8z M26.3,24.5
	C26.3,24.5,26.8,24.4,26.3,24.5L26.3,24.5z M26.4,26.4C26.7,26,26.5,26.6,26.4,26.4L26.4,26.4z M26.4,28.8
	C26.9,28.7,26.3,29.3,26.4,28.8L26.4,28.8z M26.6,29.4C26,29.6,27.2,29.3,26.6,29.4L26.6,29.4z M26.8,22.4
	C27.2,23.4,25.7,22.2,26.8,22.4L26.8,22.4z M27.2,21.5C27.2,21.9,26.7,21.3,27.2,21.5L27.2,21.5z M27.2,23.2
	C27.6,23.6,26.8,23.1,27.2,23.2L27.2,23.2z M26.8,24.7C27.1,23.9,27.2,24.7,26.8,24.7L26.8,24.7z M26.8,29.5
	C26.6,29.2,27.4,29.3,26.8,29.5L26.8,29.5z M27.1,29.7C26.5,29.6,27.5,29.8,27.1,29.7L27.1,29.7z M27.1,28.3
	C27.1,28.1,27.5,28.4,27.1,28.3L27.1,28.3z M27.2,30.6C27.2,30.6,27.5,30.6,27.2,30.6L27.2,30.6z M30,36.9
	C29.8,37.2,29.8,36.5,30,36.9L30,36.9z M30.1,40.5C30,40.5,29.9,40,30.1,40.5L30.1,40.5z M30,36.4C29.9,36,30.4,36.8,30,36.4
	L30,36.4z M30.2,35.9C30.1,35.5,30.8,36.1,30.2,35.9L30.2,35.9z M30.4,37.4C30.5,37.2,30.5,37.4,30.4,37.4L30.4,37.4z M30.4,39.4
	C30.6,39.2,30.5,39.4,30.4,39.4L30.4,39.4z M30.5,37.7C30.5,37.4,30.5,37.8,30.5,37.7L30.5,37.7z M30.4,33.7
	C30.7,33.7,30.4,34,30.4,33.7L30.4,33.7z M30.7,28.5C29.6,27.7,31.5,27.9,30.7,28.5L30.7,28.5z M30.7,29.6
	C30.6,29.8,30.6,29.7,30.7,29.6L30.7,29.6z M30.8,32.5C30.6,32.5,30.4,31.8,30.8,32.5L30.8,32.5z M30.6,41.6
	C30.7,41.4,31.3,41.2,30.6,41.6L30.6,41.6z M31.1,43.4C30.8,43.4,31.2,43.1,31.1,43.4L31.1,43.4z M31.2,42.7
	C31.2,42.8,30.3,42.5,31.2,42.7L31.2,42.7z M31,37.8C31.1,37.5,31.5,38.2,31,37.8L31,37.8z M31.4,36.8
	C30.8,36.9,31.3,36.6,31.4,36.8L31.4,36.8z M31.4,44.4C31.3,44.2,31.4,44.2,31.4,44.4L31.4,44.4z M31.5,38.6
	C31.5,38.8,31.3,38.2,31.5,38.6L31.5,38.6z M31.7,43.5C31.7,43.6,31.6,43.6,31.7,43.5L31.7,43.5z M31.7,40.2
	C31.7,40.2,32,40.3,31.7,40.2L31.7,40.2z M31.8,39.2C31.9,39.4,31.7,39,31.8,39.2L31.8,39.2z M31.9,15.1
	C31.8,15.1,32.1,14.6,31.9,15.1L31.9,15.1z M31.9,40.9C32.1,41.1,31.9,41,31.9,40.9L31.9,40.9z M32,32.5C32.2,32.4,32.1,33,32,32.5
	L32,32.5z M32.1,37.8C32.5,37.7,32.1,38,32.1,37.8L32.1,37.8z M32.4,41.8C31.8,41.2,32.7,42.1,32.4,41.8L32.4,41.8z M32.5,39.7
	C32.6,39.5,32.8,40.1,32.5,39.7L32.5,39.7z M32.7,42.6C32.6,42.5,32.3,42.1,32.7,42.6L32.7,42.6z M32.8,40.5
	C32.9,40.9,32.5,40.4,32.8,40.5L32.8,40.5z M33,42.9C33,43.3,33,42.7,33,42.9L33,42.9z M33.1,42C32.9,42.1,32.8,41.5,33.1,42
	L33.1,42z M33.1,39.3C33.2,39.2,33.2,39.1,33.1,39.3L33.1,39.3z M33.4,42.7C33,42.8,33.2,42.2,33.4,42.7L33.4,42.7z M33.4,38
	C33.7,37.8,33.3,38.3,33.4,38L33.4,38z M33.7,42.1C33.8,42.7,33.1,41.9,33.7,42.1L33.7,42.1z M33.7,21.2
	C34,21.3,33.7,21.5,33.7,21.2L33.7,21.2z M33.8,28.7C34.2,28.9,33.7,29.7,33.8,28.7L33.8,28.7z M33.9,39.9
	C33.7,39.9,34.2,39.5,33.9,39.9L33.9,39.9z M34.3,41.8C33.5,42.8,34.2,40.7,34.3,41.8L34.3,41.8z M34.1,38.8
	C34.1,38.9,34,39.2,34.1,38.8L34.1,38.8z M34.3,37.3C34.1,37.5,33.3,37,34.3,37.3L34.3,37.3z M34.4,34C34.1,34.3,34.5,33.8,34.4,34
	L34.4,34z M34.4,39.1C34.3,38.8,34.5,38.7,34.4,39.1L34.4,39.1z M34.5,41.6C35,41.7,34,41.9,34.5,41.6L34.5,41.6z M34.6,40.3
	C33.8,40.4,35.3,40.1,34.6,40.3L34.6,40.3z M35.1,40.6C34.4,41.2,35.2,39.6,35.1,40.6L35.1,40.6z M35,33.4
	C35,33.3,35.3,33.2,35,33.4L35,33.4z M35,16.5c0,0-0.2-0.7,0.4-0.7c-0.1,0,0.2,0.1,0.2,0.3c-0.4-0.5-0.4-0.3-0.4,0.3
	C35.2,17.3,34.6,17,35,16.5z M35.2,33.7C35.4,33.2,35.5,33.8,35.2,33.7L35.2,33.7z M35.4,37.8C35.4,37.6,35.7,37.9,35.4,37.8
	L35.4,37.8z M35.6,31.5C36,31,35.6,31.4,35.6,31.5L35.6,31.5z M35.9,36.7C35.8,37,35.8,36.7,35.9,36.7L35.9,36.7z M35.7,32.3
	C35.7,32.3,36.3,32.4,35.7,32.3L35.7,32.3z M36,27.7C35.6,27.7,36.3,27.6,36,27.7L36,27.7z M36,30C36,30.3,36,29.7,36,30L36,30z
	 M36.1,40.6C35.9,40.9,36.1,40.6,36.1,40.6L36.1,40.6z M36.1,37.8C35.9,37.8,36.1,37.5,36.1,37.8L36.1,37.8z M36.2,22.6
	C36.1,22.7,35.2,22.6,36.2,22.6L36.2,22.6z M36.2,20.8C36.1,20.7,36.4,20.8,36.2,20.8L36.2,20.8z M36.4,34.7
	C35.9,34.7,36.4,34.4,36.4,34.7L36.4,34.7z M36.5,30.7C36.5,30.9,36,30.8,36.5,30.7L36.5,30.7z M36.7,32.7
	C36.2,32.7,37.1,32.3,36.7,32.7L36.7,32.7z M36.8,36.1C36.8,36.7,36.6,36,36.8,36.1L36.8,36.1z M36.9,31.3
	C37.2,30.8,36.9,31.4,36.9,31.3L36.9,31.3z M37.7,30.1C37.1,32.1,35.8,28.4,37.7,30.1L37.7,30.1z M37.5,28.6
	C38.3,29,36.4,28.9,37.5,28.6L37.5,28.6z M37.6,28.1C37.6,28.1,37.4,27.7,37.6,28.1L37.6,28.1z M37.7,26.6
	C37.3,26.7,37.9,26.2,37.7,26.6L37.7,26.6z M37.9,27.8C37.7,27.8,37.9,27.2,37.9,27.8L37.9,27.8z M37.9,26.8
	C38,27.1,37.6,26.8,37.9,26.8L37.9,26.8z M38.1,26.1C37.6,25.8,38.3,25.2,38.1,26.1L38.1,26.1z M38.2,35.6
	C38.6,35.5,37.9,35.6,38.2,35.6L38.2,35.6z M38.4,29.1C38.9,28.8,38.5,29.2,38.4,29.1L38.4,29.1z M38.7,22
	C38.7,21.5,39,22.2,38.7,22L38.7,22z M38.9,24.8C38.5,24.8,39.1,24.9,38.9,24.8L38.9,24.8z M38.9,25.8C39,25,39.3,25.8,38.9,25.8
	L38.9,25.8z M39.4,25.1C39.9,24.8,38.6,25.5,39.4,25.1L39.4,25.1z M39.5,26.5C38.9,26.6,39.4,26.1,39.5,26.5L39.5,26.5z M39.4,37.3
	C39.4,37.4,39.1,37.5,39.4,37.3L39.4,37.3z M39.6,36.5C39.6,36.8,39.6,36.3,39.6,36.5L39.6,36.5z M39.7,35.9
	C40.1,36.4,38.9,35.7,39.7,35.9L39.7,35.9z M39.8,35.3C39.9,35.9,39.3,35.2,39.8,35.3L39.8,35.3z M39.9,15.1
	C39.8,15.1,39.6,14.7,39.9,15.1L39.9,15.1z M40.1,22C39.7,22.1,40.1,21.7,40.1,22L40.1,22z M40.2,20.2
	C39.8,20.5,40.2,20.1,40.2,20.2L40.2,20.2z M40.2,28.8C40.3,28.8,40.6,29.5,40.2,28.8L40.2,28.8z M40.6,17.8
	C41,18.3,39.9,17.7,40.6,17.8L40.6,17.8z M40.5,28.5C40.5,28.8,40.3,28.1,40.5,28.5L40.5,28.5z M40.5,20
	C40.8,20.1,40.3,20.4,40.5,20L40.5,20z M40.6,34.8c-0.1,0-0.3-0.9,0.3-0.1C40.8,34.8,40.7,34.8,40.6,34.8z M40.9,33.3
	C41,33.9,40.4,32.8,40.9,33.3L40.9,33.3z M41.5,30.3C41.6,30.7,40.1,30.4,41.5,30.3L41.5,30.3z M41.4,35.1
	C41.4,35.1,41.5,34.8,41.4,35.1L41.4,35.1z M41.6,35.5C41.6,35.8,41.3,35.5,41.6,35.5L41.6,35.5z M41.6,26.5
	C41.7,26.8,41.3,26.4,41.6,26.5L41.6,26.5z M41.9,34.7C41.8,34.9,41.6,34.6,41.9,34.7L41.9,34.7z M41.9,27.9
	C41.8,27.9,42.1,27.7,41.9,27.9L41.9,27.9z M42,29.6C41.7,29.5,42.3,29.8,42,29.6L42,29.6z M42.5,32.4C42,32.2,42.5,32.3,42.5,32.4
	L42.5,32.4z M42.7,31.1C41.7,30.8,42.7,31.1,42.7,31.1L42.7,31.1z M42.8,32.2C43,31.8,42.7,32.5,42.8,32.2L42.8,32.2z"/>
</svg>
